<?xml version="1.0" encoding="UTF-8" standalone="no"?><!-- Generator: Gravit.io --><svg xmlns="http://www.w3.org/2000/svg" xmlns:xlink="http://www.w3.org/1999/xlink" style="isolation:isolate" viewBox="0 0 512 512" width="512pt" height="512pt"><defs><clipPath id="_clipPath_fotXzCWIR24wREgSx4yKWycaXrby2AQM"><rect width="512" height="512"/></clipPath></defs><g clip-path="url(#_clipPath_fotXzCWIR24wREgSx4yKWycaXrby2AQM)"><path d=" M 56 256 C 56 145.617 145.617 56 256 56 C 366.383 56 456 145.617 456 256 C 456 366.383 366.383 456 256 456 C 145.617 456 56 366.383 56 256 Z  M 86 256 C 86 162.174 162.174 86 256 86 C 349.826 86 426 162.174 426 256 C 426 349.826 349.826 426 256 426 C 162.174 426 86 349.826 86 256 Z " fill-rule="evenodd" fill="rgb(47,47,47)"/><path d=" M 231 371 C 231 357.202 242.202 346 256 346 C 269.798 346 281 357.202 281 371 C 281 384.798 269.798 396 256 396 C 242.202 396 231 384.798 231 371 Z  M 256 116 L 256 116 C 267.038 116 276 124.962 276 136 L 276 306 C 276 317.038 267.038 326 256 326 L 256 326 C 244.962 326 236 317.038 236 306 L 236 136 C 236 124.962 244.962 116 256 116 Z " fill-rule="evenodd" fill="rgb(47,47,47)"/></g></svg>