<?xml version="1.0" encoding="UTF-8" standalone="no"?><!-- Generator: Gravit.io --><svg xmlns="http://www.w3.org/2000/svg" xmlns:xlink="http://www.w3.org/1999/xlink" style="isolation:isolate" viewBox="0 0 512 512" width="512pt" height="512pt"><defs><clipPath id="_clipPath_CumiM4SJl7MxA925MxIeMEwqLc4HvEEN"><rect width="512" height="512"/></clipPath></defs><g clip-path="url(#_clipPath_CumiM4SJl7MxA925MxIeMEwqLc4HvEEN)"><path d=" M 56 256 C 56 145.617 145.617 56 256 56 C 366.383 56 456 145.617 456 256 C 456 366.383 366.383 456 256 456 C 145.617 456 56 366.383 56 256 Z  M 86 256 C 86 162.174 162.174 86 256 86 C 349.826 86 426 162.174 426 256 C 426 349.826 349.826 426 256 426 C 162.174 426 86 349.826 86 256 Z " fill-rule="evenodd" fill="rgb(47,47,47)"/><path d=" M 276 333 L 276 229 L 276 204 L 276 204 L 216 204 L 216 229 L 236 229 L 236 333 L 216 333 L 216 373 L 236 373 L 236 373 L 276 373 L 276 373 L 296 373 L 296 333 L 276 333 Z  M 231 164 C 231 150.202 242.202 139 256 139 C 269.798 139 281 150.202 281 164 C 281 177.798 269.798 189 256 189 C 242.202 189 231 177.798 231 164 Z " fill-rule="evenodd" fill="rgb(47,47,47)"/></g></svg>