<?xml version="1.0" encoding="UTF-8" standalone="no"?>
<!-- Generator: Gravit.io -->
<svg xmlns="http://www.w3.org/2000/svg" xmlns:xlink="http://www.w3.org/1999/xlink" style="isolation:isolate" viewBox="961 962.433 988 1065.134" width="988pt" height="1065.134pt"><g style="isolation:isolate"><linearGradient id="_lgradient_0" x1="0.5000000000000018" y1="4.440892098500626e-16" x2="0.5000000000000019" y2="1.0000000000000004" gradientTransform="matrix(970,0,0,970,970,1000)" gradientUnits="userSpaceOnUse"><stop offset="0%" stop-opacity="1" style="stop-color:rgb(188,8,43)"/><stop offset="100%" stop-opacity="1" style="stop-color:rgb(138,5,5)"/></linearGradient><rect x="970" y="1000" width="970" height="970" transform="matrix(1,0,0,1,0,0)" fill="url(#_lgradient_0)"/><g filter="url(#Cb33UU1Y2LbdzfEnM0esv7iJmFHwFk4y)"><path d=" M 1775.244 1738.893 L 1514.756 1889.286 C 1481.776 1908.327 1428.224 1908.327 1395.244 1889.286 L 1134.756 1738.893 C 1101.776 1719.852 1075 1673.475 1075 1635.393 L 1075 1334.607 C 1075 1296.525 1101.776 1250.148 1134.756 1231.107 L 1395.244 1080.714 C 1428.224 1061.673 1481.776 1061.673 1514.756 1080.714 L 1775.244 1231.107 C 1808.224 1250.148 1835 1296.525 1835 1334.607 L 1835 1635.393 C 1835 1673.475 1808.224 1719.852 1775.244 1738.893 Z " fill="rgb(0,0,0)"/><path d=" M 1154.837 1334.795 L 1395.163 1473.547 C 1417.15 1486.241 1435 1517.159 1435 1542.547 L 1435 1820.051 C 1435 1845.439 1417.15 1855.745 1395.163 1843.051 L 1370.588 1828.863 C 1361.985 1823.896 1355 1811.798 1355 1801.863 L 1355 1560.735 C 1355 1550.801 1348.015 1538.702 1339.412 1533.735 L 1330.588 1528.641 C 1321.985 1523.674 1315 1527.707 1315 1537.641 L 1315 1778.769 C 1315 1788.704 1308.015 1792.736 1299.412 1787.769 L 1250.588 1759.581 C 1241.985 1754.614 1235 1742.516 1235 1732.581 L 1235 1491.453 C 1235 1481.519 1228.015 1469.42 1219.412 1464.453 L 1210.588 1459.359 C 1201.985 1454.392 1195 1458.425 1195 1468.359 L 1195 1709.487 C 1195 1719.422 1188.015 1723.454 1179.412 1718.487 L 1154.837 1704.299 C 1132.85 1691.605 1115 1660.687 1115 1635.299 L 1115 1357.795 C 1115 1332.407 1132.85 1322.101 1154.837 1334.795 Z " fill="rgb(255,255,255)"/><path d=" M 1514.837 1473.547 L 1755.163 1334.795 C 1777.15 1322.101 1795 1332.407 1795 1357.795 L 1795 1635.299 C 1795 1660.687 1777.15 1691.605 1755.163 1704.299 L 1514.837 1843.051 C 1492.85 1855.745 1475 1845.439 1475 1820.051 L 1475 1542.547 C 1475 1517.159 1492.85 1486.241 1514.837 1473.547 Z " fill="rgb(255,255,255)"/><path d=" M 1555 1709.487 L 1555 1699.299 C 1555 1689.365 1561.985 1677.266 1570.588 1672.299 L 1699.412 1597.923 C 1708.015 1592.956 1715 1596.989 1715 1606.923 L 1715 1617.111 C 1715 1627.046 1708.015 1639.144 1699.412 1644.111 L 1570.588 1718.487 C 1561.985 1723.454 1555 1719.422 1555 1709.487 Z " fill="rgb(0,0,0)"/><path d=" M 1555 1570.923 L 1555 1560.735 C 1555 1550.801 1561.985 1538.702 1570.588 1533.735 L 1699.412 1459.359 C 1708.015 1454.392 1715 1458.425 1715 1468.359 L 1715 1478.547 C 1715 1488.481 1708.015 1500.58 1699.412 1505.547 L 1570.588 1579.923 C 1561.985 1584.89 1555 1580.858 1555 1570.923 Z " fill="rgb(0,0,0)"/><path d=" M 1174.837 1300.154 L 1415.163 1438.906 C 1437.15 1451.6 1472.85 1451.6 1494.837 1438.906 L 1735.163 1300.154 C 1757.15 1287.46 1757.15 1266.848 1735.163 1254.154 L 1494.837 1115.402 C 1472.85 1102.708 1437.15 1102.708 1415.163 1115.402 L 1174.837 1254.154 C 1152.85 1266.848 1152.85 1287.46 1174.837 1300.154 Z " fill="rgb(255,255,255)"/><path d=" M 1294.998 1369.529 C 1326.962 1314.324 1386.674 1277.154 1455 1277.154 C 1523.326 1277.154 1583.038 1314.324 1615.002 1369.529 L 1494.837 1438.906 C 1472.85 1451.6 1437.15 1451.6 1415.163 1438.906 L 1294.998 1369.529 Z  M 1662.174 1212.014 L 1603.623 1276.111 C 1596.923 1283.446 1597.805 1294.41 1605.59 1300.581 C 1605.689 1300.659 1618.474 1313.633 1618.555 1313.738 C 1624.609 1321.614 1636.333 1323.686 1644.72 1318.361 L 1644.72 1318.361 L 1644.72 1318.361 L 1644.72 1318.361 L 1644.72 1318.361 L 1740.386 1257.624 C 1738.81 1256.415 1737.069 1255.255 1735.163 1254.154 L 1662.174 1212.014 Z  M 1546.978 1145.505 L 1519.602 1232.805 C 1516.629 1242.285 1521.894 1252.125 1531.352 1254.766 C 1531.352 1254.766 1547.648 1261.576 1547.648 1261.576 C 1556.026 1266.3 1567.172 1263.34 1572.523 1254.97 L 1572.523 1254.97 L 1572.523 1254.97 L 1572.523 1254.97 L 1616.748 1185.787 L 1546.978 1145.505 Z  M 1247.826 1212.014 L 1306.377 1276.111 C 1313.077 1283.446 1312.195 1294.41 1304.41 1300.581 C 1304.311 1300.659 1291.526 1313.633 1291.445 1313.738 C 1285.391 1321.614 1273.667 1323.686 1265.28 1318.361 L 1265.28 1318.361 L 1265.28 1318.361 L 1169.614 1257.624 C 1171.19 1256.415 1172.931 1255.255 1174.837 1254.154 L 1247.826 1212.014 Z  M 1363.022 1145.505 L 1390.398 1232.805 C 1393.371 1242.285 1388.106 1252.125 1378.648 1254.766 C 1378.648 1254.766 1362.352 1261.576 1362.352 1261.576 C 1353.974 1266.3 1342.828 1263.34 1337.477 1254.97 L 1337.477 1254.97 L 1293.252 1185.787 L 1363.022 1145.505 Z  M 1497.857 1117.145 L 1483.408 1225.591 C 1482.096 1235.438 1473.906 1242.329 1465.13 1240.97 C 1465.13 1240.97 1447.505 1240.782 1446.787 1240.885 C 1436.953 1242.291 1427.904 1235.438 1426.591 1225.591 L 1412.143 1117.145 L 1415.163 1115.402 C 1437.15 1102.708 1472.85 1102.708 1494.837 1115.402 L 1497.857 1117.145 Z " fill-rule="evenodd" fill="rgb(188,8,43)"/></g><defs><filter id="Cb33UU1Y2LbdzfEnM0esv7iJmFHwFk4y" x="-200%" y="-200%" width="400%" height="400%" filterUnits="objectBoundingBox" color-interpolation-filters="sRGB"><feGaussianBlur xmlns="http://www.w3.org/2000/svg" in="SourceGraphic" stdDeviation="17.174436251356113"/><feOffset xmlns="http://www.w3.org/2000/svg" dx="0" dy="10" result="pf_100_offsetBlur"/><feFlood xmlns="http://www.w3.org/2000/svg" flood-color="#000000" flood-opacity="0.5"/><feComposite xmlns="http://www.w3.org/2000/svg" in2="pf_100_offsetBlur" operator="in" result="pf_100_dropShadow"/><feBlend xmlns="http://www.w3.org/2000/svg" in="SourceGraphic" in2="pf_100_dropShadow" mode="normal"/></filter></defs></g></svg>