<?xml version="1.0" encoding="UTF-8" standalone="no"?>
<!-- Generator: Gravit.io -->
<svg xmlns="http://www.w3.org/2000/svg" xmlns:xlink="http://www.w3.org/1999/xlink" style="isolation:isolate" viewBox="970 1080 970 970" width="970pt" height="970pt"><defs><clipPath id="_clipPath_wO8cOVTUEaTgexstbRWkEneCiLQ7B2TA"><rect width="760" height="900"/></clipPath></defs><g clip-path="url(#_clipPath_wO8cOVTUEaTgexstbRWkEneCiLQ7B2TA)"><rect width="760" height="900" style="fill:rgb(209,209,209)"/><g style="isolation:isolate"><rect x="970" y="0" width="970" height="970" transform="matrix(1,0,0,1,0,0)" fill="none"/><g><path d=" M 1775.244 738.893 L 1514.756 889.286 C 1481.776 908.327 1428.224 908.327 1395.244 889.286 L 1134.756 738.893 C 1101.776 719.852 1075 673.475 1075 635.393 L 1075 334.607 C 1075 296.525 1101.776 250.148 1134.756 231.107 L 1395.244 80.714 C 1428.224 61.673 1481.776 61.673 1514.756 80.714 L 1775.244 231.107 C 1808.224 250.148 1835 296.525 1835 334.607 L 1835 635.393 C 1835 673.475 1808.224 719.852 1775.244 738.893 Z " fill="rgb(0,0,0)"/><path d=" M 1154.837 334.795 L 1395.163 473.547 C 1417.15 486.241 1435 517.159 1435 542.547 L 1435 820.051 C 1435 845.439 1417.15 855.745 1395.163 843.051 L 1370.588 828.863 C 1361.985 823.896 1355 811.798 1355 801.863 L 1355 560.735 C 1355 550.801 1348.015 538.702 1339.412 533.735 L 1330.588 528.641 C 1321.985 523.674 1315 527.707 1315 537.641 L 1315 778.769 C 1315 788.704 1308.015 792.736 1299.412 787.769 L 1250.588 759.581 C 1241.985 754.614 1235 742.516 1235 732.581 L 1235 491.453 C 1235 481.519 1228.015 469.42 1219.412 464.453 L 1210.588 459.359 C 1201.985 454.392 1195 458.425 1195 468.359 L 1195 709.487 C 1195 719.422 1188.015 723.454 1179.412 718.487 L 1154.837 704.299 C 1132.85 691.605 1115 660.687 1115 635.299 L 1115 357.795 C 1115 332.407 1132.85 322.101 1154.837 334.795 Z " fill="rgb(255,255,255)"/><path d=" M 1514.837 473.547 L 1755.163 334.795 C 1777.15 322.101 1795 332.407 1795 357.795 L 1795 635.299 C 1795 660.687 1777.15 691.605 1755.163 704.299 L 1514.837 843.051 C 1492.85 855.745 1475 845.439 1475 820.051 L 1475 542.547 C 1475 517.159 1492.85 486.241 1514.837 473.547 Z " fill="rgb(255,255,255)"/><path d=" M 1555 709.487 L 1555 699.299 C 1555 689.365 1561.985 677.266 1570.588 672.299 L 1699.412 597.923 C 1708.015 592.956 1715 596.989 1715 606.923 L 1715 617.111 C 1715 627.046 1708.015 639.144 1699.412 644.111 L 1570.588 718.487 C 1561.985 723.454 1555 719.422 1555 709.487 Z " fill="rgb(0,0,0)"/><path d=" M 1555 570.923 L 1555 560.735 C 1555 550.801 1561.985 538.702 1570.588 533.735 L 1699.412 459.359 C 1708.015 454.392 1715 458.425 1715 468.359 L 1715 478.547 C 1715 488.481 1708.015 500.58 1699.412 505.547 L 1570.588 579.923 C 1561.985 584.89 1555 580.858 1555 570.923 Z " fill="rgb(0,0,0)"/><path d=" M 1174.837 300.154 L 1415.163 438.906 C 1437.15 451.6 1472.85 451.6 1494.837 438.906 L 1735.163 300.154 C 1757.15 287.46 1757.15 266.848 1735.163 254.154 L 1494.837 115.402 C 1472.85 102.708 1437.15 102.708 1415.163 115.402 L 1174.837 254.154 C 1152.85 266.848 1152.85 287.46 1174.837 300.154 Z " fill="rgb(255,255,255)"/><path d=" M 1294.998 369.529 C 1326.962 314.324 1386.674 277.154 1455 277.154 C 1523.326 277.154 1583.038 314.324 1615.002 369.529 L 1494.837 438.906 C 1472.85 451.6 1437.15 451.6 1415.163 438.906 L 1294.998 369.529 Z  M 1662.174 212.014 L 1603.623 276.111 C 1596.923 283.446 1597.805 294.41 1605.59 300.581 C 1605.689 300.659 1618.474 313.633 1618.555 313.738 C 1624.609 321.614 1636.333 323.686 1644.72 318.361 L 1644.72 318.361 L 1644.72 318.361 L 1644.72 318.361 L 1644.72 318.361 L 1740.386 257.624 C 1738.81 256.415 1737.069 255.255 1735.163 254.154 L 1662.174 212.014 Z  M 1546.978 145.505 L 1519.602 232.805 C 1516.629 242.285 1521.894 252.125 1531.352 254.766 C 1531.352 254.766 1547.648 261.576 1547.648 261.576 C 1556.026 266.3 1567.172 263.34 1572.523 254.97 L 1572.523 254.97 L 1572.523 254.97 L 1572.523 254.97 L 1616.748 185.787 L 1546.978 145.505 Z  M 1247.826 212.014 L 1306.377 276.111 C 1313.077 283.446 1312.195 294.41 1304.41 300.581 C 1304.311 300.659 1291.526 313.633 1291.445 313.738 C 1285.391 321.614 1273.667 323.686 1265.28 318.361 L 1265.28 318.361 L 1265.28 318.361 L 1169.614 257.624 C 1171.19 256.415 1172.931 255.255 1174.837 254.154 L 1247.826 212.014 Z  M 1363.022 145.505 L 1390.398 232.805 C 1393.371 242.285 1388.106 252.125 1378.648 254.766 C 1378.648 254.766 1362.352 261.576 1362.352 261.576 C 1353.974 266.3 1342.828 263.34 1337.477 254.97 L 1337.477 254.97 L 1293.252 185.787 L 1363.022 145.505 Z  M 1497.857 117.145 L 1483.408 225.591 C 1482.096 235.438 1473.906 242.329 1465.13 240.97 C 1465.13 240.97 1447.505 240.782 1446.787 240.885 C 1436.953 242.291 1427.904 235.438 1426.591 225.591 L 1412.143 117.145 L 1415.163 115.402 C 1437.15 102.708 1472.85 102.708 1494.837 115.402 L 1497.857 117.145 Z " fill-rule="evenodd" fill="rgb(188,8,43)"/></g></g><g style="isolation:isolate"><linearGradient id="_lgradient_1" x1="0.5000000000000018" y1="4.440892098500626e-16" x2="0.5000000000000019" y2="1.0000000000000004" gradientTransform="matrix(970,0,0,970,970,1080)" gradientUnits="userSpaceOnUse"><stop offset="0%" stop-opacity="1" style="stop-color:rgb(188,8,43)"/><stop offset="100%" stop-opacity="1" style="stop-color:rgb(138,5,5)"/></linearGradient><rect x="970" y="1080" width="970" height="970" transform="matrix(1,0,0,1,0,0)" fill="url(#_lgradient_1)"/><g filter="url(#9OHSdAgx8XgCqlePLjzIRU3oNb37SVh6)"><path d=" M 1775.244 1818.893 L 1514.756 1969.286 C 1481.776 1988.327 1428.224 1988.327 1395.244 1969.286 L 1134.756 1818.893 C 1101.776 1799.852 1075 1753.475 1075 1715.393 L 1075 1414.607 C 1075 1376.525 1101.776 1330.148 1134.756 1311.107 L 1395.244 1160.714 C 1428.224 1141.673 1481.776 1141.673 1514.756 1160.714 L 1775.244 1311.107 C 1808.224 1330.148 1835 1376.525 1835 1414.607 L 1835 1715.393 C 1835 1753.475 1808.224 1799.852 1775.244 1818.893 Z " fill="rgb(0,0,0)"/><path d=" M 1154.837 1414.795 L 1395.163 1553.547 C 1417.15 1566.241 1435 1597.159 1435 1622.547 L 1435 1900.051 C 1435 1925.439 1417.15 1935.745 1395.163 1923.051 L 1370.588 1908.863 C 1361.985 1903.896 1355 1891.798 1355 1881.863 L 1355 1640.735 C 1355 1630.801 1348.015 1618.702 1339.412 1613.735 L 1330.588 1608.641 C 1321.985 1603.674 1315 1607.707 1315 1617.641 L 1315 1858.769 C 1315 1868.704 1308.015 1872.736 1299.412 1867.769 L 1250.588 1839.581 C 1241.985 1834.614 1235 1822.516 1235 1812.581 L 1235 1571.453 C 1235 1561.519 1228.015 1549.42 1219.412 1544.453 L 1210.588 1539.359 C 1201.985 1534.392 1195 1538.425 1195 1548.359 L 1195 1789.487 C 1195 1799.422 1188.015 1803.454 1179.412 1798.487 L 1154.837 1784.299 C 1132.85 1771.605 1115 1740.687 1115 1715.299 L 1115 1437.795 C 1115 1412.407 1132.85 1402.101 1154.837 1414.795 Z " fill="rgb(255,255,255)"/><path d=" M 1514.837 1553.547 L 1755.163 1414.795 C 1777.15 1402.101 1795 1412.407 1795 1437.795 L 1795 1715.299 C 1795 1740.687 1777.15 1771.605 1755.163 1784.299 L 1514.837 1923.051 C 1492.85 1935.745 1475 1925.439 1475 1900.051 L 1475 1622.547 C 1475 1597.159 1492.85 1566.241 1514.837 1553.547 Z " fill="rgb(255,255,255)"/><path d=" M 1555 1789.487 L 1555 1779.299 C 1555 1769.365 1561.985 1757.266 1570.588 1752.299 L 1699.412 1677.923 C 1708.015 1672.956 1715 1676.989 1715 1686.923 L 1715 1697.111 C 1715 1707.046 1708.015 1719.144 1699.412 1724.111 L 1570.588 1798.487 C 1561.985 1803.454 1555 1799.422 1555 1789.487 Z " fill="rgb(0,0,0)"/><path d=" M 1555 1650.923 L 1555 1640.735 C 1555 1630.801 1561.985 1618.702 1570.588 1613.735 L 1699.412 1539.359 C 1708.015 1534.392 1715 1538.425 1715 1548.359 L 1715 1558.547 C 1715 1568.481 1708.015 1580.58 1699.412 1585.547 L 1570.588 1659.923 C 1561.985 1664.89 1555 1660.858 1555 1650.923 Z " fill="rgb(0,0,0)"/><path d=" M 1174.837 1380.154 L 1415.163 1518.906 C 1437.15 1531.6 1472.85 1531.6 1494.837 1518.906 L 1735.163 1380.154 C 1757.15 1367.46 1757.15 1346.848 1735.163 1334.154 L 1494.837 1195.402 C 1472.85 1182.708 1437.15 1182.708 1415.163 1195.402 L 1174.837 1334.154 C 1152.85 1346.848 1152.85 1367.46 1174.837 1380.154 Z " fill="rgb(255,255,255)"/><path d=" M 1294.998 1449.529 C 1326.962 1394.324 1386.674 1357.154 1455 1357.154 C 1523.326 1357.154 1583.038 1394.324 1615.002 1449.529 L 1494.837 1518.906 C 1472.85 1531.6 1437.15 1531.6 1415.163 1518.906 L 1294.998 1449.529 Z  M 1662.174 1292.014 L 1603.623 1356.111 C 1596.923 1363.446 1597.805 1374.41 1605.59 1380.581 C 1605.689 1380.659 1618.474 1393.633 1618.555 1393.738 C 1624.609 1401.614 1636.333 1403.686 1644.72 1398.361 L 1644.72 1398.361 L 1644.72 1398.361 L 1644.72 1398.361 L 1644.72 1398.361 L 1740.386 1337.624 C 1738.81 1336.415 1737.069 1335.255 1735.163 1334.154 L 1662.174 1292.014 Z  M 1546.978 1225.505 L 1519.602 1312.805 C 1516.629 1322.285 1521.894 1332.125 1531.352 1334.766 C 1531.352 1334.766 1547.648 1341.576 1547.648 1341.576 C 1556.026 1346.3 1567.172 1343.34 1572.523 1334.97 L 1572.523 1334.97 L 1572.523 1334.97 L 1572.523 1334.97 L 1616.748 1265.787 L 1546.978 1225.505 Z  M 1247.826 1292.014 L 1306.377 1356.111 C 1313.077 1363.446 1312.195 1374.41 1304.41 1380.581 C 1304.311 1380.659 1291.526 1393.633 1291.445 1393.738 C 1285.391 1401.614 1273.667 1403.686 1265.28 1398.361 L 1265.28 1398.361 L 1265.28 1398.361 L 1169.614 1337.624 C 1171.19 1336.415 1172.931 1335.255 1174.837 1334.154 L 1247.826 1292.014 Z  M 1363.022 1225.505 L 1390.398 1312.805 C 1393.371 1322.285 1388.106 1332.125 1378.648 1334.766 C 1378.648 1334.766 1362.352 1341.576 1362.352 1341.576 C 1353.974 1346.3 1342.828 1343.34 1337.477 1334.97 L 1337.477 1334.97 L 1293.252 1265.787 L 1363.022 1225.505 Z  M 1497.857 1197.145 L 1483.408 1305.591 C 1482.096 1315.438 1473.906 1322.329 1465.13 1320.97 C 1465.13 1320.97 1447.505 1320.782 1446.787 1320.885 C 1436.953 1322.291 1427.904 1315.438 1426.591 1305.591 L 1412.143 1197.145 L 1415.163 1195.402 C 1437.15 1182.708 1472.85 1182.708 1494.837 1195.402 L 1497.857 1197.145 Z " fill-rule="evenodd" fill="rgb(188,8,43)"/></g><defs><filter id="9OHSdAgx8XgCqlePLjzIRU3oNb37SVh6" x="-200%" y="-200%" width="400%" height="400%" filterUnits="objectBoundingBox" color-interpolation-filters="sRGB"><feGaussianBlur xmlns="http://www.w3.org/2000/svg" in="SourceGraphic" stdDeviation="17.174436251356113"/><feOffset xmlns="http://www.w3.org/2000/svg" dx="0" dy="10" result="pf_100_offsetBlur"/><feFlood xmlns="http://www.w3.org/2000/svg" flood-color="#000000" flood-opacity="0.5"/><feComposite xmlns="http://www.w3.org/2000/svg" in2="pf_100_offsetBlur" operator="in" result="pf_100_dropShadow"/><feBlend xmlns="http://www.w3.org/2000/svg" in="SourceGraphic" in2="pf_100_dropShadow" mode="normal"/></filter></defs></g><g style="isolation:isolate"><rect x="2500" y="0" width="5456.25" height="970" transform="matrix(1,0,0,1,0,0)" fill="none"/><path d=" M 3617.925 194 L 7680.709 194 C 7719.934 194 7757.582 209.581 7785.287 237.347 C 7812.993 265.053 7828.634 302.701 7828.634 341.925 L 7828.634 652.325 C 7828.634 691.549 7812.993 729.197 7785.287 756.903 C 7757.582 784.669 7719.934 800.25 7680.709 800.25 L 3617.925 800.25 C 3578.701 800.25 3541.053 784.669 3513.347 756.903 C 3485.581 729.197 3470 691.549 3470 652.325 L 3470 341.925 C 3470 302.701 3485.581 265.053 3513.347 237.347 C 3541.053 209.581 3578.701 194 3617.925 194 Z " fill="rgb(255,255,255)"/><g><rect x="2500" y="0" width="970" height="970" transform="matrix(1,0,0,1,0,0)" fill="none"/><g><path d=" M 3305.244 738.86 L 3044.756 889.253 C 3011.776 908.294 2958.224 908.294 2925.244 889.253 L 2664.756 738.86 C 2631.776 719.819 2605 673.442 2605 635.36 L 2605 334.574 C 2605 296.492 2631.776 250.115 2664.756 231.074 L 2925.244 80.681 C 2958.224 61.64 3011.776 61.64 3044.756 80.681 L 3305.244 231.074 C 3338.224 250.115 3365 296.492 3365 334.574 L 3365 635.36 C 3365 673.442 3338.224 719.819 3305.244 738.86 Z " fill="rgb(0,0,0)"/><path d=" M 2684.837 334.762 L 2925.163 473.514 C 2947.15 486.208 2965 517.126 2965 542.514 L 2965 820.018 C 2965 845.406 2947.15 855.712 2925.163 843.018 L 2900.588 828.83 C 2891.985 823.863 2885 811.765 2885 801.83 L 2885 560.702 C 2885 550.768 2878.015 538.669 2869.412 533.702 L 2860.588 528.608 C 2851.985 523.641 2845 527.674 2845 537.608 L 2845 778.736 C 2845 788.671 2838.015 792.703 2829.412 787.736 L 2780.588 759.548 C 2771.985 754.581 2765 742.483 2765 732.548 L 2765 491.42 C 2765 481.486 2758.015 469.387 2749.412 464.42 L 2740.588 459.326 C 2731.985 454.359 2725 458.392 2725 468.326 L 2725 709.454 C 2725 719.389 2718.015 723.421 2709.412 718.454 L 2684.837 704.266 C 2662.85 691.572 2645 660.654 2645 635.266 L 2645 357.762 C 2645 332.374 2662.85 322.068 2684.837 334.762 Z " fill="rgb(255,255,255)"/><path d=" M 3044.837 473.514 L 3285.163 334.762 C 3307.15 322.068 3325 332.374 3325 357.762 L 3325 635.266 C 3325 660.654 3307.15 691.572 3285.163 704.266 L 3044.837 843.018 C 3022.85 855.712 3005 845.406 3005 820.018 L 3005 542.514 C 3005 517.126 3022.85 486.208 3044.837 473.514 Z " fill="rgb(255,255,255)"/><path d=" M 3085 709.454 L 3085 699.266 C 3085 689.332 3091.985 677.233 3100.588 672.266 L 3229.412 597.89 C 3238.015 592.923 3245 596.956 3245 606.89 L 3245 617.078 C 3245 627.013 3238.015 639.111 3229.412 644.078 L 3100.588 718.454 C 3091.985 723.421 3085 719.389 3085 709.454 Z " fill="rgb(0,0,0)"/><path d=" M 3085 570.89 L 3085 560.702 C 3085 550.768 3091.985 538.669 3100.588 533.702 L 3229.412 459.326 C 3238.015 454.359 3245 458.392 3245 468.326 L 3245 478.514 C 3245 488.448 3238.015 500.547 3229.412 505.514 L 3100.588 579.89 C 3091.985 584.857 3085 580.825 3085 570.89 Z " fill="rgb(0,0,0)"/><path d=" M 2704.837 300.121 L 2945.163 438.873 C 2967.15 451.567 3002.85 451.567 3024.837 438.873 L 3265.163 300.121 C 3287.15 287.427 3287.15 266.815 3265.163 254.121 L 3024.837 115.369 C 3002.85 102.675 2967.15 102.675 2945.163 115.369 L 2704.837 254.121 C 2682.85 266.815 2682.85 287.427 2704.837 300.121 Z " fill="rgb(255,255,255)"/><path d=" M 2824.998 369.496 C 2856.962 314.291 2916.674 277.121 2985 277.121 C 3053.325 277.121 3113.038 314.291 3145.002 369.496 L 3024.837 438.873 C 3002.85 451.567 2967.15 451.567 2945.163 438.873 L 2824.998 369.496 Z  M 3192.174 211.981 L 3133.623 276.078 C 3126.923 283.413 3127.805 294.377 3135.59 300.548 C 3135.689 300.626 3148.474 313.6 3148.555 313.705 C 3154.609 321.581 3166.333 323.653 3174.72 318.328 L 3174.72 318.328 L 3174.72 318.328 L 3174.72 318.328 L 3174.72 318.328 L 3270.386 257.591 C 3268.81 256.382 3267.069 255.222 3265.163 254.121 L 3192.174 211.981 Z  M 3076.978 145.472 L 3049.602 232.772 C 3046.629 242.252 3051.894 252.092 3061.352 254.733 C 3061.352 254.733 3077.648 261.543 3077.648 261.543 C 3086.026 266.267 3097.172 263.307 3102.523 254.937 L 3102.523 254.937 L 3102.523 254.937 L 3102.523 254.937 L 3146.748 185.754 L 3076.978 145.472 Z  M 2777.826 211.981 L 2836.377 276.078 C 2843.077 283.413 2842.195 294.377 2834.41 300.548 C 2834.311 300.626 2821.526 313.6 2821.445 313.705 C 2815.391 321.581 2803.667 323.653 2795.28 318.328 L 2795.28 318.328 L 2795.28 318.328 L 2699.614 257.591 C 2701.19 256.382 2702.931 255.222 2704.837 254.121 L 2777.826 211.981 Z  M 2893.022 145.472 L 2920.398 232.772 C 2923.371 242.252 2918.106 252.092 2908.648 254.733 C 2908.648 254.733 2892.352 261.543 2892.352 261.543 C 2883.974 266.267 2872.828 263.307 2867.477 254.937 L 2867.477 254.937 L 2823.252 185.754 L 2893.022 145.472 Z  M 3027.857 117.112 L 3013.408 225.558 C 3012.096 235.405 3003.906 242.296 2995.13 240.937 C 2995.13 240.937 2977.505 240.749 2976.787 240.852 C 2966.953 242.258 2957.904 235.405 2956.591 225.558 L 2942.143 117.112 L 2945.163 115.369 C 2967.15 102.675 3002.85 102.675 3024.837 115.369 L 3027.857 117.112 Z " fill-rule="evenodd" fill="rgb(188,8,43)"/></g></g><path d=" M 4960.099 675.809 L 4960.099 395.02 C 4960.099 387.976 4954.38 382.257 4947.336 382.257 L 4743.125 382.257 C 4736.081 382.257 4730.362 387.976 4730.362 395.02 L 4730.362 675.809 C 4730.362 711.03 4701.767 739.625 4666.546 739.625 L 4666.546 739.625 C 4631.325 739.625 4602.73 711.03 4602.73 675.809 L 4602.73 343.967 C 4602.73 294.658 4642.763 254.625 4692.072 254.625 L 4998.388 254.625 C 5047.697 254.625 5087.73 294.658 5087.73 343.967 L 5087.73 675.809 C 5087.73 711.03 5059.135 739.625 5023.914 739.625 L 5023.914 739.625 C 4988.694 739.625 4960.099 711.03 4960.099 675.809 L 4960.099 675.809 L 4960.099 675.809 L 4960.099 675.809 L 4960.099 675.809 L 4960.099 675.809 L 4960.099 675.809 Z  M 6874.572 599.23 L 6874.572 395.02 C 6874.572 387.976 6880.291 382.257 6887.336 382.257 L 7091.546 382.257 C 7098.59 382.257 7104.309 387.976 7104.309 395.02 L 7104.309 599.23 C 7104.309 606.274 7098.59 611.993 7091.546 611.993 L 6887.336 611.993 C 6880.291 611.993 6874.572 606.274 6874.572 599.23 L 6874.572 599.23 L 6874.572 599.23 L 6874.572 599.23 L 6874.572 599.23 L 6874.572 599.23 L 6874.572 599.23 L 6874.572 599.23 Z  M 5317.467 497.125 L 5317.467 497.125 C 5317.467 461.904 5346.062 433.309 5381.283 433.309 L 5559.967 433.309 C 5595.188 433.309 5623.783 461.904 5623.783 497.125 L 5623.783 650.283 C 5623.783 699.592 5583.75 739.625 5534.441 739.625 L 5228.125 739.625 C 5178.816 739.625 5138.783 699.592 5138.783 650.283 L 5138.783 343.967 C 5138.783 294.658 5178.816 254.625 5228.125 254.625 L 5559.967 254.625 C 5595.188 254.625 5623.783 283.22 5623.783 318.441 L 5623.783 318.441 C 5623.783 353.662 5595.188 382.257 5559.967 382.257 L 5279.178 382.257 C 5272.133 382.257 5266.414 387.976 5266.414 395.02 L 5266.414 599.23 C 5266.414 606.274 5272.133 611.993 5279.178 611.993 L 5483.388 611.993 C 5490.432 611.993 5496.151 606.274 5496.151 599.23 L 5496.151 573.704 C 5496.151 566.66 5490.432 560.941 5483.388 560.941 L 5381.283 560.941 C 5346.062 560.941 5317.467 532.346 5317.467 497.125 L 5317.467 497.125 L 5317.467 497.125 L 5317.467 497.125 L 5317.467 497.125 L 5317.467 497.125 Z  M 4424.046 420.546 L 4424.046 395.02 C 4424.046 387.976 4418.327 382.257 4411.283 382.257 L 4207.072 382.257 C 4200.028 382.257 4194.309 387.976 4194.309 395.02 L 4194.309 420.546 C 4194.309 427.59 4200.028 433.309 4207.072 433.309 L 4411.283 433.309 C 4418.327 433.309 4424.046 427.59 4424.046 420.546 L 4424.046 420.546 L 4424.046 420.546 L 4424.046 420.546 L 4424.046 420.546 L 4424.046 420.546 Z  M 6032.204 420.546 L 6032.204 395.02 C 6032.204 387.976 6026.485 382.257 6019.441 382.257 L 5815.23 382.257 C 5808.186 382.257 5802.467 387.976 5802.467 395.02 L 5802.467 420.546 C 5802.467 427.59 5808.186 433.309 5815.23 433.309 L 6019.441 433.309 C 6026.485 433.309 6032.204 427.59 6032.204 420.546 L 6032.204 420.546 L 6032.204 420.546 L 6032.204 420.546 L 6032.204 420.546 Z  M 6338.52 573.704 L 6338.52 599.23 L 6338.52 611.993 L 6338.52 611.993 L 6351.283 611.993 L 6555.493 611.993 C 6562.538 611.993 6568.257 606.274 6568.257 599.23 L 6568.257 573.704 C 6568.257 566.66 6562.538 560.941 6555.493 560.941 L 6351.283 560.941 C 6344.239 560.941 6338.52 566.66 6338.52 573.704 L 6338.52 573.704 L 6338.52 573.704 L 6338.52 573.704 Z  M 6338.52 420.546 L 6338.52 395.02 C 6338.52 387.976 6344.239 382.257 6351.283 382.257 L 6555.493 382.257 C 6562.538 382.257 6568.257 387.976 6568.257 395.02 L 6568.257 420.546 C 6568.257 427.59 6562.538 433.309 6555.493 433.309 L 6351.283 433.309 C 6344.239 433.309 6338.52 427.59 6338.52 420.546 L 6338.52 420.546 L 6338.52 420.546 L 6338.52 420.546 Z  M 3849.704 382.257 L 3875.23 382.257 C 3882.274 382.257 3887.993 387.976 3887.993 395.02 L 3887.993 675.809 C 3887.993 711.03 3916.588 739.625 3951.809 739.625 L 3951.809 739.625 C 3987.03 739.625 4015.625 711.03 4015.625 675.809 L 4015.625 343.967 C 4015.625 294.658 3975.592 254.625 3926.283 254.625 L 3619.967 254.625 C 3570.658 254.625 3530.625 294.658 3530.625 343.967 L 3530.625 675.809 C 3530.625 711.03 3559.22 739.625 3594.441 739.625 L 3594.441 739.625 C 3629.662 739.625 3658.257 711.03 3658.257 675.809 L 3658.257 395.02 C 3658.257 387.976 3663.976 382.257 3671.02 382.257 L 3696.546 382.257 C 3703.59 382.257 3709.309 387.976 3709.309 395.02 L 3709.309 675.809 C 3709.309 711.03 3737.904 739.625 3773.125 739.625 L 3773.125 739.625 C 3808.346 739.625 3836.941 711.03 3836.941 675.809 L 3836.941 395.02 C 3836.941 387.976 3842.66 382.257 3849.704 382.257 L 3849.704 382.257 Z  M 6746.941 650.283 L 6746.941 343.967 C 6746.941 294.658 6786.974 254.625 6836.283 254.625 L 7142.599 254.625 C 7191.908 254.625 7231.941 294.658 7231.941 343.967 L 7231.941 650.283 C 7231.941 699.592 7191.908 739.625 7142.599 739.625 L 6836.283 739.625 C 6786.974 739.625 6746.941 699.592 6746.941 650.283 L 6746.941 650.283 L 6746.941 650.283 L 6746.941 650.283 L 6746.941 650.283 L 6746.941 650.283 L 6746.941 650.283 L 6746.941 650.283 Z  M 4424.046 573.704 L 4424.046 675.809 C 4424.046 711.03 4452.641 739.625 4487.862 739.625 L 4487.862 739.625 C 4523.083 739.625 4551.678 711.03 4551.678 675.809 L 4551.678 343.967 C 4551.678 294.658 4511.645 254.625 4462.336 254.625 L 4156.02 254.625 C 4106.71 254.625 4066.678 294.658 4066.678 343.967 L 4066.678 675.809 C 4066.678 711.03 4095.273 739.625 4130.493 739.625 L 4130.493 739.625 C 4165.714 739.625 4194.309 711.03 4194.309 675.809 L 4194.309 573.704 C 4194.309 566.66 4200.028 560.941 4207.072 560.941 L 4411.283 560.941 C 4418.327 560.941 4424.046 566.66 4424.046 573.704 L 4424.046 573.704 L 4424.046 573.704 L 4424.046 573.704 L 4424.046 573.704 L 4424.046 573.704 Z  M 6032.204 573.704 L 6032.204 675.809 C 6032.204 711.03 6060.799 739.625 6096.02 739.625 L 6096.02 739.625 C 6131.241 739.625 6159.836 711.03 6159.836 675.809 L 6159.836 343.967 C 6159.836 294.658 6119.803 254.625 6070.493 254.625 L 5764.178 254.625 C 5714.868 254.625 5674.836 294.658 5674.836 343.967 L 5674.836 675.809 C 5674.836 711.03 5703.43 739.625 5738.651 739.625 L 5738.651 739.625 C 5773.872 739.625 5802.467 711.03 5802.467 675.809 L 5802.467 573.704 C 5802.467 566.66 5808.186 560.941 5815.23 560.941 L 6019.441 560.941 C 6026.485 560.941 6032.204 566.66 6032.204 573.704 L 6032.204 573.704 L 6032.204 573.704 L 6032.204 573.704 L 6032.204 573.704 Z  M 6300.23 254.625 L 6606.546 254.625 C 6655.855 254.625 6695.888 294.658 6695.888 343.967 L 6695.888 650.283 C 6695.888 699.592 6655.855 739.625 6606.546 739.625 L 6300.23 739.625 C 6250.921 739.625 6210.888 699.592 6210.888 650.283 L 6210.888 343.967 C 6210.888 294.658 6250.921 254.625 6300.23 254.625 L 6300.23 254.625 L 6300.23 254.625 L 6300.23 254.625 Z  M 7534.518 596.411 L 7659.047 720.94 C 7671.019 732.886 7687.254 739.625 7704.178 739.625 C 7721.102 739.625 7737.336 732.886 7749.308 720.94 C 7761.254 708.968 7767.993 692.733 7767.993 675.809 C 7767.993 658.885 7761.254 642.651 7749.308 630.679 L 7624.779 506.15 C 7619.798 501.169 7619.798 493.081 7624.779 488.1 L 7749.308 363.571 C 7761.254 351.599 7767.993 335.365 7767.993 318.441 C 7767.993 301.517 7761.254 285.282 7749.308 273.31 C 7737.336 261.364 7721.102 254.625 7704.178 254.625 C 7687.254 254.625 7671.019 261.364 7659.047 273.31 L 7534.518 397.839 C 7529.537 402.82 7521.449 402.82 7516.469 397.839 L 7391.94 273.31 C 7379.968 261.364 7363.733 254.625 7346.809 254.625 C 7329.885 254.625 7313.651 261.364 7301.679 273.31 C 7289.732 285.282 7282.993 301.517 7282.993 318.441 C 7282.993 335.365 7289.732 351.599 7301.679 363.571 L 7426.207 488.1 C 7431.188 493.081 7431.188 501.169 7426.207 506.15 L 7301.679 630.679 C 7289.732 642.651 7282.993 658.885 7282.993 675.809 C 7282.993 692.733 7289.732 708.968 7301.679 720.94 C 7313.651 732.886 7329.885 739.625 7346.809 739.625 C 7363.733 739.625 7379.968 732.886 7391.94 720.94 L 7516.469 596.411 C 7521.449 591.43 7529.537 591.43 7534.518 596.411 Z " fill-rule="evenodd" fill="rgb(0,0,0)"/></g></g></svg>