<?xml version="1.0" encoding="UTF-8" standalone="no"?>
<!-- Generator: Gravit.io -->
<svg xmlns="http://www.w3.org/2000/svg" xmlns:xlink="http://www.w3.org/1999/xlink" style="isolation:isolate" viewBox="3600 1200 1660 190" width="1660pt" height="190pt"><g style="isolation:isolate"><g><path d=" M 4160 1365 L 4160 1255 C 4160 1252.24 4157.76 1250 4155 1250 L 4075 1250 C 4072.24 1250 4070 1252.24 4070 1255 L 4070 1365 C 4070 1378.798 4058.798 1390 4045 1390 L 4045 1390 C 4031.202 1390 4020 1378.798 4020 1365 L 4020 1235 C 4020 1215.683 4035.683 1200 4055 1200 L 4175 1200 C 4194.317 1200 4210 1215.683 4210 1235 L 4210 1365 C 4210 1378.798 4198.798 1390 4185 1390 L 4185 1390 C 4171.202 1390 4160 1378.798 4160 1365 L 4160 1365 L 4160 1365 L 4160 1365 L 4160 1365 L 4160 1365 L 4160 1365 Z  M 4910 1335 L 4910 1255 C 4910 1252.24 4912.24 1250 4915 1250 L 4995 1250 C 4997.76 1250 5000 1252.24 5000 1255 L 5000 1335 C 5000 1337.76 4997.76 1340 4995 1340 L 4915 1340 C 4912.24 1340 4910 1337.76 4910 1335 L 4910 1335 L 4910 1335 L 4910 1335 L 4910 1335 L 4910 1335 L 4910 1335 L 4910 1335 Z  M 4300 1295 L 4300 1295 C 4300 1281.202 4311.202 1270 4325 1270 L 4395 1270 C 4408.798 1270 4420 1281.202 4420 1295 L 4420 1355 C 4420 1374.317 4404.317 1390 4385 1390 L 4265 1390 C 4245.683 1390 4230 1374.317 4230 1355 L 4230 1235 C 4230 1215.683 4245.683 1200 4265 1200 L 4395 1200 C 4408.798 1200 4420 1211.202 4420 1225 L 4420 1225 C 4420 1238.798 4408.798 1250 4395 1250 L 4285 1250 C 4282.24 1250 4280 1252.24 4280 1255 L 4280 1335 C 4280 1337.76 4282.24 1340 4285 1340 L 4365 1340 C 4367.76 1340 4370 1337.76 4370 1335 L 4370 1325 C 4370 1322.24 4367.76 1320 4365 1320 L 4325 1320 C 4311.202 1320 4300 1308.798 4300 1295 L 4300 1295 L 4300 1295 L 4300 1295 L 4300 1295 L 4300 1295 Z  M 3950 1265 L 3950 1255 C 3950 1252.24 3947.76 1250 3945 1250 L 3865 1250 C 3862.24 1250 3860 1252.24 3860 1255 L 3860 1265 C 3860 1267.76 3862.24 1270 3865 1270 L 3945 1270 C 3947.76 1270 3950 1267.76 3950 1265 L 3950 1265 L 3950 1265 L 3950 1265 L 3950 1265 L 3950 1265 Z  M 4580 1265 L 4580 1255 C 4580 1252.24 4577.76 1250 4575 1250 L 4495 1250 C 4492.24 1250 4490 1252.24 4490 1255 L 4490 1265 C 4490 1267.76 4492.24 1270 4495 1270 L 4575 1270 C 4577.76 1270 4580 1267.76 4580 1265 L 4580 1265 L 4580 1265 L 4580 1265 L 4580 1265 Z  M 4700 1325 L 4700 1335 C 4700 1337.76 4702.24 1340 4705 1340 L 4785 1340 C 4787.76 1340 4790 1337.76 4790 1335 L 4790 1325 C 4790 1322.24 4787.76 1320 4785 1320 L 4705 1320 C 4702.24 1320 4700 1322.24 4700 1325 L 4700 1325 L 4700 1325 L 4700 1325 Z  M 4700 1265 L 4700 1255 C 4700 1252.24 4702.24 1250 4705 1250 L 4785 1250 C 4787.76 1250 4790 1252.24 4790 1255 L 4790 1265 C 4790 1267.76 4787.76 1270 4785 1270 L 4705 1270 C 4702.24 1270 4700 1267.76 4700 1265 L 4700 1265 L 4700 1265 L 4700 1265 Z  M 3725 1250 L 3735 1250 C 3737.76 1250 3740 1252.24 3740 1255 L 3740 1365 C 3740 1378.798 3751.202 1390 3765 1390 L 3765 1390 C 3778.798 1390 3790 1378.798 3790 1365 L 3790 1235 C 3790 1215.683 3774.317 1200 3755 1200 L 3635 1200 C 3615.683 1200 3600 1215.683 3600 1235 L 3600 1365 C 3600 1378.798 3611.202 1390 3625 1390 L 3625 1390 C 3638.798 1390 3650 1378.798 3650 1365 L 3650 1255 C 3650 1252.24 3652.24 1250 3655 1250 L 3665 1250 C 3667.76 1250 3670 1252.24 3670 1255 L 3670 1365 C 3670 1378.798 3681.202 1390 3695 1390 L 3695 1390 C 3708.798 1390 3720 1378.798 3720 1365 L 3720 1255 C 3720 1252.24 3722.24 1250 3725 1250 L 3725 1250 Z  M 4860 1355 L 4860 1235 C 4860 1215.683 4875.683 1200 4895 1200 L 5015 1200 C 5034.317 1200 5050 1215.683 5050 1235 L 5050 1355 C 5050 1374.317 5034.317 1390 5015 1390 L 4895 1390 C 4875.683 1390 4860 1374.317 4860 1355 L 4860 1355 L 4860 1355 L 4860 1355 L 4860 1355 L 4860 1355 L 4860 1355 L 4860 1355 Z  M 3950 1325 L 3950 1365 C 3950 1378.798 3961.202 1390 3975 1390 L 3975 1390 C 3988.798 1390 4000 1378.798 4000 1365 L 4000 1235 C 4000 1215.683 3984.317 1200 3965 1200 L 3845 1200 C 3825.683 1200 3810 1215.683 3810 1235 L 3810 1365 C 3810 1378.798 3821.202 1390 3835 1390 L 3835 1390 C 3848.798 1390 3860 1378.798 3860 1365 L 3860 1325 C 3860 1322.24 3862.24 1320 3865 1320 L 3945 1320 C 3947.76 1320 3950 1322.24 3950 1325 L 3950 1325 L 3950 1325 L 3950 1325 L 3950 1325 L 3950 1325 Z  M 4580 1325 L 4580 1365 C 4580 1378.798 4591.202 1390 4605 1390 L 4605 1390 C 4618.798 1390 4630 1378.798 4630 1365 L 4630 1235 C 4630 1215.683 4614.317 1200 4595 1200 L 4475 1200 C 4455.683 1200 4440 1215.683 4440 1235 L 4440 1365 C 4440 1378.798 4451.202 1390 4465 1390 L 4465 1390 C 4478.798 1390 4490 1378.798 4490 1365 L 4490 1325 C 4490 1322.24 4492.24 1320 4495 1320 L 4575 1320 C 4577.76 1320 4580 1322.24 4580 1325 L 4580 1325 L 4580 1325 L 4580 1325 L 4580 1325 Z  M 4685 1200 L 4805 1200 C 4824.317 1200 4840 1215.683 4840 1235 L 4840 1355 C 4840 1374.317 4824.317 1390 4805 1390 L 4685 1390 C 4665.683 1390 4650 1374.317 4650 1355 L 4650 1235 C 4650 1215.683 4665.683 1200 4685 1200 L 4685 1200 L 4685 1200 L 4685 1200 Z  M 5168.536 1333.896 L 5217.32 1382.68 C 5222.01 1387.36 5228.37 1390 5235 1390 C 5241.63 1390 5247.99 1387.36 5252.68 1382.68 C 5257.36 1377.99 5260 1371.63 5260 1365 C 5260 1358.37 5257.36 1352.01 5252.68 1347.32 L 5203.896 1298.536 C 5201.944 1296.584 5201.944 1293.416 5203.896 1291.464 L 5252.68 1242.68 C 5257.36 1237.99 5260 1231.63 5260 1225 C 5260 1218.37 5257.36 1212.01 5252.68 1207.32 C 5247.99 1202.64 5241.63 1200 5235 1200 C 5228.37 1200 5222.01 1202.64 5217.32 1207.32 L 5168.536 1256.104 C 5166.584 1258.056 5163.416 1258.056 5161.464 1256.104 L 5112.68 1207.32 C 5107.99 1202.64 5101.63 1200 5095 1200 C 5088.37 1200 5082.01 1202.64 5077.32 1207.32 C 5072.64 1212.01 5070 1218.37 5070 1225 C 5070 1231.63 5072.64 1237.99 5077.32 1242.68 L 5126.104 1291.464 C 5128.056 1293.416 5128.056 1296.584 5126.104 1298.536 L 5077.32 1347.32 C 5072.64 1352.01 5070 1358.37 5070 1365 C 5070 1371.63 5072.64 1377.99 5077.32 1382.68 C 5082.01 1387.36 5088.37 1390 5095 1390 C 5101.63 1390 5107.99 1387.36 5112.68 1382.68 L 5161.464 1333.896 C 5163.416 1331.944 5166.584 1331.944 5168.536 1333.896 Z " fill-rule="evenodd" fill="rgb(0,0,0)"/></g></g></svg>