<?xml version="1.0" encoding="UTF-8" standalone="no"?>
<!-- Generator: Gravit.io -->
<svg xmlns="http://www.w3.org/2000/svg" xmlns:xlink="http://www.w3.org/1999/xlink" style="isolation:isolate" viewBox="970 0 970 970" width="970pt" height="970pt"><g style="isolation:isolate"><rect x="970" y="0" width="970" height="970" transform="matrix(1,0,0,1,0,0)" fill="none"/><g><path d=" M 1775.244 738.893 L 1514.756 889.286 C 1481.776 908.327 1428.224 908.327 1395.244 889.286 L 1134.756 738.893 C 1101.776 719.852 1075 673.475 1075 635.393 L 1075 334.607 C 1075 296.525 1101.776 250.148 1134.756 231.107 L 1395.244 80.714 C 1428.224 61.673 1481.776 61.673 1514.756 80.714 L 1775.244 231.107 C 1808.224 250.148 1835 296.525 1835 334.607 L 1835 635.393 C 1835 673.475 1808.224 719.852 1775.244 738.893 Z " fill="rgb(0,0,0)"/><path d=" M 1154.837 334.795 L 1395.163 473.547 C 1417.15 486.241 1435 517.159 1435 542.547 L 1435 820.051 C 1435 845.439 1417.15 855.745 1395.163 843.051 L 1370.588 828.863 C 1361.985 823.896 1355 811.798 1355 801.863 L 1355 560.735 C 1355 550.801 1348.015 538.702 1339.412 533.735 L 1330.588 528.641 C 1321.985 523.674 1315 527.707 1315 537.641 L 1315 778.769 C 1315 788.704 1308.015 792.736 1299.412 787.769 L 1250.588 759.581 C 1241.985 754.614 1235 742.516 1235 732.581 L 1235 491.453 C 1235 481.519 1228.015 469.42 1219.412 464.453 L 1210.588 459.359 C 1201.985 454.392 1195 458.425 1195 468.359 L 1195 709.487 C 1195 719.422 1188.015 723.454 1179.412 718.487 L 1154.837 704.299 C 1132.85 691.605 1115 660.687 1115 635.299 L 1115 357.795 C 1115 332.407 1132.85 322.101 1154.837 334.795 Z " fill="rgb(255,255,255)"/><path d=" M 1514.837 473.547 L 1755.163 334.795 C 1777.15 322.101 1795 332.407 1795 357.795 L 1795 635.299 C 1795 660.687 1777.15 691.605 1755.163 704.299 L 1514.837 843.051 C 1492.85 855.745 1475 845.439 1475 820.051 L 1475 542.547 C 1475 517.159 1492.85 486.241 1514.837 473.547 Z " fill="rgb(255,255,255)"/><path d=" M 1555 709.487 L 1555 699.299 C 1555 689.365 1561.985 677.266 1570.588 672.299 L 1699.412 597.923 C 1708.015 592.956 1715 596.989 1715 606.923 L 1715 617.111 C 1715 627.046 1708.015 639.144 1699.412 644.111 L 1570.588 718.487 C 1561.985 723.454 1555 719.422 1555 709.487 Z " fill="rgb(0,0,0)"/><path d=" M 1555 570.923 L 1555 560.735 C 1555 550.801 1561.985 538.702 1570.588 533.735 L 1699.412 459.359 C 1708.015 454.392 1715 458.425 1715 468.359 L 1715 478.547 C 1715 488.481 1708.015 500.58 1699.412 505.547 L 1570.588 579.923 C 1561.985 584.89 1555 580.858 1555 570.923 Z " fill="rgb(0,0,0)"/><path d=" M 1174.837 300.154 L 1415.163 438.906 C 1437.15 451.6 1472.85 451.6 1494.837 438.906 L 1735.163 300.154 C 1757.15 287.46 1757.15 266.848 1735.163 254.154 L 1494.837 115.402 C 1472.85 102.708 1437.15 102.708 1415.163 115.402 L 1174.837 254.154 C 1152.85 266.848 1152.85 287.46 1174.837 300.154 Z " fill="rgb(255,255,255)"/><path d=" M 1294.998 369.529 C 1326.962 314.324 1386.674 277.154 1455 277.154 C 1523.326 277.154 1583.038 314.324 1615.002 369.529 L 1494.837 438.906 C 1472.85 451.6 1437.15 451.6 1415.163 438.906 L 1294.998 369.529 Z  M 1662.174 212.014 L 1603.623 276.111 C 1596.923 283.446 1597.805 294.41 1605.59 300.581 C 1605.689 300.659 1618.474 313.633 1618.555 313.738 C 1624.609 321.614 1636.333 323.686 1644.72 318.361 L 1644.72 318.361 L 1644.72 318.361 L 1644.72 318.361 L 1644.72 318.361 L 1740.386 257.624 C 1738.81 256.415 1737.069 255.255 1735.163 254.154 L 1662.174 212.014 Z  M 1546.978 145.505 L 1519.602 232.805 C 1516.629 242.285 1521.894 252.125 1531.352 254.766 C 1531.352 254.766 1547.648 261.576 1547.648 261.576 C 1556.026 266.3 1567.172 263.34 1572.523 254.97 L 1572.523 254.97 L 1572.523 254.97 L 1572.523 254.97 L 1616.748 185.787 L 1546.978 145.505 Z  M 1247.826 212.014 L 1306.377 276.111 C 1313.077 283.446 1312.195 294.41 1304.41 300.581 C 1304.311 300.659 1291.526 313.633 1291.445 313.738 C 1285.391 321.614 1273.667 323.686 1265.28 318.361 L 1265.28 318.361 L 1265.28 318.361 L 1169.614 257.624 C 1171.19 256.415 1172.931 255.255 1174.837 254.154 L 1247.826 212.014 Z  M 1363.022 145.505 L 1390.398 232.805 C 1393.371 242.285 1388.106 252.125 1378.648 254.766 C 1378.648 254.766 1362.352 261.576 1362.352 261.576 C 1353.974 266.3 1342.828 263.34 1337.477 254.97 L 1337.477 254.97 L 1293.252 185.787 L 1363.022 145.505 Z  M 1497.857 117.145 L 1483.408 225.591 C 1482.096 235.438 1473.906 242.329 1465.13 240.97 C 1465.13 240.97 1447.505 240.782 1446.787 240.885 C 1436.953 242.291 1427.904 235.438 1426.591 225.591 L 1412.143 117.145 L 1415.163 115.402 C 1437.15 102.708 1472.85 102.708 1494.837 115.402 L 1497.857 117.145 Z " fill-rule="evenodd" fill="rgb(188,8,43)"/></g></g></svg>