<?xml version="1.0" encoding="UTF-8" standalone="no"?>
<!-- Generator: Gravit.io -->
<svg xmlns="http://www.w3.org/2000/svg" xmlns:xlink="http://www.w3.org/1999/xlink" style="isolation:isolate" viewBox="1200 0 970 970" width="970pt" height="970pt"><g style="isolation:isolate"><g><path d=" M 2005.244 738.893 L 1744.756 889.286 C 1711.776 908.327 1658.224 908.327 1625.244 889.286 L 1364.756 738.893 C 1331.776 719.852 1305 673.475 1305 635.393 L 1305 334.607 C 1305 296.525 1331.776 250.148 1364.756 231.107 L 1625.244 80.714 C 1658.224 61.673 1711.776 61.673 1744.756 80.714 L 2005.244 231.107 C 2038.224 250.148 2065 296.525 2065 334.607 L 2065 635.393 C 2065 673.475 2038.224 719.852 2005.244 738.893 Z " fill="rgb(0,0,0)"/><path d=" M 1384.837 334.795 L 1625.163 473.547 C 1647.15 486.241 1665 517.159 1665 542.547 L 1665 820.051 C 1665 845.439 1647.15 855.745 1625.163 843.051 L 1600.588 828.863 C 1591.985 823.896 1585 811.798 1585 801.863 L 1585 560.735 C 1585 550.801 1578.015 538.702 1569.412 533.735 L 1560.588 528.641 C 1551.985 523.674 1545 527.707 1545 537.641 L 1545 778.769 C 1545 788.704 1538.015 792.736 1529.412 787.769 L 1480.588 759.581 C 1471.985 754.614 1465 742.516 1465 732.581 L 1465 491.453 C 1465 481.519 1458.015 469.42 1449.412 464.453 L 1440.588 459.359 C 1431.985 454.392 1425 458.425 1425 468.359 L 1425 709.487 C 1425 719.422 1418.015 723.454 1409.412 718.487 L 1384.837 704.299 C 1362.85 691.605 1345 660.687 1345 635.299 L 1345 357.795 C 1345 332.407 1362.85 322.101 1384.837 334.795 Z " fill="rgb(255,255,255)"/><path d=" M 1744.837 473.547 L 1985.163 334.795 C 2007.15 322.101 2025 332.407 2025 357.795 L 2025 635.299 C 2025 660.687 2007.15 691.605 1985.163 704.299 L 1744.837 843.051 C 1722.85 855.745 1705 845.439 1705 820.051 L 1705 542.547 C 1705 517.159 1722.85 486.241 1744.837 473.547 Z " fill="rgb(255,255,255)"/><path d=" M 1785 709.487 L 1785 699.299 C 1785 689.365 1791.985 677.266 1800.588 672.299 L 1929.412 597.923 C 1938.015 592.956 1945 596.989 1945 606.923 L 1945 617.111 C 1945 627.046 1938.015 639.144 1929.412 644.111 L 1800.588 718.487 C 1791.985 723.454 1785 719.422 1785 709.487 Z " fill="rgb(0,0,0)"/><path d=" M 1785 570.923 L 1785 560.735 C 1785 550.801 1791.985 538.702 1800.588 533.735 L 1929.412 459.359 C 1938.015 454.392 1945 458.425 1945 468.359 L 1945 478.547 C 1945 488.481 1938.015 500.58 1929.412 505.547 L 1800.588 579.923 C 1791.985 584.89 1785 580.858 1785 570.923 Z " fill="rgb(0,0,0)"/><path d=" M 1404.837 300.154 L 1645.163 438.906 C 1667.15 451.6 1702.85 451.6 1724.837 438.906 L 1965.163 300.154 C 1987.15 287.46 1987.15 266.848 1965.163 254.154 L 1724.837 115.402 C 1702.85 102.708 1667.15 102.708 1645.163 115.402 L 1404.837 254.154 C 1382.85 266.848 1382.85 287.46 1404.837 300.154 Z " fill="rgb(255,255,255)"/><path d=" M 1524.998 369.529 C 1556.962 314.324 1616.674 277.154 1685 277.154 C 1753.326 277.154 1813.038 314.324 1845.002 369.529 L 1724.837 438.906 C 1702.85 451.6 1667.15 451.6 1645.163 438.906 L 1524.998 369.529 Z  M 1892.174 212.014 L 1833.623 276.111 C 1826.923 283.446 1827.805 294.41 1835.59 300.581 C 1835.689 300.659 1848.474 313.633 1848.555 313.738 C 1854.609 321.614 1866.333 323.686 1874.72 318.361 L 1874.72 318.361 L 1874.72 318.361 L 1874.72 318.361 L 1874.72 318.361 L 1970.386 257.624 C 1968.81 256.415 1967.069 255.255 1965.163 254.154 L 1892.174 212.014 Z  M 1776.978 145.505 L 1749.602 232.805 C 1746.629 242.285 1751.894 252.125 1761.352 254.766 C 1761.352 254.766 1777.648 261.576 1777.648 261.576 C 1786.026 266.3 1797.172 263.34 1802.523 254.97 L 1802.523 254.97 L 1802.523 254.97 L 1802.523 254.97 L 1846.748 185.787 L 1776.978 145.505 Z  M 1477.826 212.014 L 1536.377 276.111 C 1543.077 283.446 1542.195 294.41 1534.41 300.581 C 1534.311 300.659 1521.526 313.633 1521.445 313.738 C 1515.391 321.614 1503.667 323.686 1495.28 318.361 L 1495.28 318.361 L 1495.28 318.361 L 1399.614 257.624 C 1401.19 256.415 1402.931 255.255 1404.837 254.154 L 1477.826 212.014 Z  M 1593.022 145.505 L 1620.398 232.805 C 1623.371 242.285 1618.106 252.125 1608.648 254.766 C 1608.648 254.766 1592.352 261.576 1592.352 261.576 C 1583.974 266.3 1572.828 263.34 1567.477 254.97 L 1567.477 254.97 L 1523.252 185.787 L 1593.022 145.505 Z  M 1727.857 117.145 L 1713.408 225.591 C 1712.096 235.438 1703.906 242.329 1695.13 240.97 C 1695.13 240.97 1677.505 240.782 1676.787 240.885 C 1666.953 242.291 1657.904 235.438 1656.591 225.591 L 1642.143 117.145 L 1645.163 115.402 C 1667.15 102.708 1702.85 102.708 1724.837 115.402 L 1727.857 117.145 Z " fill-rule="evenodd" fill="rgb(188,8,43)"/></g></g></svg>