<?xml version="1.0" encoding="UTF-8" standalone="no"?>
<!-- Generator: Gravit.io -->
<svg xmlns="http://www.w3.org/2000/svg" xmlns:xlink="http://www.w3.org/1999/xlink" style="isolation:isolate" viewBox="1200 1200 970 970" width="970pt" height="970pt"><g style="isolation:isolate"><g><linearGradient id="_lgradient_0" x1="0.5" y1="4.440892098500626e-16" x2="0.5000000000000001" y2="1.0000000000000004" gradientTransform="matrix(970,0,0,970,1200,1199)" gradientUnits="userSpaceOnUse"><stop offset="0%" stop-opacity="1" style="stop-color:rgb(188,8,43)"/><stop offset="100%" stop-opacity="1" style="stop-color:rgb(138,5,5)"/></linearGradient><rect x="1200" y="1199" width="970" height="970" transform="matrix(1,0,0,1,0,0)" fill="url(#_lgradient_0)"/></g><g filter="url(#uF5umYTwFBrcYQS6a5iZ4LZ1h71BOU8J)"><path d=" M 2005.244 1938.893 L 1744.756 2089.286 C 1711.776 2108.327 1658.224 2108.327 1625.244 2089.286 L 1364.756 1938.893 C 1331.776 1919.852 1305 1873.475 1305 1835.393 L 1305 1534.607 C 1305 1496.525 1331.776 1450.148 1364.756 1431.107 L 1625.244 1280.714 C 1658.224 1261.673 1711.776 1261.673 1744.756 1280.714 L 2005.244 1431.107 C 2038.224 1450.148 2065 1496.525 2065 1534.607 L 2065 1835.393 C 2065 1873.475 2038.224 1919.852 2005.244 1938.893 Z " fill="rgb(0,0,0)"/><path d=" M 1384.837 1534.795 L 1625.163 1673.547 C 1647.15 1686.241 1665 1717.159 1665 1742.547 L 1665 2020.051 C 1665 2045.439 1647.15 2055.745 1625.163 2043.051 L 1600.588 2028.863 C 1591.985 2023.896 1585 2011.798 1585 2001.863 L 1585 1760.735 C 1585 1750.801 1578.015 1738.702 1569.412 1733.735 L 1560.588 1728.641 C 1551.985 1723.674 1545 1727.707 1545 1737.641 L 1545 1978.769 C 1545 1988.704 1538.015 1992.736 1529.412 1987.769 L 1480.588 1959.581 C 1471.985 1954.614 1465 1942.516 1465 1932.581 L 1465 1691.453 C 1465 1681.519 1458.015 1669.42 1449.412 1664.453 L 1440.588 1659.359 C 1431.985 1654.392 1425 1658.425 1425 1668.359 L 1425 1909.487 C 1425 1919.422 1418.015 1923.454 1409.412 1918.487 L 1384.837 1904.299 C 1362.85 1891.605 1345 1860.687 1345 1835.299 L 1345 1557.795 C 1345 1532.407 1362.85 1522.101 1384.837 1534.795 Z " fill="rgb(255,255,255)"/><path d=" M 1744.837 1673.547 L 1985.163 1534.795 C 2007.15 1522.101 2025 1532.407 2025 1557.795 L 2025 1835.299 C 2025 1860.687 2007.15 1891.605 1985.163 1904.299 L 1744.837 2043.051 C 1722.85 2055.745 1705 2045.439 1705 2020.051 L 1705 1742.547 C 1705 1717.159 1722.85 1686.241 1744.837 1673.547 Z " fill="rgb(255,255,255)"/><path d=" M 1785 1909.487 L 1785 1899.299 C 1785 1889.365 1791.985 1877.266 1800.588 1872.299 L 1929.412 1797.923 C 1938.015 1792.956 1945 1796.989 1945 1806.923 L 1945 1817.111 C 1945 1827.046 1938.015 1839.144 1929.412 1844.111 L 1800.588 1918.487 C 1791.985 1923.454 1785 1919.422 1785 1909.487 Z " fill="rgb(0,0,0)"/><path d=" M 1785 1770.923 L 1785 1760.735 C 1785 1750.801 1791.985 1738.702 1800.588 1733.735 L 1929.412 1659.359 C 1938.015 1654.392 1945 1658.425 1945 1668.359 L 1945 1678.547 C 1945 1688.481 1938.015 1700.58 1929.412 1705.547 L 1800.588 1779.923 C 1791.985 1784.89 1785 1780.858 1785 1770.923 Z " fill="rgb(0,0,0)"/><path d=" M 1404.837 1500.154 L 1645.163 1638.906 C 1667.15 1651.6 1702.85 1651.6 1724.837 1638.906 L 1965.163 1500.154 C 1987.15 1487.46 1987.15 1466.848 1965.163 1454.154 L 1724.837 1315.402 C 1702.85 1302.708 1667.15 1302.708 1645.163 1315.402 L 1404.837 1454.154 C 1382.85 1466.848 1382.85 1487.46 1404.837 1500.154 Z " fill="rgb(255,255,255)"/><path d=" M 1524.998 1569.529 C 1556.962 1514.324 1616.674 1477.154 1685 1477.154 C 1753.326 1477.154 1813.038 1514.324 1845.002 1569.529 L 1724.837 1638.906 C 1702.85 1651.6 1667.15 1651.6 1645.163 1638.906 L 1524.998 1569.529 Z  M 1892.174 1412.014 L 1833.623 1476.111 C 1826.923 1483.446 1827.805 1494.41 1835.59 1500.581 C 1835.689 1500.659 1848.474 1513.633 1848.555 1513.738 C 1854.609 1521.614 1866.333 1523.686 1874.72 1518.361 L 1874.72 1518.361 L 1874.72 1518.361 L 1874.72 1518.361 L 1874.72 1518.361 L 1970.386 1457.624 C 1968.81 1456.415 1967.069 1455.255 1965.163 1454.154 L 1892.174 1412.014 Z  M 1776.978 1345.505 L 1749.602 1432.805 C 1746.629 1442.285 1751.894 1452.125 1761.352 1454.766 C 1761.352 1454.766 1777.648 1461.576 1777.648 1461.576 C 1786.026 1466.3 1797.172 1463.34 1802.523 1454.97 L 1802.523 1454.97 L 1802.523 1454.97 L 1802.523 1454.97 L 1846.748 1385.787 L 1776.978 1345.505 Z  M 1477.826 1412.014 L 1536.377 1476.111 C 1543.077 1483.446 1542.195 1494.41 1534.41 1500.581 C 1534.311 1500.659 1521.526 1513.633 1521.445 1513.738 C 1515.391 1521.614 1503.667 1523.686 1495.28 1518.361 L 1495.28 1518.361 L 1495.28 1518.361 L 1399.614 1457.624 C 1401.19 1456.415 1402.931 1455.255 1404.837 1454.154 L 1477.826 1412.014 Z  M 1593.022 1345.505 L 1620.398 1432.805 C 1623.371 1442.285 1618.106 1452.125 1608.648 1454.766 C 1608.648 1454.766 1592.352 1461.576 1592.352 1461.576 C 1583.974 1466.3 1572.828 1463.34 1567.477 1454.97 L 1567.477 1454.97 L 1523.252 1385.787 L 1593.022 1345.505 Z  M 1727.857 1317.145 L 1713.408 1425.591 C 1712.096 1435.438 1703.906 1442.329 1695.13 1440.97 C 1695.13 1440.97 1677.505 1440.782 1676.787 1440.885 C 1666.953 1442.291 1657.904 1435.438 1656.591 1425.591 L 1642.143 1317.145 L 1645.163 1315.402 C 1667.15 1302.708 1702.85 1302.708 1724.837 1315.402 L 1727.857 1317.145 Z " fill-rule="evenodd" fill="rgb(188,8,43)"/></g><defs><filter id="uF5umYTwFBrcYQS6a5iZ4LZ1h71BOU8J" x="-200%" y="-200%" width="400%" height="400%" filterUnits="objectBoundingBox" color-interpolation-filters="sRGB"><feGaussianBlur xmlns="http://www.w3.org/2000/svg" in="SourceGraphic" stdDeviation="17.174436251356113"/><feOffset xmlns="http://www.w3.org/2000/svg" dx="0" dy="10" result="pf_100_offsetBlur"/><feFlood xmlns="http://www.w3.org/2000/svg" flood-color="#000000" flood-opacity="0.5"/><feComposite xmlns="http://www.w3.org/2000/svg" in2="pf_100_offsetBlur" operator="in" result="pf_100_dropShadow"/><feBlend xmlns="http://www.w3.org/2000/svg" in="SourceGraphic" in2="pf_100_dropShadow" mode="normal"/></filter></defs></g></svg>