<?xml version="1.0" encoding="UTF-8" standalone="no"?>
<!-- Generator: Gravit.io -->
<svg xmlns="http://www.w3.org/2000/svg" xmlns:xlink="http://www.w3.org/1999/xlink" style="isolation:isolate" viewBox="2400 0 5450 970" width="5450pt" height="970pt"><g style="isolation:isolate"><path d=" M 3517.918 194 L 7580.676 194 C 7619.9 194 7657.548 209.581 7685.253 237.347 C 7712.959 265.053 7728.6 302.701 7728.6 341.925 L 7728.6 652.325 C 7728.6 691.549 7712.959 729.197 7685.253 756.903 C 7657.548 784.669 7619.9 800.25 7580.676 800.25 L 3517.918 800.25 C 3478.694 800.25 3441.046 784.669 3413.34 756.903 C 3385.574 729.197 3369.994 691.549 3369.994 652.325 L 3369.994 341.925 C 3369.994 302.701 3385.574 265.053 3413.34 237.347 C 3441.046 209.581 3478.694 194 3517.918 194 Z " fill="rgb(255,255,255)"/><g><rect x="2400" y="0" width="969.994" height="970" transform="matrix(1,0,0,1,0,0)" fill="none"/><g><path d=" M 3205.239 738.86 L 2944.752 889.253 C 2911.772 908.294 2858.221 908.294 2825.241 889.253 L 2564.755 738.86 C 2531.775 719.819 2504.999 673.442 2504.999 635.36 L 2504.999 334.574 C 2504.999 296.492 2531.775 250.115 2564.755 231.074 L 2825.241 80.681 C 2858.221 61.64 2911.772 61.64 2944.752 80.681 L 3205.239 231.074 C 3238.219 250.115 3264.994 296.492 3264.994 334.574 L 3264.994 635.36 C 3264.994 673.442 3238.219 719.819 3205.239 738.86 Z " fill="rgb(0,0,0)"/><path d=" M 2584.836 334.762 L 2825.16 473.514 C 2847.147 486.208 2864.997 517.126 2864.997 542.514 L 2864.997 820.018 C 2864.997 845.406 2847.147 855.712 2825.16 843.018 L 2800.586 828.83 C 2791.982 823.863 2784.997 811.765 2784.997 801.83 L 2784.997 560.702 C 2784.997 550.768 2778.013 538.669 2769.409 533.702 L 2760.586 528.608 C 2751.983 523.641 2744.998 527.674 2744.998 537.608 L 2744.998 778.736 C 2744.998 788.671 2738.013 792.703 2729.409 787.736 L 2680.587 759.548 C 2671.983 754.581 2664.998 742.483 2664.998 732.548 L 2664.998 491.42 C 2664.998 481.485 2658.013 469.387 2649.41 464.42 L 2640.587 459.326 C 2631.983 454.359 2624.999 458.391 2624.999 468.326 L 2624.999 709.454 C 2624.999 719.389 2618.014 723.421 2609.41 718.454 L 2584.836 704.266 C 2562.849 691.572 2544.999 660.654 2544.999 635.266 L 2544.999 357.762 C 2544.999 332.374 2562.849 322.068 2584.836 334.762 Z " fill="rgb(255,255,255)"/><path d=" M 2944.834 473.514 L 3185.158 334.762 C 3207.144 322.068 3224.995 332.374 3224.995 357.762 L 3224.995 635.266 C 3224.995 660.654 3207.144 691.572 3185.158 704.266 L 2944.834 843.018 C 2922.847 855.712 2904.997 845.406 2904.997 820.018 L 2904.997 542.514 C 2904.997 517.126 2922.847 486.208 2944.834 473.514 Z " fill="rgb(255,255,255)"/><path d=" M 2984.996 709.454 L 2984.996 699.266 C 2984.996 689.332 2991.981 677.233 3000.585 672.266 L 3129.407 597.89 C 3138.01 592.923 3144.995 596.956 3144.995 606.89 L 3144.995 617.078 C 3144.995 627.013 3138.01 639.111 3129.407 644.078 L 3000.585 718.454 C 2991.981 723.421 2984.996 719.389 2984.996 709.454 Z " fill="rgb(0,0,0)"/><path d=" M 2984.996 570.89 L 2984.996 560.702 C 2984.996 550.768 2991.981 538.669 3000.585 533.702 L 3129.407 459.326 C 3138.01 454.359 3144.995 458.391 3144.995 468.326 L 3144.995 478.514 C 3144.995 488.449 3138.01 500.547 3129.407 505.514 L 3000.585 579.89 C 2991.981 584.857 2984.996 580.825 2984.996 570.89 Z " fill="rgb(0,0,0)"/><path d=" M 2604.836 300.121 L 2845.16 438.873 C 2867.146 451.567 2902.847 451.567 2924.834 438.873 L 3165.158 300.121 C 3187.144 287.427 3187.144 266.815 3165.158 254.121 L 2924.834 115.369 C 2902.847 102.675 2867.146 102.675 2845.16 115.369 L 2604.836 254.121 C 2582.849 266.815 2582.849 287.427 2604.836 300.121 Z " fill="rgb(255,255,255)"/><path d=" M 2724.996 369.496 C 2756.96 314.291 2816.672 277.121 2884.997 277.121 C 2953.322 277.121 3013.034 314.291 3044.998 369.496 L 2924.834 438.873 C 2902.847 451.567 2867.146 451.567 2845.16 438.873 L 2724.996 369.496 Z  M 3092.17 211.981 L 3033.619 276.078 C 3026.919 283.413 3027.8 294.377 3035.586 300.548 C 3035.685 300.626 3048.47 313.6 3048.55 313.705 C 3054.604 321.581 3066.329 323.653 3074.716 318.328 L 3074.716 318.328 L 3074.716 318.328 L 3074.716 318.328 L 3074.716 318.328 L 3170.381 257.591 C 3168.805 256.382 3167.064 255.222 3165.158 254.121 L 3092.17 211.981 Z  M 2976.974 145.472 L 2949.598 232.772 C 2946.625 242.252 2951.891 252.092 2961.349 254.733 C 2961.349 254.733 2977.644 261.543 2977.644 261.543 C 2986.022 266.267 2997.168 263.307 3002.519 254.937 L 3002.519 254.937 L 3002.519 254.937 L 3002.519 254.937 L 3046.744 185.754 L 2976.974 145.472 Z  M 2677.824 211.981 L 2736.374 276.078 C 2743.075 283.413 2742.193 294.377 2734.407 300.548 C 2734.309 300.626 2721.524 313.6 2721.443 313.705 C 2715.389 321.581 2703.665 323.653 2695.278 318.328 L 2695.278 318.328 L 2695.278 318.328 L 2599.613 257.591 C 2601.188 256.382 2602.929 255.222 2604.836 254.121 L 2677.824 211.981 Z  M 2793.019 145.472 L 2820.396 232.772 C 2823.368 242.252 2818.103 252.092 2808.645 254.733 C 2808.645 254.733 2792.349 261.543 2792.349 261.543 C 2783.972 266.267 2772.826 263.307 2767.475 254.937 L 2767.475 254.937 L 2723.25 185.754 L 2793.019 145.472 Z  M 2927.854 117.112 L 2913.405 225.558 C 2912.093 235.405 2903.903 242.296 2895.126 240.937 C 2895.126 240.937 2877.502 240.749 2876.784 240.852 C 2866.95 242.258 2857.901 235.405 2856.589 225.558 L 2842.14 117.112 L 2845.16 115.369 C 2867.146 102.675 2902.847 102.675 2924.834 115.369 L 2927.854 117.112 Z " fill-rule="evenodd" fill="rgb(188,8,43)"/></g></g><g><path d=" M 4860.058 675.784 L 4860.058 394.995 C 4860.058 387.951 4854.339 382.232 4847.295 382.232 L 4643.086 382.232 C 4636.041 382.232 4630.322 387.951 4630.322 394.995 L 4630.322 675.784 C 4630.322 711.005 4601.728 739.6 4566.507 739.6 L 4566.507 739.6 C 4531.286 739.6 4502.692 711.005 4502.692 675.784 L 4502.692 343.942 C 4502.692 294.633 4542.724 254.6 4592.033 254.6 L 4898.347 254.6 C 4947.656 254.6 4987.689 294.633 4987.689 343.942 L 4987.689 675.784 C 4987.689 711.005 4959.094 739.6 4923.873 739.6 L 4923.873 739.6 C 4888.652 739.6 4860.058 711.005 4860.058 675.784 L 4860.058 675.784 L 4860.058 675.784 L 4860.058 675.784 L 4860.058 675.784 L 4860.058 675.784 L 4860.058 675.784 Z  M 6774.519 599.205 L 6774.519 394.995 C 6774.519 387.951 6780.238 382.232 6787.282 382.232 L 6991.491 382.232 C 6998.535 382.232 7004.254 387.951 7004.254 394.995 L 7004.254 599.205 C 7004.254 606.249 6998.535 611.968 6991.491 611.968 L 6787.282 611.968 C 6780.238 611.968 6774.519 606.249 6774.519 599.205 L 6774.519 599.205 L 6774.519 599.205 L 6774.519 599.205 L 6774.519 599.205 L 6774.519 599.205 L 6774.519 599.205 L 6774.519 599.205 Z  M 5217.424 497.1 L 5217.424 497.1 C 5217.424 461.879 5246.019 433.284 5281.239 433.284 L 5459.922 433.284 C 5495.143 433.284 5523.738 461.879 5523.738 497.1 L 5523.738 650.258 C 5523.738 699.567 5483.705 739.6 5434.396 739.6 L 5128.083 739.6 C 5078.774 739.6 5038.741 699.567 5038.741 650.258 L 5038.741 343.942 C 5038.741 294.633 5078.774 254.6 5128.083 254.6 L 5459.922 254.6 C 5495.143 254.6 5523.738 283.195 5523.738 318.416 L 5523.738 318.416 C 5523.738 353.637 5495.143 382.232 5459.922 382.232 L 5179.135 382.232 C 5172.091 382.232 5166.372 387.951 5166.372 394.995 L 5166.372 599.205 C 5166.372 606.249 5172.091 611.968 5179.135 611.968 L 5383.344 611.968 C 5390.388 611.968 5396.107 606.249 5396.107 599.205 L 5396.107 573.679 C 5396.107 566.635 5390.388 560.916 5383.344 560.916 L 5281.239 560.916 C 5246.019 560.916 5217.424 532.321 5217.424 497.1 L 5217.424 497.1 L 5217.424 497.1 L 5217.424 497.1 L 5217.424 497.1 L 5217.424 497.1 Z  M 4324.009 420.521 L 4324.009 394.995 C 4324.009 387.951 4318.29 382.232 4311.245 382.232 L 4107.036 382.232 C 4099.992 382.232 4094.273 387.951 4094.273 394.995 L 4094.273 420.521 C 4094.273 427.565 4099.992 433.284 4107.036 433.284 L 4311.245 433.284 C 4318.29 433.284 4324.009 427.565 4324.009 420.521 L 4324.009 420.521 L 4324.009 420.521 L 4324.009 420.521 L 4324.009 420.521 L 4324.009 420.521 Z  M 5932.156 420.521 L 5932.156 394.995 C 5932.156 387.951 5926.437 382.232 5919.393 382.232 L 5715.184 382.232 C 5708.14 382.232 5702.421 387.951 5702.421 394.995 L 5702.421 420.521 C 5702.421 427.565 5708.14 433.284 5715.184 433.284 L 5919.393 433.284 C 5926.437 433.284 5932.156 427.565 5932.156 420.521 L 5932.156 420.521 L 5932.156 420.521 L 5932.156 420.521 L 5932.156 420.521 Z  M 6238.47 573.679 L 6238.47 599.205 C 6238.47 606.249 6244.189 611.968 6251.233 611.968 L 6455.442 611.968 C 6462.486 611.968 6468.205 606.249 6468.205 599.205 L 6468.205 573.679 C 6468.205 566.635 6462.486 560.916 6455.442 560.916 L 6251.233 560.916 C 6244.189 560.916 6238.47 566.635 6238.47 573.679 L 6238.47 573.679 L 6238.47 573.679 L 6238.47 573.679 Z  M 6238.47 420.521 L 6238.47 394.995 C 6238.47 387.951 6244.189 382.232 6251.233 382.232 L 6455.442 382.232 C 6462.486 382.232 6468.205 387.951 6468.205 394.995 L 6468.205 420.521 C 6468.205 427.565 6462.486 433.284 6455.442 433.284 L 6251.233 433.284 C 6244.189 433.284 6238.47 427.565 6238.47 420.521 L 6238.47 420.521 L 6238.47 420.521 L 6238.47 420.521 Z  M 3749.67 382.232 L 3775.196 382.232 C 3782.24 382.232 3787.959 387.951 3787.959 394.995 L 3787.959 675.784 C 3787.959 711.005 3816.554 739.6 3851.775 739.6 L 3851.775 739.6 C 3886.995 739.6 3915.59 711.005 3915.59 675.784 L 3915.59 343.942 C 3915.59 294.633 3875.557 254.6 3826.248 254.6 L 3519.935 254.6 C 3470.626 254.6 3430.593 294.633 3430.593 343.942 L 3430.593 675.784 C 3430.593 711.005 3459.188 739.6 3494.409 739.6 L 3494.409 739.6 C 3529.629 739.6 3558.224 711.005 3558.224 675.784 L 3558.224 394.995 C 3558.224 387.951 3563.943 382.232 3570.987 382.232 L 3596.513 382.232 C 3603.557 382.232 3609.276 387.951 3609.276 394.995 L 3609.276 675.784 C 3609.276 711.005 3637.871 739.6 3673.092 739.6 L 3673.092 739.6 C 3708.312 739.6 3736.907 711.005 3736.907 675.784 L 3736.907 394.995 C 3736.907 387.951 3742.626 382.232 3749.67 382.232 L 3749.67 382.232 Z  M 6646.888 650.258 L 6646.888 343.942 C 6646.888 294.633 6686.921 254.6 6736.23 254.6 L 7042.543 254.6 C 7091.852 254.6 7131.885 294.633 7131.885 343.942 L 7131.885 650.258 C 7131.885 699.567 7091.852 739.6 7042.543 739.6 L 6736.23 739.6 C 6686.921 739.6 6646.888 699.567 6646.888 650.258 L 6646.888 650.258 L 6646.888 650.258 L 6646.888 650.258 L 6646.888 650.258 L 6646.888 650.258 L 6646.888 650.258 L 6646.888 650.258 Z  M 4324.009 573.679 L 4324.009 675.784 C 4324.009 711.005 4352.603 739.6 4387.824 739.6 L 4387.824 739.6 C 4423.045 739.6 4451.639 711.005 4451.639 675.784 L 4451.639 343.942 C 4451.639 294.633 4411.607 254.6 4362.298 254.6 L 4055.984 254.6 C 4006.675 254.6 3966.643 294.633 3966.643 343.942 L 3966.643 675.784 C 3966.643 711.005 3995.237 739.6 4030.458 739.6 L 4030.458 739.6 C 4065.679 739.6 4094.273 711.005 4094.273 675.784 L 4094.273 573.679 C 4094.273 566.635 4099.992 560.916 4107.036 560.916 L 4311.245 560.916 C 4318.29 560.916 4324.009 566.635 4324.009 573.679 L 4324.009 573.679 L 4324.009 573.679 L 4324.009 573.679 L 4324.009 573.679 L 4324.009 573.679 Z  M 5932.156 573.679 L 5932.156 675.784 C 5932.156 711.005 5960.751 739.6 5995.971 739.6 L 5995.971 739.6 C 6031.192 739.6 6059.787 711.005 6059.787 675.784 L 6059.787 343.942 C 6059.787 294.633 6019.754 254.6 5970.445 254.6 L 5664.132 254.6 C 5614.823 254.6 5574.79 294.633 5574.79 343.942 L 5574.79 675.784 C 5574.79 711.005 5603.385 739.6 5638.605 739.6 L 5638.605 739.6 C 5673.826 739.6 5702.421 711.005 5702.421 675.784 L 5702.421 573.679 C 5702.421 566.635 5708.14 560.916 5715.184 560.916 L 5919.393 560.916 C 5926.437 560.916 5932.156 566.635 5932.156 573.679 L 5932.156 573.679 L 5932.156 573.679 L 5932.156 573.679 L 5932.156 573.679 Z  M 6200.181 254.6 L 6506.494 254.6 C 6555.803 254.6 6595.836 294.633 6595.836 343.942 L 6595.836 650.258 C 6595.836 699.567 6555.803 739.6 6506.494 739.6 L 6200.181 739.6 C 6150.872 739.6 6110.839 699.567 6110.839 650.258 L 6110.839 343.942 C 6110.839 294.633 6150.872 254.6 6200.181 254.6 L 6200.181 254.6 L 6200.181 254.6 L 6200.181 254.6 Z  M 7434.461 596.386 L 7558.989 720.915 C 7570.961 732.861 7587.195 739.6 7604.119 739.6 C 7621.043 739.6 7637.277 732.861 7649.249 720.915 C 7661.195 708.943 7667.934 692.708 7667.934 675.784 C 7667.934 658.86 7661.195 642.626 7649.249 630.654 L 7524.721 506.125 C 7519.74 501.144 7519.74 493.056 7524.721 488.075 L 7649.249 363.546 C 7661.195 351.574 7667.934 335.34 7667.934 318.416 C 7667.934 301.492 7661.195 285.257 7649.249 273.285 C 7637.277 261.339 7621.043 254.6 7604.119 254.6 C 7587.195 254.6 7570.961 261.339 7558.989 273.285 L 7434.461 397.814 C 7429.48 402.795 7421.392 402.795 7416.411 397.814 L 7291.883 273.285 C 7279.911 261.339 7263.677 254.6 7246.753 254.6 C 7229.829 254.6 7213.594 261.339 7201.623 273.285 C 7189.676 285.257 7182.937 301.492 7182.937 318.416 C 7182.937 335.34 7189.676 351.574 7201.623 363.546 L 7326.151 488.075 C 7331.132 493.056 7331.132 501.144 7326.151 506.125 L 7201.623 630.654 C 7189.676 642.626 7182.937 658.86 7182.937 675.784 C 7182.937 692.708 7189.676 708.943 7201.623 720.915 C 7213.594 732.861 7229.829 739.6 7246.753 739.6 C 7263.677 739.6 7279.911 732.861 7291.883 720.915 L 7416.411 596.386 C 7421.392 591.405 7429.48 591.405 7434.461 596.386 Z " fill-rule="evenodd" fill="rgb(0,0,0)"/></g></g></svg>