<?xml version="1.0" encoding="UTF-8"?>
<svg width="840px" height="840px" viewBox="0 0 840 840" version="1.1" xmlns="http://www.w3.org/2000/svg" xmlns:xlink="http://www.w3.org/1999/xlink">
    <title>Slice</title>
    <g id="Page-1" stroke="none" stroke-width="1" fill="none" fill-rule="evenodd">
        <g id="mangabox-logo-new" transform="translate(40, 1.4333)">
            <path d="M700.244,672.45975 L439.756,822.85275 C406.776,841.89375 353.224,841.89375 320.244,822.85275 L59.756,672.45975 C26.776,653.41875 0,607.04175 0,568.95975 L0,268.17375 C0,230.09175 26.776,183.71475 59.756,164.67375 L320.244,14.28075 C353.224,-4.76025 406.776,-4.76025 439.756,14.28075 L700.244,164.67375 C733.224,183.71475 760,230.09175 760,268.17375 L760,568.95975 C760,607.04175 733.224,653.41875 700.244,672.45975 Z" id="Path" fill="#000000" fill-rule="nonzero"></path>
            <path d="M79.837,268.36175 L320.163,407.11375 C342.15,419.80775 360,450.72575 360,476.11375 L360,753.61775 C360,779.00575 342.15,789.31175 320.163,776.61775 L295.588,762.42975 C286.985,757.46275 280,745.36475 280,735.42975 L280,494.30175 C280,484.36775 273.015,472.26875 264.412,467.30175 L255.588,462.20775 C246.985,457.24075 240,461.27375 240,471.20775 L240,712.33575 C240,722.27075 233.015,726.30275 224.412,721.33575 L175.588,693.14775 C166.985,688.18075 160,676.08275 160,666.14775 L160,425.01975 C160,415.08575 153.015,402.98675 144.412,398.01975 L135.588,392.92575 C126.985,387.95875 120,391.99175 120,401.92575 L120,643.05375 C120,652.98875 113.015,657.02075 104.412,652.05375 L79.837,637.86575 C57.85,625.17175 40,594.25375 40,568.86575 L40,291.36175 C40,265.97375 57.85,255.66775 79.837,268.36175 Z" id="Path" fill="#FFFFFF" fill-rule="nonzero"></path>
            <path d="M439.837,407.11375 L680.163,268.36175 C702.15,255.66775 720,265.97375 720,291.36175 L720,568.86575 C720,594.25375 702.15,625.17175 680.163,637.86575 L439.837,776.61775 C417.85,789.31175 400,779.00575 400,753.61775 L400,476.11375 C400,450.72575 417.85,419.80775 439.837,407.11375 Z" id="Path" fill="#FFFFFF" fill-rule="nonzero"></path>
            <path d="M480,643.05375 L480,632.86575 C480,622.93175 486.985,610.83275 495.588,605.86575 L624.412,531.48975 C633.015,526.52275 640,530.55575 640,540.48975 L640,550.67775 C640,560.61275 633.015,572.71075 624.412,577.67775 L495.588,652.05375 C486.985,657.02075 480,652.98875 480,643.05375 Z" id="Path" fill="#000000" fill-rule="nonzero"></path>
            <path d="M480,504.48975 L480,494.30175 C480,484.36775 486.985,472.26875 495.588,467.30175 L624.412,392.92575 C633.015,387.95875 640,391.99175 640,401.92575 L640,412.11375 C640,422.04775 633.015,434.14675 624.412,439.11375 L495.588,513.48975 C486.985,518.45675 480,514.42475 480,504.48975 Z" id="Path" fill="#000000" fill-rule="nonzero"></path>
            <path d="M99.837,233.72075 L340.163,372.47275 C362.15,385.16675 397.85,385.16675 419.837,372.47275 L660.163,233.72075 C682.15,221.02675 682.15,200.41475 660.163,187.72075 L419.837,48.96875 C397.85,36.27475 362.15,36.27475 340.163,48.96875 L99.837,187.72075 C77.85,200.41475 77.85,221.02675 99.837,233.72075 Z" id="Path" fill="#FFFFFF" fill-rule="nonzero"></path>
            <path d="M219.998,303.09575 C251.962,247.89075 311.674,210.72075 380,210.72075 C448.326,210.72075 508.038,247.89075 540.002,303.09575 L419.837,372.47275 C397.85,385.16675 362.15,385.16675 340.163,372.47275 L219.998,303.09575 Z M587.174,145.58075 L528.623,209.67775 C521.923,217.01275 522.805,227.97675 530.59,234.14775 C530.689,234.22575 543.474,247.19975 543.555,247.30475 C549.609,255.18075 561.333,257.25275 569.72,251.92775 L569.72,251.92775 L569.72,251.92775 L569.72,251.92775 L569.72,251.92775 L665.386,191.19075 C663.81,189.98175 662.069,188.82175 660.163,187.72075 L587.174,145.58075 Z M471.978,79.07175 L444.602,166.37175 C441.629,175.85175 446.894,185.69175 456.352,188.33275 C456.352,188.33275 472.648,195.14275 472.648,195.14275 C481.026,199.86675 492.172,196.90675 497.523,188.53675 L497.523,188.53675 L497.523,188.53675 L497.523,188.53675 L541.748,119.35375 L471.978,79.07175 Z M172.826,145.58075 L231.377,209.67775 C238.077,217.01275 237.195,227.97675 229.41,234.14775 C229.311,234.22575 216.526,247.19975 216.445,247.30475 C210.391,255.18075 198.667,257.25275 190.28,251.92775 L190.28,251.92775 L190.28,251.92775 L94.614,191.19075 C96.19,189.98175 97.931,188.82175 99.837,187.72075 L172.826,145.58075 Z M288.022,79.07175 L315.398,166.37175 C318.371,175.85175 313.106,185.69175 303.648,188.33275 C303.648,188.33275 287.352,195.14275 287.352,195.14275 C278.974,199.86675 267.828,196.90675 262.477,188.53675 L262.477,188.53675 L218.252,119.35375 L288.022,79.07175 Z M422.857,50.71175 L408.408,159.15775 C407.096,169.00475 398.906,175.89575 390.13,174.53675 C390.13,174.53675 372.505,174.34875 371.787,174.45175 C361.953,175.85775 352.904,169.00475 351.591,159.15775 L337.143,50.71175 L340.163,48.96875 C362.15,36.27475 397.85,36.27475 419.837,48.96875 L422.857,50.71175 Z" id="Shape" fill="#BC082B"></path>
        </g>
    </g>
</svg>