<?xml version="1.0" encoding="UTF-8" standalone="no"?><!-- Generator: Gravit.io --><svg xmlns="http://www.w3.org/2000/svg" xmlns:xlink="http://www.w3.org/1999/xlink" style="isolation:isolate" viewBox="0 0 1680 190" width="1680pt" height="190pt"><defs><clipPath id="_clipPath_83PnPEOPZWLAO7MUJ28rWIFIEcG1U55k"><rect width="1680" height="190"/></clipPath></defs><g clip-path="url(#_clipPath_83PnPEOPZWLAO7MUJ28rWIFIEcG1U55k)"><clipPath id="_clipPath_YdZEXsZC2qIomecvBkVsoNIGgpUIMKWm"><rect x="0" y="0" width="1680" height="190" transform="matrix(1,0,0,1,0,0)" fill="rgb(255,255,255)"/></clipPath><g clip-path="url(#_clipPath_YdZEXsZC2qIomecvBkVsoNIGgpUIMKWm)"><g><g><path d=" M 570 165 L 570 55 C 570 52.24 567.76 50 565 50 L 485 50 C 482.24 50 480 52.24 480 55 L 480 165 C 480 178.798 468.798 190 455 190 L 455 190 C 441.202 190 430 178.798 430 165 L 430 35 C 430 15.683 445.683 0 465 0 L 585 0 C 604.317 0 620 15.683 620 35 L 620 165 C 620 178.798 608.798 190 595 190 L 595 190 C 581.202 190 570 178.798 570 165 L 570 165 L 570 165 L 570 165 L 570 165 L 570 165 L 570 165 Z  M 1320 135 L 1320 55 C 1320 52.24 1322.24 50 1325 50 L 1405 50 C 1407.76 50 1410 52.24 1410 55 L 1410 135 C 1410 137.76 1407.76 140 1405 140 L 1325 140 C 1322.24 140 1320 137.76 1320 135 L 1320 135 L 1320 135 L 1320 135 L 1320 135 L 1320 135 L 1320 135 L 1320 135 Z  M 710 95 L 710 95 C 710 81.202 721.202 70 735 70 L 805 70 C 818.798 70 830 81.202 830 95 L 830 155 C 830 174.317 814.317 190 795 190 L 675 190 C 655.683 190 640 174.317 640 155 L 640 35 C 640 15.683 655.683 0 675 0 L 805 0 C 818.798 0 830 11.202 830 25 L 830 25 C 830 38.798 818.798 50 805 50 L 695 50 C 692.24 50 690 52.24 690 55 L 690 135 C 690 137.76 692.24 140 695 140 L 775 140 C 777.76 140 780 137.76 780 135 L 780 125 C 780 122.24 777.76 120 775 120 L 735 120 C 721.202 120 710 108.798 710 95 L 710 95 L 710 95 L 710 95 L 710 95 L 710 95 Z  M 360 65 L 360 55 C 360 52.24 357.76 50 355 50 L 275 50 C 272.24 50 270 52.24 270 55 L 270 65 C 270 67.76 272.24 70 275 70 L 355 70 C 357.76 70 360 67.76 360 65 L 360 65 L 360 65 L 360 65 L 360 65 L 360 65 Z  M 990 65 L 990 55 C 990 52.24 987.76 50 985 50 L 905 50 C 902.24 50 900 52.24 900 55 L 900 65 C 900 67.76 902.24 70 905 70 L 985 70 C 987.76 70 990 67.76 990 65 L 990 65 L 990 65 L 990 65 L 990 65 Z  M 1110 125 L 1110 135 C 1110 137.76 1112.24 140 1115 140 L 1195 140 C 1197.76 140 1200 137.76 1200 135 L 1200 125 C 1200 122.24 1197.76 120 1195 120 L 1115 120 C 1112.24 120 1110 122.24 1110 125 L 1110 125 L 1110 125 L 1110 125 Z  M 1110 65 L 1110 55 C 1110 52.24 1112.24 50 1115 50 L 1195 50 C 1197.76 50 1200 52.24 1200 55 L 1200 65 C 1200 67.76 1197.76 70 1195 70 L 1115 70 C 1112.24 70 1110 67.76 1110 65 L 1110 65 L 1110 65 L 1110 65 Z  M 135 50 L 145 50 C 147.76 50 150 52.24 150 55 L 150 165 C 150 178.798 161.202 190 175 190 L 175 190 C 188.798 190 200 178.798 200 165 L 200 35 C 200 15.683 184.317 0 165 0 L 45 0 C 25.683 0 10 15.683 10 35 L 10 165 C 10 178.798 21.202 190 35 190 L 35 190 C 48.798 190 60 178.798 60 165 L 60 55 C 60 52.24 62.24 50 65 50 L 75 50 C 77.76 50 80 52.24 80 55 L 80 165 C 80 178.798 91.202 190 105 190 L 105 190 C 118.798 190 130 178.798 130 165 L 130 55 C 130 52.24 132.24 50 135 50 L 135 50 Z  M 1270 155 L 1270 35 C 1270 15.683 1285.683 0 1305 0 L 1425 0 C 1444.317 0 1460 15.683 1460 35 L 1460 155 C 1460 174.317 1444.317 190 1425 190 L 1305 190 C 1285.683 190 1270 174.317 1270 155 L 1270 155 L 1270 155 L 1270 155 L 1270 155 L 1270 155 L 1270 155 L 1270 155 Z  M 360 125 L 360 165 C 360 178.798 371.202 190 385 190 L 385 190 C 398.798 190 410 178.798 410 165 L 410 35 C 410 15.683 394.317 0 375 0 L 255 0 C 235.683 0 220 15.683 220 35 L 220 165 C 220 178.798 231.202 190 245 190 L 245 190 C 258.798 190 270 178.798 270 165 L 270 125 C 270 122.24 272.24 120 275 120 L 355 120 C 357.76 120 360 122.24 360 125 L 360 125 L 360 125 L 360 125 L 360 125 L 360 125 Z  M 990 125 L 990 165 C 990 178.798 1001.202 190 1015 190 L 1015 190 C 1028.798 190 1040 178.798 1040 165 L 1040 35 C 1040 15.683 1024.317 0 1005 0 L 885 0 C 865.683 0 850 15.683 850 35 L 850 165 C 850 178.798 861.202 190 875 190 L 875 190 C 888.798 190 900 178.798 900 165 L 900 125 C 900 122.24 902.24 120 905 120 L 985 120 C 987.76 120 990 122.24 990 125 L 990 125 L 990 125 L 990 125 L 990 125 Z  M 1095 0 L 1215 0 C 1234.317 0 1250 15.683 1250 35 L 1250 155 C 1250 174.317 1234.317 190 1215 190 L 1095 190 C 1075.683 190 1060 174.317 1060 155 L 1060 35 C 1060 15.683 1075.683 0 1095 0 L 1095 0 L 1095 0 L 1095 0 Z  M 1578.536 133.896 L 1627.32 182.68 C 1632.01 187.36 1638.37 190 1645 190 C 1651.63 190 1657.99 187.36 1662.68 182.68 C 1667.36 177.99 1670 171.63 1670 165 C 1670 158.37 1667.36 152.01 1662.68 147.32 L 1613.896 98.536 C 1611.944 96.584 1611.944 93.416 1613.896 91.464 L 1662.68 42.68 C 1667.36 37.99 1670 31.63 1670 25 C 1670 18.37 1667.36 12.01 1662.68 7.32 C 1657.99 2.64 1651.63 0 1645 0 C 1638.37 0 1632.01 2.64 1627.32 7.32 L 1578.536 56.104 C 1576.584 58.056 1573.416 58.056 1571.464 56.104 L 1522.68 7.32 C 1517.99 2.64 1511.63 0 1505 0 C 1498.37 0 1492.01 2.64 1487.32 7.32 C 1482.64 12.01 1480 18.37 1480 25 C 1480 31.63 1482.64 37.99 1487.32 42.68 L 1536.104 91.464 C 1538.056 93.416 1538.056 96.584 1536.104 98.536 L 1487.32 147.32 C 1482.64 152.01 1480 158.37 1480 165 C 1480 171.63 1482.64 177.99 1487.32 182.68 C 1492.01 187.36 1498.37 190 1505 190 C 1511.63 190 1517.99 187.36 1522.68 182.68 L 1571.464 133.896 C 1573.416 131.944 1576.584 131.944 1578.536 133.896 Z " fill-rule="evenodd" fill="rgb(255,255,255)" fill-opacity="0.05"/></g></g></g></g></svg>