<?xml version="1.0" encoding="UTF-8" standalone="no"?><!-- Generator: Gravit.io --><svg xmlns="http://www.w3.org/2000/svg" xmlns:xlink="http://www.w3.org/1999/xlink" style="isolation:isolate" viewBox="0 0 970 970" width="970pt" height="970pt"><defs><clipPath id="_clipPath_ec4GiF72FqOIbhNumVoadQIR8hdCS6Vm"><rect width="970" height="970"/></clipPath></defs><g clip-path="url(#_clipPath_ec4GiF72FqOIbhNumVoadQIR8hdCS6Vm)"><clipPath id="_clipPath_njNAsGiatgSxBbiqLnlREj8nmxLd8ZDo"><rect x="-970" y="0" width="8000" height="3000" transform="matrix(1,0,0,1,0,0)" fill="rgb(255,255,255)"/></clipPath><g clip-path="url(#_clipPath_njNAsGiatgSxBbiqLnlREj8nmxLd8ZDo)"><g><rect x="0" y="0" width="970" height="970" transform="matrix(1,0,0,1,0,0)" fill="none"/><g><path d=" M 184.837 334.795 L 425.163 473.547 C 447.15 486.241 465 517.159 465 542.547 L 465 820.051 C 465 845.439 447.15 855.745 425.163 843.051 L 400.588 828.863 C 391.985 823.896 385 811.798 385 801.863 L 385 560.735 C 385 550.801 378.015 538.702 369.412 533.735 L 360.588 528.641 C 351.985 523.674 345 527.707 345 537.641 L 345 778.769 C 345 788.704 338.015 792.736 329.412 787.769 L 280.588 759.581 C 271.985 754.614 265 742.516 265 732.581 L 265 491.453 C 265 481.519 258.015 469.42 249.412 464.453 L 240.588 459.359 C 231.985 454.392 225 458.425 225 468.359 L 225 709.487 C 225 719.422 218.015 723.454 209.412 718.487 L 184.837 704.299 C 162.85 691.605 145 660.687 145 635.299 L 145 357.795 C 145 332.407 162.85 322.101 184.837 334.795 Z " fill="rgb(255,255,255)"/><path d=" M 585 709.487 L 585 699.299 C 585 689.365 591.985 677.266 600.588 672.299 L 729.412 597.923 C 738.015 592.956 745 596.989 745 606.923 L 745 617.111 C 745 627.046 738.015 639.144 729.412 644.111 L 600.588 718.487 C 591.985 723.454 585 719.422 585 709.487 L 585 709.487 Z  M 544.837 473.547 L 785.163 334.795 C 807.15 322.101 825 332.407 825 357.795 L 825 635.299 C 825 660.687 807.15 691.605 785.163 704.299 L 544.837 843.051 C 522.85 855.745 505 845.439 505 820.051 L 505 542.547 C 505 517.159 522.85 486.241 544.837 473.547 L 544.837 473.547 Z  M 585 570.923 L 585 560.735 C 585 550.801 591.985 538.702 600.588 533.735 L 729.412 459.359 C 738.015 454.392 745 458.425 745 468.359 L 745 478.547 C 745 488.481 738.015 500.58 729.412 505.547 L 600.588 579.923 C 591.985 584.89 585 580.858 585 570.923 Z " fill-rule="evenodd" fill="rgb(255,255,255)"/><path d=" M 204.837 300.154 L 445.163 438.906 C 467.15 451.6 502.85 451.6 524.837 438.906 L 765.163 300.154 C 787.15 287.46 787.15 266.848 765.163 254.154 L 524.837 115.402 C 502.85 102.708 467.15 102.708 445.163 115.402 L 204.837 254.154 C 182.85 266.848 182.85 287.46 204.837 300.154 Z " fill="rgb(255,255,255)"/><path d=" M 324.998 369.529 C 356.962 314.324 416.674 277.154 485 277.154 C 553.326 277.154 613.038 314.324 645.002 369.529 L 524.837 438.906 C 502.85 451.6 467.15 451.6 445.163 438.906 L 324.998 369.529 Z  M 692.174 212.014 L 633.623 276.111 C 626.923 283.446 627.805 294.41 635.59 300.581 C 635.689 300.659 648.474 313.633 648.555 313.738 C 654.609 321.614 666.333 323.686 674.72 318.361 L 674.72 318.361 L 674.72 318.361 L 674.72 318.361 L 674.72 318.361 L 770.386 257.624 C 768.81 256.415 767.069 255.255 765.163 254.154 L 692.174 212.014 Z  M 576.978 145.505 L 549.602 232.805 C 546.629 242.285 551.894 252.125 561.352 254.766 C 561.352 254.766 577.648 261.576 577.648 261.576 C 586.026 266.3 597.172 263.34 602.523 254.97 L 602.523 254.97 L 602.523 254.97 L 602.523 254.97 L 646.748 185.787 L 576.978 145.505 Z  M 277.826 212.014 L 336.377 276.111 C 343.077 283.446 342.195 294.41 334.41 300.581 C 334.311 300.659 321.526 313.633 321.445 313.738 C 315.391 321.614 303.667 323.686 295.28 318.361 L 295.28 318.361 L 295.28 318.361 L 199.614 257.624 C 201.19 256.415 202.931 255.255 204.837 254.154 L 277.826 212.014 Z  M 393.022 145.505 L 420.398 232.805 C 423.371 242.285 418.106 252.125 408.648 254.766 C 408.648 254.766 392.352 261.576 392.352 261.576 C 383.974 266.3 372.828 263.34 367.477 254.97 L 367.477 254.97 L 323.252 185.787 L 393.022 145.505 Z  M 527.857 117.145 L 513.408 225.591 C 512.096 235.438 503.906 242.329 495.13 240.97 C 495.13 240.97 477.505 240.782 476.787 240.885 C 466.953 242.291 457.904 235.438 456.591 225.591 L 442.143 117.145 L 445.163 115.402 C 467.15 102.708 502.85 102.708 524.837 115.402 L 527.857 117.145 Z " fill-rule="evenodd" fill="rgb(188,8,43)"/></g></g></g></g></svg>