<?xml version="1.0" encoding="UTF-8" standalone="no"?><!-- Generator: Gravit.io --><svg xmlns="http://www.w3.org/2000/svg" xmlns:xlink="http://www.w3.org/1999/xlink" style="isolation:isolate" viewBox="0 0 1680 190" width="1680pt" height="190pt"><defs><clipPath id="_clipPath_woNlxHQ956YB4zECMVRZkWNFylzveQm3"><rect width="1680" height="190"/></clipPath></defs><g clip-path="url(#_clipPath_woNlxHQ956YB4zECMVRZkWNFylzveQm3)"><g><path d=" M 560 165 L 560 55 C 560 52.24 557.76 50 555 50 L 475 50 C 472.24 50 470 52.24 470 55 L 470 165 C 470 178.798 458.798 190 445 190 L 445 190 C 431.202 190 420 178.798 420 165 L 420 35 C 420 15.683 435.683 0 455 0 L 575 0 C 594.317 0 610 15.683 610 35 L 610 165 C 610 178.798 598.798 190 585 190 L 585 190 C 571.202 190 560 178.798 560 165 L 560 165 L 560 165 L 560 165 L 560 165 L 560 165 L 560 165 Z  M 1310 135 L 1310 55 C 1310 52.24 1312.24 50 1315 50 L 1395 50 C 1397.76 50 1400 52.24 1400 55 L 1400 135 C 1400 137.76 1397.76 140 1395 140 L 1315 140 C 1312.24 140 1310 137.76 1310 135 L 1310 135 L 1310 135 L 1310 135 L 1310 135 L 1310 135 L 1310 135 L 1310 135 Z  M 700 95 L 700 95 C 700 81.202 711.202 70 725 70 L 795 70 C 808.798 70 820 81.202 820 95 L 820 155 C 820 174.317 804.317 190 785 190 L 665 190 C 645.683 190 630 174.317 630 155 L 630 35 C 630 15.683 645.683 0 665 0 L 795 0 C 808.798 0 820 11.202 820 25 L 820 25 C 820 38.798 808.798 50 795 50 L 685 50 C 682.24 50 680 52.24 680 55 L 680 135 C 680 137.76 682.24 140 685 140 L 765 140 C 767.76 140 770 137.76 770 135 L 770 125 C 770 122.24 767.76 120 765 120 L 725 120 C 711.202 120 700 108.798 700 95 L 700 95 L 700 95 L 700 95 L 700 95 L 700 95 Z  M 350 65 L 350 55 C 350 52.24 347.76 50 345 50 L 265 50 C 262.24 50 260 52.24 260 55 L 260 65 C 260 67.76 262.24 70 265 70 L 345 70 C 347.76 70 350 67.76 350 65 L 350 65 L 350 65 L 350 65 L 350 65 L 350 65 Z  M 980 65 L 980 55 C 980 52.24 977.76 50 975 50 L 895 50 C 892.24 50 890 52.24 890 55 L 890 65 C 890 67.76 892.24 70 895 70 L 975 70 C 977.76 70 980 67.76 980 65 L 980 65 L 980 65 L 980 65 L 980 65 Z  M 1100 125 L 1100 135 C 1100 137.76 1102.24 140 1105 140 L 1185 140 C 1187.76 140 1190 137.76 1190 135 L 1190 125 C 1190 122.24 1187.76 120 1185 120 L 1105 120 C 1102.24 120 1100 122.24 1100 125 L 1100 125 L 1100 125 L 1100 125 Z  M 1100 65 L 1100 55 C 1100 52.24 1102.24 50 1105 50 L 1185 50 C 1187.76 50 1190 52.24 1190 55 L 1190 65 C 1190 67.76 1187.76 70 1185 70 L 1105 70 C 1102.24 70 1100 67.76 1100 65 L 1100 65 L 1100 65 L 1100 65 Z  M 125 50 L 135 50 C 137.76 50 140 52.24 140 55 L 140 165 C 140 178.798 151.202 190 165 190 L 165 190 C 178.798 190 190 178.798 190 165 L 190 35 C 190 15.683 174.317 0 155 0 L 35 0 C 15.683 0 0 15.683 0 35 L 0 165 C 0 178.798 11.202 190 25 190 L 25 190 C 38.798 190 50 178.798 50 165 L 50 55 C 50 52.24 52.24 50 55 50 L 65 50 C 67.76 50 70 52.24 70 55 L 70 165 C 70 178.798 81.202 190 95 190 L 95 190 C 108.798 190 120 178.798 120 165 L 120 55 C 120 52.24 122.24 50 125 50 L 125 50 Z  M 1260 155 L 1260 35 C 1260 15.683 1275.683 0 1295 0 L 1415 0 C 1434.317 0 1450 15.683 1450 35 L 1450 155 C 1450 174.317 1434.317 190 1415 190 L 1295 190 C 1275.683 190 1260 174.317 1260 155 L 1260 155 L 1260 155 L 1260 155 L 1260 155 L 1260 155 L 1260 155 L 1260 155 Z  M 350 125 L 350 165 C 350 178.798 361.202 190 375 190 L 375 190 C 388.798 190 400 178.798 400 165 L 400 35 C 400 15.683 384.317 0 365 0 L 245 0 C 225.683 0 210 15.683 210 35 L 210 165 C 210 178.798 221.202 190 235 190 L 235 190 C 248.798 190 260 178.798 260 165 L 260 125 C 260 122.24 262.24 120 265 120 L 345 120 C 347.76 120 350 122.24 350 125 L 350 125 L 350 125 L 350 125 L 350 125 L 350 125 Z  M 980 125 L 980 165 C 980 178.798 991.202 190 1005 190 L 1005 190 C 1018.798 190 1030 178.798 1030 165 L 1030 35 C 1030 15.683 1014.317 0 995 0 L 875 0 C 855.683 0 840 15.683 840 35 L 840 165 C 840 178.798 851.202 190 865 190 L 865 190 C 878.798 190 890 178.798 890 165 L 890 125 C 890 122.24 892.24 120 895 120 L 975 120 C 977.76 120 980 122.24 980 125 L 980 125 L 980 125 L 980 125 L 980 125 Z  M 1085 0 L 1205 0 C 1224.317 0 1240 15.683 1240 35 L 1240 155 C 1240 174.317 1224.317 190 1205 190 L 1085 190 C 1065.683 190 1050 174.317 1050 155 L 1050 35 C 1050 15.683 1065.683 0 1085 0 L 1085 0 L 1085 0 L 1085 0 Z  M 1568.536 133.896 L 1617.32 182.68 C 1622.01 187.36 1628.37 190 1635 190 C 1641.63 190 1647.99 187.36 1652.68 182.68 C 1657.36 177.99 1660 171.63 1660 165 C 1660 158.37 1657.36 152.01 1652.68 147.32 L 1603.896 98.536 C 1601.944 96.584 1601.944 93.416 1603.896 91.464 L 1652.68 42.68 C 1657.36 37.99 1660 31.63 1660 25 C 1660 18.37 1657.36 12.01 1652.68 7.32 C 1647.99 2.64 1641.63 0 1635 0 C 1628.37 0 1622.01 2.64 1617.32 7.32 L 1568.536 56.104 C 1566.584 58.056 1563.416 58.056 1561.464 56.104 L 1512.68 7.32 C 1507.99 2.64 1501.63 0 1495 0 C 1488.37 0 1482.01 2.64 1477.32 7.32 C 1472.64 12.01 1470 18.37 1470 25 C 1470 31.63 1472.64 37.99 1477.32 42.68 L 1526.104 91.464 C 1528.056 93.416 1528.056 96.584 1526.104 98.536 L 1477.32 147.32 C 1472.64 152.01 1470 158.37 1470 165 C 1470 171.63 1472.64 177.99 1477.32 182.68 C 1482.01 187.36 1488.37 190 1495 190 C 1501.63 190 1507.99 187.36 1512.68 182.68 L 1561.464 133.896 C 1563.416 131.944 1566.584 131.944 1568.536 133.896 Z " fill-rule="evenodd" fill="rgb(0,0,0)"/></g></g></svg>