<?xml version="1.0" encoding="UTF-8" standalone="no"?>
<!-- Generator: Gravit.io -->
<svg xmlns="http://www.w3.org/2000/svg" xmlns:xlink="http://www.w3.org/1999/xlink" style="isolation:isolate" viewBox="0 0 100 100" width="100pt" height="100pt"><g style="isolation:isolate"><rect x="0" y="0" width="100" height="100" transform="matrix(1,0,0,1,0,0)" fill="rgb(0,122,61)"/><path d=" M 88.853 48.406 C 87.846 49.487 86.475 50.559 84.741 51.622 C 83.007 52.685 80.853 53.655 78.28 54.531 C 75.706 55.408 72.713 56.145 69.301 56.741 C 65.888 57.338 62 57.711 57.636 57.86 C 57.226 59.016 56.806 60.256 56.378 61.58 C 55.949 62.904 55.529 64.35 55.119 65.916 L 54.839 65.916 C 54.653 65.73 54.494 65.496 54.364 65.217 C 54.233 64.937 54.112 64.536 54 64.014 C 54.186 62.97 54.392 61.944 54.615 60.937 C 54.839 59.93 55.082 58.904 55.343 57.86 C 53.441 57.86 51.65 57.618 49.972 57.133 C 49.86 64.368 48.126 71.007 44.769 77.049 C 41.114 83.65 33.487 86.951 21.888 86.951 C 17.226 86.951 13.422 85.59 10.476 82.867 C 7.492 80.107 6 76.657 6 72.517 C 6 68.154 8.051 62.802 12.154 56.462 L 13.217 56.853 C 10.457 61.963 9.077 66.084 9.077 69.217 C 9.077 70.858 9.478 72.322 10.28 73.608 C 11.082 74.895 12.219 75.995 13.692 76.909 C 15.165 77.823 16.974 78.522 19.119 79.007 C 21.263 79.492 23.678 79.734 26.364 79.734 C 30.466 79.734 34.27 79.026 37.776 77.608 C 41.282 76.228 43.669 74.457 44.937 72.294 C 46.093 70.205 46.671 67.128 46.671 63.063 C 46.671 60.862 46.326 58.671 45.636 56.49 C 44.946 54.308 44.005 52.378 42.811 50.699 L 45.888 44.098 C 46.522 44.993 47.119 45.972 47.678 47.035 C 48.238 48.098 48.667 49.002 48.965 49.748 C 50.047 50.233 51.128 50.569 52.21 50.755 C 53.291 50.942 54.429 51.035 55.622 51.035 C 56.033 51.035 56.461 51.035 56.909 51.035 C 57.357 51.035 57.823 50.998 58.308 50.923 C 60.359 47.529 62.569 44.434 64.937 41.636 C 67.305 38.839 69.776 36.396 72.35 34.308 C 74.55 32.518 76.676 31.119 78.727 30.112 C 80.778 29.105 82.457 28.601 83.762 28.601 C 85.105 28.601 86.392 28.853 87.622 29.357 C 88.853 29.86 89.944 30.476 90.895 31.203 C 91.846 31.93 92.601 32.695 93.161 33.497 C 93.72 34.298 94 35.016 94 35.65 C 94 37.18 93.851 38.578 93.552 39.846 C 93.254 41.114 92.862 42.261 92.378 43.287 C 91.893 44.312 91.343 45.245 90.727 46.084 C 90.112 46.923 89.487 47.697 88.853 48.406 L 88.853 48.406 Z  M 81.748 36.042 C 80.704 36.042 79.389 36.378 77.804 37.049 C 76.219 37.72 74.503 38.681 72.657 39.93 C 70.811 41.18 68.918 42.727 66.979 44.573 C 65.04 46.42 63.193 48.517 61.441 50.867 C 62.075 50.867 62.681 50.848 63.259 50.811 C 63.837 50.774 64.517 50.718 65.301 50.643 C 67.986 50.457 70.625 50.056 73.217 49.441 C 75.809 48.825 78.597 47.939 81.58 46.783 C 83.93 45.888 85.832 44.946 87.287 43.958 C 88.741 42.97 89.674 42.14 90.084 41.469 C 89.636 40.835 89.095 40.191 88.462 39.538 C 87.827 38.886 87.137 38.298 86.392 37.776 C 85.646 37.254 84.872 36.835 84.07 36.517 C 83.268 36.2 82.494 36.042 81.748 36.042 L 81.748 36.042 Z  M 71.734 17.413 L 67.762 23.287 L 62.448 18.811 L 66.364 13.049 L 71.734 17.413 Z " fill="rgb(255,255,255)"/></g></svg>