<?xml version="1.0" encoding="UTF-8" standalone="no"?>
<!-- Generator: Gravit.io -->
<svg xmlns="http://www.w3.org/2000/svg" xmlns:xlink="http://www.w3.org/1999/xlink" style="isolation:isolate" viewBox="960 0 100 100" width="100pt" height="100pt"><g style="isolation:isolate"><rect x="960.288" y="0.288" width="99.424" height="100" transform="matrix(0,-1,1,0,959.712,1060.288)" fill="rgb(255,255,255)"/><rect x="960" y="0" width="71.429" height="71.429" transform="matrix(0,1,-1,0,1031.429,-960)" fill="rgb(13,94,175)"/><rect x="1027.857" y="10.714" width="14.286" height="50" transform="matrix(0,-1,1,0,999.286,1070.714)" fill="rgb(13,94,175)"/><rect x="1027.857" y="39.286" width="14.286" height="50" transform="matrix(0,-1,1,0,970.714,1099.286)" fill="rgb(13,94,175)"/><rect x="1002.857" y="42.857" width="14.286" height="100" transform="matrix(0,-1,1,0,917.143,1102.857)" fill="rgb(13,94,175)"/><rect x="1027.857" y="-17.857" width="14.286" height="50" transform="matrix(0,-1,1,0,1027.857,1042.143)" fill="rgb(13,94,175)"/><rect x="988.571" y="0" width="14.286" height="71.429" transform="matrix(0,1,-1,0,1031.429,-960)" fill="rgb(255,255,255)"/><rect x="988.571" y="0" width="14.286" height="71.429" transform="matrix(-1,0,0,-1,1991.429,71.429)" fill="rgb(255,255,255)"/></g></svg>