<?xml version="1.0" encoding="UTF-8" standalone="no"?>
<!-- Generator: Gravit.io -->
<svg xmlns="http://www.w3.org/2000/svg" xmlns:xlink="http://www.w3.org/1999/xlink" style="isolation:isolate" viewBox="0 0 100 100" width="100pt" height="100pt"><g style="isolation:isolate"><rect x="0.288" y="0.288" width="99.424" height="100" transform="matrix(0,-1,1,0,-0.288,100.288)" fill="rgb(255,255,255)"/><rect x="0" y="0" width="71.429" height="71.429" transform="matrix(0,1,-1,0,71.429,0)" fill="rgb(13,94,175)"/><rect x="67.857" y="10.714" width="14.286" height="50" transform="matrix(0,-1,1,0,39.286,110.714)" fill="rgb(13,94,175)"/><rect x="67.857" y="39.286" width="14.286" height="50" transform="matrix(0,-1,1,0,10.714,139.286)" fill="rgb(13,94,175)"/><rect x="42.857" y="42.857" width="14.286" height="100" transform="matrix(0,-1,1,0,-42.857,142.857)" fill="rgb(13,94,175)"/><rect x="67.857" y="-17.857" width="14.286" height="50" transform="matrix(0,-1,1,0,67.857,82.143)" fill="rgb(13,94,175)"/><rect x="28.571" y="0" width="14.286" height="71.429" transform="matrix(0,1,-1,0,71.429,0)" fill="rgb(255,255,255)"/><rect x="28.571" y="0" width="14.286" height="71.429" transform="matrix(-1,0,0,-1,71.429,71.429)" fill="rgb(255,255,255)"/></g></svg>