<?xml version="1.0" encoding="UTF-8" standalone="no"?>
<!-- Generator: Gravit.io -->
<svg xmlns="http://www.w3.org/2000/svg" xmlns:xlink="http://www.w3.org/1999/xlink" style="isolation:isolate" viewBox="360 0 100 100" width="100pt" height="100pt"><g style="isolation:isolate"><rect x="360.288" y="0.288" width="99.424" height="100" transform="matrix(0,-1,1,0,359.712,460.288)" fill="rgb(255,255,255)"/><rect x="360" y="0" width="71.429" height="71.429" transform="matrix(0,1,-1,0,431.429,-360)" fill="rgb(13,94,175)"/><rect x="427.857" y="10.714" width="14.286" height="50" transform="matrix(0,-1,1,0,399.286,470.714)" fill="rgb(13,94,175)"/><rect x="427.857" y="39.286" width="14.286" height="50" transform="matrix(0,-1,1,0,370.714,499.286)" fill="rgb(13,94,175)"/><rect x="402.857" y="42.857" width="14.286" height="100" transform="matrix(0,-1,1,0,317.143,502.857)" fill="rgb(13,94,175)"/><rect x="427.857" y="-17.857" width="14.286" height="50" transform="matrix(0,-1,1,0,427.857,442.143)" fill="rgb(13,94,175)"/><rect x="388.571" y="0" width="14.286" height="71.429" transform="matrix(0,1,-1,0,431.429,-360)" fill="rgb(255,255,255)"/><rect x="388.571" y="0" width="14.286" height="71.429" transform="matrix(-1,0,0,-1,791.429,71.429)" fill="rgb(255,255,255)"/></g></svg>