<?xml version="1.0" encoding="UTF-8" standalone="no"?>
<!-- Generator: Gravit.io -->
<svg xmlns="http://www.w3.org/2000/svg" xmlns:xlink="http://www.w3.org/1999/xlink" style="isolation:isolate" viewBox="1080 0 100 100" width="100pt" height="100pt"><g style="isolation:isolate"><rect x="1080" y="0" width="100" height="100" transform="matrix(0,1,-1,0,1180,-1080)" fill="rgb(1,33,105)"/><path d=" M 1180 84.444 L 1180 100 L 1164.444 100 L 1080 15.556 L 1080 0 L 1095.556 0 L 1180 84.444 Z " fill="rgb(255,255,255)"/><path d=" M 1095.556 100 L 1080 100 L 1080 84.444 L 1164.444 0 L 1180 0 L 1180 15.556 L 1095.556 100 Z " fill="rgb(255,255,255)"/><path d=" M 1080 0 L 1129 49 L 1122.843 55.157 L 1080 12.314 L 1080 0 L 1080 0 Z " fill="rgb(200,16,46)"/><path d=" M 1180 100 L 1131 51 L 1137.157 44.843 L 1180 87.686 L 1180 100 L 1180 100 Z " fill="rgb(200,16,46)"/><path d=" M 1080 100 L 1129 51 L 1135.157 57.157 L 1092.314 100 L 1080 100 L 1080 100 Z " fill="rgb(200,16,46)"/><path d=" M 1180 0 L 1131 49 L 1124.843 42.843 L 1167.686 0 L 1180 0 L 1180 0 Z " fill="rgb(200,16,46)"/><rect x="1080" y="35" width="100" height="30" transform="matrix(0,1,-1,0,1180,-1080)" fill="rgb(255,255,255)"/><rect x="1080" y="35" width="100" height="30" transform="matrix(-1,0,0,-1,2260,100)" fill="rgb(255,255,255)"/><rect x="1080" y="40" width="100" height="20" transform="matrix(0,1,-1,0,1180,-1080)" fill="rgb(200,16,46)"/><rect x="1080" y="40" width="100" height="20" transform="matrix(-1,0,0,-1,2260,100)" fill="rgb(200,16,46)"/></g></svg>