<?xml version="1.0" encoding="UTF-8" standalone="no"?>
<!-- Generator: Gravit.io -->
<svg xmlns="http://www.w3.org/2000/svg" xmlns:xlink="http://www.w3.org/1999/xlink" style="isolation:isolate" viewBox="0 840 100 100" width="100pt" height="100pt"><g style="isolation:isolate"><rect x="0" y="840" width="100" height="100" transform="matrix(0,1,-1,0,940,840)" fill="rgb(255,255,255)"/><g><rect x="0" y="840" width="76.923" height="53.846" transform="matrix(1,0,0,1,0,0)" fill="rgb(10,49,97)"/><g><path d=" M 6.043 842.332 L 6.716 844.35 L 8.843 844.366 C 9.118 844.369 9.232 844.72 9.011 844.883 L 7.3 846.147 L 7.942 848.174 C 8.025 848.437 7.726 848.654 7.502 848.494 L 5.771 847.257 L 4.041 848.494 C 3.817 848.655 3.519 848.437 3.601 848.175 L 4.243 846.147 L 2.532 844.884 C 2.311 844.72 2.425 844.369 2.7 844.367 L 4.827 844.35 L 5.5 842.333 C 5.587 842.071 5.956 842.071 6.043 842.332 Z " fill="rgb(255,255,255)"/><path d=" M 6.043 852.887 L 6.716 854.905 L 8.843 854.921 C 9.118 854.923 9.232 855.274 9.011 855.438 L 7.3 856.702 L 7.942 858.73 C 8.025 858.992 7.726 859.21 7.502 859.049 L 5.771 857.813 L 4.041 859.05 C 3.817 859.21 3.519 858.992 3.601 858.73 L 4.243 856.702 L 2.532 855.439 C 2.311 855.275 2.425 854.924 2.7 854.921 L 4.827 854.905 L 5.5 852.888 C 5.587 852.626 5.956 852.626 6.043 852.887 Z " fill="rgb(255,255,255)"/><path d=" M 6.043 863.442 L 6.716 865.46 L 8.843 865.476 C 9.118 865.479 9.232 865.83 9.011 865.994 L 7.3 867.257 L 7.942 869.285 C 8.025 869.547 7.726 869.765 7.502 869.604 L 5.771 868.368 L 4.041 869.605 C 3.817 869.765 3.519 869.548 3.601 869.285 L 4.243 867.258 L 2.532 865.994 C 2.311 865.83 2.425 865.479 2.7 865.477 L 4.827 865.46 L 5.5 863.443 C 5.587 863.181 5.956 863.181 6.043 863.442 Z " fill="rgb(255,255,255)"/><path d=" M 6.043 873.997 L 6.716 876.015 L 8.843 876.031 C 9.118 876.034 9.232 876.385 9.011 876.548 L 7.3 877.812 L 7.942 879.84 C 8.025 880.102 7.726 880.32 7.502 880.159 L 5.771 878.923 L 4.041 880.16 C 3.817 880.32 3.519 880.103 3.601 879.84 L 4.243 877.812 L 2.532 876.549 C 2.311 876.386 2.425 876.034 2.7 876.032 L 4.827 876.015 L 5.5 873.998 C 5.587 873.736 5.956 873.736 6.043 873.997 Z " fill="rgb(255,255,255)"/><path d=" M 6.043 884.552 L 6.716 886.57 L 8.843 886.586 C 9.118 886.589 9.232 886.939 9.011 887.103 L 7.3 888.367 L 7.942 890.395 C 8.025 890.657 7.726 890.875 7.502 890.714 L 5.771 889.478 L 4.041 890.715 C 3.817 890.875 3.519 890.657 3.601 890.395 L 4.243 888.367 L 2.532 887.104 C 2.311 886.94 2.425 886.589 2.7 886.586 L 4.827 886.57 L 5.5 884.553 C 5.587 884.291 5.956 884.291 6.043 884.552 Z " fill="rgb(255,255,255)"/><path d=" M 14.236 847.507 L 14.908 849.525 L 17.035 849.541 C 17.311 849.543 17.425 849.895 17.203 850.058 L 15.492 851.322 L 16.134 853.35 C 16.218 853.612 15.918 853.83 15.694 853.669 L 13.964 852.432 L 12.234 853.669 C 12.01 853.829 11.711 853.612 11.794 853.35 L 12.435 851.322 L 10.725 850.058 C 10.503 849.894 10.617 849.543 10.893 849.541 L 13.019 849.525 L 13.692 847.507 C 13.779 847.246 14.148 847.246 14.236 847.507 Z " fill="rgb(255,255,255)"/><path d=" M 14.236 858.062 L 14.908 860.08 L 17.035 860.096 C 17.311 860.099 17.425 860.45 17.203 860.613 L 15.492 861.877 L 16.134 863.905 C 16.218 864.167 15.918 864.385 15.694 864.224 L 13.964 862.988 L 12.234 864.224 C 12.01 864.384 11.711 864.168 11.794 863.905 L 12.435 861.877 L 10.725 860.613 C 10.503 860.45 10.617 860.099 10.893 860.096 L 13.019 860.08 L 13.692 858.062 C 13.779 857.801 14.148 857.801 14.236 858.062 Z " fill="rgb(255,255,255)"/><path d=" M 14.236 868.617 L 14.908 870.635 L 17.035 870.651 C 17.311 870.654 17.425 871.004 17.203 871.168 L 15.492 872.432 L 16.134 874.46 C 16.218 874.722 15.918 874.94 15.694 874.779 L 13.964 873.542 L 12.234 874.779 C 12.01 874.939 11.711 874.722 11.794 874.46 L 12.435 872.432 L 10.725 871.168 C 10.503 871.004 10.617 870.654 10.893 870.651 L 13.019 870.635 L 13.692 868.617 C 13.779 868.356 14.148 868.356 14.236 868.617 Z " fill="rgb(255,255,255)"/><path d=" M 14.236 879.172 L 14.908 881.19 L 17.035 881.206 C 17.311 881.208 17.425 881.559 17.203 881.723 L 15.492 882.987 L 16.134 885.015 C 16.218 885.277 15.918 885.495 15.694 885.334 L 13.964 884.097 L 12.234 885.334 C 12.01 885.495 11.711 885.277 11.794 885.015 L 12.435 882.987 L 10.725 881.723 C 10.503 881.559 10.617 881.208 10.893 881.206 L 13.019 881.19 L 13.692 879.172 C 13.779 878.911 14.148 878.911 14.236 879.172 Z " fill="rgb(255,255,255)"/><path d=" M 22.428 842.332 L 23.101 844.35 L 25.228 844.366 C 25.503 844.369 25.617 844.72 25.396 844.883 L 23.685 846.147 L 24.327 848.174 C 24.41 848.437 24.111 848.654 23.887 848.494 L 22.156 847.257 L 20.426 848.494 C 20.202 848.654 19.903 848.437 19.986 848.174 L 20.628 846.147 L 18.917 844.883 C 18.696 844.719 18.81 844.368 19.085 844.366 L 21.212 844.35 L 21.885 842.332 C 21.972 842.071 22.341 842.071 22.428 842.332 Z " fill="rgb(255,255,255)"/><path d=" M 22.428 852.887 L 23.101 854.905 L 25.228 854.921 C 25.503 854.923 25.617 855.274 25.396 855.438 L 23.685 856.702 L 24.327 858.73 C 24.41 858.992 24.111 859.21 23.887 859.049 L 22.156 857.812 L 20.426 859.049 C 20.202 859.209 19.903 858.992 19.986 858.73 L 20.628 856.702 L 18.917 855.438 C 18.696 855.274 18.81 854.923 19.085 854.921 L 21.212 854.905 L 21.885 852.887 C 21.972 852.626 22.341 852.626 22.428 852.887 Z " fill="rgb(255,255,255)"/><path d=" M 22.428 863.442 L 23.101 865.46 L 25.228 865.476 C 25.503 865.479 25.617 865.83 25.396 865.994 L 23.685 867.257 L 24.327 869.285 C 24.41 869.547 24.111 869.765 23.887 869.604 L 22.156 868.368 L 20.426 869.604 C 20.202 869.765 19.903 869.548 19.986 869.285 L 20.628 867.257 L 18.917 865.994 C 18.696 865.83 18.81 865.479 19.085 865.476 L 21.212 865.46 L 21.885 863.442 C 21.972 863.181 22.341 863.181 22.428 863.442 Z " fill="rgb(255,255,255)"/><path d=" M 22.428 873.997 L 23.101 876.015 L 25.228 876.031 C 25.503 876.034 25.617 876.385 25.396 876.548 L 23.685 877.812 L 24.327 879.84 C 24.41 880.102 24.111 880.32 23.887 880.159 L 22.156 878.923 L 20.426 880.159 C 20.202 880.319 19.903 880.102 19.986 879.84 L 20.628 877.812 L 18.917 876.548 C 18.696 876.385 18.81 876.034 19.085 876.031 L 21.212 876.015 L 21.885 873.997 C 21.972 873.736 22.341 873.736 22.428 873.997 Z " fill="rgb(255,255,255)"/><path d=" M 22.428 884.552 L 23.101 886.57 L 25.228 886.586 C 25.503 886.589 25.617 886.939 25.396 887.103 L 23.685 888.367 L 24.327 890.395 C 24.41 890.657 24.111 890.875 23.887 890.714 L 22.156 889.477 L 20.426 890.714 C 20.202 890.874 19.903 890.657 19.986 890.395 L 20.628 888.367 L 18.917 887.103 C 18.696 886.939 18.81 886.589 19.085 886.586 L 21.212 886.57 L 21.885 884.552 C 21.972 884.291 22.341 884.291 22.428 884.552 Z " fill="rgb(255,255,255)"/><path d=" M 30.621 847.507 L 31.294 849.525 L 33.421 849.541 C 33.696 849.543 33.81 849.895 33.589 850.058 L 31.878 851.322 L 32.52 853.35 C 32.603 853.612 32.304 853.83 32.079 853.669 L 30.349 852.432 L 28.619 853.669 C 28.395 853.829 28.096 853.612 28.179 853.35 L 28.821 851.322 L 27.11 850.058 C 26.888 849.894 27.002 849.543 27.278 849.541 L 29.405 849.525 L 30.078 847.507 C 30.164 847.246 30.534 847.246 30.621 847.507 Z " fill="rgb(255,255,255)"/><path d=" M 30.621 858.062 L 31.294 860.08 L 33.421 860.096 C 33.696 860.099 33.81 860.45 33.589 860.613 L 31.878 861.877 L 32.52 863.905 C 32.603 864.167 32.304 864.385 32.079 864.224 L 30.349 862.988 L 28.619 864.224 C 28.395 864.384 28.096 864.168 28.179 863.905 L 28.821 861.877 L 27.11 860.613 C 26.888 860.45 27.002 860.099 27.278 860.096 L 29.405 860.08 L 30.078 858.062 C 30.164 857.801 30.534 857.801 30.621 858.062 Z " fill="rgb(255,255,255)"/><path d=" M 30.621 868.617 L 31.294 870.635 L 33.421 870.651 C 33.696 870.654 33.81 871.004 33.589 871.168 L 31.878 872.432 L 32.52 874.46 C 32.603 874.722 32.304 874.94 32.079 874.779 L 30.349 873.542 L 28.619 874.779 C 28.395 874.939 28.096 874.722 28.179 874.46 L 28.821 872.432 L 27.11 871.168 C 26.888 871.004 27.002 870.654 27.278 870.651 L 29.405 870.635 L 30.078 868.617 C 30.164 868.356 30.534 868.356 30.621 868.617 Z " fill="rgb(255,255,255)"/><path d=" M 30.621 879.172 L 31.294 881.19 L 33.421 881.206 C 33.696 881.208 33.81 881.559 33.589 881.723 L 31.878 882.987 L 32.52 885.015 C 32.603 885.277 32.304 885.495 32.079 885.334 L 30.349 884.097 L 28.619 885.334 C 28.395 885.495 28.096 885.277 28.179 885.015 L 28.821 882.987 L 27.11 881.723 C 26.888 881.559 27.002 881.208 27.278 881.206 L 29.405 881.19 L 30.078 879.172 C 30.164 878.911 30.534 878.911 30.621 879.172 Z " fill="rgb(255,255,255)"/><path d=" M 38.813 842.332 L 39.486 844.35 L 41.613 844.366 C 41.889 844.369 42.003 844.72 41.781 844.883 L 40.07 846.147 L 40.712 848.174 C 40.795 848.437 40.496 848.654 40.272 848.494 L 38.541 847.257 L 36.811 848.494 C 36.587 848.655 36.288 848.437 36.371 848.175 L 37.013 846.147 L 35.302 844.884 C 35.081 844.72 35.195 844.369 35.47 844.367 L 37.597 844.35 L 38.27 842.333 C 38.357 842.071 38.726 842.071 38.813 842.332 Z " fill="rgb(255,255,255)"/><path d=" M 38.813 852.887 L 39.486 854.905 L 41.613 854.921 C 41.889 854.923 42.003 855.274 41.781 855.438 L 40.07 856.702 L 40.712 858.73 C 40.795 858.992 40.496 859.21 40.272 859.049 L 38.541 857.812 L 36.811 859.049 C 36.587 859.209 36.288 858.992 36.371 858.73 L 37.013 856.702 L 35.302 855.438 C 35.081 855.274 35.195 854.923 35.47 854.921 L 37.597 854.905 L 38.27 852.887 C 38.357 852.626 38.726 852.626 38.813 852.887 Z " fill="rgb(255,255,255)"/><path d=" M 38.813 863.442 L 39.486 865.46 L 41.613 865.476 C 41.889 865.479 42.003 865.83 41.781 865.994 L 40.07 867.257 L 40.712 869.285 C 40.795 869.547 40.496 869.765 40.272 869.604 L 38.541 868.367 L 36.811 869.604 C 36.587 869.764 36.288 869.547 36.371 869.285 L 37.013 867.257 L 35.302 865.993 C 35.081 865.829 35.195 865.478 35.47 865.476 L 37.597 865.46 L 38.27 863.442 C 38.357 863.181 38.726 863.181 38.813 863.442 Z " fill="rgb(255,255,255)"/><path d=" M 38.813 873.997 L 39.486 876.015 L 41.613 876.031 C 41.889 876.034 42.003 876.385 41.781 876.548 L 40.07 877.812 L 40.712 879.84 C 40.795 880.102 40.496 880.32 40.272 880.159 L 38.541 878.923 L 36.811 880.159 C 36.587 880.319 36.288 880.102 36.371 879.84 L 37.013 877.812 L 35.302 876.548 C 35.081 876.385 35.195 876.034 35.47 876.031 L 37.597 876.015 L 38.27 873.997 C 38.357 873.736 38.726 873.736 38.813 873.997 Z " fill="rgb(255,255,255)"/><path d=" M 38.813 884.552 L 39.486 886.57 L 41.613 886.586 C 41.889 886.589 42.003 886.939 41.781 887.103 L 40.07 888.367 L 40.712 890.395 C 40.795 890.657 40.496 890.875 40.272 890.714 L 38.541 889.477 L 36.811 890.714 C 36.587 890.874 36.288 890.657 36.371 890.395 L 37.013 888.367 L 35.302 887.103 C 35.081 886.939 35.195 886.589 35.47 886.586 L 37.597 886.57 L 38.27 884.552 C 38.357 884.291 38.726 884.291 38.813 884.552 Z " fill="rgb(255,255,255)"/><path d=" M 47.006 847.507 L 47.679 849.525 L 49.806 849.541 C 50.081 849.543 50.195 849.895 49.974 850.058 L 48.263 851.322 L 48.904 853.35 C 48.988 853.612 48.689 853.83 48.464 853.669 L 46.734 852.432 L 45.004 853.669 C 44.78 853.829 44.481 853.612 44.564 853.35 L 45.206 851.322 L 43.495 850.058 C 43.273 849.894 43.387 849.543 43.663 849.541 L 45.79 849.525 L 46.463 847.507 C 46.55 847.246 46.919 847.246 47.006 847.507 Z " fill="rgb(255,255,255)"/><path d=" M 47.006 858.062 L 47.679 860.08 L 49.806 860.096 C 50.081 860.099 50.195 860.45 49.974 860.613 L 48.263 861.877 L 48.904 863.905 C 48.988 864.167 48.689 864.385 48.464 864.224 L 46.734 862.988 L 45.004 864.224 C 44.78 864.384 44.481 864.168 44.564 863.905 L 45.206 861.877 L 43.495 860.613 C 43.273 860.45 43.387 860.099 43.663 860.096 L 45.79 860.08 L 46.463 858.062 C 46.55 857.801 46.919 857.801 47.006 858.062 Z " fill="rgb(255,255,255)"/><path d=" M 47.006 868.617 L 47.679 870.635 L 49.806 870.651 C 50.081 870.654 50.195 871.004 49.974 871.168 L 48.263 872.432 L 48.904 874.46 C 48.988 874.722 48.689 874.94 48.464 874.779 L 46.734 873.542 L 45.004 874.779 C 44.78 874.939 44.481 874.722 44.564 874.46 L 45.206 872.432 L 43.495 871.168 C 43.273 871.004 43.387 870.654 43.663 870.651 L 45.79 870.635 L 46.463 868.617 C 46.55 868.356 46.919 868.356 47.006 868.617 Z " fill="rgb(255,255,255)"/><path d=" M 47.006 879.172 L 47.679 881.19 L 49.806 881.206 C 50.081 881.208 50.195 881.559 49.974 881.723 L 48.263 882.987 L 48.904 885.015 C 48.988 885.277 48.689 885.495 48.464 885.334 L 46.734 884.097 L 45.004 885.334 C 44.78 885.495 44.481 885.277 44.564 885.015 L 45.206 882.987 L 43.495 881.723 C 43.273 881.559 43.387 881.208 43.663 881.206 L 45.79 881.19 L 46.463 879.172 C 46.55 878.911 46.919 878.911 47.006 879.172 Z " fill="rgb(255,255,255)"/><path d=" M 55.199 842.332 L 55.872 844.35 L 57.998 844.366 C 58.274 844.369 58.388 844.72 58.166 844.883 L 56.456 846.147 L 57.097 848.174 C 57.181 848.437 56.881 848.654 56.657 848.494 L 54.927 847.257 L 53.197 848.494 C 52.973 848.654 52.674 848.437 52.757 848.174 L 53.399 846.147 L 51.688 844.883 C 51.466 844.719 51.58 844.368 51.856 844.366 L 53.983 844.35 L 54.655 842.332 C 54.742 842.071 55.112 842.071 55.199 842.332 Z " fill="rgb(255,255,255)"/><path d=" M 55.199 852.887 L 55.872 854.905 L 57.998 854.921 C 58.274 854.923 58.388 855.274 58.166 855.438 L 56.456 856.702 L 57.097 858.73 C 57.181 858.992 56.881 859.21 56.657 859.049 L 54.927 857.812 L 53.197 859.049 C 52.973 859.209 52.674 858.992 52.757 858.73 L 53.399 856.702 L 51.688 855.438 C 51.466 855.274 51.58 854.923 51.856 854.921 L 53.983 854.905 L 54.655 852.887 C 54.742 852.626 55.112 852.626 55.199 852.887 Z " fill="rgb(255,255,255)"/><path d=" M 55.199 863.442 L 55.872 865.46 L 57.998 865.476 C 58.274 865.479 58.388 865.83 58.166 865.994 L 56.456 867.257 L 57.097 869.285 C 57.181 869.547 56.881 869.765 56.657 869.604 L 54.927 868.368 L 53.197 869.604 C 52.973 869.765 52.674 869.548 52.757 869.285 L 53.399 867.257 L 51.688 865.994 C 51.466 865.83 51.58 865.479 51.856 865.476 L 53.983 865.46 L 54.655 863.442 C 54.742 863.181 55.112 863.181 55.199 863.442 Z " fill="rgb(255,255,255)"/><path d=" M 55.199 873.997 L 55.872 876.015 L 57.998 876.031 C 58.274 876.034 58.388 876.385 58.166 876.548 L 56.456 877.812 L 57.097 879.84 C 57.181 880.102 56.881 880.32 56.657 880.159 L 54.927 878.923 L 53.197 880.159 C 52.973 880.319 52.674 880.102 52.757 879.84 L 53.399 877.812 L 51.688 876.548 C 51.466 876.385 51.58 876.034 51.856 876.031 L 53.983 876.015 L 54.655 873.997 C 54.742 873.736 55.112 873.736 55.199 873.997 Z " fill="rgb(255,255,255)"/><path d=" M 55.199 884.552 L 55.872 886.57 L 57.998 886.586 C 58.274 886.589 58.388 886.939 58.166 887.103 L 56.456 888.367 L 57.097 890.395 C 57.181 890.657 56.881 890.875 56.657 890.714 L 54.927 889.477 L 53.197 890.714 C 52.973 890.874 52.674 890.657 52.757 890.395 L 53.399 888.367 L 51.688 887.103 C 51.466 886.939 51.58 886.589 51.856 886.586 L 53.983 886.57 L 54.655 884.552 C 54.742 884.291 55.112 884.291 55.199 884.552 Z " fill="rgb(255,255,255)"/><path d=" M 63.391 847.507 L 64.064 849.525 L 66.191 849.541 C 66.466 849.543 66.58 849.895 66.359 850.058 L 64.648 851.322 L 65.29 853.35 C 65.373 853.612 65.074 853.83 64.85 853.669 L 63.12 852.432 L 61.389 853.669 C 61.165 853.829 60.867 853.612 60.949 853.35 L 61.591 851.322 L 59.88 850.058 C 59.659 849.894 59.773 849.543 60.048 849.541 L 62.175 849.525 L 62.848 847.507 C 62.935 847.246 63.304 847.246 63.391 847.507 Z " fill="rgb(255,255,255)"/><path d=" M 63.391 858.062 L 64.064 860.08 L 66.191 860.096 C 66.466 860.099 66.58 860.45 66.359 860.613 L 64.648 861.877 L 65.29 863.905 C 65.373 864.167 65.074 864.385 64.85 864.224 L 63.12 862.988 L 61.389 864.224 C 61.165 864.384 60.867 864.168 60.949 863.905 L 61.591 861.877 L 59.88 860.613 C 59.659 860.45 59.773 860.099 60.048 860.096 L 62.175 860.08 L 62.848 858.062 C 62.935 857.801 63.304 857.801 63.391 858.062 Z " fill="rgb(255,255,255)"/><path d=" M 63.391 868.617 L 64.064 870.635 L 66.191 870.651 C 66.466 870.654 66.58 871.004 66.359 871.168 L 64.648 872.432 L 65.29 874.46 C 65.373 874.722 65.074 874.94 64.85 874.779 L 63.12 873.542 L 61.389 874.779 C 61.165 874.939 60.867 874.722 60.949 874.46 L 61.591 872.432 L 59.88 871.168 C 59.659 871.004 59.773 870.654 60.048 870.651 L 62.175 870.635 L 62.848 868.617 C 62.935 868.356 63.304 868.356 63.391 868.617 Z " fill="rgb(255,255,255)"/><path d=" M 63.391 879.172 L 64.064 881.19 L 66.191 881.206 C 66.466 881.208 66.58 881.559 66.359 881.723 L 64.648 882.987 L 65.29 885.015 C 65.373 885.277 65.074 885.495 64.85 885.334 L 63.12 884.097 L 61.389 885.334 C 61.165 885.495 60.867 885.277 60.949 885.015 L 61.591 882.987 L 59.88 881.723 C 59.659 881.559 59.773 881.208 60.048 881.206 L 62.175 881.19 L 62.848 879.172 C 62.935 878.911 63.304 878.911 63.391 879.172 Z " fill="rgb(255,255,255)"/><path d=" M 71.584 842.332 L 72.257 844.35 L 74.384 844.366 C 74.659 844.369 74.773 844.72 74.552 844.883 L 72.841 846.147 L 73.483 848.174 C 73.566 848.437 73.267 848.654 73.043 848.494 L 71.312 847.257 L 69.582 848.494 C 69.358 848.654 69.059 848.437 69.142 848.174 L 69.784 846.147 L 68.073 844.883 C 67.852 844.719 67.966 844.368 68.241 844.366 L 70.368 844.35 L 71.041 842.332 C 71.127 842.071 71.497 842.071 71.584 842.332 Z " fill="rgb(255,255,255)"/><path d=" M 71.584 852.887 L 72.257 854.905 L 74.384 854.921 C 74.659 854.923 74.773 855.274 74.552 855.438 L 72.841 856.702 L 73.483 858.73 C 73.566 858.992 73.267 859.21 73.043 859.049 L 71.312 857.812 L 69.582 859.049 C 69.358 859.209 69.059 858.992 69.142 858.73 L 69.784 856.702 L 68.073 855.438 C 67.852 855.274 67.966 854.923 68.241 854.921 L 70.368 854.905 L 71.041 852.887 C 71.127 852.626 71.497 852.626 71.584 852.887 Z " fill="rgb(255,255,255)"/><path d=" M 71.584 863.442 L 72.257 865.46 L 74.384 865.476 C 74.659 865.479 74.773 865.83 74.552 865.994 L 72.841 867.257 L 73.483 869.285 C 73.566 869.547 73.267 869.765 73.043 869.604 L 71.312 868.368 L 69.582 869.604 C 69.358 869.765 69.059 869.548 69.142 869.285 L 69.784 867.257 L 68.073 865.994 C 67.852 865.83 67.966 865.479 68.241 865.476 L 70.368 865.46 L 71.041 863.442 C 71.127 863.181 71.497 863.181 71.584 863.442 Z " fill="rgb(255,255,255)"/><path d=" M 71.584 873.997 L 72.257 876.015 L 74.384 876.031 C 74.659 876.034 74.773 876.385 74.552 876.548 L 72.841 877.812 L 73.483 879.84 C 73.566 880.102 73.267 880.32 73.043 880.159 L 71.312 878.923 L 69.582 880.159 C 69.358 880.319 69.059 880.102 69.142 879.84 L 69.784 877.812 L 68.073 876.548 C 67.852 876.385 67.966 876.034 68.241 876.031 L 70.368 876.015 L 71.041 873.997 C 71.127 873.736 71.497 873.736 71.584 873.997 Z " fill="rgb(255,255,255)"/><path d=" M 71.584 884.552 L 72.257 886.57 L 74.384 886.586 C 74.659 886.589 74.773 886.939 74.552 887.103 L 72.841 888.367 L 73.483 890.395 C 73.566 890.657 73.267 890.875 73.043 890.714 L 71.312 889.477 L 69.582 890.714 C 69.358 890.874 69.059 890.657 69.142 890.395 L 69.784 888.367 L 68.073 887.103 C 67.852 886.939 67.966 886.589 68.241 886.586 L 70.368 886.57 L 71.041 884.552 C 71.127 884.291 71.497 884.291 71.584 884.552 Z " fill="rgb(255,255,255)"/></g><rect x="76.923" y="840" width="23.077" height="7.692" transform="matrix(1,0,0,1,0,0)" fill="rgb(179,25,66)"/><rect x="76.923" y="855.385" width="23.077" height="7.692" transform="matrix(1,0,0,1,0,0)" fill="rgb(179,25,66)"/><rect x="76.923" y="870.769" width="23.077" height="7.692" transform="matrix(1,0,0,1,0,0)" fill="rgb(179,25,66)"/><rect x="76.923" y="886.154" width="23.077" height="7.692" transform="matrix(1,0,0,1,0,0)" fill="rgb(179,25,66)"/><rect x="0" y="901.538" width="100" height="7.692" transform="matrix(1,0,0,1,0,0)" fill="rgb(179,25,66)"/><rect x="0" y="916.923" width="100" height="7.692" transform="matrix(1,0,0,1,0,0)" fill="rgb(179,25,66)"/><rect x="0" y="932.308" width="100" height="7.692" transform="matrix(1,0,0,1,0,0)" fill="rgb(179,25,66)"/></g></g></svg>