<?xml version="1.0" encoding="UTF-8" standalone="no"?>
<!-- Generator: Gravit.io -->
<svg xmlns="http://www.w3.org/2000/svg" xmlns:xlink="http://www.w3.org/1999/xlink" style="isolation:isolate" viewBox="480 0 100 100" width="100pt" height="100pt"><g style="isolation:isolate"><rect x="480" y="0" width="100" height="100" transform="matrix(0,1,-1,0,580,-480)" fill="rgb(1,33,105)"/><path d=" M 580 84.444 L 580 100 L 564.444 100 L 480 15.556 L 480 0 L 495.556 0 L 580 84.444 Z " fill="rgb(255,255,255)"/><path d=" M 495.556 100 L 480 100 L 480 84.444 L 564.444 0 L 580 0 L 580 15.556 L 495.556 100 Z " fill="rgb(255,255,255)"/><path d=" M 480 0 L 529 49 L 522.843 55.157 L 480 12.314 L 480 0 L 480 0 Z " fill="rgb(200,16,46)"/><path d=" M 580 100 L 531 51 L 537.157 44.843 L 580 87.686 L 580 100 L 580 100 Z " fill="rgb(200,16,46)"/><path d=" M 480 100 L 529 51 L 535.157 57.157 L 492.314 100 L 480 100 L 480 100 Z " fill="rgb(200,16,46)"/><path d=" M 580 0 L 531 49 L 524.843 42.843 L 567.686 0 L 580 0 L 580 0 Z " fill="rgb(200,16,46)"/><rect x="480" y="35" width="100" height="30" transform="matrix(0,1,-1,0,580,-480)" fill="rgb(255,255,255)"/><rect x="480" y="35" width="100" height="30" transform="matrix(-1,0,0,-1,1060,100)" fill="rgb(255,255,255)"/><rect x="480" y="40" width="100" height="20" transform="matrix(0,1,-1,0,580,-480)" fill="rgb(200,16,46)"/><rect x="480" y="40" width="100" height="20" transform="matrix(-1,0,0,-1,1060,100)" fill="rgb(200,16,46)"/></g></svg>