<?xml version="1.0" encoding="UTF-8" standalone="no"?>
<!-- Generator: Gravit.io -->
<svg xmlns="http://www.w3.org/2000/svg" xmlns:xlink="http://www.w3.org/1999/xlink" style="isolation:isolate" viewBox="0 0 100 100" width="100pt" height="100pt"><g style="isolation:isolate"><rect x="0" y="0" width="100" height="100" transform="matrix(0,1,-1,0,100,0)" fill="rgb(1,33,105)"/><path d=" M 100 84.444 L 100 100 L 84.444 100 L 0 15.556 L 0 0 L 15.556 0 L 100 84.444 Z " fill="rgb(255,255,255)"/><path d=" M 15.556 100 L 0 100 L 0 84.444 L 84.444 0 L 100 0 L 100 15.556 L 15.556 100 Z " fill="rgb(255,255,255)"/><path d=" M 0 0 L 49 49 L 42.843 55.157 L 0 12.314 L 0 0 L 0 0 Z " fill="rgb(200,16,46)"/><path d=" M 100 100 L 51 51 L 57.157 44.843 L 100 87.686 L 100 100 L 100 100 Z " fill="rgb(200,16,46)"/><path d=" M 0 100 L 49 51 L 55.157 57.157 L 12.314 100 L 0 100 L 0 100 Z " fill="rgb(200,16,46)"/><path d=" M 100 0 L 51 49 L 44.843 42.843 L 87.686 0 L 100 0 L 100 0 Z " fill="rgb(200,16,46)"/><rect x="0" y="35" width="100" height="30" transform="matrix(0,1,-1,0,100,0)" fill="rgb(255,255,255)"/><rect x="0" y="35" width="100" height="30" transform="matrix(-1,0,0,-1,100,100)" fill="rgb(255,255,255)"/><rect x="0" y="40" width="100" height="20" transform="matrix(0,1,-1,0,100,0)" fill="rgb(200,16,46)"/><rect x="0" y="40" width="100" height="20" transform="matrix(-1,0,0,-1,100,100)" fill="rgb(200,16,46)"/></g></svg>