<?xml version="1.0" encoding="UTF-8" standalone="no"?>
<!-- Generator: Gravit.io -->
<svg xmlns="http://www.w3.org/2000/svg" xmlns:xlink="http://www.w3.org/1999/xlink" style="isolation:isolate" viewBox="960 720 100 100" width="100pt" height="100pt"><g style="isolation:isolate"><rect x="984.963" y="695.037" width="50.075" height="100" transform="matrix(0,-1,1,0,264.963,1755.037)" fill="rgb(0,50,160)"/><rect x="985.037" y="745.037" width="49.925" height="100" transform="matrix(0,-1,1,0,214.963,1805.037)" fill="rgb(191,13,62)"/><path d=" M 960 820 L 960 720 L 1018.388 770 L 960 820 Z " fill="rgb(255,255,255)"/><circle vector-effect="non-scaling-stroke" cx="981.9999999999998" cy="770" r="11" fill="rgb(254,209,65)"/><path d=" M 979 752 L 982 749 L 985 752 L 983 765 L 981 765 L 979 752 Z " fill="rgb(254,209,65)"/><path d=" M 985 788 L 982 791 L 979 788 L 981 775 L 983 775 L 985 788 Z " fill="rgb(254,209,65)"/><path d=" M 1000 767 L 1003 770 L 1000 773 L 987 771 L 987 769 L 1000 767 Z " fill="rgb(254,209,65)"/><path d=" M 964 773 L 961 770 L 964 767 L 977 769 L 977 771 L 964 773 Z " fill="rgb(254,209,65)"/><path d=" M 996.849 780.607 L 996.849 784.849 L 992.607 784.849 L 984.828 774.243 L 986.243 772.828 L 996.849 780.607 Z " fill="rgb(254,209,65)"/><path d=" M 967.151 759.393 L 967.151 755.151 L 971.393 755.151 L 979.172 765.757 L 977.757 767.172 L 967.151 759.393 Z " fill="rgb(254,209,65)"/><path d=" M 971.393 784.849 L 967.151 784.849 L 967.151 780.607 L 977.757 772.828 L 979.172 774.243 L 971.393 784.849 Z " fill="rgb(254,209,65)"/><path d=" M 992.607 755.151 L 996.849 755.151 L 996.849 759.393 L 986.243 767.172 L 984.828 765.757 L 992.607 755.151 Z " fill="rgb(254,209,65)"/></g></svg>