<?xml version="1.0" encoding="UTF-8" standalone="no"?>
<!-- Generator: Gravit.io -->
<svg xmlns="http://www.w3.org/2000/svg" xmlns:xlink="http://www.w3.org/1999/xlink" style="isolation:isolate" viewBox="360 720 100 100" width="100pt" height="100pt"><g style="isolation:isolate"><rect x="384.963" y="695.037" width="50.075" height="100" transform="matrix(0,-1,1,0,-335.037,1155.037)" fill="rgb(0,50,160)"/><rect x="385.037" y="745.037" width="49.925" height="100" transform="matrix(0,-1,1,0,-385.037,1205.037)" fill="rgb(191,13,62)"/><path d=" M 360 820 L 360 720 L 418.388 770 L 360 820 Z " fill="rgb(255,255,255)"/><circle vector-effect="non-scaling-stroke" cx="382" cy="770" r="11" fill="rgb(254,209,65)"/><path d=" M 379 752 L 382 749 L 385 752 L 383 765 L 381 765 L 379 752 Z " fill="rgb(254,209,65)"/><path d=" M 385 788 L 382 791 L 379 788 L 381 775 L 383 775 L 385 788 Z " fill="rgb(254,209,65)"/><path d=" M 400 767 L 403 770 L 400 773 L 387 771 L 387 769 L 400 767 Z " fill="rgb(254,209,65)"/><path d=" M 364 773 L 361 770 L 364 767 L 377 769 L 377 771 L 364 773 Z " fill="rgb(254,209,65)"/><path d=" M 396.849 780.607 L 396.849 784.849 L 392.607 784.849 L 384.828 774.243 L 386.243 772.828 L 396.849 780.607 Z " fill="rgb(254,209,65)"/><path d=" M 367.151 759.393 L 367.151 755.151 L 371.393 755.151 L 379.172 765.757 L 377.757 767.172 L 367.151 759.393 Z " fill="rgb(254,209,65)"/><path d=" M 371.393 784.849 L 367.151 784.849 L 367.151 780.607 L 377.757 772.828 L 379.172 774.243 L 371.393 784.849 Z " fill="rgb(254,209,65)"/><path d=" M 392.607 755.151 L 396.849 755.151 L 396.849 759.393 L 386.243 767.172 L 384.828 765.757 L 392.607 755.151 Z " fill="rgb(254,209,65)"/></g></svg>