<?xml version="1.0" encoding="UTF-8" standalone="no"?>
<!-- Generator: Gravit.io -->
<svg xmlns="http://www.w3.org/2000/svg" xmlns:xlink="http://www.w3.org/1999/xlink" style="isolation:isolate" viewBox="960 120 100 100" width="100pt" height="100pt"><g style="isolation:isolate"><rect x="980" y="120" width="60" height="100" transform="matrix(0,1,-1,0,1180,-840)" fill="rgb(255,255,255)"/><rect x="1000" y="160" width="20" height="100" transform="matrix(0,1,-1,0,1220,-800)" fill="rgb(0,94,184)"/><rect x="1000" y="80" width="20" height="100" transform="matrix(0,1,-1,0,1140,-880)" fill="rgb(0,94,184)"/><mask id="_mask_2dLDg6xMNkFG4z4bYCNPcOHFTiWhd115"><path d=" M 984 184.911 L 997 162.394 L 1010 139.878 L 1023 162.394 L 1036 184.911 L 1010 184.911 L 984 184.911 Z  M 992.957 179.52 L 1001.478 164.76 L 1010 150 L 1018.522 164.76 L 1027.043 179.52 L 1010 179.52 L 992.957 179.52 Z " fill-rule="evenodd" fill="white" stroke="none"/></mask><path d=" M 984 184.911 L 997 162.394 L 1010 139.878 L 1023 162.394 L 1036 184.911 L 1010 184.911 L 984 184.911 Z  M 992.957 179.52 L 1001.478 164.76 L 1010 150 L 1018.522 164.76 L 1027.043 179.52 L 1010 179.52 L 992.957 179.52 Z " fill-rule="evenodd" fill="none"/><path d=" M 984 184.911 L 997 162.394 L 1010 139.878 L 1023 162.394 L 1036 184.911 L 1010 184.911 L 984 184.911 Z  M 992.957 179.52 L 1001.478 164.76 L 1010 150 L 1018.522 164.76 L 1027.043 179.52 L 1010 179.52 L 992.957 179.52 Z " fill-rule="evenodd" fill="none" mask="url(#_mask_2dLDg6xMNkFG4z4bYCNPcOHFTiWhd115)" vector-effect="non-scaling-stroke" stroke-width="10" stroke="rgb(0,94,184)" stroke-linejoin="miter" stroke-linecap="square" stroke-miterlimit="3"/><mask id="_mask_XZx1BCo2SQ3c2pD7fLfmasq4EkXo7xx2"><path d=" M 1036 154.613 L 1023 177.13 L 1010 199.646 L 997 177.13 L 984 154.613 L 1010 154.613 L 1036 154.613 Z  M 1027.043 160.004 L 1018.522 174.764 L 1010 189.524 L 1001.478 174.764 L 992.957 160.004 L 1010 160.004 L 1027.043 160.004 Z " fill-rule="evenodd" fill="white" stroke="none"/></mask><path d=" M 1036 154.613 L 1023 177.13 L 1010 199.646 L 997 177.13 L 984 154.613 L 1010 154.613 L 1036 154.613 Z  M 1027.043 160.004 L 1018.522 174.764 L 1010 189.524 L 1001.478 174.764 L 992.957 160.004 L 1010 160.004 L 1027.043 160.004 Z " fill-rule="evenodd" fill="none"/><path d=" M 1036 154.613 L 1023 177.13 L 1010 199.646 L 997 177.13 L 984 154.613 L 1010 154.613 L 1036 154.613 Z  M 1027.043 160.004 L 1018.522 174.764 L 1010 189.524 L 1001.478 174.764 L 992.957 160.004 L 1010 160.004 L 1027.043 160.004 Z " fill-rule="evenodd" fill="none" mask="url(#_mask_XZx1BCo2SQ3c2pD7fLfmasq4EkXo7xx2)" vector-effect="non-scaling-stroke" stroke-width="10" stroke="rgb(0,94,184)" stroke-linejoin="miter" stroke-linecap="square" stroke-miterlimit="3"/></g></svg>