<?xml version="1.0" encoding="UTF-8" standalone="no"?>
<!-- Generator: Gravit.io -->
<svg xmlns="http://www.w3.org/2000/svg" xmlns:xlink="http://www.w3.org/1999/xlink" style="isolation:isolate" viewBox="360 120 100 100" width="100pt" height="100pt"><g style="isolation:isolate"><rect x="380" y="120" width="60" height="100" transform="matrix(0,1,-1,0,580,-240)" fill="rgb(255,255,255)"/><rect x="400" y="160" width="20" height="100" transform="matrix(0,1,-1,0,620,-200)" fill="rgb(0,94,184)"/><rect x="400" y="80" width="20" height="100" transform="matrix(0,1,-1,0,540,-280)" fill="rgb(0,94,184)"/><mask id="_mask_FdhvGlQjbVHGbvAOcuadryXvQxC1oovM"><path d=" M 384 184.911 L 397 162.394 L 410 139.878 L 423 162.394 L 436 184.911 L 410 184.911 L 384 184.911 Z  M 392.957 179.52 L 401.478 164.76 L 410 150 L 418.522 164.76 L 427.043 179.52 L 410 179.52 L 392.957 179.52 Z " fill-rule="evenodd" fill="white" stroke="none"/></mask><path d=" M 384 184.911 L 397 162.394 L 410 139.878 L 423 162.394 L 436 184.911 L 410 184.911 L 384 184.911 Z  M 392.957 179.52 L 401.478 164.76 L 410 150 L 418.522 164.76 L 427.043 179.52 L 410 179.52 L 392.957 179.52 Z " fill-rule="evenodd" fill="none"/><path d=" M 384 184.911 L 397 162.394 L 410 139.878 L 423 162.394 L 436 184.911 L 410 184.911 L 384 184.911 Z  M 392.957 179.52 L 401.478 164.76 L 410 150 L 418.522 164.76 L 427.043 179.52 L 410 179.52 L 392.957 179.52 Z " fill-rule="evenodd" fill="none" mask="url(#_mask_FdhvGlQjbVHGbvAOcuadryXvQxC1oovM)" vector-effect="non-scaling-stroke" stroke-width="10" stroke="rgb(0,94,184)" stroke-linejoin="miter" stroke-linecap="square" stroke-miterlimit="3"/><mask id="_mask_SOW5pHBpfPkTlb1MOTwJ0LiZH1jjkPLU"><path d=" M 436 154.613 L 423 177.13 L 410 199.646 L 397 177.13 L 384 154.613 L 410 154.613 L 436 154.613 Z  M 427.043 160.004 L 418.522 174.764 L 410 189.524 L 401.478 174.764 L 392.957 160.004 L 410 160.004 L 427.043 160.004 Z " fill-rule="evenodd" fill="white" stroke="none"/></mask><path d=" M 436 154.613 L 423 177.13 L 410 199.646 L 397 177.13 L 384 154.613 L 410 154.613 L 436 154.613 Z  M 427.043 160.004 L 418.522 174.764 L 410 189.524 L 401.478 174.764 L 392.957 160.004 L 410 160.004 L 427.043 160.004 Z " fill-rule="evenodd" fill="none"/><path d=" M 436 154.613 L 423 177.13 L 410 199.646 L 397 177.13 L 384 154.613 L 410 154.613 L 436 154.613 Z  M 427.043 160.004 L 418.522 174.764 L 410 189.524 L 401.478 174.764 L 392.957 160.004 L 410 160.004 L 427.043 160.004 Z " fill-rule="evenodd" fill="none" mask="url(#_mask_SOW5pHBpfPkTlb1MOTwJ0LiZH1jjkPLU)" vector-effect="non-scaling-stroke" stroke-width="10" stroke="rgb(0,94,184)" stroke-linejoin="miter" stroke-linecap="square" stroke-miterlimit="3"/></g></svg>