<?xml version="1.0" encoding="UTF-8" standalone="no"?>
<!-- Generator: Gravit.io -->
<svg xmlns="http://www.w3.org/2000/svg" xmlns:xlink="http://www.w3.org/1999/xlink" style="isolation:isolate" viewBox="0 0 100 100" width="100pt" height="100pt"><g style="isolation:isolate"><rect x="25" y="0" width="50" height="100" transform="matrix(0,1,-1,0,100,0)" fill="rgb(255,255,255)"/><rect x="40" y="40" width="20" height="100" transform="matrix(0,1,-1,0,140,40)" fill="rgb(0,94,184)"/><rect x="40" y="-40" width="20" height="100" transform="matrix(0,1,-1,0,60,-40)" fill="rgb(0,94,184)"/><mask id="_mask_GbY5x6ppGelP66f96Tzpk6L293LRXclb"><polygon points="24,65.911,50,20.878,76,65.911" fill="white" stroke="none"/></mask><polygon points="24,65.911,50,20.878,76,65.911" fill="none"/><polygon points="24,65.911,50,20.878,76,65.911" fill="none" mask="url(#_mask_GbY5x6ppGelP66f96Tzpk6L293LRXclb)" vector-effect="non-scaling-stroke" stroke-width="10" stroke="rgb(0,94,184)" stroke-linejoin="miter" stroke-linecap="square" stroke-miterlimit="3"/><mask id="_mask_yvC0hbeuzV2cIBgSMbZhmbqQZrjixN9R"><polygon points="76,34.613,50,79.646,24,34.613" fill="white" stroke="none"/></mask><polygon points="76,34.613,50,79.646,24,34.613" fill="none"/><polygon points="76,34.613,50,79.646,24,34.613" fill="none" mask="url(#_mask_yvC0hbeuzV2cIBgSMbZhmbqQZrjixN9R)" vector-effect="non-scaling-stroke" stroke-width="10" stroke="rgb(0,94,184)" stroke-linejoin="miter" stroke-linecap="square" stroke-miterlimit="3"/></g></svg>