<?xml version="1.0" encoding="UTF-8" standalone="no"?>
<!-- Generator: Gravit.io -->
<svg xmlns="http://www.w3.org/2000/svg" xmlns:xlink="http://www.w3.org/1999/xlink" style="isolation:isolate" viewBox="720 600 100 100" width="100pt" height="100pt"><g style="isolation:isolate"><rect x="753.3" y="600" width="33.4" height="100" transform="matrix(0,1,-1,0,1420,-120)" fill="rgb(255,255,255)"/><rect x="753.35" y="633.35" width="33.3" height="100" transform="matrix(0,1,-1,0,1453.35,-86.65)" fill="rgb(1,33,105)"/><rect x="753.35" y="566.65" width="33.3" height="100" transform="matrix(0,1,-1,0,1386.65,-153.35)" fill="rgb(255,0,0)"/><path d=" M 800.03 620 L 800.03 650.03 C 800.03 657.98 796.86 665.62 791.24 671.24 C 785.61 676.87 777.98 680.03 770.03 680.03 L 769.97 680.03 C 762.02 680.03 754.39 676.87 748.76 671.24 C 743.14 665.62 739.97 657.98 739.97 650.03 L 739.97 620 L 800.03 620 Z " fill="rgb(255,255,255)"/><g style="isolation:isolate"><g><rect x="764.994" y="645" width="10.012" height="10" transform="matrix(0,1,-1,0,1420,-120)" fill="rgb(255,0,0)"/><rect x="754.994" y="635.003" width="10.012" height="10" transform="matrix(0,1,-1,0,1400.003,-119.997)" fill="rgb(255,0,0)"/><rect x="754.994" y="654.997" width="10.012" height="10" transform="matrix(0,1,-1,0,1419.997,-100.003)" fill="rgb(255,0,0)"/><rect x="774.994" y="635.003" width="10.012" height="10" transform="matrix(0,1,-1,0,1420.003,-139.997)" fill="rgb(255,0,0)"/><rect x="774.994" y="654.997" width="10.012" height="10" transform="matrix(0,1,-1,0,1439.997,-120.003)" fill="rgb(255,0,0)"/><rect x="744.994" y="625.006" width="10.012" height="10" transform="matrix(0,1,-1,0,1380.006,-119.994)" fill="rgb(255,0,0)"/><rect x="764.994" y="625.006" width="10.012" height="10" transform="matrix(0,1,-1,0,1400.006,-139.994)" fill="rgb(255,0,0)"/><rect x="784.994" y="625.006" width="10.012" height="10" transform="matrix(0,1,-1,0,1420.006,-159.994)" fill="rgb(255,0,0)"/></g><path d=" M 745 651.166 L 745 644.994 L 755 644.994 L 755 655.006 L 755 655.006 L 755 655.006 L 755 655.006 L 745.471 655.006 C 745.218 653.757 745.059 652.475 745 651.166 Z  M 755 670.045 L 755 664.988 L 749.947 664.988 C 751.381 666.905 753.084 668.609 755 670.045 Z  M 775 674.534 L 775 664.988 L 765 664.988 L 765 674.534 C 766.217 674.78 767.466 674.938 768.741 675 L 771.259 675 C 772.534 674.938 773.783 674.78 775 674.534 Z  M 795 651.166 L 795 644.994 L 785 644.994 L 785 655.006 L 794.529 655.006 C 794.782 653.757 794.941 652.475 795 651.166 Z  M 790.053 664.988 L 785 664.988 L 785 670.045 C 786.916 668.609 788.619 666.905 790.053 664.988 Z " fill-rule="evenodd" fill="rgb(255,0,0)"/></g></g></svg>