<?xml version="1.0" encoding="UTF-8" standalone="no"?>
<!-- Generator: Gravit.io -->
<svg xmlns="http://www.w3.org/2000/svg" xmlns:xlink="http://www.w3.org/1999/xlink" style="isolation:isolate" viewBox="120 600 100 100" width="100pt" height="100pt"><g style="isolation:isolate"><rect x="153.3" y="600" width="33.4" height="100" transform="matrix(0,1,-1,0,820,480)" fill="rgb(255,255,255)"/><rect x="153.35" y="633.35" width="33.3" height="100" transform="matrix(0,1,-1,0,853.35,513.35)" fill="rgb(1,33,105)"/><rect x="153.35" y="566.65" width="33.3" height="100" transform="matrix(0,1,-1,0,786.65,446.65)" fill="rgb(255,0,0)"/><path d=" M 200.03 620 L 200.03 650.03 C 200.03 657.98 196.86 665.62 191.24 671.24 C 185.61 676.87 177.98 680.03 170.03 680.03 L 169.97 680.03 C 162.02 680.03 154.39 676.87 148.76 671.24 C 143.14 665.62 139.97 657.98 139.97 650.03 L 139.97 620 L 200.03 620 Z " fill="rgb(255,255,255)"/><g style="isolation:isolate"><g><rect x="164.994" y="645" width="10.012" height="10" transform="matrix(0,1,-1,0,820,480)" fill="rgb(255,0,0)"/><rect x="154.994" y="635.003" width="10.012" height="10" transform="matrix(0,1,-1,0,800.003,480.003)" fill="rgb(255,0,0)"/><rect x="154.994" y="654.997" width="10.012" height="10" transform="matrix(0,1,-1,0,819.997,499.997)" fill="rgb(255,0,0)"/><rect x="174.994" y="635.003" width="10.012" height="10" transform="matrix(0,1,-1,0,820.003,460.003)" fill="rgb(255,0,0)"/><rect x="174.994" y="654.997" width="10.012" height="10" transform="matrix(0,1,-1,0,839.997,479.997)" fill="rgb(255,0,0)"/><rect x="144.994" y="625.006" width="10.012" height="10" transform="matrix(0,1,-1,0,780.006,480.006)" fill="rgb(255,0,0)"/><rect x="164.994" y="625.006" width="10.012" height="10" transform="matrix(0,1,-1,0,800.006,460.006)" fill="rgb(255,0,0)"/><rect x="184.994" y="625.006" width="10.012" height="10" transform="matrix(0,1,-1,0,820.006,440.006)" fill="rgb(255,0,0)"/></g><path d=" M 145 651.166 L 145 644.994 L 155 644.994 L 155 655.006 L 155 655.006 L 155 655.006 L 155 655.006 L 145.471 655.006 C 145.218 653.757 145.059 652.475 145 651.166 Z  M 155 670.045 L 155 664.988 L 149.947 664.988 C 151.381 666.905 153.084 668.609 155 670.045 Z  M 175 674.534 L 175 664.988 L 165 664.988 L 165 674.534 C 166.217 674.78 167.466 674.938 168.741 675 L 171.259 675 C 172.534 674.938 173.783 674.78 175 674.534 Z  M 195 651.166 L 195 644.994 L 185 644.994 L 185 655.006 L 194.529 655.006 C 194.782 653.757 194.941 652.475 195 651.166 Z  M 190.053 664.988 L 185 664.988 L 185 670.045 C 186.916 668.609 188.619 666.905 190.053 664.988 Z " fill-rule="evenodd" fill="rgb(255,0,0)"/></g></g></svg>