<?xml version="1.0" encoding="UTF-8" standalone="no"?>
<!-- Generator: Gravit.io -->
<svg xmlns="http://www.w3.org/2000/svg" xmlns:xlink="http://www.w3.org/1999/xlink" style="isolation:isolate" viewBox="960 240 100 100" width="100pt" height="100pt"><g style="isolation:isolate"><rect x="960" y="240" width="100" height="100" transform="matrix(0,1,-1,0,1300,-720)" fill="rgb(255,255,255)"/><path d=" M 1036.846 305.5 C 1024.566 298.409 996.14 281.998 983.154 274.5 C 991.708 259.683 1010.683 254.599 1025.5 263.154 C 1040.317 271.708 1045.401 290.683 1036.846 305.5 Z " fill="rgb(205,46,58)"/><path d=" M 983.154 274.5 C 995.434 281.591 1023.86 298.002 1036.846 305.5 C 1028.292 320.317 1009.317 325.401 994.5 316.846 C 979.683 308.292 974.599 289.317 983.154 274.5 Z " fill="rgb(15,100,205)"/><path d=" M 1036.846 305.5 C 1032.569 312.908 1023.082 315.45 1015.673 311.173 C 1008.265 306.896 1005.723 297.408 1010 290 C 1014.277 282.592 1023.765 280.049 1031.173 284.327 C 1038.582 288.604 1041.124 298.091 1036.846 305.5 Z " fill="rgb(15,100,205)"/><path d=" M 1010 290 C 1005.723 297.408 996.235 299.951 988.827 295.673 C 981.418 291.396 978.876 281.909 983.154 274.5 C 987.431 267.092 996.918 264.55 1004.327 268.827 C 1011.735 273.104 1014.277 282.592 1010 290 Z " fill="rgb(205,46,58)"/><rect x="961.107" y="251.399" width="26" height="5.414" transform="matrix(0.707,-0.707,0.707,0.707,105.629,763.223)" fill="rgb(0,0,0)"/><rect x="965.893" y="256.228" width="26" height="5.414" transform="matrix(0.707,-0.707,0.707,0.707,103.617,768.022)" fill="rgb(0,0,0)"/><rect x="970.893" y="261.228" width="26" height="5.414" transform="matrix(0.707,-0.707,0.707,0.707,101.545,773.022)" fill="rgb(0,0,0)"/><rect x="1044.593" y="256.246" width="12.293" height="5.414" transform="matrix(0.707,0.707,-0.707,0.707,490.862,-667.14)" fill="rgb(0,0,0)"/><rect x="1034.901" y="246.553" width="12.293" height="5.414" transform="matrix(0.707,0.707,-0.707,0.707,481.169,-663.125)" fill="rgb(0,0,0)"/><rect x="1028.065" y="256.186" width="26" height="5.414" transform="matrix(0.707,0.707,-0.707,0.707,487.986,-660.316)" fill="rgb(0,0,0)"/><rect x="1034.79" y="266.043" width="12.263" height="5.414" transform="matrix(0.707,0.707,-0.707,0.707,494.914,-657.328)" fill="rgb(0,0,0)"/><rect x="1025.068" y="256.351" width="12.322" height="5.414" transform="matrix(0.707,0.707,-0.707,0.707,485.221,-653.313)" fill="rgb(0,0,0)"/><rect x="1034.901" y="328.032" width="12.293" height="5.414" transform="matrix(-0.707,0.707,-0.707,-0.707,2011.047,-171.524)" fill="rgb(0,0,0)"/><rect x="1030.118" y="323.214" width="12.263" height="5.414" transform="matrix(-0.707,0.707,-0.707,-0.707,1999.451,-176.356)" fill="rgb(0,0,0)"/><rect x="1025.118" y="318.214" width="12.263" height="5.414" transform="matrix(-0.707,0.707,-0.707,-0.707,1987.38,-181.356)" fill="rgb(0,0,0)"/><rect x="1044.593" y="318.34" width="12.293" height="5.414" transform="matrix(-0.707,0.707,-0.707,-0.707,2020.739,-194.923)" fill="rgb(0,0,0)"/><rect x="1039.781" y="313.522" width="12.322" height="5.414" transform="matrix(-0.707,0.707,-0.707,-0.707,2009.143,-199.756)" fill="rgb(0,0,0)"/><rect x="1034.781" y="308.522" width="12.322" height="5.414" transform="matrix(-0.707,0.707,-0.707,-0.707,1997.072,-204.756)" fill="rgb(0,0,0)"/><rect x="961.107" y="323.186" width="26" height="5.414" transform="matrix(-0.707,-0.707,0.707,-0.707,1432.463,1245.132)" fill="rgb(0,0,0)"/><rect x="977.61" y="323.235" width="12.322" height="5.414" transform="matrix(-0.707,-0.707,0.707,-0.707,1448.926,1252.049)" fill="rgb(0,0,0)"/><rect x="967.947" y="313.543" width="12.263" height="5.414" transform="matrix(-0.707,-0.707,0.707,-0.707,1439.233,1228.65)" fill="rgb(0,0,0)"/><rect x="970.935" y="313.399" width="26" height="5.414" transform="matrix(-0.707,-0.707,0.707,-0.707,1456.161,1235.375)" fill="rgb(0,0,0)"/></g></svg>