<?xml version="1.0" encoding="UTF-8" standalone="no"?>
<!-- Generator: Gravit.io -->
<svg xmlns="http://www.w3.org/2000/svg" xmlns:xlink="http://www.w3.org/1999/xlink" style="isolation:isolate" viewBox="0 0 100 100" width="100pt" height="100pt"><g style="isolation:isolate"><rect x="0" y="0" width="100" height="100" transform="matrix(0,1,-1,0,100,0)" fill="rgb(255,255,255)"/><path d=" M 79.445 67 C 65.975 59.223 34.799 41.223 20.555 33 C 29.938 16.749 50.749 11.173 67 20.555 C 83.251 29.938 88.827 50.749 79.445 67 Z " fill="rgb(205,46,58)"/><path d=" M 20.555 33 C 34.025 40.777 65.201 58.777 79.445 67 C 70.062 83.251 49.251 88.827 33 79.445 C 16.749 70.062 11.173 49.251 20.555 33 Z " fill="rgb(15,100,205)"/><path d=" M 79.445 67 C 74.754 75.126 64.348 77.914 56.222 73.222 C 48.097 68.531 45.309 58.126 50 50 C 54.691 41.874 65.097 39.086 73.222 43.778 C 81.348 48.469 84.136 58.874 79.445 67 Z " fill="rgb(15,100,205)"/><path d=" M 50 50 C 45.309 58.126 34.903 60.914 26.778 56.222 C 18.652 51.531 15.864 41.126 20.555 33 C 25.246 24.874 35.652 22.086 43.778 26.778 C 51.903 31.469 54.691 41.874 50 50 Z " fill="rgb(205,46,58)"/></g></svg>