<?xml version="1.0" encoding="UTF-8" standalone="no"?>
<!-- Generator: Gravit.io -->
<svg xmlns="http://www.w3.org/2000/svg" xmlns:xlink="http://www.w3.org/1999/xlink" style="isolation:isolate" viewBox="360 360 100 100" width="100pt" height="100pt"><g style="isolation:isolate"><rect x="360" y="360" width="100" height="100" transform="matrix(0,1,-1,0,820,0)" fill="rgb(255,255,255)"/><path d=" M 436.846 425.5 C 424.566 418.409 396.14 401.998 383.154 394.5 C 391.708 379.683 410.683 374.599 425.5 383.154 C 440.317 391.708 445.401 410.683 436.846 425.5 Z " fill="rgb(205,46,58)"/><path d=" M 383.154 394.5 C 395.434 401.591 423.86 418.002 436.846 425.5 C 428.292 440.317 409.317 445.401 394.5 436.846 C 379.683 428.292 374.599 409.317 383.154 394.5 Z " fill="rgb(15,100,205)"/><path d=" M 436.846 425.5 C 432.569 432.908 423.082 435.45 415.673 431.173 C 408.265 426.896 405.723 417.408 410 410 C 414.277 402.592 423.765 400.049 431.173 404.327 C 438.582 408.604 441.124 418.091 436.846 425.5 Z " fill="rgb(15,100,205)"/><path d=" M 410 410 C 405.723 417.408 396.235 419.951 388.827 415.673 C 381.418 411.396 378.876 401.909 383.154 394.5 C 387.431 387.092 396.918 384.55 404.327 388.827 C 411.735 393.104 414.277 402.592 410 410 Z " fill="rgb(205,46,58)"/><rect x="361.107" y="371.399" width="26" height="5.414" transform="matrix(0.707,-0.707,0.707,0.707,-154.96,374.107)" fill="rgb(0,0,0)"/><rect x="365.893" y="376.228" width="26" height="5.414" transform="matrix(0.707,-0.707,0.707,0.707,-156.972,378.906)" fill="rgb(0,0,0)"/><rect x="370.893" y="381.228" width="26" height="5.414" transform="matrix(0.707,-0.707,0.707,0.707,-159.043,383.906)" fill="rgb(0,0,0)"/><rect x="444.593" y="376.246" width="12.293" height="5.414" transform="matrix(0.707,0.707,-0.707,0.707,399.979,-207.728)" fill="rgb(0,0,0)"/><rect x="434.901" y="366.553" width="12.293" height="5.414" transform="matrix(0.707,0.707,-0.707,0.707,390.286,-203.714)" fill="rgb(0,0,0)"/><rect x="428.065" y="376.186" width="26" height="5.414" transform="matrix(0.707,0.707,-0.707,0.707,397.103,-200.905)" fill="rgb(0,0,0)"/><rect x="434.79" y="386.043" width="12.263" height="5.414" transform="matrix(0.707,0.707,-0.707,0.707,404.031,-197.916)" fill="rgb(0,0,0)"/><rect x="425.068" y="376.351" width="12.322" height="5.414" transform="matrix(0.707,0.707,-0.707,0.707,394.338,-193.902)" fill="rgb(0,0,0)"/><rect x="434.901" y="448.032" width="12.293" height="5.414" transform="matrix(-0.707,0.707,-0.707,-0.707,1071.636,457.593)" fill="rgb(0,0,0)"/><rect x="430.118" y="443.214" width="12.263" height="5.414" transform="matrix(-0.707,0.707,-0.707,-0.707,1060.04,452.76)" fill="rgb(0,0,0)"/><rect x="425.118" y="438.214" width="12.263" height="5.414" transform="matrix(-0.707,0.707,-0.707,-0.707,1047.968,447.76)" fill="rgb(0,0,0)"/><rect x="444.593" y="438.34" width="12.293" height="5.414" transform="matrix(-0.707,0.707,-0.707,-0.707,1081.328,434.194)" fill="rgb(0,0,0)"/><rect x="439.781" y="433.522" width="12.322" height="5.414" transform="matrix(-0.707,0.707,-0.707,-0.707,1069.732,429.361)" fill="rgb(0,0,0)"/><rect x="434.781" y="428.522" width="12.322" height="5.414" transform="matrix(-0.707,0.707,-0.707,-0.707,1057.661,424.361)" fill="rgb(0,0,0)"/><rect x="361.107" y="443.186" width="26" height="5.414" transform="matrix(-0.707,-0.707,0.707,-0.707,323.346,1025.721)" fill="rgb(0,0,0)"/><rect x="377.61" y="443.235" width="12.322" height="5.414" transform="matrix(-0.707,-0.707,0.707,-0.707,339.809,1032.638)" fill="rgb(0,0,0)"/><rect x="367.947" y="433.543" width="12.263" height="5.414" transform="matrix(-0.707,-0.707,0.707,-0.707,330.116,1009.239)" fill="rgb(0,0,0)"/><rect x="370.935" y="433.399" width="26" height="5.414" transform="matrix(-0.707,-0.707,0.707,-0.707,347.044,1015.964)" fill="rgb(0,0,0)"/></g></svg>