<?xml version="1.0" encoding="UTF-8" standalone="no"?>
<!-- Generator: Gravit.io -->
<svg xmlns="http://www.w3.org/2000/svg" xmlns:xlink="http://www.w3.org/1999/xlink" style="isolation:isolate" viewBox="360 240 100 100" width="100pt" height="100pt"><g style="isolation:isolate"><rect x="360" y="240" width="100" height="100" transform="matrix(0,1,-1,0,700,-120)" fill="rgb(255,255,255)"/><path d=" M 436.846 305.5 C 424.566 298.409 396.14 281.998 383.154 274.5 C 391.708 259.683 410.683 254.599 425.5 263.154 C 440.317 271.708 445.401 290.683 436.846 305.5 Z " fill="rgb(205,46,58)"/><path d=" M 383.154 274.5 C 395.434 281.591 423.86 298.002 436.846 305.5 C 428.292 320.317 409.317 325.401 394.5 316.846 C 379.683 308.292 374.599 289.317 383.154 274.5 Z " fill="rgb(15,100,205)"/><path d=" M 436.846 305.5 C 432.569 312.908 423.082 315.45 415.673 311.173 C 408.265 306.896 405.723 297.408 410 290 C 414.277 282.592 423.765 280.049 431.173 284.327 C 438.582 288.604 441.124 298.091 436.846 305.5 Z " fill="rgb(15,100,205)"/><path d=" M 410 290 C 405.723 297.408 396.235 299.951 388.827 295.673 C 381.418 291.396 378.876 281.909 383.154 274.5 C 387.431 267.092 396.918 264.55 404.327 268.827 C 411.735 273.104 414.277 282.592 410 290 Z " fill="rgb(205,46,58)"/><rect x="361.107" y="251.399" width="26" height="5.414" transform="matrix(0.707,-0.707,0.707,0.707,-70.107,338.959)" fill="rgb(0,0,0)"/><rect x="365.893" y="256.228" width="26" height="5.414" transform="matrix(0.707,-0.707,0.707,0.707,-72.119,343.758)" fill="rgb(0,0,0)"/><rect x="370.893" y="261.228" width="26" height="5.414" transform="matrix(0.707,-0.707,0.707,0.707,-74.19,348.758)" fill="rgb(0,0,0)"/><rect x="444.593" y="256.246" width="12.293" height="5.414" transform="matrix(0.707,0.707,-0.707,0.707,315.126,-242.876)" fill="rgb(0,0,0)"/><rect x="434.901" y="246.553" width="12.293" height="5.414" transform="matrix(0.707,0.707,-0.707,0.707,305.433,-238.861)" fill="rgb(0,0,0)"/><rect x="428.065" y="256.186" width="26" height="5.414" transform="matrix(0.707,0.707,-0.707,0.707,312.25,-236.052)" fill="rgb(0,0,0)"/><rect x="434.79" y="266.043" width="12.263" height="5.414" transform="matrix(0.707,0.707,-0.707,0.707,319.178,-233.064)" fill="rgb(0,0,0)"/><rect x="425.068" y="256.351" width="12.322" height="5.414" transform="matrix(0.707,0.707,-0.707,0.707,309.485,-229.049)" fill="rgb(0,0,0)"/><rect x="434.901" y="328.032" width="12.293" height="5.414" transform="matrix(-0.707,0.707,-0.707,-0.707,986.783,252.74)" fill="rgb(0,0,0)"/><rect x="430.118" y="323.214" width="12.263" height="5.414" transform="matrix(-0.707,0.707,-0.707,-0.707,975.187,247.908)" fill="rgb(0,0,0)"/><rect x="425.118" y="318.214" width="12.263" height="5.414" transform="matrix(-0.707,0.707,-0.707,-0.707,963.116,242.908)" fill="rgb(0,0,0)"/><rect x="444.593" y="318.34" width="12.293" height="5.414" transform="matrix(-0.707,0.707,-0.707,-0.707,996.475,229.341)" fill="rgb(0,0,0)"/><rect x="439.781" y="313.522" width="12.322" height="5.414" transform="matrix(-0.707,0.707,-0.707,-0.707,984.879,224.508)" fill="rgb(0,0,0)"/><rect x="434.781" y="308.522" width="12.322" height="5.414" transform="matrix(-0.707,0.707,-0.707,-0.707,972.808,219.508)" fill="rgb(0,0,0)"/><rect x="361.107" y="323.186" width="26" height="5.414" transform="matrix(-0.707,-0.707,0.707,-0.707,408.198,820.868)" fill="rgb(0,0,0)"/><rect x="377.61" y="323.235" width="12.322" height="5.414" transform="matrix(-0.707,-0.707,0.707,-0.707,424.662,827.785)" fill="rgb(0,0,0)"/><rect x="367.947" y="313.543" width="12.263" height="5.414" transform="matrix(-0.707,-0.707,0.707,-0.707,414.969,804.386)" fill="rgb(0,0,0)"/><rect x="370.935" y="313.399" width="26" height="5.414" transform="matrix(-0.707,-0.707,0.707,-0.707,431.897,811.111)" fill="rgb(0,0,0)"/></g></svg>