<?xml version="1.0" encoding="UTF-8" standalone="no"?>
<!-- Generator: Gravit.io -->
<svg xmlns="http://www.w3.org/2000/svg" xmlns:xlink="http://www.w3.org/1999/xlink" style="isolation:isolate" viewBox="840 720 100 100" width="100pt" height="100pt"><g style="isolation:isolate"><rect x="840" y="720" width="100" height="100" transform="matrix(1,0,0,1,0,0)" fill="rgb(255,255,255)"/><rect x="840" y="720" width="100" height="10" transform="matrix(1,0,0,1,0,0)" fill="rgb(204,0,0)"/><rect x="840" y="740" width="100" height="10" transform="matrix(1,0,0,1,0,0)" fill="rgb(204,0,0)"/><rect x="840" y="760" width="100" height="10" transform="matrix(1,0,0,1,0,0)" fill="rgb(204,0,0)"/><rect x="840" y="780" width="100" height="10" transform="matrix(1,0,0,1,0,0)" fill="rgb(204,0,0)"/><rect x="840" y="800" width="100" height="10" transform="matrix(1,0,0,1,0,0)" fill="rgb(204,0,0)"/><rect x="840" y="720" width="80" height="80" transform="matrix(1,0,0,1,0,0)" fill="rgb(0,50,160)"/><path d=" M 895.254 741.979 L 897.028 754.111 L 903.89 743.951 L 900.21 755.653 L 910.802 749.47 L 902.415 758.421 L 914.647 757.443 L 903.21 761.869 L 914.647 766.294 L 902.415 765.316 L 910.802 774.267 L 900.21 768.084 L 903.89 779.786 L 897.028 769.626 L 895.254 781.758 L 893.481 769.626 L 886.619 779.786 L 890.299 768.084 L 879.707 774.267 L 888.094 765.316 L 875.862 766.294 L 887.298 761.869 L 875.862 757.443 L 888.094 758.421 L 879.707 749.47 L 890.299 755.653 L 886.619 743.951 L 893.481 754.111 L 895.254 741.979 Z  M 885.309 742.476 C 876.412 738.528 865.97 741.141 859.981 748.814 C 853.992 756.487 853.992 767.251 859.981 774.923 C 865.97 782.596 876.412 785.209 885.309 781.261 C 875.413 788.362 861.758 786.872 853.626 777.804 C 845.494 768.737 845.494 755.001 853.626 745.933 C 861.758 736.865 875.413 735.375 885.309 742.476 L 885.309 742.476 Z " fill="rgb(255,209,0)"/></g></svg>