<?xml version="1.0" encoding="UTF-8" standalone="no"?>
<!-- Generator: Gravit.io -->
<svg xmlns="http://www.w3.org/2000/svg" xmlns:xlink="http://www.w3.org/1999/xlink" style="isolation:isolate" viewBox="240 720 100 100" width="100pt" height="100pt"><g style="isolation:isolate"><rect x="240" y="720" width="100" height="100" transform="matrix(1,0,0,1,0,0)" fill="rgb(255,255,255)"/><rect x="240" y="720" width="100" height="10" transform="matrix(1,0,0,1,0,0)" fill="rgb(204,0,0)"/><rect x="240" y="740" width="100" height="10" transform="matrix(1,0,0,1,0,0)" fill="rgb(204,0,0)"/><rect x="240" y="760" width="100" height="10" transform="matrix(1,0,0,1,0,0)" fill="rgb(204,0,0)"/><rect x="240" y="780" width="100" height="10" transform="matrix(1,0,0,1,0,0)" fill="rgb(204,0,0)"/><rect x="240" y="800" width="100" height="10" transform="matrix(1,0,0,1,0,0)" fill="rgb(204,0,0)"/><rect x="240" y="720" width="80" height="80" transform="matrix(1,0,0,1,0,0)" fill="rgb(0,50,160)"/><path d=" M 295.254 741.979 L 297.028 754.111 L 303.89 743.951 L 300.21 755.653 L 310.802 749.47 L 302.415 758.421 L 314.647 757.443 L 303.21 761.869 L 314.647 766.294 L 302.415 765.316 L 310.802 774.267 L 300.21 768.084 L 303.89 779.786 L 297.028 769.626 L 295.254 781.758 L 293.481 769.626 L 286.619 779.786 L 290.299 768.084 L 279.707 774.267 L 288.094 765.316 L 275.862 766.294 L 287.298 761.869 L 275.862 757.443 L 288.094 758.421 L 279.707 749.47 L 290.299 755.653 L 286.619 743.951 L 293.481 754.111 L 295.254 741.979 Z  M 285.309 742.476 C 276.412 738.528 265.97 741.141 259.981 748.814 C 253.992 756.487 253.992 767.251 259.981 774.923 C 265.97 782.596 276.412 785.209 285.309 781.261 C 275.413 788.362 261.758 786.872 253.626 777.804 C 245.494 768.737 245.494 755.001 253.626 745.933 C 261.758 736.865 275.413 735.375 285.309 742.476 L 285.309 742.476 Z " fill="rgb(255,209,0)"/></g></svg>