<?xml version="1.0" encoding="UTF-8" standalone="no"?>
<!-- Generator: Gravit.io -->
<svg xmlns="http://www.w3.org/2000/svg" xmlns:xlink="http://www.w3.org/1999/xlink" style="isolation:isolate" viewBox="600 0 100 100" width="100pt" height="100pt"><g style="isolation:isolate"><rect x="600" y="0" width="100" height="100" transform="matrix(0,1,-1,0,700,-600)" fill="rgb(0,151,57)"/><rect x="619.594" y="19.594" width="60.811" height="60.811" transform="matrix(0.707,0.707,-0.707,0.707,225.736,-444.975)" fill="rgb(254,221,0)"/><circle vector-effect="non-scaling-stroke" cx="650.0000000000001" cy="50.000000000000014" r="22" fill="rgb(1,33,105)"/><path d=" M 670.398 58.213 C 663.487 46.708 650.887 39 636.5 39 C 634.538 39 632.609 39.143 630.725 39.428 C 630.181 40.382 629.721 41.389 629.331 42.429 C 631.179 42.144 633.073 42 635 42 C 649.451 42 662.029 50.084 668.429 61.988 C 669.213 60.812 669.875 59.548 670.398 58.213 Z " fill="rgb(255,255,255)"/></g></svg>