<?xml version="1.0" encoding="UTF-8" standalone="no"?>
<!-- Generator: Gravit.io -->
<svg xmlns="http://www.w3.org/2000/svg" xmlns:xlink="http://www.w3.org/1999/xlink" style="isolation:isolate" viewBox="840 360 100 100" width="100pt" height="100pt"><g style="isolation:isolate"><rect x="880.61" y="360" width="59.39" height="100" transform="matrix(-1,0,0,-1,1820.61,820)" fill="rgb(218,41,28)"/><rect x="840" y="360" width="40.61" height="100" transform="matrix(-1,0,0,-1,1720.61,820)" fill="rgb(4,106,56)"/><circle vector-effect="non-scaling-stroke" cx="880.6097560975612" cy="410" r="21.39024390243901" fill="rgb(255,233,0)"/><path d=" M 869.22 413.254 Q 869.22 405.434 869.22 395 L 892 395 Q 892 404.335 892 413.254 C 892 422.173 886.896 427 880.61 427 C 874.323 427 869.22 422.173 869.22 413.254 Z " fill="rgb(218,41,28)"/><path d=" M 873.22 412.81 Q 873.22 407.424 873.22 400.237 L 888 400.237 Q 888 406.667 888 412.81 C 888 418.954 884.689 422.279 880.61 422.279 C 876.531 422.279 873.22 418.954 873.22 412.81 Z " fill="rgb(255,255,255)"/></g></svg>