<?xml version="1.0" encoding="UTF-8" standalone="no"?>
<!-- Generator: Gravit.io -->
<svg xmlns="http://www.w3.org/2000/svg" xmlns:xlink="http://www.w3.org/1999/xlink" style="isolation:isolate" viewBox="240 360 100 100" width="100pt" height="100pt"><g style="isolation:isolate"><rect x="280.61" y="360" width="59.39" height="100" transform="matrix(-1,0,0,-1,620.61,820)" fill="rgb(218,41,28)"/><rect x="240" y="360" width="40.61" height="100" transform="matrix(-1,0,0,-1,520.61,820)" fill="rgb(4,106,56)"/><circle vector-effect="non-scaling-stroke" cx="280.609756097561" cy="410" r="21.39024390243901" fill="rgb(255,233,0)"/><path d=" M 269.22 413.254 Q 269.22 405.434 269.22 395 L 292 395 Q 292 404.335 292 413.254 C 292 422.173 286.896 427 280.61 427 C 274.323 427 269.22 422.173 269.22 413.254 Z " fill="rgb(218,41,28)"/><path d=" M 273.22 412.81 Q 273.22 407.424 273.22 400.237 L 288 400.237 Q 288 406.667 288 412.81 C 288 418.954 284.689 422.279 280.61 422.279 C 276.531 422.279 273.22 418.954 273.22 412.81 Z " fill="rgb(255,255,255)"/></g></svg>