<?xml version="1.0" encoding="UTF-8" standalone="no"?>
<!-- Generator: Gravit.io -->
<svg xmlns="http://www.w3.org/2000/svg" xmlns:xlink="http://www.w3.org/1999/xlink" style="isolation:isolate" viewBox="0 0 100 100" width="100pt" height="100pt"><g style="isolation:isolate"><rect x="40.61" y="0" width="59.39" height="100" transform="matrix(-1,0,0,-1,140.61,100)" fill="rgb(218,41,28)"/><rect x="0" y="0" width="40.61" height="100" transform="matrix(-1,0,0,-1,40.61,100)" fill="rgb(4,106,56)"/><circle vector-effect="non-scaling-stroke" cx="40.609756097561004" cy="49.999999999999964" r="21.390243902438996" fill="rgb(255,233,0)"/><path d=" M 29.22 53.254 Q 29.22 45.434 29.22 35 L 52 35 Q 52 44.335 52 53.254 C 52 62.173 46.896 67 40.61 67 C 34.323 67 29.22 62.173 29.22 53.254 Z " fill="rgb(218,41,28)"/><path d=" M 33.22 52.81 Q 33.22 47.424 33.22 40.237 L 48 40.237 Q 48 46.667 48 52.81 C 48 58.954 44.689 62.279 40.61 62.279 C 36.531 62.279 33.22 58.954 33.22 52.81 Z " fill="rgb(255,255,255)"/></g></svg>