<?xml version="1.0" encoding="UTF-8" standalone="no"?>
<!-- Generator: Gravit.io -->
<svg xmlns="http://www.w3.org/2000/svg" xmlns:xlink="http://www.w3.org/1999/xlink" style="isolation:isolate" viewBox="720 720 100 100" width="100pt" height="100pt"><g style="isolation:isolate"><rect x="720" y="720" width="100" height="100" transform="matrix(0,1,-1,0,1540,0)" fill="rgb(218,41,28)"/><path d=" M 770.901 809.342 C 772.42 806.917 774.189 804.459 775.706 802.042 C 773.723 800.364 772.983 799.026 772.994 797.388 C 773.083 796.161 773.939 795.454 774.497 796.942 C 775.281 798.592 776.958 801.321 779.274 799.718 C 780.29 798.993 780.275 797.921 778.885 798.05 C 777.172 797.931 776.122 797.014 775.353 794.64 C 775.217 793.329 775.766 793.362 776.54 794.208 C 777.543 795.319 779.518 797.01 781.705 796.107 C 782.92 795.606 783.263 794.577 781.432 794.331 C 779.689 794.355 778.277 793.248 776.864 791.569 C 776.086 790.645 777.226 789.702 777.914 790.497 C 778.525 791.005 779.383 791.951 780.115 792.087 C 780.969 792.244 782.019 792.169 783.187 791.561 C 784.436 790.534 784.03 789.791 782.503 789.619 C 781.322 789.682 780.677 790.118 779.151 789.123 C 778.389 788.626 777.1 787.885 776.123 786.613 C 775.635 785.976 775.16 785.465 774.771 784.635 C 774.382 783.804 774.047 783.366 773.893 781.98 C 773.786 781.015 774.039 780.368 774.361 780.017 C 774.683 779.665 775.187 779.6 775.598 779.707 C 776.42 779.922 777.162 780.803 777.749 781.455 C 779.285 783.033 780.023 785.141 781.676 787.533 C 781.882 787.795 782.218 787.743 782.568 787.533 C 783.233 786.978 783.756 786.53 784.417 785.908 C 787.054 786.747 788.927 786.937 791.567 787.778 C 790.523 788.074 790.248 788.502 789.2 788.799 C 788.087 788.198 787.238 788.672 786.855 789.713 C 785.802 790.425 785.789 791.209 786.244 792.015 C 786.382 791.454 786.08 790.752 787.79 790.698 C 789.227 791.004 790.111 790.534 790.502 789.346 C 791.602 788.998 792.129 788.782 793.221 788.432 C 794.155 789.206 795.565 789.374 796.501 790.137 C 796.607 791.298 797.337 792.09 799.278 791.597 C 799.9 791.976 800.239 792.579 800.45 793.281 C 800.576 792.513 800.44 791.775 800.148 791.058 C 799.765 789.281 798.628 788.442 796.451 789.065 C 795.917 788.608 795.186 788.368 794.652 787.915 C 796.104 787.819 797.41 787.744 798.86 787.656 C 799.606 788.332 800.587 788.527 802.09 787.656 C 802.45 787.285 802.972 787.387 803.802 787.728 C 803.274 786.791 802.947 786.774 802.176 786.656 C 801.165 785.466 800.036 785.383 798.623 786.9 C 797.142 786.945 796.108 786.972 794.624 787.022 C 795.419 786.351 795.842 785.837 796.638 785.167 C 797.86 785.555 799.055 785.423 799.572 784.059 C 799.969 783.598 800.409 783.327 801.421 783.289 C 800.72 782.704 800.138 782.49 798.875 783.073 C 797.011 782.236 796.856 783.424 796.523 784.203 C 795.26 785.032 794.239 785.734 792.976 786.562 C 790.402 785.811 788.312 785.39 785.74 784.642 C 786.298 784.064 786.858 783.538 787.416 782.958 C 787.563 782.469 787.305 782.221 786.884 782.145 C 782.724 781.303 780.346 779.661 778.9 775.492 C 778.294 773.747 779.6 773.229 780.05 774.298 C 780.674 775.778 781.356 777.406 783.223 778.664 C 783.868 779.099 785.783 778.746 784.654 777.686 C 783.474 776.747 782.972 776.335 782.388 774.039 C 782.388 772.868 783.606 772.346 784.287 773.464 C 785.009 775.756 785.086 776.745 786.395 778.218 C 787.389 779.338 788.689 780.086 789.33 780.074 C 790.493 780.051 791.658 778.83 790.106 777.945 C 787.835 777.055 787.001 775.836 786.668 774.679 C 786.302 772.658 786.701 771.677 787.948 772.672 C 789.719 774.636 793.096 778.3 794.861 780.002 C 796.846 781.489 799.116 781.536 800.932 780.031 C 801.966 778.866 801.597 777.605 799.975 777.88 C 796.317 778.183 793.539 776.402 790.502 771.601 C 789.9 770.508 789.736 768.956 791.056 770.112 C 792.573 772.116 794.781 773.827 796.839 774.557 C 798.897 775.286 800.803 775.034 801.263 774.248 C 802.026 772.943 801.853 771.507 800.472 771.982 C 799.339 772.371 797.74 772.472 796.077 771.838 C 794.413 771.204 792.687 769.836 790.847 767.515 C 790.221 766.2 790.429 765.09 791.696 765.767 C 794.707 768.265 798.586 770.287 800.572 769.069 C 802.027 768.176 802.055 765.896 800.205 766.04 C 796.476 766.544 795.065 765.73 791.487 762.638 C 790.669 762.043 790.727 760.541 792.02 761.502 C 795.035 763.397 799.144 764.139 800.759 763.149 C 802.212 762.257 801.997 759.544 799.551 760.509 C 797.597 761.671 795.431 761.637 791.099 758.61 C 790.007 757.726 790.821 756.564 791.718 757.063 C 795.201 759.005 800.275 759.833 801.601 755.891 C 802.11 754.379 801.185 753.499 799.817 754.546 C 796.828 757.25 793.434 755.92 791.538 754.56 C 791.041 754.541 789.989 752.658 791.746 752.949 C 796.284 753.967 800.769 753.086 801.579 749.942 C 802.058 748.923 801.126 747.123 799.472 748.633 C 797.29 750.737 794.98 750.809 792.084 750.791 C 790.604 750.492 790.592 748.895 791.825 748.662 C 794.116 748.713 796.38 747.732 798.191 746.734 C 799.956 745.745 801.427 744.349 801.889 742.418 C 802.174 740.689 800.474 738.854 799.443 740.685 C 797.929 743.374 794.564 745.899 790.833 746.353 C 790.64 746.035 790.146 745.219 789.545 745.447 C 787.349 746.278 784.313 747.676 781.813 749.058 C 781.27 749.358 781.907 750.809 782.029 751.367 C 782.153 752.787 781.716 753.694 781.266 754.222 C 780.816 754.75 779.59 755.097 778.9 754.913 C 777.519 754.544 776.776 753.346 777.008 751.215 C 777.08 750.99 777.139 749.967 778.267 748.633 C 778.833 747.963 779.627 747.108 780.885 746.425 C 782.143 745.742 784.047 745.363 786.337 744.864 C 787.731 744.591 788.439 744.066 788.524 743.505 C 787.857 743.659 786.762 744.226 786.042 744.087 C 785.334 743.951 784.977 743.609 784.661 743.411 C 785.187 743.301 786.153 743.426 787.013 743.425 C 787.874 743.425 788.633 743.243 789.142 743.159 C 790.202 742.985 791.042 742.553 791.545 741.584 C 791.762 740.54 791.064 740.351 790.408 741.023 C 789.852 741.593 789.741 741.826 789.387 742.073 C 789.033 742.321 788.438 742.56 788.013 742.634 C 787.151 742.785 786.301 742.955 785.201 742.692 C 785.418 742.419 785.907 741.979 786.352 741.706 C 786.796 741.433 787.231 741.299 787.646 741.368 C 787.924 741.415 788.285 741.662 788.581 742.116 C 788.765 740.971 788.44 739.683 785.323 740.217 C 785.365 739.359 783.507 738.983 782.388 739.002 L 782.388 739.002 L 782.387 739 C 781.753 739.011 780.453 739.382 779.517 739.82 C 778.036 740.269 776.565 740.597 774.842 740.719 C 775.837 741.555 776.032 741.603 777.035 742.316 C 775.516 742.869 774.34 744.014 773.813 744.762 C 775.14 744.825 775.578 744.714 776.028 744.906 C 774.18 745.441 773.343 745.754 772.367 746.732 C 772.713 746.795 773.227 746.888 773.446 746.97 C 773.673 747.055 773.579 747.172 773.424 747.337 C 773.001 747.602 771.381 749.511 770.901 749.954 C 770.421 749.511 768.801 747.602 768.377 747.337 C 768.223 747.172 768.129 747.055 768.356 746.97 C 768.575 746.888 769.089 746.795 769.435 746.732 C 768.459 745.754 767.622 745.441 765.774 744.906 C 766.224 744.714 766.662 744.825 767.989 744.762 C 767.462 744.014 766.286 742.869 764.767 742.316 C 765.77 741.603 765.965 741.555 766.96 740.719 C 765.237 740.597 763.766 740.269 762.285 739.82 C 761.349 739.382 760.049 739.011 759.415 739 L 759.414 739.002 L 759.414 739.002 C 758.295 738.983 756.437 739.359 756.479 740.217 C 753.362 739.683 753.037 740.971 753.221 742.116 C 753.517 741.662 753.878 741.415 754.156 741.368 C 754.571 741.299 755.006 741.433 755.45 741.706 C 755.895 741.979 756.384 742.419 756.601 742.692 C 755.501 742.955 754.651 742.785 753.789 742.634 C 753.364 742.56 752.769 742.321 752.415 742.073 C 752.061 741.826 751.95 741.593 751.393 741.023 C 750.738 740.351 750.039 740.54 750.257 741.584 C 750.76 742.553 751.6 742.985 752.659 743.159 C 753.169 743.243 753.928 743.425 754.789 743.425 C 755.649 743.426 756.615 743.301 757.141 743.411 C 756.825 743.609 756.468 743.951 755.76 744.087 C 755.04 744.226 753.945 743.659 753.278 743.505 C 753.363 744.066 754.071 744.591 755.465 744.864 C 757.755 745.363 759.659 745.742 760.917 746.425 C 762.175 747.108 762.969 747.963 763.535 748.633 C 764.663 749.967 764.722 750.99 764.794 751.215 C 765.026 753.346 764.283 754.544 762.902 754.913 C 762.212 755.097 760.986 754.75 760.536 754.222 C 760.086 753.694 759.649 752.787 759.773 751.367 C 759.895 750.809 760.532 749.358 759.989 749.058 C 757.489 747.676 754.453 746.278 752.257 745.447 C 751.656 745.219 751.162 746.035 750.969 746.353 C 747.238 745.899 743.873 743.374 742.359 740.685 C 741.328 738.854 739.628 740.689 739.913 742.418 C 740.375 744.349 741.846 745.745 743.611 746.734 C 745.422 747.732 747.686 748.713 749.976 748.662 C 751.21 748.895 751.198 750.492 749.718 750.791 C 746.822 750.809 744.511 750.737 742.33 748.633 C 740.676 747.123 739.744 748.923 740.223 749.942 C 741.033 753.086 745.518 753.967 750.056 752.949 C 751.813 752.658 750.761 754.541 750.264 754.56 C 748.368 755.92 744.974 757.25 741.985 754.546 C 740.617 753.499 739.692 754.379 740.201 755.891 C 741.527 759.833 746.601 759.005 750.084 757.063 C 750.981 756.564 751.795 757.726 750.703 758.61 C 746.371 761.637 744.205 761.671 742.251 760.509 C 739.805 759.544 739.59 762.257 741.043 763.149 C 742.658 764.139 746.767 763.397 749.782 761.502 C 751.075 760.541 751.133 762.043 750.315 762.638 C 746.737 765.73 745.326 766.544 741.597 766.04 C 739.747 765.896 739.775 768.176 741.23 769.069 C 743.216 770.287 747.095 768.265 750.106 765.767 C 751.373 765.09 751.581 766.2 750.955 767.515 C 749.115 769.836 747.389 771.204 745.725 771.838 C 744.062 772.472 742.462 772.371 741.33 771.982 C 739.949 771.507 739.776 772.943 740.539 774.248 C 740.999 775.034 742.905 775.286 744.963 774.557 C 747.02 773.827 749.229 772.116 750.746 770.112 C 752.066 768.956 751.902 770.508 751.3 771.601 C 748.263 776.402 745.485 778.183 741.827 777.88 C 740.205 777.605 739.836 778.866 740.87 780.031 C 742.686 781.536 744.956 781.489 746.941 780.002 C 748.706 778.3 752.083 774.636 753.854 772.672 C 755.101 771.677 755.5 772.658 755.134 774.679 C 754.801 775.836 753.967 777.055 751.696 777.945 C 750.144 778.83 751.309 780.051 752.472 780.074 C 753.113 780.086 754.413 779.338 755.407 778.218 C 756.716 776.745 756.793 775.756 757.515 773.464 C 758.196 772.346 759.414 772.868 759.414 774.039 C 758.83 776.335 758.328 776.747 757.148 777.686 C 756.019 778.746 757.934 779.099 758.579 778.664 C 760.446 777.406 761.128 775.778 761.751 774.298 C 762.202 773.229 763.508 773.747 762.902 775.492 C 761.455 779.661 759.078 781.303 754.918 782.145 C 754.497 782.221 754.239 782.469 754.386 782.958 C 754.944 783.538 755.503 784.064 756.062 784.642 C 753.49 785.39 751.4 785.811 748.826 786.562 C 747.563 785.734 746.542 785.032 745.279 784.203 C 744.946 783.424 744.791 782.236 742.927 783.073 C 741.664 782.49 741.082 782.704 740.381 783.289 C 741.393 783.327 741.833 783.598 742.23 784.059 C 742.747 785.423 743.942 785.555 745.164 785.167 C 745.96 785.837 746.383 786.351 747.178 787.022 C 745.694 786.972 744.66 786.945 743.179 786.9 C 741.766 785.383 740.637 785.466 739.626 786.656 C 738.855 786.774 738.528 786.791 738 787.728 C 738.83 787.387 739.352 787.285 739.712 787.656 C 741.215 788.527 742.196 788.332 742.942 787.656 C 744.391 787.744 745.698 787.819 747.15 787.915 C 746.616 788.368 745.885 788.608 745.351 789.065 C 743.174 788.442 742.037 789.281 741.654 791.058 C 741.362 791.775 741.226 792.513 741.352 793.281 C 741.563 792.579 741.902 791.976 742.524 791.597 C 744.465 792.09 745.195 791.298 745.301 790.137 C 746.236 789.374 747.647 789.206 748.581 788.432 C 749.673 788.782 750.2 788.998 751.3 789.346 C 751.691 790.534 752.575 791.004 754.012 790.698 C 755.721 790.752 755.42 791.454 755.558 792.015 C 756.013 791.209 756 790.425 754.947 789.713 C 754.564 788.672 753.715 788.198 752.602 788.799 C 751.554 788.502 751.279 788.074 750.235 787.778 C 752.875 786.937 754.748 786.747 757.385 785.908 C 758.046 786.53 758.569 786.978 759.234 787.533 C 759.584 787.743 759.92 787.795 760.126 787.533 C 761.779 785.141 762.517 783.033 764.053 781.455 C 764.64 780.803 765.382 779.922 766.204 779.707 C 766.615 779.6 767.119 779.665 767.441 780.017 C 767.763 780.368 768.016 781.015 767.909 781.98 C 767.755 783.366 767.42 783.804 767.031 784.635 C 766.642 785.465 766.167 785.976 765.679 786.613 C 764.702 787.885 763.413 788.626 762.651 789.123 C 761.125 790.118 760.48 789.682 759.299 789.619 C 757.772 789.791 757.366 790.534 758.615 791.561 C 759.783 792.169 760.833 792.244 761.687 792.087 C 762.419 791.951 763.277 791.005 763.888 790.497 C 764.576 789.702 765.716 790.645 764.938 791.569 C 763.525 793.248 762.113 794.355 760.37 794.331 C 758.539 794.577 758.882 795.606 760.097 796.107 C 762.284 797.01 764.259 795.319 765.262 794.208 C 766.036 793.362 766.585 793.329 766.449 794.64 C 765.68 797.014 764.63 797.931 762.917 798.05 C 761.527 797.921 761.512 798.993 762.528 799.718 C 764.844 801.321 766.521 798.592 767.305 796.942 C 767.863 795.454 768.719 796.161 768.808 797.388 C 768.819 799.026 768.079 800.364 766.096 802.042 C 767.613 804.459 769.382 806.917 770.901 809.342 L 770.901 809.343 C 770.901 809.343 770.901 809.343 770.901 809.343 C 770.901 809.343 770.901 809.343 770.901 809.343 L 770.901 809.342 Z  M 782.223 741.009 C 781.312 741.009 780.748 741.321 780.748 741.699 C 780.748 742.084 781.312 742.397 782.223 742.397 C 783.13 742.397 783.704 742.055 783.704 741.67 C 783.704 741.292 783.13 741.009 782.223 741.009 L 782.223 741.009 Z  M 759.579 741.009 C 760.49 741.009 761.054 741.321 761.054 741.699 C 761.054 742.084 760.49 742.397 759.579 742.397 C 758.672 742.397 758.097 742.055 758.097 741.67 C 758.098 741.292 758.672 741.009 759.579 741.009 L 759.579 741.009 Z " fill-rule="evenodd" fill="rgb(0,0,0)"/></g></svg>