<?xml version="1.0" encoding="UTF-8" standalone="no"?>
<!-- Generator: Gravit.io -->
<svg xmlns="http://www.w3.org/2000/svg" xmlns:xlink="http://www.w3.org/1999/xlink" style="isolation:isolate" viewBox="120 720 100 100" width="100pt" height="100pt"><g style="isolation:isolate"><rect x="120" y="720" width="100" height="100" transform="matrix(0,1,-1,0,940,600)" fill="rgb(218,41,28)"/><path d=" M 170.901 809.342 C 172.42 806.917 174.189 804.459 175.706 802.042 C 173.723 800.364 172.983 799.026 172.994 797.388 C 173.083 796.161 173.939 795.454 174.497 796.942 C 175.281 798.592 176.958 801.321 179.274 799.718 C 180.29 798.993 180.275 797.921 178.885 798.05 C 177.172 797.931 176.122 797.014 175.353 794.64 C 175.217 793.329 175.766 793.362 176.54 794.208 C 177.543 795.319 179.518 797.01 181.705 796.107 C 182.92 795.606 183.263 794.577 181.432 794.331 C 179.689 794.355 178.277 793.248 176.864 791.569 C 176.086 790.645 177.226 789.702 177.914 790.497 C 178.525 791.005 179.383 791.951 180.115 792.087 C 180.969 792.244 182.019 792.169 183.187 791.561 C 184.436 790.534 184.03 789.791 182.503 789.619 C 181.322 789.682 180.677 790.118 179.151 789.123 C 178.389 788.626 177.1 787.885 176.123 786.613 C 175.635 785.976 175.16 785.465 174.771 784.635 C 174.382 783.804 174.047 783.366 173.893 781.98 C 173.786 781.015 174.039 780.368 174.361 780.017 C 174.683 779.665 175.187 779.6 175.598 779.707 C 176.42 779.922 177.162 780.803 177.749 781.455 C 179.285 783.033 180.023 785.141 181.676 787.533 C 181.882 787.795 182.218 787.743 182.568 787.533 C 183.233 786.978 183.756 786.53 184.417 785.908 C 187.054 786.747 188.927 786.937 191.567 787.778 C 190.523 788.074 190.248 788.502 189.2 788.799 C 188.087 788.198 187.238 788.672 186.855 789.713 C 185.802 790.425 185.789 791.209 186.244 792.015 C 186.382 791.454 186.08 790.752 187.79 790.698 C 189.227 791.004 190.111 790.534 190.502 789.346 C 191.602 788.998 192.129 788.782 193.221 788.432 C 194.155 789.206 195.565 789.374 196.501 790.137 C 196.607 791.298 197.337 792.09 199.278 791.597 C 199.9 791.976 200.239 792.579 200.45 793.281 C 200.576 792.513 200.44 791.775 200.148 791.058 C 199.765 789.281 198.628 788.442 196.451 789.065 C 195.917 788.608 195.186 788.368 194.652 787.915 C 196.104 787.819 197.41 787.744 198.86 787.656 C 199.606 788.332 200.587 788.527 202.09 787.656 C 202.45 787.285 202.972 787.387 203.802 787.728 C 203.274 786.791 202.947 786.774 202.176 786.656 C 201.165 785.466 200.036 785.383 198.623 786.9 C 197.142 786.945 196.108 786.972 194.624 787.022 C 195.419 786.351 195.842 785.837 196.638 785.167 C 197.86 785.555 199.055 785.423 199.572 784.059 C 199.969 783.598 200.409 783.327 201.421 783.289 C 200.72 782.704 200.138 782.49 198.875 783.073 C 197.011 782.236 196.856 783.424 196.523 784.203 C 195.26 785.032 194.239 785.734 192.976 786.562 C 190.402 785.811 188.312 785.39 185.74 784.642 C 186.298 784.064 186.858 783.538 187.416 782.958 C 187.563 782.469 187.305 782.221 186.884 782.145 C 182.724 781.303 180.346 779.661 178.9 775.492 C 178.294 773.747 179.6 773.229 180.05 774.298 C 180.674 775.778 181.356 777.406 183.223 778.664 C 183.868 779.099 185.783 778.746 184.654 777.686 C 183.474 776.747 182.972 776.335 182.388 774.039 C 182.388 772.868 183.606 772.346 184.287 773.464 C 185.009 775.756 185.086 776.745 186.395 778.218 C 187.389 779.338 188.689 780.086 189.33 780.074 C 190.493 780.051 191.658 778.83 190.106 777.945 C 187.835 777.055 187.001 775.836 186.668 774.679 C 186.302 772.658 186.701 771.677 187.948 772.672 C 189.719 774.636 193.096 778.3 194.861 780.002 C 196.846 781.489 199.116 781.536 200.932 780.031 C 201.966 778.866 201.597 777.605 199.975 777.88 C 196.317 778.183 193.539 776.402 190.502 771.601 C 189.9 770.508 189.736 768.956 191.056 770.112 C 192.573 772.116 194.781 773.827 196.839 774.557 C 198.897 775.286 200.803 775.034 201.263 774.248 C 202.026 772.943 201.853 771.507 200.472 771.982 C 199.339 772.371 197.74 772.472 196.077 771.838 C 194.413 771.204 192.687 769.836 190.847 767.515 C 190.221 766.2 190.429 765.09 191.696 765.767 C 194.707 768.265 198.586 770.287 200.572 769.069 C 202.027 768.176 202.055 765.896 200.205 766.04 C 196.476 766.544 195.065 765.73 191.487 762.638 C 190.669 762.043 190.727 760.541 192.02 761.502 C 195.035 763.397 199.144 764.139 200.759 763.149 C 202.212 762.257 201.997 759.544 199.551 760.509 C 197.597 761.671 195.431 761.637 191.099 758.61 C 190.007 757.726 190.821 756.564 191.718 757.063 C 195.201 759.005 200.275 759.833 201.601 755.891 C 202.11 754.379 201.185 753.499 199.817 754.546 C 196.828 757.25 193.434 755.92 191.538 754.56 C 191.041 754.541 189.989 752.658 191.746 752.949 C 196.284 753.967 200.769 753.086 201.579 749.942 C 202.058 748.923 201.126 747.123 199.472 748.633 C 197.29 750.737 194.98 750.809 192.084 750.791 C 190.604 750.492 190.592 748.895 191.825 748.662 C 194.116 748.713 196.38 747.732 198.191 746.734 C 199.956 745.745 201.427 744.349 201.889 742.418 C 202.174 740.689 200.474 738.854 199.443 740.685 C 197.929 743.374 194.564 745.899 190.833 746.353 C 190.64 746.035 190.146 745.219 189.545 745.447 C 187.349 746.278 184.313 747.676 181.813 749.058 C 181.27 749.358 181.907 750.809 182.029 751.367 C 182.153 752.787 181.716 753.694 181.266 754.222 C 180.816 754.75 179.59 755.097 178.9 754.913 C 177.519 754.544 176.776 753.346 177.008 751.215 C 177.08 750.99 177.139 749.967 178.267 748.633 C 178.833 747.963 179.627 747.108 180.885 746.425 C 182.143 745.742 184.047 745.363 186.337 744.864 C 187.731 744.591 188.439 744.066 188.524 743.505 C 187.857 743.659 186.762 744.226 186.042 744.087 C 185.334 743.951 184.977 743.609 184.661 743.411 C 185.187 743.301 186.153 743.426 187.013 743.425 C 187.874 743.425 188.633 743.243 189.142 743.159 C 190.202 742.985 191.042 742.553 191.545 741.584 C 191.762 740.54 191.064 740.351 190.408 741.023 C 189.852 741.593 189.741 741.826 189.387 742.073 C 189.033 742.321 188.438 742.56 188.013 742.634 C 187.151 742.785 186.301 742.955 185.201 742.692 C 185.418 742.419 185.907 741.979 186.352 741.706 C 186.796 741.433 187.231 741.299 187.646 741.368 C 187.924 741.415 188.285 741.662 188.581 742.116 C 188.765 740.971 188.44 739.683 185.323 740.217 C 185.365 739.359 183.507 738.983 182.388 739.002 L 182.388 739.002 L 182.387 739 C 181.753 739.011 180.453 739.382 179.517 739.82 C 178.036 740.269 176.565 740.597 174.842 740.719 C 175.837 741.555 176.032 741.603 177.035 742.316 C 175.516 742.869 174.34 744.014 173.813 744.762 C 175.14 744.825 175.578 744.714 176.028 744.906 C 174.18 745.441 173.343 745.754 172.367 746.732 C 172.713 746.795 173.227 746.888 173.446 746.97 C 173.673 747.055 173.579 747.172 173.424 747.337 C 173.001 747.602 171.381 749.511 170.901 749.954 C 170.421 749.511 168.801 747.602 168.377 747.337 C 168.223 747.172 168.129 747.055 168.356 746.97 C 168.575 746.888 169.089 746.795 169.435 746.732 C 168.459 745.754 167.622 745.441 165.774 744.906 C 166.224 744.714 166.662 744.825 167.989 744.762 C 167.462 744.014 166.286 742.869 164.767 742.316 C 165.77 741.603 165.965 741.555 166.96 740.719 C 165.237 740.597 163.766 740.269 162.285 739.82 C 161.349 739.382 160.049 739.011 159.415 739 L 159.414 739.002 L 159.414 739.002 C 158.295 738.983 156.437 739.359 156.479 740.217 C 153.362 739.683 153.037 740.971 153.221 742.116 C 153.517 741.662 153.878 741.415 154.156 741.368 C 154.571 741.299 155.006 741.433 155.45 741.706 C 155.895 741.979 156.384 742.419 156.601 742.692 C 155.501 742.955 154.651 742.785 153.789 742.634 C 153.364 742.56 152.769 742.321 152.415 742.073 C 152.061 741.826 151.95 741.593 151.393 741.023 C 150.738 740.351 150.039 740.54 150.257 741.584 C 150.76 742.553 151.6 742.985 152.659 743.159 C 153.169 743.243 153.928 743.425 154.789 743.425 C 155.649 743.426 156.615 743.301 157.141 743.411 C 156.825 743.609 156.468 743.951 155.76 744.087 C 155.04 744.226 153.945 743.659 153.278 743.505 C 153.363 744.066 154.071 744.591 155.465 744.864 C 157.755 745.363 159.659 745.742 160.917 746.425 C 162.175 747.108 162.969 747.963 163.535 748.633 C 164.663 749.967 164.722 750.99 164.794 751.215 C 165.026 753.346 164.283 754.544 162.902 754.913 C 162.212 755.097 160.986 754.75 160.536 754.222 C 160.086 753.694 159.649 752.787 159.773 751.367 C 159.895 750.809 160.532 749.358 159.989 749.058 C 157.489 747.676 154.453 746.278 152.257 745.447 C 151.656 745.219 151.162 746.035 150.969 746.353 C 147.238 745.899 143.873 743.374 142.359 740.685 C 141.328 738.854 139.628 740.689 139.913 742.418 C 140.375 744.349 141.846 745.745 143.611 746.734 C 145.422 747.732 147.686 748.713 149.976 748.662 C 151.21 748.895 151.198 750.492 149.718 750.791 C 146.822 750.809 144.511 750.737 142.33 748.633 C 140.676 747.123 139.744 748.923 140.223 749.942 C 141.033 753.086 145.518 753.967 150.056 752.949 C 151.813 752.658 150.761 754.541 150.264 754.56 C 148.368 755.92 144.974 757.25 141.985 754.546 C 140.617 753.499 139.692 754.379 140.201 755.891 C 141.527 759.833 146.601 759.005 150.084 757.063 C 150.981 756.564 151.795 757.726 150.703 758.61 C 146.371 761.637 144.205 761.671 142.251 760.509 C 139.805 759.544 139.59 762.257 141.043 763.149 C 142.658 764.139 146.767 763.397 149.782 761.502 C 151.075 760.541 151.133 762.043 150.315 762.638 C 146.737 765.73 145.326 766.544 141.597 766.04 C 139.747 765.896 139.775 768.176 141.23 769.069 C 143.216 770.287 147.095 768.265 150.106 765.767 C 151.373 765.09 151.581 766.2 150.955 767.515 C 149.115 769.836 147.389 771.204 145.725 771.838 C 144.062 772.472 142.462 772.371 141.33 771.982 C 139.949 771.507 139.776 772.943 140.539 774.248 C 140.999 775.034 142.905 775.286 144.963 774.557 C 147.02 773.827 149.229 772.116 150.746 770.112 C 152.066 768.956 151.902 770.508 151.3 771.601 C 148.263 776.402 145.485 778.183 141.827 777.88 C 140.205 777.605 139.836 778.866 140.87 780.031 C 142.686 781.536 144.956 781.489 146.941 780.002 C 148.706 778.3 152.083 774.636 153.854 772.672 C 155.101 771.677 155.5 772.658 155.134 774.679 C 154.801 775.836 153.967 777.055 151.696 777.945 C 150.144 778.83 151.309 780.051 152.472 780.074 C 153.113 780.086 154.413 779.338 155.407 778.218 C 156.716 776.745 156.793 775.756 157.515 773.464 C 158.196 772.346 159.414 772.868 159.414 774.039 C 158.83 776.335 158.328 776.747 157.148 777.686 C 156.019 778.746 157.934 779.099 158.579 778.664 C 160.446 777.406 161.128 775.778 161.751 774.298 C 162.202 773.229 163.508 773.747 162.902 775.492 C 161.455 779.661 159.078 781.303 154.918 782.145 C 154.497 782.221 154.239 782.469 154.386 782.958 C 154.944 783.538 155.503 784.064 156.062 784.642 C 153.49 785.39 151.4 785.811 148.826 786.562 C 147.563 785.734 146.542 785.032 145.279 784.203 C 144.946 783.424 144.791 782.236 142.927 783.073 C 141.664 782.49 141.082 782.704 140.381 783.289 C 141.393 783.327 141.833 783.598 142.23 784.059 C 142.747 785.423 143.942 785.555 145.164 785.167 C 145.96 785.837 146.383 786.351 147.178 787.022 C 145.694 786.972 144.66 786.945 143.179 786.9 C 141.766 785.383 140.637 785.466 139.626 786.656 C 138.855 786.774 138.528 786.791 138 787.728 C 138.83 787.387 139.352 787.285 139.712 787.656 C 141.215 788.527 142.196 788.332 142.942 787.656 C 144.391 787.744 145.698 787.819 147.15 787.915 C 146.616 788.368 145.885 788.608 145.351 789.065 C 143.174 788.442 142.037 789.281 141.654 791.058 C 141.362 791.775 141.226 792.513 141.352 793.281 C 141.563 792.579 141.902 791.976 142.524 791.597 C 144.465 792.09 145.195 791.298 145.301 790.137 C 146.236 789.374 147.647 789.206 148.581 788.432 C 149.673 788.782 150.2 788.998 151.3 789.346 C 151.691 790.534 152.575 791.004 154.012 790.698 C 155.721 790.752 155.42 791.454 155.558 792.015 C 156.013 791.209 156 790.425 154.947 789.713 C 154.564 788.672 153.715 788.198 152.602 788.799 C 151.554 788.502 151.279 788.074 150.235 787.778 C 152.875 786.937 154.748 786.747 157.385 785.908 C 158.046 786.53 158.569 786.978 159.234 787.533 C 159.584 787.743 159.92 787.795 160.126 787.533 C 161.779 785.141 162.517 783.033 164.053 781.455 C 164.64 780.803 165.382 779.922 166.204 779.707 C 166.615 779.6 167.119 779.665 167.441 780.017 C 167.763 780.368 168.016 781.015 167.909 781.98 C 167.755 783.366 167.42 783.804 167.031 784.635 C 166.642 785.465 166.167 785.976 165.679 786.613 C 164.702 787.885 163.413 788.626 162.651 789.123 C 161.125 790.118 160.48 789.682 159.299 789.619 C 157.772 789.791 157.366 790.534 158.615 791.561 C 159.783 792.169 160.833 792.244 161.687 792.087 C 162.419 791.951 163.277 791.005 163.888 790.497 C 164.576 789.702 165.716 790.645 164.938 791.569 C 163.525 793.248 162.113 794.355 160.37 794.331 C 158.539 794.577 158.882 795.606 160.097 796.107 C 162.284 797.01 164.259 795.319 165.262 794.208 C 166.036 793.362 166.585 793.329 166.449 794.64 C 165.68 797.014 164.63 797.931 162.917 798.05 C 161.527 797.921 161.512 798.993 162.528 799.718 C 164.844 801.321 166.521 798.592 167.305 796.942 C 167.863 795.454 168.719 796.161 168.808 797.388 C 168.819 799.026 168.079 800.364 166.096 802.042 C 167.613 804.459 169.382 806.917 170.901 809.342 L 170.901 809.343 C 170.901 809.343 170.901 809.343 170.901 809.343 C 170.901 809.343 170.901 809.343 170.901 809.343 L 170.901 809.342 Z  M 182.223 741.009 C 181.312 741.009 180.748 741.321 180.748 741.699 C 180.748 742.084 181.312 742.397 182.223 742.397 C 183.13 742.397 183.704 742.055 183.704 741.67 C 183.704 741.292 183.13 741.009 182.223 741.009 L 182.223 741.009 Z  M 159.579 741.009 C 160.49 741.009 161.054 741.321 161.054 741.699 C 161.054 742.084 160.49 742.397 159.579 742.397 C 158.672 742.397 158.097 742.055 158.097 741.67 C 158.098 741.292 158.672 741.009 159.579 741.009 L 159.579 741.009 Z " fill-rule="evenodd" fill="rgb(0,0,0)"/></g></svg>