<?xml version="1.0" encoding="UTF-8" standalone="no"?>
<!-- Generator: Gravit.io -->
<svg xmlns="http://www.w3.org/2000/svg" xmlns:xlink="http://www.w3.org/1999/xlink" style="isolation:isolate" viewBox="960 600 100 100" width="100pt" height="100pt"><g style="isolation:isolate"><rect x="993.3" y="600" width="33.4" height="100" transform="matrix(0,1,-1,0,1660,-360)" fill="rgb(12,64,118)"/><rect x="993.35" y="633.35" width="33.3" height="100" transform="matrix(0,1,-1,0,1693.35,-326.65)" fill="rgb(255,255,255)"/><rect x="993.35" y="566.65" width="33.3" height="100" transform="matrix(0,1,-1,0,1626.65,-393.35)" fill="rgb(198,54,60)"/><g><path d=" M 988.424 634.898 L 988.424 672.531 C 988.424 684.564 998.179 694.319 1010.212 694.319 C 1022.245 694.319 1032 684.564 1032 672.531 L 1032 634.898 L 988.424 634.898 Z " fill="rgb(198,54,60)"/><path d=" M 1010.212 611.375 C 994.612 611.375 989.724 617.998 991.023 620.474 C 992.322 622.95 996.22 629.324 996.22 629.324 C 996.22 629.324 994.984 629.819 996.22 632.295 C 997.456 634.771 1002.285 633.099 1010.208 633.099 C 1018.131 633.099 1022.96 634.771 1024.196 632.295 C 1025.432 629.819 1024.196 629.324 1024.196 629.324 C 1024.196 629.324 1028.094 622.95 1029.397 620.474 C 1030.701 617.998 1025.812 611.375 1010.212 611.375 Z  M 996.593 623.136 C 995.472 623.485 996.593 626.912 996.197 625.43 C 995.872 624.206 994.612 623.695 994.612 624.376 C 994.612 625.058 994.117 624.376 994.24 623.14 C 994.362 621.9 993.994 621.16 993.249 620.106 C 992.509 619.052 992.509 618.125 993.439 617.503 C 994.366 616.885 996.411 616.39 996.411 616.39 C 996.411 616.39 997.215 619.92 997.646 620.724 C 998.078 621.528 998.882 622.055 998.882 622.055 C 998.882 622.055 998.51 622.641 998.882 622.95 C 999.255 623.259 999.687 624.004 999.687 624.004 C 999.687 624.004 998.328 622.891 998.082 623.136 C 997.837 623.382 998.391 623.695 998.328 624.127 C 998.264 624.562 997.583 622.827 996.593 623.136 Z  M 1009.222 623.2 C 1008.913 623.509 1008.663 622.95 1008.045 622.518 C 1007.427 622.086 1007.055 622.336 1007.178 622.831 C 1007.3 623.326 1006.433 623.263 1006.433 624.008 C 1006.433 624.753 1005.629 624.44 1005.629 624.44 C 1005.629 624.44 1006.619 621.841 1004.947 621.9 C 1004.001 621.936 1004.329 623.881 1004.947 624.562 C 1004.674 624.146 1003.894 624.131 1003.244 623.635 C 1002.594 623.14 1003.335 622.332 1002.84 622.518 C 1002.345 622.704 1002.036 623.509 1001.541 623.695 C 1001.045 623.881 1001.295 623.132 1001.541 622.518 C 1001.691 622.181 1001.569 621.785 1001.255 621.591 C 1001.255 621.591 1001.295 621.16 1001.667 620.91 C 1002.04 620.664 1002.163 620.229 1001.667 619.733 C 1001.172 619.238 999.382 616.453 999.936 615.522 C 1000.495 614.595 1002.349 613.542 1007.55 613.664 C 1008.477 617.935 1007.055 620.038 1007.055 620.038 C 1007.055 620.038 1008.109 620.72 1008.418 621.092 C 1007.673 621.405 1008.231 621.714 1008.727 622.146 C 1009.222 622.582 1009.531 622.891 1009.222 623.2 Z  M 1018.88 622.518 C 1019.125 623.136 1019.375 623.881 1018.88 623.695 C 1018.385 623.509 1018.076 622.704 1017.58 622.518 C 1017.085 622.332 1017.826 623.14 1017.176 623.635 C 1016.527 624.131 1015.75 624.146 1015.473 624.562 C 1016.091 623.881 1016.42 621.936 1015.473 621.9 C 1013.801 621.837 1014.792 624.44 1014.792 624.44 C 1014.792 624.44 1013.987 624.749 1013.987 624.008 C 1013.987 623.267 1013.12 623.326 1013.243 622.831 C 1013.365 622.336 1012.997 622.086 1012.375 622.518 C 1011.757 622.95 1011.508 623.509 1011.199 623.2 C 1010.89 622.891 1011.199 622.582 1011.694 622.146 C 1012.193 621.714 1012.751 621.405 1012.007 621.096 C 1012.316 620.724 1013.369 620.042 1013.369 620.042 C 1013.369 620.042 1011.947 617.939 1012.874 613.668 C 1018.072 613.546 1019.93 614.595 1020.488 615.526 C 1021.047 616.453 1019.252 619.242 1018.753 619.733 C 1018.254 620.225 1018.381 620.66 1018.753 620.91 C 1019.125 621.156 1019.165 621.591 1019.165 621.591 C 1019.165 621.591 1018.63 621.9 1018.88 622.518 Z  M 1027.171 620.106 C 1026.426 621.16 1026.058 621.9 1026.181 623.14 C 1026.303 624.376 1025.808 625.058 1025.808 624.376 C 1025.808 623.695 1024.549 624.21 1024.224 625.43 C 1023.828 626.912 1024.949 623.489 1023.828 623.136 C 1022.837 622.827 1021.538 625.798 1021.847 625.489 C 1022.156 625.18 1022.592 623.386 1022.342 623.136 C 1022.096 622.887 1020.734 624.004 1020.734 624.004 C 1020.734 624.004 1021.165 623.259 1021.538 622.95 C 1021.91 622.641 1021.538 622.055 1021.538 622.055 C 1021.538 622.055 1022.342 621.528 1022.774 620.724 C 1023.206 619.92 1024.01 616.39 1024.01 616.39 C 1024.01 616.39 1026.054 616.885 1026.981 617.503 C 1027.908 618.121 1027.916 619.052 1027.171 620.106 Z " fill="rgb(237,185,46)"/><path d=" M 1010.644 612.088 C 1010.644 612.482 1010.325 612.801 1009.931 612.801 C 1009.537 612.801 1009.218 612.482 1009.218 612.088 L 1009.218 605.837 C 1009.218 605.443 1009.537 605.124 1009.931 605.124 C 1010.325 605.124 1010.644 605.443 1010.644 605.837 L 1010.644 612.088 Z " fill="rgb(255,172,51)"/><path d=" M 1012.07 607.508 C 1012.071 607.681 1012.003 607.847 1011.881 607.969 C 1011.759 608.091 1011.593 608.159 1011.42 608.158 L 1008.326 608.158 C 1008.154 608.159 1007.988 608.091 1007.866 607.969 C 1007.744 607.847 1007.676 607.681 1007.677 607.508 C 1007.677 607.148 1007.966 606.859 1008.326 606.859 L 1011.42 606.859 C 1011.781 606.859 1012.07 607.148 1012.07 607.508 Z " fill="rgb(237,185,46)"/><path d=" M 1001.442 672.777 C 1000.087 675.851 999.944 677.364 998.34 677.257 C 996.731 677.15 995.598 676.877 995.598 677.527 C 995.598 678.172 998.154 677.903 998.154 677.903 C 998.154 677.903 995.741 678.933 996.216 680.117 C 996.688 681.306 998.772 678.608 998.772 678.608 C 998.772 678.608 999.195 678.715 1000 678.065 C 1000.804 677.42 1002.931 674.29 1002.931 674.29 L 1001.442 672.777 Z  M 1018.919 672.777 C 1020.274 675.851 1020.417 677.364 1022.021 677.257 C 1023.629 677.15 1024.762 676.877 1024.762 677.527 C 1024.762 678.172 1022.211 677.903 1022.211 677.903 C 1022.211 677.903 1024.624 678.933 1024.148 680.117 C 1023.677 681.306 1021.593 678.608 1021.593 678.608 C 1021.593 678.608 1021.169 678.715 1020.365 678.065 C 1019.561 677.42 1017.434 674.29 1017.434 674.29 L 1018.919 672.777 Z " fill="rgb(237,185,46)"/><path d=" M 1028.49 645.546 C 1027.793 640.761 1023.289 642.246 1021.375 645.546 C 1019.462 648.846 1017.81 650.827 1016.039 648.517 C 1014.269 646.208 1013.1 643.732 1015.659 640.594 L 1018.218 637.457 C 1017.854 635.559 1016.321 635.971 1014.126 636.878 C 1011.931 637.786 1010.545 637.374 1010.763 638.364 C 1010.985 639.354 1011.785 639.438 1011.785 639.438 C 1011.785 639.438 1010.402 640.784 1010.038 645.431 C 1009.673 640.784 1008.291 639.438 1008.291 639.438 C 1008.291 639.438 1009.095 639.354 1009.313 638.364 C 1009.531 637.374 1008.144 637.786 1005.95 636.878 C 1003.755 635.971 1002.222 635.559 1001.857 637.457 L 1004.417 640.594 C 1006.976 643.732 1005.807 646.208 1004.036 648.517 C 1002.269 650.827 1000.614 649.096 998.7 645.792 C 996.787 642.492 992.279 641.006 991.585 645.792 C 990.888 650.577 991.696 658.912 991.696 658.912 C 991.696 658.912 991.257 663.452 992.136 667.33 C 993.012 671.208 993.527 674.674 992.136 677.646 C 993.669 677.234 994.62 675.253 994.62 675.253 C 994.62 675.253 994.109 677.646 995.06 677.4 C 996.01 677.154 996.228 675.336 996.957 674.674 C 997.69 674.017 998.276 672.531 998.276 672.531 C 998.276 672.531 999.813 671.953 998.276 674.512 C 999.52 674.595 1000.324 673.767 1000.324 673.767 L 1000.76 676.081 L 1001.493 674.845 L 1001.857 677.071 L 1003.173 674.924 L 1004.036 675.914 C 1004.036 675.914 1004.199 671.707 1005.367 672.531 C 1006.536 673.355 1006.607 676.081 1005.807 677.729 C 1005.003 679.377 1005.807 680.042 1005.807 680.042 C 1005.807 680.042 1004.638 681.777 1004.04 682.768 C 1003.442 683.758 1004.349 684.911 1004.349 684.911 C 1004.349 684.911 1002.083 688.294 1002.713 689.617 C 1003.323 690.885 1007.098 691.693 1009.86 691.752 L 1009.883 691.764 L 1010.038 691.76 L 1010.192 691.764 L 1010.216 691.752 C 1012.977 691.693 1016.752 690.885 1017.363 689.617 C 1017.996 688.298 1015.726 684.911 1015.726 684.911 C 1015.726 684.911 1016.63 683.758 1016.035 682.768 C 1015.437 681.777 1014.265 680.042 1014.265 680.042 C 1014.265 680.042 1015.069 679.377 1014.265 677.729 C 1013.464 676.081 1013.536 673.355 1014.704 672.531 C 1015.873 671.707 1016.031 675.914 1016.031 675.914 L 1016.895 674.924 L 1018.21 677.071 L 1018.575 674.845 L 1019.308 676.081 L 1019.743 673.767 C 1019.743 673.767 1020.548 674.591 1021.791 674.512 C 1020.254 671.953 1021.791 672.531 1021.791 672.531 C 1021.791 672.531 1022.378 674.017 1023.107 674.678 C 1023.835 675.34 1024.057 677.154 1025.008 677.404 C 1025.959 677.649 1025.448 675.257 1025.448 675.257 C 1025.448 675.257 1026.399 677.238 1027.932 677.649 C 1026.545 674.678 1027.056 671.208 1027.932 667.334 C 1028.811 663.456 1028.371 658.916 1028.371 658.916 C 1028.371 658.916 1029.187 650.331 1028.49 645.546 Z " fill="rgb(255,255,255)"/><path d=" M 1007.8 640.095 C 1006.057 638.423 1001.707 636.257 1000.265 636.566 C 998.823 636.878 997.666 637.869 998.74 639.418 C 999.813 640.967 1000.265 640.903 1000.265 640.903 C 1000.265 640.903 1001.98 639.354 1002.725 640.222 C 1003.47 641.089 1002.848 641.398 1001.489 641.521 C 1000.126 641.644 998.744 640.717 998.744 640.717 C 998.744 640.717 999.191 642.325 1001.081 642.512 C 1002.353 643.748 1003.957 642.821 1004.765 642.821 C 1005.573 642.821 1009.345 641.585 1007.8 640.095 Z  M 1012.28 640.095 C 1014.023 638.423 1018.373 636.257 1019.815 636.566 C 1021.257 636.874 1022.413 637.865 1021.34 639.414 C 1020.266 640.963 1019.815 640.899 1019.815 640.899 C 1019.815 640.899 1018.099 639.35 1017.355 640.218 C 1016.61 641.085 1017.232 641.394 1018.591 641.517 C 1019.953 641.64 1021.336 640.713 1021.336 640.713 C 1021.336 640.713 1020.888 642.321 1018.999 642.508 C 1017.727 643.748 1016.123 642.821 1015.314 642.821 C 1014.506 642.821 1010.731 641.585 1012.28 640.095 Z  M 1000.186 683.223 C 1000.728 681.971 1000.348 681.793 999.912 681.357 C 999.627 681.058 999.403 680.705 999.255 680.319 C 999.255 680.319 999.037 680.922 998.597 681.357 C 998.158 681.789 997.777 681.967 998.32 683.223 C 997.001 682.443 996.783 683.873 997.389 684.74 C 997.559 683.96 998.597 684.138 998.597 685.089 C 998.597 686.04 997.738 685.608 997.841 685.996 C 997.948 686.388 998.732 687.208 999.251 687.208 C 999.77 687.208 1000.558 686.388 1000.661 685.996 C 1000.768 685.604 999.908 686.04 999.908 685.089 C 999.908 684.138 1000.942 683.96 1001.117 684.74 C 1001.727 683.873 1001.509 682.443 1000.186 683.223 Z  M 1021.728 683.223 C 1022.271 681.971 1021.89 681.793 1021.451 681.357 C 1021.165 681.058 1020.942 680.705 1020.793 680.319 C 1020.793 680.319 1020.575 680.922 1020.136 681.357 C 1019.696 681.789 1019.316 681.967 1019.858 683.223 C 1018.539 682.443 1018.321 683.873 1018.927 684.74 C 1019.098 683.96 1020.136 684.138 1020.136 685.089 C 1020.136 686.04 1019.276 685.608 1019.383 685.996 C 1019.486 686.388 1020.274 687.208 1020.793 687.208 C 1021.312 687.208 1022.1 686.388 1022.203 685.996 C 1022.31 685.604 1021.451 686.04 1021.451 685.089 C 1021.451 684.138 1022.485 683.96 1022.659 684.74 C 1023.265 683.873 1023.051 682.443 1021.728 683.223 Z " fill="rgb(237,185,46)"/><path d=" M 1001.275 650.248 L 1001.275 665.535 C 1001.275 670.423 1005.237 674.385 1010.125 674.385 C 1015.013 674.385 1018.975 670.423 1018.975 665.535 L 1018.975 650.248 L 1001.275 650.248 Z " fill="rgb(198,54,60)"/><path d=" M 1018.975 659.348 L 1012.034 659.348 L 1012.034 650.248 L 1008.223 650.248 L 1008.223 659.348 L 1001.279 659.348 L 1001.279 663.163 L 1008.223 663.163 L 1008.223 674.171 C 1008.838 674.306 1009.471 674.389 1010.129 674.389 C 1010.787 674.389 1011.42 674.306 1012.038 674.171 L 1012.038 663.163 L 1018.983 663.163 L 1018.983 659.348 L 1018.975 659.348 Z " fill="rgb(255,255,255)"/></g></g></svg>