<?xml version="1.0" encoding="UTF-8" standalone="no"?>
<!-- Generator: Gravit.io -->
<svg xmlns="http://www.w3.org/2000/svg" xmlns:xlink="http://www.w3.org/1999/xlink" style="isolation:isolate" viewBox="360 600 100 100" width="100pt" height="100pt"><g style="isolation:isolate"><rect x="393.3" y="600" width="33.4" height="100" transform="matrix(0,1,-1,0,1060,240)" fill="rgb(12,64,118)"/><rect x="393.35" y="633.35" width="33.3" height="100" transform="matrix(0,1,-1,0,1093.35,273.35)" fill="rgb(255,255,255)"/><rect x="393.35" y="566.65" width="33.3" height="100" transform="matrix(0,1,-1,0,1026.65,206.65)" fill="rgb(198,54,60)"/><g><path d=" M 388.424 634.898 L 388.424 672.531 C 388.424 684.564 398.179 694.319 410.212 694.319 C 422.245 694.319 432 684.564 432 672.531 L 432 634.898 L 388.424 634.898 Z " fill="rgb(198,54,60)"/><path d=" M 410.212 611.375 C 394.612 611.375 389.724 617.998 391.023 620.474 C 392.322 622.95 396.22 629.324 396.22 629.324 C 396.22 629.324 394.984 629.819 396.22 632.295 C 397.456 634.771 402.285 633.099 410.208 633.099 C 418.131 633.099 422.96 634.771 424.196 632.295 C 425.432 629.819 424.196 629.324 424.196 629.324 C 424.196 629.324 428.094 622.95 429.397 620.474 C 430.701 617.998 425.812 611.375 410.212 611.375 Z  M 396.593 623.136 C 395.472 623.485 396.593 626.912 396.197 625.43 C 395.872 624.206 394.612 623.695 394.612 624.376 C 394.612 625.058 394.117 624.376 394.24 623.14 C 394.362 621.9 393.994 621.16 393.249 620.106 C 392.509 619.052 392.509 618.125 393.439 617.503 C 394.366 616.885 396.411 616.39 396.411 616.39 C 396.411 616.39 397.215 619.92 397.646 620.724 C 398.078 621.528 398.882 622.055 398.882 622.055 C 398.882 622.055 398.51 622.641 398.882 622.95 C 399.255 623.259 399.687 624.004 399.687 624.004 C 399.687 624.004 398.328 622.891 398.082 623.136 C 397.837 623.382 398.391 623.695 398.328 624.127 C 398.264 624.562 397.583 622.827 396.593 623.136 Z  M 409.222 623.2 C 408.913 623.509 408.663 622.95 408.045 622.518 C 407.427 622.086 407.055 622.336 407.178 622.831 C 407.3 623.326 406.433 623.263 406.433 624.008 C 406.433 624.753 405.629 624.44 405.629 624.44 C 405.629 624.44 406.619 621.841 404.947 621.9 C 404.001 621.936 404.329 623.881 404.947 624.562 C 404.674 624.146 403.894 624.131 403.244 623.635 C 402.594 623.14 403.335 622.332 402.84 622.518 C 402.345 622.704 402.036 623.509 401.541 623.695 C 401.045 623.881 401.295 623.132 401.541 622.518 C 401.691 622.181 401.569 621.785 401.255 621.591 C 401.255 621.591 401.295 621.16 401.667 620.91 C 402.04 620.664 402.163 620.229 401.667 619.733 C 401.172 619.238 399.382 616.453 399.936 615.522 C 400.495 614.595 402.349 613.542 407.55 613.664 C 408.477 617.935 407.055 620.038 407.055 620.038 C 407.055 620.038 408.109 620.72 408.418 621.092 C 407.673 621.405 408.231 621.714 408.727 622.146 C 409.222 622.582 409.531 622.891 409.222 623.2 Z  M 418.88 622.518 C 419.125 623.136 419.375 623.881 418.88 623.695 C 418.385 623.509 418.076 622.704 417.58 622.518 C 417.085 622.332 417.826 623.14 417.176 623.635 C 416.527 624.131 415.75 624.146 415.473 624.562 C 416.091 623.881 416.42 621.936 415.473 621.9 C 413.801 621.837 414.792 624.44 414.792 624.44 C 414.792 624.44 413.987 624.749 413.987 624.008 C 413.987 623.267 413.12 623.326 413.243 622.831 C 413.365 622.336 412.997 622.086 412.375 622.518 C 411.757 622.95 411.508 623.509 411.199 623.2 C 410.89 622.891 411.199 622.582 411.694 622.146 C 412.193 621.714 412.751 621.405 412.007 621.096 C 412.316 620.724 413.369 620.042 413.369 620.042 C 413.369 620.042 411.947 617.939 412.874 613.668 C 418.072 613.546 419.93 614.595 420.488 615.526 C 421.047 616.453 419.252 619.242 418.753 619.733 C 418.254 620.225 418.381 620.66 418.753 620.91 C 419.125 621.156 419.165 621.591 419.165 621.591 C 419.165 621.591 418.63 621.9 418.88 622.518 Z  M 427.171 620.106 C 426.426 621.16 426.058 621.9 426.181 623.14 C 426.303 624.376 425.808 625.058 425.808 624.376 C 425.808 623.695 424.549 624.21 424.224 625.43 C 423.828 626.912 424.949 623.489 423.828 623.136 C 422.837 622.827 421.538 625.798 421.847 625.489 C 422.156 625.18 422.592 623.386 422.342 623.136 C 422.096 622.887 420.734 624.004 420.734 624.004 C 420.734 624.004 421.165 623.259 421.538 622.95 C 421.91 622.641 421.538 622.055 421.538 622.055 C 421.538 622.055 422.342 621.528 422.774 620.724 C 423.206 619.92 424.01 616.39 424.01 616.39 C 424.01 616.39 426.054 616.885 426.981 617.503 C 427.908 618.121 427.916 619.052 427.171 620.106 Z " fill="rgb(237,185,46)"/><path d=" M 410.644 612.088 C 410.644 612.482 410.325 612.801 409.931 612.801 C 409.537 612.801 409.218 612.482 409.218 612.088 L 409.218 605.837 C 409.218 605.443 409.537 605.124 409.931 605.124 C 410.325 605.124 410.644 605.443 410.644 605.837 L 410.644 612.088 Z " fill="rgb(255,172,51)"/><path d=" M 412.07 607.508 C 412.071 607.681 412.003 607.847 411.881 607.969 C 411.759 608.091 411.593 608.159 411.42 608.158 L 408.326 608.158 C 408.154 608.159 407.988 608.091 407.866 607.969 C 407.744 607.847 407.676 607.681 407.677 607.508 C 407.677 607.148 407.966 606.859 408.326 606.859 L 411.42 606.859 C 411.781 606.859 412.07 607.148 412.07 607.508 Z " fill="rgb(237,185,46)"/><path d=" M 401.442 672.777 C 400.087 675.851 399.944 677.364 398.34 677.257 C 396.731 677.15 395.598 676.877 395.598 677.527 C 395.598 678.172 398.154 677.903 398.154 677.903 C 398.154 677.903 395.741 678.933 396.216 680.117 C 396.688 681.306 398.772 678.608 398.772 678.608 C 398.772 678.608 399.195 678.715 400 678.065 C 400.804 677.42 402.931 674.29 402.931 674.29 L 401.442 672.777 Z  M 418.919 672.777 C 420.274 675.851 420.417 677.364 422.021 677.257 C 423.629 677.15 424.762 676.877 424.762 677.527 C 424.762 678.172 422.211 677.903 422.211 677.903 C 422.211 677.903 424.624 678.933 424.148 680.117 C 423.677 681.306 421.593 678.608 421.593 678.608 C 421.593 678.608 421.169 678.715 420.365 678.065 C 419.561 677.42 417.434 674.29 417.434 674.29 L 418.919 672.777 Z " fill="rgb(237,185,46)"/><path d=" M 428.49 645.546 C 427.793 640.761 423.289 642.246 421.375 645.546 C 419.462 648.846 417.81 650.827 416.039 648.517 C 414.269 646.208 413.1 643.732 415.659 640.594 L 418.218 637.457 C 417.854 635.559 416.321 635.971 414.126 636.878 C 411.931 637.786 410.545 637.374 410.763 638.364 C 410.985 639.354 411.785 639.438 411.785 639.438 C 411.785 639.438 410.402 640.784 410.038 645.431 C 409.673 640.784 408.291 639.438 408.291 639.438 C 408.291 639.438 409.095 639.354 409.313 638.364 C 409.531 637.374 408.144 637.786 405.95 636.878 C 403.755 635.971 402.222 635.559 401.857 637.457 L 404.417 640.594 C 406.976 643.732 405.807 646.208 404.036 648.517 C 402.269 650.827 400.614 649.096 398.7 645.792 C 396.787 642.492 392.279 641.006 391.585 645.792 C 390.888 650.577 391.696 658.912 391.696 658.912 C 391.696 658.912 391.257 663.452 392.136 667.33 C 393.012 671.208 393.527 674.674 392.136 677.646 C 393.669 677.234 394.62 675.253 394.62 675.253 C 394.62 675.253 394.109 677.646 395.06 677.4 C 396.01 677.154 396.228 675.336 396.957 674.674 C 397.69 674.017 398.276 672.531 398.276 672.531 C 398.276 672.531 399.813 671.953 398.276 674.512 C 399.52 674.595 400.324 673.767 400.324 673.767 L 400.76 676.081 L 401.493 674.845 L 401.857 677.071 L 403.173 674.924 L 404.036 675.914 C 404.036 675.914 404.199 671.707 405.367 672.531 C 406.536 673.355 406.607 676.081 405.807 677.729 C 405.003 679.377 405.807 680.042 405.807 680.042 C 405.807 680.042 404.638 681.777 404.04 682.768 C 403.442 683.758 404.349 684.911 404.349 684.911 C 404.349 684.911 402.083 688.294 402.713 689.617 C 403.323 690.885 407.098 691.693 409.86 691.752 L 409.883 691.764 L 410.038 691.76 L 410.192 691.764 L 410.216 691.752 C 412.977 691.693 416.752 690.885 417.363 689.617 C 417.996 688.298 415.726 684.911 415.726 684.911 C 415.726 684.911 416.63 683.758 416.035 682.768 C 415.437 681.777 414.265 680.042 414.265 680.042 C 414.265 680.042 415.069 679.377 414.265 677.729 C 413.464 676.081 413.536 673.355 414.704 672.531 C 415.873 671.707 416.031 675.914 416.031 675.914 L 416.895 674.924 L 418.21 677.071 L 418.575 674.845 L 419.308 676.081 L 419.743 673.767 C 419.743 673.767 420.548 674.591 421.791 674.512 C 420.254 671.953 421.791 672.531 421.791 672.531 C 421.791 672.531 422.378 674.017 423.107 674.678 C 423.835 675.34 424.057 677.154 425.008 677.404 C 425.959 677.649 425.448 675.257 425.448 675.257 C 425.448 675.257 426.399 677.238 427.932 677.649 C 426.545 674.678 427.056 671.208 427.932 667.334 C 428.811 663.456 428.371 658.916 428.371 658.916 C 428.371 658.916 429.187 650.331 428.49 645.546 Z " fill="rgb(255,255,255)"/><path d=" M 407.8 640.095 C 406.057 638.423 401.707 636.257 400.265 636.566 C 398.823 636.878 397.666 637.869 398.74 639.418 C 399.813 640.967 400.265 640.903 400.265 640.903 C 400.265 640.903 401.98 639.354 402.725 640.222 C 403.47 641.089 402.848 641.398 401.489 641.521 C 400.126 641.644 398.744 640.717 398.744 640.717 C 398.744 640.717 399.191 642.325 401.081 642.512 C 402.353 643.748 403.957 642.821 404.765 642.821 C 405.573 642.821 409.345 641.585 407.8 640.095 Z  M 412.28 640.095 C 414.023 638.423 418.373 636.257 419.815 636.566 C 421.257 636.874 422.413 637.865 421.34 639.414 C 420.266 640.963 419.815 640.899 419.815 640.899 C 419.815 640.899 418.099 639.35 417.355 640.218 C 416.61 641.085 417.232 641.394 418.591 641.517 C 419.953 641.64 421.336 640.713 421.336 640.713 C 421.336 640.713 420.888 642.321 418.999 642.508 C 417.727 643.748 416.123 642.821 415.314 642.821 C 414.506 642.821 410.731 641.585 412.28 640.095 Z  M 400.186 683.223 C 400.728 681.971 400.348 681.793 399.912 681.357 C 399.627 681.058 399.403 680.705 399.255 680.319 C 399.255 680.319 399.037 680.922 398.597 681.357 C 398.158 681.789 397.777 681.967 398.32 683.223 C 397.001 682.443 396.783 683.873 397.389 684.74 C 397.559 683.96 398.597 684.138 398.597 685.089 C 398.597 686.04 397.738 685.608 397.841 685.996 C 397.948 686.388 398.732 687.208 399.251 687.208 C 399.77 687.208 400.558 686.388 400.661 685.996 C 400.768 685.604 399.908 686.04 399.908 685.089 C 399.908 684.138 400.942 683.96 401.117 684.74 C 401.727 683.873 401.509 682.443 400.186 683.223 Z  M 421.728 683.223 C 422.271 681.971 421.89 681.793 421.451 681.357 C 421.165 681.058 420.942 680.705 420.793 680.319 C 420.793 680.319 420.575 680.922 420.136 681.357 C 419.696 681.789 419.316 681.967 419.858 683.223 C 418.539 682.443 418.321 683.873 418.927 684.74 C 419.098 683.96 420.136 684.138 420.136 685.089 C 420.136 686.04 419.276 685.608 419.383 685.996 C 419.486 686.388 420.274 687.208 420.793 687.208 C 421.312 687.208 422.1 686.388 422.203 685.996 C 422.31 685.604 421.451 686.04 421.451 685.089 C 421.451 684.138 422.485 683.96 422.659 684.74 C 423.265 683.873 423.051 682.443 421.728 683.223 Z " fill="rgb(237,185,46)"/><path d=" M 401.275 650.248 L 401.275 665.535 C 401.275 670.423 405.237 674.385 410.125 674.385 C 415.013 674.385 418.975 670.423 418.975 665.535 L 418.975 650.248 L 401.275 650.248 Z " fill="rgb(198,54,60)"/><path d=" M 418.975 659.348 L 412.034 659.348 L 412.034 650.248 L 408.223 650.248 L 408.223 659.348 L 401.279 659.348 L 401.279 663.163 L 408.223 663.163 L 408.223 674.171 C 408.838 674.306 409.471 674.389 410.129 674.389 C 410.787 674.389 411.42 674.306 412.038 674.171 L 412.038 663.163 L 418.983 663.163 L 418.983 659.348 L 418.975 659.348 Z " fill="rgb(255,255,255)"/></g></g></svg>