<?xml version="1.0" encoding="UTF-8" standalone="no"?>
<!-- Generator: Gravit.io -->
<svg xmlns="http://www.w3.org/2000/svg" xmlns:xlink="http://www.w3.org/1999/xlink" style="isolation:isolate" viewBox="360 600 100 100" width="100pt" height="100pt"><g style="isolation:isolate"><rect x="393.3" y="600" width="33.4" height="100" transform="matrix(0,1,-1,0,1060,240)" fill="rgb(12,64,118)"/><rect x="393.35" y="633.35" width="33.3" height="100" transform="matrix(0,1,-1,0,1093.35,273.35)" fill="rgb(255,255,255)"/><rect x="393.35" y="566.65" width="33.3" height="100" transform="matrix(0,1,-1,0,1026.65,206.65)" fill="rgb(198,54,60)"/><g><path d=" M 389.424 634.898 L 389.424 672.531 C 389.424 684.564 399.179 694.319 411.212 694.319 C 423.245 694.319 433 684.564 433 672.531 L 433 634.898 L 389.424 634.898 Z " fill="rgb(198,54,60)"/><path d=" M 411.212 611.375 C 395.612 611.375 390.724 617.998 392.023 620.474 C 393.322 622.95 397.22 629.324 397.22 629.324 C 397.22 629.324 395.984 629.819 397.22 632.295 C 398.456 634.771 403.285 633.099 411.208 633.099 C 419.131 633.099 423.96 634.771 425.196 632.295 C 426.432 629.819 425.196 629.324 425.196 629.324 C 425.196 629.324 429.094 622.95 430.397 620.474 C 431.701 617.998 426.812 611.375 411.212 611.375 Z  M 397.593 623.136 C 396.472 623.485 397.593 626.912 397.197 625.43 C 396.872 624.206 395.612 623.695 395.612 624.376 C 395.612 625.058 395.117 624.376 395.24 623.14 C 395.362 621.9 394.994 621.16 394.249 620.106 C 393.509 619.052 393.509 618.125 394.439 617.503 C 395.366 616.885 397.411 616.39 397.411 616.39 C 397.411 616.39 398.215 619.92 398.646 620.724 C 399.078 621.528 399.882 622.055 399.882 622.055 C 399.882 622.055 399.51 622.641 399.882 622.95 C 400.255 623.259 400.687 624.004 400.687 624.004 C 400.687 624.004 399.328 622.891 399.082 623.136 C 398.837 623.382 399.391 623.695 399.328 624.127 C 399.264 624.562 398.583 622.827 397.593 623.136 Z  M 410.222 623.2 C 409.913 623.509 409.663 622.95 409.045 622.518 C 408.427 622.086 408.055 622.336 408.178 622.831 C 408.3 623.326 407.433 623.263 407.433 624.008 C 407.433 624.753 406.629 624.44 406.629 624.44 C 406.629 624.44 407.619 621.841 405.947 621.9 C 405.001 621.936 405.329 623.881 405.947 624.562 C 405.674 624.146 404.894 624.131 404.244 623.635 C 403.594 623.14 404.335 622.332 403.84 622.518 C 403.345 622.704 403.036 623.509 402.541 623.695 C 402.045 623.881 402.295 623.132 402.541 622.518 C 402.691 622.181 402.569 621.785 402.255 621.591 C 402.255 621.591 402.295 621.16 402.667 620.91 C 403.04 620.664 403.163 620.229 402.667 619.733 C 402.172 619.238 400.382 616.453 400.936 615.522 C 401.495 614.595 403.349 613.542 408.55 613.664 C 409.477 617.935 408.055 620.038 408.055 620.038 C 408.055 620.038 409.109 620.72 409.418 621.092 C 408.673 621.405 409.231 621.714 409.727 622.146 C 410.222 622.582 410.531 622.891 410.222 623.2 Z  M 419.88 622.518 C 420.125 623.136 420.375 623.881 419.88 623.695 C 419.385 623.509 419.076 622.704 418.58 622.518 C 418.085 622.332 418.826 623.14 418.176 623.635 C 417.527 624.131 416.75 624.146 416.473 624.562 C 417.091 623.881 417.42 621.936 416.473 621.9 C 414.801 621.837 415.792 624.44 415.792 624.44 C 415.792 624.44 414.987 624.749 414.987 624.008 C 414.987 623.267 414.12 623.326 414.243 622.831 C 414.365 622.336 413.997 622.086 413.375 622.518 C 412.757 622.95 412.508 623.509 412.199 623.2 C 411.89 622.891 412.199 622.582 412.694 622.146 C 413.193 621.714 413.751 621.405 413.007 621.096 C 413.316 620.724 414.369 620.042 414.369 620.042 C 414.369 620.042 412.947 617.939 413.874 613.668 C 419.072 613.546 420.93 614.595 421.488 615.526 C 422.047 616.453 420.252 619.242 419.753 619.733 C 419.254 620.225 419.381 620.66 419.753 620.91 C 420.125 621.156 420.165 621.591 420.165 621.591 C 420.165 621.591 419.63 621.9 419.88 622.518 Z  M 428.171 620.106 C 427.426 621.16 427.058 621.9 427.181 623.14 C 427.303 624.376 426.808 625.058 426.808 624.376 C 426.808 623.695 425.549 624.21 425.224 625.43 C 424.828 626.912 425.949 623.489 424.828 623.136 C 423.837 622.827 422.538 625.798 422.847 625.489 C 423.156 625.18 423.592 623.386 423.342 623.136 C 423.096 622.887 421.734 624.004 421.734 624.004 C 421.734 624.004 422.165 623.259 422.538 622.95 C 422.91 622.641 422.538 622.055 422.538 622.055 C 422.538 622.055 423.342 621.528 423.774 620.724 C 424.206 619.92 425.01 616.39 425.01 616.39 C 425.01 616.39 427.054 616.885 427.981 617.503 C 428.908 618.121 428.916 619.052 428.171 620.106 Z " fill="rgb(237,185,46)"/><path d=" M 411.644 612.088 C 411.644 612.482 411.325 612.801 410.931 612.801 C 410.537 612.801 410.218 612.482 410.218 612.088 L 410.218 605.837 C 410.218 605.443 410.537 605.124 410.931 605.124 C 411.325 605.124 411.644 605.443 411.644 605.837 L 411.644 612.088 Z " fill="rgb(255,172,51)"/><path d=" M 413.07 607.508 C 413.071 607.681 413.003 607.847 412.881 607.969 C 412.759 608.091 412.593 608.159 412.42 608.158 L 409.326 608.158 C 409.154 608.159 408.988 608.091 408.866 607.969 C 408.744 607.847 408.676 607.681 408.677 607.508 C 408.677 607.148 408.966 606.859 409.326 606.859 L 412.42 606.859 C 412.781 606.859 413.07 607.148 413.07 607.508 Z " fill="rgb(237,185,46)"/><path d=" M 402.442 672.777 C 401.087 675.851 400.944 677.364 399.34 677.257 C 397.731 677.15 396.598 676.877 396.598 677.527 C 396.598 678.172 399.154 677.903 399.154 677.903 C 399.154 677.903 396.741 678.933 397.216 680.117 C 397.688 681.306 399.772 678.608 399.772 678.608 C 399.772 678.608 400.195 678.715 401 678.065 C 401.804 677.42 403.931 674.29 403.931 674.29 L 402.442 672.777 Z  M 419.919 672.777 C 421.274 675.851 421.417 677.364 423.021 677.257 C 424.629 677.15 425.762 676.877 425.762 677.527 C 425.762 678.172 423.211 677.903 423.211 677.903 C 423.211 677.903 425.624 678.933 425.148 680.117 C 424.677 681.306 422.593 678.608 422.593 678.608 C 422.593 678.608 422.169 678.715 421.365 678.065 C 420.561 677.42 418.434 674.29 418.434 674.29 L 419.919 672.777 Z " fill="rgb(237,185,46)"/><path d=" M 429.49 645.546 C 428.793 640.761 424.289 642.246 422.375 645.546 C 420.462 648.846 418.81 650.827 417.039 648.517 C 415.269 646.208 414.1 643.732 416.659 640.594 L 419.218 637.457 C 418.854 635.559 417.321 635.971 415.126 636.878 C 412.931 637.786 411.545 637.374 411.763 638.364 C 411.985 639.354 412.785 639.438 412.785 639.438 C 412.785 639.438 411.402 640.784 411.038 645.431 C 410.673 640.784 409.291 639.438 409.291 639.438 C 409.291 639.438 410.095 639.354 410.313 638.364 C 410.531 637.374 409.144 637.786 406.95 636.878 C 404.755 635.971 403.222 635.559 402.857 637.457 L 405.417 640.594 C 407.976 643.732 406.807 646.208 405.036 648.517 C 403.269 650.827 401.614 649.096 399.7 645.792 C 397.787 642.492 393.279 641.006 392.585 645.792 C 391.888 650.577 392.696 658.912 392.696 658.912 C 392.696 658.912 392.257 663.452 393.136 667.33 C 394.012 671.208 394.527 674.674 393.136 677.646 C 394.669 677.234 395.62 675.253 395.62 675.253 C 395.62 675.253 395.109 677.646 396.06 677.4 C 397.01 677.154 397.228 675.336 397.957 674.674 C 398.69 674.017 399.276 672.531 399.276 672.531 C 399.276 672.531 400.813 671.953 399.276 674.512 C 400.52 674.595 401.324 673.767 401.324 673.767 L 401.76 676.081 L 402.493 674.845 L 402.857 677.071 L 404.173 674.924 L 405.036 675.914 C 405.036 675.914 405.199 671.707 406.367 672.531 C 407.536 673.355 407.607 676.081 406.807 677.729 C 406.003 679.377 406.807 680.042 406.807 680.042 C 406.807 680.042 405.638 681.777 405.04 682.768 C 404.442 683.758 405.349 684.911 405.349 684.911 C 405.349 684.911 403.083 688.294 403.713 689.617 C 404.323 690.885 408.098 691.693 410.86 691.752 L 410.883 691.764 L 411.038 691.76 L 411.192 691.764 L 411.216 691.752 C 413.977 691.693 417.752 690.885 418.363 689.617 C 418.996 688.298 416.726 684.911 416.726 684.911 C 416.726 684.911 417.63 683.758 417.035 682.768 C 416.437 681.777 415.265 680.042 415.265 680.042 C 415.265 680.042 416.069 679.377 415.265 677.729 C 414.464 676.081 414.536 673.355 415.704 672.531 C 416.873 671.707 417.031 675.914 417.031 675.914 L 417.895 674.924 L 419.21 677.071 L 419.575 674.845 L 420.308 676.081 L 420.743 673.767 C 420.743 673.767 421.548 674.591 422.791 674.512 C 421.254 671.953 422.791 672.531 422.791 672.531 C 422.791 672.531 423.378 674.017 424.107 674.678 C 424.835 675.34 425.057 677.154 426.008 677.404 C 426.959 677.649 426.448 675.257 426.448 675.257 C 426.448 675.257 427.399 677.238 428.932 677.649 C 427.545 674.678 428.056 671.208 428.932 667.334 C 429.811 663.456 429.371 658.916 429.371 658.916 C 429.371 658.916 430.187 650.331 429.49 645.546 Z " fill="rgb(255,255,255)"/><path d=" M 408.8 640.095 C 407.057 638.423 402.707 636.257 401.265 636.566 C 399.823 636.878 398.666 637.869 399.74 639.418 C 400.813 640.967 401.265 640.903 401.265 640.903 C 401.265 640.903 402.98 639.354 403.725 640.222 C 404.47 641.089 403.848 641.398 402.489 641.521 C 401.126 641.644 399.744 640.717 399.744 640.717 C 399.744 640.717 400.191 642.325 402.081 642.512 C 403.353 643.748 404.957 642.821 405.765 642.821 C 406.573 642.821 410.345 641.585 408.8 640.095 Z  M 413.28 640.095 C 415.023 638.423 419.373 636.257 420.815 636.566 C 422.257 636.874 423.413 637.865 422.34 639.414 C 421.266 640.963 420.815 640.899 420.815 640.899 C 420.815 640.899 419.099 639.35 418.355 640.218 C 417.61 641.085 418.232 641.394 419.591 641.517 C 420.953 641.64 422.336 640.713 422.336 640.713 C 422.336 640.713 421.888 642.321 419.999 642.508 C 418.727 643.748 417.123 642.821 416.314 642.821 C 415.506 642.821 411.731 641.585 413.28 640.095 Z  M 401.186 683.223 C 401.728 681.971 401.348 681.793 400.912 681.357 C 400.627 681.058 400.403 680.705 400.255 680.319 C 400.255 680.319 400.037 680.922 399.597 681.357 C 399.158 681.789 398.777 681.967 399.32 683.223 C 398.001 682.443 397.783 683.873 398.389 684.74 C 398.559 683.96 399.597 684.138 399.597 685.089 C 399.597 686.04 398.738 685.608 398.841 685.996 C 398.948 686.388 399.732 687.208 400.251 687.208 C 400.77 687.208 401.558 686.388 401.661 685.996 C 401.768 685.604 400.908 686.04 400.908 685.089 C 400.908 684.138 401.942 683.96 402.117 684.74 C 402.727 683.873 402.509 682.443 401.186 683.223 Z  M 422.728 683.223 C 423.271 681.971 422.89 681.793 422.451 681.357 C 422.165 681.058 421.942 680.705 421.793 680.319 C 421.793 680.319 421.575 680.922 421.136 681.357 C 420.696 681.789 420.316 681.967 420.858 683.223 C 419.539 682.443 419.321 683.873 419.927 684.74 C 420.098 683.96 421.136 684.138 421.136 685.089 C 421.136 686.04 420.276 685.608 420.383 685.996 C 420.486 686.388 421.274 687.208 421.793 687.208 C 422.312 687.208 423.1 686.388 423.203 685.996 C 423.31 685.604 422.451 686.04 422.451 685.089 C 422.451 684.138 423.485 683.96 423.659 684.74 C 424.265 683.873 424.051 682.443 422.728 683.223 Z " fill="rgb(237,185,46)"/><path d=" M 402.275 650.248 L 402.275 665.535 C 402.275 670.423 406.237 674.385 411.125 674.385 C 416.013 674.385 419.975 670.423 419.975 665.535 L 419.975 650.248 L 402.275 650.248 Z " fill="rgb(198,54,60)"/><path d=" M 419.975 659.348 L 413.034 659.348 L 413.034 650.248 L 409.223 650.248 L 409.223 659.348 L 402.279 659.348 L 402.279 663.163 L 409.223 663.163 L 409.223 674.171 C 409.838 674.306 410.471 674.389 411.129 674.389 C 411.787 674.389 412.42 674.306 413.038 674.171 L 413.038 663.163 L 419.983 663.163 L 419.983 659.348 L 419.975 659.348 Z " fill="rgb(255,255,255)"/></g></g></svg>