<?xml version="1.0" encoding="UTF-8" standalone="no"?>
<!-- Generator: Gravit.io -->
<svg xmlns="http://www.w3.org/2000/svg" xmlns:xlink="http://www.w3.org/1999/xlink" style="isolation:isolate" viewBox="720 480 100 100" width="100pt" height="100pt"><g style="isolation:isolate"><rect x="720" y="480" width="100" height="100" transform="matrix(0,1,-1,0,1300,-240)" fill="rgb(200,16,46)"/><path d=" M 791 511.737 C 785.07 502.707 774.849 496.752 763.248 496.752 C 744.898 496.752 730 511.65 730 530 C 730 548.35 744.898 563.248 763.248 563.248 C 774.849 563.248 785.07 557.293 791 548.263 C 786.136 553.448 779.223 556.686 771.56 556.686 C 756.831 556.686 744.874 544.728 744.874 530 C 744.874 515.272 756.831 503.314 771.56 503.314 C 779.223 503.314 786.136 506.552 791 511.737 Z " fill="rgb(255,255,255)"/><path d=" M 812.013 538.728 L 802.47 536.512 L 796.701 544.43 L 795.859 534.669 L 786.546 531.629 L 795.569 527.812 L 795.582 518.015 L 802 525.418 L 811.322 522.403 L 806.265 530.794 L 812.013 538.728 Z " fill="rgb(255,255,255)"/></g></svg>