<?xml version="1.0" encoding="UTF-8" standalone="no"?>
<!-- Generator: Gravit.io -->
<svg xmlns="http://www.w3.org/2000/svg" xmlns:xlink="http://www.w3.org/1999/xlink" style="isolation:isolate" viewBox="0 0 100 100" width="100pt" height="100pt"><g style="isolation:isolate"><rect x="0" y="0" width="100" height="100" transform="matrix(0,1,-1,0,100,0)" fill="rgb(200,16,46)"/><path d=" M 71 31.737 C 65.07 22.707 54.849 16.752 43.248 16.752 C 24.898 16.752 10 31.65 10 50 C 10 68.35 24.898 83.248 43.248 83.248 C 54.849 83.248 65.07 77.293 71 68.263 C 66.136 73.448 59.223 76.686 51.56 76.686 C 36.831 76.686 24.874 64.728 24.874 50 C 24.874 35.272 36.831 23.314 51.56 23.314 C 59.223 23.314 66.136 26.552 71 31.737 Z " fill="rgb(255,255,255)"/><path d=" M 92.013 58.728 L 82.47 56.512 L 76.701 64.43 L 75.859 54.669 L 66.546 51.629 L 75.569 47.812 L 75.582 38.015 L 82 45.418 L 91.322 42.403 L 86.265 50.794 L 92.013 58.728 Z " fill="rgb(255,255,255)"/></g></svg>