<?xml version="1.0" encoding="UTF-8" standalone="no"?>
<!-- Generator: Gravit.io -->
<svg xmlns="http://www.w3.org/2000/svg" xmlns:xlink="http://www.w3.org/1999/xlink" style="isolation:isolate" viewBox="120 480 100 100" width="100pt" height="100pt"><g style="isolation:isolate"><rect x="120" y="480" width="100" height="100" transform="matrix(0,1,-1,0,700,360)" fill="rgb(200,16,46)"/><path d=" M 191 511.737 C 185.07 502.707 174.849 496.752 163.248 496.752 C 144.898 496.752 130 511.65 130 530 C 130 548.35 144.898 563.248 163.248 563.248 C 174.849 563.248 185.07 557.293 191 548.263 C 186.136 553.448 179.223 556.686 171.56 556.686 C 156.831 556.686 144.874 544.728 144.874 530 C 144.874 515.272 156.831 503.314 171.56 503.314 C 179.223 503.314 186.136 506.552 191 511.737 Z " fill="rgb(255,255,255)"/><path d=" M 212.013 538.728 L 202.47 536.512 L 196.701 544.43 L 195.859 534.669 L 186.546 531.629 L 195.569 527.812 L 195.582 518.015 L 202 525.418 L 211.322 522.403 L 206.265 530.794 L 212.013 538.728 Z " fill="rgb(255,255,255)"/></g></svg>