<?xml version="1.0" encoding="UTF-8" standalone="no"?>
<!-- Generator: Gravit.io -->
<svg xmlns="http://www.w3.org/2000/svg" xmlns:xlink="http://www.w3.org/1999/xlink" style="isolation:isolate" viewBox="1080 480 100 100" width="100pt" height="100pt"><g style="isolation:isolate"><rect x="1080" y="480" width="100" height="100" transform="matrix(0,1,-1,0,1660,-600)" fill="rgb(238,28,37)"/><path d=" M 1132.163 553.968 L 1114.627 542.661 L 1097.092 553.968 L 1102.427 533.797 L 1086.255 520.614 L 1107.087 519.455 L 1114.627 500 L 1122.167 519.455 L 1143 520.614 L 1126.828 533.797 L 1132.163 553.968 Z " fill="rgb(255,255,0)"/><path d=" M 1159.883 502.161 L 1153.099 501.776 L 1149.95 507.797 L 1148.219 501.227 L 1141.52 500.092 L 1147.234 496.416 L 1146.243 489.694 L 1151.505 493.992 L 1157.592 490.972 L 1155.13 497.305 L 1159.883 502.161 Z " fill="rgb(255,255,0)"/><path d=" M 1173.942 524.385 L 1167.527 522.146 L 1162.84 527.065 L 1162.987 520.272 L 1156.861 517.335 L 1163.367 515.376 L 1164.267 508.641 L 1168.141 514.224 L 1174.824 512.999 L 1170.712 518.408 L 1173.942 524.385 Z " fill="rgb(255,255,0)"/><path d=" M 1172.161 552.771 L 1166.451 549.089 L 1160.74 552.771 L 1162.478 546.203 L 1157.211 541.91 L 1163.995 541.532 L 1166.451 535.197 L 1168.906 541.532 L 1175.69 541.91 L 1170.424 546.203 L 1172.161 552.771 Z " fill="rgb(255,255,0)"/><path d=" M 1153.12 573.42 L 1148.926 568.074 L 1142.326 569.689 L 1146.114 564.048 L 1142.539 558.27 L 1149.074 560.13 L 1153.464 554.944 L 1153.715 561.734 L 1160.004 564.307 L 1153.624 566.644 L 1153.12 573.42 Z " fill="rgb(255,255,0)"/></g></svg>