<?xml version="1.0" encoding="UTF-8" standalone="no"?>
<!-- Generator: Gravit.io -->
<svg xmlns="http://www.w3.org/2000/svg" xmlns:xlink="http://www.w3.org/1999/xlink" style="isolation:isolate" viewBox="480 480 100 100" width="100pt" height="100pt"><g style="isolation:isolate"><rect x="480" y="480" width="100" height="100" transform="matrix(0,1,-1,0,1060,0)" fill="rgb(238,28,37)"/><path d=" M 532.163 553.968 L 514.627 542.661 L 497.092 553.968 L 502.427 533.797 L 486.255 520.614 L 507.087 519.455 L 514.627 500 L 522.167 519.455 L 543 520.614 L 526.828 533.797 L 532.163 553.968 Z " fill="rgb(255,255,0)"/><path d=" M 559.883 502.161 L 553.099 501.776 L 549.95 507.797 L 548.219 501.227 L 541.52 500.092 L 547.234 496.416 L 546.243 489.694 L 551.505 493.992 L 557.592 490.972 L 555.13 497.305 L 559.883 502.161 Z " fill="rgb(255,255,0)"/><path d=" M 573.942 524.385 L 567.527 522.146 L 562.84 527.065 L 562.987 520.272 L 556.861 517.335 L 563.367 515.376 L 564.267 508.641 L 568.141 514.224 L 574.824 512.999 L 570.712 518.408 L 573.942 524.385 Z " fill="rgb(255,255,0)"/><path d=" M 572.161 552.771 L 566.451 549.089 L 560.74 552.771 L 562.478 546.203 L 557.211 541.91 L 563.995 541.532 L 566.451 535.197 L 568.906 541.532 L 575.69 541.91 L 570.424 546.203 L 572.161 552.771 Z " fill="rgb(255,255,0)"/><path d=" M 553.12 573.42 L 548.926 568.074 L 542.326 569.689 L 546.114 564.048 L 542.539 558.27 L 549.074 560.13 L 553.464 554.944 L 553.715 561.734 L 560.004 564.307 L 553.624 566.644 L 553.12 573.42 Z " fill="rgb(255,255,0)"/></g></svg>