<?xml version="1.0" encoding="UTF-8" standalone="no"?>
<!-- Generator: Gravit.io -->
<svg xmlns="http://www.w3.org/2000/svg" xmlns:xlink="http://www.w3.org/1999/xlink" style="isolation:isolate" viewBox="120 840 100 100" width="100pt" height="100pt"><g style="isolation:isolate"><rect x="120" y="840" width="100" height="100" transform="matrix(0,1,-1,0,1060,720)" fill="rgb(254,0,0)"/><rect x="120" y="840" width="70" height="70" transform="matrix(0,1,-1,0,1030,720)" fill="rgb(0,0,149)"/><path d=" M 151.43 858.957 L 155 846 L 158.57 858.957 C 157.401 858.697 156.204 858.565 155 858.567 C 153.796 858.565 152.599 858.697 151.43 858.957 Z  M 159.93 859.321 L 169.5 849.885 L 166.112 862.896 C 164.727 861.622 163.131 860.594 161.395 859.858 C 160.915 859.656 160.426 859.476 159.93 859.321 Z  M 167.104 863.888 L 180.115 860.5 L 170.679 870.07 C 170.524 869.574 170.344 869.085 170.142 868.605 C 169.406 866.869 168.378 865.273 167.104 863.888 Z  M 171.043 871.43 L 184 875 L 171.043 878.57 C 171.303 877.401 171.435 876.204 171.433 875 C 171.435 873.796 171.303 872.599 171.043 871.43 Z  M 170.679 879.93 L 180.115 889.5 L 167.104 886.112 C 168.378 884.727 169.406 883.131 170.142 881.395 C 170.344 880.915 170.524 880.426 170.679 879.93 Z  M 166.112 887.104 L 169.5 900.115 L 159.93 890.679 C 160.426 890.524 160.915 890.344 161.395 890.142 C 163.131 889.406 164.727 888.378 166.112 887.104 Z  M 158.57 891.043 L 155 904 L 151.43 891.043 C 152.599 891.303 153.796 891.435 155 891.433 C 156.204 891.435 157.401 891.303 158.57 891.043 Z  M 150.07 890.679 L 140.5 900.115 L 143.888 887.104 C 145.273 888.378 146.869 889.406 148.605 890.142 C 149.085 890.344 149.574 890.524 150.07 890.679 Z  M 142.896 886.112 L 129.885 889.5 L 139.321 879.93 C 139.476 880.426 139.656 880.915 139.858 881.395 C 140.594 883.131 141.622 884.727 142.896 886.112 Z  M 138.957 878.57 L 126 875 L 138.957 871.43 C 138.697 872.599 138.565 873.796 138.567 875 L 138.567 875 C 138.565 876.204 138.697 877.401 138.957 878.57 Z  M 139.321 870.07 L 129.885 860.5 L 142.896 863.888 C 141.622 865.273 140.594 866.869 139.858 868.607 C 139.656 869.087 139.476 869.575 139.321 870.07 Z  M 143.888 862.896 L 140.5 849.885 L 150.07 859.321 C 149.574 859.476 149.085 859.656 148.605 859.858 C 146.869 860.594 145.273 861.622 143.888 862.896 Z  M 140.5 875 C 140.497 873.062 140.887 871.144 141.639 869.357 C 142.369 867.635 143.426 866.071 144.748 864.748 C 146.071 863.426 147.635 862.369 149.36 861.639 C 151.144 860.887 153.062 860.497 155 860.5 C 156.938 860.497 158.856 860.887 160.64 861.639 C 162.365 862.369 163.929 863.426 165.252 864.748 C 166.574 866.071 167.631 867.635 168.361 869.36 C 169.113 871.144 169.503 873.062 169.5 875 C 169.503 876.938 169.113 878.856 168.361 880.64 C 167.631 882.365 166.574 883.929 165.252 885.252 C 163.929 886.574 162.365 887.631 160.64 888.361 C 158.856 889.113 156.938 889.503 155 889.5 C 153.062 889.503 151.144 889.113 149.36 888.361 C 147.635 887.631 146.071 886.574 144.748 885.252 C 143.426 883.929 142.369 882.365 141.639 880.64 C 140.887 878.856 140.497 876.938 140.5 875 L 140.5 875 Z " fill-rule="evenodd" fill="rgb(255,255,255)"/></g></svg>