<?xml version="1.0" encoding="UTF-8" standalone="no"?>
<!-- Generator: Gravit.io -->
<svg xmlns="http://www.w3.org/2000/svg" xmlns:xlink="http://www.w3.org/1999/xlink" style="isolation:isolate" viewBox="600 360 100 100" width="100pt" height="100pt"><g style="isolation:isolate"><rect x="600" y="360" width="100" height="100" transform="matrix(0,1,-1,0,1060,-240)" fill="rgb(238,28,37)"/><path d=" M 652.163 433.968 L 634.627 422.661 L 617.092 433.968 L 622.427 413.797 L 606.255 400.614 L 627.087 399.455 L 634.627 380 L 642.167 399.455 L 663 400.614 L 646.828 413.797 L 652.163 433.968 Z " fill="rgb(255,255,0)"/><path d=" M 679.883 382.161 L 673.099 381.776 L 669.95 387.797 L 668.219 381.227 L 661.52 380.092 L 667.234 376.416 L 666.243 369.694 L 671.505 373.992 L 677.592 370.972 L 675.13 377.305 L 679.883 382.161 Z " fill="rgb(255,255,0)"/><path d=" M 693.942 404.385 L 687.527 402.146 L 682.84 407.065 L 682.987 400.272 L 676.861 397.335 L 683.367 395.376 L 684.267 388.641 L 688.141 394.224 L 694.824 392.999 L 690.712 398.408 L 693.942 404.385 Z " fill="rgb(255,255,0)"/><path d=" M 692.161 432.771 L 686.451 429.089 L 680.74 432.771 L 682.478 426.203 L 677.211 421.91 L 683.995 421.532 L 686.451 415.197 L 688.906 421.532 L 695.69 421.91 L 690.424 426.203 L 692.161 432.771 Z " fill="rgb(255,255,0)"/><path d=" M 673.12 453.42 L 668.926 448.074 L 662.326 449.689 L 666.114 444.048 L 662.539 438.27 L 669.074 440.13 L 673.464 434.944 L 673.715 441.734 L 680.004 444.307 L 673.624 446.644 L 673.12 453.42 Z " fill="rgb(255,255,0)"/></g></svg>