<svg width="900" height="900" viewBox="0 0 900 900" fill="none" xmlns="http://www.w3.org/2000/svg">
<g clip-path="url(#clip0_25_850)">
<path d="M598.26 100.876C582.483 88.4513 568.91 82.83 548.671 84.3667C542.133 85.2716 535.819 87.0434 529.506 88.9318L527.107 89.6442C512.069 94.2085 497.445 100.03 482.807 105.723C481.363 106.284 479.918 106.843 478.473 107.401C474.81 108.818 471.172 110.276 467.557 111.81L465.352 112.724C463.982 113.293 462.618 113.876 461.261 114.476C453.233 117.77 446.383 115.361 438.59 112.414C437.772 112.113 436.954 111.812 436.111 111.501C434.371 110.86 432.633 110.215 430.896 109.566C428.182 108.551 425.463 107.547 422.743 106.547C418.336 104.924 413.932 103.294 409.529 101.659L409.527 101.658C367.081 83.9143 367.08 83.914 323.248 87.4125C308.19 95.0193 294.896 106.74 282.509 118.034C280.547 119.815 278.556 121.554 276.549 123.284C270.081 128.951 264.602 135.049 259.381 141.887L257.627 144.116C251.175 152.71 249.003 162.469 247.118 172.891L246.546 175.947C245.957 179.105 245.379 182.266 244.801 185.426L244.78 185.541C244.388 187.645 243.996 189.748 243.603 191.852C241.654 202.327 239.775 212.812 237.966 223.312C236.177 233.67 234.292 244.01 232.418 254.353C228.742 274.643 225.115 287.574 221.634 307.899C220.845 312.498 220.042 317.095 219.227 321.691L218.762 324.327C218.287 326.997 217.802 329.665 217.313 332.333C217.094 333.574 217.094 333.574 216.87 334.839L216.44 337.149L216.068 339.194C215.578 340.863 215.577 340.864 213.754 342.688L213.752 342.69C213.257 342.31 212.763 341.929 212.254 341.537C203.007 334.434 193.732 327.387 184.254 320.596C180.004 317.549 173.682 314.464 169.483 311.347C161.718 305.583 153.872 299.973 145.858 294.563C144.118 293.388 142.383 292.207 140.647 291.026C115.962 274.297 102.622 269.129 71.4277 274.705C51.8708 279.519 35.9638 295.787 25.4015 312.719C10.7025 337.344 16.9811 365.458 23.2182 392.396C32.453 426.544 40.9517 439.659 67.5399 462.339C69.1569 463.719 70.7551 465.122 72.3452 466.533C80.7507 473.953 89.6342 480.546 98.8316 486.948L100.574 488.167C114.669 497.976 119.043 503.345 134.28 511.238L135.066 511.646C135.339 511.787 135.613 511.929 135.892 512.074C142.455 515.468 149.063 518.754 155.726 521.947C159.084 523.558 162.434 525.186 165.785 526.815C167.434 527.61 169.089 528.397 170.748 529.174C173.083 530.268 175.402 531.391 177.72 532.52C178.421 532.838 181.225 533.157 181.947 533.484C185.486 535.244 187.431 536.575 188.884 540.333C189.244 541.565 189.58 542.804 189.885 544.05L190.681 546.769L191.325 549.314C191.571 550.268 191.818 551.222 192.072 552.204C192.329 553.204 192.586 554.204 192.851 555.235C203.684 596.591 204.736 607.115 229.323 640.797C231.091 643.137 231.091 643.137 231.219 644.927C229.281 658.822 220.037 671.078 209.567 679.797C199.535 686.925 186.589 689.104 174.511 687.875C169.415 686.88 164.704 685.277 159.909 683.31C164.203 695.517 170.389 702.754 181.811 708.874C196.001 715.585 209.592 715.752 224.703 711.614C228.441 710.262 232.041 708.703 235.654 707.048C237.171 706.432 238.691 705.82 240.217 705.222C238.419 707.678 236.585 710.105 234.741 712.527L233.576 714.146C224.97 725.294 209.126 732.74 195.431 734.712C193.63 734.938 191.827 735.147 190.025 735.352C202.745 743.414 216.049 748.418 231.091 749.961C237.935 750.662 243.474 749.272 244.78 748.591C265.769 737.635 262.119 736.722 266.829 733.191L267.175 732.871C267.175 732.871 364.67 842.408 378.017 846.284C392.162 850.393 511.356 846.836 525.4 843.089C545.933 837.611 626.073 732.521 626.073 732.521L626.233 733.448C626.364 734.198 626.939 735.335 628.239 736.755C629.531 738.165 631.508 739.822 634.376 741.619C640.113 745.212 644.948 749.49 660.919 749.961L661.337 749.973C665.467 750.096 667.95 750.169 672.141 749.49C684.467 747.491 700.918 744.637 710.198 735.352L707.717 734.978C690.443 731.996 672.578 724.027 662.059 709.392C660.728 707.415 659.435 705.423 658.181 703.396L659.732 704.174L661.831 705.222L663.902 706.271C679.062 713.587 695.983 717.166 712.252 711.791C724.724 707.365 732.761 700.267 738.414 688.397C739.058 687.011 739.687 685.617 740.314 684.223C738.397 684.674 736.549 685.176 734.688 685.824C722.953 689.682 709.623 689.282 698.335 684.223C684.114 676.729 675.855 664.7 669.841 650.095C669.088 647.554 668.76 645.765 669.132 643.137C670.44 641.543 670.44 641.543 672.269 639.998C692.818 620.412 704.206 577.004 711.292 549.997L711.563 548.964L712.443 545.876L712.894 543.829C713.919 539.848 714.842 537.425 718.44 535.256C719.813 534.572 719.096 533.917 720.494 533.286L722.797 532.162C724.452 531.356 726.114 530.561 727.78 529.777C731.158 528.177 734.499 526.505 737.842 524.832L738.608 524.449C741.491 523.008 744.378 521.576 747.267 520.148L750.215 518.69C752.184 517.718 754.154 516.748 756.125 515.78C774.196 506.897 782.862 497.437 799.431 485.988C800.067 485.55 806.101 480.531 806.757 480.08C814.92 474.448 821.756 466.545 829.328 460.129L840.288 448.625C856.256 428.636 849.428 439.764 861.351 416.707L862.316 414.885C877.142 386.88 887.077 351.315 877.777 319.927C870.177 297.42 854.659 282.611 833.849 272.232C818.313 264.907 804.088 264.462 787.863 270.22C761.777 279.975 759.554 284.684 737.296 301.186C735.512 302.499 733.726 303.81 731.939 305.12C730.802 305.954 729.664 306.79 728.528 307.626C724.857 310.325 721.161 312.984 717.448 315.623C708.194 322.205 701.15 328.94 692.089 335.785C691.75 336.041 691.412 336.297 691.068 336.556L690.534 336.96C689.194 337.974 687.857 338.992 686.521 340.011C684.646 341.359 684.646 341.359 683.733 341.359C681.525 329.163 679.365 327.483 677.263 315.269L677.026 313.89L676.753 312.309C676.405 310.286 676.058 308.264 675.71 306.241L675.178 303.15L674.915 301.62C674.824 301.095 674.734 300.566 674.641 300.03C672.251 286.155 669.78 272.299 667.195 258.459C665.465 249.185 663.84 239.901 662.323 230.59C660.039 216.578 657.579 202.6 655.023 188.635C654.623 186.444 654.225 184.252 653.83 182.06C651.038 161.464 651.038 161.464 641.583 143.542L640.232 141.92C638.932 140.371 637.609 138.845 636.279 137.322L634.375 135.064C624.494 123.675 613.616 112.661 601.601 103.54C600.486 102.653 599.373 101.765 598.26 100.876Z" fill="black"/>
<path d="M267.435 447.119C271.552 447.678 275.157 448.741 279.041 450.199C286.635 452.965 294.141 455.353 302.196 456.246C299.605 459.422 296.959 462.43 293.985 465.252C284.19 474.573 276.783 484.125 272.924 497.319C273.382 496.954 273.841 496.588 274.314 496.211C279.51 492.315 284.916 489.347 290.762 486.538C291.477 486.187 292.193 485.835 292.93 485.474C304.762 479.925 304.762 479.925 311.121 481.525C313.745 482.528 316.249 483.658 318.776 484.883C319.651 485.283 320.526 485.683 321.428 486.096C323.566 487.077 325.691 488.08 327.809 489.105C324.392 493.111 319.977 495.274 315.46 497.833C307.643 502.363 301.168 507.268 294.878 513.749C304.959 528.755 319.896 537.238 336.957 542.044C336.194 541.346 335.431 540.648 334.645 539.929C329.083 534.701 324.197 529.504 320.263 522.933C319.924 522.373 319.586 521.813 319.237 521.236C317.309 517.853 316.32 514.877 315.918 511.011C317.69 510.986 319.462 510.968 321.235 510.953C322.222 510.943 323.209 510.932 324.225 510.921C326.895 511.011 326.895 511.011 329.639 511.923C330.85 514.184 330.85 514.184 332.097 517.057C335.932 525.013 341.552 529.714 349.764 532.916C356.213 535.057 365.317 535.107 371.74 532.863C374.059 531.516 376.061 530.067 378.121 528.353C378.854 527.77 379.586 527.188 380.34 526.588C384.613 523.009 387.906 519.331 390.928 514.661C396.166 518.549 401.338 522.514 406.479 526.527C405.49 528.943 404.499 531.358 403.506 533.772C403.215 534.482 402.923 535.191 402.623 535.922C401.095 539.63 399.528 543.308 397.846 546.95C396.236 550.077 396.236 550.077 396.417 552.996C403.478 547.832 410.329 542.468 417.06 536.88C417.653 536.392 418.246 535.904 418.857 535.401C419.381 534.966 419.905 534.531 420.445 534.082C422.118 532.851 423.824 531.996 425.689 531.091C424.943 537.616 424.195 544.142 423.445 550.667C423.19 552.882 422.937 555.096 422.684 557.311C420.137 579.594 420.137 579.594 418.727 588.953C417.733 594.28 417.733 594.28 418.371 599.546C420.557 601.837 422.942 603.463 425.689 605.023C426.595 602.312 426.861 600.128 427.084 597.289C427.167 596.257 427.249 595.226 427.335 594.163C427.421 593.038 427.508 591.913 427.597 590.754C427.69 589.581 427.783 588.408 427.879 587.2C428.13 584.024 428.377 580.847 428.623 577.671C428.827 575.051 429.033 572.432 429.239 569.813C430.875 549.001 432.442 528.184 433.922 507.36C434.224 507.36 434.526 507.36 434.837 507.36C434.837 510.974 434.837 514.588 434.837 518.312C435.742 518.28 436.646 518.248 437.579 518.214C440.93 518.095 444.282 517.983 447.634 517.872C449.085 517.824 450.537 517.773 451.989 517.721C454.073 517.646 456.157 517.578 458.242 517.51C458.893 517.486 459.544 517.461 460.214 517.435C464.816 517.296 464.816 517.296 466.853 518.312C467.222 519.689 467.537 521.081 467.825 522.477C469.472 528.397 473.165 531.046 477.831 534.742C479.066 535.943 480.291 537.155 481.49 538.393C477.275 537.032 474.738 534.836 471.427 532.004C471.404 536.336 471.388 540.668 471.377 545C471.372 546.469 471.366 547.937 471.358 549.405C471.347 551.538 471.342 553.67 471.338 555.802C471.333 556.44 471.328 557.078 471.324 557.734C471.323 562.74 471.703 567.682 472.111 572.67C472.5 577.959 472.661 583.254 472.832 588.554C472.867 589.583 472.902 590.612 472.938 591.671C473.066 595.456 473.19 599.241 473.314 603.026C473.597 611.516 473.88 620.006 474.172 628.754C452.437 629.055 430.702 629.356 408.309 629.667C406.799 625.45 405.29 621.233 403.735 616.888C403.492 617.955 403.249 619.022 402.999 620.122C402.673 621.535 402.346 622.948 402.02 624.361C401.86 625.063 401.701 625.765 401.537 626.488C400.693 630.123 399.773 633.544 398.246 636.968C399.453 637.324 399.453 637.324 400.685 637.686C403.724 638.79 405.967 640.086 408.623 641.91C409.531 642.526 410.438 643.142 411.373 643.777C412.324 644.429 413.275 645.082 414.255 645.754C425.199 653.133 435.573 660.015 448.147 664.343C450.388 665.263 450.388 665.263 451.302 667.089C457.739 669.23 461.697 667.712 467.586 664.843C470.243 663.567 472.93 662.421 475.652 661.295C483.855 657.869 491.348 653.566 498.941 648.973C501.461 647.466 504.017 646.03 506.588 644.613C507.361 644.187 508.133 643.761 508.929 643.322C510.762 642.445 510.762 642.445 512.592 642.445C512.386 641.726 512.386 641.726 512.177 640.992C510.719 635.882 509.265 630.771 507.812 625.66C507.274 623.767 506.735 621.874 506.195 619.981C501.094 602.105 496.34 584.152 491.838 566.117C491.58 565.092 491.323 564.067 491.057 563.012C489.312 556.04 487.66 549.05 486.063 542.044C488.973 542.616 491.013 543.618 493.482 545.242C494.171 545.692 494.861 546.142 495.572 546.606C496.283 547.077 496.994 547.548 497.727 548.033C498.814 548.746 498.814 548.746 499.924 549.472C501.71 550.642 503.493 551.817 505.273 552.996C502.663 545.309 499.798 537.987 496.251 530.677C495.211 528.353 495.211 528.353 495.211 526.527C496.755 525.144 496.755 525.144 498.87 523.561C499.614 522.999 500.358 522.438 501.125 521.86C501.89 521.292 502.655 520.723 503.444 520.138C504.162 519.598 504.88 519.058 505.62 518.501C507.33 517.216 509.044 515.936 510.762 514.661C511.379 515.622 511.379 515.622 512.009 516.601C517.151 524.168 523.652 531.149 532.716 533.829C541.904 534.887 551.705 535.203 559.245 529.265C564.727 524.681 568.996 520.296 571.394 513.488C572.051 511.923 572.051 511.923 573.881 511.011C575.556 510.923 577.234 510.892 578.912 510.896C579.808 510.894 580.704 510.892 581.628 510.889C583.943 511.011 583.943 511.011 585.773 511.923C582.532 522.646 576.233 531.451 568.392 539.305C567.594 540.105 567.594 540.105 566.781 540.921C566.407 541.291 566.033 541.662 565.648 542.044C569.292 542.044 572.093 540.635 575.367 539.191C576.348 538.762 576.348 538.762 577.349 538.325C582.34 536.086 586.891 533.485 591.261 530.178C591.808 530.46 592.355 530.743 592.919 531.034C595.002 532.097 595.002 532.097 597.665 532.916C597.966 534.422 598.268 535.928 598.579 537.48C597.674 537.179 596.768 536.878 595.835 536.567C596.31 537.041 596.785 537.516 597.275 538.004C598.595 539.321 599.915 540.639 601.234 541.958C602.704 543.422 604.184 544.874 605.669 546.322C609.794 550.552 609.794 550.552 611.386 552.996C611.034 556.352 609.955 558.822 608.27 561.717C607.82 562.498 607.37 563.278 606.906 564.082C606.18 565.315 606.18 565.315 605.44 566.573C604.698 567.85 604.698 567.85 603.94 569.152C602.466 571.682 600.981 574.205 599.494 576.728C599.091 577.416 598.688 578.103 598.273 578.812C594.943 584.494 591.569 590.087 587.716 595.439C578.726 608.118 579.416 626.085 577.768 641.133C577.284 645.534 576.797 649.935 576.311 654.335C576.187 655.458 576.063 656.581 575.935 657.738C575.064 665.612 574.178 673.483 573.28 681.354C573.157 682.433 573.034 683.512 572.908 684.623C572.432 688.795 571.956 692.966 571.477 697.137C571.148 700.006 570.82 702.875 570.493 705.745C570.39 706.648 570.286 707.551 570.179 708.482C569.687 712.825 569.223 717.168 568.82 721.52C568.744 722.338 568.667 723.157 568.588 724C568.449 725.51 568.316 727.021 568.191 728.532C566.926 742.317 561.974 753.955 553.756 764.959C551.626 767.906 549.802 770.961 547.967 774.097C546.139 777.111 544.181 780.029 542.207 782.949C529.319 801.655 529.319 801.655 518.08 821.342C517.476 821.342 516.873 821.342 516.251 821.342C515.647 822.848 515.043 824.354 514.421 825.905C502.347 826.797 490.334 826.929 478.231 826.875C476.407 826.87 474.582 826.866 472.758 826.863C468.351 826.853 463.943 826.837 459.535 826.818C459.217 825.382 459.217 825.382 458.893 823.918C458.099 820.338 457.304 816.759 456.509 813.18C456.166 811.637 455.824 810.093 455.482 808.549C454.988 806.319 454.492 804.09 453.997 801.86C453.846 801.179 453.695 800.498 453.54 799.796C452.561 795.397 451.499 791.025 450.388 786.658C450.171 787.809 449.954 788.961 449.73 790.148C448.927 794.411 448.12 798.673 447.311 802.936C446.962 804.782 446.613 806.629 446.265 808.476C445.766 811.128 445.263 813.778 444.76 816.428C444.527 817.672 444.527 817.672 444.289 818.941C444.143 819.708 443.996 820.476 443.845 821.266C443.717 821.943 443.589 822.62 443.457 823.318C443.07 824.992 443.07 824.992 442.155 826.818C435.074 826.869 427.994 826.871 420.913 826.827C416.698 826.807 412.488 826.85 408.274 826.933C405.417 826.979 402.561 826.983 399.704 826.979C398.327 826.986 396.951 827.01 395.574 827.053C389.047 827.247 383.503 827.321 378.409 822.608C376.353 820.46 374.484 818.189 372.633 815.865C371.499 814.582 370.361 813.303 369.217 812.029C368.721 811.45 368.225 810.872 367.714 810.276C365.102 807.262 362.341 804.385 359.597 801.49C353.828 795.375 348.119 789.21 342.446 783.007C341.191 781.639 339.935 780.273 338.679 778.906C337.424 777.54 336.168 776.173 334.913 774.806C333.191 772.931 331.466 771.058 329.739 769.187C323.839 762.79 318.043 756.332 312.447 749.667C307.571 743.869 302.522 738.271 297.354 732.731C294.321 729.468 291.375 726.147 288.475 722.766C288.079 722.309 287.684 721.852 287.276 721.381C285.919 719.811 284.566 718.237 283.215 716.662C282.783 716.162 282.35 715.663 281.905 715.148C277.863 710.41 275.42 706.969 274.925 700.686C274.83 699.557 274.735 698.429 274.637 697.266C274.545 696.032 274.452 694.799 274.36 693.565C274.255 692.276 274.148 690.988 274.04 689.699C273.813 686.965 273.592 684.231 273.376 681.496C272.815 674.404 272.212 667.317 271.605 660.229C271.546 659.531 271.486 658.833 271.425 658.113C270.322 645.234 268.878 632.423 267.034 619.627C265.732 610.502 265.08 601.449 264.691 592.244C265.295 592.244 265.898 592.244 266.52 592.244C268.005 594.155 269.389 596.068 270.751 598.063C271.503 599.156 272.258 600.247 273.017 601.336C273.427 601.935 273.837 602.535 274.259 603.153C275.639 605.073 275.639 605.073 277.4 606.764C284.199 613.902 285.841 622.711 288.151 632.001C289.131 635.945 290.161 639.875 291.188 643.807C291.7 645.769 292.21 647.732 292.717 649.696C294.79 657.716 297.045 665.666 299.452 673.592C299.76 674.62 300.068 675.648 300.386 676.707C302.588 683.934 305.089 691.029 307.685 698.122C306.781 689.302 305.841 680.49 304.772 671.688C302.618 653.871 300.669 636.085 299.441 618.177C299.393 617.506 299.344 616.835 299.294 616.143C299.165 614.348 299.044 612.552 298.924 610.756C298.37 606.467 297.127 603.398 294.346 600.102C293.876 599.538 293.406 598.973 292.922 598.391C292.164 597.495 292.164 597.495 291.39 596.58C283.32 586.851 275.23 576.955 268.234 566.416C266.977 564.607 265.638 562.854 264.256 561.138C256.97 551.788 256.091 544.258 256.454 532.663C256.476 530.999 256.494 529.334 256.509 527.67C256.551 524.202 256.624 520.737 256.722 517.271C256.844 512.869 256.898 508.471 256.93 504.068C256.96 500.637 257.022 497.206 257.093 493.776C257.124 492.155 257.147 490.534 257.161 488.913C257.275 478.929 258.598 471.169 263.157 462.225C265.458 457.363 266.483 452.404 267.435 447.119Z" fill="#FFCEA3"/>
<path d="M324.07 601.583C315.619 597.53 269.901 541.004 257.5 523.5V478L268.5 447.5L324.07 466C330.347 473.063 331.878 544.465 352.086 548.15C366.783 550.83 397.555 543.083 416.386 534.331C402.791 543.544 346.575 613.099 326.826 642.119C326.826 629.221 326.826 610.335 324.07 601.583Z" fill="#E08F49"/>
<path d="M429.885 128.745C433.637 130.282 437.408 131.722 441.232 133.061C441.87 133.299 442.508 133.536 443.166 133.781C451.002 136.524 457.392 135.771 465.023 132.749C465.767 132.467 466.512 132.184 467.28 131.892C469.681 130.976 472.074 130.042 474.468 129.107C476.135 128.467 477.802 127.828 479.469 127.191C488.529 123.716 497.539 120.123 506.514 116.423C514.192 113.308 522.012 110.632 529.843 107.958C530.499 107.734 531.155 107.51 531.831 107.279C544.81 102.86 557.509 99.108 570.497 105.637C571.306 106.1 572.116 106.564 572.95 107.041C573.742 107.486 574.533 107.93 575.348 108.388C584.399 113.904 592.35 121.377 599.718 129.049C600.983 130.32 602.249 131.589 603.517 132.857C616.959 146.394 616.959 146.394 622.526 153.637C622.913 154.135 623.3 154.633 623.699 155.146C627.887 160.796 628.65 166.747 629.5 173.585C630.7 182.679 632.266 191.661 633.969 200.668C637.666 220.269 641.029 239.927 644.311 259.605C644.661 261.704 645.012 263.802 645.364 265.901C649.584 291.095 649.584 291.095 651.336 303.528C651.444 304.291 651.553 305.054 651.665 305.84C652.134 309.289 652.485 312.634 652.361 316.119C644.194 314.74 636.035 313.331 627.89 311.824C608.229 308.207 588.629 305.321 568.736 303.47C566.712 303.281 564.688 303.088 562.664 302.895C552.719 301.954 542.766 301.189 532.799 300.53C531.711 300.456 531.711 300.456 530.601 300.382C476.397 296.782 421.039 296.959 366.84 300.53C365.922 300.59 365.004 300.65 364.058 300.712C326.643 303.194 289.925 307.424 253.175 315.117C248.356 316.119 248.356 316.119 246.386 316.119C247.515 304.365 249.188 292.787 251.182 281.158C251.465 279.487 251.747 277.815 252.028 276.144C252.578 272.882 253.13 269.622 253.683 266.361C254.583 261.038 255.454 255.711 256.312 250.381C256.449 249.535 256.586 248.688 256.727 247.817C257.473 243.208 258.209 238.597 258.94 233.986C261.059 220.686 263.288 207.407 265.604 194.142C265.911 192.381 266.216 190.62 266.519 188.858C267.931 180.667 269.369 172.481 271.32 164.404C271.57 163.365 271.82 162.326 272.077 161.255C274.115 155.839 278.08 152.308 282.076 148.306C283.044 147.182 284.003 146.049 284.955 144.911C331.612 89.544 370.101 103.976 429.885 128.745Z" fill="#A1450F"/>
<path d="M297.533 428.322C312.161 426.823 325.539 433.934 338.803 439.249C348.866 443.25 359.195 446.227 369.665 448.974C370.266 449.132 370.866 449.289 371.484 449.452C393.158 455.132 393.158 455.132 415.326 458.102C416.351 458.181 417.376 458.26 418.433 458.342C473.715 462.226 522.819 453.496 574.616 435.018C575.457 434.719 576.298 434.421 577.164 434.113C578.628 433.588 580.09 433.056 581.547 432.513C582.177 432.284 582.807 432.056 583.456 431.82C583.974 431.627 584.491 431.433 585.025 431.234C590.515 429.806 596.121 429.668 601.763 429.684C602.445 429.683 603.126 429.682 603.829 429.681C605.259 429.681 606.69 429.682 608.12 429.686C610.29 429.691 612.46 429.686 614.63 429.68C616.029 429.681 617.429 429.682 618.828 429.684C619.467 429.682 620.105 429.68 620.763 429.678C625.116 429.699 629.281 430.112 633.582 430.718C633.651 431.417 633.72 432.116 633.79 432.836C634.111 436.048 634.446 439.259 634.781 442.47C634.889 443.569 634.996 444.668 635.107 445.801C636.316 457.45 636.316 457.45 641.402 467.775C645.212 474.565 644.302 482.606 644.266 490.16C644.272 491.866 644.278 493.572 644.286 495.278C644.297 498.843 644.291 502.408 644.273 505.974C644.252 510.524 644.277 515.072 644.314 519.622C644.338 523.142 644.335 526.662 644.325 530.182C644.324 531.858 644.331 533.535 644.347 535.211C644.421 544.658 644.382 551.778 638.148 559.422C637.302 560.653 636.463 561.888 635.634 563.13C634.782 564.331 633.927 565.529 633.069 566.724C632.601 567.38 632.134 568.036 631.653 568.712C630.169 570.791 628.68 572.866 627.19 574.94C626.7 575.623 626.211 576.307 625.706 577.012C624.719 578.39 623.73 579.768 622.74 581.145C621.747 582.526 620.759 583.909 619.774 585.295C617.376 588.643 614.933 591.871 612.229 594.978C604.81 603.651 602.685 610.618 601.869 621.896C601.573 625.759 601.19 629.608 600.796 633.462C600.641 634.988 600.485 636.515 600.33 638.041C600.211 639.206 600.211 639.206 600.09 640.395C599.851 642.774 599.617 645.153 599.386 647.532C598.397 657.677 597.294 667.8 596.027 677.914C595.882 679.081 595.737 680.248 595.588 681.451C594.755 687.979 593.747 694.445 592.488 700.905C596.497 690.062 599.915 679.119 603.036 667.99C603.807 665.242 604.589 662.498 605.371 659.753C607.753 651.328 610.031 642.916 611.847 634.35C612.072 633.317 612.072 633.317 612.301 632.264C612.983 629.121 613.622 625.986 614.187 622.819C615.932 614.527 619.23 610.262 625.409 604.815C629.476 601.217 632.399 596.777 635.409 592.283C636.365 595.15 636.304 596.418 635.942 599.358C635.835 600.266 635.728 601.175 635.617 602.11C635.493 603.119 635.369 604.127 635.241 605.165C634.978 607.417 634.716 609.669 634.457 611.921C634.351 612.834 634.351 612.834 634.244 613.765C633.331 621.745 632.561 629.739 631.781 637.733C631.624 639.334 631.467 640.935 631.31 642.535C630.748 648.278 630.188 654.02 629.629 659.763C629.15 664.686 628.669 669.609 628.186 674.532C627.965 676.79 627.746 679.049 627.527 681.308C627.128 685.408 626.709 689.506 626.277 693.603C626.205 694.29 626.134 694.978 626.06 695.686C625.846 697.703 625.62 699.718 625.389 701.732C625.194 703.478 625.194 703.478 624.995 705.259C624.209 709.513 623.003 711.125 619.827 714.027C618.915 714.907 618.003 715.788 617.091 716.669C616.637 717.086 616.183 717.503 615.715 717.933C613.749 719.776 611.972 721.771 610.181 723.782C609.515 724.524 608.849 725.265 608.162 726.029C605.45 729.132 602.866 732.332 600.272 735.534C594.153 742.956 587.75 750.145 581.401 757.37C579.994 758.989 578.598 760.616 577.206 762.248C572.105 768.229 566.951 774.134 561.635 779.926C559.941 781.784 558.284 783.662 556.645 785.567C550.26 792.903 543.482 799.901 536.818 806.982C535.928 807.929 535.928 807.929 535.02 808.895C533.846 810.143 532.67 811.39 531.493 812.635C527.831 816.522 524.319 820.493 520.994 824.675C518.903 826.392 517.496 826.21 514.865 825.958C515.468 824.452 516.071 822.946 516.692 821.394C517.294 821.394 517.897 821.394 518.518 821.394C518.741 820.611 518.963 819.827 519.192 819.02C520.436 815.672 522.133 812.993 524.169 810.098C529.076 802.945 533.653 795.6 538.205 788.217C541.363 783.12 544.638 778.153 548.11 773.263C550.109 770.42 551.988 767.509 553.848 764.573C555.764 761.563 557.675 758.568 559.737 755.655C561.519 752.806 562.458 750.281 563.38 747.059C563.664 746.081 563.949 745.103 564.243 744.095C564.523 743.096 564.803 742.098 565.092 741.068C565.392 740.097 565.693 739.125 566.003 738.124C566.931 734.63 567.444 731.221 567.808 727.636C567.917 726.622 567.917 726.622 568.029 725.587C568.269 723.357 568.502 721.125 568.734 718.894C568.903 717.312 569.072 715.731 569.242 714.15C569.601 710.802 569.956 707.453 570.308 704.105C570.856 698.902 571.412 693.7 571.97 688.498C572.155 686.771 572.34 685.044 572.525 683.318C572.616 682.468 572.707 681.619 572.801 680.744C573.075 678.184 573.348 675.625 573.621 673.065C574.979 660.339 576.373 647.616 577.82 634.899C577.907 634.126 577.994 633.354 578.083 632.558C578.602 627.954 579.142 623.353 579.703 618.754C579.843 617.566 579.984 616.378 580.128 615.155C581.308 605.924 583.715 600.024 589.121 592.511C592.45 587.772 595.538 583.075 598.196 577.92C599.601 575.299 601.074 572.748 602.59 570.19C603.095 569.331 603.601 568.473 604.121 567.588C605.144 565.853 606.175 564.122 607.215 562.397C607.684 561.595 608.153 560.794 608.637 559.968C609.066 559.248 609.495 558.528 609.937 557.786C610.894 555.421 610.767 554.459 609.839 552.12C608.777 550.607 608.777 550.607 607.499 549.267C605.273 546.643 605.273 546.643 605.273 544.817C604.741 544.584 604.209 544.351 603.661 544.111C601.425 542.885 599.96 541.515 598.196 539.683C597.635 539.106 597.075 538.53 596.498 537.936C596.079 537.496 595.659 537.056 595.228 536.602C595.529 536 595.83 535.397 596.141 534.777C596.744 535.078 597.346 535.379 597.967 535.689C596.012 533.54 594.187 532.366 591.575 531.125C590.939 531.607 590.939 531.607 590.291 532.099C585.703 535.376 580.969 537.831 575.822 540.082C575.196 540.358 574.571 540.633 573.926 540.917C570.704 542.293 567.649 543.387 564.179 543.905C564.179 543.302 564.179 542.7 564.179 542.079C565.552 540.792 565.552 540.792 567.432 539.284C576.213 531.723 580.94 522.135 586.096 511.957C581.575 511.957 577.055 511.957 572.397 511.957C572.096 513.463 571.795 514.969 571.484 516.521C567.535 523.758 560.901 530.632 553.341 534.031C545.442 536.089 535.511 536.414 527.993 532.951C520.745 528.47 515.06 522.625 510.299 515.608C509.682 516.169 509.066 516.73 508.43 517.309C507.208 518.415 507.208 518.415 505.962 519.544C504.754 520.64 504.754 520.64 503.522 521.759C498.044 526.561 498.044 526.561 495.688 526.561C495.988 527.229 496.287 527.896 496.596 528.584C497.953 531.616 499.303 534.651 500.654 537.686C501.361 539.261 501.361 539.261 502.082 540.868C502.533 541.883 502.983 542.898 503.447 543.944C503.863 544.876 504.279 545.808 504.707 546.768C505.653 549.177 506.235 551.398 506.646 553.945C500.984 551.012 495.682 548.02 490.719 543.997C489.337 542.816 489.337 542.816 487.469 542.992C494.178 570.186 500.922 597.402 508.954 624.241C509.937 627.547 510.905 630.856 511.844 634.175C512.073 634.98 512.302 635.784 512.538 636.613C513.039 638.835 513.039 638.835 513.039 642.486C512.418 642.822 511.797 643.158 511.157 643.503C508.303 645.047 505.448 646.59 502.594 648.134C501.618 648.662 500.641 649.19 499.635 649.734C495.358 652.048 491.087 654.366 486.852 656.756C482.656 659.094 478.349 661.16 473.999 663.195C473.247 663.551 472.495 663.907 471.72 664.274C460.812 669.41 460.812 669.41 454.594 668.957C452.368 668.045 452.368 668.045 450.941 667.132C450.941 666.529 450.941 665.927 450.941 665.306C449.867 665.156 448.794 665.005 447.688 664.85C443.6 663.932 440.091 662.289 436.429 660.307C435.835 659.988 435.241 659.668 434.628 659.339C427.894 655.652 421.528 651.434 415.154 647.165C413.396 645.993 411.637 644.824 409.876 643.657C408.796 642.94 407.718 642.221 406.641 641.499C404.125 639.824 401.634 638.279 398.888 637.01C400.239 629.971 401.813 622.992 403.454 616.015C406.114 617.345 406.243 619.077 407.221 621.834C407.705 623.172 407.705 623.172 408.198 624.537C408.933 626.969 408.933 626.969 408.933 629.707C409.536 629.406 410.139 629.105 410.76 628.795C412.755 628.684 414.753 628.633 416.751 628.607C417.366 628.598 417.981 628.589 418.614 628.58C420.65 628.551 422.686 628.528 424.722 628.506C426.132 628.487 427.542 628.468 428.952 628.448C432.666 628.398 436.38 628.353 440.095 628.309C443.884 628.263 447.673 628.212 451.462 628.162C458.898 628.063 466.334 627.971 473.771 627.882C473.552 621.303 473.329 614.724 473.104 608.145C472.999 605.089 472.896 602.033 472.794 598.977C472.676 595.449 472.555 591.921 472.433 588.393C472.398 587.316 472.363 586.239 472.327 585.13C472.145 579.959 471.884 574.814 471.463 569.657C471.083 564.97 470.908 560.339 470.942 555.639C470.944 554.57 470.944 554.57 470.946 553.48C470.951 551.258 470.963 549.036 470.974 546.814C470.979 545.285 470.983 543.756 470.987 542.227C470.997 538.526 471.012 534.826 471.031 531.125C471.898 531.709 472.764 532.293 473.657 532.894C476.285 534.709 476.285 534.709 478.337 535.689C477.699 535.16 477.061 534.63 476.404 534.085C475.573 533.372 474.741 532.659 473.885 531.924C473.059 531.225 472.232 530.526 471.381 529.806C468.014 526.198 467.379 523.21 467.379 518.346C456.831 518.346 446.283 518.346 435.416 518.346C433.964 526.635 433.964 526.635 433.076 534.888C433.009 535.84 432.942 536.792 432.873 537.772C432.776 539.262 432.776 539.262 432.677 540.781C432.565 542.382 432.565 542.382 432.452 544.015C432.217 547.401 431.99 550.787 431.763 554.174C431.168 562.922 430.562 571.67 429.937 580.416C429.862 581.481 429.786 582.545 429.709 583.641C429.489 586.689 429.258 589.735 429.024 592.782C428.927 594.151 428.927 594.151 428.828 595.549C428.761 596.39 428.693 597.231 428.624 598.097C428.569 598.829 428.514 599.561 428.457 600.314C428.083 602.483 427.361 604.067 426.284 605.975C424.892 605.116 423.527 604.213 422.175 603.293C421.412 602.796 420.649 602.298 419.863 601.785C416.759 597.986 417.903 593.043 418.356 588.376C418.763 584.843 419.207 581.316 419.663 577.789C419.828 576.491 419.991 575.193 420.155 573.894C420.583 570.504 421.017 567.115 421.452 563.725C421.896 560.256 422.335 556.786 422.774 553.316C423.634 546.527 424.5 539.739 425.371 532.951C422.702 534.243 420.576 535.595 418.319 537.526C417.68 538.064 417.042 538.603 416.385 539.158C415.715 539.727 415.045 540.295 414.355 540.881C408.536 545.757 402.746 550.157 396.148 553.945C396.668 550.093 397.573 546.89 399.148 543.341C399.557 542.412 399.966 541.482 400.388 540.524C401.03 539.091 401.03 539.091 401.685 537.629C402.116 536.652 402.548 535.676 402.992 534.67C404.054 532.269 405.121 529.87 406.194 527.474C403.364 524.603 400.425 522.024 397.29 519.487C396.39 518.758 395.491 518.028 394.564 517.277C393.882 516.726 393.199 516.175 392.495 515.608C390.164 517.883 388.039 520.211 385.989 522.739C382.33 526.965 378.053 530.018 373.318 532.951C372.779 533.305 372.24 533.659 371.684 534.024C365.09 536.481 354.203 535.722 347.73 533.044C338.674 528.009 333.236 521.888 330.397 511.957C325.877 511.656 321.357 511.354 316.699 511.044C321.074 523.433 328.263 532.302 337.703 541.166C338.306 541.769 338.908 542.371 339.529 542.992C323.613 540.075 307.08 530.993 297.311 517.734C296.442 516.434 295.608 515.11 294.782 513.782C300.498 507.389 306.826 502.775 314.101 498.372C315.823 497.33 317.536 496.273 319.246 495.213C322.043 493.481 324.848 491.762 327.658 490.05C325.471 489.021 323.283 487.995 321.094 486.969C320.479 486.68 319.864 486.39 319.23 486.092C318.019 485.525 316.804 484.967 315.585 484.417C313.96 483.66 313.96 483.66 311.801 482.426C304.546 480.643 296.961 484.864 290.616 487.996C289.811 488.377 289.007 488.758 288.178 489.151C282.759 491.773 277.785 494.802 272.865 498.265C275.987 485.531 282.993 476.382 292.043 467.23C292.516 466.749 292.989 466.269 293.476 465.774C296.324 462.889 299.196 460.03 302.088 457.189C301.345 457.081 300.602 456.973 299.837 456.861C296.086 456.182 292.46 455.243 288.789 454.222C288.073 454.024 287.356 453.826 286.617 453.621C280.347 451.842 274.321 449.647 268.299 447.148C267.998 448.052 267.696 448.956 267.386 449.887C267.386 443.561 267.386 437.235 267.386 430.718C274.831 430.118 282.275 429.592 289.73 429.128C292.352 428.936 294.928 428.664 297.533 428.322Z" fill="#E08F49"/>
<path d="M826.521 288.401C827.306 288.735 828.091 289.07 828.9 289.414C836.675 293.035 842.235 298.496 848.121 304.789C848.674 305.363 849.228 305.937 849.798 306.528C859.109 316.955 862.592 332.214 862.377 346.101C862.366 347.203 862.354 348.306 862.343 349.442C861.891 371.01 856.918 390.948 846.393 409.491C845.924 410.327 845.455 411.162 844.972 412.023C838.826 422.579 831.44 431.917 823.407 440.904C822.185 442.285 820.986 443.684 819.791 445.091C814.844 450.908 809.722 456.336 804.057 461.387C803.557 461.834 803.057 462.281 802.542 462.742C795.01 469.44 787.304 475.596 778.99 481.171C777.214 482.367 775.453 483.586 773.692 484.806C761.454 493.207 748.646 500.517 735.801 507.82C734.989 508.283 734.177 508.746 733.34 509.224C725.752 513.538 718.086 517.658 710.313 521.591C709.615 521.947 708.917 522.303 708.197 522.67C707.55 522.992 706.903 523.314 706.236 523.646C705.382 524.074 705.382 524.074 704.51 524.511C702.969 525.119 702.969 525.119 700.377 525.119C700.012 519.857 699.747 514.604 699.571 509.331C699.497 507.544 699.397 505.757 699.269 503.973C698.264 489.565 698.264 489.565 701.767 485.114C705.239 482.007 709.102 479.874 713.207 477.843C726.996 470.586 745.199 455.257 750.84 439.817C752.595 432.629 751.617 426.932 748.225 420.505C746.89 418.366 745.391 416.653 743.577 414.954C743.577 414.353 743.577 413.752 743.577 413.133C743.083 412.877 742.588 412.621 742.079 412.358C740.831 411.691 739.596 410.996 738.38 410.266C724.37 402.162 707.403 400.944 691.738 401.069C691.117 401.072 690.496 401.074 689.856 401.077C679.174 401.128 668.648 401.764 658.042 403.118C656.426 403.308 654.811 403.497 653.195 403.687C642.613 404.986 632.265 407.002 621.862 409.413C618.378 410.215 614.924 410.846 611.386 411.312C615.054 407.949 619.001 405.677 623.266 403.289C639.956 393.766 656.059 383.222 671.866 372.162C672.414 371.78 672.962 371.397 673.527 371.003C676.09 369.213 678.648 367.416 681.201 365.611C684.113 363.555 687.037 361.516 689.962 359.48C690.878 358.841 691.793 358.203 692.736 357.545C694.544 356.283 696.353 355.024 698.164 353.767C702.795 350.53 707.265 347.181 711.619 343.543C713.972 341.591 716.397 339.78 718.845 337.964C723.08 334.807 727.271 331.593 731.437 328.336C799.334 275.259 799.334 275.259 826.521 288.401Z" fill="#762C12"/>
<path d="M108.94 289.535C110.243 290.031 110.243 290.031 111.572 290.537C132.127 298.908 150.999 313.396 168.45 327.329C171.96 330.117 175.508 332.85 179.05 335.594C183.616 339.139 188.136 342.728 192.595 346.422C199.149 351.798 206.032 356.658 212.901 361.57C215.088 363.142 217.254 364.744 219.414 366.358C223.576 369.449 227.794 372.443 232.042 375.401C233.309 376.288 234.572 377.18 235.834 378.074C248.667 387.169 261.797 395.422 275.383 403.194C276.114 403.612 276.845 404.03 277.598 404.461C281.183 406.505 284.777 408.529 288.386 410.527C285.016 411.715 282.528 410.872 279.172 410.058C277.793 409.738 276.414 409.42 275.035 409.102C274.306 408.932 273.578 408.762 272.827 408.587C250.868 403.514 229.187 400.14 206.682 400.1C206.078 400.098 205.474 400.096 204.852 400.094C194.166 400.098 183.453 400.761 173.361 404.741C172.744 404.98 172.126 405.218 171.49 405.464C161.693 409.417 154.964 415.053 148.871 423.989C146.899 430.493 146.928 437.439 149.63 443.697C158.775 460.483 175.908 471.297 190.8 481.725C191.268 482.059 191.735 482.394 192.217 482.738C193.878 483.891 193.878 483.891 195.691 484.768C200.465 487.341 200.465 487.341 201.438 490.263C201.634 492.511 201.611 494.651 201.508 496.906C201.493 498.117 201.493 498.117 201.478 499.353C201.439 501.923 201.352 504.488 201.264 507.057C201.229 508.802 201.197 510.548 201.169 512.293C201.093 516.565 200.973 520.833 200.83 525.103C196.607 525.282 193.824 523.957 190.157 521.895C188.909 521.213 187.66 520.531 186.412 519.85C185.779 519.501 185.146 519.152 184.494 518.792C182.218 517.547 179.923 516.344 177.624 515.144C162.435 507.205 147.632 498.773 133.213 489.355C132.327 488.783 131.441 488.211 130.528 487.622C119.427 480.328 108.826 472.269 99.0285 463.119C98.0626 462.221 97.0895 461.331 96.1117 460.447C85.082 450.424 74.3295 439.351 65.596 427.026C64.6339 425.725 64.6339 425.725 63.6523 424.398C52.2954 408.831 43.9633 392.08 39.5894 372.946C39.4293 372.293 39.2691 371.64 39.1041 370.968C37.6365 364.33 37.5035 357.702 37.4868 350.92C37.4765 348.961 37.4338 347.004 37.39 345.045C37.1986 327.713 43.7904 312.099 55.1934 299.617C71.8022 284.355 88.7518 281.403 108.94 289.535Z" fill="#772C12"/>
<path d="M549.531 103.323C559.399 102.798 567.163 102.955 576.031 107.89C576.842 108.333 577.652 108.775 578.487 109.231C587.757 114.725 595.9 122.168 603.445 129.809C604.741 131.074 606.038 132.338 607.336 133.601C621.103 147.083 621.103 147.083 626.805 154.296C627.201 154.792 627.598 155.288 628.006 155.8C632.295 161.427 633.077 167.353 633.947 174.164C635.176 183.221 636.78 192.166 638.524 201.137C642.31 220.658 645.755 240.236 649.115 259.835C649.474 261.925 649.834 264.015 650.194 266.105C654.516 291.196 654.516 291.196 656.311 303.579C656.422 304.339 656.533 305.099 656.647 305.882C657.128 309.317 657.488 312.649 657.36 316.119C648.996 314.745 640.64 313.342 632.298 311.841C611.466 308.118 590.7 305.321 569.635 303.333C567.511 303.125 565.387 302.917 563.263 302.709C558.991 302.292 554.719 301.891 550.445 301.506C549.654 299.136 549.353 297.478 549.19 295.031C549.138 294.278 549.086 293.525 549.033 292.75C548.98 291.935 548.928 291.119 548.874 290.279C548.817 289.429 548.76 288.579 548.701 287.704C548.517 284.941 548.338 282.179 548.16 279.416C548.036 277.531 547.912 275.646 547.788 273.761C547.099 263.186 546.464 252.615 546.142 242.021C546.117 241.263 546.093 240.505 546.068 239.724C546.044 238.789 546.044 238.789 546.02 237.835C545.823 234.985 545.369 232.184 544.962 229.357C544.458 224.435 544.054 219.504 543.648 214.573C543.559 213.49 543.559 213.49 543.467 212.385C542.421 199.56 541.708 186.729 541.135 173.875C541.096 173.008 541.057 172.141 541.017 171.248C540.907 168.761 540.8 166.273 540.696 163.786C540.665 163.056 540.634 162.327 540.601 161.576C540.409 156.767 540.367 151.973 540.393 147.161C540.996 147.764 541.599 148.367 542.22 148.988C541.768 147.631 541.768 147.631 541.307 146.248C540.311 135.175 540.758 124.32 545.904 114.269C546.956 112.116 547.608 109.961 548.274 107.662C548.512 106.847 548.75 106.032 548.995 105.193C549.172 104.576 549.349 103.959 549.531 103.323Z" fill="#752B12"/>
<path d="M267.386 378.119C387.836 378.119 508.286 378.119 632.386 378.119C629.428 380.437 626.668 382.184 623.42 383.99C622.888 384.287 622.356 384.583 621.808 384.889C620.086 385.848 618.363 386.802 616.638 387.755C616.049 388.081 615.459 388.408 614.852 388.745C597.718 398.242 597.718 398.242 589.242 402.462C588.424 402.871 587.606 403.279 586.764 403.7C575.993 409.058 565.243 414.152 553.968 418.24C551.473 419.154 549.083 420.197 546.681 421.35C483.069 451.405 409.905 444.321 346.315 419.296C326.682 411.362 307.542 402.293 289.167 391.558C283.906 388.486 278.558 385.592 273.187 382.736C268.343 380.118 268.343 380.118 267.386 378.119Z" fill="#A4460F"/>
<path d="M569.031 540.269C548.501 551.122 519.303 547.505 495.58 540.269L492.386 528.06V511.328L524.778 499.119L578.612 508.615H591.386V519.92C590.778 523.086 585.455 531.587 569.031 540.269Z" fill="#FFF8E8"/>
<path d="M587.122 447.569C589.793 449.09 591.829 450.93 594.063 453.041C594.952 453.875 595.843 454.707 596.734 455.54C597.566 456.317 598.398 457.094 599.256 457.895C600.468 458.948 601.684 459.996 602.908 461.035C614.027 470.771 626.829 482.847 629.386 498.093C626.635 496.774 624.009 495.279 621.377 493.738C607.097 485.077 607.097 485.077 591.038 482.562C588.422 483.417 585.981 484.563 583.506 485.76C576.744 488.957 576.744 488.957 573.69 488.957C573.69 489.56 573.69 490.163 573.69 490.784C574.619 491.122 574.619 491.122 575.566 491.466C587.342 496.482 597.655 504.555 606.56 513.624C600.648 526.508 586.67 535.913 573.743 540.787C570.416 541.929 567.053 542.899 563.647 543.773C563.647 543.17 563.647 542.567 563.647 541.946C565.02 540.657 565.02 540.657 566.9 539.148C575.679 531.581 580.405 521.984 585.56 511.797C581.04 511.797 576.521 511.797 571.864 511.797C571.563 513.304 571.262 514.812 570.951 516.365C567.003 523.609 560.37 530.489 552.812 533.891C544.914 535.95 534.984 536.276 527.468 532.81C520.221 528.325 514.537 522.474 509.777 515.451C509.161 516.013 508.544 516.575 507.908 517.154C506.687 518.261 506.687 518.261 505.44 519.391C504.635 520.123 503.83 520.854 503.001 521.607C497.525 526.415 497.525 526.415 495.169 526.415C495.618 527.417 495.618 527.417 496.076 528.439C497.433 531.473 498.783 534.511 500.133 537.549C500.84 539.126 500.84 539.126 501.562 540.734C502.012 541.75 502.462 542.766 502.926 543.812C503.342 544.745 503.758 545.678 504.186 546.639C505.132 549.05 505.714 551.272 506.125 553.822C500.464 550.886 495.163 547.891 490.2 543.866C488.819 542.684 488.819 542.684 486.951 542.859C493.659 570.077 500.402 597.318 508.433 624.18C509.415 627.489 510.383 630.801 511.322 634.122C511.551 634.928 511.78 635.733 512.016 636.563C512.516 638.787 512.516 638.787 512.516 642.441C511.896 642.777 511.275 643.113 510.635 643.459C507.781 645.004 504.927 646.549 502.073 648.094C501.097 648.622 500.121 649.15 499.115 649.695C494.839 652.011 490.569 654.331 486.334 656.723C482.139 659.064 477.833 661.132 473.484 663.168C472.732 663.525 471.98 663.881 471.205 664.248C460.299 669.388 460.299 669.388 454.082 668.935C451.856 668.022 451.856 668.022 450.429 667.108C450.429 666.505 450.429 665.902 450.429 665.281C449.356 665.13 448.283 664.98 447.177 664.824C443.09 663.906 439.582 662.261 435.921 660.278C435.326 659.958 434.732 659.638 434.12 659.308C427.387 655.619 421.022 651.397 414.65 647.123C412.892 645.951 411.133 644.781 409.372 643.613C408.292 642.895 407.214 642.176 406.138 641.453C403.623 639.776 401.131 638.23 398.386 636.96C399.737 629.914 401.31 622.93 402.951 615.947C405.611 617.278 405.74 619.011 406.718 621.771C407.04 622.664 407.362 623.556 407.695 624.476C408.429 626.91 408.429 626.91 408.429 629.651C409.032 629.349 409.635 629.048 410.256 628.737C412.25 628.627 414.248 628.575 416.246 628.55C416.861 628.541 417.476 628.532 418.109 628.522C420.144 628.493 422.18 628.471 424.215 628.448C425.625 628.429 427.035 628.41 428.445 628.391C432.158 628.34 435.872 628.295 439.585 628.251C443.374 628.205 447.162 628.154 450.95 628.104C458.385 628.006 465.82 627.913 473.256 627.824C473.036 621.239 472.814 614.654 472.589 608.07C472.484 605.011 472.38 601.952 472.279 598.894C472.161 595.362 472.04 591.831 471.918 588.3C471.865 586.683 471.865 586.683 471.811 585.034C471.63 579.859 471.369 574.709 470.948 569.548C470.568 564.857 470.394 560.222 470.427 555.518C470.429 554.804 470.43 554.091 470.431 553.356C470.436 551.132 470.448 548.909 470.459 546.685C470.464 545.155 470.468 543.624 470.472 542.094C470.482 538.39 470.497 534.686 470.516 530.983C471.383 531.567 472.249 532.151 473.141 532.753C475.769 534.57 475.769 534.57 477.821 535.551C476.848 534.692 476.848 534.692 475.856 533.816C475.016 533.069 474.177 532.323 473.313 531.554C472.476 530.812 471.639 530.07 470.777 529.305C468.197 526.861 467.816 526.218 467.624 522.666C467.61 521.423 467.605 520.181 467.606 518.938C467.607 518.257 467.608 517.576 467.608 516.875C467.706 507.511 468.695 498.212 469.603 488.9C469.78 487.034 469.956 485.168 470.131 483.302C470.556 478.791 470.99 474.281 471.429 469.772C474.64 471.378 475.5 475.148 476.975 478.301C479.301 482.988 482.276 487.318 485.125 491.698C525.866 475.803 525.866 475.803 565.248 456.899C565.851 456.58 566.453 456.26 567.074 455.931C570.045 454.354 573.004 452.76 575.947 451.133C577.024 450.554 578.101 449.975 579.179 449.398C580.125 448.878 581.071 448.358 582.046 447.823C584.647 446.932 584.647 446.932 587.122 447.569Z" fill="black"/>
<path d="M316.692 446.453C321.248 448.278 325.635 450.407 330.046 452.557C331.047 453.041 332.048 453.525 333.08 454.023C338.457 456.624 343.826 459.241 349.193 461.861C381.164 477.438 381.164 477.438 414.107 490.776C420.284 482.588 425.37 474.483 429.651 465.144C429.952 465.144 430.254 465.144 430.565 465.144C430.643 466.127 430.722 467.11 430.802 468.122C431.096 471.802 431.391 475.482 431.687 479.162C431.814 480.749 431.941 482.335 432.067 483.922C432.25 486.215 432.434 488.508 432.619 490.801C432.674 491.499 432.729 492.197 432.786 492.917C433.066 496.376 433.393 499.821 433.798 503.268C435.253 516.146 433.685 529.136 432.565 541.982C432.226 545.961 431.89 549.939 431.554 553.918C431.47 554.914 431.386 555.911 431.298 556.937C430.742 563.551 430.239 570.168 429.776 576.79C429.716 577.64 429.655 578.491 429.593 579.367C429.365 582.609 429.137 585.85 428.924 589.093C428.78 591.285 428.627 593.476 428.472 595.667C428.433 596.306 428.394 596.946 428.354 597.605C428.118 600.837 427.717 603.345 425.993 606.119C424.6 605.258 423.233 604.352 421.879 603.43C421.115 602.931 420.351 602.431 419.565 601.917C416.456 598.108 417.602 593.149 418.055 588.47C418.463 584.927 418.907 581.389 419.365 577.852C419.529 576.55 419.693 575.248 419.857 573.946C420.285 570.546 420.719 567.147 421.155 563.748C421.6 560.268 422.039 556.788 422.479 553.309C423.34 546.5 424.207 539.692 425.079 532.885C422.407 534.18 420.278 535.537 418.018 537.473C417.379 538.013 416.74 538.553 416.082 539.11C415.411 539.68 414.741 540.25 414.05 540.838C408.224 545.728 402.426 550.14 395.821 553.94C396.341 550.076 397.246 546.864 398.824 543.305C399.234 542.373 399.643 541.441 400.065 540.48C400.708 539.043 400.708 539.043 401.364 537.577C401.796 536.597 402.228 535.618 402.673 534.609C403.736 532.201 404.804 529.795 405.878 527.392C403.045 524.513 400.103 521.927 396.963 519.383C396.063 518.651 395.163 517.919 394.235 517.165C393.551 516.613 392.868 516.061 392.163 515.492C389.829 517.774 387.702 520.108 385.649 522.644C381.985 526.882 377.703 529.943 372.962 532.885C372.422 533.24 371.883 533.595 371.326 533.961C364.724 536.426 353.824 535.664 347.343 532.978C338.275 527.928 332.831 521.79 329.989 511.83C325.463 511.528 320.937 511.226 316.274 510.915C320.654 523.339 327.852 532.234 337.303 541.124C337.907 541.728 338.51 542.332 339.132 542.955C323.196 540.03 306.643 530.921 296.862 517.624C295.992 516.32 295.157 514.993 294.33 513.661C300.053 507.249 306.388 502.622 313.673 498.206C315.397 497.161 317.111 496.101 318.824 495.038C321.625 493.301 324.433 491.577 327.246 489.86C325.056 488.829 322.865 487.799 320.674 486.771C320.058 486.48 319.442 486.19 318.808 485.891C317.595 485.322 316.379 484.762 315.158 484.211C313.531 483.452 313.531 483.452 311.37 482.215C304.106 480.426 296.512 484.66 290.158 487.8C288.95 488.374 288.95 488.374 287.717 488.959C282.292 491.589 277.312 494.626 272.386 498.099C275.515 485.315 282.535 476.17 291.587 466.975C292.051 466.497 292.516 466.02 292.994 465.528C297.935 460.452 302.921 455.433 308.348 450.872C309.71 449.72 310.998 448.483 312.274 447.236C314.445 445.92 314.445 445.92 316.692 446.453Z" fill="black"/>
<path d="M108.59 289.526C109.888 290.023 109.888 290.023 111.211 290.53C131.686 298.913 150.485 313.422 167.867 327.375C171.364 330.167 174.899 332.905 178.426 335.652C182.974 339.203 187.477 342.796 191.918 346.496C198.447 351.88 205.303 356.746 212.145 361.666C214.324 363.24 216.481 364.845 218.633 366.461C224.963 371.187 231.426 375.696 237.92 380.161C238.812 380.775 239.703 381.39 240.621 382.022C242.423 383.262 244.226 384.5 246.031 385.733C246.867 386.309 247.702 386.884 248.562 387.476C249.315 387.992 250.067 388.507 250.843 389.039C252.563 390.325 253.965 391.615 255.386 393.253C253.926 392.882 252.47 392.497 251.014 392.105C250.203 391.892 249.392 391.679 248.556 391.46C246.038 390.553 243.925 389.388 241.649 387.945C237.696 385.498 233.595 383.327 229.535 381.09C228.574 380.56 227.613 380.029 226.622 379.483C219.801 375.727 212.954 372.032 206.068 368.411C204.309 367.482 202.556 366.544 200.803 365.604C200.193 365.277 199.582 364.95 198.953 364.613C197.806 363.999 196.66 363.383 195.514 362.766C191.351 360.542 187.122 358.513 182.852 356.535C182.131 356.2 181.411 355.864 180.669 355.518C162.675 347.195 144.206 339.866 124.997 335.423C123.371 335.015 123.371 335.015 121.712 334.598C109.081 331.605 95.8726 330.897 84.4489 338.364C80.7549 341.085 77.3737 344.147 74.0502 347.356C73.419 347.948 72.7879 348.539 72.1376 349.149C70.6556 350.624 69.3223 352.14 68.0056 353.782C67.5582 354.314 67.1107 354.847 66.6497 355.395C55.58 370.474 56.7445 394.105 58.7561 411.989C58.9554 413.7 59.1621 415.409 59.3706 417.119C47.4305 405.524 42.0601 384.652 38.6465 368.468C38.4148 367.421 38.4148 367.421 38.1785 366.351C37.387 361.404 37.5191 356.355 37.4807 351.347C37.4665 350.003 37.4431 348.659 37.4098 347.316C36.9854 330.03 42.2283 315.332 52.8505 302.048C68.82 284.473 87.792 281.104 108.59 289.526Z" fill="#A2460F"/>
<path d="M470.434 531.119C475.671 534.584 475.671 534.584 477.787 536.253C479.559 537.618 479.559 537.618 481.891 538.42C484.315 539.416 485.238 540.027 486.85 542.071C487.723 544.731 487.723 544.731 488.503 548.118C488.653 548.752 488.803 549.387 488.958 550.041C489.48 552.25 489.989 554.462 490.498 556.674C495.791 579.279 501.64 601.709 508.243 623.968C509.243 627.37 510.235 630.773 511.2 634.186C511.427 634.986 511.655 635.786 511.89 636.611C512.386 638.817 512.386 638.817 512.386 642.468C511.766 642.803 511.146 643.139 510.507 643.484C507.656 645.027 504.806 646.571 501.955 648.115C500.98 648.642 500.005 649.17 499 649.714C494.729 652.028 490.463 654.346 486.234 656.736C482.043 659.073 477.742 661.139 473.398 663.174C472.647 663.53 471.896 663.886 471.122 664.253C460.228 669.388 460.228 669.388 454.018 668.936C451.795 668.023 451.795 668.023 450.37 667.11C450.37 666.508 450.37 665.906 450.37 665.285C449.298 665.134 448.226 664.984 447.121 664.829C443.039 663.911 439.535 662.268 435.878 660.286C435.284 659.967 434.691 659.647 434.079 659.318C427.353 655.632 420.996 651.414 414.631 647.145C412.875 645.974 411.118 644.805 409.36 643.638C408.281 642.921 407.204 642.202 406.129 641.48C403.617 639.805 401.128 638.261 398.386 636.991C399.735 629.953 401.307 622.976 402.946 615.999C405.603 617.329 405.732 619.06 406.708 621.818C407.03 622.71 407.352 623.601 407.684 624.52C408.418 626.952 408.418 626.952 408.418 629.69C409.321 629.238 409.321 629.238 410.242 628.777C412.234 628.667 414.23 628.615 416.226 628.59C416.84 628.581 417.454 628.572 418.086 628.562C420.119 628.533 422.152 628.511 424.186 628.488C425.594 628.47 427.002 628.45 428.41 628.431C432.12 628.38 435.829 628.335 439.538 628.291C443.322 628.246 447.106 628.195 450.89 628.144C458.317 628.046 465.743 627.953 473.17 627.864C472.951 621.286 472.729 614.708 472.504 608.13C472.399 605.074 472.296 602.019 472.194 598.963C472.076 595.435 471.956 591.907 471.834 588.38C471.781 586.765 471.781 586.765 471.727 585.117C471.546 579.947 471.286 574.803 470.865 569.646C470.485 564.96 470.311 560.329 470.345 555.63C470.346 554.917 470.348 554.205 470.349 553.471C470.354 551.249 470.365 549.027 470.377 546.806C470.382 545.277 470.386 543.748 470.389 542.219C470.399 538.519 470.415 534.819 470.434 531.119Z" fill="#E08F49"/>
<path d="M224.408 469.119C226.022 471.573 226.574 472.813 227.207 475.571C227.382 476.319 227.556 477.066 227.735 477.836C228.008 479.049 228.008 479.049 228.286 480.286C228.479 481.126 228.671 481.966 228.87 482.832C230.328 489.228 231.734 495.637 233.119 502.05C233.301 502.891 233.483 503.731 233.67 504.597C234.902 510.375 235.987 516.171 236.998 521.992C234.648 519.696 233.032 517.355 231.321 514.528C226.633 506.963 221.352 500.33 215.415 493.732C213.407 495.768 214.293 500.845 214.284 503.648C214.365 511.845 215.084 519.986 215.808 528.145C215.869 528.829 215.93 529.512 215.992 530.216C216.566 536.613 217.177 542.986 218.113 549.34C218.317 548.839 218.52 548.338 218.73 547.822C219.664 545.535 220.602 543.25 221.541 540.964C222.022 539.783 222.022 539.783 222.513 538.577C225.842 530.496 225.842 530.496 228.005 527.461C228.598 527.461 229.192 527.461 229.803 527.461C231.366 530.239 232.892 533.035 234.412 535.837C234.856 536.625 235.3 537.413 235.758 538.224C236.375 539.374 236.375 539.374 237.005 540.548C237.391 541.25 237.777 541.951 238.175 542.674C239.008 545.499 238.289 546.76 236.998 549.34C236.439 550.5 236.439 550.5 235.87 551.683C235.482 552.451 235.093 553.22 234.693 554.012C230.811 561.695 230.37 569.758 232.385 578.112C235.689 587.422 241.049 593.924 248.147 600.55C251.072 603.927 250.649 608.071 250.771 612.397C250.79 613.019 250.809 613.641 250.828 614.282C250.886 616.26 250.94 618.239 250.993 620.217C251.031 621.562 251.071 622.907 251.11 624.251C251.206 627.54 251.297 630.83 251.386 634.119C228.335 619.165 217.911 588.416 212.223 562.336C211.418 558.524 210.656 554.703 209.907 550.878C209.749 550.075 209.59 549.271 209.427 548.443C206.935 535.708 205.044 523.139 204.624 510.141C204.592 509.413 204.56 508.685 204.527 507.935C204.064 496.829 204.386 485.577 211.15 476.298C214.742 472.38 219.077 469.625 224.408 469.119Z" fill="#E08F49"/>
<path d="M676.581 470.119C687.6 472.825 687.6 472.825 691.085 477.445C701.058 495.869 696.973 519.758 693.804 539.714C693.678 540.555 693.552 541.396 693.422 542.262C688.917 571.965 679.846 609.628 656.489 630.229C654.249 631.654 651.909 632.348 649.386 633.119C649.587 627.801 649.838 622.489 650.157 617.177C650.241 615.717 650.313 614.257 650.367 612.797C650.73 603.485 650.73 603.485 654.049 599.863C655.624 598.644 657.233 597.469 658.872 596.339C665.684 591.356 668.905 582.423 671.142 574.512C672.44 566.066 669.976 557.867 665.816 550.589C664.569 548.183 663.842 546.763 664.046 544.043C664.729 541.858 665.583 539.926 666.609 537.883C667.008 537.041 667.406 536.2 667.817 535.332C668.891 533.11 669.999 530.912 671.142 528.726C671.74 528.726 672.339 528.726 672.955 528.726C674.11 530.88 675.262 533.036 676.411 535.193C676.734 535.794 677.057 536.396 677.39 537.015C679.452 540.895 681.265 544.8 682.926 548.872C685.526 530.297 686.592 511.734 687.459 493.012C686.861 493.012 686.262 493.012 685.646 493.012C685.394 493.555 685.143 494.098 684.883 494.658C683.901 496.543 682.875 498.018 681.531 499.651C680.859 500.479 680.859 500.479 680.173 501.324C679.461 502.196 679.461 502.196 678.734 503.085C673.201 509.958 667.66 517.013 663.89 525.063C662.702 521.464 663.687 519.025 664.683 515.505C666.405 509.188 668.042 502.855 669.605 496.496C669.787 495.757 669.969 495.017 670.156 494.255C670.898 491.233 671.639 488.211 672.377 485.188C672.903 483.034 673.432 480.881 673.961 478.729C674.12 478.072 674.279 477.416 674.444 476.739C675.572 472.158 675.572 472.158 676.581 470.119Z" fill="#E08F49"/>
<path d="M494.625 612.119C496.921 615.605 497.741 619.023 498.825 623.033C499.033 623.771 499.241 624.509 499.456 625.27C501.67 633.368 501.67 633.368 500.981 636.015C498.977 638.207 496.671 639.9 494.285 641.644C493.592 642.163 492.899 642.682 492.186 643.217C459.619 667.231 459.619 667.231 447.414 665.425C433.583 661.342 421.216 651.856 409.44 643.79C408.08 642.859 408.08 642.859 406.692 641.91C405.879 641.35 405.066 640.791 404.228 640.214C402.321 638.97 400.438 637.908 398.386 636.934C399.729 629.846 401.294 622.82 402.926 615.795C405.57 617.134 405.699 618.878 406.671 621.654C406.991 622.552 407.312 623.45 407.643 624.376C408.373 626.824 408.373 626.824 408.373 629.581C408.972 629.278 409.572 628.975 410.189 628.662C412.738 628.577 415.264 628.547 417.813 628.558C418.995 628.558 418.995 628.558 420.202 628.558C422.815 628.558 425.429 628.565 428.042 628.573C429.851 628.574 431.66 628.576 433.47 628.576C438.237 628.58 443.004 628.589 447.772 628.599C452.634 628.609 457.496 628.613 462.359 628.617C471.904 628.627 481.449 628.643 490.994 628.662C492.192 623.203 493.391 617.744 494.625 612.119Z" fill="black"/>
<path d="M353.697 114.119C357.962 117.728 358.264 123.35 359.028 128.679C359.867 138.348 359.439 147.035 355.474 155.979C355.231 156.539 354.987 157.1 354.737 157.677C347.977 173.052 337.975 188.653 322.596 196.019C317.678 197.712 312.582 198.692 307.49 199.659C306.854 199.78 306.219 199.902 305.565 200.027C302.543 200.602 299.521 201.168 296.497 201.728C292.362 202.575 288.377 203.734 284.386 205.119C287.098 192.305 293.824 183.731 302.158 174.179C302.688 173.569 303.219 172.959 303.765 172.33C308.997 166.665 315.391 162.186 321.47 157.529C334.801 147.28 350.812 134.812 353.419 116.849C353.511 115.948 353.602 115.047 353.697 114.119Z" fill="#022623"/>
<path d="M543.196 117.119C543.384 117.874 543.573 118.629 543.768 119.407C545.751 126.61 548.191 131.525 553.21 137.035C553.796 137.723 554.381 138.412 554.985 139.121C558.362 143.04 561.893 146.563 565.856 149.892C567.95 151.666 569.964 153.513 571.987 155.366C575.62 158.634 579.384 161.664 583.253 164.645C592.164 171.549 599.746 178.268 606.013 187.729C606.552 188.529 607.091 189.328 607.646 190.152C610.457 194.528 612.158 197.901 612.386 203.119C606.282 202.29 600.255 201.161 594.214 199.974C592.977 199.732 591.739 199.493 590.501 199.258C588.69 198.913 586.882 198.559 585.074 198.204C583.469 197.892 583.469 197.892 581.831 197.575C566.753 193.756 555.764 182.232 547.784 169.43C541.891 159.374 537.199 148.9 537.392 137.148C537.398 136.359 537.404 135.571 537.41 134.758C537.778 117.119 537.778 117.119 543.196 117.119Z" fill="#022623"/>
<path d="M399.407 692.437C400.57 692.435 401.733 692.434 402.931 692.432C406.101 692.428 409.271 692.43 412.44 692.432C415.777 692.435 419.114 692.433 422.451 692.431C428.058 692.429 433.666 692.432 439.273 692.436C445.722 692.441 452.171 692.439 458.62 692.434C464.185 692.43 469.75 692.43 475.315 692.432C478.626 692.433 481.937 692.434 485.248 692.431C488.951 692.427 492.653 692.432 496.356 692.437C497.429 692.435 498.502 692.433 499.607 692.431C502.714 692.439 505.816 692.486 508.922 692.553C509.815 692.564 509.815 692.564 510.727 692.576C512.584 692.605 514.437 692.666 516.293 692.734C517.402 692.765 518.511 692.796 519.654 692.828C523.365 693.611 524.499 694.915 526.742 697.864C527.828 699.679 528.865 701.523 529.854 703.392C530.401 704.331 530.949 705.27 531.513 706.237C532.85 708.544 534.137 710.866 535.386 713.22C532.86 714.464 531.655 713.794 528.945 713.09C528.008 712.852 527.071 712.614 526.105 712.369C525.121 712.113 524.137 711.856 523.123 711.592C521.205 711.096 519.286 710.603 517.366 710.114C516.513 709.892 515.66 709.67 514.78 709.441C513.235 709.088 513.235 709.088 511.659 708.727C511.025 708.569 510.39 708.411 509.736 708.248C500.803 706.303 491.709 706.688 482.614 706.723C480.755 706.724 478.897 706.725 477.038 706.724C473.148 706.726 469.257 706.733 465.367 706.745C460.443 706.76 455.52 706.764 450.597 706.763C446.755 706.764 442.914 706.769 439.073 706.775C437.261 706.778 435.45 706.78 433.638 706.78C423.903 706.788 414.183 706.929 404.455 707.312C403.585 707.344 402.715 707.375 401.818 707.408C395.578 707.681 389.846 708.585 383.9 710.525C382.285 711.015 380.669 711.501 379.052 711.985C378.323 712.206 377.595 712.427 376.845 712.655C374.033 713.423 371.285 713.809 368.386 714.119C369.805 709.331 371.929 705.148 374.375 700.809C374.733 700.112 375.091 699.415 375.46 698.697C375.837 698.035 376.214 697.373 376.603 696.691C376.93 696.09 377.258 695.49 377.596 694.87C382.548 690.835 393.278 692.427 399.407 692.437Z" fill="black"/>
<path d="M429.061 730.966C430.74 730.937 432.42 730.908 434.099 730.879C437.617 730.827 441.134 730.806 444.653 730.803C448.252 730.795 451.842 730.732 455.439 730.615C484.382 729.691 484.382 729.691 491.114 733.877C494.815 737.639 496.698 741.794 498.071 746.829C498.782 749.244 500.031 751.179 501.386 753.29C501.386 753.894 501.386 754.497 501.386 755.119C500.044 754.99 498.703 754.855 497.363 754.719C496.242 754.607 496.242 754.607 495.099 754.494C493.109 754.204 493.109 754.204 491.27 753.29C488.727 753.195 486.208 753.156 483.664 753.157C482.878 753.154 482.091 753.151 481.28 753.148C478.668 753.139 476.057 753.137 473.445 753.136C471.63 753.133 469.815 753.13 468 753.127C464.189 753.122 460.377 753.12 456.566 753.121C451.692 753.121 446.819 753.108 441.946 753.092C438.193 753.082 434.441 753.08 430.689 753.081C428.893 753.08 427.097 753.076 425.301 753.069C422.781 753.06 420.261 753.062 417.741 753.068C417.005 753.063 416.269 753.058 415.511 753.052C411.977 753.072 408.87 753.343 405.453 754.275C402.24 755.075 401.349 755.133 398.386 754.204C399.644 751.914 400.909 749.629 402.18 747.346C402.702 746.392 402.702 746.392 403.236 745.418C403.945 744.147 404.68 742.891 405.44 741.65C406.681 739.638 406.681 739.638 407.506 737.637C411.793 729.619 421.082 731.019 429.061 730.966Z" fill="black"/>
<path d="M316.386 510.21C318.147 510.185 319.909 510.167 321.67 510.152C322.651 510.141 323.632 510.13 324.642 510.119C327.295 510.21 327.295 510.21 330.022 511.141C331.226 513.448 331.226 513.448 332.466 516.38C336.277 524.497 341.861 529.294 350.022 532.561C356.432 534.745 365.479 534.796 371.862 532.507C374.167 531.132 376.156 529.654 378.204 527.905C378.932 527.31 379.66 526.716 380.409 526.104C384.655 522.452 387.928 518.7 390.931 513.935C396.136 517.902 401.277 521.947 406.386 526.042C402.904 534.81 399.399 543.545 395.477 552.119C394.33 548.595 395.245 547.17 396.386 543.737C396.086 543.122 395.786 542.508 395.477 541.874C387.795 543.121 387.795 543.121 380.193 544.785C376.749 545.606 373.565 545.668 370.022 545.6C369.245 545.761 368.468 545.921 367.668 546.087C363.582 546.672 359.695 546.399 355.591 546.124C354.791 546.075 353.992 546.026 353.169 545.976C351.21 545.856 349.253 545.729 347.295 545.6C346.995 546.522 346.695 547.444 346.386 548.394C345.486 548.394 344.586 548.394 343.659 548.394C343.959 546.857 344.259 545.32 344.568 543.737C343.63 543.871 342.693 544.006 341.727 544.144C337.735 543.683 337.735 543.683 335.534 540.943C335.091 540.338 334.648 539.733 334.191 539.11C332.698 537.15 331.084 535.62 329.284 533.958C325.896 530.542 323.441 526.805 320.988 522.666C320.457 521.781 320.457 521.781 319.915 520.878C317.884 517.331 316.78 514.377 316.386 510.21Z" fill="#FFF8E8"/>
<path d="M309.958 320.119C314.1 320.119 318.242 320.119 322.51 320.119C323.518 325.273 323.518 325.273 323.193 328.442C323.124 329.145 323.055 329.849 322.984 330.573C322.904 331.32 322.823 332.066 322.741 332.835C322.662 333.613 322.583 334.391 322.502 335.193C322.335 336.833 322.164 338.472 321.991 340.111C321.726 342.618 321.471 345.125 321.217 347.633C321.053 349.229 320.889 350.825 320.724 352.42C320.647 353.168 320.57 353.917 320.491 354.688C320.149 357.896 319.739 360.982 318.923 364.099C314.325 364.181 310.021 364.036 305.475 363.182C304.579 362.266 304.579 362.266 304.386 359.081C304.456 352.744 305.51 346.491 306.445 340.239C306.766 338.087 307.078 335.934 307.389 333.78C307.59 332.407 307.791 331.034 307.993 329.661C308.133 328.699 308.133 328.699 308.276 327.717C308.673 325.079 309.13 322.657 309.958 320.119Z" fill="#314D48"/>
<path d="M578.533 510.184C579.428 510.182 580.323 510.179 581.245 510.177C583.558 510.301 583.558 510.301 585.386 511.241C582.149 522.277 575.857 531.338 568.024 539.422C567.284 540.245 567.284 540.245 566.528 541.084C565.283 542.24 565.283 542.24 563.455 542.24C563.003 543.17 563.003 543.17 562.541 544.119C561.618 543.848 560.694 543.576 559.743 543.297C559.15 543.124 558.558 542.951 557.947 542.772C556.391 542.313 554.84 541.838 553.289 541.359C548.207 539.858 543.025 538.739 537.869 537.543C539.075 537.233 540.281 536.923 541.524 536.604C538.508 536.604 535.493 536.604 532.386 536.604C535.065 533.85 537.936 534.492 541.524 534.432C552.336 533.966 558.558 530.258 566.075 522.179C568.385 519.235 569.808 516.405 571.022 512.852C572.398 509.478 575.419 510.176 578.533 510.184Z" fill="#EBD6B2"/>
<path d="M295.386 325.155C294.982 328.457 294.57 331.758 294.156 335.059C293.987 336.446 293.987 336.446 293.814 337.862C293.192 342.787 292.415 347.589 291.289 352.422C290.7 355.105 290.521 357.785 290.327 360.519C290.02 362.28 290.02 362.28 288.231 364.997C284.087 365.393 281.271 364.836 277.499 363.186C277.136 355.85 277.681 348.828 278.673 341.567C278.778 340.76 278.883 339.954 278.992 339.122C279.679 334.374 280.582 330.294 282.865 326.061C287.006 324.851 291.099 325.15 295.386 325.155Z" fill="#324D49"/>
<path d="M540.285 507.535C541.269 509.51 541.03 511.823 540.778 513.97C539.948 516.231 538.662 517.858 536.649 519.167C534.149 520.206 532.464 520.255 529.9 519.415C527.68 517.897 525.888 515.992 525.198 513.326C525.062 512.237 525.062 512.237 525 510.505C527.561 509.031 530.058 508.461 532.92 507.906C533.356 507.814 533.793 507.722 534.242 507.628C538.369 506.807 538.369 506.807 540.285 507.535Z" fill="#FFFBF3"/>
<path d="M343.823 507.061C346.99 506.829 349.767 507.287 352.834 508.017C353.209 508.106 353.584 508.194 353.97 508.285C355.755 508.728 357.406 509.184 359 510.121C358.796 513.955 357.706 516.675 354.858 519.301C352.679 520.082 350.659 520.14 348.376 519.811C345.922 518.62 344.448 517.21 343.317 514.711C342.832 509.058 342.832 509.058 343.823 507.061Z" fill="#FFFBF3"/>
<path d="M509.659 514.119C510.143 514.719 510.627 515.319 511.127 515.937C516.686 522.559 522.379 528.888 529.386 534.119C522.196 533.68 515.537 532.266 508.602 530.426C507.614 530.17 506.626 529.914 505.608 529.65C503.199 529.025 500.792 528.393 498.386 527.755C499.664 521.573 504.776 517.855 509.659 514.119Z" fill="#EBD6B2"/>
</g>
<defs>
<clipPath id="clip0_25_850">
<rect width="900" height="900" fill="white"/>
</clipPath>
</defs>
</svg>
