<svg width="900" height="900" viewBox="0 0 900 900" fill="none" xmlns="http://www.w3.org/2000/svg">
<g clip-path="url(#clip0_25_1114)">
<path d="M412.711 48.9707C405.435 48.0084 398.185 47.7328 390.851 47.7168C389.75 47.7112 388.648 47.7052 387.514 47.6995C377.877 47.8333 368.344 49.2194 359.504 53.2034L356.848 54.3776L354.955 55.2539L356.281 55.9415C378.945 67.7998 378.945 67.7998 382.865 77.2245C384.632 84.2443 383.882 90.4959 380.292 96.7634C375.704 103.261 368.843 106.757 361.169 108.457C346.491 109.984 332.068 107.613 320.248 98.3291L318.56 96.9297L316.118 95.2671C311.195 90.622 308.048 84.3971 305.244 78.3086L304.19 76.2027C303.058 72.5507 302.862 68.8079 302.581 65.0078C283.972 75.189 271.247 88.4423 263.522 108.457L262.413 111.166C259.688 119.2 259.645 127.218 259.639 135.613C259.636 137.355 259.637 137.356 259.634 139.134C259.699 144.781 260.063 149.917 261.286 155.436C262.083 160.138 262.083 160.138 260.689 162.775C258.995 164.604 257.239 166.079 255.256 167.59C253.919 168.723 252.584 169.858 251.251 170.995C250.604 171.527 249.957 172.06 249.291 172.609C223.373 194.36 205.18 233.54 201.576 266.729C201.255 270.438 201.222 274.138 201.203 277.858C201.199 278.425 201.195 278.991 201.191 279.566L201.184 280.409C201.169 283.149 201.164 285.888 201.162 288.627L201.159 291.487C201.171 309.508 202.161 327.295 204.047 345.211C204.153 346.222 204.153 346.222 204.261 347.253C205.222 356.338 206.28 365.41 207.383 374.479C207.694 377.041 207.999 379.604 208.304 382.167L208.416 383.111C209.024 388.213 209.639 393.314 210.261 398.414L208.741 397.848C199.013 394.388 190.053 394.586 180.599 398.871C172.638 403.436 168.045 410.968 165.439 419.633L164.988 421.469L164.527 423.324C162.531 435.379 164.441 448.207 166.042 460.207C166.142 460.977 166.242 461.746 166.345 462.538C171.358 501.115 181.186 537.961 208.485 566.891L210.087 568.633L210.089 568.634C213.051 571.791 213.052 571.792 216.725 574.017C219.28 575.207 220.836 576.279 222.688 578.418C223.91 583.375 223.595 588.321 223.41 593.381C223.378 595.005 223.349 596.628 223.322 598.251C223.194 604.353 224.832 613.712 224.576 619.81C224.521 621.138 226.754 636.017 227.009 637.321C229.773 651.491 231.906 665.127 231.389 675.749C230.695 684.142 236.768 700.36 242.094 708.34C247.42 716.32 265.291 737.285 273.724 744.822C317.469 783.919 345.744 827.515 369.602 833.793C390.634 839.327 499.936 833.793 519.466 833.793C542.337 833.793 545.743 797.843 590.512 766.711C609.436 753.552 615.816 743.363 623.115 738.499C630.414 733.634 649.351 701.098 651.339 694.72C660.585 665.048 656.692 668.939 660.585 634.403C661.516 626.139 662.531 614.946 662.531 595.975C662.531 578.95 667.008 580.169 670.216 575.86C672.498 574.266 674.613 573.242 677.188 572.211C701.295 554.517 713.295 520.15 719.798 492.406L720.21 490.691C721.411 485.532 722.223 480.372 722.912 475.122C723.027 474.248 723.143 473.374 723.262 472.474C723.504 470.631 723.745 468.787 723.983 466.943C724.343 464.179 724.717 461.418 725.093 458.656C726.201 450.269 727.129 441.956 727.17 433.488C727.178 432.507 727.177 432.507 727.185 431.506C727.062 421.415 723.857 411.317 716.913 403.79C710.308 397.793 702.853 395.646 694.11 395.532L690.923 395.463C687.547 395.782 685.457 396.788 682.515 398.414H680.739C681.333 390.952 682.042 383.508 682.816 376.063L682.817 376.06C687.294 333.046 687.294 333.045 688.95 289.846L688.965 287.786C689.032 275.196 688.227 262.893 684.512 250.775L683.792 248.381C683.087 246.07 682.36 243.767 681.627 241.465L681.06 239.61C668.301 198.449 634.838 165.27 597.695 145.373C589.612 141.165 581.629 137.722 572.873 135.168C561.827 131.917 556.989 129.043 551.136 119.098C518.466 76.2451 464.371 56.4731 412.711 48.9707Z" fill="black"/>
<path d="M291.929 209.543C295.607 211.051 298.358 213.659 301.305 216.249C302.423 217.217 303.542 218.185 304.661 219.151C305.213 219.629 305.765 220.106 306.333 220.598C328.856 240.037 357.468 256.799 387.196 261.811C399.953 264.064 406.253 268.83 414.43 278.707C418.592 283.541 422.873 288.251 427.247 292.895C427.828 293.514 428.41 294.133 429.009 294.771C432.51 298.487 436.068 302.13 439.712 305.707C441.499 307.528 443.082 309.477 444.612 311.516C447.474 310.563 447.937 310.092 449.772 307.858C452.979 304.081 456.319 300.448 459.703 296.829C460.477 295.998 460.477 295.998 461.266 295.151C464.375 291.828 467.553 288.589 470.783 285.384C472.281 283.876 473.694 282.319 475.071 280.702C475.857 279.824 475.857 279.824 476.659 278.929C478.423 276.903 478.423 276.903 480.085 274.44C485.876 266.809 490.914 265.927 500.006 264.509C521.753 261.004 543.565 250.022 561.788 237.918C562.372 237.53 562.957 237.142 563.559 236.742C575.54 228.702 587.222 219.903 597.296 209.543C614.543 217.217 628.162 241.086 634.877 257.699C640.24 272.52 642.009 287.361 642.013 303.036C642.015 303.667 642.017 304.298 642.018 304.948C642.014 319.571 639.599 333.106 635.735 347.208C635.46 348.251 635.185 349.294 634.901 350.368C634.648 351.296 634.394 352.224 634.133 353.18C633.296 358.241 634.501 361.494 637.407 365.647C637.985 366.449 637.985 366.449 638.574 367.268C659.884 398.114 662.785 424.766 657.906 461.273C657.665 463.1 657.431 464.928 657.2 466.755C654.349 489.302 651.819 508.989 635.086 525.596C633.726 526.954 632.397 528.337 631.073 529.732C619.215 542.091 605.032 551.385 590.915 560.961C590.43 561.29 589.945 561.619 589.446 561.958C578.54 569.358 567.629 576.735 556.462 583.738C552.449 581.525 548.806 579.191 545.144 576.423C530.164 565.47 513.285 556.714 497.076 547.74C493.39 545.696 489.727 543.619 486.077 541.512C485.17 540.99 484.262 540.469 483.327 539.931C481.624 538.951 479.926 537.966 478.231 536.974C468.942 531.647 460.633 529.043 449.938 528.762C449.23 528.729 448.521 528.697 447.791 528.664C437.455 528.206 429.153 528.417 419.757 533.195C418.354 533.87 416.951 534.543 415.547 535.215C406.68 539.506 398.046 544.127 389.575 549.156C388.605 549.732 387.634 550.308 386.635 550.902C384.489 552.181 382.35 553.469 380.213 554.761C377.126 556.623 374.025 558.458 370.92 560.289C360.837 566.251 351.019 572.284 341.639 579.305C339.574 580.792 337.501 582.265 335.426 583.738C325.413 578.325 316.002 572.126 306.588 565.742C304.586 564.386 302.578 563.041 300.566 561.698C287.325 552.808 274.391 543.18 263.099 531.883C261.711 530.498 260.301 529.134 258.858 527.806C238.138 508.334 234.891 485.335 232.064 458.191C231.787 455.548 231.491 452.908 231.194 450.268C230.264 441.705 229.612 433.214 229.592 424.597C229.59 423.847 229.588 423.098 229.585 422.325C229.779 401.982 240.935 383.372 252.909 367.595C256.174 363.254 256.174 363.254 257.4 358.113C256.952 355.798 256.276 353.655 255.533 351.418C255.091 349.512 254.666 347.602 254.257 345.689C253.564 342.622 252.869 339.555 252.17 336.489C249.615 325.147 248.064 314.398 248.099 302.759C248.099 302.119 248.1 301.478 248.101 300.819C248.227 269.169 259.03 240.818 281.415 218.13C283.771 215.826 286.134 213.678 288.822 211.76C289.417 211.33 290.012 210.9 290.625 210.457C291.055 210.156 291.485 209.854 291.929 209.543Z" fill="#B42516"/>
<path d="M462.685 546.021C467.383 549.424 467.383 549.424 468.58 551.816C468.658 554.532 468.683 557.227 468.667 559.942C468.665 561.149 468.665 561.149 468.663 562.38C468.658 564.955 468.647 567.53 468.636 570.105C468.631 571.848 468.627 573.592 468.624 575.335C468.614 579.614 468.598 583.893 468.58 588.172C468.973 587.775 469.366 587.377 469.771 586.968C471.591 585.132 473.415 583.299 475.238 581.466C475.856 580.841 476.474 580.217 477.11 579.573C482.562 574.103 488.232 568.984 494.323 564.23C502.191 568.27 509.778 572.539 517.168 577.4C519.74 579.09 522.336 580.727 524.949 582.353C535.454 589.061 544.831 596.359 553.799 605.019C558.304 603.72 562.015 601.753 566.005 599.367C566.654 598.983 567.302 598.599 567.971 598.204C573.665 594.796 579.188 591.146 584.654 587.384C588.733 584.602 592.833 582.308 597.296 580.191C597.399 588.211 597.151 596.103 596.45 604.091C596.361 605.154 596.272 606.217 596.181 607.312C595.892 610.76 595.595 614.208 595.299 617.655C594.937 621.912 594.579 626.17 594.22 630.427C594.064 632.275 593.907 634.122 593.751 635.97C593.103 643.63 592.497 651.291 591.928 658.957C590.387 679.593 588.431 700.049 585.357 720.518C584.912 723.544 584.505 726.572 584.119 729.607C583.907 731.213 583.694 732.819 583.481 734.425C583.401 735.102 583.321 735.778 583.238 736.475C582.175 744.063 577.422 748.353 572.163 753.434C571.018 754.547 569.875 755.662 568.734 756.78C568.231 757.266 567.728 757.752 567.21 758.253C565.613 759.911 564.114 761.603 562.613 763.346C555.87 771.089 548.457 778.252 541.221 785.533C539.281 787.486 537.349 789.447 535.423 791.415C533.08 793.809 530.723 796.191 528.357 798.563C527.464 799.463 526.575 800.367 525.691 801.276C516.937 810.266 516.937 810.266 510.302 810.738C509.514 810.83 508.727 810.921 507.915 811.015C501.194 811.708 494.486 811.741 487.735 811.712C486.103 811.71 486.103 811.71 484.437 811.708C481.001 811.703 477.565 811.692 474.128 811.68C471.782 811.676 469.436 811.672 467.089 811.668C461.372 811.659 455.655 811.644 449.939 811.625C450 810.835 450.061 810.045 450.124 809.231C450.204 808.194 450.285 807.157 450.367 806.088C450.447 805.06 450.526 804.033 450.608 802.974C451.368 792.948 451.268 784.398 446.388 775.269C445.802 774.977 445.216 774.684 444.612 774.383C444.184 775.619 443.759 776.857 443.336 778.096C443.1 778.785 442.863 779.474 442.619 780.185C441.137 785.008 440.925 789.437 440.951 794.445C440.947 795.104 440.944 795.764 440.94 796.443C440.95 801.835 441.395 807.151 441.949 812.512C436.79 812.534 431.63 812.55 426.47 812.56C424.722 812.565 422.974 812.571 421.225 812.579C412.752 812.615 404.279 812.64 395.814 812.231C394.215 812.155 394.215 812.155 392.585 812.077C391.286 811.926 389.987 811.776 388.688 811.625C387.742 811.578 386.796 811.53 385.822 811.482C374.184 810.214 367.922 803.11 359.99 795.075C358.564 793.662 357.137 792.251 355.708 790.841C352.73 787.89 349.772 784.92 346.828 781.936C343.073 778.135 339.268 774.388 335.447 770.654C332.491 767.753 329.565 764.824 326.646 761.885C325.256 760.492 323.856 759.108 322.446 757.735C313.168 748.657 308.671 742.198 307.907 729.16C307.578 726.731 307.173 724.322 306.77 721.904C306.401 719.465 306.044 717.025 305.688 714.585C305.593 713.932 305.498 713.279 305.399 712.606C302.552 693.026 300.544 673.446 298.922 653.73C298.062 643.264 297.134 632.811 296.041 622.366C295.888 620.899 295.888 620.899 295.732 619.402C295.237 614.685 294.731 609.97 294.214 605.257C293.246 596.264 292.501 587.475 292.817 578.418C306.2 585.067 320.697 593.143 331.883 603.053C333.623 604.342 333.623 604.342 335.88 604.032C338.318 603.165 339.614 602.202 341.484 600.43C351.67 591.088 363.085 583.468 374.853 576.276C377.361 574.741 379.861 573.193 382.359 571.643C386.832 568.869 391.309 566.104 395.789 563.344C401.773 568.244 407.158 573.713 412.6 579.194C413.555 580.152 414.51 581.111 415.466 582.069C417.786 584.396 420.104 586.727 422.42 589.059C422.364 587.368 422.364 587.368 422.307 585.643C422.179 581.449 422.097 577.256 422.03 573.06C421.994 571.247 421.946 569.434 421.884 567.621C421.798 565.01 421.758 562.402 421.727 559.79C421.672 558.58 421.672 558.58 421.616 557.346C421.613 553.982 421.617 551.819 423.933 549.254C434.729 540.98 450.759 538.625 462.685 546.021Z" fill="#FFCEA3"/>
<path d="M594.633 231.711C611.224 252.413 608.325 290.393 607.752 314.871C607.67 318.388 607.604 321.904 607.541 325.421C607.496 327.68 607.45 329.939 607.404 332.198C607.383 333.238 607.363 334.278 607.342 335.349C607.225 340.189 606.98 344.86 606.173 349.645C604.222 362.038 604.222 362.038 606.759 373.873C608.811 375.888 610.841 377.379 613.274 378.906C614.568 379.994 615.846 381.101 617.103 382.231C617.677 382.726 618.251 383.221 618.843 383.731C621.836 386.43 624.332 389.001 624.814 393.094C624.849 395.162 624.854 397.232 624.814 399.301C620.337 401.021 615.843 402.583 611.274 404.04C601.554 407.162 592.295 410.853 583.093 415.262C582.346 415.618 581.599 415.975 580.83 416.342C569.712 421.689 558.932 427.536 548.223 433.654C533.43 442.102 518.358 450.052 503.2 457.824C502.415 458.23 501.629 458.636 500.82 459.054C493.204 462.939 486.163 465.762 477.457 464.031C471.588 459.68 469.539 449.556 467.692 442.75C467.692 441.872 467.692 440.994 467.692 440.09C467.107 440.09 466.521 440.09 465.917 440.09C465.863 440.625 465.809 441.16 465.754 441.711C465.68 442.42 465.605 443.128 465.529 443.858C465.42 444.908 465.42 444.908 465.31 445.978C465.029 448.07 465.029 448.07 464.561 449.709C462.961 456.986 464.002 465.587 465.029 472.898C451.709 476.356 442.831 477.541 429.521 472.898C428.643 472.606 427.764 472.313 426.858 472.012C426.872 470.932 426.872 470.932 426.887 469.831C426.924 466.549 426.947 463.268 426.969 459.986C426.992 458.287 426.992 458.287 427.014 456.555C427.043 451.036 427.067 446.164 425.083 440.977C424.711 441.913 424.711 441.913 424.331 442.868C421.383 450.119 418.005 457.075 414.431 464.031C399.391 465.281 388.035 458.648 375.129 451.77C374.512 451.441 373.895 451.113 373.259 450.775C371.821 449.844 371.821 449.844 370.934 448.07C371.812 448.07 372.691 448.07 373.597 448.07C373.796 447.497 373.995 446.923 374.2 446.332C375.789 442.678 377.832 439.376 379.922 435.989C380.361 435.274 380.8 434.559 381.253 433.823C384.105 429.227 387.1 424.8 390.352 420.475C392.838 417.111 395.2 413.668 397.564 410.219C398.003 409.579 398.441 408.94 398.893 408.282C399.93 406.767 400.967 405.251 402.003 403.734C384.429 387.043 363.614 373.542 343.415 360.285C343.951 366.773 345.308 372.799 347.021 379.073C347.291 380.07 347.56 381.068 347.838 382.096C350.397 391.328 353.584 400.281 357.065 409.202C357.618 410.828 357.618 410.828 357.618 412.602C357.032 412.602 356.446 412.602 355.843 412.602C355.843 412.016 355.843 411.431 355.843 410.828C354.945 410.535 354.945 410.535 354.029 410.236C350.616 408.7 347.874 406.612 344.913 404.344C343.993 403.645 343.993 403.645 343.055 402.932C341.097 401.435 339.148 399.927 337.201 398.414C336.216 397.651 336.216 397.651 335.211 396.872C333.277 395.365 331.353 393.844 329.434 392.318C328.842 391.855 328.25 391.391 327.64 390.914C321.508 385.972 318.873 380.603 316.451 373.253C315.908 371.65 315.364 370.048 314.818 368.446C314.55 367.658 314.283 366.869 314.007 366.057C312.955 363.03 311.793 360.056 310.626 357.071C305.345 343.312 301.442 329.004 297.461 314.827C295.538 308.034 293.397 301.315 291.204 294.605C290.951 293.827 290.698 293.049 290.438 292.247C290.211 291.557 289.985 290.868 289.752 290.158C289.266 288.461 289.266 288.461 289.266 286.688C293.21 287.156 295.907 288.086 299.28 290.165C300.605 290.972 300.605 290.972 301.958 291.795C302.896 292.377 303.834 292.96 304.8 293.56C306.295 294.473 307.79 295.387 309.286 296.3C310.303 296.92 311.318 297.542 312.334 298.164C316.313 300.602 320.335 302.96 324.373 305.301C334.858 311.391 344.94 317.988 354.955 324.816C356.271 325.707 357.588 326.597 358.905 327.487C366.023 332.316 372.993 337.302 379.811 342.551C380.312 342.935 380.813 343.319 381.329 343.715C387.403 348.377 393.286 353.137 398.927 358.321C402.787 361.785 406.837 365.018 410.88 368.266C411.308 367.818 411.736 367.369 412.177 366.908C412.737 366.332 413.298 365.756 413.876 365.162C414.432 364.586 414.988 364.01 415.561 363.416C417.094 362.059 417.094 362.059 418.869 362.059C419.162 361.181 419.455 360.303 419.757 359.398C420.343 359.398 420.929 359.398 421.532 359.398C421.532 358.813 421.532 358.228 421.532 357.625C422.737 356.441 422.737 356.441 424.462 355.027C429.431 350.806 433.977 346.176 438.565 341.553C439.436 340.679 440.307 339.805 441.178 338.931C442.779 337.324 444.38 335.715 445.979 334.106C447.364 332.713 448.751 331.323 450.142 329.936C452.963 327.116 455.773 324.285 458.584 321.455C461.432 318.59 464.283 315.728 467.136 312.867C469.292 310.704 471.446 308.539 473.597 306.371C476.094 303.853 478.6 301.342 481.105 298.831C481.865 298.063 482.626 297.294 483.409 296.502C489.989 289.928 496.238 284.109 505.142 281.09C506.546 280.575 507.948 280.055 509.348 279.531C510.446 279.121 510.446 279.121 511.566 278.703C525.579 273.295 538.456 266.301 551.136 258.312C552.318 257.575 553.5 256.839 554.683 256.103C556.372 255.05 558.06 253.996 559.746 252.938C565.093 249.58 570.484 246.295 575.88 243.017C576.725 242.504 577.569 241.99 578.439 241.462C583.825 238.193 589.225 234.944 594.633 231.711Z" fill="#DD2C18"/>
<path d="M599.959 285.801C600.545 286.093 601.131 286.386 601.734 286.687C601.525 287.373 601.315 288.058 601.1 288.764C597.385 300.941 593.725 313.116 590.472 325.426C588.221 333.897 585.833 342.281 583.063 350.597C582.205 353.191 581.368 355.792 580.532 358.394C579.704 360.955 578.86 363.511 578.012 366.065C577.595 367.331 577.183 368.599 576.778 369.869C574.429 377.203 572.129 383.394 566.227 388.66C565.723 389.113 565.219 389.566 564.699 390.033C563.17 391.342 561.606 392.584 560.013 393.814C559.446 394.259 558.88 394.705 558.297 395.163C553.111 399.212 547.809 403.1 542.474 406.949C539.973 408.759 537.552 410.652 535.157 412.602C534.571 412.309 533.985 412.016 533.382 411.715C533.564 411.24 533.747 410.765 533.935 410.276C537.67 400.485 541.082 390.658 543.923 380.569C544.177 379.678 544.43 378.787 544.691 377.869C546.371 371.765 547.542 365.659 548.473 359.398C530.939 370.922 514.012 383.115 497.652 396.253C497.13 396.669 496.607 397.085 496.069 397.513C485.509 406.078 475.933 415.774 466.361 425.404C465.254 426.514 464.146 427.624 463.039 428.734C460.575 431.204 458.114 433.675 455.654 436.149C454.407 437.399 453.153 438.643 451.899 439.886C449.979 441.753 449.979 441.753 448.607 443.526C447.275 444.523 447.275 444.523 445.299 444.423C442.053 443.386 440.025 441.458 437.622 439.148C436.968 438.545 436.968 438.545 436.301 437.93C433.829 435.612 431.553 433.19 429.345 430.62C425.614 426.302 421.592 422.282 417.548 418.26C416.264 416.982 414.984 415.699 413.704 414.415C409.068 409.78 404.355 405.299 399.34 401.074C398.777 400.595 398.215 400.116 397.635 399.622C388.818 392.151 379.715 385.194 370.267 378.541C368.257 377.123 366.253 375.695 364.252 374.265C357.425 369.401 350.565 364.666 343.415 360.285C343.951 366.773 345.308 372.799 347.021 379.073C347.291 380.07 347.56 381.068 347.838 382.096C350.397 391.328 353.584 400.281 357.065 409.202C357.618 410.828 357.618 410.828 357.618 412.602C357.032 412.602 356.446 412.602 355.843 412.602C355.843 412.016 355.843 411.431 355.843 410.828C354.945 410.535 354.945 410.535 354.029 410.236C350.616 408.7 347.874 406.612 344.913 404.344C343.993 403.645 343.993 403.645 343.055 402.932C341.097 401.435 339.148 399.927 337.201 398.414C336.216 397.651 336.216 397.651 335.211 396.872C333.277 395.365 331.353 393.844 329.434 392.318C328.842 391.855 328.25 391.391 327.64 390.914C321.508 385.972 318.873 380.603 316.451 373.253C315.908 371.65 315.364 370.048 314.818 368.446C314.55 367.658 314.283 366.869 314.007 366.057C312.955 363.03 311.793 360.056 310.626 357.071C305.345 343.312 301.442 329.004 297.461 314.827C295.538 308.034 293.397 301.315 291.204 294.605C290.951 293.827 290.698 293.049 290.438 292.247C290.098 291.213 290.098 291.213 289.752 290.158C289.266 288.461 289.266 288.461 289.266 286.687C293.21 287.156 295.907 288.086 299.28 290.165C300.164 290.703 301.047 291.241 301.958 291.795C302.896 292.377 303.834 292.96 304.8 293.56C306.295 294.473 307.79 295.387 309.286 296.3C310.303 296.92 311.318 297.542 312.334 298.164C316.313 300.602 320.335 302.96 324.373 305.301C334.858 311.391 344.94 317.988 354.955 324.816C356.271 325.707 357.588 326.597 358.905 327.487C366.023 332.316 372.993 337.302 379.811 342.551C380.312 342.935 380.813 343.319 381.329 343.715C387.423 348.393 393.324 353.17 398.983 358.373C401.15 360.317 403.387 362.13 405.665 363.943C418.727 374.524 432.139 386.646 442.455 399.959C443.887 401.465 443.887 401.465 447.275 401.074C448.707 400.065 448.707 400.065 449.928 398.608C450.406 398.084 450.883 397.56 451.375 397.02C451.871 396.456 452.368 395.892 452.879 395.311C453.394 394.741 453.909 394.171 454.44 393.583C457.538 390.145 460.576 386.654 463.608 383.156C467.868 378.392 472.505 374.057 477.35 369.897C479.432 368.093 481.467 366.241 483.504 364.386C504.608 345.41 527.997 329.19 552.023 314.176C552.766 313.711 553.508 313.247 554.272 312.769C562.684 307.523 571.225 302.529 579.856 297.654C583.51 295.587 587.142 293.499 590.721 291.305C591.34 290.926 591.958 290.547 592.595 290.157C593.74 289.451 594.881 288.738 596.017 288.019C597.3 287.227 598.626 286.505 599.959 285.801Z" fill="#FCAA26"/>
<path d="M264.41 400.188C294.014 406.149 320.931 420.138 346.886 435.101C355.442 440.023 364.122 444.711 372.826 449.366C375.263 450.672 377.695 451.987 380.126 453.304C391.859 459.625 400.757 463.862 414.431 463.145C418.071 455.576 421.522 448.067 424.195 440.09C425.971 440.977 425.971 440.976 426.949 443.487C429.753 454.285 429.347 469.186 424.195 479.105C423.815 479.873 423.435 480.641 423.044 481.433C416.316 493.349 404.762 503.201 393.126 510.141C392.499 510.514 391.873 510.888 391.228 511.273C370.655 523.385 349.019 528.998 325.299 523.361C299.116 516.47 275.642 499.271 261.411 476.237C253.918 462.628 251.187 446.441 249.319 431.223C249.167 430.391 249.015 429.558 248.858 428.701C248.119 422.001 250.394 418.316 254.368 413.211C255.763 411.48 257.177 409.768 258.607 408.065C260.678 405.531 262.537 402.87 264.41 400.188ZM626.59 399.301C628.116 401.473 629.473 403.609 630.807 405.896C633.736 410.803 636.664 415.286 640.633 419.442C646.802 431.38 637.242 455.797 633.691 467.578C631.034 475.874 626.823 482.185 621.264 488.859C620.542 489.737 619.819 490.615 619.075 491.52C604.257 508.614 582.232 521.978 559.565 524.993C531.905 526.969 508.298 520.427 486.855 502.494C477.258 494.181 468.989 485.183 465.029 472.898C464.729 471.976 464.728 471.976 464.422 471.035C461.63 460.764 463.061 450.16 465.917 440.09H467.692C468.025 441.16 468.358 442.23 468.701 443.332C469.16 444.764 469.619 446.195 470.078 447.627C470.295 448.329 470.512 449.031 470.735 449.754C472.294 454.562 474.023 459.337 477.457 463.145C484.327 465.572 492.191 462.537 498.536 459.674C504.713 456.72 510.686 453.369 516.665 450.038C521.831 447.167 527.071 444.453 532.327 441.752C538.147 438.75 543.867 435.664 549.471 432.275C604.258 399.301 604.258 399.301 626.59 399.301Z" fill="black"/>
<path d="M292.816 578.418C297.019 580.498 301.098 582.773 305.133 585.161C307.497 586.555 309.885 587.85 312.33 589.096C317.229 591.748 321.329 593.969 323.269 599.383C323.802 603.232 323.588 607.044 323.38 610.911C323.353 612.345 323.332 613.779 323.316 615.213C323.261 618.98 323.127 622.741 322.974 626.505C322.832 630.273 322.758 634.042 322.683 637.812C322.591 642.18 322.496 646.547 322.373 650.913C321.978 665.126 322.094 679.092 324.94 693.082C325.134 694.073 325.327 695.063 325.526 696.084C326.92 703.061 328.476 709.999 330.155 716.912C330.362 717.775 330.569 718.638 330.782 719.526C332.668 726.967 335.323 732.792 340.309 738.692C340.977 739.492 341.645 740.293 342.333 741.117C344.256 743.355 344.257 743.355 346.328 745.301C347.854 746.894 347.854 746.895 347.854 748.668H349.629C350.842 749.925 350.842 749.925 352.278 751.691C354.768 754.624 357.377 757.234 360.24 759.804C375.699 773.888 375.699 773.889 376.232 785.287C376.246 786.912 376.246 786.912 376.26 788.57C376.449 790.161 376.65 791.75 376.87 793.337C377.268 797.95 377.227 802.566 377.147 807.191C372.822 805.425 370.135 802.005 366.971 798.688C364.884 796.537 364.883 796.538 362.674 795.376C359.877 793.64 357.607 791.548 355.257 789.27C354.776 788.809 354.295 788.348 353.799 787.874C348.779 783.056 343.814 778.181 338.854 773.303C336.508 770.998 334.145 768.712 331.767 766.44C328.878 763.683 326.023 760.894 323.187 758.083C322.109 757.025 321.022 755.979 319.923 754.943C312.125 747.574 308.939 741.707 308.072 730.961C307.794 727.917 307.265 724.919 306.771 721.903C306.402 719.465 306.044 717.025 305.688 714.585C305.593 713.932 305.498 713.279 305.399 712.606C302.552 693.026 300.544 673.446 298.923 653.73C298.062 643.265 297.134 632.811 296.042 622.366C295.94 621.388 295.838 620.409 295.732 619.401C295.237 614.685 294.732 609.971 294.215 605.257C293.246 596.264 292.501 587.475 292.816 578.418ZM597.296 580.191C597.399 588.211 597.151 596.102 596.45 604.091C596.361 605.154 596.272 606.217 596.181 607.312C595.892 610.76 595.596 614.208 595.299 617.655C594.937 621.912 594.578 626.17 594.22 630.427C594.064 632.275 593.908 634.123 593.751 635.971C593.103 643.63 592.498 651.292 591.929 658.957C590.387 679.593 588.431 700.05 585.357 720.518C584.912 723.544 584.505 726.573 584.119 729.607C583.907 731.213 583.694 732.819 583.481 734.425C583.401 735.101 583.321 735.779 583.238 736.476C582.174 744.064 577.422 748.353 572.163 753.435C568.826 756.677 565.54 759.906 562.517 763.444C558.338 768.288 553.797 772.776 549.272 777.295C547.735 778.833 546.204 780.379 544.674 781.924C543.697 782.902 542.72 783.88 541.742 784.857C541.286 785.32 540.829 785.782 540.358 786.259C537.136 789.457 537.136 789.457 535.157 789.457C535.081 781.956 535.25 774.499 535.712 767.012C535.752 766.012 535.793 765.013 535.834 763.983C536.204 758.268 536.902 754.683 540.964 750.517C542.259 749.555 542.259 749.555 544.034 749.555C544.26 749.034 544.486 748.513 544.718 747.976C545.926 745.799 547.232 744.561 549.083 742.904C554.849 737.271 559.238 730.345 560.558 722.322C560.939 720.07 561.552 717.947 562.177 715.749C563.739 709.623 564.459 703.409 565.181 697.139C565.735 692.475 566.513 687.982 567.577 683.406C569.378 674.911 569.315 666.432 569.344 657.783C569.359 656.073 569.375 654.362 569.393 652.651C569.434 648.195 569.461 643.739 569.484 639.282C569.511 634.717 569.552 630.151 569.592 625.586C569.668 616.662 569.728 607.737 569.777 598.812L568.002 597.926C568.883 597.378 569.764 596.831 570.672 596.267C577.406 592.075 584.121 587.859 590.777 583.545C595.963 580.192 595.964 580.191 597.296 580.191Z" fill="#E08F49"/>
<path d="M392.238 511.027C394.18 513.244 394.18 513.244 395.789 515.461C394.477 517.568 393.164 519.674 391.85 521.779C391.453 522.415 391.056 523.051 390.647 523.707C388.646 526.907 386.631 530.096 384.575 533.261C384.212 533.82 383.848 534.38 383.474 534.956C382.782 536.017 382.089 537.076 381.392 538.133C379.961 540.329 378.87 542.222 378.035 544.723C378.822 544.96 379.61 545.198 380.421 545.443C383.156 546.423 385.369 547.585 387.8 549.156C384.482 553.07 380.188 555.145 375.76 557.58C361.698 565.472 348.274 573.992 335.426 583.738C325.435 578.338 316.044 572.155 306.651 565.785C304.461 564.301 302.265 562.828 300.067 561.356C298.778 560.486 297.489 559.615 296.201 558.744C295.61 558.349 295.02 557.954 294.412 557.548C291.821 555.781 290.14 554.457 288.378 551.816C289.257 551.377 289.257 551.377 290.153 550.93C291.234 549.073 291.234 549.073 292.275 546.787C292.684 545.928 293.092 545.068 293.512 544.183C293.942 543.264 294.371 542.345 294.814 541.397C295.251 540.471 295.689 539.545 296.14 538.591C297.405 535.908 298.663 533.222 299.918 530.535C300.517 529.26 301.115 527.986 301.714 526.711C304.124 521.61 304.124 521.61 306.132 516.348C307.212 516.713 308.292 517.079 309.405 517.456C310.976 517.976 312.548 518.493 314.121 519.008C315.031 519.306 315.941 519.604 316.878 519.912C337.103 526.357 359.532 527.002 378.867 517.179C381.843 515.609 384.738 513.94 387.581 512.139C389.575 511.027 389.575 511.027 392.238 511.027Z" fill="#DD2D18"/>
<path d="M240.442 540.289C243.49 542.665 246.111 545.034 248.598 547.992C254.781 555.214 262.247 561.198 269.632 567.143C271.512 568.664 271.512 568.664 272.399 569.551C272.508 570.869 272.559 572.191 272.586 573.513C272.612 574.371 272.637 575.228 272.663 576.111C272.707 577.861 272.747 579.612 272.781 581.362C273.019 589.056 273.936 596.616 274.886 604.25C276.115 614.17 277.073 624.108 278.003 634.06C278.379 638.055 278.758 642.049 279.137 646.044C279.235 647.08 279.333 648.116 279.434 649.184C280.162 656.829 280.923 664.471 281.698 672.111C281.889 673.992 282.079 675.873 282.268 677.753C282.33 678.369 282.392 678.984 282.456 679.618C282.58 680.853 282.705 682.089 282.829 683.324C283.196 686.961 283.568 690.598 283.943 694.235C284.231 697.037 284.511 699.839 284.792 702.642C284.899 703.66 285.006 704.679 285.117 705.728C285.209 706.664 285.302 707.599 285.397 708.563C285.48 709.377 285.563 710.191 285.649 711.03C285.713 713.14 285.454 714.741 284.827 716.746C279.642 710.874 274.512 704.954 269.445 698.979C268.429 697.787 267.407 696.6 266.38 695.418C264.784 693.579 263.209 691.725 261.636 689.867C260.895 689.026 260.895 689.026 260.139 688.167C259.679 687.616 259.218 687.065 258.744 686.497C258.338 686.024 257.931 685.55 257.513 685.062C254.243 679.039 253.939 671.123 252.918 664.444C252.687 662.931 252.687 662.931 252.451 661.388C250.869 650.829 249.666 640.242 248.542 629.626C248.32 627.555 248.097 625.483 247.874 623.412C246.153 607.295 244.532 591.168 242.952 575.037C242.773 573.219 242.594 571.401 242.414 569.583C242.078 566.176 241.748 562.768 241.42 559.36C241.32 558.354 241.221 557.347 241.118 556.31C240.609 550.94 240.342 545.683 240.442 540.289Z" fill="#B52717"/>
<path d="M649.67 540.289C649.963 540.289 650.256 540.289 650.558 540.289C650.014 551.836 649.08 563.313 647.95 574.816C647.798 576.395 647.646 577.973 647.494 579.552C646.702 587.76 645.868 595.962 644.995 604.161C644.492 608.894 644.014 613.629 643.55 618.365C642.139 632.702 640.642 647.03 638.85 661.324C638.667 662.79 638.49 664.257 638.317 665.724C638.074 667.77 637.813 669.813 637.547 671.856C637.403 673.015 637.258 674.174 637.109 675.368C635.95 680.359 633.482 684.246 630.213 688.191C629.745 688.761 629.276 689.332 628.794 689.92C628.304 690.506 627.815 691.092 627.311 691.696C626.802 692.314 626.293 692.932 625.768 693.568C624.745 694.809 623.72 696.047 622.694 697.285C621.429 698.812 620.172 700.345 618.92 701.883C609.631 713.292 609.631 713.292 606.173 716.746C606.216 716.252 606.259 715.758 606.303 715.249C606.435 713.731 606.567 712.214 606.7 710.697C606.858 708.88 607.016 707.064 607.174 705.247C607.597 700.394 608.019 695.541 608.439 690.687C611.817 651.732 611.817 651.732 613.569 633.128C613.712 631.606 613.712 631.606 613.859 630.053C614.328 625.089 614.805 620.126 615.297 615.164C616.139 606.597 616.914 598.054 617.352 589.457C617.474 587.379 617.599 585.301 617.724 583.224C617.82 581.379 617.866 579.538 617.909 577.691C618.193 572.979 618.42 569.877 621.609 566.257C624.074 564.229 626.603 562.46 629.253 560.684C636.568 554.465 643.778 547.891 649.67 540.289Z" fill="#B72717"/>
<path d="M497.874 574.871C500.81 577.601 502.858 579.802 504.254 583.572C504.523 584.273 504.792 584.973 505.069 585.695C506.949 591.558 507.96 596.778 507.972 602.914C507.993 603.556 508.015 604.198 508.037 604.86C508.062 609.46 507.136 612.034 504.088 615.66C501.278 618.178 498.276 620.102 495.044 622.033C487.712 626.662 481.799 632.432 476.014 638.826C468.305 647.318 460.319 654.533 448.496 656.505C437.941 657.006 428.993 651.264 421.366 644.589C416.975 640.504 413.106 636.045 409.254 631.458C404.998 626.769 400.688 624.151 395.068 621.424C386.954 617.387 386.954 617.387 385.081 613.72C382.276 603.758 383.771 591.112 388.244 581.875C389.491 579.748 390.734 577.711 392.238 575.758C392.531 575.758 392.824 575.758 393.126 575.758C393.18 576.838 393.234 577.918 393.289 579.031C393.364 580.471 393.439 581.911 393.514 583.35C393.549 584.06 393.584 584.769 393.62 585.5C393.843 589.691 394.238 593.78 394.901 597.926C395.61 598.129 396.318 598.333 397.048 598.542C401.087 600.012 404.734 601.953 408.494 604.022C409.27 604.447 410.045 604.871 410.844 605.309C416.875 608.682 422.527 612.438 428.061 616.571C435.624 622.169 442.296 623.989 451.714 622.754C457.991 620.611 463.23 616.926 468.549 613.055C472.192 610.582 475.974 608.384 479.787 606.183C480.852 605.567 480.852 605.567 481.939 604.937C485.268 603.03 488.572 601.252 492.069 599.672C494.354 598.542 495.088 598.119 496.487 595.913C498.056 588.826 498.138 582.102 497.874 574.871Z" fill="black"/>
<path d="M483.671 111.117C498.022 117.543 508.776 131.693 514.473 146.039C519.527 159.385 521.202 177.443 515.628 190.922C506.719 210.534 491.9 225.217 474.794 237.918C473.732 238.716 473.731 238.716 472.647 239.529C470.353 241.252 468.053 242.968 465.75 244.68C464.65 245.5 464.65 245.5 463.527 246.337C462.839 246.844 462.15 247.351 461.44 247.873C460.827 248.326 460.213 248.779 459.581 249.246C457.928 250.332 457.928 250.332 455.265 251.219C455.41 248.697 455.603 246.19 455.837 243.675C456.114 240.61 456.204 237.565 456.273 234.489C456.69 225.2 457.225 217.994 464.138 211.262C466.724 209.03 469.406 206.947 472.112 204.863C477.272 200.468 480.589 194.285 483.837 188.428C484.224 187.731 484.61 187.035 485.009 186.317C487.769 181.21 489.791 176.278 490.772 170.527C490.932 169.77 491.09 169.011 491.254 168.23C493.684 150.116 490.809 133.03 484.742 116.025C483.671 112.891 483.671 112.891 483.671 111.117ZM418.869 88.0625C431.344 92.4892 439.133 104.324 444.823 115.645C451.377 129.492 453.671 147.182 448.461 161.799C443.815 171.677 435.821 177.074 425.971 181.168C398.263 190.182 369.217 178.462 344.651 166C339.747 163.467 334.911 160.819 330.1 158.113C334.597 165.237 339.321 171.543 345.19 177.621C345.661 178.118 346.131 178.616 346.615 179.128C368.973 202.71 396.201 217.268 426.858 227.277V228.164C407.119 228.71 390.317 226.291 371.821 219.297C371.165 219.05 370.509 218.802 369.833 218.548C350.814 211.221 333.426 197.914 321.277 181.556C320.82 180.942 320.363 180.328 319.893 179.695C307.264 162.44 298.193 140.843 299.03 119.098C302.124 120.882 304.921 122.841 307.74 125.027C326.964 139.042 349.643 143.011 373.09 139.97C376.019 139.395 378.757 138.667 381.586 137.719C382.66 137.362 383.735 137.005 384.842 136.638C397.537 132.122 410.023 125.02 416.539 112.78C420.226 104.502 420.402 96.8661 418.869 88.0625Z" fill="#969D95"/>
<path d="M499.649 520.781C504.508 522.168 508.627 524.457 513.02 526.877C519.641 530.432 526.011 533.3 533.382 534.969C534.671 535.264 534.671 535.264 535.986 535.565C552.71 538.848 570.787 536.235 585.96 528.44C587.531 527.875 587.531 527.875 590.194 528.762C591.12 530.445 591.12 530.445 591.945 532.641C592.249 533.442 592.553 534.244 592.866 535.069C593.174 535.914 593.483 536.759 593.801 537.629C594.268 538.855 594.268 538.855 594.746 540.105C596.628 545.146 598.026 550.086 599.071 555.363C569.535 575.54 569.535 575.54 556.462 583.738C552.449 581.525 548.806 579.191 545.144 576.423C531.501 566.411 516.164 558.316 501.425 550.043C504.884 548.253 508.422 546.948 512.077 545.609C510.718 540.553 508.149 536.565 505.364 532.198C504.471 530.794 503.582 529.388 502.697 527.979C502.304 527.363 501.911 526.746 501.506 526.112C500.539 524.331 500.045 522.76 499.649 520.781Z" fill="#DE2D18"/>
<path d="M407.834 672.267C408.747 672.263 409.66 672.258 410.601 672.254C413.607 672.241 416.612 672.235 419.618 672.23C420.652 672.228 421.685 672.225 422.75 672.222C428.223 672.209 433.695 672.201 439.168 672.197C444.787 672.192 450.406 672.171 456.024 672.146C460.375 672.129 464.725 672.125 469.075 672.123C471.145 672.121 473.214 672.113 475.284 672.102C504.379 671.949 504.379 671.949 516.127 678.506C516.688 678.796 517.25 679.085 517.828 679.383C528.442 684.983 528.442 684.983 529.581 688.652C529.517 689.309 529.453 689.966 529.387 690.643C529.341 691.303 529.296 691.962 529.248 692.642C528.954 694.509 528.552 696.302 528.056 698.125C526.552 697.75 525.049 697.374 523.546 696.999C522.253 696.676 520.961 696.354 519.668 696.032C516.695 695.291 513.723 694.545 510.756 693.781C509.405 693.435 509.405 693.435 508.027 693.082C507.239 692.877 506.45 692.673 505.638 692.462C499.457 691.083 493.53 690.895 487.217 690.888C485.769 690.882 485.769 690.882 484.292 690.875C481.109 690.862 477.925 690.856 474.742 690.851C473.649 690.849 472.556 690.846 471.43 690.844C466.236 690.832 461.042 690.823 455.848 690.819C450.484 690.816 445.12 690.805 439.755 690.782C433.975 690.757 428.195 690.746 422.415 690.744C420.224 690.742 418.033 690.735 415.842 690.723C401.015 690.649 387.57 691.482 373.375 696.074C369.792 697.216 366.759 698.125 362.944 698.125C361.786 694.654 361.06 691.045 362.057 687.484C372.531 674.913 392.547 672.285 407.834 672.267Z" fill="black"/>
<path d="M292.816 446.297C302.764 449.133 312.583 452.207 322.332 455.663C322.974 455.889 323.615 456.116 324.276 456.349C343.261 463.069 361.788 470.869 380.062 479.328C381.752 480.092 381.752 480.092 384.249 480.879C384.249 481.464 384.249 482.049 384.249 482.652C366.591 491.887 350.654 496.145 330.987 490.633C317.686 486.401 302.702 479.483 295.48 466.969C294.864 465.705 294.268 464.432 293.704 463.145C293.32 462.303 292.935 461.462 292.539 460.595C291.579 456.238 290.764 450.397 292.816 446.297Z" fill="#FCDEAD"/>
<path d="M599.071 447.184C599.647 457.382 598.58 464.288 591.859 472.178C578.825 485.75 559.799 492.944 541.149 493.625C528.541 493.358 517.778 488.207 506.751 482.652C506.751 482.067 506.751 481.482 506.751 480.879C528.996 471.212 551.333 462.11 574.16 453.889C575.175 453.523 576.19 453.156 577.236 452.778C592.954 447.184 592.954 447.184 599.071 447.184Z" fill="#FCDDAC"/>
<path d="M477.291 714.529C479.654 714.572 482.017 714.615 484.38 714.657C490.062 714.76 495.743 714.865 501.425 714.973C497.537 721.706 491.504 724.802 485.002 728.772C484.171 729.284 483.339 729.795 482.482 730.322C480.218 731.713 477.952 733.1 475.682 734.48C475.005 734.937 474.328 735.394 473.63 735.864C470.994 737.274 469.383 737.509 466.415 737.583C464.996 737.626 464.996 737.626 463.548 737.669C462.022 737.691 462.022 737.691 460.466 737.712C458.874 737.738 458.874 737.738 457.25 737.764C455 737.793 452.749 737.815 450.498 737.828C447.101 737.861 443.709 737.954 440.313 738.05C426.511 738.257 417.394 736.771 406.441 728.273C405.004 727.309 403.563 726.35 402.117 725.398C401.057 724.628 400.001 723.85 398.951 723.064C398.399 722.668 397.847 722.273 397.278 721.865C394.464 719.79 392.763 718.15 391.351 714.973C395.557 714.841 399.763 714.715 403.969 714.594C405.386 714.552 406.803 714.509 408.22 714.465C431.243 713.745 454.265 714.094 477.291 714.529Z" fill="black"/>
<path d="M184.518 449.844C189.249 454.339 191.534 459.928 194.278 465.744C195.071 467.374 195.937 468.967 196.813 470.554C200.721 478.147 200.95 484.55 200.456 492.986C200.014 502.267 203.424 510.132 209.373 517.234C211.894 519.584 214.444 521.817 217.103 524.01C220.574 527.578 220.194 531.981 220.501 536.787C220.539 537.371 220.577 537.956 220.616 538.558C220.736 540.409 220.853 542.261 220.969 544.113C221.05 545.375 221.131 546.636 221.213 547.897C221.412 550.977 221.607 554.057 221.801 557.137C219.604 555.009 217.629 552.903 215.854 550.414C215.425 549.814 214.998 549.214 214.557 548.596C202.353 531.187 191.768 513.382 187.181 492.406C187.037 491.772 186.893 491.138 186.744 490.485C183.81 477.072 184.242 463.494 184.518 449.844ZM706.482 449.844C707.026 466.721 706.594 482.209 702.044 498.613C701.788 499.564 701.788 499.564 701.527 500.534C697.344 515.664 689.815 529.369 680.739 542.062C679.925 543.225 679.111 544.388 678.298 545.551C671.844 554.724 671.844 554.725 669.199 557.137C669.253 556.288 669.307 555.438 669.362 554.563C669.397 554 669.432 553.437 669.469 552.856C669.549 551.596 669.632 550.335 669.717 549.074C669.943 545.651 670.116 542.237 670.188 538.807C670.219 537.802 670.218 537.801 670.25 536.776C670.288 535.487 670.31 534.196 670.313 532.906C670.434 529.545 670.839 528.037 673.021 525.426C673.81 524.771 674.6 524.116 675.413 523.441C684.067 515.408 690.622 506.615 691.575 494.505C691.632 491.104 691.425 488.121 690.685 484.782C690.028 479.644 692.372 475.463 694.499 470.903C694.905 470.005 695.31 469.106 695.728 468.181C698.615 461.88 701.592 455.529 705.595 449.844H706.482Z" fill="#E08F49"/>
<path d="M458.815 490.633C458.815 502.923 458.815 515.213 458.815 527.875C450.027 527.875 441.239 527.875 432.185 527.875C432.27 522.73 432.362 517.585 432.466 512.44C432.5 510.689 432.531 508.937 432.559 507.186C432.599 504.672 432.651 502.159 432.705 499.645C432.715 498.859 432.725 498.073 432.736 497.263C432.753 496.536 432.771 495.808 432.789 495.058C432.801 494.416 432.813 493.774 432.825 493.113C433.072 491.52 433.072 491.52 434.848 489.746C443.378 486.483 450.236 487.776 458.815 490.633Z" fill="#DE2D18"/>
<path d="M395.789 720.293C396.599 720.811 396.599 720.811 397.426 721.339C402.654 724.672 407.898 727.978 413.155 731.266C413.778 731.657 414.402 732.048 415.044 732.45C419.028 734.938 421.346 736.353 426.015 736.523C426.953 736.558 427.891 736.592 428.857 736.627C433.214 736.75 437.571 736.837 441.93 736.905C444.208 736.951 446.486 737.017 448.763 737.105C464.227 737.694 474.715 736.313 487.236 726.892C489.778 725.046 492.453 723.566 495.211 722.066C496.09 722.944 496.09 722.944 496.986 723.84C495.581 725.946 494.175 728.052 492.77 730.158C492.179 731.042 492.179 731.042 491.577 731.945C490.993 732.819 490.993 732.819 490.398 733.712C489.82 734.578 489.82 734.578 489.231 735.463C488.51 736.541 487.787 737.618 487.061 738.692C485.775 740.598 484.568 742.442 483.56 744.511C482.783 746.008 482.783 746.008 481.008 746.895C478.863 747.05 476.74 747.155 474.591 747.22C473.599 747.255 473.599 747.255 472.587 747.29C466.472 747.49 460.356 747.609 454.239 747.702C450.131 747.766 446.028 747.857 441.922 748.014C437.948 748.164 433.979 748.244 430.002 748.275C428.492 748.299 426.983 748.347 425.475 748.422C415.901 748.872 415.901 748.872 411.768 746.895C408.064 743.454 405.94 738.972 403.798 734.467C402.408 731.77 400.648 729.502 398.785 727.11C395.789 723.248 395.789 723.248 395.789 720.293Z" fill="#E08F49"/>
<path d="M188.956 417.035C193.945 415.374 199.07 415.128 203.936 417.274C206.911 419.05 209.582 420.791 212.036 423.242C212.429 425.698 212.71 428.085 212.924 430.558C212.995 431.32 213.066 432.083 213.139 432.869C213.792 440.182 214.307 447.507 214.811 454.831C214.888 455.955 214.966 457.079 215.046 458.237C215.444 464.317 215.698 470.352 215.587 476.445C213.741 474.602 213.239 473.514 212.334 471.118C211.917 470.035 211.917 470.035 211.491 468.93C211.195 468.155 210.899 467.379 210.594 466.58C204.52 451.107 198.089 435.151 182.742 426.789C183.875 422.367 185.481 419.998 188.956 417.035ZM680.499 421.572C686.828 416.698 693.336 414.233 701.306 416.758C705.103 418.699 706.901 421.035 708.258 425.016C707.16 428.305 706.152 428.644 703.265 430.447C690.487 439.186 685.001 454.945 679.824 468.903C679.506 469.753 679.187 470.603 678.859 471.479C678.439 472.626 678.44 472.626 678.011 473.797C677.189 475.559 677.188 475.559 675.413 476.445C675.857 467.9 676.327 459.356 676.834 450.815C677.087 446.495 677.288 442.177 677.452 437.853C677.548 435.975 677.645 434.098 677.743 432.221C677.761 431.376 677.779 430.53 677.798 429.659C678.005 426.3 678.17 424.107 680.499 421.572Z" fill="#FFCEA3"/>
</g>
<defs>
<clipPath id="clip0_25_1114">
<rect width="900" height="900" fill="white"/>
</clipPath>
</defs>
</svg>
