<svg width="900" height="900" viewBox="0 0 900 900" fill="none" xmlns="http://www.w3.org/2000/svg">
<g clip-path="url(#clip0_2056_106)">
<path d="M307.412 34.8017C319.865 29.0576 333.423 32.5454 345.884 36.4072C346.969 36.7499 348.023 37.0824 349.076 37.415C358.803 40.4577 368.481 43.6364 378.143 46.8789C391.18 51.2557 404.21 55.6471 417.415 59.497C418.304 59.7531 419.167 60.0015 420.03 60.25C453.431 69.9601 453.432 69.9599 520.375 46.9824C532.368 42.862 544.37 38.8076 556.629 35.539C557.747 35.2487 558.832 34.9663 559.917 34.6845C567.212 32.7266 573.951 31.7882 581.515 31.8066C594.758 33.0365 608.052 44.3265 616.943 53.5722C617.617 54.2976 618.272 55.0019 618.926 55.706C623.699 60.8266 628.278 66.0708 632.592 71.5859C633.195 72.3667 633.78 73.1249 634.365 73.8828C642.83 84.5056 650.227 96.4436 654.059 109.546C654.308 110.445 654.551 111.317 654.793 112.189C657.696 122.416 660.141 132.72 662.389 143.108C662.828 145.139 663.268 147.169 663.712 149.198C664.932 154.765 666.146 160.334 667.352 165.904C668.25 170.053 669.15 174.202 670.055 178.35C679.07 219.634 689.369 261.069 694.619 303.024C694.701 303.689 694.78 304.334 694.859 304.978C695.01 306.186 695.157 307.358 695.304 308.53C695.659 311.59 695.659 311.59 696.123 313.82C698.144 314.831 698.144 314.832 703.058 315.802C704.518 316.084 705.977 316.37 707.436 316.657C708.229 316.814 709 316.965 709.771 317.117C745.073 324.033 779.907 331.864 813.659 344.567C814.708 344.967 815.727 345.356 816.744 345.744C832.046 351.552 849.988 358.641 857.273 374.486C860.173 382.644 859.436 391.391 855.967 399.253C836.603 434.954 791.013 453.621 755.152 467.514C748.449 470.107 741.795 472.796 735.176 475.597C735.13 478.207 735.225 480.371 735.772 482.941C739.54 499.615 739.361 518.949 736.712 535.797C736.37 537.658 736.033 539.521 735.715 541.387C730.955 569.39 721.965 597.923 705.386 621.323C705.016 621.836 704.656 622.334 704.297 622.831C691.894 640.004 676.54 654.111 655.191 657.84C653.847 658.06 653.846 658.06 652.53 658.276C651.881 665.566 651.489 672.769 651.621 680.089C651.7 680.122 651.776 680.155 651.849 680.186C649.665 697.482 646.741 720.053 645.5 727.5C643.5 739.5 597.5 802.5 583.5 814C569.5 825.5 544.5 863.5 533.5 877C522.5 890.5 456.501 890.5 441 891C425.5 891.5 378 880 358.5 873.5C339 867 260.501 734.5 255 721.5C249.5 708.5 253.5 714 250 667L249.924 667.016C249.776 664.47 249.562 661.326 249.287 657.367C237.319 656.271 227.641 653.643 217.823 646.333C217.096 645.758 216.39 645.201 215.684 644.643C188.867 623.48 173.315 587.778 166.219 555.16C165.974 553.993 165.973 553.992 165.733 552.849C162.926 539.829 161.776 526.995 161.71 513.702C161.708 512.933 161.705 512.186 161.702 511.439C161.636 502.856 161.908 494.64 163.544 486.193C164.222 483.029 164.806 479.969 164.888 476.721C163.637 474.103 163.637 474.102 159.016 472.303C158.302 472.046 157.609 471.798 156.916 471.549C155.44 470.984 153.963 470.419 152.486 469.855C149.301 468.677 146.122 467.485 142.951 466.268C141.371 465.66 139.79 465.053 138.21 464.445C124.862 459.35 111.805 453.653 99.3606 446.603C98.7681 446.264 98.1925 445.934 97.6174 445.604C92.8177 442.853 88.0809 440.014 83.4241 437.025C67.0885 426.267 45.6174 411.494 41.3088 391.073C40.5645 382.781 41.499 374.212 46.3538 367.229C110.748 328.928 110.749 328.928 187.87 317.683C188.983 317.497 190.064 317.316 191.144 317.136C192.18 316.96 193.186 316.789 194.192 316.618C197.655 316.046 200.655 315.222 203.877 313.82C204.373 309.049 204.952 304.321 205.741 299.59C205.865 298.865 205.985 298.161 206.105 297.457C206.504 295.088 206.905 292.718 207.31 290.35C207.525 289.093 207.526 289.093 207.738 287.861C209.756 276.06 211.856 264.299 214.389 252.597C215.715 246.48 215.715 246.479 218.452 233.023C221.952 215.811 225.5 198.609 229.093 181.416C230.851 173.009 232.614 164.602 234.309 156.183C241.96 118.098 251.861 83.4266 280.848 55.7627C282.301 54.3945 283.751 53.0253 285.179 51.6298C291.971 44.9588 299.063 39.3887 307.412 34.8017Z" fill="black"/>
<path d="M267.451 390.164C277.461 391.508 287.466 392.88 297.457 394.357C330.321 399.2 363.268 403.395 396.359 406.353C397.491 406.455 398.622 406.556 399.788 406.661C416.051 408.033 432.321 408.531 448.638 408.512C449.515 408.511 450.392 408.51 451.295 408.51C480.126 408.461 508.585 406.415 537.187 402.888C538.208 402.762 539.228 402.637 540.279 402.507C566.522 399.262 592.757 395.947 618.865 391.734C619.534 391.626 620.203 391.519 620.892 391.408C622.644 391.125 624.395 390.838 626.146 390.549C628.916 390.164 628.916 390.164 632.549 390.164C631.774 401.133 631.774 401.133 631.13 405.217C629.966 414.364 630.967 421.426 634.479 429.926C635.233 431.84 635.988 433.754 636.742 435.667C637.298 437.049 637.298 437.049 637.866 438.458C639.256 441.936 640.562 445.442 641.858 448.956C642.427 450.479 642.427 450.479 643.007 452.034C643.206 452.578 643.404 453.123 643.608 453.683C644.179 455.15 644.809 456.593 645.463 458.025C648.953 466.066 649.528 473.303 649.404 481.919C649.4 483.297 649.398 484.674 649.397 486.052C649.392 488.928 649.371 491.804 649.339 494.679C649.298 498.296 649.284 501.911 649.281 505.528C649.264 518.451 649.144 531.355 648.109 544.243C648.043 545.068 647.978 545.893 647.911 546.743C646.362 563.374 640.541 578.763 633.457 593.747C633.165 594.37 632.872 594.993 632.571 595.635C628.296 604.659 623.453 613.388 618.683 622.155C609.856 637.8 609.856 637.8 605.189 654.981C605.037 656.113 604.885 657.245 604.728 658.411C604.618 659.266 604.508 660.121 604.394 661.003C604.646 660.126 604.646 660.126 604.902 659.231C607.355 651.584 611.444 645.548 616.201 639.19C616.565 638.695 616.928 638.2 617.303 637.691C622.813 630.196 628.718 623.076 635.273 616.469C635.573 616.469 635.873 616.469 636.182 616.469C636.416 626.224 635.689 635.888 634.99 645.609C634.801 648.263 634.614 650.917 634.427 653.57C634.298 655.398 634.168 657.225 634.038 659.052C633.648 664.55 633.28 670.048 632.934 675.549C632.713 679.062 632.485 682.574 632.256 686.086C632.15 687.745 632.047 689.405 631.947 691.065C630.041 722.656 616.378 744.742 597.914 769.594C596.229 771.871 594.559 774.158 592.893 776.448C587.702 783.576 582.458 790.549 576.74 797.263C573.409 801.282 570.276 805.444 567.125 809.605C563.82 813.962 560.439 818.245 556.998 822.495C553.556 826.753 550.27 831.08 547.121 835.559C533.421 854.937 520.12 866.13 495.796 870.455C465.455 875.405 433.443 873.159 403.06 869.518C401.311 869.309 399.561 869.111 397.812 868.913C382.625 866.944 371.885 861.518 362.426 849.508C358.955 844.943 355.573 840.311 352.189 835.681C347.767 829.636 343.186 823.738 338.533 817.871C332.316 810.008 326.34 801.976 320.411 793.895C317.013 789.264 313.589 784.654 310.137 780.063C308.793 778.27 307.45 776.476 306.107 774.683C305.125 773.374 304.141 772.068 303.155 770.762C291.953 755.915 281.44 740.743 273.809 723.714C273.428 722.869 273.048 722.024 272.656 721.154C270.403 715.353 269.601 709.412 268.842 703.275C268.725 702.329 268.608 701.383 268.487 700.408C267.161 689.206 266.404 677.967 265.693 666.711C265.464 663.098 265.221 659.486 264.977 655.874C264.111 642.719 263.58 629.652 263.818 616.469C264.837 617.335 265.854 618.202 266.87 619.07C267.437 619.553 268.004 620.035 268.587 620.533C279.747 630.292 289.319 643.58 294.697 657.367C294.697 640.886 283.222 625.533 275.506 611.614C256.531 577.35 250.58 547.65 250.549 508.802C250.545 505.592 250.519 502.384 250.474 499.175C250.012 465.657 250.012 465.657 256.552 452.054C257.499 450.068 258.345 448.06 259.175 446.023C261.086 441.344 263.067 436.698 265.093 432.068C269.758 421.967 269.758 421.967 270.176 411.068C270.038 410.089 270.038 410.089 269.897 409.09C269.584 407.105 269.211 405.142 268.813 403.172C268.553 401.863 268.298 400.553 268.047 399.242C267.933 398.675 267.819 398.109 267.701 397.525C267.378 395.062 267.414 392.645 267.451 390.164Z" fill="#E08F49"/>
<path d="M628.916 406.523C629.216 406.523 629.515 406.523 629.824 406.523C629.795 407.189 629.766 407.854 629.735 408.54C629.851 419.374 633.896 428.561 637.88 438.487C639.263 441.956 640.565 445.452 641.858 448.956C642.237 449.971 642.616 450.987 643.007 452.034C643.206 452.578 643.404 453.122 643.608 453.683C644.179 455.15 644.809 456.593 645.463 458.025C648.953 466.066 649.528 473.303 649.404 481.919C649.4 483.297 649.398 484.674 649.397 486.052C649.392 488.928 649.371 491.804 649.339 494.679C649.298 498.296 649.284 501.911 649.281 505.528C649.223 548.913 649.223 548.913 644.412 565.175C644.183 566.021 643.954 566.866 643.719 567.737C642.438 572.347 640.902 576.677 638.906 581.023C637.714 577.446 638.686 575.457 639.814 571.935C639.182 572.631 639.182 572.631 638.537 573.341C627.944 584.496 615.867 592.486 601.67 598.292C600.2 598.894 600.2 598.894 598.7 599.509C594.24 601.225 590.084 602.412 585.322 602.836C585.386 603.446 585.45 604.057 585.515 604.686C586.099 610.612 586.375 616.463 586.383 622.415C586.389 623.76 586.389 623.76 586.394 625.131C586.403 628.057 586.403 630.982 586.401 633.907C586.401 634.919 586.401 635.93 586.401 636.972C586.385 658.169 585.659 679.311 584.538 700.477C584.42 702.689 584.307 704.902 584.194 707.114C582.241 744.681 582.241 744.681 575.332 752.797C574.433 753.097 573.534 753.397 572.607 753.706C568.861 744.422 567.025 735.816 566.704 725.815C565.023 676.835 535.582 626.959 500.859 593.747C500.796 595.586 500.796 595.586 501.257 597.425C502.599 603.88 502.903 610.173 502.96 616.753C502.975 617.609 502.991 618.466 503.007 619.349C503.004 624.522 502.56 628.311 499.951 632.828C497.461 634.006 495.296 634.777 492.685 635.555C485.34 638.179 480.134 641.1 474.521 646.461C466.394 653.54 458.925 659.647 447.719 659.426C438.049 658.393 431.804 652.089 425.365 645.35C418.724 638.406 412.976 636.252 403.55 634.472C400.869 633.712 399.823 633.259 398.232 631.01C394.525 618.996 397.378 603.926 400.049 591.93C399.674 592.37 399.299 592.811 398.914 593.265C396.107 596.525 393.26 599.669 390.172 602.666C385.822 606.969 382.018 611.652 378.252 616.469C377.675 617.202 377.098 617.936 376.503 618.691C351.816 651.323 334.501 691.189 331.727 732.035C331.086 741.168 329.827 750.137 328.301 759.159C327.701 759.159 327.102 759.159 326.484 759.159C323.359 752.328 320.868 745.333 318.538 738.198C318.121 736.959 318.121 736.959 317.697 735.695C317.436 734.88 317.175 734.065 316.906 733.225C316.673 732.509 316.44 731.793 316.2 731.055C314.215 722.018 314.552 712.69 314.596 703.488C314.6 702.049 314.603 700.611 314.607 699.172C314.65 684.314 314.814 669.456 315.016 654.6C315.067 650.838 315.112 647.077 315.156 643.315C315.192 640.348 315.231 637.381 315.271 634.414C315.289 633.026 315.306 631.638 315.322 630.25C315.417 621.99 315.741 613.792 316.494 605.562C315.595 605.263 314.696 604.963 313.769 604.654C312.496 603.358 312.496 603.358 311.102 601.643C308.213 598.224 305.147 595.068 301.963 591.93C292.833 582.884 292.833 582.884 290.156 579.206C290.156 578.606 290.156 578.006 290.156 577.388C289.557 577.388 288.957 577.388 288.34 577.388C286.804 575.695 286.804 575.695 285.104 573.469C284.26 572.377 284.26 572.377 283.398 571.264C278.651 564.371 280.673 552.564 282.096 544.612C283.733 536.213 286.451 526.775 291.973 520.13C292.172 520.888 292.371 521.646 292.576 522.427C296.076 534.857 302.595 544.323 313.656 551.315C326.513 558.519 344.033 561.449 358.463 557.404C370.924 552.684 382.274 544.549 392.783 536.49C393.535 535.913 394.286 535.337 395.061 534.743C400.238 530.683 405.091 526.345 409.901 521.863C411.855 520.13 411.855 520.13 412.764 520.13C414.758 531.95 415.52 543.86 416.396 555.803C416.547 557.822 416.699 559.841 416.851 561.859C417.153 565.895 417.455 569.931 417.755 573.967C417.83 574.972 417.905 575.976 417.982 577.011C418.14 579.13 418.297 581.248 418.455 583.367C418.694 586.577 418.935 589.786 419.178 592.995C419.286 594.453 419.286 594.453 419.396 595.94C419.779 600.989 420.259 605.998 420.937 611.016C421.537 611.016 422.136 611.016 422.754 611.016C422.938 609.271 422.938 609.271 423.126 607.49C423.46 604.482 423.842 601.488 424.283 598.494C426.07 586.328 427.222 574.179 428.026 561.909C428.178 559.589 428.345 557.27 428.515 554.951C429.195 544.802 429.228 534.632 429.27 524.464C429.278 522.793 429.288 521.122 429.301 519.451C429.317 517.083 429.321 514.716 429.321 512.348C429.327 511.629 429.334 510.911 429.34 510.17C429.326 506.631 429.13 504.093 427.295 501.044C427.451 498.918 427.451 498.918 427.976 496.557C428.156 495.663 428.337 494.769 428.522 493.848C428.814 492.461 428.814 492.461 429.111 491.047C430.694 483.474 431.092 476.217 431.098 468.496C431.099 467.606 431.099 466.717 431.1 465.8C431.062 460.808 430.75 455.996 430.019 451.057C429.12 451.357 428.221 451.657 427.295 451.966C426.325 454.506 425.507 456.977 424.741 459.578C418.862 478.301 418.862 478.301 411.855 482.867C403.781 482.72 396.28 479.773 388.696 477.244C387.228 476.76 385.76 476.278 384.292 475.795C370.515 471.253 356.788 466.56 343.071 461.84C340.284 460.881 337.496 459.924 334.707 458.968C332.964 458.37 331.221 457.771 329.479 457.171C328.511 456.842 327.542 456.512 326.545 456.173C325.73 455.895 324.916 455.617 324.077 455.33C315.101 452.649 307.457 457.296 299.579 461.396C298.567 461.883 297.556 462.37 296.514 462.872C295.914 462.572 295.315 462.273 294.697 461.964C296.851 460.784 299.009 459.611 301.168 458.442C301.772 458.11 302.376 457.779 302.999 457.437C307.975 454.752 312.522 452.534 318.31 452.875C318.444 452.116 318.444 452.116 318.58 451.341C319.593 446.167 321.237 442.053 323.76 437.424C328.146 437.307 332.023 437.68 336.304 438.617C350.282 441.568 364.354 443.494 378.536 445.15C381.654 445.516 384.773 445.886 387.891 446.257C388.668 446.349 389.445 446.44 390.245 446.533C394.182 447.004 398.1 447.529 402.014 448.163C412.941 449.918 423.534 450.524 434.598 450.404C437.249 450.375 439.9 450.367 442.552 450.361C451.732 450.323 460.833 450.08 469.98 449.24C469.91 450.118 469.84 450.996 469.768 451.901C468.545 467.731 468.401 482.639 473.046 497.977C473.613 501.044 473.613 501.044 472.307 503.555C470.658 506.976 470.554 509.239 470.565 513.022C470.562 513.966 470.562 513.966 470.559 514.928C470.557 516.992 470.573 519.056 470.591 521.121C470.593 522.565 470.595 524.009 470.596 525.453C470.6 528.474 470.613 531.496 470.633 534.517C470.659 538.378 470.669 542.238 470.673 546.099C470.678 549.796 470.691 553.494 470.704 557.191C470.706 557.89 470.708 558.59 470.709 559.31C470.716 561.304 470.728 563.298 470.742 565.292C470.748 566.424 470.755 567.556 470.761 568.722C470.637 574.354 470.637 574.354 472.705 579.206C476.306 565.843 479.645 552.455 482.582 538.932C482.719 538.303 482.856 537.674 482.997 537.027C484.216 531.409 485.42 525.808 486.328 520.13C489.764 521.589 492.308 523.876 495.07 526.322C501.79 532.14 508.945 537.285 516.206 542.402C517.911 543.615 519.595 544.852 521.273 546.104C528.568 551.429 536.115 554.971 544.453 558.302C543.533 557.283 543.533 557.283 541.987 556.63C526.319 548.887 517.986 532.027 509.402 517.595C509.002 516.923 508.602 516.251 508.191 515.559C507.217 513.768 507.217 513.768 506.309 511.042C512.267 508.519 518.079 507.404 524.473 506.497C524.661 507.221 524.85 507.945 525.044 508.691C526.862 514.949 528.574 519.587 534.463 522.857C540.176 524.79 547.396 524.579 553.081 522.686C558.064 520.104 559.72 517.295 561.482 512.121C561.864 510.853 562.243 509.585 562.617 508.315C570.002 507.794 576.147 509.31 583.165 511.496C593.455 515.06 593.455 515.06 603.94 513.768C604.615 513.318 604.615 513.318 605.303 512.859C605.496 510.278 605.496 510.278 604.394 507.406C598.85 502.811 591.065 500.775 584.414 498.318C583.741 498.014 583.068 497.711 582.374 497.398C578.514 496.012 574.529 495.337 570.507 494.569C569.661 494.403 568.815 494.238 567.944 494.068C565.866 493.663 563.788 493.262 561.709 492.865C564.681 490.882 567.271 490.065 570.677 489.002C576.377 487.197 581.589 484.915 586.873 482.083C594.635 479.401 601.488 481.493 608.935 484.23C610.619 484.829 612.303 485.425 613.987 486.02C615.085 486.42 615.085 486.42 616.205 486.827C617.988 487.504 617.988 487.504 619.834 487.411C620.471 486.13 621.093 484.841 621.707 483.549C622.055 482.832 622.402 482.115 622.761 481.376C623.578 478.895 623.449 478.013 622.559 475.596C621.322 474.249 621.322 474.249 619.699 473.143C619.094 472.704 618.488 472.265 617.865 471.813C617.203 471.356 616.542 470.898 615.861 470.427C615.179 469.951 614.497 469.475 613.794 468.985C602.884 461.593 589.782 454.045 576.24 454.693C573.242 455.425 573.242 455.425 570.195 456.557C569.328 456.859 569.328 456.859 568.443 457.168C567.175 457.612 565.909 458.06 564.644 458.513C562.536 459.266 560.424 460.006 558.31 460.744C555.192 461.833 552.075 462.926 548.96 464.024C535.773 468.667 522.58 473.293 509.289 477.626C507.55 478.193 505.814 478.766 504.077 479.339C493.408 482.776 493.408 482.776 488.144 482.867C481.264 479.236 477.922 468.007 475.43 461.055C474.045 456.547 472.705 452.159 472.705 447.422C473.27 447.262 473.835 447.103 474.418 446.939C484.201 444.166 493.951 441.366 503.527 437.936C535.649 426.488 567.972 420.424 601.728 415.869C603.185 415.656 604.633 415.381 606.076 415.09C610.468 414.496 614.841 414.609 619.266 414.646C620.659 414.652 620.659 414.652 622.08 414.659C624.358 414.669 626.637 414.684 628.916 414.703C628.916 412.004 628.916 409.305 628.916 406.523Z" fill="#FFCEA3"/>
<path d="M639.815 571.026C641.425 574.249 639.852 577.683 638.906 581.023C637.863 584.018 636.652 586.921 635.387 589.828C634.857 591.056 634.857 591.056 634.316 592.308C629.458 603.295 623.534 613.733 617.514 624.116C610.639 636.004 605.634 647.125 604.395 661.002C604.562 660.418 604.729 659.833 604.902 659.231C607.355 651.584 611.444 645.548 616.201 639.19C616.565 638.695 616.928 638.2 617.303 637.69C622.813 630.196 628.718 623.076 635.274 616.469C635.573 616.469 635.873 616.469 636.182 616.469C636.416 626.224 635.689 635.887 634.99 645.609C634.802 648.263 634.614 650.916 634.427 653.57C634.298 655.397 634.168 657.225 634.038 659.052C633.648 664.55 633.28 670.048 632.934 675.549C632.713 679.061 632.485 682.573 632.256 686.086C632.15 687.745 632.047 689.405 631.947 691.065C630.041 722.656 616.378 744.741 597.914 769.594C596.23 771.871 594.559 774.158 592.893 776.448C587.702 783.576 582.458 790.549 576.741 797.263C573.409 801.282 570.276 805.444 567.125 809.605C563.82 813.962 560.439 818.245 556.998 822.494C553.556 826.753 550.27 831.08 547.121 835.559C532.877 855.707 532.877 855.707 523.565 860.95C522.743 861.418 521.921 861.885 521.074 862.367C516.672 864.723 516.672 864.723 514.482 865.495C513.583 865.195 512.684 864.895 511.758 864.586C514.755 863.086 517.752 861.587 520.84 860.041C513.97 860.429 507.603 861.585 500.954 863.259C480.737 868.321 458.852 866.445 438.193 865.495C438.341 864.955 438.489 864.416 438.642 863.861C439.27 861.124 439.186 858.528 439.158 855.724C439.15 854.661 439.142 853.597 439.134 852.501C439.123 851.69 439.112 850.879 439.102 850.044C437.772 853.69 437 856.968 436.718 860.837C436.65 861.715 436.582 862.594 436.512 863.499C436.445 864.487 436.445 864.487 436.377 865.495C436.077 864.895 435.778 864.295 435.469 863.677C433.675 863.244 433.675 863.244 431.439 862.995C425.695 862.068 420.385 860.264 414.917 858.333C411.166 857.022 407.629 856.077 403.682 855.497C403.082 855.197 402.483 854.897 401.865 854.588C402.577 853.876 403.289 853.164 404.022 852.43C407.122 848.775 407.609 844.684 408.223 840.047C404.815 844.776 402.177 848.851 400.957 854.588C400.735 854.081 400.512 853.574 400.283 853.051C398.923 850.553 397.252 848.619 395.394 846.465C386.402 835.543 380.296 824.156 378.252 810.055C379.151 810.354 380.05 810.654 380.977 810.963C380.358 810.364 379.74 809.764 379.103 809.146C378.21 808.241 377.321 807.332 376.436 806.419C375.953 805.922 375.471 805.426 374.974 804.914C366.381 795.605 361.017 784.087 355.547 772.791C355.198 772.183 354.849 771.575 354.49 770.949C349.572 759.336 352.446 741.636 356.452 730.224C360.535 720.808 369.723 715.539 378.932 711.791C381.624 710.812 384.329 709.896 387.05 709.001C387.946 708.69 388.843 708.379 389.766 708.059C400.341 704.536 410.274 703.571 421.335 703.765C422.259 703.781 423.183 703.797 424.135 703.814C427.985 703.889 431.834 703.973 435.683 704.099C438.526 704.187 441.367 704.234 444.21 704.276C445.509 704.334 445.509 704.334 446.834 704.393C451.433 704.465 451.433 704.465 455.362 702.342C456.744 700.741 457.923 699.123 459.082 697.357C460.214 696.01 461.349 694.665 462.488 693.324C463.008 692.706 463.527 692.089 464.063 691.453C465.44 690.086 465.44 690.086 467.256 690.086C467.546 689.348 467.546 689.348 467.841 688.595C469.518 685.675 471.833 683.537 474.238 681.224C477.974 677.566 481.543 673.856 484.934 669.871C487.095 667.394 489.426 665.116 491.777 662.82C486.252 662.64 486.252 662.64 480.879 663.729C482.971 661.402 485.061 660.106 487.85 658.709C488.677 658.287 489.504 657.865 490.357 657.431C492.087 656.561 493.818 655.692 495.55 654.825C501.497 651.789 506.826 648.814 510.679 643.166C511.222 642.389 511.222 642.389 511.776 641.597C512.819 639.963 512.819 639.963 513.574 637.372C522.233 640.994 528.258 651.805 533.555 659.185C533.956 659.736 534.356 660.287 534.769 660.854C550.096 682.003 558.38 706.25 566.25 730.984C566.613 732.114 566.976 733.243 567.35 734.407C569.357 740.781 571.062 747.204 572.607 753.706C583.525 743.91 582.331 724.549 583.077 711.046C583.184 709.024 583.289 707.001 583.393 704.979C583.51 702.722 583.634 700.465 583.758 698.209C585.484 666.411 585.533 634.668 585.322 602.836C586.577 602.496 586.577 602.496 587.856 602.148C607.826 596.609 625.617 586.248 639.815 571.026Z" fill="#D4AF90"/>
<path d="M590.771 55.7057C604.565 65.5623 615.405 78.4273 625.283 92.0598C625.951 92.9654 626.618 93.8711 627.305 94.8041C632.881 102.533 635.949 109.931 638.339 119.155C638.749 120.711 638.749 120.711 639.167 122.299C641.828 132.541 644.115 142.856 646.343 153.199C647.12 156.772 647.915 160.341 648.716 163.909C652.274 179.778 655.729 195.667 659.114 211.574C659.398 212.907 659.398 212.907 659.687 214.266C661.67 223.576 663.625 232.891 665.514 242.22C665.67 242.985 665.827 243.75 665.989 244.539C666.558 247.378 667.061 250.023 667.061 252.927C666.474 252.813 665.887 252.699 665.282 252.582C660.246 251.606 655.209 250.637 650.17 249.675C646.071 248.892 641.978 248.089 637.888 247.261C560.536 231.864 481.29 231.742 402.773 231.115C402.773 230.815 402.773 230.515 402.773 230.206C408.768 230.206 414.762 230.206 420.938 230.206C420.909 228.131 420.881 226.056 420.852 223.918C420.816 216.569 421.405 209.35 422.103 202.04C427.673 156.78 427.673 156.78 416.411 114.21C412.834 109.999 408.614 106.605 404.266 103.225C402.063 101.502 399.926 99.7012 397.778 97.9106C388.211 90.1236 378.361 82.7778 368.262 75.7004C367.378 75.0794 367.378 75.0794 366.475 74.4459C359.243 69.3784 351.964 64.5032 344.35 60.0263C342.001 58.4831 340.192 56.8573 338.291 54.7968C344.264 55.3523 349.701 56.7512 355.433 58.489C356.957 58.9439 356.957 58.9439 358.511 59.4079C366.076 61.6937 373.6 64.1009 381.118 66.5338C382.099 66.8506 383.08 67.1674 384.091 67.4937C389.033 69.0905 393.972 70.6955 398.906 72.3155C426.236 81.2237 450.655 86.3097 479.062 79.3359C479.898 79.131 480.733 78.9261 481.594 78.715C494.436 75.4798 506.918 71.2808 519.411 66.9252C529.027 63.5739 538.672 60.39 548.427 57.4666C549.504 57.1416 550.581 56.8166 551.691 56.4818C579.362 48.2919 579.362 48.2919 590.771 55.7057Z" fill="#B9883A"/>
<path d="M340.188 318.206C343.461 318.202 346.733 318.193 350.006 318.186C357.883 318.168 365.759 318.159 373.636 318.15C376.623 318.147 379.609 318.143 382.595 318.14C395.826 318.123 409.058 318.109 422.29 318.102C425.515 318.1 428.74 318.098 431.965 318.096C432.767 318.096 433.568 318.095 434.393 318.095C447.303 318.087 460.212 318.065 473.121 318.035C486.47 318.005 499.818 317.988 513.167 317.986C520.623 317.984 528.079 317.976 535.534 317.952C569.244 317.85 602.614 318.445 636.182 322C637.048 322.091 637.915 322.183 638.808 322.277C691.593 327.869 743.546 337.736 794.209 353.81C794.209 354.11 794.209 354.41 794.209 354.719C793.607 354.727 793.005 354.736 792.385 354.744C738.517 355.67 685.58 364.205 632.531 372.806C552.425 385.791 472.236 397.609 346.465 383.802C345.447 383.667 344.429 383.531 343.38 383.391C318.615 380.09 293.914 376.487 269.268 372.385C222.312 364.57 175.196 357.576 127.588 355.628C126.973 355.602 126.358 355.576 125.725 355.55C118.173 355.236 110.621 354.955 103.066 354.719C105.737 352.046 109.041 351.638 112.606 350.728C113.388 350.524 114.171 350.319 114.977 350.108C117.533 349.442 120.091 348.785 122.65 348.13C124.415 347.673 126.18 347.217 127.944 346.76C132.969 345.463 137.998 344.181 143.027 342.904C143.645 342.747 144.262 342.589 144.898 342.427C173.343 335.192 202.086 329.835 231.123 325.635C232.116 325.49 233.11 325.345 234.133 325.196C248.165 323.2 262.3 322.141 276.42 320.978C277.373 320.899 278.327 320.82 279.309 320.739C282.109 320.51 284.908 320.285 287.708 320.062C288.521 319.995 289.333 319.929 290.17 319.861C292.889 319.648 295.609 319.459 298.33 319.273C299.451 319.197 300.573 319.121 301.728 319.042C314.544 318.239 327.351 318.216 340.188 318.206Z" fill="#BA883A"/>
<path d="M338.291 53.8881C338.291 54.4879 338.291 55.0878 338.291 55.7058C338.965 55.7808 339.64 55.8557 340.334 55.933C343.365 56.7602 344.272 58.0398 346.465 60.25C347.932 61.2574 349.43 62.2209 350.949 63.147C360.352 69.0106 369.339 75.4847 378.252 82.0625C379.49 82.9658 379.49 82.9658 380.753 83.8874C387.668 88.9905 394.293 94.4069 400.893 99.9095C403.103 101.749 405.327 103.558 407.605 105.313C416.759 112.439 420.548 118.881 422.754 130.232C422.918 131.068 423.081 131.904 423.25 132.766C424.789 141.61 424.926 150.31 424.911 159.258C424.912 160.075 424.914 160.892 424.915 161.733C424.911 184.621 422.901 207.418 420.938 230.206C418.54 230.506 416.142 230.806 413.672 231.115C413.672 231.415 413.672 231.714 413.672 232.023C413.157 232.032 412.643 232.04 412.113 232.049C355.206 233.183 296.554 239.414 240.903 251.501C238.258 252.045 235.606 252.498 232.939 252.927C233.524 244.527 235.319 236.471 237.14 228.274C237.47 226.768 237.8 225.262 238.13 223.756C238.963 219.951 239.802 216.147 240.643 212.343C241.594 208.031 242.537 203.717 243.481 199.403C243.988 197.084 244.496 194.767 245.006 192.449C246.514 185.579 247.986 178.703 249.429 171.819C252.573 156.855 255.75 141.918 259.561 127.108C259.846 125.995 260.13 124.883 260.423 123.736C263.39 112.454 266.948 103.343 273.809 93.8777C274.202 93.3232 274.596 92.7688 275.002 92.1975C290.569 70.3213 309.046 45.4402 338.291 53.8881Z" fill="#865E24"/>
<path d="M499.043 590.112C500.859 591.021 500.859 591.021 501.973 592.995C504.024 596.268 506.584 598.603 509.374 601.245C537.769 629.007 566.058 677.518 567.227 717.894C567.247 720.44 567.238 722.985 567.215 725.531C567.211 726.409 567.207 727.286 567.203 728.19C567.192 730.333 567.177 732.476 567.158 734.62C565.695 731.876 564.689 729.153 563.76 726.188C560.114 714.774 556.194 703.56 551.662 692.472C551.235 691.41 550.809 690.349 550.369 689.255C545.655 677.919 539.126 668.052 531.738 658.276C531.38 657.798 531.021 657.319 530.652 656.827C523.298 645.72 523.298 645.72 513.574 637.372C513.478 637.891 513.382 638.41 513.283 638.945C510.226 649.162 499.382 653.921 490.757 658.579C488.08 660.012 485.39 661.419 482.695 662.82C483.295 662.52 483.894 662.22 484.512 661.911C487.237 661.788 489.958 661.872 492.686 661.911C488.013 667.464 483.083 672.726 478.083 677.983C475.177 681.053 472.337 684.131 469.64 687.388C468.853 688.278 468.066 689.168 467.256 690.086C466.656 690.086 466.057 690.086 465.439 690.086C465.236 690.587 465.032 691.089 464.822 691.605C463.256 694.368 461.239 696.279 458.969 698.493C458.142 699.303 457.315 700.114 456.464 700.949C455.829 701.563 455.195 702.177 454.541 702.81C455.44 703.41 456.339 704.009 457.266 704.627C456.72 704.621 456.174 704.615 455.611 704.609C449.849 704.548 444.087 704.507 438.324 704.478C436.183 704.464 434.042 704.446 431.901 704.422C414.117 704.229 398.653 705.617 381.885 711.898C380.44 712.417 380.44 712.417 378.965 712.946C370.903 716.029 362.58 720.079 358.272 727.917C354.671 736.552 353.502 745.177 353.447 754.444C353.442 755.149 353.437 755.854 353.431 756.581C353.53 764.462 355.232 771.117 358.896 778.074C359.378 779.01 359.378 779.01 359.87 779.965C364.065 788.036 368.368 795.81 374.183 802.84C375.527 804.601 375.527 804.601 376.503 806.586C377.6 808.74 378.832 809.048 380.977 810.055C381.576 810.954 382.175 811.854 382.793 812.781C381.594 812.481 380.395 812.181 379.16 811.872C383.59 827.077 389.595 838.857 400.049 850.953C401.099 849.376 402.144 847.795 403.171 846.203C403.639 845.483 404.107 844.764 404.59 844.023C405.058 843.299 405.526 842.575 406.009 841.829C407.314 840.047 407.314 840.047 409.131 839.138C408.356 845.645 407.538 849.946 402.773 854.588C403.659 854.684 404.544 854.781 405.456 854.88C409.509 855.46 413.227 856.755 417.078 858.11C423.156 860.198 429.232 862.11 435.469 863.677C435.568 862.856 435.668 862.034 435.77 861.188C435.914 860.116 436.058 859.044 436.207 857.94C436.412 856.342 436.412 856.342 436.622 854.713C437.284 851.867 437.732 850.865 440.01 849.135C440.01 854.285 440.01 859.436 440.01 864.586C464.507 865.809 488.161 866.184 512.035 859.931C515.813 859.032 518.808 858.995 522.656 859.133C519.566 861.63 515.859 864.586 511.758 864.586C511.758 865.186 511.758 865.785 511.758 866.404C477.636 877.341 438.134 873.72 403.06 869.518C401.311 869.309 399.561 869.111 397.812 868.913C382.625 866.944 371.885 861.518 362.426 849.508C358.955 844.943 355.573 840.311 352.189 835.68C347.767 829.636 343.186 823.737 338.533 817.871C332.316 810.008 326.341 801.976 320.411 793.895C317.013 789.264 313.589 784.653 310.137 780.062C308.793 778.269 307.45 776.476 306.107 774.682C305.125 773.374 304.141 772.067 303.155 770.762C291.953 755.914 281.44 740.743 273.809 723.713C273.428 722.869 273.048 722.024 272.656 721.154C270.403 715.353 269.601 709.411 268.842 703.275C268.725 702.329 268.608 701.383 268.487 700.408C267.161 689.206 266.405 677.967 265.694 666.711C265.464 663.098 265.221 659.486 264.977 655.874C264.112 642.719 263.58 629.652 263.818 616.469C264.837 617.335 265.854 618.202 266.871 619.07C267.437 619.552 268.004 620.035 268.587 620.533C280.086 630.588 293.039 646.47 295.606 661.911C296.205 661.911 296.804 661.911 297.422 661.911C297.618 662.826 297.815 663.741 298.017 664.684C298.763 668.155 299.519 671.623 300.277 675.091C300.6 676.578 300.922 678.066 301.241 679.554C303.402 689.627 306.003 699.385 309.229 709.172C309.816 711.027 310.403 712.883 310.988 714.738C312.258 718.545 313.765 722.158 315.416 725.815C319.067 734.118 321.465 742.809 324.01 751.501C324.778 754.074 325.61 756.62 326.484 759.159C327.084 759.159 327.683 759.159 328.301 759.159C329.259 750.125 330.129 741.099 330.755 732.035C332.366 709.106 337.589 689.264 347.374 668.402C348.26 666.501 349.12 664.59 349.974 662.675C358.941 642.779 370.27 624.714 384.609 608.289C385.201 607.595 385.792 606.902 386.401 606.187C390.139 601.825 394.134 597.769 398.232 593.747C399.142 592.839 400.05 591.931 400.957 591.021C400.76 591.97 400.564 592.919 400.361 593.896C398.791 601.994 397.96 609.859 397.949 618.116C397.944 618.967 397.939 619.817 397.934 620.694C397.916 626.563 397.916 626.563 400.049 631.919C401.719 632.951 401.719 632.951 403.738 633.396C404.467 633.606 405.195 633.815 405.945 634.031C407.073 634.336 407.073 634.336 408.223 634.646C409.646 635.068 411.065 635.503 412.48 635.952C413.102 636.138 413.723 636.325 414.364 636.517C419.84 638.822 423.551 642.616 427.522 646.858C433.456 653.013 440.281 658.311 449.205 658.503C458.934 658.33 465.267 653.663 472.13 647.146C479.453 640.204 487.168 635.679 497.173 633.854C499.574 632.536 500.339 630.954 501.279 628.425C502.228 624.619 502.165 620.826 502.108 616.923C502.103 616.046 502.098 615.168 502.092 614.265C501.975 607.754 501.156 601.704 499.639 595.384C499.043 592.838 499.043 592.838 499.043 590.112Z" fill="#B88F6C"/>
<path d="M428.04 703.445C429.668 703.442 431.297 703.438 432.925 703.433C436.322 703.427 439.718 703.427 443.115 703.432C447.413 703.437 451.711 703.421 456.01 703.4C459.37 703.387 462.73 703.386 466.09 703.389C467.672 703.389 469.254 703.384 470.836 703.375C487.528 703.289 503.274 705.364 519.024 710.989C519.87 711.268 520.716 711.547 521.588 711.834C530.42 714.97 540.159 721.221 544.347 729.924C546.644 736.212 546.757 742.289 546.724 748.934C546.719 750.671 546.719 750.671 546.714 752.442C546.332 774.501 539.341 793.228 523.444 808.663C517.796 813.653 517.796 813.653 514.167 813.743C506.904 813.245 500.038 811.309 493.049 809.382C478.887 805.631 464.998 805.194 450.431 805.223C447.46 805.226 444.49 805.205 441.519 805.182C426.879 805.136 412.251 805.739 398.46 811.134C387.91 815.164 387.91 815.164 382.655 812.816C369.762 802.596 362.572 787.297 355.547 772.791C355.024 771.879 355.024 771.879 354.49 770.949C349.572 759.336 352.446 741.635 356.452 730.224C360.535 720.808 369.723 715.539 378.932 711.791C381.624 710.812 384.329 709.896 387.05 709.001C387.946 708.69 388.843 708.379 389.766 708.059C402.407 703.847 414.867 703.433 428.04 703.445Z" fill="#FFCEA3"/>
<path d="M344.478 318.272C348.199 318.278 351.92 318.279 355.641 318.28C362.659 318.283 369.677 318.29 376.694 318.299C386.198 318.311 395.701 318.316 405.205 318.321C420.136 318.33 435.068 318.348 450 318.365C450 342.658 450 366.952 450 391.982C437.055 391.982 424.381 391.925 411.515 390.959C410.32 390.872 410.32 390.872 409.101 390.783C388.132 389.228 367.301 386.589 346.465 383.802C345.447 383.667 344.429 383.531 343.38 383.392C318.615 380.09 293.914 376.487 269.268 372.385C222.312 364.571 175.196 357.576 127.588 355.628C126.973 355.602 126.358 355.576 125.725 355.55C118.173 355.236 110.621 354.955 103.066 354.719C105.737 352.046 109.041 351.638 112.606 350.728C113.388 350.524 114.171 350.319 114.977 350.108C117.533 349.442 120.091 348.785 122.65 348.13C124.415 347.673 126.18 347.217 127.944 346.76C132.969 345.463 137.998 344.181 143.027 342.904C143.645 342.747 144.262 342.589 144.898 342.428C173.343 335.192 202.086 329.835 231.123 325.635C232.116 325.491 233.11 325.346 234.133 325.196C248.165 323.2 262.3 322.141 276.42 320.978C277.373 320.899 278.327 320.82 279.309 320.739C282.109 320.51 284.908 320.285 287.708 320.062C288.521 319.995 289.333 319.929 290.17 319.861C292.889 319.648 295.609 319.458 298.33 319.274C299.456 319.192 300.581 319.11 301.74 319.026C315.969 318.08 330.226 318.247 344.478 318.272Z" fill="#9D6E2C"/>
<path d="M491.437 231.342C492.167 231.362 492.897 231.383 493.649 231.404C511.535 231.921 529.353 233.224 547.178 234.75C548.365 234.851 548.365 234.851 549.577 234.954C572.796 236.93 595.864 239.586 618.926 242.93C618.326 243.23 617.727 243.53 617.109 243.839C617.223 244.698 617.337 245.558 617.454 246.443C620.693 270.989 623.532 295.568 626.191 320.182C622.672 320.209 619.153 320.225 615.634 320.239C614.169 320.251 614.169 320.251 612.675 320.262C607.603 320.277 602.596 320.15 597.541 319.733C591.01 319.25 584.517 319.124 577.97 319.101C576.748 319.094 575.526 319.086 574.304 319.078C571.7 319.062 569.096 319.049 566.492 319.037C562.359 319.018 558.226 318.993 554.094 318.967C545.317 318.913 536.541 318.866 527.765 318.819C518.291 318.769 508.818 318.717 499.344 318.658C495.251 318.632 491.159 318.611 487.066 318.592C484.502 318.58 481.938 318.564 479.374 318.548C477.653 318.537 475.931 318.531 474.209 318.525C466.082 318.467 458.147 317.965 450 317.456C450 289.263 450 261.07 450 232.024C478.898 230.952 478.898 230.952 491.437 231.342Z" fill="#3F271D"/>
<path d="M430.02 451.057C431.742 456.886 432.153 462.205 432.12 468.269C432.118 469.182 432.116 470.096 432.114 471.038C432.006 479.177 430.778 486.732 429.111 494.682C428.074 498.762 428.074 498.762 429.081 502.599C430.448 505.628 430.278 508.606 430.261 511.869C430.263 512.584 430.266 513.299 430.269 514.036C430.272 516.39 430.261 518.742 430.247 521.096C430.244 521.905 430.242 522.713 430.239 523.547C430.021 583.577 430.021 583.577 422.754 611.015C422.155 611.015 421.555 611.015 420.938 611.015C418.955 604.339 418.503 597.711 418.014 590.783C417.92 589.514 417.825 588.246 417.73 586.978C417.48 583.643 417.238 580.308 416.997 576.973C416.569 571.048 416.128 565.124 415.687 559.2C415.64 558.566 415.593 557.931 415.544 557.278C414.955 549.352 414.331 541.431 413.587 533.518C413.517 532.762 413.446 532.006 413.374 531.227C413.038 527.784 412.621 524.414 411.856 521.039C411.069 521.882 410.282 522.726 409.472 523.595C404.343 528.717 398.535 533.014 392.783 537.398C392.23 537.826 391.676 538.253 391.106 538.693C380.465 546.891 368.026 556.321 354.639 559.211C353.29 558.761 353.29 558.761 351.914 558.302C352.53 558.003 353.146 557.704 353.78 557.397C367.249 550.508 375.155 540.33 382.8 527.603C384.933 524.15 387.25 520.87 389.654 517.602C391.263 515.275 391.263 515.275 392.783 511.041C387.389 509.842 381.994 508.642 376.436 507.406C375.986 508.924 375.537 510.443 375.073 512.007C373.078 517.483 370.442 520.657 365.537 523.765C359.769 526.331 354.006 525.867 348.061 524.053C343.732 522.214 341.471 519.734 339.029 515.763C338.085 513.211 338.168 511.013 338.291 508.315C329.913 509.108 322.431 510.903 314.531 513.738C306.598 516.472 300.533 516.201 292.881 512.859C292.881 510.133 292.881 510.133 293.959 508.897C306.366 499.372 322.278 495.567 337.383 492.864C334.746 491.105 332.777 490.374 329.777 489.456C325.56 488.112 321.746 486.458 317.8 484.458C306.132 479.021 296.29 483.337 284.888 487.411C283.306 487.996 281.734 488.608 280.166 489.229C279.375 487.818 278.603 486.395 277.839 484.969C277.407 484.178 276.975 483.387 276.53 482.572C275.45 479.669 275.39 478.469 276.533 475.596C285.89 466.317 304.858 454.345 318.045 453.591C321.922 453.647 325.306 454.625 328.925 455.953C329.583 456.183 330.24 456.413 330.917 456.651C332.335 457.149 333.752 457.651 335.167 458.159C338.993 459.53 342.833 460.863 346.671 462.201C347.468 462.48 348.265 462.76 349.087 463.047C357.972 466.149 366.915 469.064 375.868 471.961C377.358 472.444 378.848 472.928 380.338 473.412C383.812 474.538 387.289 475.654 390.768 476.766C392.816 477.425 394.862 478.093 396.907 478.763C398.212 479.185 399.517 479.606 400.822 480.027C401.412 480.223 402.002 480.418 402.61 480.62C405.769 481.629 408.541 482.388 411.856 481.958C419.635 475.188 423.359 463.268 425.926 453.532C426.725 450.818 427.034 451.057 430.02 451.057Z" fill="#23140F"/>
<path d="M470.889 445.604C471.488 445.904 472.087 446.204 472.705 446.513C473.412 449.103 474.038 451.679 474.635 454.295C476.154 460.502 478.053 466.195 480.936 471.904C481.234 472.499 481.532 473.094 481.839 473.708C484.308 478.431 484.308 478.431 488.144 481.958C493.586 481.6 498.423 480.275 503.577 478.561C504.737 478.183 504.737 478.183 505.92 477.798C508.436 476.976 510.948 476.145 513.461 475.312C515.208 474.738 516.955 474.164 518.702 473.591C531.586 469.346 544.399 464.912 557.167 460.332C581.419 451.635 581.419 451.635 596.231 458.233C603.758 461.805 610.801 466.018 617.563 470.882C618.146 471.296 618.728 471.71 619.328 472.137C623.28 475.089 623.28 475.089 624.135 477.408C624.49 480.104 623.433 481.644 622.161 484.003C621.517 485.219 621.517 485.219 620.859 486.46C620.521 487.074 620.182 487.688 619.834 488.32C618.566 487.942 617.298 487.563 616.031 487.184C614.789 486.817 614.789 486.817 613.523 486.442C611.619 485.859 609.724 485.244 607.839 484.603C595.392 480.451 589.02 481.947 577.439 487.429C573.226 489.41 568.959 490.863 564.433 491.956C565.947 492.373 567.461 492.789 568.975 493.205C569.896 493.458 570.817 493.711 571.767 493.972C573.796 494.514 575.839 495.007 577.886 495.477C587.349 497.82 600.089 501.121 606.211 509.224C606.268 511.666 606.268 511.666 605.303 513.768C602.742 515.921 599.893 515.832 596.646 515.803C592.012 515.354 587.602 513.815 583.165 512.462C576.294 510.375 569.81 508.701 562.617 508.315C562.542 509.252 562.467 510.189 562.39 511.155C561.397 516.291 559.475 519.051 555.351 522.232C549.565 525.489 542.617 525.579 536.162 524.287C531.721 522.667 528.748 519.501 526.289 515.586C525.157 512.908 524.291 510.22 523.564 507.406C521.349 507.815 519.136 508.233 516.923 508.656C516.296 508.771 515.669 508.885 515.023 509.004C511.906 509.607 509.894 510.164 507.217 511.95C521.406 539.557 521.406 539.557 545.361 557.393C545.062 557.993 544.762 558.593 544.453 559.211C535.506 555.636 527.561 551.738 519.801 545.924C517.88 544.494 515.938 543.098 513.993 541.701C505.848 535.819 498.022 529.724 490.497 523.066C488.351 521.049 488.351 521.049 486.328 520.13C486.247 521.306 486.166 522.483 486.083 523.694C485.361 530.874 483.66 537.87 482.071 544.896C481.829 545.976 481.829 545.976 481.583 547.077C478.961 558.793 476.055 570.402 472.705 581.932C469.685 576.895 469.865 571.008 469.834 565.292C469.83 564.662 469.825 564.031 469.82 563.382C469.807 561.318 469.801 559.254 469.796 557.191C469.793 556.481 469.791 555.772 469.788 555.041C469.775 551.293 469.766 547.545 469.762 543.796C469.757 539.935 469.735 536.073 469.71 532.211C469.693 529.231 469.688 526.25 469.686 523.269C469.684 521.845 469.676 520.422 469.665 518.998C469.649 517.006 469.651 515.014 469.657 513.022C469.653 511.891 469.65 510.76 469.647 509.594C470.013 506.192 471.148 504.055 472.705 501.044C472.334 498.46 471.882 496.343 471.116 493.887C466.396 477.761 467.848 461.941 470.889 445.604Z" fill="#241510"/>
<path d="M380.977 320.182C378.008 322.163 374.915 323.718 371.724 325.295C371.076 325.617 370.428 325.94 369.761 326.272C367.16 327.566 364.558 328.856 361.955 330.145C347.851 337.132 333.818 344.279 320.127 352.049C312.22 356.524 304.057 360.408 295.836 364.269C291.32 366.393 286.901 368.655 282.525 371.057C275.166 373.958 268.125 372.413 260.555 371.156C259.34 370.962 258.125 370.77 256.91 370.578C254.338 370.17 251.766 369.757 249.195 369.339C242.5 368.252 235.798 367.206 229.097 366.157C228.435 366.054 227.773 365.95 227.09 365.843C215.798 364.073 204.494 362.465 193.149 361.081C192.461 360.996 191.774 360.911 191.066 360.824C175.373 358.901 159.668 357.322 143.879 356.48C142.517 356.404 141.156 356.329 139.794 356.253C127.558 355.584 115.315 355.102 103.066 354.719C105.737 352.046 109.041 351.637 112.606 350.728C113.388 350.524 114.171 350.319 114.977 350.108C117.533 349.442 120.091 348.785 122.65 348.13C124.415 347.673 126.18 347.217 127.944 346.76C132.969 345.463 137.998 344.181 143.027 342.904C143.645 342.746 144.262 342.589 144.898 342.427C173.343 335.192 202.086 329.835 231.123 325.635C232.116 325.49 233.11 325.345 234.133 325.196C239.549 324.426 244.968 323.807 250.411 323.265C252.875 323.008 255.33 322.732 257.788 322.432C298.672 317.506 339.9 319.329 380.977 320.182Z" fill="#875F24"/>
<path d="M499.043 590.112C500.859 591.021 500.859 591.021 501.973 592.995C504.024 596.268 506.584 598.603 509.374 601.245C537.769 629.007 566.058 677.518 567.226 717.894C567.247 720.44 567.238 722.985 567.215 725.531C567.211 726.409 567.207 727.286 567.202 728.19C567.192 730.333 567.177 732.476 567.158 734.62C565.695 731.876 564.688 729.153 563.759 726.188C560.114 714.774 556.194 703.56 551.662 692.472C551.235 691.41 550.809 690.349 550.369 689.255C545.655 677.919 539.126 668.052 531.738 658.276C531.38 657.798 531.021 657.319 530.652 656.827C523.298 645.72 523.298 645.72 513.574 637.372C513.478 637.891 513.382 638.41 513.283 638.945C510.853 647.065 503.312 651.714 496.318 655.549C492.736 657.435 489.14 659.293 485.54 661.143C481.003 663.507 476.782 666.057 472.648 669.069C463.722 675.518 454.665 678.513 443.642 677.362C435.878 675.117 428.904 671.047 422.761 665.827C418.502 662.232 414.356 659.98 409.244 657.878C398.876 653.589 390.86 647.664 384.609 638.281C363.304 662.464 349.196 689.146 337.439 718.999C337.183 719.644 336.927 720.289 336.663 720.954C335.037 725.151 333.858 729.325 332.842 733.711C332.542 733.711 332.242 733.711 331.933 733.711C331.188 710.071 337.376 689.719 347.374 668.402C348.26 666.501 349.12 664.59 349.973 662.675C358.941 642.779 370.27 624.714 384.609 608.289C385.496 607.249 385.496 607.249 386.401 606.187C390.138 601.825 394.134 597.769 398.232 593.747C399.142 592.839 400.05 591.931 400.957 591.021C400.76 591.97 400.564 592.919 400.361 593.896C398.791 601.994 397.96 609.859 397.949 618.116C397.944 618.967 397.939 619.817 397.934 620.694C397.916 626.563 397.916 626.563 400.049 631.919C401.719 632.951 401.719 632.951 403.738 633.396C404.466 633.606 405.195 633.815 405.945 634.031C407.072 634.336 407.072 634.336 408.223 634.646C409.646 635.068 411.065 635.503 412.48 635.952C413.101 636.138 413.723 636.325 414.364 636.517C419.84 638.822 423.551 642.616 427.522 646.858C433.455 653.013 440.281 658.311 449.205 658.503C458.934 658.33 465.267 653.663 472.13 647.146C479.453 640.204 487.168 635.679 497.173 633.854C499.574 632.536 500.339 630.954 501.279 628.425C502.228 624.619 502.165 620.826 502.108 616.923C502.103 616.046 502.098 615.168 502.092 614.265C501.975 607.754 501.156 601.704 499.639 595.384C499.043 592.838 499.043 592.838 499.043 590.112Z" fill="#24140F"/>
<path d="M412.764 520.13C414.758 531.95 415.52 543.86 416.396 555.803C416.547 557.822 416.699 559.841 416.851 561.86C417.153 565.895 417.455 569.931 417.755 573.968C417.83 574.972 417.905 575.976 417.982 577.011C418.14 579.13 418.297 581.249 418.455 583.367C418.694 586.577 418.936 589.786 419.178 592.995C419.25 593.967 419.322 594.939 419.396 595.941C419.594 598.543 419.805 601.144 420.029 603.745C420.092 604.488 420.155 605.23 420.22 605.995C420.391 607.677 420.654 609.349 420.938 611.016C421.537 611.316 422.136 611.616 422.754 611.925C423.144 614.401 423.437 616.817 423.662 619.309C424.088 628.078 424.088 628.078 428.146 635.328C435.927 638.506 443.274 639.647 451.646 639.531C452.597 639.524 453.549 639.517 454.529 639.509C463.099 639.352 471.099 638.357 479.062 634.987C484.18 632.842 489.941 633.051 495.41 632.828C494.852 633.104 494.293 633.379 493.718 633.663C491.744 634.634 491.744 634.634 489.791 635.839C488.336 636.713 486.864 637.563 485.353 638.335C481.005 640.587 477.874 642.944 474.525 646.49C467.393 653.502 459.753 658.979 449.603 659.583C439.049 659.106 432.33 652.641 425.365 645.35C418.725 638.406 412.977 636.252 403.55 634.472C400.869 633.712 399.824 633.259 398.232 631.011C394.525 618.996 397.378 603.926 400.049 591.93C399.674 592.37 399.3 592.811 398.914 593.265C396.107 596.525 393.26 599.669 390.172 602.666C385.822 606.969 382.018 611.652 378.252 616.469C377.675 617.202 377.098 617.936 376.503 618.691C368.857 628.798 362.396 639.994 356.621 651.261C355.547 652.823 355.547 652.823 352.822 653.732C353.493 634.567 356.706 616.733 361.904 598.292C362.079 597.671 362.254 597.05 362.434 596.41C366.102 583.378 369.787 570.35 373.711 557.393C369.515 557.693 365.319 557.993 360.996 558.302C361.904 555.576 361.904 555.576 364.168 554.333C365.182 553.881 366.195 553.429 367.24 552.963C383.232 545.425 397.078 533.802 409.933 521.831C411.855 520.13 411.855 520.13 412.764 520.13Z" fill="#E08F49"/>
<path d="M338.291 54.7969C344.264 55.3524 349.701 56.7513 355.433 58.4891C356.957 58.9439 356.957 58.9439 358.511 59.4079C366.076 61.6937 373.6 64.101 381.118 66.5339C382.099 66.8507 383.08 67.1674 384.091 67.4938C389.033 69.0905 393.972 70.6956 398.906 72.3156C407.672 75.1749 416.444 77.9153 425.4 80.1205C426.087 80.2948 426.773 80.4691 427.481 80.6487C435.281 82.4778 442.794 82.978 450.908 83.8802C450.608 132.468 450.309 181.055 450 231.115C434.415 231.115 418.83 231.115 402.773 231.115C402.773 230.815 402.773 230.515 402.773 230.206C408.768 230.206 414.762 230.206 420.938 230.206C420.909 228.131 420.881 226.056 420.852 223.918C420.816 216.569 421.405 209.35 422.103 202.04C427.673 156.78 427.673 156.78 416.411 114.21C412.834 109.999 408.614 106.605 404.266 103.225C402.063 101.502 399.926 99.7013 397.778 97.9106C388.211 90.1237 378.361 82.7779 368.262 75.7005C367.378 75.0795 367.378 75.0795 366.475 74.446C359.243 69.3785 351.964 64.5032 344.35 60.0263C342.001 58.4832 340.192 56.8574 338.291 54.7969Z" fill="#9D6F2C"/>
<path d="M708.15 472.082C715.825 477.385 718.975 484.808 720.645 493.773C726.337 536.616 714.056 584.64 687.949 619.195C679.873 629.04 671.634 637.264 658.887 640.099C657.071 640.125 655.254 640.129 653.438 640.099C653.059 629.579 653.544 619.131 654.355 608.644C654.461 607.248 654.561 605.853 654.655 604.456C655.258 595.615 656.707 588.14 660.703 580.115C661.306 578.798 661.907 577.481 662.505 576.163C663.038 575.037 663.572 573.911 664.109 572.787C666.225 568.35 666.225 568.35 667.969 563.755C668.568 563.755 669.168 563.755 669.785 563.755C675.411 578.532 668.875 592.089 662.874 605.491C662.458 606.415 662.041 607.338 661.611 608.289C662.248 607.707 662.885 607.125 663.541 606.525C664.403 605.738 665.265 604.952 666.152 604.142C666.609 603.725 667.065 603.308 667.536 602.879C670.1 600.542 672.698 598.258 675.348 596.02C687.577 585.262 693.736 573.734 695.502 557.475C695.755 551.813 694.525 547.159 692.554 541.872C692.233 540.995 691.913 540.119 691.582 539.216C690.959 537.705 690.959 537.705 690.323 536.163C689.551 531.576 691.055 529.401 693.455 525.583C693.995 524.666 693.995 524.666 694.546 523.73C696.984 519.648 699.679 515.789 702.481 511.951C708.235 517.709 710.025 531.163 710.125 539.068C710.072 541.548 709.951 544.015 709.746 546.487C710.346 546.487 710.945 546.487 711.563 546.487C711.525 545.362 711.488 544.238 711.449 543.079C711.438 539.65 711.83 536.504 712.471 533.138C714.67 520.664 714.224 506.496 707.022 495.591C705.131 493.391 705.131 493.391 703.389 491.956C696.404 493.806 692.575 500.998 689.141 506.895C688.764 507.538 688.386 508.181 687.997 508.843C683.132 517.356 679.238 526.36 675.305 535.332C674.326 537.398 674.326 537.398 672.51 540.125C672.419 535.147 672.354 530.17 672.31 525.192C672.292 523.503 672.268 521.814 672.236 520.126C672.058 510.422 672.031 501.875 676.143 492.865C676.395 492.27 676.646 491.675 676.906 491.062C680.49 483.016 685.822 475.144 693.796 470.938C698.877 469.69 703.402 469.681 708.15 472.082Z" fill="#FFCEA3"/>
<path d="M206.836 471.609C215.966 475.676 221.895 485.836 225.533 494.743C227.294 499.607 227.966 504.072 228.115 509.224C228.145 509.982 228.175 510.74 228.207 511.522C228.563 521.656 228.48 531.804 228.398 541.943C226.671 539.349 225.55 536.956 224.34 534.093C215.349 511.478 215.349 511.478 200.244 492.864C198.329 492.212 198.329 492.212 196.611 491.956C188.532 500.041 187.208 508.576 187.189 519.676C187.26 526.968 187.746 533.908 189.346 541.034C189.437 540.535 189.528 540.037 189.622 539.524C193.005 521.228 193.005 521.228 196.611 512.859C200.539 516.414 202.957 520.146 205.466 524.788C205.828 525.438 206.19 526.088 206.563 526.758C208.016 529.395 209.279 531.805 210.234 534.672C209.362 537.228 209.362 537.228 208.077 540.125C203.957 549.524 203.119 559.691 206.318 569.606C206.983 571.305 207.682 572.992 208.418 574.661C208.911 575.834 208.911 575.834 209.415 577.029C214.638 588.458 223.445 595.954 232.939 603.745C234.758 605.257 236.573 606.773 238.389 608.289C238.118 607.62 237.848 606.95 237.569 606.261C236.345 603.227 235.125 600.191 233.904 597.155C233.479 596.102 233.053 595.049 232.615 593.964C232.208 592.95 231.801 591.937 231.382 590.893C231.006 589.96 230.631 589.027 230.243 588.066C227.457 580.635 227.45 572.162 230.215 564.664C230.814 564.364 231.414 564.064 232.031 563.755C233.829 567.476 235.6 571.209 237.367 574.945C237.872 575.989 238.376 577.032 238.896 578.107C244.134 589.253 245.11 599.895 246.047 612.005C246.222 614.253 246.406 616.499 246.591 618.746C247.166 625.881 247.631 632.934 247.471 640.099C238.465 641.186 231.167 637.07 224.067 631.909C196.257 608.198 184.212 566.543 179.356 531.945C179.255 531.233 179.155 530.521 179.051 529.788C177.014 513.641 175.865 492.225 185.713 478.323C191.977 471.753 197.676 469.12 206.836 471.609Z" fill="#C17532"/>
<path d="M639.814 571.026C641.425 574.249 639.852 577.683 638.906 581.023C637.863 584.018 636.652 586.921 635.387 589.828C635.033 590.646 634.68 591.465 634.316 592.308C629.458 603.295 623.534 613.733 617.514 624.116C610.749 635.811 606.049 646.839 604.015 660.271C603.612 662.91 603.143 665.455 602.521 668.046C601.813 671.063 601.355 674.065 600.932 677.135C593.747 724.92 593.747 724.92 581.689 740.073C580.517 736.082 581.07 732.446 581.519 728.371C582.49 718.708 583.064 709.041 583.563 699.345C583.599 698.651 583.635 697.957 583.673 697.242C583.897 692.925 584.106 688.607 584.303 684.288C584.379 682.659 584.458 681.031 584.538 679.402C585.327 663.432 585.437 647.488 585.385 631.503C585.375 628.254 585.371 625.006 585.367 621.757C585.357 615.45 585.342 609.143 585.322 602.836C586.195 602.591 587.067 602.347 587.966 602.095C589.684 601.61 589.684 601.61 591.436 601.115C593.138 600.636 593.138 600.636 594.875 600.147C611.92 595.043 627.743 583.969 639.814 571.026Z" fill="#E08F49"/>
<path d="M432.23 716.169C433.91 716.166 435.59 716.162 437.27 716.157C440.771 716.151 444.272 716.151 447.773 716.156C452.223 716.161 456.672 716.146 461.121 716.125C464.585 716.111 468.049 716.11 471.512 716.113C473.151 716.113 474.79 716.108 476.429 716.099C495.466 716.005 518.175 718.977 532.678 732.738C536.35 736.925 537.306 739.144 537.187 744.617C536.586 744.416 535.985 744.215 535.366 744.007C520.941 739.234 506.826 735.772 491.777 733.711C490.823 733.557 489.869 733.403 488.885 733.245C485.378 732.797 482.019 732.68 478.484 732.67C477.489 732.665 477.489 732.665 476.475 732.661C474.297 732.652 472.119 732.65 469.941 732.649C468.406 732.646 466.87 732.643 465.334 732.64C462.114 732.635 458.893 732.633 455.672 732.634C452.404 732.634 449.135 732.627 445.867 732.615C407.146 732.444 407.146 732.444 369.826 741.933C367.353 742.799 367.353 742.799 364.629 742.799C364.148 740.049 364.214 738.086 365.597 735.621C376.307 722.03 394.726 719.091 410.826 716.833C417.925 716.007 425.093 716.163 432.23 716.169Z" fill="#25150F"/>
<path d="M584.414 87.5157C586.4 88.615 588.068 89.7536 589.863 91.1512C587.891 93.2227 585.824 94.9261 583.513 96.6078C582.45 97.3853 582.45 97.3853 581.365 98.1784C580.611 98.7274 579.856 99.2764 579.078 99.8421C573.104 104.218 567.177 108.635 561.329 113.18C558.714 115.208 556.076 117.203 553.432 119.194C541.266 128.312 541.266 128.312 529.922 138.412C529.231 139.068 528.54 139.724 527.829 140.4C522.914 145.169 518.681 150.281 514.482 155.68C512.521 158.146 510.55 160.605 508.579 163.064C507.623 164.259 506.668 165.455 505.713 166.65C505.01 167.529 504.308 168.407 503.584 169.313C502.985 169.013 502.385 168.713 501.768 168.404C500.92 149.37 504.844 132.904 517.672 118.147C518.418 117.336 519.163 116.526 519.932 115.69C520.724 114.823 521.517 113.956 522.333 113.063C538.371 96.0553 560.337 77.1344 584.414 87.5157Z" fill="#23140F"/>
<path d="M343.492 86.7203C352.477 91.8709 360.567 98.6471 368.123 105.693C369.923 107.366 371.771 108.944 373.654 110.521C387.269 122.522 397.184 136.551 398.373 155.145C398.517 159.574 398.432 163.978 398.232 168.404C394.694 164.909 391.28 161.317 387.902 157.668C387.112 156.817 387.112 156.817 386.307 155.95C383.721 153.155 381.172 150.345 378.706 147.443C370.64 138.158 361.821 130.209 351.914 122.961C350.248 121.713 348.583 120.463 346.919 119.212C346.036 118.553 345.153 117.895 344.244 117.217C341.657 115.276 339.096 113.302 336.538 111.323C328.344 104.999 320.213 98.8579 311.339 93.5154C310.643 93.0351 309.946 92.5547 309.229 92.0598C309.229 91.46 309.229 90.8601 309.229 90.2421C311.29 89.3508 313.353 88.4611 315.416 87.5724C315.999 87.3199 316.583 87.0674 317.184 86.8073C326.299 82.8847 334.337 82.4883 343.492 86.7203Z" fill="#221410"/>
<path d="M579.873 415.612C579.873 415.912 579.873 416.212 579.873 416.521C579.259 416.598 578.644 416.675 578.011 416.754C562.876 418.696 548.428 421.77 533.711 425.753C521.261 429.059 508.739 431.373 495.978 433.108C494.889 433.256 493.799 433.404 492.677 433.557C478.375 435.391 464.13 435.777 449.727 435.775C447.124 435.777 444.52 435.794 441.917 435.811C425.857 435.861 409.963 434.728 394.146 431.858C393.072 431.669 391.999 431.481 390.894 431.287C380.624 429.438 370.436 427.223 360.24 425.012C350.419 422.887 340.665 421.05 330.659 420.007C329.906 419.927 329.154 419.848 328.379 419.766C327.742 419.707 327.106 419.649 326.45 419.589C324.411 419.198 322.845 418.431 321.035 417.43C341.283 409.637 367.905 416.237 388.453 419.734C392.329 420.385 396.215 420.96 400.106 421.52C400.821 421.626 401.537 421.733 402.275 421.843C404.86 422.215 407.448 422.554 410.039 422.883C410.638 422.96 411.237 423.037 411.854 423.116C422.601 424.468 433.206 424.989 444.035 424.938C446.461 424.928 448.886 424.938 451.313 424.949C473.003 424.973 494.202 422.335 515.605 419.019C519.891 418.356 524.179 417.7 528.467 417.051C530.729 416.707 532.991 416.36 535.251 416.007C550.311 413.71 564.829 412.853 579.873 415.612Z" fill="#C17532"/>
<path d="M446.594 756.092C447.807 756.092 447.807 756.092 449.044 756.091C485.34 756.162 485.34 756.162 497.074 764.95C498.135 766.43 498.135 766.43 498.032 768.269C496.282 772.173 492.071 774.075 488.315 775.746C477.219 778.358 465.431 777.487 454.123 777.374C451.202 777.345 448.28 777.328 445.359 777.316C441.281 777.298 437.203 777.255 433.126 777.196C431.521 777.176 429.917 777.164 428.312 777.159C410.705 777.093 410.705 777.093 403.682 770.065C403.625 767.907 403.625 767.907 404.59 765.521C406.746 764.006 408.577 762.96 410.947 761.886C411.647 761.566 412.347 761.246 413.069 760.916C424.079 756.207 434.802 756.067 446.594 756.092Z" fill="#23140F"/>
<path d="M424.551 703.532C426.565 703.548 428.578 703.55 430.592 703.55C437.705 703.568 444.744 703.8 451.816 704.628C451.198 705.246 450.58 705.865 449.943 706.502C449.536 706.911 449.128 707.32 448.709 707.741C447.663 708.785 446.612 709.823 445.558 710.858C444.694 711.711 444.694 711.711 443.813 712.58C442.989 713.389 442.989 713.389 442.149 714.213C440.815 715.344 440.815 715.344 440.918 716.443C440.21 716.456 439.503 716.469 438.774 716.483C401.715 716.795 401.715 716.795 369.142 732.582C365.744 736.158 365.264 738.805 364.629 743.708C363.589 744.721 363.589 744.721 362.529 745.753C356.958 751.457 356.158 758.488 356.228 766.146C356.274 768.364 356.355 770.575 356.455 772.792C350.859 766.705 352.453 755.492 352.699 747.681C353.215 738.68 355.323 728.445 361.911 721.903C369.476 715.757 377.855 712.025 387.05 709.002C387.946 708.69 388.843 708.379 389.766 708.059C401.237 704.237 412.567 703.429 424.551 703.532Z" fill="#E08F49"/>
<path d="M523.564 506.498C524.52 508.348 525.399 510.178 526.161 512.118C528.131 517.106 529.981 519.867 534.463 522.857C540.196 524.769 547.38 524.585 553.081 522.687C558.064 520.104 559.721 517.295 561.482 512.121C561.87 510.855 562.252 509.588 562.617 508.315C570.682 507.632 577.686 509.668 585.322 511.951C584.372 519.557 580.455 526.065 574.42 530.813C566.528 535.744 558.855 536.654 549.789 536.66C548.433 536.677 548.433 536.677 547.05 536.694C538.812 536.71 531.483 535.89 524.132 531.945C523.245 531.477 522.357 531.008 521.443 530.525C520.645 530.094 519.846 529.663 519.023 529.219C518.098 528.894 518.098 528.894 517.154 528.562C514.225 526.634 512.846 523.642 511.133 520.642C510.585 519.713 510.585 519.713 510.025 518.765C508.539 516.222 507.242 513.843 506.309 511.042C511.988 508.683 517.496 507.446 523.564 506.498Z" fill="#FFF8E8"/>
<path d="M375.527 506.498C377.553 506.909 379.577 507.327 381.601 507.747C382.728 507.979 383.856 508.211 385.017 508.45C387.765 509.109 390.204 509.907 392.783 511.042C392.283 514.866 391.024 517.154 388.753 520.244C388.192 521.015 387.631 521.786 387.054 522.58C386.547 523.271 386.04 523.962 385.518 524.675C384.618 526.024 384.618 526.024 383.701 527.401C373.347 534.479 363.132 536.799 350.836 536.887C349.919 536.897 349.002 536.906 348.057 536.915C338.347 536.802 329.485 534.524 322.227 527.799C318.639 523.921 314.678 518.336 314.678 512.86C316.398 512.269 318.12 511.683 319.843 511.099C320.802 510.772 321.761 510.445 322.749 510.108C326.746 508.858 330.3 508.196 334.488 508.258C335.206 508.267 335.923 508.275 336.663 508.283C337.469 508.299 337.469 508.299 338.291 508.315C338.535 509.421 338.778 510.527 339.029 511.667C340.036 515.553 340.886 518.742 344.304 521.181C350.33 524.578 356.788 525.582 363.494 523.766C367.802 522.067 370.498 519.593 372.803 515.586C373.95 512.602 374.813 509.612 375.527 506.498Z" fill="#FFF8E8"/>
<path d="M702.48 511.951C710.091 519.567 710.963 537.57 710.977 547.801C710.398 562.661 704.251 583.209 693.558 594.131C687.214 598.736 679.426 601.614 671.602 601.927C673.82 598.092 676.397 595.278 679.605 592.214C689.747 582.2 695.083 569.779 695.499 555.462C695.465 550.536 694.265 546.463 692.554 541.872C692.233 540.996 691.913 540.119 691.582 539.216C691.166 538.209 690.751 537.201 690.323 536.163C689.551 531.577 691.055 529.401 693.455 525.583C693.815 524.972 694.175 524.36 694.546 523.73C696.983 519.648 699.678 515.789 702.48 511.951Z" fill="#E08F49"/>
<path d="M486.328 520.13C489.765 521.589 492.308 523.876 495.07 526.322C501.79 532.14 508.945 537.285 516.206 542.403C517.911 543.616 519.595 544.852 521.273 546.104C527.586 550.713 538.003 558.302 546.27 558.302C548.184 561.014 549.903 563.826 551.655 566.645C553.438 569.076 554.384 570.039 557.168 571.026C557.168 571.326 557.168 571.626 557.168 571.935C532.486 571.845 509.378 559.041 490.869 543.761C490.059 543.134 489.249 542.507 488.414 541.861C485.978 539.834 485.293 538.636 484.512 535.581C484.093 530.236 485.161 525.313 486.328 520.13Z" fill="#E08F49"/>
<path d="M402.773 768.248C404.015 769.342 405.257 770.437 406.499 771.532C411.25 775.005 415.434 775.934 421.225 775.983C421.953 776 422.68 776.016 423.43 776.033C425.797 776.083 428.163 776.114 430.53 776.143C432.169 776.172 433.808 776.201 435.447 776.231C439.536 776.302 443.626 776.355 447.716 776.401C449.841 776.425 451.966 776.455 454.091 776.488C457.628 776.54 461.165 776.572 464.702 776.598C466.224 776.616 466.224 776.616 467.778 776.634C476.767 776.643 485.572 776.205 493.594 771.883C495.549 772.263 495.549 772.263 497.227 772.792C490.766 784.598 490.766 784.598 486.328 786.425C483.775 786.776 483.775 786.776 480.73 786.955C479.592 787.022 478.453 787.089 477.281 787.159C467.299 787.652 457.312 787.922 447.321 788.14C443.527 788.223 439.734 788.321 435.942 788.452C432.235 788.58 428.529 788.672 424.821 788.738C423.419 788.77 422.017 788.813 420.616 788.871C409.766 789.3 409.766 789.3 405.979 786.705C404.323 784.864 403.067 783.133 401.865 780.972C401.535 780.391 401.205 779.811 400.865 779.214C399.749 776.956 399.114 775.095 399.254 772.565C400.167 770.738 401.239 769.583 402.773 768.248Z" fill="#E08F49"/>
<path d="M608.936 484.174C610.216 484.617 610.216 484.617 611.522 485.07C617.533 487.169 617.533 487.169 619.834 488.32C620.454 496.701 617.359 503.618 612.845 510.591C611.66 511.95 611.66 511.95 609.106 512.859C608.45 512.859 607.795 512.859 607.119 512.859C606.838 512.053 606.557 511.247 606.268 510.417C601.789 503.219 591.995 501.118 584.414 498.318C583.741 498.014 583.068 497.711 582.374 497.398C578.514 496.012 574.529 495.337 570.507 494.569C569.661 494.403 568.815 494.238 567.944 494.068C565.866 493.663 563.788 493.262 561.709 492.864C564.681 490.882 567.271 490.065 570.677 489.002C576.377 487.197 581.589 484.915 586.873 482.082C594.608 479.41 601.499 481.476 608.936 484.174Z" fill="#E08F49"/>
<path d="M448.183 463.781C450.101 465.7 450.467 466.611 451.242 469.139C451.463 469.852 451.685 470.566 451.913 471.301C452.258 472.443 452.258 472.443 452.611 473.608C452.851 474.381 453.09 475.154 453.337 475.951C454.434 479.495 455.506 483.045 456.549 486.606C456.86 487.659 457.172 488.712 457.493 489.797C457.893 491.193 457.893 491.193 458.301 492.616C458.873 494.834 458.873 494.834 460.898 495.591C463.431 495.805 465.963 495.938 468.501 496.067C471.144 496.546 471.978 497.152 473.613 499.227C473.014 500.726 472.414 502.226 471.797 503.771C471.197 503.771 470.598 503.771 469.98 503.771C469.681 504.971 469.381 506.17 469.072 507.406C464.967 508.44 460.941 508.432 456.737 508.404C455.628 508.402 455.628 508.402 454.496 508.4C452.146 508.395 449.796 508.383 447.446 508.372C445.847 508.367 444.249 508.363 442.651 508.359C438.743 508.349 434.835 508.334 430.928 508.315C430.928 507.115 430.928 505.916 430.928 504.68C430.328 504.68 429.729 504.68 429.111 504.68C427.117 501.525 427.232 499.551 427.919 495.932C428.073 495.058 428.226 494.184 428.384 493.284C429.111 491.047 429.111 491.047 431.836 489.229C432.136 488.029 432.435 486.83 432.744 485.594C434.542 489.493 436.341 493.392 438.193 497.409C441.814 494.993 442.147 492.273 443.188 488.264C443.382 487.543 443.576 486.823 443.776 486.081C445.698 478.726 447.016 471.288 448.183 463.781Z" fill="#E08F49"/>
<path d="M384.609 637.373C385.096 637.991 385.583 638.61 386.085 639.247C386.797 640.128 387.509 641.009 388.242 641.917C388.606 642.41 388.97 642.903 389.346 643.411C395.59 651.435 404.673 655.301 413.878 658.947C416.396 660.094 416.396 660.094 417.305 661.912C416.68 661.943 416.055 661.974 415.411 662.006C397.09 662.99 381.167 665.119 364.92 673.936C362.426 675.266 359.98 676.319 357.363 677.362C355.753 678.744 355.753 678.744 354.639 680.089C356.004 674.588 359.056 670.536 362.302 666.001C362.869 665.2 363.436 664.399 364.02 663.574C370.48 654.517 377.256 645.725 384.609 637.373Z" fill="#C17532"/>
<path d="M513.574 637.373C524.56 641.967 532.348 657.369 539.004 666.91C539.441 667.531 539.878 668.151 540.329 668.791C540.734 669.379 541.14 669.968 541.558 670.574C541.92 671.095 542.282 671.616 542.654 672.152C543.625 673.869 544.061 675.437 544.453 677.362C543.552 676.974 542.65 676.587 541.721 676.187C541.137 675.937 540.552 675.687 539.95 675.429C538.767 674.923 537.585 674.414 536.404 673.902C522.757 668.045 508.292 664.093 493.594 661.912C494.268 661.256 494.942 660.599 495.637 659.924C498.102 657.486 498.102 657.486 499.951 655.095C501.768 652.823 501.768 652.823 503.868 650.778C507.681 646.873 511.83 642.61 513.574 637.373Z" fill="#E08F49"/>
<path d="M469.98 832.776C474.739 836.612 476.795 841.389 478.154 847.318C477.792 849.444 477.792 849.444 477.246 850.953C472.528 846.068 470.122 842.115 469.867 835.105C469.904 834.336 469.942 833.568 469.98 832.776Z" fill="#291711"/>
<path d="M284.707 680.088C285.007 680.088 285.306 680.088 285.615 680.088C285.308 685.446 285.036 690.047 281.982 694.63C279.542 696.789 279.542 696.789 277.441 698.265C278.308 691.237 280.523 685.826 284.707 680.088Z" fill="#150B0B"/>
<path d="M335.566 779.154C335.866 779.154 336.166 779.154 336.475 779.154C336.524 781.028 336.559 782.903 336.588 784.777C336.609 785.821 336.63 786.865 336.652 787.941C336.479 790.894 335.924 792.865 334.658 795.513C333.759 795.213 332.86 794.913 331.934 794.604C331.412 788.347 332.41 784.583 335.566 779.154Z" fill="#1A100E"/>
<path d="M377.344 835.502C377.701 840.981 376.742 845.867 374.619 850.953C374.02 851.253 373.42 851.553 372.803 851.862C371.221 848.696 371.404 845.27 372.441 841.914C375.095 835.502 375.095 835.502 377.344 835.502Z" fill="#180D0D"/>
<path d="M500.859 830.049C506.651 835.727 508.851 839.977 509.033 848.226C503.57 844.126 502.429 838.3 500.859 831.867C500.859 831.267 500.859 830.667 500.859 830.049Z" fill="#1A0E0C"/>
<path d="M408.223 839.138C409.608 841.912 408.736 844.075 408.052 847.016C406.927 850.249 405.146 852.152 402.773 854.589C402.174 854.289 401.575 853.989 400.957 853.68C401.243 848.107 404.303 843.06 408.223 839.138Z" fill="#0F0708"/>
<path d="M302.871 739.164C303.171 739.164 303.47 739.164 303.779 739.164C304.121 745.346 303.575 749.849 301.055 755.523C300.455 755.523 299.856 755.523 299.238 755.523C298.807 748.901 298.978 744.643 302.871 739.164Z" fill="#1C100D"/>
<path d="M355.547 805.51C355.847 805.51 356.146 805.51 356.455 805.51C356.776 811.987 356.416 816.844 353.731 822.778C353.131 822.778 352.532 822.778 351.914 822.778C351.412 816.097 352.359 811.407 355.547 805.51Z" fill="#170D0C"/>
<path d="M545.361 803.693C549.037 806.737 550.548 810.07 551.719 814.599C551.889 817.78 551.889 817.78 551.719 820.052C548.043 817.008 546.532 813.675 545.361 809.146C545.191 805.965 545.191 805.965 545.361 803.693Z" fill="#1F120E"/>
<path d="M615.293 691.904C619.875 694.069 621.358 696.537 623.467 700.992C623.467 702.192 623.467 703.392 623.467 704.628C620.428 703.367 619.046 702.087 617.336 699.288C616.948 698.672 616.559 698.056 616.159 697.421C615.293 695.539 615.293 695.539 615.293 691.904Z" fill="#1F110F"/>
<path d="M532.646 827.323C533.246 827.323 533.845 827.323 534.463 827.323C537.685 832.211 538.74 836.03 539.004 841.864C536.306 840.301 534.725 839.046 533.757 836.028C533.182 833.123 532.646 830.29 532.646 827.323Z" fill="#20130E"/>
<path d="M439.102 849.135C439.401 849.135 439.701 849.135 440.01 849.135C440.059 851.199 440.094 853.263 440.123 855.327C440.144 856.476 440.166 857.625 440.187 858.81C440.01 861.859 440.01 861.859 438.193 864.586C437.594 864.586 436.995 864.586 436.377 864.586C436.055 858.662 436.342 854.429 439.102 849.135Z" fill="#170C0C"/>
<path d="M293.789 714.625C295.197 718.615 293.876 720.899 292.146 724.566C290.899 726.726 289.634 727.986 287.432 729.167C287.661 722.752 289.614 719.429 293.789 714.625Z" fill="#150C0C"/>
<path d="M217.5 589.203C223.695 593.573 229.216 598.588 234.756 603.745C235.355 603.145 235.955 602.545 236.572 601.927C237.542 603.713 238.448 605.534 239.297 607.38C238.997 607.98 238.697 608.58 238.389 609.198C237.849 608.702 237.309 608.207 236.753 607.696C231.767 603.157 226.676 598.844 221.36 594.695C219.406 592.92 218.46 591.632 217.5 589.203Z" fill="#11090C"/>
<path d="M607.119 722.805C611.369 726.368 613.329 730.043 614.385 735.529C614.085 736.128 613.785 736.728 613.477 737.346C609.297 732.723 607.119 729.261 607.119 722.805Z" fill="#1E120E"/>
<path d="M566.25 715.534C566.55 715.534 566.85 715.534 567.158 715.534C567.158 721.832 567.158 728.13 567.158 734.62C563.339 726.976 563.339 726.976 563.753 723.77C563.977 723.152 564.202 722.533 564.434 721.896C564.752 720.771 565.071 719.646 565.399 718.487C565.82 717.025 565.82 717.025 566.25 715.534Z" fill="#130A09"/>
<path d="M566.25 777.336C569.755 782.597 570.125 786.603 569.883 792.786C567.593 790.794 566.695 789.434 566.25 786.424C566.19 784.835 566.172 783.243 566.193 781.653C566.201 780.842 566.21 780.032 566.218 779.196C566.229 778.582 566.239 777.968 566.25 777.336Z" fill="#150D0B"/>
<path d="M451.817 820.052C452.116 820.052 452.416 820.052 452.725 820.052C452.798 821.661 452.851 823.271 452.895 824.881C452.942 826.225 452.942 826.225 452.991 827.596C452.725 830.05 452.725 830.05 451.352 831.736C450.906 832.079 450.46 832.423 450 832.776C449.951 831.338 449.916 829.898 449.887 828.459C449.866 827.658 449.844 826.856 449.823 826.031C450.008 823.584 450.576 822.143 451.817 820.052Z" fill="#130809"/>
<path d="M592.588 754.615C595.131 757.474 595.633 759.22 595.483 763.022C595.458 763.832 595.434 764.643 595.408 765.478C595.377 766.092 595.345 766.706 595.312 767.339C594.713 767.339 594.114 767.339 593.496 767.339C592.241 764.826 592.501 762.753 592.531 759.954C592.539 758.958 592.547 757.963 592.556 756.937C592.566 756.17 592.577 755.404 592.588 754.615Z" fill="#150C0B"/>
</g>
<defs>
<clipPath id="clip0_2056_106">
<rect width="900" height="900" fill="white"/>
</clipPath>
</defs>
</svg>
