<svg width="900" height="900" viewBox="0 0 900 900" fill="none" xmlns="http://www.w3.org/2000/svg">
<g clip-path="url(#clip0_25_322)">
<path d="M349.6 86.7286C378.313 77.3526 408.833 72.6797 439.044 73.5675L441.27 73.6427C449.435 73.9015 457.546 74.3527 465.623 75.6437C466.818 75.8498 468.012 76.0548 469.207 76.2599C497.011 80.7456 530.351 89.2574 551.819 108.89C556.473 113.617 559.783 114.594 566.405 115.218C593.391 117.745 618.973 131.464 639.652 148.273C640.432 148.913 640.433 148.913 641.197 149.541C651.582 158.063 660.811 168.29 669.172 178.783L670.881 180.947C686.028 199.32 699.315 219.333 709.938 240.653C710.313 241.413 710.677 242.151 711.041 242.888C730.861 282.9 745.977 324.39 757.658 367.441C757.924 368.422 757.925 368.423 758.186 369.385C767.211 402.497 774.331 436.047 781.103 469.683C792.533 526.496 805.419 583.171 834.509 633.943C834.977 634.758 835.432 635.548 835.887 636.338C842.358 647.665 848.992 658.863 856.021 669.854C869.073 690.197 881.436 710.404 890.834 732.738C891.163 733.539 891.482 734.315 891.801 735.092C892.111 735.839 892.412 736.566 892.713 737.291C893.903 740.214 895.015 741.871 897 744.516V1319.9L839.5 1301.5L657 946C619.5 834 605.5 820.5 600.5 732C585.5 751 553.05 785.366 528 805C491 834 455.5 837.5 423.5 834C397.9 831.2 363.333 809.667 348.5 796.5C343.667 787.5 316.5 770.5 300 743C300 912.358 168.838 1066.74 3 1224.13V1048.11H5.61914C5.22574 1042.59 6.2775 1038.05 7.83594 1032.76C8.15826 1031.71 8.47134 1030.7 8.78418 1029.68C11.014 1022.33 13.2622 1015.1 16.498 1008.12C17.2018 1006.67 17.9035 1005.23 18.5762 1003.77C24.2283 991.469 31.4164 980.012 40.2139 969.702C42.4762 967.134 44.4149 964.894 45.7793 961.742C38.4301 952.685 32.1112 943.249 26.6299 932.962C26.3135 932.366 26.0063 931.787 25.6992 931.208C16.5652 914.263 5.99934 892.476 5.56445 872.921L5.61914 871.013L3 870.141V793.369H3.87305C4.53168 791.313 5.18315 789.371 5.61914 787.263C7.56662 771.614 7.5669 771.613 13.002 756.531C13.219 755.876 13.43 755.239 13.6406 754.603C19.0169 738.353 25.6043 722.699 32.4922 707.04C34.0995 703.391 35.7018 699.739 37.2998 696.085C37.6226 695.347 37.9357 694.63 38.249 693.913C41.6467 686.146 45.0419 678.377 48.4131 670.599C48.7049 669.925 48.9883 669.271 49.2715 668.617C75.3591 608.494 89.9446 545.539 101.336 481.231C101.537 480.095 101.732 478.992 101.927 477.89C104.217 465.019 106.477 452.192 107.766 439.177C99.281 433.525 93.1214 426.178 86.8125 418.239C89.4315 419.112 89.4319 419.112 91.7324 419.211C93.1105 419.204 93.111 419.203 94.4619 419.196L97.4199 419.189L100.509 419.166C104.092 419.152 107.675 419.137 111.258 419.111C112.639 410.736 114.031 402.363 115.439 393.992C115.792 391.897 116.145 389.801 116.496 387.705C120.642 362.66 125.882 337.868 133.887 313.744C134.363 312.326 134.363 312.325 134.83 310.935C141.542 290.91 149.324 271.325 159.16 252.61C159.496 251.974 159.822 251.356 160.148 250.739C165.374 240.796 170.661 230.984 177.07 221.746C178.281 220.015 179.478 218.278 180.654 216.524C186.464 207.792 192.482 199.391 199.204 191.335C200.158 190.203 201.108 189.066 202.055 187.927C206.645 182.177 211.334 176.705 216.545 171.505C217.332 170.73 218.097 169.977 218.861 169.225C225.208 162.937 231.571 156.671 238.249 150.732C238.929 150.131 238.929 150.13 239.596 149.541C246.742 143.226 254.018 137.097 261.693 131.43C262.195 131.062 262.681 130.705 263.168 130.349C288.683 111.595 316.803 97.5639 346.842 87.6281C347.78 87.3227 348.689 87.0251 349.6 86.7286Z" fill="black"/>
<path d="M504.874 297.397C509.791 299.241 509.791 299.241 514.936 299.093C518.037 297.408 521.005 295.603 523.974 293.698C525.955 292.615 525.955 292.615 528.574 292.615C528.776 293.554 528.977 294.493 529.185 295.46C530.752 302.554 532.554 309.282 535.32 316.023C536.482 318.912 537.464 321.831 538.451 324.784C540.448 330.424 543.047 335.494 545.936 340.709C547.866 344.197 549.626 347.76 551.383 351.338C555.624 359.896 560.567 367.718 566.115 375.492C567.007 376.782 567.898 378.073 568.789 379.363C575.529 388.991 582.619 398.383 589.687 407.771C579.804 409.411 579.804 409.411 574.852 409.836C550.05 412.005 514.856 418.852 497.806 438.857C491.608 446.965 491.608 446.965 489.287 456.625C490.344 456.21 490.344 456.21 491.422 455.787C499.957 452.509 508.588 449.591 517.278 446.748C523.643 444.663 529.968 442.513 536.227 440.124C580.228 423.347 580.228 423.347 600.164 432.198C607.512 436.06 615.008 440.481 620.244 447.029C620.715 447.536 621.185 448.043 621.67 448.566C629.998 458.798 628.477 475.626 628.102 488.031C622.415 489.488 617.315 490.003 611.459 489.885C610.703 489.877 609.948 489.869 609.169 489.861C607.331 489.841 605.494 489.81 603.656 489.776C605.402 488.031 605.402 488.031 608.567 486.995C614.043 485.015 618.42 481.223 621.445 476.254C622.873 473.179 623.805 470.375 624.609 467.094C624.05 467.388 623.491 467.683 622.914 467.987C622.159 468.376 621.404 468.765 620.626 469.166C619.887 469.55 619.147 469.935 618.385 470.331C612.913 472.786 608.033 473.48 602.128 473.419C601.47 473.425 600.812 473.432 600.133 473.439C596.777 473.427 595.16 473.357 592.307 471.456C592.973 470.718 593.639 469.98 594.326 469.22C597.227 465.745 599.291 462.13 599.291 457.497C598.469 457.958 597.648 458.42 596.801 458.895C595.704 459.484 594.606 460.072 593.507 460.66C592.968 460.966 592.429 461.272 591.873 461.587C589.077 463.057 587.512 463.696 584.378 463.049C583.537 462.656 582.696 462.264 581.83 461.859C580.974 461.519 580.117 461.178 579.235 460.827C577.899 460.285 577.899 460.285 576.537 459.733C561.183 453.86 545.261 452.588 529.706 458.786C523.1 461.915 517.349 465.619 511.986 470.583C511.379 471.143 510.771 471.703 510.145 472.28C504.064 478.474 498.342 488.061 497.144 496.755C497.588 496.133 498.031 495.511 498.488 494.871C509.802 479.141 523.342 466.959 542.696 462.272C544.408 462.004 546.049 461.906 547.781 461.859C548.665 461.816 549.548 461.772 550.458 461.726C558.367 461.506 565.44 462.676 573.1 464.477C573.1 465.052 573.1 465.628 573.1 466.221C568.32 468.935 568.32 468.935 566.209 468.492C565.602 468.318 564.995 468.145 564.369 467.966C546.862 466.771 530.746 468.78 516.389 479.488C514.23 481.38 512.223 483.339 510.24 485.414C509.635 486.012 509.029 486.611 508.405 487.227C500.486 495.476 491.906 509.348 491.906 521.182C492.468 520.432 493.029 519.682 493.608 518.909C497.95 513.2 502.44 507.778 507.512 502.698C508.212 501.992 508.212 501.992 508.926 501.272C511.49 498.754 513.968 496.569 517.225 495.01C517.801 495.298 518.377 495.586 518.971 495.883C518.683 496.746 518.394 497.61 518.098 498.5C517.387 505.178 518.241 511.807 522.364 517.25C528.587 523.87 535.656 527.269 544.726 527.671C551.641 527.603 557.266 525.032 562.575 520.654C568.097 514.817 570.123 507.193 570.579 499.349C570.425 495.304 569.301 491.785 567.861 488.031C567.573 487.168 567.285 486.304 566.988 485.414C576.796 487.57 585.291 490.228 591.798 498.289C592.488 500.942 591.529 502.343 590.19 504.637C589.862 505.167 589.534 505.697 589.196 506.243C588.892 506.765 588.588 507.288 588.274 507.827C581.979 518.391 572.584 526.007 560.877 529.906C574.426 528.778 587.564 524.946 596.672 514.203C598.424 511.099 599.813 507.951 601.037 504.607C602.135 504.679 603.234 504.751 604.366 504.825C611.667 504.802 618.075 502.154 623.354 497.157C623.976 496.526 623.976 496.526 624.609 495.883C625.312 495.199 626.014 494.515 626.737 493.811C627.413 493.109 627.413 493.109 628.102 492.393C629.44 495.068 629.08 497.864 629.06 500.797C629.058 501.781 629.058 501.781 629.056 502.784C629.051 504.882 629.04 506.98 629.029 509.078C629.025 510.499 629.021 511.92 629.017 513.341C629.008 516.827 628.992 520.313 628.975 523.799C629.263 520.633 629.551 517.466 629.848 514.203C631.576 515.499 631.576 515.499 633.34 516.82C633.34 517.972 633.34 519.123 633.34 520.31C633.916 519.158 634.492 518.007 635.086 516.82C635.348 526.858 634.572 536.576 633.394 546.536C633.256 547.732 633.256 547.732 633.115 548.953C631.353 564.14 629.238 579.277 627.045 594.407C626.797 596.12 626.55 597.832 626.302 599.544C619.833 644.155 613.315 683.884 586.686 721.125C586.26 721.724 585.833 722.324 585.393 722.942C578.121 732.941 569.85 741.947 561.085 750.642C559.562 752.154 558.049 753.676 556.536 755.199C551.323 760.414 546.04 765.334 540.248 769.908C538.182 771.557 536.21 773.279 534.249 775.049C529.861 778.985 525.304 782.691 520.717 786.391C519.675 787.24 518.634 788.09 517.593 788.94C508.052 796.691 498.268 803.887 487.541 809.945C486.993 810.266 486.445 810.586 485.88 810.917C466.081 821.75 439.647 820.737 418.41 815.347C400.491 809.996 385.369 797.496 371.142 785.842C369.779 784.727 368.408 783.623 367.037 782.519C362.351 778.737 357.818 774.826 353.365 770.773C351.639 769.209 349.892 767.68 348.126 766.162C336.094 755.665 323.994 744.62 313.805 732.302C313.414 731.836 313.023 731.37 312.62 730.89C284.129 696.886 284.129 696.886 281.502 681.703C282.269 679.887 282.269 679.887 283.248 678.214C283.569 676.182 283.861 674.147 284.121 672.107C284.409 671.243 284.697 670.379 284.994 669.49C284.989 667.617 284.948 665.745 284.885 663.874C284.836 659.576 285.174 655.953 286.358 651.824C288.621 643.633 286.804 637.94 283.654 630.249C281.959 625.84 280.823 621.278 279.647 616.71C279.436 615.892 279.225 615.075 279.008 614.233C270.059 578.95 260.373 534.773 269.279 498.5C271.66 499.437 273.902 500.385 276.154 501.608C281.246 503.862 287.359 503.53 292.852 503.734C293.033 504.22 293.214 504.706 293.401 505.207C297.535 515.44 304.698 521.229 314.678 525.544C320.047 527.481 325.536 529.034 331.266 529.034C330.109 528.524 330.109 528.524 328.929 528.005C318.654 523.301 310.837 517.466 305.238 507.442C304.927 506.896 304.616 506.35 304.295 505.788C302.856 502.976 302.401 501.407 302.987 498.275C306.025 492.289 311.983 489.234 318.17 487.159C320.234 486.709 322.17 486.466 324.281 486.286C324.092 486.732 323.903 487.177 323.708 487.636C320.942 494.853 320.408 501.99 323.19 509.296C326.453 516.409 331.256 523.124 338.884 526.004C345.869 527.455 353.7 527.512 360.083 524.082C366.897 519.556 370.593 514.955 373.172 507.224C373.311 502.994 373.133 499.176 372.299 495.01C376.141 496.262 378.518 498.164 381.466 500.899C382.131 501.516 382.131 501.516 382.811 502.146C387.049 506.139 391.003 510.392 394.909 514.708C396.088 516.008 397.287 517.288 398.49 518.565C398.778 518.565 399.066 518.565 399.363 518.565C396.475 507.122 391 498.057 383.648 488.904C383.179 488.3 382.71 487.696 382.226 487.074C373.929 476.794 359.969 469.781 346.98 467.966C341.761 467.671 336.537 467.614 331.311 467.568C329.507 467.549 327.704 467.515 325.901 467.479C324.836 467.467 323.77 467.455 322.672 467.443C319.751 467.073 318.543 466.461 316.424 464.477C329.858 460.072 347.06 459.393 360.076 465.349C360.892 465.719 361.708 466.089 362.549 466.47C375.806 473.122 387.189 484.549 394.125 497.628C394.285 498.574 394.285 498.574 394.449 499.539C394.863 501.322 394.863 501.322 396.87 502.044C397.693 502.314 398.516 502.584 399.363 502.862C400.285 503.276 401.207 503.69 402.156 504.116C403.161 504.566 404.166 505.016 405.202 505.479C406.692 506.154 406.692 506.154 408.213 506.842C412.109 508.442 416.181 509.13 420.316 509.841C420.167 509.243 420.017 508.646 419.863 508.03C418.707 503.408 417.551 498.787 416.394 494.165C416.168 493.26 415.941 492.355 415.708 491.423C415.326 489.895 414.945 488.368 414.566 486.839C412.402 478.126 410.026 471.037 404.6 463.845C401.982 460.354 401.982 460.354 401.982 457.497C401.406 456.922 400.83 456.346 400.236 455.753C401.677 455.753 403.117 455.753 404.602 455.753C400.972 447.66 397.176 440.997 390.633 434.815C389.875 434.097 389.875 434.097 389.102 433.363C373.249 420.11 346.112 413.228 326.027 411.26C326.027 410.685 326.027 410.109 326.027 409.516C326.604 409.516 327.18 409.516 327.773 409.516C328.006 408.995 328.239 408.474 328.479 407.938C329.541 405.986 330.57 404.853 332.193 403.354C335.525 400.121 338.394 396.612 341.302 392.998C343.228 390.641 345.198 388.339 347.198 386.046C353.113 379.26 358.589 372.191 364.006 365.006C365.184 363.451 366.373 361.907 367.572 360.368C371.739 355.019 375.764 349.592 379.72 344.086C384.394 337.581 389.191 331.204 394.125 324.893C394.904 323.879 395.683 322.865 396.461 321.85C398.455 319.258 400.49 316.702 402.548 314.161C403.682 312.737 404.769 311.286 405.857 309.827C416.839 296.195 437.24 292.269 453.935 290.449C472.005 288.758 487.877 290.996 504.874 297.397Z" fill="#FFCEA3"/>
<path d="M575.719 143.435C597.394 142.135 616.728 155.623 632.31 169.123C636.498 172.851 640.452 176.627 644.059 180.921C645.72 182.879 647.467 184.74 649.218 186.618C691.774 233.907 714.126 298.185 731.994 358.044C732.343 359.203 732.691 360.362 733.04 361.522C744.821 401.06 752.862 442.059 760.477 482.579C773.406 551.144 795.697 612.146 832.344 671.797C835.61 677.119 838.851 682.457 842.093 687.793C844.337 691.481 846.59 695.162 848.887 698.817C855.329 709.104 860.981 719.723 866.443 730.557C866.839 731.33 867.234 732.103 867.642 732.899C897.766 791.995 899.84 857.347 882.192 920.12C869.456 965.567 872.459 999.295 889.521 1042.89C890.016 1044.62 890.016 1044.62 889.143 1046.36C887.824 1045.49 887.824 1045.49 886.479 1044.6C882.445 1041.95 878.379 1039.35 874.301 1036.77C873.349 1036.16 873.349 1036.16 872.378 1035.54C863.778 1030.11 854.882 1025.73 845.49 1021.83C844.957 1021.61 844.423 1021.38 843.874 1021.15C837.918 1018.69 831.995 1016.52 825.775 1014.79C809.228 1010.15 809.228 1010.15 806.077 1005.63C804.517 1002.74 803.482 999.72 802.481 996.598C797.746 984.049 784.287 974.285 773.027 967.849C771.59 967.224 770.142 966.621 768.662 966.104C769.203 959.424 770.34 953.019 771.752 946.475C775.878 926.784 774.917 905.533 771.281 885.844C771.113 884.897 770.944 883.95 770.77 882.974C767.807 866.639 763.449 850.978 758.186 835.245C757.876 834.29 757.566 833.335 757.247 832.351C749.329 808.014 738.049 784.979 727.031 761.926C706.348 718.642 691.049 673.55 680.484 626.742C680.282 625.895 680.08 625.047 679.871 624.174C676.889 611.389 676.889 611.389 678.994 606.871C680.703 604.878 680.703 604.878 682.698 602.942C691.946 592.749 696.514 575.583 697.945 562.185C701.575 565.493 703.868 568.835 706.185 573.144C706.552 573.82 706.919 574.495 707.297 575.19C708.56 577.536 709.803 579.891 711.041 582.25C711.507 583.132 711.972 584.014 712.452 584.922C723.967 606.88 732.97 629.708 741.523 652.956C742.497 655.603 743.479 658.248 744.462 660.892C746.287 665.8 748.104 670.71 749.919 675.622C751.096 678.805 752.279 681.985 753.461 685.166C763.441 712.011 763.441 712.011 766.48 721.452C777.21 754.588 790.01 789.441 810.568 817.797C811.232 818.716 811.896 819.634 812.581 820.581C818.482 828.569 824.728 836.242 831.412 843.587C831.818 844.035 832.224 844.482 832.641 844.943C834.51 846.971 836.195 848.536 838.506 850.076C838.073 849.516 837.641 848.957 837.195 848.381C832.548 842.21 828.839 835.858 825.356 828.974C824.817 827.92 824.279 826.866 823.74 825.812C812.665 804.037 804.535 780.997 796.6 757.929C796.25 756.918 795.901 755.906 795.541 754.865C790.037 738.924 784.801 722.907 779.684 706.839C764.36 658.762 747.787 608.525 720.645 565.675C720.131 564.816 719.618 563.958 719.089 563.074C713.671 554.023 707.56 545.47 701.438 536.885C700.949 536.199 700.461 535.513 699.958 534.807C694.894 527.702 689.74 520.678 684.413 513.767C674.965 501.499 665.932 488.992 657.785 475.818C656.96 474.485 656.96 474.485 656.118 473.126C649.449 461.698 648.859 448.566 647.309 435.688C647.02 433.361 646.728 431.035 646.436 428.708C652.065 431.571 657.03 434.972 662.076 438.733C666.358 441.923 670.703 445.009 675.082 448.065C680.545 451.891 685.811 455.874 690.961 460.115C692.36 461.225 693.761 462.333 695.163 463.441C698.546 466.141 701.855 468.92 705.148 471.728C713.753 479.054 722.737 485.895 731.704 492.768C736.782 496.671 741.806 500.643 746.836 504.607C738.793 490.036 729.87 474.766 717.688 463.236C716.233 461.814 714.96 460.316 713.66 458.751C705.63 449.489 696.082 441.623 686.352 434.224C684.85 433.071 683.368 431.896 681.89 430.712C676.4 426.322 670.812 422.147 665.042 418.131C656.704 412.318 649.005 405.995 641.487 399.146C639.669 397.499 637.823 395.897 635.959 394.303C632.422 391.232 629.164 387.909 625.875 384.577C624 382.731 622.087 381.008 620.081 379.309C617.227 376.86 614.787 374.242 612.359 371.376C610.698 369.451 608.976 367.594 607.235 365.741C601.85 359.986 596.989 353.912 592.307 347.576C591.872 346.993 591.438 346.41 590.99 345.81C548.429 288.615 548.429 288.615 549.637 265.199C550.722 262.007 552.533 259.362 554.384 256.574C563.608 242.193 569.933 226.909 574.628 210.5C574.79 209.94 574.953 209.379 575.121 208.802C578.246 197.333 579.668 185.969 579.6 174.109C579.593 172.109 579.618 170.111 579.646 168.111C579.685 159.349 578.427 151.786 575.719 143.435Z" fill="#F9AB28"/>
<path d="M531.442 123.809C532.225 124.528 533.007 125.247 533.813 125.987C534.496 126.608 534.496 126.608 535.193 127.241C546.321 137.446 553.495 147.968 557.385 162.628C557.544 163.21 557.704 163.793 557.868 164.394C561.972 180.717 559.087 197.558 553.893 213.227C553.659 213.947 553.426 214.667 553.185 215.409C545.354 239.183 532.993 260 516.352 278.656C516.063 278.656 515.775 278.656 515.479 278.656C515.456 277.876 515.434 277.095 515.41 276.291C514.915 265.747 512.645 257.476 505.002 249.867C494.978 242.063 484.382 239.488 471.826 240.271C443.21 243.951 416.801 267.478 399.56 289.346C396.425 293.479 393.402 297.692 390.377 301.906C388.034 305.128 385.596 308.276 383.157 311.426C378.721 317.178 374.436 323.027 370.196 328.925C357.276 346.894 343.839 364.957 328.817 381.245C327.764 382.398 326.717 383.559 325.703 384.747C321.144 390.075 316.251 395.05 311.301 400.013C309.839 401.483 308.387 402.961 306.935 404.44C300.33 411.104 293.36 416.961 285.867 422.602C284.708 423.501 283.55 424.4 282.392 425.301C265.143 438.366 245.922 448.359 224.754 453.135C224.147 453.278 223.54 453.421 222.915 453.568C204.99 457.621 182.275 458.18 164.514 453.135C163.818 452.943 163.122 452.751 162.405 452.553C153.542 450.031 145.19 446.813 137.013 442.558C135.987 442.025 135.987 442.025 134.941 441.481C131.085 439.38 128.161 437.213 125.227 433.943C125.735 433.816 126.244 433.69 126.768 433.559C137.775 430.785 148.253 427.728 158.402 422.602C159.191 422.207 159.191 422.207 159.996 421.805C172.988 415.19 184.353 405.273 193.324 393.813C191.847 394.526 191.847 394.526 190.34 395.254C147.912 415.622 147.912 415.622 133.957 415.622C133.604 408.629 134.89 401.875 136.085 395.012C136.2 394.35 136.314 393.687 136.432 393.004C148.989 321.029 175.117 254.135 221.153 196.978C221.599 196.421 222.045 195.864 222.504 195.29C225.247 191.918 228.155 188.82 231.259 185.778C232.761 184.289 234.145 182.732 235.503 181.112C240.776 175.016 246.536 169.387 252.668 164.158C253.895 163.097 255.101 162.011 256.289 160.907C317.621 103.962 413.886 74.7671 531.442 123.809Z" fill="#FAAA28"/>
<path d="M127.846 455.753C131.178 456.197 133.79 457.336 136.762 458.873C146.97 464.119 157.757 467.044 168.879 469.711C169.587 469.881 170.295 470.051 171.024 470.226C194.757 475.657 221.219 472.74 243.961 464.477C237.46 490.896 225.268 514.742 212.531 538.63C212.044 539.545 211.557 540.46 211.055 541.403C209.662 544.009 208.262 546.61 206.856 549.208C206.244 550.346 206.244 550.346 205.618 551.507C201.601 558.861 196.868 565.67 192.015 572.49C191.096 573.786 190.177 575.082 189.259 576.378C188.783 577.05 188.307 577.722 187.817 578.415C185.276 582.012 182.753 585.621 180.229 589.229C172.869 599.742 165.496 610.243 157.966 620.635C136.623 650.12 117.839 679.479 107.766 714.854C107.49 715.788 107.214 716.721 106.93 717.683C104.901 725.053 104.165 732.569 103.4 740.154C103.735 739.358 103.735 739.358 104.077 738.547C114.554 713.787 127.381 691.016 143.561 669.49C144.472 668.265 145.382 667.041 146.292 665.816C150.688 659.916 155.145 654.066 159.646 648.246C162.008 645.189 164.333 642.107 166.642 639.01C173.34 630.067 180.324 621.362 187.397 612.714C191.213 608.035 194.902 603.27 198.542 598.454C199.929 596.691 201.292 595.117 202.928 593.591C203.235 594.256 203.542 594.92 203.859 595.605C207.476 603.165 211.37 609.443 217.77 614.91C219.507 616.61 220.352 617.445 220.509 619.908C220.412 620.599 220.315 621.29 220.215 622.002C220.057 623.166 220.057 623.166 219.896 624.353C219.771 625.142 219.645 625.93 219.516 626.742C219.409 627.445 219.303 628.149 219.193 628.874C215.679 650.499 209.91 671.79 204.674 693.044C204.444 693.98 204.214 694.916 203.977 695.88C203.287 698.681 202.593 701.482 201.898 704.283C201.692 705.119 201.486 705.956 201.273 706.817C199.465 714.068 197.349 721.212 195.101 728.339C193.75 732.654 192.437 736.978 191.138 741.309C177.383 787.067 161.604 830.064 132.211 868.396C131.776 868.968 131.342 869.541 130.894 870.13C125.952 876.631 120.762 882.787 115.18 888.747C113.361 890.695 111.586 892.665 109.839 894.677C104.209 901.145 98.4598 907.404 92.3543 913.43C89.9971 915.817 87.8099 918.312 85.6291 920.859C84.1899 922.488 82.6891 924.015 81.1377 925.538C79.0666 927.571 77.1294 929.656 75.2446 931.863C71.2112 936.548 66.7733 940.835 62.3672 945.167C59.7351 944.025 58.2925 942.994 56.6787 940.627C56.2924 940.066 55.9061 939.505 55.5081 938.927C55.1066 938.323 54.7052 937.719 54.2915 937.097C53.8697 936.471 53.448 935.845 53.0135 935.201C24.2342 892.012 17.3059 838.849 27.3464 788.456C27.6686 786.895 27.9925 785.334 28.3184 783.773C28.4654 783.048 28.6124 782.323 28.7638 781.576C34.8102 752.23 47.0541 724.904 59.2307 697.702C68.5144 676.929 77.3327 655.997 85.0664 634.594C85.2765 634.014 85.4866 633.433 85.703 632.836C105.046 579.308 116.799 523.164 125.567 467.014C125.824 465.38 125.824 465.38 126.086 463.713C126.312 462.259 126.312 462.259 126.542 460.776C126.973 458.37 126.973 458.37 127.846 455.753Z" fill="#F9AB28"/>
<path d="M243.088 632.849C244.362 633.119 245.635 633.392 246.907 633.667C247.616 633.819 248.325 633.97 249.056 634.127C250.945 634.594 250.945 634.594 252.691 635.466C253.284 638.068 253.774 640.635 254.219 643.263C261.05 683.184 261.05 683.184 281.502 717.471C287.134 762.16 277.763 810.913 264.833 853.561C264.166 855.767 263.525 857.978 262.892 860.193C256.991 880.04 247.119 904.066 233.484 919.867C230.523 920.854 229.379 920.357 226.493 919.472C213.451 915.894 197.293 917.028 185.422 923.462C176.501 929.142 168.842 937.316 165.486 947.52C164.128 951.337 163.143 954.025 159.562 956.142C156.637 957.202 153.723 958.028 150.709 958.798C148.57 959.429 146.433 960.071 144.301 960.723C143.27 961.037 142.239 961.35 141.177 961.673C126.768 966.426 113.784 976.975 106.893 990.531C103.585 997.6 103.585 997.6 101.017 1004.95C99.5163 1007.87 98.0728 1008.28 95.0416 1009.45C94.0428 1009.84 93.044 1010.24 92.015 1010.65C90.4391 1011.24 90.4391 1011.24 88.8314 1011.85C87.8247 1012.24 86.8181 1012.64 85.7809 1013.04C81.5569 1014.7 77.3243 1016.33 73.0863 1017.94C65.2347 1020.97 57.8011 1024.55 50.3628 1028.48C49.2843 1029.04 48.2055 1029.61 47.1264 1030.17C40.8179 1033.46 34.553 1036.83 28.3184 1040.26C32.3949 1020.25 42.8976 1001.86 54.5098 985.297C54.8526 984.802 55.1954 984.307 55.5486 983.797C63.4325 972.421 72.0528 961.585 80.725 950.803C86.7617 943.278 92.6675 935.666 98.4307 927.929C101.265 924.135 104.155 920.39 107.083 916.666C112.961 909.19 118.544 901.562 123.968 893.752C125.185 892.01 126.416 890.28 127.655 888.553C139.4 872.153 150.614 855.383 160.801 837.97C161.799 836.279 162.816 834.604 163.849 832.934C169.878 823.157 175.222 813.011 180.621 802.877C181.703 800.855 182.798 798.843 183.912 796.839C212.046 745.735 230.257 689.488 243.088 632.849Z" fill="#E87416"/>
<path d="M500.637 153.031C501.209 153.321 501.782 153.61 502.371 153.908C508.66 157.116 514.802 160.512 520.717 164.372C520.141 164.66 519.564 164.948 518.971 165.245C517.513 164.67 516.058 164.087 514.605 163.5C504.211 161.146 494.003 160.487 483.371 160.59C481.109 160.61 478.849 160.607 476.587 160.602C461.965 160.624 447.592 161.82 433.303 165.027C432.261 165.258 431.219 165.488 430.145 165.726C392.736 174.243 352.179 197.409 330.393 229.802C329.488 231.531 328.605 233.272 327.773 235.036C328.204 234.725 328.634 234.413 329.077 234.092C333.249 231.073 337.426 228.062 341.605 225.055C343.041 224.019 344.468 222.972 345.893 221.92C376.951 199.324 415.467 185.733 453.929 185.964C455.051 185.957 456.173 185.951 457.329 185.944C478.027 185.985 501.144 190.126 518.098 202.758C518.797 203.276 519.495 203.795 520.215 204.329C526.173 209.161 531.472 215.998 532.939 223.695C527.768 223.06 523.052 221.77 518.087 220.236C488.974 212.178 458.38 219.326 432.212 232.965C430.559 233.92 428.921 234.901 427.301 235.909C426.453 236.433 425.606 236.957 424.733 237.497C413.674 244.615 403.597 252.985 394.125 262.081C393.346 262.823 393.346 262.823 392.552 263.581C385.7 270.147 379.43 276.865 373.697 284.426C371.483 287.343 369.128 290.117 366.733 292.887C361.951 298.45 357.527 304.265 353.095 310.107C349.969 314.226 346.75 318.263 343.488 322.276C342.894 323.022 342.3 323.767 341.688 324.535C333.786 334.363 325.102 343.341 316.206 352.265C315.473 353.001 314.74 353.738 313.984 354.497C309.701 358.765 305.324 362.859 300.709 366.768C300.133 366.48 299.557 366.192 298.963 365.896C299.383 365.464 299.803 365.032 300.236 364.587C305.426 359.03 309.35 352.939 313.204 346.43C313.857 345.339 314.51 344.248 315.164 343.157C317.056 339.987 318.926 336.804 320.789 333.617C321.28 332.779 321.771 331.941 322.277 331.078C327.684 321.773 332.212 312.301 336.337 302.368C338.2 297.903 340.244 293.538 342.342 289.18C346.761 279.955 350.842 270.681 354.292 261.045C354.522 260.406 354.752 259.768 354.989 259.11C355.901 256.502 356.584 254.396 356.584 251.612C356.224 251.976 355.864 252.341 355.493 252.716C353.822 254.404 352.147 256.089 350.473 257.773C349.907 258.346 349.34 258.919 348.757 259.51C347.905 260.366 347.905 260.366 347.035 261.239C346.267 262.013 346.267 262.013 345.483 262.803C343.754 264.445 341.989 266.005 340.184 267.562C336.619 270.661 333.274 273.934 329.956 277.293C329.362 277.89 328.769 278.486 328.157 279.101C326.281 280.986 324.408 282.874 322.535 284.763C320.064 287.256 317.59 289.745 315.114 292.233C314.285 293.073 314.285 293.073 313.438 293.93C310.117 297.266 306.684 300.411 303.119 303.486C301.397 304.99 299.773 306.561 298.182 308.202C297.623 308.772 297.065 309.342 296.489 309.93C295.919 310.513 295.349 311.097 294.761 311.698C289.431 317.088 284.008 321.994 278.01 326.638C277.358 327.173 276.707 327.709 276.035 328.26C271.206 332.225 266.196 335.935 261.149 339.615C260.47 340.114 259.792 340.613 259.092 341.127C255.904 343.433 252.997 345.506 249.199 346.703C252.06 341.724 254.927 336.774 258.093 331.981C266.266 319.235 273.026 305.684 278.883 291.742C275.189 295.383 271.626 299.137 268.079 302.92C267.525 303.507 266.971 304.095 266.401 304.7C263.655 307.627 260.955 310.579 258.329 313.613C255.431 316.945 252.389 320.095 249.254 323.203C248.716 323.738 248.179 324.272 247.625 324.823C244.505 327.909 241.34 330.893 237.983 333.723C236.443 335.065 234.963 336.435 233.488 337.846C225.771 345.21 217.634 351.735 209.039 358.044C208.334 358.563 207.63 359.082 206.904 359.617C204.764 361.188 202.62 362.753 200.472 364.315C199.81 364.797 199.147 365.28 198.464 365.777C197.532 366.448 197.532 366.448 196.581 367.133C196.035 367.527 195.49 367.921 194.928 368.326C193.284 369.412 191.611 370.286 189.832 371.13C190.516 370.249 191.201 369.367 191.906 368.459C210.613 343.403 224.262 315.05 237.795 286.999C250.52 260.644 265.22 234.915 284.732 212.93C286.724 210.821 286.724 210.821 287.613 208.865C288.189 208.865 288.766 208.865 289.359 208.865C289.696 208.103 289.696 208.103 290.04 207.327C291.2 205.202 292.477 203.779 294.185 202.066C294.8 201.448 295.415 200.83 296.048 200.194C297.032 199.223 297.032 199.223 298.035 198.232C298.708 197.565 299.381 196.898 300.074 196.211C305.01 191.363 310.051 186.897 315.551 182.693C316.485 181.953 317.418 181.213 318.351 180.471C323.875 176.106 329.491 172.197 335.631 168.734C336.473 168.229 337.314 167.725 338.182 167.204C359.937 154.332 383.879 144.724 408.967 140.818C409.954 140.657 410.941 140.496 411.958 140.33C441.726 135.934 473.652 139.286 500.637 153.031Z" fill="#FDD483"/>
<path d="M662.15 628.487C662.28 629.278 662.28 629.278 662.413 630.085C668.214 664.531 679.358 698.534 693.299 730.521C694.401 733.055 695.494 735.592 696.585 738.131C702.333 751.413 708.595 764.376 715.133 777.285C716.083 779.169 717.031 781.053 717.979 782.937C719.795 786.542 721.612 790.147 723.433 793.75C726.105 799.042 728.762 804.342 731.409 809.646C732.308 811.444 733.211 813.241 734.119 815.034C757.312 860.883 771.616 911.174 763.424 962.615C742.646 958.499 742.646 958.499 738.36 954.107C736.122 950.752 734.76 947.088 733.461 943.29C729.487 932.489 719.574 925.247 709.602 920.515C703.591 918.212 698.709 918.091 692.331 918.38C680.041 918.897 680.041 918.897 676.146 916.582C674.655 914.523 673.555 912.513 672.546 910.184C671.282 907.537 669.623 905.163 668.007 902.721C650.034 875.398 637.677 845.74 628.975 814.307C628.759 813.547 628.543 812.787 628.32 812.003C621.006 786.092 605.862 728.105 619.618 703.234C620.49 701.998 621.377 700.772 622.273 699.553C633.287 683.391 635.313 661.098 638.161 642.223C638.578 639.828 638.578 639.828 639.451 637.211C641.662 636.405 643.789 635.745 646.054 635.139C650.866 633.762 657.839 628.487 662.15 628.487Z" fill="#CD4812"/>
<path d="M697.945 562.185C701.575 565.493 703.868 568.835 706.185 573.144C706.552 573.82 706.919 574.495 707.297 575.19C708.56 577.536 709.803 579.891 711.041 582.25C711.507 583.132 711.972 584.014 712.452 584.922C723.967 606.88 732.97 629.708 741.523 652.956C742.497 655.603 743.479 658.248 744.462 660.892C745.889 664.728 747.311 668.567 748.729 672.407C750.334 676.752 751.95 681.094 753.573 685.434C754.692 688.427 755.806 691.422 756.92 694.418C757.467 695.887 758.017 697.355 758.568 698.823C759.345 700.896 760.117 702.971 760.887 705.047C761.233 705.961 761.233 705.961 761.585 706.895C763.181 711.224 764.266 715.566 765.17 720.089C762.005 717.726 759.686 715.371 757.367 712.182C756.69 711.258 756.012 710.334 755.314 709.381C754.753 708.609 754.753 708.609 754.181 707.821C752.828 705.966 751.46 704.122 750.089 702.279C737.101 684.792 724.301 667.052 712.787 648.552C713.764 656.637 715.277 664.302 717.589 672.107C717.891 673.144 718.193 674.182 718.504 675.25C722.092 687.397 726.139 699.386 730.248 711.365C730.794 712.972 731.339 714.579 731.885 716.187C738.014 734.095 744.984 751.769 752.947 768.943C753.478 770.126 754.009 771.31 754.54 772.494C760.26 785.072 767.207 796.882 774.38 808.681C777.085 813.14 779.648 817.652 782.128 822.241C783.589 824.933 785.078 827.609 786.573 830.283C792.63 841.119 798.603 851.985 804.331 862.999C805.361 864.965 806.406 866.923 807.455 868.88C817.349 887.33 825.892 906.626 830.018 927.238C830.423 929.231 830.868 931.216 831.361 933.188C833.789 943.443 833.883 953.777 834.086 964.273C834.131 966.515 834.199 968.754 834.28 970.994C834.608 985.417 832.517 999.952 829.775 1014.09C823.899 1016.04 816.327 1012.49 810.876 1010.08C805.92 1007.12 804.472 1001.79 802.566 996.626C797.163 983.76 783.093 972.226 770.449 966.728C769.859 966.522 769.27 966.316 768.662 966.104C769.203 959.424 770.34 953.019 771.752 946.475C775.878 926.784 774.917 905.533 771.281 885.844C771.112 884.897 770.944 883.95 770.77 882.974C767.807 866.638 763.449 850.978 758.186 835.245C757.721 833.812 757.721 833.812 757.247 832.351C749.329 808.014 738.049 784.979 727.031 761.926C706.348 718.642 691.049 673.55 680.484 626.742C680.282 625.895 680.08 625.047 679.871 624.174C676.889 611.389 676.889 611.389 678.994 606.871C680.703 604.878 680.703 604.878 682.698 602.942C691.946 592.749 696.514 575.583 697.945 562.185Z" fill="#E56D16"/>
<path d="M646.436 428.708C652.065 431.571 657.03 434.972 662.076 438.733C666.358 441.923 670.703 445.009 675.082 448.065C681.895 452.839 688.625 457.636 694.453 463.604C692.707 464.477 692.707 464.477 689.863 463.608C688.735 463.195 687.61 462.776 686.487 462.35C685.911 462.138 685.336 461.926 684.744 461.708C683.322 461.183 681.903 460.649 680.484 460.115C680.196 460.403 679.908 460.69 679.611 460.987C680.067 461.538 680.523 462.089 680.993 462.657C693.422 477.752 705.11 493.281 715.855 509.624C717.39 511.945 718.94 514.255 720.491 516.565C726.778 525.932 732.962 535.338 738.89 544.936C740.476 547.485 742.099 550.011 743.726 552.534C744.044 553.028 744.363 553.522 744.691 554.032C746.445 556.748 748.205 559.46 749.967 562.171C750.76 563.394 751.554 564.616 752.347 565.838C752.746 566.453 753.146 567.068 753.557 567.701C755.719 571.038 757.861 574.387 759.976 577.755C760.424 578.468 760.872 579.182 761.334 579.917C762.179 581.265 763.022 582.614 763.861 583.965C766.6 588.334 769.487 592.582 772.438 596.811C776.822 603.107 781.056 609.504 785.305 615.892C786.135 617.139 786.965 618.385 787.796 619.632C794.238 629.304 794.238 629.304 796.857 633.252C799.848 637.753 802.867 642.214 806.039 646.589C809.196 650.963 812.276 655.383 815.316 659.839C818.465 664.451 821.697 668.986 825.028 673.47C828.142 677.663 831.116 681.914 833.977 686.283C838.781 693.603 844.007 700.6 849.238 707.619C860.334 722.514 860.334 722.514 864.506 728.959C865.555 730.584 865.555 730.584 866.815 732.115C895.173 771.982 898.618 838.871 891.056 885.087C888.939 896.962 885.453 908.522 882.192 920.12C869.456 965.567 872.459 999.295 889.521 1042.89C890.016 1044.62 890.016 1044.62 889.143 1046.36C888.264 1045.78 887.385 1045.2 886.479 1044.6C879.56 1040.06 872.576 1035.67 865.407 1031.53C864.718 1031.14 864.03 1030.74 863.32 1030.33C862.664 1029.95 862.007 1029.58 861.331 1029.19C860.713 1028.84 860.095 1028.48 859.458 1028.12C857.531 1027.04 857.531 1027.04 854.667 1025.86C852.475 1024.55 852.475 1024.55 851.741 1022.51C851.695 1021.75 851.649 1020.98 851.602 1020.19C851.51 1019.45 851.419 1018.72 851.325 1017.95C849.99 1001.71 849.63 984.807 852.475 968.721C852.62 967.898 852.766 967.074 852.915 966.225C854.806 955.779 857.018 945.521 860.185 935.386C861.126 932.337 861.947 929.285 862.733 926.192C864.33 920.072 866.235 914.064 868.145 908.036C870.758 899.785 873.303 891.646 874.707 883.094C875.174 880.609 875.174 880.609 876.015 878.178C879.662 866.878 878.911 854.477 878.846 842.761C878.83 839.737 878.828 836.713 878.828 833.689C878.824 831.767 878.819 829.844 878.813 827.921C878.811 826.565 878.811 826.565 878.81 825.182C878.801 823.935 878.801 823.935 878.793 822.664C878.79 821.932 878.786 821.201 878.783 820.447C878.778 818.61 878.778 818.61 877.793 816.924C877.552 815.11 877.339 813.292 877.138 811.472C874.807 792.696 869.559 774.389 861.121 757.457C860.341 755.874 859.594 754.279 858.852 752.677C851.607 737.299 842.236 722.8 831.521 709.62C830.097 707.788 828.678 705.953 827.265 704.113C826.909 703.652 826.553 703.19 826.187 702.715C824.175 700.104 822.187 697.476 820.22 694.83C815.482 688.459 810.661 682.227 805.528 676.169C803.826 674.14 802.191 672.083 800.583 669.98C798.059 666.697 795.412 663.535 792.725 660.384C789.333 656.404 786.003 652.388 782.754 648.29C781.351 646.523 779.942 644.763 778.525 643.008C773.88 637.247 769.313 631.439 764.843 625.543C759.913 619.046 754.765 612.751 749.557 606.476C741.219 596.424 741.219 596.424 739.865 593.445C739.045 591.541 739.045 591.541 736.359 590.974C735.747 589.827 735.167 588.661 734.613 587.484C734.201 587.075 733.788 586.666 733.363 586.244C731.081 583.949 729.663 581.061 728.065 578.27C727.28 576.92 726.493 575.57 725.705 574.221C725.301 573.527 724.896 572.832 724.479 572.117C717.367 559.947 709.65 548.342 701.438 536.885C700.953 536.206 700.469 535.526 699.97 534.826C694.901 527.714 689.745 520.684 684.413 513.767C674.965 501.499 665.932 488.992 657.785 475.818C657.235 474.929 656.685 474.041 656.118 473.126C649.449 461.698 648.858 448.566 647.309 435.688C647.02 433.361 646.728 431.035 646.436 428.708Z" fill="#E77316"/>
<path d="M202.055 593.591C203.801 596.208 203.801 596.208 205.383 599.02C209.201 605.755 212.689 610.872 218.84 615.718C221.293 619.362 220.264 622.575 219.516 626.742C219.354 627.795 219.354 627.795 219.188 628.87C215.727 650.499 209.908 671.796 204.674 693.044C204.444 693.98 204.214 694.916 203.977 695.88C203.286 698.681 202.593 701.482 201.898 704.283C201.692 705.119 201.486 705.956 201.273 706.817C199.465 714.068 197.349 721.212 195.101 728.339C193.75 732.654 192.437 736.978 191.138 741.309C177.388 787.05 161.631 830.1 132.211 868.396C131.762 868.982 131.314 869.568 130.852 870.173C119.407 885.09 119.407 885.09 115.623 888.461C114.759 888.461 113.894 888.461 113.004 888.461C107.659 852.264 110.545 817.219 120.861 782.192C121.044 781.57 121.226 780.948 121.415 780.306C124.456 770.01 127.79 759.849 132.757 750.295C135.281 745.383 137.696 740.432 140.048 735.436C143.932 727.198 148.027 719.166 152.519 711.245C159.134 699.575 165.552 687.75 171.456 675.703C173.194 672.166 175 668.672 176.845 665.189C182.302 654.877 187.446 644.638 191.578 633.721C185.155 639.94 185.155 639.94 179.192 646.589C177.509 648.622 175.751 650.326 173.73 652.021C168.754 656.326 164.16 661.01 159.521 665.669C158.552 666.639 157.584 667.608 156.615 668.577C154.087 671.106 151.561 673.638 149.037 676.171C146.451 678.764 143.863 681.354 141.276 683.944C136.214 689.01 131.156 694.08 126.1 699.151C125.523 698.863 124.947 698.575 124.353 698.279C129.922 688.882 135.707 679.832 142.315 671.132C143.614 669.419 144.901 667.697 146.186 665.973C150.624 660.026 155.106 654.116 159.646 648.246C162.008 645.189 164.333 642.107 166.642 639.01C172.885 630.674 179.369 622.539 185.958 614.474C194.345 604.286 194.345 604.286 202.055 593.591Z" fill="#E67016"/>
<path d="M312.932 430.453C314.304 430.665 315.676 430.876 317.048 431.087C338.12 434.621 358.185 441.31 378.421 447.999C379.207 448.259 379.993 448.518 380.803 448.785C382.331 449.289 383.858 449.795 385.385 450.303C390.03 451.834 394.665 453.145 399.471 454.089C401.109 454.88 401.109 454.88 402.131 456.993C402.37 457.735 402.609 458.477 402.855 459.242C403.825 460.825 404.827 462.387 405.857 463.931C408.176 467.517 410.057 470.943 411.586 474.945C411.848 475.553 412.11 476.162 412.379 476.788C414.752 482.382 416.21 487.923 417.424 493.865C417.61 494.732 417.795 495.598 417.985 496.491C418.921 500.928 419.743 505.343 420.316 509.841C411.427 509.8 402.219 506.284 394.998 501.117C393.794 499.192 393.794 499.192 392.761 496.919C385.844 483.538 373.737 472.416 360.076 466.221C359.287 465.86 358.498 465.499 357.686 465.127C346.382 460.834 331.451 461.041 319.916 464.477C319.052 464.908 319.052 464.908 318.17 465.349C320.667 466.597 322.849 466.365 325.639 466.405C326.819 466.43 327.999 466.455 329.179 466.48C331.027 466.516 332.875 466.548 334.723 466.572C350.006 466.781 363.86 470.108 375.791 480.18C376.331 480.585 376.871 480.989 377.428 481.407C388.208 489.92 397.945 505.005 400.236 518.565C399.948 519.429 399.66 520.292 399.363 521.182C398.708 520.402 398.053 519.621 397.378 518.817C386.632 505.821 386.632 505.821 373.172 495.883C373.316 496.459 373.46 497.034 373.608 497.628C374.741 504.419 374.077 509.157 370.553 515.076C366.122 521.132 361.282 525.219 353.965 527.289C344.671 528.269 337.816 527.318 330.403 521.584C324.924 516.638 321.161 509.614 320.612 502.221C320.523 496.524 321.014 492.343 323.408 487.159C316.231 488.316 309.066 490.814 304.419 496.755C303.111 499.269 303.111 499.269 303.656 501.717C304.124 502.671 304.592 503.624 305.074 504.607C305.401 505.329 305.727 506.051 306.063 506.795C311.559 518.061 320.282 523.172 331.266 528.161C332.433 528.737 333.598 529.316 334.758 529.906C322.098 530.939 309.805 525.386 300.327 517.366C296.711 513.965 294.61 510.985 292.852 506.352C292.852 505.488 292.852 504.624 292.852 503.734C291.616 503.825 291.616 503.825 290.355 503.918C289.234 503.966 288.113 504.013 286.959 504.062C285.318 504.153 285.318 504.153 283.644 504.246C278.349 504.012 273.808 501.018 269.279 498.5C268.93 506.35 268.651 514.201 268.406 522.055C268.374 522.99 268.342 523.926 268.309 524.89C267.32 556.689 272.208 590.086 281.76 620.415C282.433 622.566 283.075 624.725 283.715 626.885C284.444 629.325 285.209 631.724 286.045 634.13C288.544 641.363 289.045 646.722 286.696 654.018C285.765 657.678 285.699 660.838 285.813 664.582C285.866 666.804 285.885 669.012 285.867 671.234C285.579 671.522 285.291 671.81 284.994 672.107C284.904 673.096 284.814 674.086 284.721 675.106C284.523 676.131 284.325 677.157 284.121 678.214C282.337 679.28 282.337 679.28 280.629 679.958C279.972 677.76 279.318 675.561 278.665 673.361C278.486 672.763 278.307 672.165 278.122 671.55C277.489 669.413 276.874 667.271 276.264 665.128C275.997 664.192 275.73 663.255 275.455 662.291C272.966 653.286 271.076 644.206 269.334 635.03C269.183 634.24 269.032 633.451 268.876 632.637C266.284 619.004 264.332 605.351 262.681 591.577C262.598 590.891 262.516 590.205 262.431 589.498C262.35 588.819 262.269 588.14 262.185 587.441C261.391 580.916 260.392 574.428 259.364 567.936C257.502 556.157 256.092 544.426 255.311 532.523C255.213 531.214 255.115 529.904 255.017 528.594C254.783 525.223 254.635 521.855 254.526 518.478C254.46 516.606 254.38 514.734 254.291 512.863C253.586 496.995 254.578 483.579 260.584 468.588C261.459 466.117 261.932 463.706 262.435 461.137C263.423 457.392 264.496 455.827 267.786 453.766C269.324 452.963 270.878 452.191 272.444 451.445C274.111 450.577 275.774 449.702 277.433 448.821C278.265 448.385 279.097 447.948 279.953 447.498C283.62 445.466 287.005 443.106 290.396 440.649C291.004 440.214 291.612 439.78 292.238 439.332C294.808 437.48 297.334 435.595 299.829 433.643C300.57 433.076 301.31 432.509 302.073 431.925C302.966 431.202 302.966 431.202 303.877 430.463C306.985 429.138 309.72 429.857 312.932 430.453Z" fill="#E08F49"/>
<path d="M535.559 285.635C535.989 286.858 535.989 286.858 536.428 288.106C551.495 330.062 578.743 366.185 609.877 397.575C610.606 398.315 611.335 399.055 612.086 399.817C615.498 403.231 618.653 406.15 622.751 408.708C628.353 412.93 628.706 420.034 629.793 426.527C630.152 428.478 630.52 430.427 630.889 432.376C631.113 433.582 631.33 434.789 631.539 435.997C632.012 438.713 632.582 441.316 633.356 443.964C637.339 458.217 636.26 473.931 636.235 488.613C636.229 491.847 636.245 495.08 636.265 498.314C636.277 500.822 636.278 503.329 636.275 505.837C636.276 507.031 636.28 508.225 636.289 509.42C636.3 511.072 636.292 512.725 636.284 514.377C636.285 515.315 636.285 516.253 636.286 517.22C636.124 518.317 636.124 518.317 635.959 519.437C635.095 520.013 634.23 520.589 633.34 521.182C633.07 520.337 632.8 519.491 632.521 518.62C631.86 516.087 631.86 516.087 630.721 515.076C630.433 518.242 630.144 521.409 629.848 524.672C628.102 522.927 628.102 522.927 627.903 520.086C627.904 518.877 627.913 517.668 627.931 516.459C627.934 515.823 627.936 515.186 627.939 514.53C627.948 512.494 627.97 510.459 627.992 508.423C628.001 507.044 628.009 505.665 628.016 504.286C628.036 500.903 628.066 497.521 628.102 494.138C627.525 494.138 626.949 494.138 626.355 494.138C625.223 495.389 625.223 495.389 624.064 496.973C621.198 500.43 618.256 502.078 614.133 503.734C613.286 504.094 612.44 504.454 611.568 504.825C608.023 505.692 604.667 505.624 601.037 505.479C600.811 506.287 600.811 506.287 600.58 507.111C597.54 516.268 591.197 521.009 582.867 525.435C574.316 529.434 565.948 531.353 556.512 530.779C556.512 530.491 556.512 530.203 556.512 529.906C557.23 529.725 557.948 529.544 558.688 529.358C565.724 527.417 570.892 524.826 576.592 520.31C577.366 519.788 578.14 519.266 578.938 518.729C584.599 513.378 588.202 506.367 591.434 499.372C585.24 491.057 577.642 488.743 567.861 486.286C568.275 487.258 568.69 488.23 569.116 489.231C572.308 497.929 571.681 506.054 567.8 514.489C563.924 521.209 557.912 526.083 550.4 528.161C542.488 529.221 534.913 527.907 528.322 523.264C526.557 521.775 524.938 520.228 523.336 518.565C522.674 517.916 522.674 517.916 521.999 517.253C517.37 512.318 517.003 506.695 517.163 500.228C517.183 499.658 517.204 499.087 517.225 498.5C517.225 497.636 517.225 496.773 517.225 495.883C506.913 502.88 499.199 512.111 491.906 522.055C489.819 516.782 493.327 510.437 495.398 505.479C499.108 497.465 504.035 490.833 510.24 484.542C510.731 483.988 511.222 483.435 511.727 482.865C520.352 473.41 534.12 467.709 546.805 466.941C549.406 466.892 552 466.898 554.602 466.93C555.484 466.931 556.365 466.931 557.274 466.932C563.796 466.971 563.796 466.971 566.68 467.59C569.306 468.071 570.738 467.367 573.1 466.221C573.1 465.646 573.1 465.07 573.1 464.477C572.52 464.424 571.94 464.371 571.343 464.316C570.572 464.243 569.801 464.17 569.007 464.095C567.868 463.989 567.868 463.989 566.705 463.88C564.369 463.604 564.369 463.604 562.255 463.148C549.242 460.744 534.733 463.564 523.605 470.651C520.483 472.805 517.539 475.162 514.605 477.562C513.228 478.588 513.228 478.588 511.823 479.634C505.425 485.601 500.492 492.621 496.271 500.245C494.505 494.948 498.554 488.784 500.886 483.969C507.911 471.362 519.303 461.413 532.939 456.625C549.414 452.055 565.815 453.068 581.066 460.987C584.274 462.568 585.971 462.991 589.415 461.914C590.688 461.354 591.944 460.752 593.18 460.115C593.853 459.795 594.526 459.476 595.219 459.147C596.885 458.341 598.527 457.487 600.164 456.625C599.787 462.659 597.47 467.169 593.18 471.456C599.113 474.42 609.579 472.732 615.606 470.747C619.004 469.435 622.298 467.989 625.482 466.221C623.463 474.86 619.712 481.162 612.387 486.286C610.082 487.321 607.81 488.116 605.402 488.904C607.712 488.927 610.022 488.945 612.332 488.958C612.974 488.965 613.616 488.973 614.278 488.98C618.952 489.001 623.463 488.616 628.102 488.031C628.382 465.544 628.382 465.544 618.897 446.32C618.189 445.69 617.481 445.06 616.752 444.411C616.107 443.836 615.462 443.26 614.798 442.667C612.89 441.096 610.942 439.687 608.895 438.305C608.223 437.839 607.551 437.374 606.859 436.894C593.52 428.238 580.04 428.391 565.031 431.482C551.629 434.598 538.771 439.757 525.883 444.504C518.251 447.31 510.571 449.968 502.874 452.59C501.694 452.993 500.514 453.397 499.334 453.8C495.697 455.042 492.06 456.283 488.414 457.497C489.819 446.714 496.273 438.405 504.276 431.418C524.613 415.922 554.589 410.674 579.474 408.115C582.604 407.781 585.701 407.361 588.814 406.898C588.286 406.284 587.757 405.67 587.212 405.038C581.95 398.842 577.125 392.459 572.468 385.802C570.202 382.577 567.891 379.384 565.59 376.184C556.771 363.873 549.871 351.1 543.506 337.395C542.272 334.79 540.939 332.242 539.596 329.691C537.399 325.355 535.964 320.965 534.628 316.299C533.868 313.741 532.978 311.294 532.012 308.808C530.657 305.09 529.51 301.355 528.52 297.522C528.257 296.525 527.995 295.529 527.725 294.502C527.701 291.742 527.701 291.742 529.724 289.309C530.497 288.673 531.27 288.036 532.066 287.38C533.812 285.635 533.812 285.635 535.559 285.635Z" fill="#E08F49"/>
<path d="M350.582 656.894C352.885 658.045 354.249 659.15 356.158 660.82C360.479 664.088 364.146 664.025 369.407 663.764C370.591 663.74 370.591 663.74 371.799 663.715C376.079 663.604 380.328 663.303 384.593 662.94C391.841 662.363 399.08 662.264 406.348 662.238C407.412 662.233 407.412 662.233 408.498 662.227C418.494 662.205 427.883 662.819 437.627 665.237C443.507 666.632 448.976 666.282 454.802 664.746C463.626 662.441 472.29 662.337 481.375 662.347C481.977 662.346 482.578 662.346 483.198 662.345C490.127 662.346 496.977 662.465 503.856 663.383C520.045 665.908 520.045 665.908 534.986 661.103C535.463 660.704 535.94 660.305 536.432 659.893C539.726 657.263 539.726 657.263 541.615 657.385C543.811 658.316 545.773 659.484 547.781 660.766C547.454 663.328 547.454 663.328 546.908 666C546.332 666.288 545.756 666.576 545.162 666.872C544.874 666.009 544.586 665.145 544.289 664.255C541.577 665.435 540.033 666.656 538.178 668.944C536.268 671.237 534.317 673.36 532.114 675.368C525.645 681.318 522.578 686.301 519.844 694.789C515.366 705.005 509.608 715.073 502.383 723.578C501.89 724.176 501.397 724.775 500.889 725.391C497.89 728.944 494.717 732.071 491.153 735.056C489.858 736.172 488.607 737.34 487.394 738.545C475.297 750.37 460.698 754.255 444.161 754.33C443.194 754.348 442.227 754.366 441.23 754.385C424.138 754.464 411.016 747.154 398.872 735.519C387.368 723.595 374.598 708.031 369.291 692.066C365.546 680.946 356.897 668.774 346.107 663.383C346.107 664.534 346.107 665.686 346.107 666.872C345.531 666.872 344.955 666.872 344.361 666.872C343.707 664.528 343.707 664.528 343.488 661.638C347.135 655.983 347.135 655.983 350.582 656.894Z" fill="#052729"/>
<path d="M574.846 211.482C604.188 212.113 624.366 223.183 644.461 244.071C649.997 249.995 654.876 256.324 659.531 262.953C659.956 263.555 660.38 264.156 660.817 264.776C672.236 281.116 682.154 298.444 691.551 316.002C700.186 332.131 708.932 348.303 718.783 363.728C719.194 364.375 719.606 365.021 720.03 365.687C720.822 366.925 721.621 368.159 722.428 369.388C723.34 370.809 724.183 372.275 725.01 373.747C724.722 374.323 724.434 374.899 724.137 375.492C705.678 362.294 688.359 348.826 672.46 332.605C670.779 330.897 669.086 329.202 667.389 327.51C675.505 344.259 685.226 359.574 697.376 373.649C697.862 374.212 698.348 374.775 698.849 375.356C699.791 376.442 700.739 377.523 701.694 378.599C704.93 382.284 704.93 382.284 704.93 384.216C685.087 379.909 664.826 362.875 649.064 350.659C646.414 348.638 643.713 346.69 641.016 344.733C633.521 339.284 626.307 333.653 619.371 327.51C618.92 327.114 618.469 326.717 618.005 326.308C594.234 305.323 572.781 277.188 570.481 244.633C569.828 232.879 569.546 222.224 574.846 211.482Z" fill="#FDD482"/>
<path d="M222.135 709.62C223.118 712.566 222.931 712.972 221.862 715.727C219.529 722.329 218.699 729.078 217.885 736.01C216.932 743.82 215.623 751.551 214.223 759.292C214.093 760.011 213.964 760.73 213.831 761.471C203.556 818.283 203.556 818.283 193.751 841.6C192.295 845.125 191.154 848.735 189.996 852.366C184.501 869.275 177.097 886.668 166.792 901.247C165.234 903.514 163.798 905.838 162.359 908.18C153.235 923.008 142.739 936.735 131.313 949.863C129.577 951.858 127.887 953.833 126.345 955.983C125.791 956.675 125.791 956.675 125.227 957.38C124.65 957.38 124.074 957.38 123.48 957.38C123.264 957.881 123.047 958.381 122.824 958.897C121.566 961.174 120.115 962.692 118.264 964.522C117.55 965.232 116.837 965.942 116.101 966.674C114.945 967.812 114.945 967.812 113.764 968.974C112.974 969.758 112.184 970.543 111.371 971.352C109.274 973.434 107.174 975.512 105.072 977.589C102.106 980.519 99.1441 983.455 96.1848 986.393C94.6093 987.956 93.0314 989.518 91.4511 991.076C90.7401 991.781 90.0292 992.486 89.2967 993.212C88.668 993.833 88.0393 994.454 87.3916 995.094C85.8747 996.559 85.8747 996.559 85.0664 998.383C84.4902 998.383 83.914 998.383 83.3203 998.383C83.3203 998.959 83.3203 999.534 83.3203 1000.13C81.9002 1001.64 80.453 1003.06 78.9551 1004.49C74.9158 1008.43 71.0315 1012.44 67.377 1016.74C63.964 1020.58 60.8639 1023.4 56.249 1025.72C55.2429 1026.24 54.2368 1026.75 53.2002 1027.28C52.1454 1027.81 51.0905 1028.33 50.0354 1028.86C47.9773 1029.91 45.9198 1030.95 43.8627 1031.99C42.8698 1032.5 41.8769 1033 40.8539 1033.52C36.6323 1035.69 32.4693 1037.96 28.3184 1040.26C32.3949 1020.25 42.8976 1001.86 54.5098 985.297C54.8526 984.802 55.1954 984.307 55.5486 983.797C63.4325 972.421 72.0528 961.585 80.725 950.803C86.7617 943.278 92.6675 935.666 98.4307 927.929C101.265 924.135 104.155 920.39 107.083 916.666C112.961 909.19 118.544 901.562 123.968 893.752C125.185 892.01 126.416 890.28 127.655 888.553C139.4 872.153 150.614 855.383 160.801 837.97C161.799 836.28 162.816 834.604 163.849 832.934C169.878 823.158 175.222 813.011 180.621 802.877C181.703 800.855 182.798 798.843 183.912 796.839C199.172 769.119 210.962 739.17 222.135 709.62Z" fill="#F9AB29"/>
<path d="M243.088 632.849C244.362 633.119 245.635 633.392 246.907 633.667C247.616 633.819 248.325 633.97 249.056 634.127C250.945 634.594 250.945 634.594 252.691 635.466C253.284 638.068 253.774 640.635 254.219 643.263C261.05 683.184 261.05 683.184 281.502 717.471C287.261 763.166 277.32 812.647 264.041 856.182C263.812 856.944 263.582 857.707 263.346 858.492C260.946 866.389 258.035 873.98 254.71 881.536C254.378 882.301 254.045 883.066 253.703 883.854C253.384 884.556 253.064 885.259 252.736 885.983C252.454 886.61 252.171 887.236 251.881 887.882C250.945 889.333 250.945 889.333 248.326 890.206C248.598 888.279 248.871 886.353 249.145 884.426C249.297 883.353 249.448 882.28 249.605 881.175C249.887 879.253 250.191 877.334 250.536 875.423C255.483 843.207 253.504 804.432 247.765 772.474C247.241 769.472 246.835 766.454 246.416 763.436C246.18 761.782 245.944 760.128 245.707 758.474C245.641 759.093 245.576 759.711 245.508 760.348C243.797 776.291 241.329 791.477 237.133 806.957C236.318 809.975 235.594 813.003 234.903 816.052C233.229 822.818 230.636 829.285 228.16 835.789C227.418 837.743 226.689 839.701 225.965 841.662C218.464 861.942 218.464 861.942 216.023 863.161C215.898 863.787 215.773 864.412 215.644 865.056C215.048 868.033 213.887 870.287 212.483 872.979C212.22 873.488 211.956 873.996 211.684 874.52C211.127 875.589 210.568 876.658 210.006 877.724C209.151 879.35 208.305 880.98 207.46 882.611C203.152 890.867 203.152 890.867 200.309 894.568C199.409 896.299 198.53 898.042 197.689 899.802C196.613 896.732 197.03 894.947 198.075 891.906C198.366 891.036 198.657 890.166 198.957 889.27C199.277 888.337 199.597 887.405 199.927 886.443C204.712 871.999 208.669 857.494 211.29 842.501C212.08 838.162 212.969 833.843 213.841 829.52C214.017 828.643 214.193 827.767 214.375 826.864C214.55 825.994 214.725 825.124 214.905 824.227C215.085 823.325 215.266 822.424 215.452 821.494C215.84 819.578 216.234 817.663 216.636 815.749C218.642 806.047 220.175 796.286 221.698 786.5C222.215 783.194 222.733 779.888 223.253 776.583C223.38 775.776 223.506 774.969 223.637 774.138C224.305 769.907 225.014 765.687 225.788 761.474C227.416 752.609 228.534 743.709 229.556 734.756C229.695 733.553 229.695 733.553 229.836 732.325C231.197 720.483 232.368 708.633 233.321 696.752C233.376 696.08 233.431 695.408 233.488 694.716C234.03 688.027 234.401 681.426 234.303 674.714C234.262 669.701 234.765 665.474 236.267 660.711C236.668 659.324 237.066 657.936 237.461 656.547C237.668 655.827 237.874 655.108 238.087 654.367C239.258 650.081 240.21 645.745 241.178 641.409C241.369 640.559 241.56 639.708 241.757 638.831C242.203 636.838 242.647 634.844 243.088 632.849Z" fill="#CD4812"/>
<path d="M581.066 460.987C584.274 462.568 585.971 462.991 589.415 461.914C590.688 461.354 591.944 460.752 593.18 460.115C594.189 459.635 594.189 459.635 595.219 459.147C596.885 458.341 598.527 457.487 600.164 456.625C599.787 462.659 597.47 467.169 593.18 471.456C599.113 474.42 609.579 472.732 615.606 470.747C619.004 469.434 622.298 467.989 625.482 466.221C623.463 474.86 619.712 481.162 612.387 486.286C610.082 487.321 607.81 488.116 605.402 488.904C616.782 489.056 616.782 489.056 628.102 488.031C627.982 492.796 626.013 495.3 622.891 498.65C620.227 501.045 617.449 502.439 614.133 503.734C613.287 504.094 612.44 504.454 611.568 504.825C608.023 505.692 604.667 505.624 601.037 505.479C600.886 506.018 600.736 506.556 600.58 507.111C597.54 516.268 591.197 521.009 582.867 525.435C574.316 529.434 565.948 531.353 556.512 530.779C556.512 530.491 556.512 530.203 556.512 529.906C557.23 529.725 557.948 529.544 558.688 529.358C565.724 527.417 570.892 524.826 576.592 520.31C577.366 519.788 578.14 519.266 578.938 518.729C584.599 513.378 588.202 506.367 591.434 499.372C585.24 491.056 577.642 488.743 567.861 486.286C568.276 487.258 568.69 488.23 569.116 489.231C572.308 497.929 571.681 506.054 567.8 514.489C563.924 521.209 557.912 526.083 550.4 528.161C542.488 529.221 534.913 527.907 528.322 523.264C526.557 521.775 524.938 520.228 523.336 518.565C522.895 518.132 522.454 517.699 521.999 517.253C517.37 512.318 517.003 506.695 517.163 500.228C517.184 499.658 517.204 499.087 517.225 498.5C517.225 497.636 517.225 496.773 517.225 495.883C506.913 502.88 499.199 512.111 491.906 522.055C489.819 516.782 493.327 510.437 495.399 505.479C499.108 497.465 504.035 490.833 510.24 484.542C510.731 483.988 511.222 483.435 511.727 482.865C520.352 473.41 534.12 467.709 546.805 466.941C549.406 466.892 552.001 466.898 554.602 466.93C555.484 466.931 556.366 466.931 557.274 466.932C563.796 466.971 563.796 466.971 566.68 467.59C569.306 468.071 570.738 467.367 573.1 466.221C573.1 465.646 573.1 465.07 573.1 464.477C572.23 464.397 572.23 464.397 571.343 464.316C570.572 464.243 569.802 464.17 569.007 464.095C568.248 464.024 567.488 463.953 566.705 463.88C564.369 463.604 564.369 463.604 562.255 463.147C549.242 460.744 534.733 463.564 523.605 470.651C520.483 472.805 517.539 475.162 514.606 477.562C513.687 478.246 512.769 478.93 511.823 479.634C505.425 485.601 500.492 492.621 496.272 500.245C494.505 494.948 498.554 488.784 500.886 483.969C507.911 471.361 519.303 461.413 532.94 456.625C549.414 452.055 565.816 453.068 581.066 460.987Z" fill="black"/>
<path d="M647.309 728.812C649.96 731.028 650.821 733.344 651.971 736.562C652.34 737.581 652.71 738.6 653.091 739.649C653.47 740.715 653.848 741.781 654.238 742.88C657.548 752.119 657.548 752.119 661.383 761.146C662.082 762.686 662.714 764.256 663.337 765.828C673.365 790.653 690.236 813.768 706.132 835.115C709.295 839.417 709.295 839.417 709.295 841.352C709.871 841.352 710.447 841.352 711.041 841.352C712.081 842.67 712.081 842.67 713.278 844.569C714.926 847.138 716.597 849.674 718.37 852.158C718.728 852.661 719.085 853.165 719.454 853.684C720.168 854.685 720.886 855.684 721.608 856.679C724.137 860.253 724.137 860.253 724.137 863.161C724.713 863.161 725.289 863.161 725.883 863.161C726.908 865.139 727.925 867.121 728.938 869.105C729.23 869.665 729.521 870.226 729.822 870.803C731.123 873.365 731.994 875.079 731.994 877.992C732.57 877.992 733.147 877.992 733.74 877.992C733.921 878.46 734.103 878.928 734.289 879.41C735.88 883.453 737.552 887.437 739.354 891.391C749.392 913.599 754.154 936.965 758.186 960.87C757.477 960.688 756.769 960.506 756.04 960.318C755.105 960.081 754.17 959.843 753.206 959.599C751.82 959.245 751.82 959.245 750.406 958.884C748.119 958.349 745.885 957.974 743.562 957.653C739.906 956.431 738.76 954.125 737.09 950.862C735.905 948.372 734.769 945.863 733.643 943.346C728.823 932.982 720.704 926.419 711.041 920.74C712.787 919.867 712.787 919.867 714.533 919.867C712.89 916.688 711.245 913.509 709.599 910.331C709.041 909.254 708.484 908.177 707.928 907.1C704.761 900.973 701.547 894.877 698.227 888.831C693.349 879.896 689.158 870.759 685.358 861.321C683.924 857.765 682.351 854.284 680.747 850.801C668.875 824.973 660.464 798.431 654.293 770.688C654.061 769.65 653.829 768.612 653.59 767.542C650.741 754.677 648.259 741.966 647.309 728.812Z" fill="#E87316"/>
<path d="M366.188 460.115C366.915 460.481 367.642 460.848 368.391 461.226C381.099 468.156 389.229 479.868 394.48 493.075C395.06 495.243 395.093 497.138 394.998 499.372C393.599 497.53 392.232 495.674 390.902 493.78C380.948 479.681 368.29 466.606 350.644 462.998C340.788 461.631 327.335 460.77 318.17 465.349C320.667 466.597 322.849 466.365 325.639 466.405C326.819 466.43 327.999 466.455 329.178 466.48C331.027 466.516 332.875 466.548 334.723 466.572C350.006 466.781 363.86 470.108 375.791 480.18C376.331 480.585 376.871 480.989 377.428 481.407C388.208 489.92 397.945 505.005 400.236 518.565C399.948 519.429 399.66 520.292 399.363 521.182C398.708 520.402 398.053 519.621 397.378 518.817C386.632 505.821 386.632 505.821 373.172 495.883C373.316 496.459 373.46 497.034 373.608 497.628C374.741 504.419 374.077 509.157 370.553 515.076C366.122 521.132 361.282 525.219 353.965 527.289C344.671 528.269 337.816 527.318 330.403 521.584C324.924 516.638 321.161 509.614 320.612 502.221C320.523 496.524 321.014 492.343 323.408 487.159C316.231 488.316 309.066 490.814 304.419 496.755C303.111 499.269 303.111 499.269 303.656 501.717C304.124 502.671 304.592 503.624 305.074 504.607C305.401 505.329 305.727 506.051 306.063 506.795C311.559 518.061 320.282 523.172 331.266 528.161C332.433 528.737 333.598 529.316 334.758 529.906C322.098 530.939 309.805 525.386 300.327 517.366C296.711 513.965 294.61 510.985 292.852 506.352C292.852 505.488 292.852 504.624 292.852 503.734C292.008 503.785 291.163 503.836 290.294 503.888C281.434 504.195 275.478 503.048 268.515 497.3C266.355 494.634 264.844 491.896 263.168 488.904C264.113 488.911 264.113 488.911 265.078 488.917C267.915 488.936 270.752 488.947 273.59 488.958C275.078 488.969 275.078 488.969 276.596 488.98C277.539 488.983 278.481 488.986 279.452 488.989C280.326 488.993 281.199 488.998 282.099 489.003C284.088 489.132 284.088 489.132 284.994 488.031C284.292 487.743 283.59 487.455 282.866 487.159C276.506 483.959 271.287 478.805 268.406 472.328C268.084 470.589 267.788 468.844 267.533 467.094C269.098 467.551 269.098 467.551 270.695 468.017C272.096 468.419 273.498 468.82 274.9 469.22C275.583 469.421 276.267 469.622 276.971 469.829C283.06 471.556 289.076 472.46 295.416 472.437C296.054 472.439 296.692 472.442 297.35 472.444C299.046 472.425 299.046 472.425 300.709 471.456C300.288 471.043 299.867 470.63 299.434 470.205C295.331 465.913 293.522 462.531 292.852 456.625C296.004 457.57 298.736 458.714 301.582 460.333C304.079 461.594 304.742 461.917 307.584 461.423C309.055 460.718 310.526 460.011 311.994 459.3C328.801 451.845 349.915 451.529 366.188 460.115Z" fill="black"/>
<path d="M575.719 143.435C597.394 142.135 616.728 155.623 632.31 169.123C636.498 172.851 640.452 176.627 644.059 180.921C645.72 182.879 647.467 184.74 649.218 186.618C678.956 219.664 699.244 262.996 714.588 304.337C714.82 304.962 715.052 305.587 715.291 306.231C717.773 312.943 720.129 319.696 722.333 326.505C722.626 327.387 722.626 327.387 722.925 328.287C724.239 332.439 724.239 332.439 723.264 335.362C722.973 334.558 722.973 334.558 722.676 333.737C720.591 328.226 717.996 323.473 714.751 318.568C713.804 317.103 712.858 315.637 711.914 314.169C711.459 313.462 711.005 312.756 710.536 312.028C708.946 309.51 707.473 306.937 706.021 304.337C697.244 288.784 687.776 273.707 676.992 259.464C676.519 258.831 676.045 258.198 675.557 257.547C667.678 247.024 659.695 236.537 650.16 227.44C648.455 225.716 646.881 223.954 645.3 222.118C628.206 202.454 605.962 185.802 580.084 180.948C580.072 179.941 580.072 179.941 580.059 178.913C579.911 160.861 579.911 160.861 575.719 143.435Z" fill="#FCD586"/>
<path d="M614.133 440.922C616.469 442.793 618.379 444.696 620.244 447.029C620.715 447.536 621.185 448.043 621.67 448.566C629.999 458.798 628.477 475.626 628.102 488.031C622.415 489.488 617.315 490.003 611.459 489.885C610.703 489.877 609.948 489.869 609.169 489.861C607.331 489.841 605.494 489.81 603.656 489.776C605.402 488.031 605.402 488.031 608.567 486.995C614.043 485.016 618.42 481.224 621.445 476.254C622.873 473.179 623.805 470.375 624.609 467.094C624.05 467.388 623.491 467.683 622.914 467.987C622.159 468.376 621.404 468.765 620.626 469.166C619.887 469.55 619.147 469.935 618.386 470.331C612.913 472.786 608.033 473.48 602.128 473.419C601.47 473.425 600.812 473.432 600.133 473.439C596.777 473.427 595.16 473.357 592.307 471.456C593.306 470.349 593.306 470.349 594.326 469.22C597.227 465.745 599.291 462.13 599.291 457.497C598.469 457.959 597.648 458.42 596.801 458.895C595.704 459.484 594.606 460.072 593.507 460.66C592.968 460.966 592.429 461.272 591.874 461.587C589.077 463.058 587.512 463.696 584.378 463.049C583.537 462.656 582.696 462.264 581.83 461.859C580.974 461.519 580.117 461.178 579.235 460.827C577.9 460.285 577.9 460.285 576.537 459.733C561.183 453.86 545.261 452.588 529.706 458.786C523.1 461.915 517.349 465.619 511.986 470.583C511.379 471.143 510.771 471.703 510.145 472.28C502.791 479.771 498.255 490.255 495.398 500.245C494.606 500.299 493.814 500.353 492.998 500.408C488.877 500.968 485.316 502.737 481.57 504.471C478.263 505.679 475.326 506.02 471.826 506.352C469.138 517.941 467.606 529.479 466.623 541.318C466.528 542.402 466.433 543.487 466.336 544.604C466.257 545.576 466.179 546.548 466.098 547.549C465.715 549.971 465.715 549.971 463.969 552.589C463.191 548.565 462.932 544.642 462.888 540.556C462.875 539.588 462.875 539.588 462.862 538.601C462.576 511.481 462.576 511.481 466.588 499.372C466.869 498.507 466.869 498.507 467.155 497.624C471.147 485.736 477.311 475.876 486.303 467.22C488.531 464.325 488.561 463.585 488.99 460.173C489.649 457.731 490.241 456.256 492.418 454.873C497.182 452.646 502.265 451.251 507.294 449.755C508.922 449.243 510.548 448.727 512.174 448.208C514.652 447.416 517.131 446.626 519.614 445.849C526.639 443.645 533.507 441.11 540.383 438.488C566.822 428.465 589.914 423.36 614.133 440.922Z" fill="#E08F49"/>
<path d="M127.846 455.753C131.178 456.197 133.79 457.336 136.762 458.873C146.97 464.119 157.757 467.044 168.879 469.711C169.587 469.881 170.295 470.051 171.024 470.226C194.757 475.657 221.219 472.74 243.961 464.477C242.432 470.559 240.589 476.52 238.614 482.47C238.382 483.173 238.15 483.876 237.911 484.601C236.212 489.668 236.212 489.668 235.23 490.648C227.127 490.428 219.006 489.437 210.949 488.576C209.894 488.464 208.839 488.352 207.753 488.236C199.668 487.346 191.692 486.146 183.721 484.542C182.239 489.878 180.813 495.227 179.441 500.592C179.296 501.157 179.152 501.722 179.003 502.304C178.407 504.635 177.812 506.967 177.221 509.299C175.238 517.112 173.082 524.843 170.625 532.523C170.374 533.319 170.123 534.116 169.865 534.936C166.657 544.979 162.904 554.635 158.348 564.148C157.927 565.029 157.506 565.911 157.072 566.819C152.701 575.723 147.299 583.878 141.487 591.901C140.753 592.916 140.753 592.916 140.003 593.952C136.238 599.094 132.225 603.79 127.846 608.422C126.236 610.275 124.64 612.139 123.051 614.011C121.734 615.401 121.734 615.401 119.115 617.146C120.234 613.519 121.606 610.31 123.429 606.984C130.37 594.106 136.157 581.268 140.941 567.419C141.5 565.844 142.061 564.27 142.623 562.696C143.905 559.093 145.159 555.481 146.4 551.863C146.983 550.174 147.583 548.491 148.185 546.809C152.021 535.857 154.701 524.574 157.529 513.331C157.732 512.529 157.934 511.728 158.142 510.903C159.112 507.062 160.072 503.219 161.021 499.372C160.029 499.35 159.036 499.327 158.014 499.304C146.185 498.92 132.994 497.621 123.48 489.776C122.3 486.068 122.815 482.957 123.446 479.164C123.59 478.282 123.59 478.282 123.737 477.383C123.941 476.146 124.148 474.91 124.359 473.674C124.681 471.784 124.992 469.892 125.302 468C126.822 458.822 126.822 458.822 127.846 455.753Z" fill="#E46A15"/>
<path d="M522.463 684.32C523.681 687.973 522.183 690.207 520.662 693.535C520.379 694.165 520.096 694.795 519.804 695.445C517.534 700.407 514.952 705.038 511.986 709.62C511.393 710.589 510.8 711.559 510.189 712.557C504.884 721.162 498.902 728.61 491.091 735.117C489.232 736.673 489.232 736.673 487.401 738.538C475.301 750.367 460.704 754.254 444.161 754.33C443.194 754.348 442.227 754.366 441.23 754.385C424.138 754.464 411.016 747.154 398.872 735.519C385.93 722.105 373.622 705.393 367.061 687.81C367.349 686.946 367.637 686.083 367.934 685.193C368.275 685.574 368.617 685.956 368.969 686.349C384.646 703.745 402.352 716.228 426.576 717.577C428.719 717.643 430.862 717.683 433.006 717.71C434.195 717.726 434.195 717.726 435.408 717.743C459.2 718.143 459.2 718.143 482.303 713.109C483.356 712.794 484.41 712.48 485.495 712.155C500.866 707.035 511.594 695.791 522.463 684.32Z" fill="#CA3541"/>
<path d="M74.5898 766.326C75.5431 769.183 75.3784 770.258 74.8149 773.151C74.6584 773.977 74.502 774.803 74.3408 775.654C74.1709 776.516 74.001 777.378 73.8259 778.266C66.1731 817.9 72.6385 861.989 94.6699 896.312C98.1621 901.898 98.1621 901.898 98.1621 905.909C96.7458 907.401 95.2861 908.852 93.7968 910.271C92.9234 911.725 92.0504 913.179 91.1777 914.633C90.1412 915.899 89.064 917.134 87.9583 918.34C87.2786 919.083 86.5988 919.825 85.8985 920.59C72.0858 935.455 72.0858 935.455 67.6054 939.932C66.7411 939.932 65.8768 939.932 64.9863 939.932C62.1648 930.465 59.4843 921.083 57.6916 911.361C57.1949 908.859 56.5625 906.492 55.8193 904.055C43.6388 859.298 53.9392 808.13 73.7167 767.198C74.0049 766.91 74.293 766.622 74.5898 766.326Z" fill="#E77116"/>
<path d="M491.033 292.615C491.033 293.478 491.033 294.342 491.033 295.232C490.551 295.336 490.069 295.441 489.572 295.549C458.416 302.404 430.453 317.225 407.122 339.111C404.766 341.315 402.375 343.469 399.964 345.613C394.715 350.329 389.896 355.23 385.292 360.573C383.502 362.569 381.629 364.45 379.72 366.332C375.251 370.745 371.157 375.398 367.224 380.29C366.594 381.01 365.964 381.73 365.314 382.471C364.738 382.471 364.162 382.471 363.568 382.471C363.373 382.943 363.177 383.414 362.975 383.899C361.458 386.613 359.456 388.772 357.348 391.032C356.916 391.499 356.484 391.966 356.038 392.447C353.201 395.477 350.271 398.277 347.052 400.904C345.085 402.606 345.085 402.606 343.007 405.068C336.961 411.93 336.961 411.93 332.882 412.552C330.49 412.322 328.327 411.949 326.027 411.26C326.027 410.685 326.027 410.109 326.027 409.516C326.604 409.516 327.18 409.516 327.773 409.516C328.006 408.995 328.239 408.474 328.479 407.938C329.541 405.986 330.57 404.853 332.193 403.354C335.525 400.121 338.394 396.612 341.302 392.998C343.228 390.641 345.198 388.339 347.199 386.046C353.113 379.26 358.589 372.191 364.006 365.006C365.184 363.451 366.373 361.907 367.572 360.368C371.739 355.019 375.764 349.592 379.72 344.086C384.394 337.581 389.191 331.203 394.125 324.893C394.904 323.879 395.683 322.865 396.461 321.85C398.455 319.258 400.49 316.702 402.549 314.161C403.682 312.737 404.769 311.286 405.857 309.827C416.839 296.195 437.24 292.269 453.935 290.449C466.658 289.258 478.514 290.13 491.033 292.615Z" fill="#E08F49"/>
<path d="M629.848 514.203C631 515.067 632.152 515.93 633.34 516.82C633.34 517.972 633.34 519.123 633.34 520.31C633.916 519.158 634.492 518.007 635.086 516.82C635.348 526.858 634.572 536.576 633.394 546.536C633.256 547.732 633.256 547.732 633.115 548.953C631.353 564.14 629.238 579.277 627.045 594.407C626.797 596.12 626.55 597.832 626.302 599.544C619.833 644.155 613.315 683.884 586.686 721.125C586.046 722.024 586.046 722.024 585.393 722.942C578.025 733.073 569.629 742.168 560.75 750.977C559.159 752.557 557.579 754.146 555.998 755.736C554.98 756.752 553.961 757.769 552.941 758.784C552.474 759.255 552.006 759.725 551.525 760.21C549.271 762.434 547.257 764.276 544.289 765.453C545.555 762.658 547.129 760.5 549.091 758.147C556.383 749.157 562.9 739.683 568.734 729.685C569.147 728.978 569.56 728.27 569.986 727.541C583.254 705.539 583.254 705.539 592.47 681.72C593.252 678.816 594.244 676.03 595.253 673.197C598.181 664.51 600.126 655.579 602.201 646.658C602.917 643.624 603.691 640.61 604.475 637.593C606.575 629.285 608.349 620.902 610.161 612.528C611.538 606.167 612.947 599.816 614.423 593.478C614.924 591.327 615.416 589.175 615.903 587.021C617.19 581.384 618.538 575.822 620.299 570.309C623.721 559.531 625.247 548.618 626.519 537.431C626.675 536.099 626.831 534.768 626.988 533.437C627.365 530.225 627.735 527.013 628.102 523.799C628.39 523.799 628.678 523.799 628.975 523.799C629.263 520.633 629.551 517.466 629.848 514.203Z" fill="#E08F49"/>
<path d="M581.544 408.384C589.936 407.946 594.527 409.543 601.037 414.75C602.057 415.487 602.057 415.487 603.097 416.239C614.364 424.528 623.025 434.654 625.482 448.773C625.646 451.99 625.646 451.99 625.482 454.008C623.43 452.021 621.458 450.06 619.641 447.853C611.422 437.944 599.419 430.651 586.451 429.342C565.287 428.651 545.364 437.328 525.883 444.504C518.251 447.31 510.571 449.968 502.874 452.59C501.694 452.994 500.514 453.397 499.334 453.8C495.697 455.042 492.06 456.283 488.414 457.497C489.819 446.714 496.273 438.405 504.276 431.418C525.256 415.432 555.943 410.453 581.544 408.384Z" fill="#03292B"/>
<path d="M472.699 597.081C477.622 599.013 480.293 603.491 482.514 608.088C484.322 613.768 483.793 619.613 481.43 624.997C481.178 625.861 480.926 626.725 480.666 627.615C477.102 637.111 467.546 642.2 458.84 646.208C450.51 649.847 441.957 649.706 433.492 646.631C422.145 642.16 411.816 637.181 406.279 625.655C404.266 619.643 404.361 612.855 406.781 607.014C410.761 600.11 410.761 600.11 413.332 598.826C412.468 602.28 411.603 605.735 410.713 609.294C432.051 612.807 454.876 615.404 476.191 610.167C475.944 608.639 475.687 607.112 475.428 605.587C475.286 604.736 475.144 603.886 474.998 603.01C474.49 600.769 473.827 599.069 472.699 597.081Z" fill="#E08F49"/>
<path d="M437.627 665.237C443.507 666.632 448.976 666.282 454.802 664.746C463.626 662.441 472.29 662.337 481.375 662.347C481.976 662.346 482.578 662.346 483.197 662.345C490.764 662.346 498.195 662.591 505.699 663.63C513.009 664.609 520.341 664.402 527.701 664.255C524.557 668.222 520.679 669.266 516.024 670.744C515.204 671.007 514.384 671.271 513.54 671.543C495.615 677.165 477.183 679.869 458.653 682.662C455.952 683.07 453.253 683.488 450.558 683.938C443.345 685.134 436.903 684.029 429.882 682.319C423.223 680.765 416.51 679.892 409.731 679.031C393.043 676.88 378.285 674.673 363.568 666C363.568 665.424 363.568 664.848 363.568 664.255C416.423 659.962 416.423 659.962 437.627 665.237Z" fill="#BE2B33"/>
<path d="M385 684.13C389.718 684.593 394.435 685.058 399.153 685.526C400.751 685.683 402.349 685.841 403.948 685.997C411.809 686.768 419.658 687.56 427.489 688.595C432.653 689.255 437.69 689.643 442.894 689.583C444.041 689.576 444.041 689.576 445.212 689.569C453.14 689.456 460.957 688.647 468.812 687.62C469.932 687.474 471.052 687.328 472.206 687.177C474.326 686.893 476.446 686.607 478.566 686.318C497.278 683.838 497.278 683.838 506.354 684.13C498.585 696.32 485.747 704.254 472.305 708.83C471.373 709.148 471.373 709.148 470.423 709.472C461.437 712.345 452.455 713.221 443.058 713.192C441.699 713.213 441.699 713.213 440.312 713.235C417.915 713.249 401.444 701.49 386.221 686.339C385 685.003 385 685.003 385 684.13Z" fill="#FFFAF0"/>
<path d="M533.813 440.922C534.619 444.029 535.136 447.124 535.613 450.3C535.844 451.832 535.844 451.832 536.08 453.394C536.196 454.173 536.312 454.951 536.432 455.753C535.608 456.102 534.784 456.452 533.935 456.812C516.712 464.341 505.377 475.137 498.018 492.393C497.013 495.003 496.168 497.554 495.398 500.245C494.606 500.299 493.814 500.353 492.998 500.408C488.877 500.968 485.316 502.737 481.57 504.47C478.263 505.679 475.326 506.02 471.826 506.352C469.138 517.941 467.606 529.479 466.623 541.318C466.528 542.402 466.433 543.487 466.336 544.604C466.257 545.576 466.179 546.547 466.098 547.549C465.715 549.971 465.715 549.971 463.969 552.589C463.191 548.565 462.932 544.642 462.888 540.556C462.875 539.588 462.875 539.588 462.862 538.6C462.576 511.481 462.576 511.481 466.588 499.372C466.869 498.507 466.869 498.507 467.155 497.624C471.147 485.736 477.311 475.876 486.303 467.22C488.418 464.471 488.722 463.407 489.366 460.158C490.522 456.153 490.522 456.153 492.601 454.527C494.666 453.611 496.701 452.943 498.874 452.321C499.648 452.068 500.422 451.816 501.22 451.556C503.69 450.758 506.172 450.011 508.658 449.264C510.312 448.741 511.966 448.214 513.618 447.685C516.67 446.709 519.727 445.755 522.791 444.819C526.526 443.663 530.166 442.33 533.813 440.922Z" fill="#E08F49"/>
<path d="M657.785 506.352C665.473 513.794 671.883 521.938 677.865 530.779C678.304 531.387 678.743 531.995 679.195 532.622C684.185 540.597 681.537 553.494 679.642 562.069C676.945 573.239 673.11 588.747 664.77 597.081C664.263 596.481 663.757 595.882 663.235 595.264C662.553 594.478 661.871 593.692 661.168 592.882C660.5 592.103 659.831 591.324 659.142 590.521C654.532 586.048 649.991 585.265 643.816 584.867C643.961 584.021 644.106 583.175 644.256 582.303C644.933 578.342 645.603 574.38 646.272 570.418C646.392 569.706 646.513 568.994 646.637 568.26C648.266 558.587 649.776 548.921 650.855 539.168C650.94 538.432 651.026 537.695 651.115 536.937C651.182 536.31 651.249 535.682 651.318 535.036C651.674 533.396 651.674 533.396 653.42 530.779C654.276 532.614 655.131 534.449 655.984 536.286C656.461 537.308 656.937 538.33 657.427 539.383C661.576 548.605 660.364 560.714 656.912 570.036C661.595 565.25 663.734 560.721 665.643 554.333C665.894 553.529 665.894 553.529 666.151 552.708C668.823 539.056 664.944 523.93 659.354 511.477C658.636 509.788 658.185 508.14 657.785 506.352Z" fill="#E08F49"/>
<path d="M575.719 143.435C597.394 142.135 616.728 155.623 632.31 169.123C636.486 172.841 640.429 176.607 644.031 180.883C646.47 183.766 649.034 186.536 651.575 189.328C653.428 191.425 655.181 193.58 656.912 195.779C656.48 196.642 656.48 196.642 656.039 197.523C655.362 196.975 654.684 196.426 653.986 195.86C639.503 184.315 622.874 174.481 603.875 174.514C603.117 174.514 602.359 174.514 601.578 174.514C593.735 174.652 587.093 176.527 580.084 180.076C580.072 179.108 580.072 179.108 580.059 178.121C579.839 160.474 579.839 160.474 575.719 143.435Z" fill="#F8AC27"/>
<path d="M286.74 639.392C289.318 640.295 293.645 664.993 295.058 667.38C295.464 668.31 295.871 669.24 296.289 670.198C296.74 671.224 297.192 672.25 297.657 673.306C298.843 676.178 299.954 679.063 301.036 681.976C302.889 686.898 305.097 691.53 307.495 696.201C309.171 699.472 310.788 702.757 312.325 706.096C312.831 707.193 312.831 707.193 313.349 708.312C313.996 709.721 314.637 711.132 315.27 712.546C317.16 716.637 319.348 720.06 322.126 723.605C324.193 726.375 325.779 729.391 327.446 732.411C331.69 739.856 336.83 746.08 342.615 752.367C344 753.892 345.383 755.418 346.762 756.947C347.316 757.546 347.87 758.144 348.44 758.76C349.6 760.219 349.6 760.219 349.6 761.964C350.176 761.964 350.752 761.964 351.346 761.964C352.669 763.245 352.669 763.245 354.183 765.017C354.727 765.651 355.27 766.285 355.83 766.939C357.34 768.799 358.741 770.701 360.131 772.65C362.344 775.686 364.754 777.39 367.934 779.411C369.134 781.374 369.134 781.374 369.68 782.901C366.224 782.901 365.605 781.813 363.132 779.466C359.999 776.554 356.819 773.789 353.474 771.124C349.711 768.084 346.274 764.878 342.932 761.384C341.196 759.669 339.428 758.079 337.582 756.487C333.845 753.247 330.333 749.82 326.846 746.315C326.262 745.735 325.679 745.155 325.078 744.558C285.698 705.132 283.079 699.897 280.629 678.214C281.042 676.257 281.915 678.438 282.375 676.905C280.629 671.671 283.388 673.119 283.685 673.415C286.386 664.716 284.203 648.14 286.74 639.392Z" fill="#E08F49"/>
<path d="M127.846 455.753C131.139 456.196 133.7 457.301 136.633 458.83C147.637 464.527 159.575 467.437 171.498 470.583C170.634 471.159 169.769 471.735 168.879 472.328C168.054 474.592 167.371 476.77 166.751 479.089C166.567 479.746 166.382 480.404 166.193 481.081C165.813 482.437 165.437 483.794 165.065 485.153C164.235 488.174 163.363 491.182 162.495 494.193C162.003 495.919 161.512 497.645 161.021 499.372C148.223 499.082 133.841 498.319 123.48 489.776C122.3 486.068 122.815 482.957 123.446 479.164C123.59 478.282 123.59 478.282 123.737 477.383C123.941 476.146 124.148 474.91 124.359 473.674C124.681 471.784 124.992 469.892 125.302 468C126.822 458.822 126.822 458.822 127.846 455.753Z" fill="#EF8617"/>
<path d="M566.988 485.414C576.796 487.57 585.291 490.228 591.799 498.289C592.488 500.942 591.529 502.343 590.191 504.637C589.862 505.167 589.534 505.697 589.196 506.243C588.892 506.765 588.588 507.288 588.274 507.827C582.303 517.847 572.87 526.651 561.321 529.587C555.425 530.674 549.734 531.085 543.743 531.051C542.834 531.048 541.924 531.044 540.987 531.04C526.384 530.829 508.479 528.337 497.308 517.969C496.966 517.59 496.624 517.211 496.271 516.82C499.63 509.118 509.42 498.451 517.225 495.01C517.801 495.298 518.377 495.586 518.971 495.883C518.683 496.746 518.394 497.61 518.098 498.5C517.387 505.178 518.241 511.807 522.364 517.25C528.587 523.87 535.656 527.269 544.726 527.671C551.641 527.603 557.267 525.032 562.575 520.654C568.097 514.817 570.124 507.193 570.579 499.349C570.425 495.304 569.301 491.785 567.861 488.031C567.429 486.736 567.429 486.736 566.988 485.414Z" fill="#FFF8E8"/>
<path d="M309.439 430.453C317.814 431.188 325.921 432.418 334.103 434.379C334.882 434.565 335.661 434.752 336.464 434.944C340.087 435.84 343.56 436.779 346.98 438.305C346.116 438.88 345.252 439.456 344.361 440.049C342.907 443.9 342.354 446.55 343.488 450.518C343.488 451.094 343.488 451.67 343.488 452.263C344.641 452.839 345.793 453.415 346.98 454.008C346.472 454.042 345.963 454.077 345.439 454.113C326.984 455.164 326.984 455.164 309.767 461.314C306.82 462.732 306.82 462.732 304.31 462.35C303.41 461.9 302.51 461.45 301.582 460.987C300.461 460.442 300.461 460.442 299.318 459.886C297.149 458.824 294.997 457.735 292.852 456.625C294.814 463.004 296.892 467.536 301.582 472.328C294.806 474.585 287.456 472.749 280.629 471.456C281.493 471.024 281.493 471.024 282.375 470.583C282.499 469.939 282.623 469.295 282.75 468.631C283.332 465.815 284.397 464.091 285.976 461.696C286.521 460.866 287.066 460.036 287.627 459.181C289.801 455.974 292.012 452.795 294.263 449.642C295.498 447.95 295.498 447.95 296.344 446.156C296.92 446.156 297.496 446.156 298.09 446.156C298.252 445.544 298.414 444.933 298.581 444.302C300.074 441.318 301.858 439.925 304.416 437.855C306.406 436.172 307.955 434.335 309.439 432.198C309.439 431.622 309.439 431.046 309.439 430.453Z" fill="#ED8233"/>
<path d="M324.281 487.159C323.849 488.094 323.417 489.03 322.972 489.994C320.285 497.263 320.974 504.466 324.169 511.429C327.398 517.659 332.091 523.44 338.884 526.004C345.869 527.455 353.7 527.512 360.083 524.082C366.897 519.556 370.593 514.955 373.172 507.224C373.311 502.994 373.133 499.176 372.299 495.01C376.176 496.255 378.776 498.366 381.684 501.117C382.362 501.748 382.362 501.748 383.054 502.391C387.297 506.39 391.197 510.654 394.998 515.075C385.355 525.278 372.596 529.428 358.83 530.039C355.462 530.126 352.096 530.166 348.726 530.179C347.633 530.184 346.539 530.189 345.412 530.194C332.095 530.089 321.437 526.162 311.68 516.81C309.134 513.848 307.134 510.846 305.238 507.442C304.772 506.623 304.772 506.623 304.296 505.788C302.856 502.976 302.401 501.407 302.987 498.275C306.06 492.221 311.988 489.385 318.17 487.159C320.87 486.293 321.464 486.22 324.281 487.159Z" fill="#FFF8E8"/>
<path d="M236.977 529.034C237.265 529.034 237.553 529.034 237.85 529.034C237.915 529.886 237.98 530.739 238.047 531.617C238.905 541.486 240.473 551.186 242.215 560.931C242.33 561.574 242.444 562.216 242.563 562.879C243.826 569.932 245.131 576.976 246.58 583.995C245.982 584.075 245.383 584.155 244.766 584.237C238.998 585.064 234.968 586.793 230.865 590.974C229.213 593.208 227.797 595.498 226.5 597.953C221.873 592.636 219.969 585.64 217.933 579.033C217.63 578.085 217.63 578.085 217.321 577.117C216.186 573.291 215.71 570.476 216.896 566.547C218.288 564.029 218.288 564.029 219.952 561.585C221.623 559.112 222.935 557.169 223.881 554.333C224.457 554.333 225.033 554.333 225.627 554.333C225.934 554.955 226.241 555.577 226.558 556.218C229.51 561.94 232.729 567.914 238.723 570.909C238.491 570.36 238.259 569.811 238.02 569.246C232.192 555.133 232.771 543.481 236.977 529.034Z" fill="#E08F49"/>
<path d="M485.062 262.531C489.456 264.826 492.334 267.554 495.126 271.623C495.633 272.35 496.141 273.078 496.664 273.827C497.975 275.969 498.908 278.046 499.764 280.401C498.84 280.086 497.916 279.771 496.964 279.447C474.731 272.437 451.039 275.45 429.408 283.297C427.301 283.891 427.301 283.891 425.555 283.018C441.391 267.513 462.349 253.258 485.062 262.531Z" fill="#E26B25"/>
<path d="M537.196 487.813C539.447 487.853 540.56 487.898 542.543 489.013C543.856 491.473 543.808 493.14 543.416 495.883C541.997 498.009 541.997 498.009 539.924 499.372C537.25 499.212 535.331 498.823 532.939 497.628C533.961 503.011 535.213 505.91 539.051 509.841C541.513 511.071 543.303 510.928 546.035 510.713C548.402 509.469 548.402 509.469 550.4 508.096C550.977 508.096 551.553 508.096 552.146 508.096C554.627 503.316 555.858 499.771 555.748 494.302C555.732 493.288 555.716 492.275 555.7 491.231C555.68 490.463 555.66 489.695 555.639 488.904C558.314 489.201 559.821 489.639 561.999 491.262C564.777 494.98 563.958 499.303 563.496 503.734C562.214 510.012 558.511 514.77 553.347 518.456C547.752 521.104 541.661 521.049 535.777 519.383C531.332 516.735 527.881 512.947 525.955 508.096C525.662 505.558 525.662 505.558 525.628 502.807C525.603 501.898 525.578 500.988 525.553 500.051C525.955 497.628 525.955 497.628 527.558 495.995C529.447 495.01 529.447 495.01 532.066 495.01C532.192 494.021 532.318 493.031 532.448 492.012C533.07 488.079 533.07 488.079 537.196 487.813Z" fill="#068280"/>
<path d="M397.617 732.302C398.698 732.887 398.698 732.887 399.8 733.485C414.344 741.092 428.888 744.867 445.362 744.788C446.442 744.783 447.521 744.778 448.634 744.773C461.155 744.608 471.989 742.141 483.657 737.717C486.668 736.664 486.668 736.664 489.287 736.664C478.804 747.542 465.194 753.904 450.044 754.289C448.083 754.308 446.122 754.321 444.161 754.33C443.194 754.348 442.227 754.366 441.23 754.385C424.349 754.463 411.32 747.351 399.254 735.901C397.617 734.047 397.617 734.047 397.617 732.302Z" fill="#052628"/>
<path d="M340.105 487.541C342.615 488.031 342.615 488.031 344.252 488.958C345.813 491.644 345.613 493.727 345.234 496.755C343.761 498.445 343.761 498.445 341.742 499.372C339.341 499.536 339.341 499.536 337.377 499.372C339.323 505.754 339.323 505.754 344.361 509.841C347.098 510.363 349.488 510.416 352.219 509.841C355.57 507.347 357.024 505.014 358.33 501.117C358.573 499.289 358.754 497.451 358.876 495.61C358.941 494.678 359.006 493.746 359.074 492.785C359.116 492.08 359.159 491.375 359.203 490.648C361.748 491.585 363.375 492.2 365.314 494.138C366.735 498.331 366.644 502.866 366.187 507.224C364.714 510.168 364.714 510.168 362.695 512.458C362.047 513.214 361.399 513.97 360.731 514.748C356.1 518.745 351.652 520.972 345.436 520.64C339.827 519.688 335.811 516.809 332.357 512.373C328.46 506.447 328.11 500.219 327.773 493.266C328.593 493.32 329.412 493.374 330.256 493.429C331.165 493.375 332.075 493.321 333.012 493.266C333.732 492.402 334.452 491.538 335.194 490.648C337.377 488.031 337.377 488.031 340.105 487.541Z" fill="#06817F"/>
<path d="M486.668 466.221C486.668 469.728 485.099 472.136 483.503 475.163C472.449 496.784 467.953 519.861 466.311 543.981C466.256 544.731 466.201 545.481 466.145 546.253C466.103 546.911 466.061 547.568 466.018 548.245C465.715 549.971 465.715 549.971 463.969 552.589C463.191 548.565 462.932 544.642 462.888 540.556C462.875 539.588 462.875 539.588 462.862 538.6C462.576 511.481 462.576 511.481 466.588 499.372C466.775 498.795 466.962 498.218 467.155 497.624C471.225 485.501 477.761 475.348 486.668 466.221Z" fill="#11232A"/>
<path d="M472.699 597.081C477.622 599.013 480.293 603.491 482.514 608.088C484.037 612.872 483.892 618.23 482.466 623.017C480.761 626.275 477.753 627.288 474.445 628.487C471.81 629.186 469.164 629.805 466.506 630.412C464.137 631.058 462.201 631.864 460.04 633.013C456.984 634.594 456.984 634.594 453.492 634.594C454.719 628.962 456.639 625.39 461.189 621.777C465.582 619.146 470.343 619.756 475.318 619.763C475.39 617.291 475.441 614.821 475.482 612.348C475.504 611.657 475.526 610.967 475.549 610.255C475.61 605.263 474.701 601.659 472.699 597.081Z" fill="#0A252A"/>
<path d="M412.459 598.826C412.747 599.401 413.035 599.977 413.332 600.57C413.064 601.31 412.796 602.05 412.52 602.813C411.368 606.502 411.392 609.715 411.477 613.547C411.489 614.573 411.489 614.573 411.501 615.619C411.521 617.291 411.552 618.963 411.586 620.635C412.368 620.496 413.15 620.357 413.956 620.213C418.434 619.51 422.718 619.033 427.028 620.635C431.449 624.457 434.602 628.88 436.031 634.594C431.769 634.361 428.936 633.836 425.282 631.595C421.512 629.32 418.111 628.658 413.792 628.017C410.979 627.504 408.759 626.519 406.348 624.997C404.248 620.801 404.687 614.762 405.475 610.167C407.184 606.113 409.309 601.974 412.459 598.826Z" fill="#08252B"/>
<path d="M648.454 595.936C651.131 595.991 652.387 596.123 654.784 597.408C656.751 600.997 656.578 604.425 656.039 608.422C654.67 611.636 653.038 613.761 649.928 615.401C644.629 615.958 644.629 615.958 642.34 614.389C639.927 610.999 640.794 606.28 641.197 602.315C643.627 596.086 643.627 596.086 648.454 595.936Z" fill="#1FA49B"/>
<path d="M246.58 594.464C251.143 598.777 251.03 603.323 251.232 609.219C250.867 611.536 250.195 612.272 248.326 613.656C244.512 614.16 242.655 613.9 239.268 612.021C236.87 610.08 236.219 609.488 235.896 606.497C235.72 600.325 235.72 600.325 237.74 597.026C240.682 594.347 242.618 593.988 246.58 594.464Z" fill="#21ABA1"/>
<path d="M624.609 458.37C629.047 462.804 628.195 472.188 628.22 478.178C628.206 481.463 628.164 484.746 628.102 488.031C622.415 489.488 617.315 490.003 611.459 489.885C610.703 489.877 609.948 489.869 609.169 489.861C607.331 489.841 605.494 489.81 603.656 489.776C605.402 488.031 605.402 488.031 608.567 486.995C614.022 485.023 618.397 481.237 621.445 476.308C624.204 470.264 624.885 464.986 624.609 458.37Z" fill="#F59F44"/>
<path d="M533.812 488.031C539.785 487.463 539.785 487.463 542.543 489.013C543.856 491.473 543.808 493.14 543.416 495.883C541.997 498.009 541.997 498.009 539.924 499.372C537.142 499.316 535.401 498.953 533.049 497.464C531.594 495.122 531.785 493.346 532.066 490.648C532.643 489.785 533.219 488.921 533.812 488.031Z" fill="#FFFBF3"/>
<path d="M342.615 488.031C344.252 488.958 344.252 488.958 345.234 490.648C345.616 493.702 345.616 493.702 345.234 496.755C343.421 498.835 342.261 499.282 339.56 499.754C337.377 499.372 337.377 499.372 335.303 497.955C333.885 495.883 333.885 495.883 333.939 493.211C335.509 488.298 337.472 487.389 342.615 488.031Z" fill="#FFFBF3"/>
</g>
<defs>
<clipPath id="clip0_25_322">
<rect width="900" height="900" fill="white"/>
</clipPath>
</defs>
</svg>
