<svg width="900" height="900" viewBox="0 0 900 900" fill="none" xmlns="http://www.w3.org/2000/svg">
<g clip-path="url(#clip0_2055_2)">
<path d="M359.588 29.9493C364.065 33.7571 368.602 37.0832 373.794 39.8495C374.455 40.1921 375.097 40.5243 375.739 40.8568C390.805 48.9954 390.805 48.9955 424.631 49.1312C428.52 49.1443 432.409 49.1729 436.299 49.2071C438.808 49.2314 441.318 49.255 443.827 49.2777C454.967 49.3172 466.166 49.3666 477.085 51.8064C477.917 51.9994 478.724 52.1871 479.531 52.3744C492.001 54.8646 503.424 59.4801 513.23 67.6957C513.708 68.1217 514.172 68.536 514.636 68.9495C514.967 68.2865 515.289 67.6427 515.611 66.9992C509.789 54.159 498.34 45.4966 486.107 39.1878C485.177 38.7197 484.273 38.265 483.37 37.8107C480.723 36.4525 478.075 35.0944 475.421 33.7509C474.829 33.453 474.254 33.1634 473.68 32.8742C475.958 32.7915 478.235 32.7276 480.514 32.6751C508.958 32.2546 541.088 38.5814 562.312 59.0198C563.011 59.7437 563.69 60.4467 564.368 61.1493C573.897 70.8261 581.063 80.4687 585.869 93.287C586.948 96.1792 587.997 98.5371 589.722 101.124C591.329 97.0656 591.936 93.571 591.994 89.262C591.988 88.5298 591.982 87.8191 591.977 87.1084C591.939 82.0611 591.99 77.307 589.757 72.6742C589.414 72.0708 589.08 71.4845 588.747 70.8988C586.108 65.7531 583.464 61.3632 579.057 57.5542C575.199 54.4325 571.727 51.0543 568.269 47.4991C574.868 47.4991 581.369 48.8785 587.772 50.424C605.122 55.6282 619.897 66.8797 629.093 82.5797C629.894 84.0663 629.894 84.0666 630.678 85.5236C631.74 87.4762 632.793 89.4325 633.825 91.401C634.185 92.0961 634.534 92.7715 634.883 93.4461C636.595 96.7099 638.308 99.7057 638.754 103.402C639.017 105.869 639.317 107.674 640.43 109.899C642.913 111.534 645.311 112.406 648.131 113.343C650.262 113.982 652.382 114.658 654.49 115.368C655.584 115.747 656.647 116.115 657.709 116.483C672.276 121.509 687.779 130.907 698.326 142.244C698.866 142.849 699.39 143.436 699.914 144.023C708.456 153.105 715.848 162.269 721.754 173.256C732.212 192.897 744.199 211.91 765.614 220.864C768.827 222.106 771.946 223.348 775 224.947C767.705 230.102 760.735 232.929 751.719 232.869C748.484 232.727 745.938 232.878 742.82 233.722C761.582 266.976 765.69 299.752 758.422 337.071H756.472C755.3 332.882 754.069 328.724 752.713 324.59C752.499 323.944 752.291 323.317 752.084 322.69C750.915 319.072 749.829 315.895 747.696 312.696C747.586 313.577 747.479 314.432 747.373 315.286C747.213 316.56 747.059 317.797 746.904 319.034C746.411 322.967 745.917 326.9 745.435 330.834C743.557 346.203 741.472 361.535 739.285 376.862C738.826 380.072 738.369 383.282 737.914 386.492C737.766 387.534 737.623 388.545 737.48 389.557C736.444 396.75 735.613 403.927 735.019 411.171C741.548 411.828 747.926 412.109 753.078 416.51C766.734 430.56 768.39 450.068 768.419 468.717C768.419 469.414 768.419 470.091 768.418 470.767C768.398 493.824 763.234 515.946 753.886 537.032C748.85 548.359 744.708 559.25 741.967 571.373C738.797 586.277 734.607 600.419 723.988 611.835C715.913 619.367 706.567 623.868 695.548 623.814C694.775 623.805 694.024 623.795 693.274 623.786C691.764 623.776 690.254 623.767 688.744 623.757C686.998 623.737 686.998 623.737 685.287 623.718C684.785 630.627 684.273 637.536 683.744 644.444C683.471 647.987 683.198 651.53 682.939 655.075C681.928 669.097 681.385 683.207 677.483 696.785C677.152 697.799 676.831 698.783 676.51 699.767C674.85 704.993 673.368 710.351 670.655 715.149C669.202 717.554 667.783 719.972 666.414 722.426C648.426 749.783 627.917 779.369 618.981 787.156C602.266 801.722 574.769 855.67 558.054 865.92C541.34 876.17 480.413 874.551 463.699 872.393C446.984 870.236 409.242 872.933 387.136 870.236C365.03 867.538 323.514 824.38 293.859 792.012C274.761 771.165 250.655 738.897 235.324 717.444C234.323 712.701 232.554 708.193 229.59 703.398C221.557 683.123 221.557 683.123 219.846 661.065C218.586 647.554 216.453 634.182 214.291 620.793C212.239 620.849 210.186 620.902 208.134 620.936C206.842 620.956 206.842 620.956 205.576 620.976C194.808 621.302 187.19 618.451 178.005 612.871C165.563 604.508 157.843 590.891 154.529 576.533C151.579 563.664 147.74 552.684 141.391 541.101C135.845 530.992 130.832 520.96 127.995 509.734C127.828 509.041 127.665 508.368 127.503 507.695C124.627 495.882 124.298 483.987 124.225 471.887C124.22 471.05 124.216 470.238 124.212 469.426C124.047 452.707 125.02 436.366 133.719 421.564C139.043 413.797 145.737 410.914 154.685 408.714C155.731 408.477 155.732 408.478 156.757 408.246C156.873 404.67 156.547 401.236 156.064 397.693C155.958 396.946 155.855 396.22 155.752 395.494C155.408 393.054 155.059 390.614 154.703 388.176C154.572 387.292 154.446 386.435 154.319 385.577C152.537 373.466 150.486 361.513 147.503 349.637C147.334 348.97 147.17 348.321 147.006 347.674C146.347 345.065 145.686 342.456 145.025 339.847C140.325 321.358 135.881 302.959 137.085 283.754C137.142 282.987 137.198 282.241 137.254 281.496C138.162 269.313 140.656 256.855 145.36 245.544C146.384 243.297 146.385 243.297 147.006 241.523C146.674 240.86 146.352 240.216 146.031 239.572C136.766 250.688 131.795 263.36 128.295 277.231C128.025 278.35 127.764 279.436 127.503 280.522C121.658 268.835 122.089 252.605 125.468 240.2C125.828 238.992 126.178 237.82 126.528 236.647C134.309 210.518 152.513 187.801 173.639 171.079C177.031 168.409 180.135 165.696 183.086 162.548C173.342 160.219 165.439 156.351 159.683 147.924C154.583 139.813 154.716 130.781 156.757 121.599H158.708V123.548C163.183 127.878 168.67 130.779 174.832 131.729C193.829 132.512 211.619 120.881 226.134 109.819C268.322 77.6428 313.853 62.812 366.578 62.1524C367.517 62.143 368.428 62.133 369.339 62.1239C368.541 61.1706 367.766 60.2454 366.991 59.3201C358.966 49.736 356.02 40.5108 356.662 28C357.657 28.6629 358.622 29.3059 359.588 29.9493Z" fill="black"/>
<path d="M459.732 251C459.732 368.264 459.732 485.527 459.732 606.345C452.956 606.345 449.316 606.215 443.484 603.782C442.824 603.521 442.164 603.261 441.485 602.992C439.417 602.171 437.358 601.331 435.299 600.487C433.256 599.665 431.211 598.846 429.166 598.028C427.334 597.293 425.506 596.547 423.678 595.801C414.313 592.193 407.171 593.58 398.161 597.559C395.165 599.085 392.246 600.706 389.365 602.44C387.876 599.465 388.432 596.466 388.632 593.227C388.675 592.504 388.718 591.781 388.762 591.036C389.355 582.387 390.806 573.876 392.297 565.343C388.751 567.165 388.751 567.165 386.433 570.224C385.788 570.224 385.143 570.224 384.478 570.224C384.237 570.889 383.995 571.553 383.745 572.238C382.777 574.511 381.761 576.472 380.508 578.583C376.816 585.127 376.588 592.225 378.34 599.5C380.391 605.607 382.619 610.158 388.518 613.319C391.579 614.232 394.141 614.139 397.308 613.927C406.766 613.347 412.956 615.328 420.77 620.715C424.202 623.066 427.733 625.261 431.268 627.455C432.371 628.144 432.371 628.144 433.498 628.846C441.71 633.838 450.411 637.209 459.732 639.536C459.732 649.523 459.732 659.51 459.732 669.799C450.724 670.491 444.99 670.789 436.704 668.884C408.725 663.227 379.195 669.686 354.957 684.812C352.104 686.757 350.249 688.383 348.318 691.276C348.318 692.242 348.318 693.209 348.318 694.205C353.321 693.63 357.84 692.467 362.611 690.849C382.823 684.301 405.659 683.574 426.503 687.371C437.57 689.24 448.529 689.872 459.732 690.3C459.756 694.314 459.774 698.328 459.786 702.342C459.791 703.708 459.797 705.075 459.806 706.441C459.817 708.401 459.822 710.362 459.827 712.322C459.832 713.503 459.838 714.684 459.843 715.901C459.732 718.61 459.732 718.61 458.755 719.586C457.363 719.692 455.966 719.732 454.57 719.744C453.678 719.753 452.786 719.762 451.868 719.772C450.892 719.776 449.917 719.78 448.913 719.785C447.908 719.79 446.903 719.796 445.867 719.802C443.726 719.811 441.585 719.817 439.443 719.821C436.215 719.83 432.988 719.86 429.76 719.891C419.607 719.941 410.019 719.778 400.138 717.314C395.309 716.242 389.046 715.353 384.478 717.634C388.732 723.078 393.608 727.456 398.989 731.774C400.371 732.883 401.714 734.04 403.047 735.206C403.047 735.85 403.047 736.495 403.047 737.158C404.673 737.818 406.303 738.466 407.934 739.111C408.536 739.357 409.138 739.604 409.759 739.858C410.406 740.115 411.054 740.372 411.721 740.636C412.323 740.879 412.926 741.122 413.546 741.372C419.255 743.099 425.054 743.152 430.958 743.111C431.73 743.11 432.501 743.108 433.295 743.107C435.735 743.101 438.174 743.089 440.613 743.077C442.277 743.072 443.941 743.067 445.605 743.063C449.662 743.053 453.72 743.036 457.777 743.016C460.065 746.591 460.015 750.022 459.991 754.128C459.995 755.222 459.995 755.222 459.999 756.339C460.003 758.772 459.991 761.205 459.976 763.638C459.974 764.893 459.974 764.893 459.971 766.172C459.916 789.059 458.84 811.922 457.777 834.781C452.232 836.662 447.32 837.02 441.487 836.992C440.144 836.995 440.144 836.995 438.774 836.998C436.886 836.999 434.998 836.996 433.109 836.988C430.255 836.977 427.401 836.987 424.547 837C398.139 837.023 379.74 828.97 361.023 810.375C319.062 768.522 315.394 704.372 311.339 648.55C308.501 609.676 302.804 582.284 277.852 551.226C275.996 548.748 275.996 548.748 275.019 545.819C274.374 545.819 273.729 545.819 273.064 545.819C271.9 544.522 271.9 544.522 270.56 542.646C268.821 540.243 267.08 537.852 265.272 535.5C255.525 522.813 246.426 510.121 240.813 495.055C240.463 494.246 240.112 493.437 239.751 492.603C236.27 483.137 235.979 468.451 239.53 458.996C241.357 455.379 243.335 452.533 246.677 450.149C249.83 449.362 251.615 449.668 254.491 451.164C263.507 456.91 271.512 464.162 279.356 471.382C279.934 471.912 280.511 472.442 281.107 472.988C284.269 475.933 287.011 478.953 289.679 482.365C301.143 493.944 314.529 501.102 330.787 501.218C338.953 501.224 345.736 500.559 353.204 497.008C354.278 496.533 355.351 496.059 356.457 495.57C364.016 491.924 369.392 487.676 373.728 480.412C374.43 478.283 374.43 478.283 374.705 476.507C369.586 477.151 364.683 478.194 359.679 479.436C353.943 480.81 348.366 482.112 342.454 482.365C340.91 482.457 340.91 482.457 339.335 482.551C322.852 483.112 308.849 476.36 296.581 465.708C295.572 464.764 294.569 463.813 293.588 462.84C294.565 459.911 294.565 459.911 296.703 458.626C302.486 456.067 307.883 454.2 314.112 453.078C314.385 453.644 314.658 454.21 314.94 454.794C318.618 461.953 322.869 467.142 330.726 469.674C338.21 470.497 345.072 470.412 351.25 465.769C357.145 460.198 358.363 452.041 359.068 444.292C365.267 447.042 369.204 450.104 373.671 455.274C374.355 456.06 375.039 456.845 375.744 457.654C376.38 458.403 377.016 459.151 377.672 459.923C380.851 463.136 382.816 463.773 387.349 464.06C390.662 463.986 393.212 463.359 396.206 461.864C395.904 460.958 395.602 460.052 395.29 459.118C394.618 457.105 393.946 455.091 393.274 453.078C396.962 452.735 398.684 452.779 401.826 454.847C404.795 457.731 405.925 459.191 406.239 463.374C406.244 464.742 406.239 466.11 406.224 467.477C406.231 468.152 406.239 468.826 406.247 469.521C406.229 474.119 405.373 477.938 404.025 482.365C404.025 483.653 404.025 484.942 404.025 486.269C404.569 485.537 405.113 484.805 405.674 484.05C416.428 469.643 416.428 469.643 420.639 464.793C420.962 464.793 421.284 464.793 421.617 464.793C422.014 489.892 420.862 514.897 419.662 539.962C424.016 541.411 424.016 541.411 428.458 542.89C431.149 516.272 432.959 489.736 433.839 462.996C433.991 458.388 434.151 453.78 434.322 449.173C434.365 447.979 434.365 447.979 434.41 446.761C434.494 444.608 434.595 442.456 434.703 440.303C434.758 439.134 434.812 437.964 434.869 436.759C435.335 433.282 436.356 430.576 437.803 427.391C445.418 409.274 438.026 385.936 432.367 368.147C431.188 371.679 431.164 375.019 431.023 378.702C430.342 392.596 428.341 404.326 417.707 414.029C416.881 414.794 416.054 415.559 415.203 416.348C412.261 418.307 410.494 418.648 406.957 418.91C405.81 419.003 405.81 419.003 404.639 419.097C392.636 419.636 382.589 414.798 372.205 409.415C367.378 406.918 362.461 404.621 357.541 402.314C351.587 399.517 345.753 396.613 340.011 393.406C327.814 386.661 311.003 378.094 296.787 381.471C282.353 385.921 270.971 394.006 259.901 403.988C258.405 405.243 258.405 405.243 257.427 405.243C257.567 403.595 257.711 401.948 257.855 400.301C257.934 399.384 258.014 398.466 258.095 397.521C258.306 395.465 258.576 393.414 258.898 391.373C259.391 387.6 259.573 383.895 259.615 380.098C259.624 379.382 259.633 378.666 259.643 377.928C259.667 375.603 259.679 373.278 259.687 370.953C259.691 370.158 259.694 369.364 259.698 368.545C259.724 354.05 258.355 340.168 255.92 325.876C255.385 322.727 254.929 319.572 254.495 316.407C255.713 316.193 256.932 315.979 258.187 315.759C272.781 313.088 286.613 309.627 299.353 301.767C301.406 300.787 301.406 300.787 304.338 301.764C305.239 303.796 305.239 303.796 306.049 306.462C310.914 320.582 318.417 329.541 331.642 336.236C345.59 343.019 363.477 347.408 378.809 342.65C381.756 341.504 384.595 340.297 387.41 338.86C384.83 337.893 382.25 336.927 379.592 335.931C379.592 335.609 379.592 335.287 379.592 334.955C383.785 333.666 387.977 332.378 392.297 331.05C389.49 328.947 387.096 327.35 384.051 325.742C377.301 322.024 372.791 317.361 367.864 311.526C367.118 310.7 366.372 309.875 365.604 309.024C361.954 303.758 361.58 298.194 362 292.001C362.968 291.035 362.968 291.035 363.955 290.049C364.228 290.804 364.502 291.559 364.783 292.337C367.461 299.287 370.306 304.419 375.683 309.573C376.359 310.224 377.036 310.874 377.733 311.545C393.935 326.473 413.796 335.247 435.971 335.119C440.433 334.893 444.657 334.095 448.981 333.003C448.981 332.358 448.981 331.714 448.981 331.05C447.046 331.05 445.111 331.05 443.117 331.05C443.117 330.728 443.117 330.406 443.117 330.074C447.471 329.591 447.471 329.591 451.913 329.098C451.913 328.453 451.913 327.809 451.913 327.145C451.346 326.892 450.78 326.639 450.195 326.379C442.514 322.222 437.698 314.451 434.322 306.645C430.742 292.907 435.199 280.394 442.14 268.572C454.487 251 454.487 251 459.732 251Z" fill="#FFCEA3"/>
<path d="M328.674 486C319.543 481.378 299.669 469.893 293.223 460.933L290 455.067L300.206 447.067L336.731 438L363.589 442.267L384 464.133L374.869 476.933L355.531 483.867L328.674 486Z" fill="#FFF8E8"/>
<path d="M581.433 211C596.685 218.554 612.448 227.964 624.322 240.29C625.366 241.357 625.366 241.357 626.432 242.445C631.438 247.787 635.788 253.55 640.111 259.445C643.294 263.76 646.618 267.905 650.083 271.996C664.121 288.596 671.278 304.876 671.354 326.88C671.358 327.852 671.362 328.824 671.366 329.826C671.307 337.537 670.496 344.98 669.141 352.567C668.038 358.964 667.438 365.294 671.171 370.998C681.182 388.067 689.799 409.595 687.681 429.701C685.713 427.292 683.914 425.066 682.442 422.317C680.44 419.309 678.077 417.876 675.01 416.032C674.052 419.989 673.955 423.685 674.035 427.748C673.713 427.748 673.391 427.748 673.06 427.748C672.794 426.497 672.794 426.497 672.523 425.22C672.156 423.602 672.156 423.602 671.781 421.951C671.543 420.875 671.306 419.799 671.061 418.691C670.756 417.813 670.45 416.936 670.136 416.032C669.171 415.71 668.206 415.388 667.211 415.056C666.327 421.701 666.129 428.254 666.115 434.949C666.11 435.808 666.106 436.668 666.102 437.553C666.103 438.372 666.105 439.192 666.107 440.037C666.109 441.14 666.109 441.14 666.111 442.265C666.238 444.371 666.635 446.227 667.211 448.252C670.348 445.825 671.077 444.504 671.918 440.548C672.072 439.131 672.209 437.712 672.329 436.291C672.404 435.564 672.48 434.836 672.557 434.087C672.74 432.301 672.902 430.513 673.06 428.725C673.382 429.369 673.703 430.014 674.035 430.677C675 430.677 675.965 430.677 676.959 430.677C676.637 431.322 676.316 431.966 675.984 432.63C675.341 432.308 674.698 431.986 674.035 431.654C674.356 434.554 674.678 437.453 675.01 440.441C678.994 439.01 678.994 439.01 679.64 436.413C679.72 435.809 679.8 435.205 679.883 434.583C680.848 434.583 681.813 434.583 682.808 434.583C682.808 435.549 682.808 436.516 682.808 437.512C683.451 437.512 684.094 437.512 684.757 437.512C684.757 438.478 684.757 439.445 684.757 440.441C685.4 440.119 686.044 439.796 686.707 439.465C686.632 440.662 686.632 440.662 686.555 441.883C685.703 456.53 685.263 470.562 687.62 485.109C689.169 494.687 690.013 503.956 689.996 513.667C689.998 514.755 689.999 515.843 690 516.965C689.728 537.693 684.017 558.117 669.161 573.224C663.283 578.316 656.267 581.335 648.691 582.987C647.726 582.665 646.761 582.343 645.767 582.011C646.439 581.608 647.111 581.205 647.804 580.79C666.526 569.266 672.461 555.739 677.934 535.146C678.123 534.452 678.313 533.757 678.508 533.041C679.571 529.013 680.21 525.143 680.493 520.989C680.565 519.972 680.638 518.955 680.713 517.908C680.785 516.775 680.785 516.775 680.858 515.619C680.442 516.487 680.026 517.354 679.598 518.247C675.536 526.603 671.192 534.785 666.663 542.896C666.147 543.831 665.631 544.766 665.099 545.73C658.644 557.186 652.818 565.55 639.918 569.318C639.097 569.57 638.275 569.822 637.429 570.081C633.78 571.195 630.122 572.261 626.447 573.285C606.976 578.817 595.383 594.966 585.628 611.888C581.865 618.821 578.754 626.088 575.636 633.328C574.754 635.374 573.857 637.41 572.949 639.443C570.779 644.423 569.131 648.82 568.761 654.26C568.118 654.26 567.474 654.26 566.811 654.26C566.309 653.173 565.806 652.085 565.288 650.965C560.743 641.331 560.743 641.331 552.556 635.466C547.175 635.865 544.783 637.018 541.285 641.08C540.809 641.674 540.332 642.268 539.842 642.88C538.543 644.497 538.543 644.497 536.594 646.449C535.833 648.768 535.151 651.052 534.523 653.406C534.345 654.049 534.168 654.692 533.986 655.355C533.55 656.941 533.121 658.529 532.695 660.118C530.745 657.189 530.745 657.189 529.405 653.833C527.431 649.478 527.431 649.478 523.922 646.449C519.479 645.875 517.14 646.03 513.017 647.731C508.262 652.282 505.827 658.607 504.427 665C503.784 665 503.14 665 502.477 665C501.718 663.41 501.718 663.41 500.943 661.789C500.257 660.377 499.57 658.966 498.883 657.555C498.552 656.859 498.221 656.163 497.88 655.446C494.052 647.465 494.052 647.465 487.125 642.544C481.931 642.544 477.164 643.836 472.26 645.473C472.26 625.175 472.26 604.877 472.26 583.963C476.734 585.084 477.032 585.652 479.449 589.333C480.041 590.207 480.632 591.08 481.242 591.98C482.358 593.726 483.431 595.499 484.448 597.304C486.77 601.687 486.77 601.687 490.826 604.07C493.941 604.116 496.611 603.496 499.553 602.514C499.553 601.87 499.553 601.225 499.553 600.561C500.659 599.493 500.659 599.493 501.788 598.403C508.516 591.459 511.574 580.155 511.709 570.573C510.972 560.539 505.33 551.742 500.586 543.105C494.375 531.799 489.263 520.278 484.499 508.294C484.103 507.316 484.103 507.316 483.698 506.318C482.988 504.565 482.294 502.806 481.601 501.046C478.74 495.483 474.976 492.731 469.336 490.234C469.263 485.147 469.21 480.061 469.175 474.973C469.16 473.247 469.141 471.521 469.115 469.795C468.827 449.767 468.827 449.767 472.26 442.394C472.903 442.071 473.547 441.749 474.209 441.417C474.458 442.96 474.458 442.96 474.712 444.533C476.094 452.855 477.809 460.889 480.104 469.01C480.899 472.136 481.468 475.211 481.949 478.398C483.802 490.359 489.095 500.42 495.189 510.758C500.187 519.262 502.95 527.572 505.402 537.099C506.855 542.273 508.045 546.182 512.225 549.791C512.225 550.436 512.225 551.08 512.225 551.744C512.868 551.744 513.512 551.744 514.174 551.744C514.634 552.645 514.634 552.645 515.104 553.563C515.521 554.352 515.938 555.142 516.368 555.955C516.775 556.736 517.182 557.518 517.601 558.323C519.133 560.66 520.634 561.93 522.947 563.46C525.587 561.469 525.587 561.469 527.821 558.579C527.866 555.825 527.866 555.825 527.349 553.899C526.707 551.146 526.41 548.385 526.054 545.581C525.435 541.431 524.579 537.975 522.825 534.17C520.274 528.433 520.65 522.763 520.998 516.596C524.796 519.752 528.325 522.954 531.72 526.542C541.029 535.929 551.636 542.935 563.887 547.839C561.024 542.624 557.254 539.604 552.521 536.054C550.337 534.249 548.792 532.678 547.316 530.265C547.316 529.298 547.316 528.331 547.316 527.335C548.061 527.524 548.806 527.713 549.574 527.908C571.865 533.335 597.297 535.953 618.196 524.029C629.458 516.065 638.783 505.604 642.843 492.187C643.164 491.543 643.486 490.898 643.817 490.234C644.011 484.208 643.594 478.36 642.961 472.367C642.851 469.911 643.074 468.149 643.817 465.826C644.461 466.148 645.104 466.47 645.767 466.802C646.088 466.158 646.41 465.513 646.742 464.849C646.742 465.494 646.742 466.138 646.742 466.802C647.767 466.923 648.792 467.044 649.849 467.168C653.038 467.692 655.52 468.402 658.439 469.731C658.439 468.765 658.439 467.798 658.439 466.802C657.795 466.802 657.152 466.802 656.489 466.802C655.946 466.117 655.403 465.433 654.844 464.727C652.674 461.774 652.674 461.774 649.483 459.663C645.718 456.559 643.766 452.794 641.502 448.557C635.798 437.919 628.722 429.611 619.448 421.89C617.157 419.955 614.884 418.006 612.625 416.032C612.625 415.71 612.625 415.388 612.625 415.056C622.218 415.59 631.008 420.131 637.969 426.772C637.969 427.416 637.969 428.061 637.969 428.725C638.532 428.946 639.095 429.168 639.675 429.396C642.42 431 643.896 433.016 645.767 435.559C646.717 428.485 644.285 424.539 640.531 418.607C638.943 416.032 638.943 416.032 637.969 413.103C637.325 413.103 636.682 413.103 636.019 413.103C635.068 411.974 634.162 410.807 633.278 409.625C625.013 400.021 612.191 396.026 599.953 394.553C578.362 392.974 561.085 397.829 542.2 408.054C540.307 409.078 538.406 410.086 536.504 411.093C529.367 414.906 522.668 419.068 516.124 423.843C503.846 432.324 503.846 432.324 496.751 431.959C488.421 430.401 482.916 425.343 477.499 419.083C474.673 414.708 472.756 410.563 473.235 405.292C475.079 407.622 476.182 409.268 477.134 412.127C477.777 411.805 478.42 411.482 479.083 411.151C478.754 410.632 478.425 410.113 478.086 409.579C477.651 408.89 477.216 408.2 476.768 407.489C476.338 406.81 475.909 406.13 475.466 405.43C470.033 396.392 472.052 386.018 474.209 376.002C477.609 368.647 485.1 363.459 491.694 359.038C498.488 354.403 504.176 348.551 509.301 342.135C517.763 332.045 529.911 327.545 542.442 325.293C549.905 323.95 556.9 322.378 562.912 317.422C563.596 316.137 564.251 314.837 564.862 313.516C556.962 314.534 549.067 315.579 541.177 316.669C537.588 317.163 533.998 317.616 530.399 318.024C519.821 319.349 512.287 323.193 505.394 331.495C504.288 332.98 503.19 334.471 502.1 335.968C496.5 342.937 487.454 344.864 479.083 346.712C477.797 346.712 476.51 346.712 475.184 346.712C475.158 344.881 475.139 343.051 475.123 341.22C475.112 340.2 475.101 339.181 475.089 338.131C475.183 335.045 475.582 332.166 476.159 329.138C477.194 328.935 478.23 328.732 479.296 328.524C490.892 326.104 490.892 326.104 499.553 318.398C501.409 315.228 503.107 312.011 504.766 308.734C507.99 302.672 511.527 298.371 518.074 295.942C519.959 295.483 521.848 295.036 523.739 294.599C533.077 292.342 539.851 288.368 545.367 280.32C545.367 279.676 545.367 279.032 545.367 278.368C543.949 279.146 543.949 279.146 542.503 279.939C535.634 283.6 529.18 286.612 521.546 288.253C510.409 290.763 505.407 295.408 499.16 304.612C494.879 310.902 490.224 315.527 482.982 318.398C480.712 318.752 478.438 319.081 476.159 319.374C475.484 301.272 479.009 288.15 491.207 274.157C492.673 272.616 494.155 271.09 495.654 269.581C496.589 268.593 496.589 268.593 497.543 267.586C506.793 258.52 519.469 252.613 531.534 248.322C537.326 246.093 542.792 243.156 548.291 240.29C542.954 251.582 532.706 260.012 523.922 268.604C526.435 268.604 528.327 268.375 530.745 267.811C531.409 267.664 532.072 267.517 532.756 267.365C534.978 266.526 535.951 265.441 537.569 263.723C538.81 262.883 540.072 262.072 541.346 261.282C558.883 249.571 574.658 231.358 581.433 211Z" fill="#4A4E33"/>
<path d="M173.029 428.867C190.299 443.355 195.224 469.87 197.375 491.048C197.704 495 197.914 498.955 198.12 502.915C199.08 518.381 202.712 533.285 206.748 548.188C209.849 559.737 211.235 571.216 212.278 583.109C212.636 587.147 213.115 591.031 213.93 595.005C213.992 596.562 214.014 598.122 213.991 599.681C213.982 600.448 213.973 601.216 213.964 602.007C213.953 602.582 213.942 603.157 213.93 603.749C208.347 606.034 202.947 606.791 197.12 605.024C186.132 600.433 176.418 593.284 171.507 582.192C170.078 578.47 168.856 574.707 167.7 570.894C162.316 553.18 154.684 536.863 146.326 520.371C134.896 497.728 133.22 466.718 139.987 442.173C142.327 435.228 144.554 429.18 151.24 425.528C158.338 424.347 166.79 425.017 173.029 428.867Z" fill="#C17532"/>
<path d="M372.953 249C374.292 251.673 373.307 253.092 372.467 255.822C371.629 259.16 371.644 262.46 371.671 265.886C371.679 266.982 371.679 266.982 371.687 268.101C372.025 283.499 380.338 296.521 391.148 307.101C401.701 316.449 414.159 322.232 427.681 326.056C428.745 326.367 428.745 326.367 429.831 326.685C434.603 327.985 439.384 328.551 444.295 328.982C444.295 329.304 444.295 329.626 444.295 329.957C445.908 330.279 447.52 330.601 449.182 330.933C449.182 331.577 449.182 332.22 449.182 332.884C441.591 335.757 434.778 336.321 426.704 335.81C425.792 335.753 424.88 335.697 423.94 335.638C411.357 334.182 397.503 328.066 387.613 320.204C386.745 319.531 385.877 318.858 384.982 318.165C382.223 315.973 379.533 313.723 376.863 311.425C376.132 310.803 375.401 310.18 374.648 309.539C369.137 304.49 366.173 298.705 363.181 291.917C362.748 299.973 364.079 305.452 369.472 311.608C370.079 312.253 370.686 312.898 371.312 313.563C372.953 315.327 372.953 315.327 374.725 317.887C379.905 323.501 387.642 326.684 394.454 329.957C391.121 332.752 387.704 334.198 383.704 335.81C385.316 336.454 386.929 337.097 388.59 337.761C383.84 343.047 377.244 344.557 370.335 344.939C351.47 345.457 333.76 341.199 319.088 328.811C311.576 321.546 305.719 311.989 303.566 301.671C299.587 302.902 296.053 304.399 292.388 306.365C280.737 312.266 267.867 316.512 254.702 316.302C254.879 316.957 255.057 317.612 255.24 318.287C259.536 335.328 260.846 352.31 260.871 369.827C260.874 370.58 260.878 371.334 260.881 372.111C260.908 382.901 260.093 393.401 258.611 404.087C259.653 403.084 259.653 403.084 260.716 402.061C272.139 391.161 287.061 381.026 303.139 379.337C319.735 379.936 336.545 390.007 350.805 397.72C356.797 400.943 362.901 403.906 369.044 406.83C369.978 407.275 370.912 407.72 371.874 408.179C390.347 417.186 390.347 417.186 410.564 417.019C417.361 414.591 423.013 409.466 426.273 403.032C429.2 394.525 429.802 385.907 430.228 376.999C430.439 372.957 430.833 369.059 431.591 365.072C433.276 367.595 433.954 368.973 434.702 371.789C434.901 372.535 435.101 373.281 435.306 374.05C435.511 374.849 435.716 375.648 435.927 376.471C436.14 377.302 436.354 378.132 436.573 378.988C437.207 381.499 437.823 384.013 438.432 386.53C438.6 387.222 438.769 387.915 438.942 388.628C440.746 396.271 441.672 403.751 441.852 411.585C441.897 412.661 441.897 412.661 441.943 413.759C441.945 418.564 440.879 422.071 438.966 426.479C435.669 434.541 435.522 442.318 435.255 450.906C435.187 452.56 435.117 454.213 435.045 455.866C434.688 464.336 434.447 472.809 434.195 481.281C434.162 482.382 434.129 483.483 434.095 484.618C434.062 485.715 434.03 486.811 433.996 487.941C433.655 497.991 432.936 508.002 432.14 518.025C432.08 518.808 432.02 519.591 431.958 520.398C431.783 522.642 431.599 524.885 431.411 527.127C431.36 527.787 431.309 528.446 431.257 529.125C430.847 533.793 429.88 538.086 428.659 542.593C425.372 542.046 422.804 541.209 419.863 539.667C419.678 513.28 419.678 513.28 420.352 503.15C421.182 490.636 420.925 478.072 420.84 465.537C419.17 467.649 417.5 469.763 415.832 471.877C415.096 472.809 415.096 472.809 414.345 473.76C411.698 477.122 409.089 480.504 406.548 483.947C405.782 484.953 405.016 485.959 404.227 486.995C403.904 486.995 403.582 486.995 403.249 486.995C404.117 479.569 404.117 479.569 404.727 477.466C405.448 474.179 405.503 470.898 405.57 467.549C405.607 466.863 405.643 466.177 405.681 465.47C405.746 461.619 405.372 459.899 402.971 456.834C400.697 455.097 399.332 454.117 396.592 453.527C395.05 453.195 395.05 453.195 393.476 452.857C394.162 453.903 394.847 454.949 395.553 456.027C397.456 459.353 397.456 459.353 396.897 462.001C394.205 464.911 391.615 464.554 387.735 464.866C383.369 464.762 381.185 463.581 377.84 460.66C376.6 459.089 375.38 457.502 374.175 455.905C370.269 450.798 365.951 447.922 360.249 445.054C360.122 446.185 360.122 446.185 359.993 447.34C358.885 455.536 357.022 461.135 350.964 466.878C344.554 471.036 338.401 471.119 330.93 470.414C324.36 468.713 320.124 464.089 316.271 458.709C314.866 455.783 314.866 455.783 314.316 453.832C307.219 455.109 301.237 457.499 294.771 460.66C298.541 470.088 312.349 475.327 321.157 479.192C335.039 484.789 355.371 480.735 369.037 475.828C371.376 475.187 373.471 475.203 375.885 475.291C373.34 483.842 368.576 489.826 360.801 494.218C351.14 499.35 342.265 502.131 331.236 501.931C329.919 501.936 329.919 501.936 328.577 501.941C313.551 501.82 302.358 494.166 291.839 484.069C290.79 483.204 289.733 482.348 288.663 481.509C286.544 479.683 284.928 478.027 283.165 475.9C279.896 471.99 276.197 468.801 272.293 465.537C271.358 464.736 270.423 463.935 269.46 463.11C260.513 454.938 260.513 454.938 249.632 450.296C245.706 451.167 244.417 452.585 241.997 455.783C239.198 461.921 238.632 467.708 238.76 474.376C238.757 475.202 238.754 476.027 238.75 476.878C238.939 499.104 253.087 518.161 266.429 534.79C267.777 536.473 269.121 538.16 270.461 539.849C271.007 540.527 271.554 541.205 272.117 541.903C273.27 543.568 273.27 543.568 273.27 545.519C273.915 545.519 274.56 545.519 275.225 545.519C276.637 547.062 276.637 547.062 278.279 549.238C278.884 550.038 279.49 550.838 280.113 551.662C280.758 552.532 281.402 553.402 282.066 554.297C282.725 555.183 283.383 556.068 284.062 556.98C306.006 586.775 310.063 614.352 312.677 650.306C316.958 709.056 321.952 774.936 369.044 816.678C384.351 829.072 399.221 835.385 418.958 835.34C419.865 835.34 420.771 835.341 421.705 835.342C423.606 835.343 425.507 835.341 427.409 835.337C430.31 835.332 433.211 835.337 436.112 835.343C437.968 835.343 439.824 835.341 441.68 835.34C442.542 835.342 443.403 835.343 444.29 835.346C445.509 835.341 445.509 835.341 446.753 835.336C447.813 835.335 447.813 835.335 448.895 835.334C451.617 835.183 454.311 834.682 457 834.235C457 840.994 457 847.754 457 854.718C445.963 855.586 434.995 855.905 423.925 855.928C421.14 855.937 418.355 855.968 415.57 855.998C394.268 856.122 379.84 850.414 364.158 836.185C363.186 835.312 362.214 834.438 361.241 833.564C359.428 831.924 357.619 830.278 355.817 828.626C353.817 826.804 351.795 825.023 349.743 823.261C332.662 808.402 332.662 808.402 325.776 800.138C323.991 798.029 322.125 796.007 320.242 793.985C315.561 788.958 311.101 783.816 306.788 778.466C304.812 776.041 302.792 773.66 300.75 771.29C295.036 764.651 289.692 757.772 284.398 750.797C281.054 746.391 277.655 742.028 274.248 737.671C268.145 729.855 262.074 722.017 256.077 714.121C254.836 712.488 253.59 710.86 252.343 709.232C243.115 696.953 239.195 684.927 237.172 669.82C237.005 668.625 236.838 667.429 236.667 666.198C235.823 660.053 235.044 653.904 234.347 647.741C232.005 627.132 228.787 606.715 225.381 586.256C225.188 585.091 224.996 583.927 224.798 582.727C224.434 580.525 224.065 578.323 223.693 576.122C222.913 571.402 222.209 566.904 222.451 562.101C227.468 566.951 232.39 572.041 236.561 577.642C240.538 582.969 244.935 587.514 249.749 592.095C258.923 600.832 266.606 609.276 272.297 620.722C274.05 624.06 276.112 627.212 278.157 630.378C275.528 603.46 265.006 584.155 248.838 563.076C243.859 556.557 239.056 550.056 234.771 543.054C233.237 540.592 233.237 540.592 231.281 538.341C228.934 535.301 227.285 532.074 225.628 528.632C225.022 527.396 224.417 526.161 223.81 524.925C223.473 524.21 223.135 523.495 222.787 522.759C221.764 520.733 220.645 518.755 219.491 516.801C213.48 506.359 212.648 497.898 213.106 486.02C213.143 484.281 213.177 482.542 213.208 480.803C213.278 477.2 213.372 473.599 213.488 469.997C213.659 464.654 213.77 459.31 213.87 453.965C214.012 446.556 214.221 439.151 214.469 431.744C214.597 427.686 214.633 423.651 214.538 419.591C214.351 405.67 219.997 394.798 226.361 382.629C234.988 365.817 237.841 353.157 237.844 334.347C237.865 331.316 237.893 328.285 237.922 325.255C237.941 323.31 237.957 321.366 237.97 319.422C238.033 312.17 238.386 304.993 239.065 297.77C239.795 297.8 240.525 297.83 241.277 297.861C253.003 298.271 265.303 296.313 276.202 291.917C277.22 291.54 278.238 291.163 279.287 290.774C287.806 287.426 294.696 283.044 301.939 277.534C304.721 275.443 307.567 273.444 310.407 271.434C310.462 273.094 310.462 273.094 310.518 274.787C310.726 285.697 310.726 285.697 314.316 295.819C314.978 297.039 314.978 297.039 315.652 298.284C324.551 313.433 339.056 324.614 355.362 330.933C360.244 332.042 365.029 332.588 370.022 332.884C370.964 332.94 371.906 332.997 372.877 333.055C377.85 333.198 381.939 332.563 386.635 330.933C386.055 330.564 385.474 330.196 384.876 329.816C372.906 321.883 360.862 310.749 356.767 296.497C354.641 283.424 356.037 270.471 363.547 259.303C366.4 255.532 369.484 252.209 372.953 249Z" fill="#C17532"/>
<path d="M585.528 229C598.855 232.16 609.471 242.548 616.74 253.795C622.426 263.638 629.755 277.964 629.419 289.434C628.49 289.741 627.561 290.048 626.604 290.363C625.368 290.784 624.132 291.206 622.896 291.628C621.686 292.035 620.475 292.442 619.227 292.861C613.899 295.087 610.403 297.782 607.961 303.081C607.248 308.776 607.084 315.512 609.912 320.626C612.274 321.714 614.645 322.531 617.124 323.311C626.398 326.41 631.873 333.238 636.346 341.728C637.843 345.645 638.102 349.605 638.197 353.768C634.009 352.429 629.851 351.09 625.822 349.32C622.711 347.886 622.711 347.886 619.788 347.127C616.956 346.052 615.054 344.888 612.594 343.167C600.887 335.303 588.461 334.251 574.666 336.9C567.688 338.634 561.352 341.269 554.82 344.222C544.322 348.619 533.021 351.482 522.131 354.742C522.131 355.386 522.131 356.029 522.131 356.692C521.487 357.014 520.843 357.335 520.18 357.667C535.625 359.857 546.21 358.27 559.418 349.915C563.301 347.618 567.57 346.278 571.874 344.995C572.932 344.648 573.991 344.301 575.082 343.944C579.103 342.946 582.688 342.708 586.809 342.741C587.537 342.746 588.266 342.752 589.016 342.758C602.859 343.06 610.693 349.541 620.397 358.763C621.027 359.355 621.657 359.947 622.306 360.557C624.034 362.185 625.753 363.823 627.468 365.465C628.536 366.479 628.536 366.479 629.625 367.513C639.004 377.459 645.511 391.732 646 405.429C639.787 402.368 634.177 398.922 628.749 394.646C615.587 384.309 601.732 378.11 584.553 379.111C581.911 379.537 579.401 380.008 576.811 380.634C575.738 380.892 575.738 380.892 574.642 381.155C567.352 383.011 560.562 385.797 553.691 388.824C551.146 389.941 548.592 391.033 546.034 392.122C541.724 393.958 537.418 395.804 533.115 397.657C531.098 398.525 529.08 399.391 527.061 400.255C525.173 401.063 523.285 401.874 521.399 402.688C513.646 404.625 507.441 404.154 500.551 400.053C497.873 397.934 496 396.389 495.57 392.842C495.508 390.613 495.541 388.407 495.613 386.178C495.633 385.019 495.633 385.019 495.653 383.836C495.688 381.936 495.74 380.036 495.796 378.136C491.104 385.422 488.146 391.77 488.969 400.556C489.825 404.468 490.921 408.302 492.146 412.114C492.375 412.833 492.604 413.552 492.84 414.293C493.055 414.934 493.271 415.574 493.493 416.233C493.909 418.436 493.55 419.886 492.87 422C483.611 415.765 476.688 410.187 472.388 399.581C471.769 396.214 471.983 393.22 472.388 389.833C472.546 388.131 472.546 388.131 472.708 386.395C474.015 374.87 478.137 369.661 487.018 362.54C488.613 361.428 490.218 360.331 491.834 359.251C498.632 354.623 504.324 348.781 509.451 342.375C517.919 332.301 530.074 327.809 542.613 325.561C550.08 324.22 557.08 322.65 563.095 317.702C563.78 316.42 564.435 315.121 565.046 313.803C557.142 314.819 549.242 315.862 541.347 316.951C537.756 317.444 534.164 317.896 530.562 318.304C519.978 319.627 512.44 323.464 505.542 331.752C504.436 333.235 503.337 334.723 502.247 336.218C496.642 343.175 487.591 345.099 479.215 346.944C477.928 346.944 476.641 346.944 475.314 346.944C475.287 345.117 475.269 343.289 475.253 341.461C475.242 340.444 475.23 339.426 475.219 338.377C475.313 335.297 475.712 332.423 476.289 329.399C477.325 329.197 478.361 328.994 479.429 328.786C491.032 326.37 491.032 326.37 499.698 318.677C501.555 315.512 503.254 312.301 504.914 309.028C508.14 302.977 511.679 298.682 518.229 296.258C520.116 295.799 522.006 295.354 523.899 294.917C533.242 292.664 540.02 288.696 545.539 280.662C545.539 280.018 545.539 279.375 545.539 278.712C544.594 279.23 543.648 279.747 542.674 280.281C535.8 283.936 529.343 286.943 521.704 288.581C510.56 291.087 505.555 295.725 499.305 304.913C495.021 311.194 490.363 315.81 483.117 318.677C480.845 319.03 478.57 319.359 476.289 319.652C475.614 301.579 479.142 288.479 491.346 274.509C492.814 272.97 494.296 271.446 495.796 269.939C496.732 268.954 496.732 268.954 497.686 267.948C506.942 258.897 519.626 252.999 531.698 248.716C537.493 246.49 542.962 243.558 548.465 240.697C543.124 251.97 532.87 260.387 524.081 268.965C526.969 268.965 529.717 268.643 532.574 268.253C534.07 268.077 535.573 267.953 537.077 267.879C548.64 267.228 560.979 261.408 569.13 253.159C570.898 251.419 570.898 251.419 572.849 251.419C573.103 250.87 573.357 250.321 573.618 249.755C574.916 247.301 576.443 245.185 578.091 242.951C581.25 238.515 583.558 234.065 585.528 229Z" fill="#827855"/>
<path d="M474.212 441C474.462 442.545 474.462 442.545 474.716 444.122C476.101 452.459 477.819 460.508 480.118 468.645C480.915 471.776 481.485 474.857 481.967 478.05C483.823 490.034 489.127 500.113 495.231 510.471C500.239 518.99 503.008 527.315 505.464 536.86C506.92 542.044 508.112 545.96 512.3 549.576C512.3 550.222 512.3 550.868 512.3 551.533C512.945 551.533 513.589 551.533 514.253 551.533C514.561 552.134 514.868 552.736 515.184 553.355C515.602 554.146 516.02 554.937 516.451 555.751C517.063 556.926 517.063 556.926 517.687 558.124C519.221 560.465 520.725 561.738 523.043 563.271C525.688 561.276 525.688 561.276 527.926 558.38C527.971 555.621 527.971 555.621 527.453 553.692C526.81 550.934 526.512 548.167 526.156 545.358C525.536 541.2 524.678 537.738 522.921 533.926C520.364 528.178 520.742 522.498 521.09 516.319C524.895 519.481 528.431 522.689 531.832 526.284C541.159 535.689 551.786 542.707 564.061 547.62C561.192 542.396 557.415 539.37 552.673 535.813C550.484 534.005 548.937 532.431 547.458 530.013C547.458 529.045 547.458 528.076 547.458 527.079C548.205 527.268 548.951 527.457 549.72 527.652C571.947 533.063 597.701 535.813 618.499 523.728C629.145 516.293 635.26 507.488 642.241 496.634C652.304 481.149 652.304 481.149 659.769 476.214C662.363 476.183 662.363 476.183 664.652 477.192C669.621 482.611 670.139 489.709 669.975 496.731C669.475 506.859 666.297 515.313 662.333 524.49C659.935 530.191 658.473 535.867 657.181 541.903C655.747 548.489 654.135 554.731 649.026 559.358C642.937 562.915 636.56 564.17 629.677 565.227C609.783 568.609 595.575 576.051 582.616 591.638C581.946 592.407 581.277 593.176 580.587 593.968C572.478 603.564 570.037 612.61 569.371 625.017C569.329 625.768 569.288 626.518 569.245 627.29C568.797 636.271 568.859 645.251 568.944 654.24C568.299 654.24 567.655 654.24 566.99 654.24C566.487 653.151 565.983 652.061 565.464 650.939C560.91 641.287 560.91 641.287 552.707 635.41C547.317 635.81 544.92 636.966 541.415 641.035C540.938 641.63 540.461 642.225 539.97 642.838C538.669 644.459 538.669 644.459 536.715 646.415C535.954 648.738 535.27 651.026 534.64 653.384C534.463 654.029 534.285 654.673 534.102 655.337C533.665 656.926 533.236 658.517 532.809 660.109C530.856 657.175 530.856 657.175 529.513 653.812C527.535 649.449 527.535 649.449 524.02 646.415C519.568 645.84 517.224 645.995 513.094 647.699C508.33 652.258 505.89 658.595 504.487 665C503.843 665 503.198 665 502.534 665C501.773 663.407 501.773 663.407 500.997 661.783C500.309 660.369 499.621 658.955 498.933 657.541C498.601 656.844 498.269 656.147 497.928 655.428C494.093 647.432 494.093 647.432 487.152 642.502C481.949 642.502 477.173 643.796 472.259 645.437C472.259 625.101 472.259 604.765 472.259 583.812C476.742 584.935 477.041 585.504 479.462 589.192C480.055 590.067 480.648 590.942 481.258 591.844C482.376 593.593 483.451 595.37 484.471 597.178C486.797 601.569 486.797 601.569 490.861 603.956C493.981 604.002 496.657 603.381 499.604 602.397C499.604 601.752 499.604 601.106 499.604 600.441C500.713 599.371 500.713 599.371 501.844 598.278C508.585 591.322 511.648 579.997 511.783 570.397C511.045 560.345 505.392 551.531 500.639 542.878C494.417 531.551 489.295 520.008 484.522 508.002C484.257 507.349 483.992 506.695 483.719 506.022C483.008 504.266 482.312 502.503 481.618 500.74C478.752 495.167 474.981 492.409 469.329 489.908C469.256 484.812 469.203 479.715 469.168 474.618C469.154 472.889 469.134 471.16 469.108 469.431C468.833 450.298 468.833 450.298 472.259 441.978C473.236 441 473.236 441 474.212 441Z" fill="#837956"/>
<path d="M431.639 365C433.326 367.531 434.004 368.912 434.753 371.735C434.953 372.484 435.152 373.232 435.358 374.003C435.665 375.205 435.665 375.205 435.979 376.431C436.193 377.263 436.406 378.096 436.626 378.954C437.26 381.472 437.877 383.993 438.486 386.516C438.654 387.211 438.823 387.905 438.997 388.62C440.803 396.284 441.729 403.784 441.909 411.639C441.954 412.718 441.954 412.718 442 413.819C442.002 418.636 440.935 422.153 439.021 426.573C435.721 434.657 435.574 442.455 435.307 451.066C435.239 452.724 435.169 454.382 435.097 456.04C434.74 464.532 434.498 473.028 434.246 481.523C434.213 482.627 434.18 483.731 434.145 484.869C434.113 485.968 434.08 487.068 434.047 488.201C433.706 498.278 432.985 508.316 432.189 518.366C432.129 519.151 432.069 519.936 432.007 520.745C431.832 522.995 431.648 525.244 431.46 527.493C431.383 528.485 431.383 528.485 431.305 529.496C430.895 534.176 429.927 538.481 428.705 543C425.415 542.452 422.845 541.613 419.902 540.066C419.717 513.609 419.717 513.609 420.391 503.451C421.222 490.903 420.965 478.305 420.88 465.736C419.208 467.854 417.537 469.973 415.867 472.093C415.377 472.716 414.886 473.339 414.38 473.981C411.73 477.352 409.119 480.743 406.576 484.196C405.809 485.205 405.043 486.214 404.253 487.253C403.93 487.253 403.607 487.253 403.275 487.253C404.143 479.807 404.143 479.807 404.753 477.698C405.475 474.402 405.53 471.112 405.598 467.753C405.634 467.066 405.671 466.378 405.708 465.669C405.774 461.808 405.399 460.083 402.996 457.01C400.72 455.269 399.354 454.286 396.611 453.694C395.583 453.472 394.554 453.251 393.494 453.022C394.18 454.071 394.866 455.12 395.572 456.201C397.476 459.536 397.476 459.536 396.917 462.191C394.223 465.109 391.631 464.751 387.748 465.064C383.379 464.959 381.192 463.775 377.844 460.846C376.604 459.271 375.383 457.68 374.177 456.078C370.268 450.958 365.945 448.074 360.239 445.198C360.112 446.332 360.112 446.332 359.983 447.49C358.874 455.709 357.009 461.322 350.947 467.081C344.532 471.251 338.373 471.333 330.896 470.626C324.295 468.914 320.127 464.273 316.225 458.89C314.022 454.963 314.094 451.615 314.269 447.154C306.901 449.734 300.339 453.283 293.637 457.221C288.376 460.311 284.147 460.385 278.08 459.868C275.587 458.721 274.106 457.85 272.211 455.956C271.844 453.266 271.844 453.266 272.211 450.088C277.294 444.203 284.048 440.981 290.795 437.374C291.43 437.031 292.066 436.688 292.721 436.335C301.933 431.413 311.101 427.652 321.115 424.659C318.813 423.578 316.511 422.498 314.208 421.42C313.565 421.118 312.923 420.816 312.261 420.505C310.962 419.897 309.66 419.294 308.356 418.695C306.558 417.866 304.772 417.009 302.986 416.151C287.033 410.163 268.814 418.988 254.099 424.801C248.474 427.016 242.816 428.878 237 430.527C250.781 408.88 271.642 386.531 297.469 380.064C315.434 376.742 335.54 389.474 350.788 397.737C356.785 400.968 362.894 403.939 369.042 406.872C369.976 407.318 370.911 407.764 371.874 408.224C390.362 417.255 390.362 417.255 410.595 417.087C417.398 414.654 423.054 409.514 426.317 403.063C429.246 394.533 429.849 385.891 430.275 376.96C430.487 372.906 430.881 368.998 431.639 365Z" fill="black"/>
<path d="M669.995 598C670.318 598 670.642 598 670.975 598C671.091 608.854 670.811 619.596 670.041 630.425C669.941 631.876 669.84 633.327 669.74 634.777C669.53 637.787 669.315 640.797 669.097 643.806C668.822 647.618 668.566 651.431 668.314 655.244C668.114 658.23 667.901 661.216 667.684 664.201C667.584 665.605 667.488 667.009 667.398 668.414C665.342 700.064 648.124 731.101 627.872 755.115C626.31 757.1 624.759 759.09 623.219 761.092C622.609 761.884 622.609 761.884 621.987 762.691C618.693 766.974 615.443 771.289 612.198 775.608C610.708 777.59 609.217 779.57 607.725 781.551C606.832 782.736 605.941 783.922 605.051 785.108C556.987 849.057 556.987 849.057 525.993 855.63C523.071 855.904 520.168 855.927 517.234 855.923C516.407 855.927 515.579 855.932 514.727 855.936C512.98 855.941 511.234 855.942 509.488 855.938C506.861 855.935 504.235 855.958 501.608 855.982C478.825 856.066 478.825 856.066 469.176 850.75C469.123 848.127 469.084 845.506 469.054 842.882C469.037 842.148 469.021 841.414 469.004 840.658C468.973 837.134 469.105 834.39 470.163 830.993C471.335 826.576 471.216 822.653 471.143 818.107C471.13 812.274 471.643 806.486 472.115 800.676C472.208 799.477 472.302 798.277 472.398 797.041C472.626 794.125 472.858 791.21 473.094 788.295C486.627 783.719 503.757 780.938 517.177 787.319C517.984 787.7 518.791 788.081 519.622 788.474C528.289 793.113 534.655 800.471 539.708 808.788C538.738 806.373 538.738 806.373 537.748 803.909C542.271 805.331 546.574 807.081 550.912 808.979C555.03 810.267 558.034 810.338 561.99 808.544C567.943 804.688 572.712 800.834 576.933 795.126C577.643 794.175 577.643 794.175 578.368 793.205C581.484 788.669 583.331 784.051 583.79 778.536C583.467 777.57 583.143 776.604 582.81 775.608C584.077 773.565 584.077 773.565 585.933 771.217C589.68 766.155 591.748 761.097 593.586 755.115C594.232 755.115 594.879 755.115 595.545 755.115C595.879 754.058 595.879 754.058 596.219 752.98C597.77 749.668 599.801 747.947 602.402 745.356C609.087 737.138 614.463 727.2 618.095 717.247C619.446 714.235 621.464 713 624.099 711.121C630.639 704.372 631.142 695.162 632.403 686.316C634.144 674.522 636.559 663.517 640.24 652.161C640.558 651.172 640.876 650.183 641.204 649.165C641.982 646.747 642.763 644.33 643.546 641.914C644.689 645.332 644.002 647.056 643.08 650.442C642.201 654.214 642.057 657.999 641.893 661.858C641.853 662.711 641.813 663.563 641.772 664.441C641.538 670.505 641.708 676.46 642.165 682.508C642.775 690.765 642.648 699.023 642.566 707.297C643.536 706.975 644.506 706.653 645.505 706.322C650.251 694.493 650.849 681.257 651.796 668.697C653.717 643.652 659.679 620.975 669.995 598Z" fill="#4A4E33"/>
<path d="M616.928 648C617.249 648 617.57 648 617.9 648C618.365 650.099 618.829 652.199 619.287 654.299C619.629 655.819 619.987 657.336 620.374 658.845C623.237 670.34 622.945 682.504 622.944 694.289C622.946 696.539 622.964 698.79 622.982 701.04C622.985 702.481 622.987 703.922 622.988 705.363C622.992 706.651 622.996 707.939 623 709.266C622.764 712.429 622.764 712.429 620.818 715.357C620.176 715.357 619.534 715.357 618.873 715.357C618.759 716.064 618.645 716.772 618.528 717.5C617.454 722.184 615.022 726.202 612.794 730.427C612.096 731.787 612.096 731.787 611.384 733.175C608.281 739.105 605.077 743.927 600.271 748.609C598.309 750.496 598.309 750.496 596.866 753.185C596.425 753.909 595.984 754.634 595.529 755.381C594.887 755.381 594.245 755.381 593.584 755.381C593.503 756.186 593.423 756.992 593.34 757.821C592.122 763.528 589.543 768.072 585.985 772.647C583.542 775.569 583.542 775.569 584.222 778.199C584.422 779.045 584.623 779.891 584.83 780.762C583.257 791.975 574.186 801.03 565.631 807.584C561.153 810.611 558.637 811.371 553.309 810.658C548.619 809.524 544.373 807.346 540.087 805.167C540.267 805.751 540.448 806.334 540.634 806.936C541.06 809.071 541.06 809.071 540.087 812C539.756 811.397 539.425 810.794 539.084 810.173C533.589 800.537 528.288 794.06 518.308 789.094C514.99 787.135 512.934 784.737 510.645 781.669C506.601 777.144 501.96 775.268 496.195 773.807C495.563 773.644 494.93 773.482 494.279 773.315C489.355 772.087 484.406 771.197 479.379 770.504C476.863 770.024 476.863 770.024 472 768.071C472 762.595 472 757.119 472 751.476C474.247 752.12 476.494 752.765 478.809 753.429C483.576 753.602 487.658 752.462 491.453 749.524C493.188 747.504 493.188 747.504 494.371 745.619C497.539 745.982 499.034 746.421 501.484 748.548C505.103 751.25 507.381 751.333 511.879 751.476C515.224 750.416 515.701 749.627 517.715 746.595C521.168 745.183 524.748 745.312 528.415 745.619C530.277 746.527 530.277 746.527 532.184 747.632C535.816 749.56 538.439 750.123 542.515 749.489C546.945 747.776 550.415 744.609 553.997 741.554C556.622 739.762 556.622 739.762 558.708 739.933C559.304 740.199 559.899 740.465 560.513 740.738C564.482 741.697 566.511 742.104 570.24 740.311C576.359 735.065 580.363 730.157 583.055 722.48C583.825 720.328 584.744 718.355 585.802 716.333C586.317 727.245 585.221 736.108 581.912 746.595C581.343 748.527 580.775 750.459 580.209 752.391C579.807 753.714 579.402 755.036 578.994 756.357C590.85 749.234 596.214 740.593 601.365 728.048C601.661 727.333 601.958 726.619 602.263 725.883C612.272 701.373 615.188 674.265 616.928 648Z" fill="#611B0A"/>
<path d="M474.201 441C474.449 442.545 474.449 442.545 474.703 444.122C476.085 452.459 477.799 460.508 480.093 468.645C480.888 471.776 481.457 474.857 481.937 478.05C483.79 490.034 489.081 500.113 495.172 510.471C500.169 518.99 502.931 527.315 505.382 536.86C506.835 542.044 508.024 545.96 512.203 549.576C512.203 550.222 512.203 550.868 512.203 551.533C512.846 551.533 513.489 551.533 514.151 551.533C514.458 552.134 514.764 552.736 515.08 553.355C515.497 554.146 515.914 554.937 516.344 555.751C516.954 556.926 516.954 556.926 517.577 558.124C519.108 560.465 520.609 561.738 522.921 563.271C524.851 561.011 526.78 558.752 528.768 556.424C531.825 557.958 532.475 560.578 533.776 563.65C535.158 567.865 535.236 571.886 535.162 576.293C535.146 577.644 535.146 577.644 535.13 579.024C534.793 589.69 531.517 597.558 524.143 605.297C520.433 608.66 516.372 611.388 512.203 614.135C510.896 615.104 509.594 616.078 508.305 617.07C508.586 618.119 508.868 619.168 509.158 620.249C510.318 624.802 510.948 629.398 511.559 634.054C512.262 636.87 512.762 637.927 515.126 639.568C520.511 640.751 525.196 639.404 530.008 636.989C533.925 633.884 535.001 629.907 535.581 625.109C535.798 623.511 535.798 623.511 536.019 621.88C536.3 619.653 536.574 617.424 536.841 615.194C537.969 607.012 537.969 607.012 540.883 603.242C548.752 597.507 548.752 597.507 551.179 597.507C551.42 596.78 551.661 596.054 551.91 595.306C553.223 592.406 554.648 590.782 557.026 588.703C557.347 588.703 557.669 588.703 558 588.703C557.484 593.763 556.854 598.744 555.949 603.747C552.403 619.98 552.403 619.98 555.077 635.655C554.5 635.669 553.924 635.683 553.33 635.697C549.173 635.949 546.929 636.123 543.627 638.834C542.904 639.722 542.18 640.609 541.435 641.524C540.632 642.239 539.83 642.954 539.003 643.69C536.119 646.91 535.358 649.395 534.31 653.568C533.992 654.795 533.674 656.021 533.347 657.285C533.122 658.217 532.897 659.149 532.665 660.109C530.716 657.175 530.716 657.175 529.377 653.812C527.403 649.449 527.403 649.449 523.896 646.415C519.454 645.84 517.116 645.995 512.994 647.699C508.241 652.258 505.807 658.595 504.407 665C503.764 665 503.121 665 502.459 665C501.699 663.407 501.699 663.407 500.925 661.783C500.239 660.369 499.552 658.955 498.865 657.541C498.534 656.844 498.203 656.147 497.862 655.428C494.037 647.432 494.037 647.432 487.112 642.502C481.919 642.502 477.154 643.796 472.252 645.437C472.252 625.101 472.252 604.765 472.252 583.812C476.724 584.935 477.022 585.504 479.438 589.192C480.03 590.067 480.621 590.942 481.231 591.844C482.346 593.593 483.419 595.37 484.436 597.178C486.757 601.569 486.757 601.569 490.811 603.956C493.925 604.002 496.595 603.381 499.535 602.397C499.535 601.752 499.535 601.106 499.535 600.441C500.641 599.371 500.641 599.371 501.77 598.278C508.495 591.322 511.552 579.997 511.687 570.397C510.95 560.345 505.31 551.531 500.568 542.878C494.359 531.551 489.249 520.008 484.487 508.002C484.222 507.349 483.958 506.695 483.686 506.022C482.976 504.266 482.282 502.503 481.59 500.74C478.73 495.167 474.967 492.409 469.329 489.908C469.256 484.812 469.203 479.715 469.168 474.618C469.153 472.889 469.134 471.16 469.108 469.431C468.833 450.298 468.833 450.298 472.252 441.978C473.226 441 473.226 441 474.201 441Z" fill="#4A4E33"/>
<path d="M393.22 453.161C396.926 452.819 398.656 452.862 401.813 454.925C404.797 457.8 405.933 459.257 406.248 463.428C406.253 464.792 406.247 466.156 406.232 467.52C406.24 468.192 406.248 468.865 406.255 469.558C406.238 474.144 405.378 477.952 404.023 482.366C404.023 483.651 404.023 484.936 404.023 486.26C404.57 485.529 405.116 484.799 405.68 484.046C416.486 469.68 416.486 469.68 420.718 464.843C421.042 464.843 421.366 464.843 421.7 464.843C422.099 489.872 420.942 514.807 419.736 539.802C422.652 540.766 425.569 541.73 428.574 542.723C427.715 551.241 427.715 551.241 426.61 553.431C425.824 561.409 425.432 568.464 430.699 574.985C433.68 577.977 436.759 580.415 440.359 582.636C441.284 583.223 441.284 583.223 442.227 583.822C447.672 586.913 452.803 587.195 459.018 587.504C459.504 596.659 459.504 596.659 460 606C453.192 606 449.534 605.871 443.673 603.445C443.01 603.185 442.347 602.925 441.664 602.657C439.586 601.838 437.517 601 435.449 600.159C433.396 599.339 431.341 598.522 429.286 597.707C427.445 596.973 425.608 596.23 423.771 595.485C414.361 591.888 407.185 593.271 398.13 597.239C395.119 598.761 392.187 600.377 389.292 602.106C387.796 599.14 388.354 596.149 388.555 592.919C388.598 592.198 388.641 591.477 388.685 590.734C389.281 582.109 390.74 573.622 392.238 565.113C388.675 566.929 388.675 566.929 386.346 569.981C385.373 569.981 384.401 569.981 383.4 569.981C382.019 554.292 380.725 537.717 384.382 522.279C384.561 521.384 384.741 520.49 384.926 519.568C387.879 506.144 394.174 493.722 400.486 481.582C403.015 476.58 403.791 472.33 403.041 466.79C401.383 464.415 401.383 464.415 399.112 462.896C396.555 460.564 394.871 458.148 393.22 455.108C393.22 454.465 393.22 453.823 393.22 453.161Z" fill="#C17532"/>
<path d="M602.611 441.265C605.908 443.971 608.149 446.283 608.969 450.572C609.219 457.214 608.022 462.287 603.522 467.199C594.644 475.697 584.441 480.869 572.127 481.766C571.244 481.831 570.36 481.896 569.45 481.963C554.903 482.521 543.042 476.807 532.362 467.257C530.855 465.85 529.358 464.431 527.876 462.997C527.276 462.522 526.677 462.047 526.059 461.558C524.926 460.034 524.926 460.034 525.06 457.641C528.352 447.765 538.371 440.582 547.193 435.948C565.183 428.264 586.752 429.156 602.611 441.265Z" fill="#ED954A"/>
<path d="M159.502 446.815C161.599 448.436 163.278 449.919 165.08 451.822C165.582 452.344 166.084 452.867 166.601 453.405C177.633 465.259 190.983 484.92 191.037 501.646C190.258 506.086 188.164 509.903 185.999 513.823C184.406 516.865 183.664 518.61 184.292 522.038C185.909 525.413 187.551 528.758 189.332 532.047C189.674 532.687 190.016 533.328 190.369 533.987C192.804 538.508 195.369 542.932 198.086 547.288C201.434 553.194 201.508 557.462 200.246 564.04C198.382 569.388 198.382 569.388 195.092 571C191.22 570.819 189.574 569.526 186.664 566.97C182.68 561.056 179.892 553.147 178.441 546.193C178.274 545.635 178.106 545.077 177.934 544.502C176.333 543.812 174.712 543.168 173.083 542.549C166.189 537.731 163.08 531.259 161.442 523.011C161.227 519.089 161.303 515.212 161.442 511.289C161.437 510.414 161.432 509.538 161.427 508.637C161.641 501.651 164.445 498.529 169.203 493.705C171.406 490.794 172.188 489.734 171.89 486.085C171.072 482.664 169.857 480.448 167.93 477.526C167.353 476.638 166.777 475.75 166.183 474.835C164.374 472.245 162.465 469.779 160.472 467.33C155.856 477.732 152.199 488.223 150.771 499.566C150.131 499.566 149.491 499.566 148.831 499.566C143.409 484.574 141.982 465.923 147.509 450.761C150.652 446.027 154.243 445.063 159.502 446.815Z" fill="black"/>
<path d="M494.216 745.199C497.362 745.563 498.846 746.003 501.279 748.135C504.872 750.844 507.135 750.927 511.602 751.071C514.923 750.008 515.398 749.217 517.398 746.178C520.827 744.762 524.382 744.892 528.023 745.199C529.872 746.109 529.872 746.109 531.766 747.217C535.512 749.296 538.163 749.338 542.342 748.773C544.944 747.982 546.999 746.688 549.273 745.199C549.762 747.216 550.244 749.234 550.722 751.254C550.991 752.378 551.259 753.502 551.537 754.66C552.088 757.498 552.299 759.937 552.17 762.814C553.764 762.491 555.358 762.168 557 761.835C552.102 766.582 544.524 767.165 538.014 767.061C534.444 766.536 531.341 765.107 528.087 763.574C527.099 763.198 527.099 763.198 526.091 762.814C525.135 763.298 525.135 763.298 524.159 763.792C531.353 770.862 537.172 774.768 547.401 774.801C549.314 774.739 551.226 774.664 553.136 774.557C553.136 777.463 553.136 780.369 553.136 783.364C553.774 783.687 554.411 784.01 555.068 784.343C555.068 789.51 555.068 794.676 555.068 800C549.203 800 548.054 799.649 543.417 796.636C539.848 794.333 537.075 792.729 532.852 792.171C532.374 793.14 532.374 793.14 531.886 794.128C530.053 793.545 528.222 792.952 526.393 792.355C525.373 792.026 524.353 791.696 523.303 791.357C517.502 789.152 514.381 786.257 510.58 781.441C506.356 776.956 501.888 774.956 496.027 773.456C495.399 773.293 494.771 773.131 494.124 772.963C489.234 771.732 484.32 770.84 479.327 770.145C476.83 769.664 476.83 769.664 472 767.707C472 762.217 472 756.727 472 751.071C474.231 751.716 476.462 752.362 478.761 753.028C483.495 753.202 487.55 752.059 491.318 749.113C493.041 747.088 493.041 747.088 494.216 745.199Z" fill="#B53211"/>
<path d="M517.45 787.702C518.258 788.079 519.065 788.457 519.897 788.846C528.989 793.662 537.308 801.956 540.617 811.762C541.726 816.766 540.337 820.07 537.622 824.332C532.999 830.428 527.009 834.463 519.411 836.033C513.206 836.466 506.992 836.26 500.782 836.033C501.424 835.46 502.066 834.887 502.728 834.296C505.026 832.259 505.026 832.259 504.949 829.025C504.868 828.148 504.788 827.271 504.704 826.367C503.734 826.367 502.763 826.367 501.763 826.367C501.439 826.367 501.116 826.367 500.782 826.367C500.675 825.75 500.568 825.133 500.457 824.498C500.224 823.3 500.224 823.3 499.986 822.078C499.838 821.281 499.69 820.485 499.538 819.665C499.301 819.006 499.065 818.346 498.822 817.667C495.55 816.592 492.951 816.505 489.507 816.459C487.824 816.422 487.824 816.422 486.106 816.384C483.129 816.437 483.129 816.437 481.265 818.166C480.735 818.876 480.735 818.876 480.193 819.601C480.517 820.558 480.84 821.515 481.174 822.501C482.964 823.391 482.964 823.391 485.157 823.95C489.464 825.237 493.636 826.718 497.841 828.3C495.426 829.491 493.645 829.336 490.978 829.267C490.978 828.629 490.978 827.991 490.978 827.334C490.007 827.972 489.037 828.61 488.037 829.267C488.037 830.224 488.037 831.181 488.037 832.167C487.39 832.167 486.742 832.167 486.076 832.167C485.752 832.805 485.429 833.443 485.095 834.1C486.733 834.07 486.733 834.07 488.404 834.04C491.958 834.1 491.958 834.1 493.919 835.067C493.919 835.705 493.919 836.343 493.919 837C485.218 835.802 477.228 834.263 471.369 827.334C470.952 824.694 470.952 824.694 471.063 821.674C471.098 820.56 471.134 819.447 471.17 818.3C471.497 812.504 471.875 806.719 472.35 800.933C472.443 799.744 472.537 798.556 472.633 797.332C472.861 794.444 473.093 791.556 473.33 788.668C486.874 784.137 504.019 781.381 517.45 787.702ZM493.919 797.368C493.596 798.325 493.272 799.282 492.939 800.268C503.332 807.648 503.332 807.648 515.55 809.632C516.491 809.303 516.491 809.303 517.45 808.968C517.126 809.925 516.803 810.882 516.469 811.868C515.721 811.668 514.973 811.469 514.202 811.263C511.353 810.578 511.353 810.578 508.626 812.834C508.626 813.791 508.626 814.748 508.626 815.734C507.655 815.096 506.685 814.458 505.685 813.801C504.714 813.482 503.743 813.163 502.743 812.834C501.773 813.472 500.802 814.11 499.802 814.767C500.126 816.681 500.449 818.595 500.782 820.567C502.4 820.886 504.018 821.205 505.685 821.534C506.008 820.896 506.332 820.258 506.665 819.601C508.953 819.601 511.24 819.601 513.528 819.601C512.881 820.239 512.234 820.877 511.567 821.534C513.341 823.108 513.341 823.108 515.489 824.434C516.46 824.115 517.43 823.796 518.43 823.467C518.107 821.553 517.783 819.639 517.45 817.667C518.744 817.348 520.038 817.029 521.372 816.701C520.725 815.744 520.078 814.787 519.411 813.801C520.381 813.163 521.352 812.525 522.352 811.868C521.832 808.174 520.884 806.008 518.43 803.168C518.107 804.125 517.783 805.082 517.45 806.068C517.207 804.722 517.207 804.722 516.96 803.349C515.727 800.005 515.727 800.005 512.303 798.456C506.378 796.606 500.055 797.139 493.919 797.368Z" fill="#847A56"/>
<path d="M385.1 720C388.589 721.497 391.005 723.614 393.778 726.183C396.274 728.487 398.731 730.697 401.428 732.767C402.128 733.354 402.827 733.942 403.548 734.547C403.548 735.187 403.548 735.828 403.548 736.487C405.163 737.142 406.782 737.786 408.403 738.427C409.001 738.672 409.6 738.917 410.216 739.169C410.859 739.424 411.503 739.679 412.166 739.942C412.764 740.183 413.362 740.425 413.979 740.673C419.651 742.389 425.412 742.441 431.278 742.401C432.044 742.399 432.81 742.398 433.6 742.397C436.023 742.391 438.447 742.379 440.87 742.367C442.523 742.362 444.176 742.357 445.829 742.353C449.861 742.343 453.892 742.326 457.923 742.306C459.655 745.276 460.087 747.369 459.986 750.792C459.969 751.567 459.951 752.342 459.933 753.141C459.911 753.726 459.888 754.311 459.865 754.914C459.226 754.933 458.587 754.952 457.929 754.972C434.442 755.691 434.442 755.691 411.195 758.914C405.641 759.991 400.38 760.766 394.991 758.732C387.61 752.202 386.074 741.909 385.1 732.608C384.959 728.398 384.975 724.21 385.1 720Z" fill="#C17532"/>
<path d="M474.21 441C474.46 442.546 474.46 442.546 474.714 444.123C476.098 452.462 477.816 460.513 480.114 468.652C480.911 471.784 481.481 474.865 481.962 478.059C483.818 490.046 489.119 500.128 495.222 510.488C500.228 519.01 502.996 527.337 505.451 536.885C506.907 542.07 508.098 545.987 512.285 549.604C512.285 550.25 512.285 550.896 512.285 551.561C512.929 551.561 513.573 551.561 514.237 551.561C515.826 553.857 517.273 556.134 518.692 558.532C519.094 559.183 519.496 559.834 519.91 560.504C522.221 564.372 523.594 567.528 524 572.108C520.017 575.054 517.164 576.349 512.285 577C512.232 576.115 512.178 575.23 512.124 574.318C511.237 564.686 508.566 557.647 503.872 549.259C501.946 545.812 500.096 542.325 498.251 538.834C497.872 538.118 497.493 537.402 497.102 536.664C492.264 527.401 488.371 517.726 484.516 508.02C484.251 507.367 483.986 506.713 483.714 506.039C483.003 504.282 482.308 502.519 481.614 500.755C478.748 495.181 474.979 492.423 469.329 489.921C469.256 484.823 469.203 479.725 469.168 474.627C469.154 472.897 469.134 471.168 469.108 469.438C468.833 450.3 468.833 450.3 472.258 441.978C473.234 441 473.234 441 474.21 441Z" fill="#837A57"/>
<path d="M460.233 251C460.458 255.889 460.619 260.775 460.726 265.668C460.771 267.325 460.832 268.982 460.911 270.639C461.503 283.465 459.245 290.626 451.254 300.741C447.781 306.664 447.264 313.566 448.26 320.247C449.707 322.398 449.707 322.398 451.254 324.148C451.254 324.792 451.254 325.436 451.254 326.099C452.056 326.38 452.859 326.662 453.686 326.952C456.242 328.049 456.242 328.049 457.24 330C455.594 330 453.947 330 452.251 330C452.251 329.034 452.251 328.069 452.251 327.074C451.673 326.821 451.094 326.569 450.497 326.308C442.656 322.155 437.738 314.391 434.292 306.593C430.638 292.868 435.187 280.366 442.274 268.556C454.879 251 454.879 251 460.233 251Z" fill="#C17532"/>
<path d="M485.477 653C487.896 653.375 487.896 653.375 489.497 654.696C498.34 667.048 499.118 680.391 497.039 695.155C496.886 696.08 496.734 697.004 496.576 697.957C491.587 698.987 486.812 699.039 481.747 698.986C480.544 698.98 480.544 698.98 479.317 698.973C477.354 698.962 475.391 698.944 473.428 698.926C473.428 698.606 473.428 698.286 473.428 697.957C476.93 697.957 480.431 697.957 484.038 697.957C484.038 696.997 484.038 696.038 484.038 695.049C483.322 695.529 483.322 695.529 482.591 696.018C479.128 697.41 476.182 697.112 472.464 696.987C472.146 697.627 471.827 698.267 471.5 698.926C471.355 694.963 471.251 691.001 471.182 687.036C471.153 685.692 471.114 684.348 471.063 683.004C470.729 673.9 471.57 667.494 477.286 660.159C477.81 659.448 478.334 658.736 478.873 658.003C482.208 653.51 482.208 653.51 485.477 653Z" fill="#F0A459"/>
<path d="M173.2 429.015C185.397 439.163 193.094 458.123 194.893 473.541C195.101 477.049 194.998 480.505 194.65 484C191.166 480.057 188.992 475.926 186.667 471.279C180.766 459.946 173.26 452.415 162.475 445.414C161.732 444.89 160.989 444.365 160.224 443.824C156.696 442.071 153.39 441.75 149.495 441.375C148.773 441.296 148.051 441.217 147.307 441.136C145.539 440.944 143.77 440.766 142 440.591C142.793 434.906 144.451 431.189 148.825 427.267C155.636 423.266 166.655 425.01 173.2 429.015Z" fill="#FFCEA3"/>
<path d="M568.602 438.062C569.503 438.042 570.404 438.022 571.332 438.001C577.255 437.968 581.585 438.815 587 441.211C586.355 441.53 585.709 441.85 585.044 442.18C584.863 442.989 584.863 442.989 584.677 443.815C583.811 446.991 582.133 449.255 580.154 451.869C579.509 451.869 578.863 451.869 578.198 451.869C578.091 452.535 577.984 453.201 577.874 453.887C577.641 455.196 577.641 455.196 577.404 456.532C577.256 457.398 577.109 458.263 576.957 459.155C576.19 461.736 575.376 462.777 573.309 464.466C572.663 464.146 572.018 463.826 571.353 463.497C571.817 463.077 572.281 462.657 572.759 462.225C575.052 459.771 575.263 457.704 575.57 454.413C575.215 450.325 574.239 448.915 571.353 446.055C568.959 444.87 567.701 445.071 565.057 445.329C564.292 445.394 563.527 445.459 562.738 445.526C560.167 446.161 559.239 446.869 557.661 448.962C556.62 453.882 556.09 457.033 558.639 461.559C560.957 462.967 560.957 462.967 563.651 463.799C564.541 464.115 565.431 464.431 566.348 464.757C567.032 464.981 567.715 465.204 568.419 465.435C568.419 465.754 568.419 466.074 568.419 466.404C565.514 466.084 562.61 465.764 559.617 465.435C557.991 468.026 556.684 470.279 555.705 473.186C556.351 473.186 556.996 473.186 557.661 473.186C557.339 475.105 557.016 477.023 556.683 479C549.365 477.83 544.22 475.344 538.102 471.248C537.457 470.869 536.811 470.489 536.146 470.098C534.496 469.008 534.496 469.008 532.235 466.404C531.544 462.406 532.414 459.123 534.366 455.601C542.783 443.836 554.262 438.139 568.602 438.062Z" fill="#F09E50"/>
<path d="M614.603 342.803C617.969 345.393 620.697 348.375 623.458 351.542C625.747 354.031 628.273 355.999 631 358.038C629.035 358.979 629.035 358.979 627.081 358.38C622.631 356.453 619.059 354.451 615.278 351.45C614.661 351.307 614.045 351.164 613.409 351.016C610.439 350.285 608.32 348.658 605.836 346.983C596.183 342.134 582.722 342.566 572.473 345.332C564.142 348.14 555.309 351.898 548.077 356.81C544.275 358.631 540.624 358.648 536.424 358.803C535.233 358.874 535.233 358.874 534.017 358.948C528.389 359.202 523.428 358.517 518 357.097C521.166 353.536 524.063 352.365 528.686 350.979C529.337 350.78 529.988 350.581 530.659 350.376C534.886 349.099 539.147 347.971 543.425 346.862C548.787 345.438 553.796 343.593 558.901 341.509C577.501 334.032 597.152 331.227 614.603 342.803Z" fill="#1A0F0A"/>
<path d="M549.633 641C556.97 647.615 558.412 660.562 558.877 669.929C558.915 671.481 558.942 673.035 558.958 674.588C558.972 675.315 558.986 676.041 559 676.79C558.958 681.667 558.325 687.096 554.607 690.742C548.669 691.312 543.77 691.178 538.691 687.816C534.515 681.674 536.213 671.16 537.129 663.985C538.963 655.624 543.077 646.82 549.633 641Z" fill="#B5571B"/>
<path d="M519.327 653C521.882 653.488 521.882 653.488 523.95 655.682C528.677 663.738 530.893 676.396 529.667 685.671C527.716 689.38 526.332 691.15 522.855 693.473C518.304 694.099 513.339 694.565 509.147 692.449C505.799 689.674 504.484 687.697 504 683.416C504.114 675.501 510.61 654.839 519.327 653Z" fill="#F2AA5E"/>
<path d="M385 612C386.429 612.492 386.429 612.492 387.888 612.994C391.382 613.993 394.357 613.959 397.957 613.716C407.312 613.13 413.446 615.154 421.169 620.469C424.59 622.808 428.109 624.992 431.631 627.175C432.732 627.86 432.732 627.86 433.854 628.558C442.039 633.525 450.711 636.878 460 639.193C460 642.398 460 645.603 460 648.905C452.429 649.336 447.305 648.341 440.519 645.02C439.723 644.631 438.927 644.242 438.107 643.841C432.328 640.837 426.908 637.351 421.465 633.791C415.631 629.979 409.841 626.582 403.506 623.654C400.758 622.357 398.022 621.036 395.288 619.709C394.607 619.389 393.926 619.07 393.224 618.741C389.605 616.982 387.061 615.509 385 612Z" fill="#C17532"/>
<path d="M602.62 441.32C605.914 444.027 608.153 446.339 608.972 450.63C609.178 456.093 608.258 460.301 605.568 465.036C603.419 466.95 603.419 466.95 601.638 468C601.8 467.49 601.962 466.981 602.129 466.456C602.958 462.392 603.572 458.955 601.58 455.135C595.812 446.913 588.377 442.474 579.039 439.343C575.728 439.066 572.413 439.069 569.091 439.034C568.195 439.006 567.298 438.977 566.374 438.948C555.692 438.848 546.863 443.747 538.959 450.796C534.735 455.254 533.229 460.097 531.878 466.024C529.608 464.067 527.338 462.111 525 460.095C526.204 451.746 532.209 446.51 538.571 441.505C557.289 428.048 583.919 427.023 602.62 441.32Z" fill="#AF4612"/>
<path d="M506 617C505.775 623.087 504.263 628.181 502.062 633.836C501.797 634.522 501.532 635.208 501.259 635.914C500.119 638.756 499.256 640.891 497 643.069C493.548 643.261 490.508 643.176 487.125 642.466C481.852 641.855 476.983 643.396 472 645C472 637.034 472 629.069 472 620.862C479.868 618.692 479.868 618.692 484.645 618.565C485.651 618.532 486.657 618.499 487.693 618.465C489.237 618.427 489.237 618.427 490.812 618.388C492.882 618.33 494.951 618.269 497.02 618.203C497.928 618.18 498.837 618.157 499.773 618.133C502.143 617.955 503.638 617 506 617Z" fill="#847A57"/>
<path d="M441 409C441.617 409.414 442.235 409.828 442.871 410.254C443.718 410.792 444.565 411.33 445.438 411.884C446.673 412.687 446.673 412.687 447.934 413.506C451.812 415.449 451.812 415.449 460 415.873C460 431.425 460 446.977 460 463C458.099 460.2 457.278 458.069 456.25 454.9C454.094 449.037 451.723 444.098 445.754 441.346C443.514 440.588 441.305 439.971 439 439.436C438.25 439.252 437.5 439.067 436.727 438.876C435.872 438.668 435.872 438.668 435 438.455C435.35 433.811 436.063 430.196 438 425.936C440.429 420.39 440.791 414.982 441 409Z" fill="#C17532"/>
<path d="M477 459C481.876 461.23 483.649 464.334 485.823 468.953C486.162 469.643 486.501 470.333 486.85 471.044C489.485 476.465 491.862 481.988 494.246 487.519C496.696 493.064 499.74 498.023 503.049 503.122C508.396 511.428 511.393 519.648 509.359 529.57C508.996 531.041 508.63 532.512 508.26 533.982C507.581 537.363 507.691 540.563 507.818 544C505.107 541.336 504.831 538.401 504.028 534.841C501.254 523.438 496.502 513.664 490.574 503.533C485.652 495.084 482.462 487.45 480.852 477.807C479.951 472.586 479.088 467.812 477 462.908C477 461.618 477 460.329 477 459Z" fill="#1B100B"/>
<path d="M518.548 707.515C520.713 709.193 520.713 709.193 521.731 712.176C522.72 723.55 521.162 731.41 514.029 740.581C511.537 743.014 510.749 743.398 507.472 744C500.345 735.027 499.302 726.421 500.343 715.16C501.492 711.522 503.167 709.167 506.263 706.769C510.728 705.648 514.335 705.637 518.548 707.515Z" fill="#BC5E20"/>
<path d="M491.284 709C492.566 721.213 492.848 730.503 485.796 741.23C482.985 744.271 482.145 744.475 478.164 745C477.174 743.582 476.187 742.163 475.2 740.743C474.649 739.953 474.099 739.163 473.532 738.349C471.321 735.078 470.978 733.312 471.001 729.425C471.004 728.465 471.008 727.506 471.011 726.517C471.019 725.513 471.028 724.508 471.037 723.473C471.041 722.461 471.046 721.449 471.05 720.406C471.062 717.901 471.079 715.397 471.1 712.892C485.087 709 485.087 709 491.284 709Z" fill="#F0A358"/>
<path d="M650 525C648.698 533.353 644.195 540.766 637.592 545.937C636.902 546.421 636.211 546.904 635.5 547.402C634.83 547.895 634.159 548.389 633.468 548.897C623.941 554.819 610.476 553.225 599.941 550.952C597.032 550.099 594.601 548.961 592 547.402C592 546.759 592 546.116 592 545.454C592.919 545.433 592.919 545.433 593.857 545.411C612.135 544.938 627.215 544.411 640.756 530.54C641.333 529.901 641.91 529.261 642.505 528.603C644.774 526.387 646.791 525 650 525Z" fill="#1B100C"/>
<path d="M547.481 647C552.58 652.397 551.529 662.376 551.563 669.453C551.593 670.568 551.623 671.683 551.654 672.831C551.697 679.848 551.093 683.642 546.561 688.863C548.686 689.184 550.811 689.505 553 689.836C553 690.158 553 690.479 553 690.81C551.678 690.863 550.356 690.9 549.033 690.932C548.297 690.954 547.561 690.977 546.802 691C544.722 690.81 544.722 690.81 541.962 688.863C541.962 688.22 541.962 687.578 541.962 686.916C541.506 686.192 541.049 685.467 540.579 684.721C537.202 678.16 540.029 669.16 541.79 662.333C543.321 657.025 545.146 651.97 547.481 647Z" fill="#F0A45B"/>
<path d="M482.813 653.213C487.236 652.82 487.236 652.82 489.349 654.539C498.346 666.935 499.137 680.325 497.023 695.141C496.867 696.069 496.711 696.997 496.551 697.953C491.475 698.987 486.617 699.039 481.464 698.986C480.24 698.98 480.24 698.98 478.991 698.973C476.994 698.962 474.997 698.944 473 698.925C473 698.604 473 698.284 473 697.953C476.562 697.953 480.124 697.953 483.794 697.953C484.118 696.348 484.442 694.743 484.776 693.09C485.585 692.127 486.395 691.164 487.229 690.172C490.948 685.171 491.135 679.681 490.663 673.638C489.528 668.607 487.657 663.836 485.757 659.049C485.433 658.086 485.109 657.123 484.776 656.131C483.804 655.81 482.833 655.489 481.832 655.158C482.156 654.517 482.479 653.875 482.813 653.213Z" fill="#BB5E20"/>
<path d="M569.146 444.146C572.187 446.193 573.824 447.89 575.85 450.995C576.295 455.911 575.867 458.761 572.977 462.737C570.684 465.08 570.068 464.984 566.932 465C563.076 464.886 560.563 464.55 557.655 461.759C555.936 457.788 555.629 455.523 556.398 451.24C557.53 448.374 558.117 446.897 560.527 445.124C563.72 444.037 565.799 443.804 569.146 444.146Z" fill="#1E100B"/>
<path d="M568 757C568 761.667 565.453 764.459 562.291 767.638C556.288 773.094 551.428 776.291 543.131 775.979C534.616 774.853 528.969 769.702 523 763.869C523.323 763.222 523.646 762.574 523.978 761.907C527.891 763.215 531.804 764.524 535.717 765.832C547.877 766.885 557.379 762.25 568 757Z" fill="#1B100C"/>
<path d="M565.361 697C568.809 698.418 571.105 699.99 573.448 702.818C574.8 711.684 573.818 719.899 568.836 727.545C568.356 728.025 567.877 728.505 567.383 729C566.715 729 566.048 729 565.361 729C561.163 723.362 561.113 717.737 561.065 711.061C561.044 710.337 561.023 709.613 561.002 708.867C560.969 704.4 561.428 701.65 564.35 697.97C564.684 697.65 565.017 697.33 565.361 697Z" fill="#A74111"/>
<path d="M540.676 705.059C541.855 705.068 543.034 705.077 544.249 705.086C545.157 705.098 546.065 705.109 547 705.121C546.273 714.972 542.971 724.771 535.343 731.382C534.606 731.916 533.87 732.45 533.111 733C531.791 730.35 532.007 728.333 532.022 725.369C532.025 724.252 532.028 723.136 532.032 721.985C532.04 720.815 532.048 719.644 532.057 718.438C532.061 717.26 532.066 716.082 532.07 714.868C532.082 711.951 532.098 709.034 532.119 706.117C534.98 704.681 537.493 705.028 540.676 705.059Z" fill="#F4B263"/>
<path d="M506.385 616C511.39 620.499 511.449 628.551 511.999 635.041C512.037 640.001 510.081 644 507.324 647.943C505.447 649.879 505.447 649.879 502.514 650C501.623 649.96 500.733 649.92 499.816 649.879C499.506 647.643 499.196 645.407 498.877 643.103C498.258 643.423 497.638 643.742 497 644.071C497.263 643.406 497.525 642.741 497.796 642.056C501.066 633.514 503.957 624.835 506.385 616Z" fill="#1B100B"/>
<path d="M631.107 723C632.648 724.614 632.648 724.614 634 726.889C632.39 737.852 622.963 746.925 614.711 753.503C612.498 755.077 610.277 756.581 607.964 758C607.646 757.358 607.328 756.717 607 756.056C608.309 753.597 609.667 751.289 611.158 748.946C611.594 748.253 612.03 747.561 612.479 746.847C617.943 738.291 623.837 730.097 631.107 723Z" fill="#1D100B"/>
<path d="M484.937 710C486.578 710 488.219 710 489.91 710C490.238 712.64 490.567 715.28 490.905 718C491.233 718 491.561 718 491.9 718C492.537 726.496 490.107 733.98 485.496 741.125C482.947 744 482.947 744 480.149 744.938C479.072 744.968 479.072 744.968 477.974 745C476.332 742.69 474.691 740.38 473 738C473.985 737.67 474.97 737.34 475.984 737C478.632 735.953 478.632 735.953 480.958 734C482.8 728.763 483.494 723.568 484.066 718.062C484.152 717.283 484.238 716.504 484.327 715.701C484.535 713.801 484.737 711.901 484.937 710Z" fill="#B6581D"/>
<path d="M552.851 704C553.817 715.663 550.02 725.349 543.704 735.09C541.937 737.082 541.937 737.082 539.875 737.975C537.969 738.055 537.969 738.055 535.736 736.17C535.163 735.507 534.59 734.845 534 734.163C535.059 731.826 536.165 730.058 537.845 728.082C543.062 721.459 546.447 713.468 545.906 704.973C550.618 704 550.618 704 552.851 704Z" fill="#B5571B"/>
<path d="M645.391 300.681C651.154 304.156 654.987 310.292 657.231 316.674C658.424 322.985 657.922 329.601 657.732 336C655.827 334.032 655.205 332.814 654.187 330.294C653.879 329.548 653.572 328.802 653.255 328.033C652.931 327.243 652.607 326.452 652.273 325.637C649.838 319.813 647.367 314.377 643.708 309.243C642.543 307.549 642.543 307.549 641.587 305.434C640.243 302.853 638.505 302.605 635.899 301.663C635.272 301.015 634.646 300.368 634 299.7C638.127 298.279 641.338 299.232 645.391 300.681Z" fill="#1C100A"/>
<path d="M581.745 648C583.142 649.029 583.142 649.029 584.583 650.917C586.026 662.908 583.778 673.164 577.015 683C573.282 677.996 572.541 674.704 573.231 668.417C574.189 665.397 575.52 662.656 576.956 659.849C577.657 658.426 578.356 657.002 579.051 655.576C579.363 654.96 579.675 654.344 579.997 653.709C580.827 651.826 581.317 650.016 581.745 648Z" fill="#9C360D"/>
<path d="M515 706.24C515 715.109 514.973 724.874 511.421 733.017C510.535 733.671 509.65 734.326 508.737 735C504.017 726.335 504.423 718.577 506.381 708.897C507.734 704.916 511.788 706.174 515 706.24Z" fill="#F2A95F"/>
<path d="M519.235 653C521.859 653.433 521.859 653.433 523.934 655.659C528.684 663.843 530.885 676.664 529.671 686.084C527.699 690.01 526.022 692.494 521.859 694C521.537 693.347 521.215 692.694 520.883 692.021C521.185 691.307 521.487 690.593 521.798 689.857C524.264 683.244 522.439 675.368 521.615 668.522C521.508 667.493 521.401 666.463 521.291 665.403C521.171 664.417 521.052 663.431 520.928 662.415C520.826 661.521 520.724 660.628 520.618 659.707C519.729 656.814 518.507 655.975 516 654.422C516.977 653.433 516.977 653.433 519.235 653Z" fill="#B75A1E"/>
<path d="M593 563C590.377 572.451 583.094 578.766 575.047 583.941C573.03 584.987 571.225 585.556 569.005 586C568.86 579.344 571.969 576.011 576.449 571.309C580.797 567.378 586.883 563 593 563Z" fill="#1B110C"/>
<path d="M493.996 797.267C508.676 796.719 508.676 796.719 515.907 800.205C516.903 801.185 516.903 801.185 517 803.209C516.988 804.015 516.977 804.822 516.965 805.654C516.956 806.463 516.947 807.272 516.938 808.106C516.926 808.731 516.915 809.356 516.903 810C507.786 809.237 500.514 805.118 493 800.205C493.329 799.235 493.657 798.266 493.996 797.267Z" fill="#3A2A1E"/>
<path d="M489.451 815.019C490.57 815.033 491.689 815.046 492.842 815.06C495.733 815.387 497.451 815.917 499.903 817.483C499.93 819.017 499.949 820.551 499.965 822.085C499.977 822.94 499.988 823.794 500 824.674C499.903 826.817 499.903 826.817 498.907 827.855C492.79 828.519 488.293 826.869 482.981 823.706C480.431 821.372 480.431 821.372 479 819.557C482.248 815.359 484.35 814.885 489.451 815.019Z" fill="#3D2D20"/>
<path d="M612 266.076C611.042 271.57 608.901 274.271 604.309 277.792C600.88 279.766 598.144 279.933 594.154 280C592.762 277.392 592.916 275.462 593.163 272.574C594.303 270.083 595.468 269.152 598.077 268.016C602.865 266.374 606.925 265.772 612 266.076Z" fill="#1A100B"/>
<path d="M572 281C572.99 281.66 573.98 282.32 575 283C569.981 290.32 564.063 296.969 556 301C555.34 301 554.68 301 554 301C554 295.219 556.907 292.146 560.656 288.125C564.085 285.017 567.815 282.928 572 281Z" fill="#19100B"/>
<path d="M635.967 610C636.168 616.247 635.433 621.855 634.28 627.957C634.121 628.838 633.962 629.719 633.798 630.626C632.615 637.069 632.615 637.069 631.613 639.318C631.373 642.043 631.224 644.767 631.072 647.499C630.742 650.068 630.742 650.068 629 653C629.031 652.182 629.062 651.365 629.094 650.522C629.207 647.455 629.315 644.388 629.42 641.321C629.489 639.354 629.563 637.387 629.638 635.421C629.945 627.721 629.945 627.721 629.276 620.078C629 616.841 629 616.841 630.218 614.581C631.07 613.765 631.07 613.765 631.939 612.932C632.503 612.367 633.066 611.803 633.647 611.222C635.096 610 635.096 610 635.967 610Z" fill="#741E0A"/>
<path d="M359 444C365.28 446.79 369.411 449.816 373.801 455.215C378.209 460.497 381.311 463.208 388 465C387.34 465.66 386.68 466.32 386 467C381.969 466.715 379.897 465.415 377 462.688C376.308 462.057 375.616 461.427 374.902 460.777C374.275 460.191 373.647 459.604 373 459C368.733 455.062 364.489 453.578 359 452C359 449.36 359 446.72 359 444Z" fill="#AE4B25"/>
</g>
<defs>
<clipPath id="clip0_2055_2">
<rect width="900" height="900" fill="white"/>
</clipPath>
</defs>
</svg>
