<svg width="900" height="900" viewBox="0 0 900 900" fill="none" xmlns="http://www.w3.org/2000/svg">
<g clip-path="url(#clip0_2056_363)">
<path d="M334.91 57.8963C347.624 53.5768 360.147 51.568 373.587 53.1824C381.046 54.6661 388.323 57.4095 393.004 63.659C395.5 68.1159 397.235 71.5172 396.228 76.7498C393.322 80.2635 390.543 82.1293 386.305 83.7927C385.65 84.0426 385.013 84.2846 384.377 84.5271C364.22 92.8058 348.986 110.706 340.439 130.436C340.163 131.094 339.894 131.732 339.626 132.37C332.413 149.395 332.841 169.389 337.74 187.047C340.159 184.667 342.508 182.277 344.789 179.763C350.01 173.925 355.395 168.497 361.236 163.273C362.716 161.952 364.185 160.622 365.635 159.266C372.3 152.967 379.098 147.032 386.382 141.455C387.465 140.629 388.546 139.8 389.624 138.969C410.304 122.312 433.669 108.865 457.727 97.7215C460.491 96.4422 463.232 95.1358 465.945 93.7517C472.293 90.4907 478.675 87.5348 485.339 84.9773C486.767 84.4359 488.194 83.8927 489.62 83.3494C514.678 73.593 546.644 59.5553 574.254 65.2127C580.81 67.0772 585.978 68.8967 589.44 75.1004C592.102 83.2636 591.845 93.9271 588.135 101.662C587.677 102.487 587.231 103.288 586.786 104.089C574.363 124.7 574.363 124.701 560.368 144.304C559.805 145.091 559.804 145.091 559.252 145.862C557.258 148.649 555.259 151.43 553.217 154.182C552.15 155.619 551.088 157.06 550.032 158.505C549.498 159.234 548.981 159.943 548.463 160.651C547.476 161.958 546.498 163.273 545.536 164.598C543.434 167.773 542.639 169.984 543.392 173.849C544.593 175.587 544.594 175.588 546.222 176.678C551.146 177.356 555.015 176.702 559.767 175.269C561.11 174.855 562.457 174.445 563.803 174.04C564.557 173.814 565.29 173.595 566.022 173.376C614.754 158.746 671.145 140.877 722.266 154.09C723.352 154.398 724.406 154.696 725.46 154.995C740.493 159.087 755.414 164.273 766.781 175.381C777.441 186.886 787.716 199.197 787.092 215.652C781.706 229.454 781.706 229.455 769.916 239.25C757.857 249.596 742.198 263.337 736.781 278.49C738.766 278.567 740.752 278.645 742.738 278.733C743.579 278.771 744.396 278.807 745.212 278.844C765.919 279.614 786.151 288.23 802.713 300.504C803.39 301.032 804.046 301.545 804.702 302.057C808.488 304.933 811.815 308.173 815.113 311.588C830.697 328.274 838.495 346.97 837.946 369.763C837.563 378.415 835.739 386.507 829.23 392.557C816.432 390.11 816.431 390.11 805.941 381.422C798.705 375.824 791.09 371.359 783.005 367.104C782.685 367.745 782.373 368.368 782.062 368.99C796.199 385.942 802.808 408.702 803.097 430.466C803.104 432.18 803.104 432.18 803.111 433.86C803.173 446.522 802.066 459.902 795.328 470.979C792.325 473.059 792.324 473.059 788.665 473.631C783.872 465.574 777.697 454.103 768.855 450.062C767.431 463.344 765.526 476.214 761.503 488.982C761.116 490.173 760.74 491.329 760.365 492.484C759.799 494.233 759.23 495.982 758.655 497.728C758.089 499.364 758.089 499.365 757.534 500.969C773.34 502.555 789.346 507.839 800.358 519.929C800.873 520.534 801.373 521.122 801.872 521.709C818.358 540.032 822.23 563.371 821.797 587.263C821.758 588.373 821.721 589.45 821.683 590.526C821.565 594.651 821.271 598.688 820.74 602.781C815.702 634.977 801.287 664.791 775.082 684.867C774.248 685.484 773.438 686.083 772.628 686.682C749.119 704.475 725.602 708.256 696.786 707.497C695.546 707.459 695.545 707.459 694.329 707.422C682.353 737.367 666.92 764.812 642.297 786.315C640.285 788.046 638.295 789.783 636.335 791.574C615.899 810.437 591.794 826.352 566.324 837.514C565.583 837.835 564.864 838.147 564.146 838.459C560.514 840.038 556.879 841.612 553.239 843.172C550.212 844.454 547.273 845.699 544.335 846.943L543 847.5C512.253 860.988 483.603 864.023 446 865C411.563 865.894 383.027 854.986 355.665 846.867C328.553 836.957 302.903 822.794 280.246 804.927C279.267 804.148 278.316 803.391 277.365 802.635C271.714 798.22 266.393 793.682 261.387 788.553C259.139 786.201 257.257 784.148 254.426 782.541C253.886 782.322 253.361 782.109 252.837 781.896C252.837 780.011 252.837 780.011 251.665 778.744C231.088 759.369 218.058 735.244 207.446 709.466C207.163 708.771 206.887 708.096 206.613 707.422C196.544 708.741 186.306 708.88 176.179 708.14C147.912 704.24 122.641 686.841 105.54 664.562C104.944 663.75 104.365 662.96 103.786 662.172C82.9903 633.985 75.7252 597.876 79.9671 563.424C83.026 546.229 90.4289 526.301 104.973 515.316C105.532 514.926 106.074 514.546 106.617 514.167C117.422 505.673 129.801 502.34 143.26 501.182C144.272 501.11 145.255 501.039 146.238 500.969C146.238 499.084 146.238 499.083 145.372 496.948C138.456 480.7 136.121 463.571 135.016 446.068C134.983 445.503 134.95 444.954 134.917 444.406H133.031C127.867 449.667 127.867 449.668 119.437 463.367C119.054 463.994 118.681 464.604 118.309 465.213C117.554 466.446 116.801 467.681 116.05 468.917C115.626 469.637 115.215 470.337 114.803 471.036C114.38 471.741 113.969 472.427 113.559 473.111C112.045 475.678 111.881 476.311 108.916 477.106C105.643 476.184 103.59 474.371 101.197 471.996C90.5501 459.317 88.1945 439.671 88.2933 423.571C89.3049 392.048 105.239 360.966 127.732 339.305C128.25 338.821 128.754 338.351 129.257 337.881C128.616 337.56 127.993 337.248 127.37 336.937C125.614 337.447 125.613 337.447 121.072 339.344C120.187 339.727 119.327 340.1 118.468 340.472C100.312 348.33 83.8449 358.156 70.0326 372.455C67.7985 374.793 65.5157 377.079 63.222 379.359C60.2106 369.202 60.0204 356.922 62.5814 346.615C62.9051 345.537 62.9047 345.536 63.222 344.479C67.2495 330.838 74.5709 318.339 83.9759 307.714C85.5486 306.458 87.1215 305.201 88.6927 303.943V302.057C91.5225 301.115 91.5235 301.115 93.5716 299.432C107.955 286.736 125.684 279.79 144.683 277.761C145.944 277.653 145.945 277.652 147.181 277.547C146.238 274.719 146.238 274.718 145.04 272.678C137.085 260 132.226 246.034 132.785 230.868C132.909 229.21 132.908 229.209 133.031 227.584C133.641 219.328 133.972 210.657 136.716 202.786C137.237 201.503 137.237 201.502 137.747 200.245C141.637 190.622 145.941 181.292 151.519 172.52C162.176 156.354 177.425 138.432 197.179 134.256C183.657 166.367 183.052 199.662 195.551 232.447C195.804 233.097 196.05 233.728 196.295 234.359C197.673 237.932 198.845 241.121 201.896 243.609C207.481 199.32 226.245 153.622 254.297 118.979C255.168 117.904 256.033 116.824 256.891 115.738C262.791 108.227 269.172 101.423 276.363 95.1326C277.644 94.0381 278.922 92.9382 280.195 91.8338C295.297 77.7466 313.321 65.1501 333.052 58.5076C333.683 58.2998 334.297 58.0979 334.91 57.8963Z" fill="black"/>
<path d="M473.584 309.599C476.896 311.08 479.52 313.082 482.369 315.314C488.255 319.809 494.421 323.64 500.844 327.316C502.192 328.088 503.535 328.868 504.875 329.653C525.815 341.909 548.304 351.237 571.693 357.677C572.607 357.931 573.52 358.186 574.46 358.447C592.263 363.226 613.107 365.342 631.125 360.505C630.557 357.255 630.288 356.82 627.532 354.602C626.397 353.832 625.255 353.07 624.109 352.316C618.147 348.227 612.771 343.827 607.541 338.823C606.837 338.179 606.133 337.535 605.407 336.871C599.168 330.974 594.431 324.2 589.617 317.141C589.929 316.519 590.24 315.896 590.561 315.255C591.192 315.805 591.823 316.354 592.473 316.92C613.675 335.007 637.026 348.346 663.697 356.488C664.387 356.699 665.078 356.91 665.789 357.127C667.931 357.726 667.931 357.726 670.238 357.988C670.991 358.093 671.743 358.198 672.519 358.307C673.197 358.372 673.875 358.436 674.573 358.503C677.736 360.332 678.303 363.769 679.236 367.104C679.801 369.587 680.298 372.004 680.707 374.51C680.881 375.544 680.881 375.544 681.06 376.6C684.628 398.414 686.025 420.666 686.883 442.731C686.922 443.737 686.962 444.743 687.003 445.779C688.212 477.632 688.011 509.516 687.969 541.385C687.961 548.348 687.967 555.311 687.976 562.274C687.985 569.12 687.986 575.966 687.981 582.811C687.978 586.845 687.977 590.879 687.984 594.913C688.014 617.193 687.765 639.478 684.13 661.524C683.887 663.031 683.887 663.031 683.639 664.568C675.531 713.171 651.733 754.656 612.258 784.724C611.138 785.599 610.017 786.474 608.897 787.35C573.427 814.783 532.402 832.873 488.678 842.229C487.927 842.4 487.177 842.57 486.404 842.746C474.616 845.358 462.724 845.323 450.708 845.352C449.901 845.356 449.094 845.359 448.263 845.363C433.365 845.396 419.252 844.002 404.719 840.521C403.132 840.146 403.132 840.146 401.513 839.764C393.324 837.796 385.316 835.569 377.361 832.802C376.701 832.578 376.04 832.354 375.36 832.123C344.25 821.506 314.005 805.796 288.686 784.724C288.143 784.278 287.601 783.831 287.042 783.371C281.034 778.423 275.193 773.396 269.818 767.755C268.709 766.647 268.709 766.647 267.578 765.516C266.761 764.7 265.944 763.883 265.102 763.042C264.514 762.499 263.927 761.955 263.322 761.396C237.148 736.555 224.43 701.872 217.816 667.239C217.666 666.482 217.516 665.726 217.362 664.946C213.427 643.403 213.82 621.521 213.861 599.714C213.865 596.92 213.867 594.127 213.868 591.333C213.888 562.196 214.462 533.093 215.457 503.974C215.487 503.093 215.517 502.212 215.548 501.304C217.812 434.897 217.812 434.897 220.587 409.526C220.664 408.79 220.742 408.053 220.822 407.294C221.952 396.618 223.372 386.004 225.127 375.412C225.321 374.236 225.515 373.061 225.716 371.849C227.366 362.398 227.366 362.398 229.254 359.563C231.844 358.64 234.257 357.945 236.919 357.324C263.922 350.389 286.926 337.864 302.836 314.313C303.147 313.69 303.459 313.068 303.779 312.427C304.402 312.427 305.025 312.427 305.666 312.427C306.918 313.856 308.104 315.341 309.263 316.846C339.096 354.04 385.001 373.165 431.133 380.302C432.278 380.486 433.424 380.669 434.604 380.858C440.741 381.581 446.953 381.475 453.125 381.481C454.133 381.482 454.133 381.482 455.162 381.483C465.918 381.466 476.297 380.92 486.791 378.417C487.857 378.167 487.857 378.167 488.944 377.911C501.158 375.023 501.158 375.023 511.318 368.047C513.211 364.141 513.749 361.079 513.205 356.735C510.3 353.514 507.03 350.68 503.81 347.778C493.619 338.542 485.699 328.109 477.833 316.879C477.422 316.294 477.012 315.708 476.589 315.105C475.441 313.324 474.497 311.51 473.584 309.599Z" fill="#FFCEA3"/>
<path d="M329.471 614.451C331.078 615.743 331.078 615.743 333.023 617.864C332.712 619.42 332.401 620.975 332.08 622.578C330.353 623.009 328.626 623.441 326.899 623.872C326.196 624.048 325.493 624.224 324.769 624.404C322.779 624.902 320.79 625.399 318.8 625.896C318.202 626.045 317.603 626.195 316.986 626.349C316.288 626.523 315.59 626.698 314.87 626.877C314.323 627.014 313.776 627.151 313.213 627.292C350.331 646.726 393.152 653.714 434.814 653.879C435.935 653.885 437.056 653.892 438.211 653.899C441.807 653.915 445.402 653.921 448.998 653.923C450.225 653.924 451.453 653.925 452.718 653.926C469.506 653.917 486.021 653.673 502.664 651.286C505.816 650.837 508.972 650.448 512.133 650.064C538.287 646.724 563.479 639.643 586.787 627.292C585.662 627.041 584.537 626.791 583.378 626.533C581.901 626.197 580.423 625.861 578.945 625.524C578.204 625.36 577.463 625.196 576.699 625.027C575.628 624.781 575.628 624.781 574.534 624.53C573.877 624.382 573.22 624.233 572.543 624.081C570.75 623.521 570.75 623.521 567.92 621.635C567.92 619.573 567.92 619.573 568.863 616.922C578.612 607.988 592.827 608.707 605.136 609.225C615.976 609.922 626.44 613.47 633.955 621.576C639.03 628.046 639.935 633.446 639.991 641.535C639.615 644.26 639.615 644.26 638.532 646.043C635.841 647.653 634.23 647.523 631.125 647.088C628.556 645.941 626.235 644.486 623.873 642.964C623.247 642.575 622.622 642.186 621.977 641.786C619.337 640.139 616.734 638.444 614.144 636.719C614.109 637.474 614.074 638.23 614.038 639.009C611.272 686.803 593.088 733.487 557.72 766.459C538.762 782.987 516.645 793.436 492.451 799.807C491.394 800.088 490.338 800.369 489.249 800.658C465.753 806.477 439.723 806.568 416.039 801.693C415.251 801.531 414.463 801.369 413.651 801.202C373.859 792.723 340.792 770.23 317.93 736.646C299.914 708.71 285.76 671.325 286.799 637.661C286.29 637.947 285.782 638.232 285.258 638.527C282.93 639.824 280.59 641.099 278.25 642.375C277.05 643.049 277.05 643.049 275.827 643.737C271.029 646.329 267.738 647.681 262.271 647.088C259.28 642.162 259.858 636.623 260.385 631.062C261.986 625.218 265.942 620.486 270.762 616.922C287.098 607.967 312.583 604.036 329.471 614.451Z" fill="#1C100A"/>
<path d="M152.919 527.663C157.609 530.367 161.256 533.973 165.106 537.734C166.338 538.763 167.576 539.784 168.82 540.798C173.009 544.481 176.656 548.579 180.107 552.946C181.537 554.753 182.972 556.525 184.511 558.241C196.193 571.287 195.852 585.15 195.454 601.699C195.383 605.041 195.363 608.383 195.345 611.726C195.341 612.382 195.337 613.038 195.333 613.714C195.326 615.032 195.319 616.35 195.312 617.668C195.3 619.624 195.282 621.58 195.262 623.536C195.121 641.554 196.895 659.352 199.697 677.135C200.144 679.999 200.549 682.869 200.953 685.74C183.616 690.577 164.356 684.8 149.092 676.491C127.001 663.531 110.344 639.469 103.75 614.974C103.443 613.739 103.141 612.503 102.844 611.266C102.692 610.652 102.54 610.039 102.384 609.406C97.562 589.133 97.3931 563.734 108.228 545.375C109.815 543.07 111.48 540.868 113.221 538.677C113.921 537.685 114.622 536.694 115.343 535.672C125.962 524.819 139.001 521.311 152.919 527.663Z" fill="#FFCEA3"/>
<path d="M775.54 528.569C788.161 536.024 795.073 547.374 798.782 561.217C800.305 567.502 800.494 573.747 800.375 580.189C800.34 582.103 800.336 584.017 800.336 585.932C800.276 597.712 799.025 609.003 795.152 620.162C794.863 621.004 794.575 621.846 794.278 622.714C789.93 634.983 783.751 645.496 775.459 655.573C774.743 656.455 774.026 657.337 773.289 658.246C760.082 673.668 740.928 684.096 720.744 686.682C717.697 686.832 714.656 686.857 711.605 686.859C710.8 686.87 709.994 686.882 709.164 686.894C708.39 686.896 707.616 686.897 706.819 686.899C706.118 686.903 705.418 686.907 704.697 686.911C702.82 686.682 702.82 686.682 699.99 684.797C700.095 684.234 700.199 683.671 700.307 683.091C704.626 659.602 706.731 636.552 706.561 612.661C706.554 609.304 706.551 605.946 706.55 602.589C706.54 600.312 706.514 598.036 706.474 595.76C706.229 580.69 707.108 570.222 716.971 558.474C717.76 557.464 718.546 556.452 719.328 555.436C721.3 552.92 723.357 550.51 725.461 548.104C726.373 547.005 726.373 547.005 727.303 545.883C739.82 531.113 756.13 519.382 775.54 528.569Z" fill="#FFCEA3"/>
<path d="M486.695 536.015C496.302 544.361 503.991 555.095 504.94 568.17C505.23 582.95 500.313 592.679 490.27 603.488C476.169 616.843 460.769 618.453 442.3 617.989C428.023 617.326 416.51 610.911 406.605 600.896C405.914 600.225 405.222 599.554 404.509 598.863C396.253 590.351 393.613 581.422 393.787 569.792C394.423 556.267 402.008 545.605 411.617 536.438C432.385 519.107 465.469 520.092 486.695 536.015Z" fill="#1C0F09"/>
<path d="M344.344 654.63C348.455 655.511 352.549 656.415 356.604 657.532C368.525 660.73 380.608 662.553 392.809 664.293C393.662 664.416 394.515 664.539 395.393 664.666C446.124 671.937 501.674 670.587 550.965 655.463C553.77 654.63 553.77 654.63 555.656 654.63C555.479 664.901 550.716 674.005 543.746 681.38C529.896 694.133 512.416 699.968 494.338 703.651C493.178 703.899 492.018 704.148 490.824 704.403C479.172 706.726 467.656 706.913 455.803 706.848C452.55 706.833 449.298 706.848 446.044 706.866C414.853 706.896 380.204 702.341 356.313 680.437C349.656 673.485 344.54 664.418 344.344 654.63Z" fill="#FFFAF0"/>
<path d="M449.292 741.006C450.223 741.01 451.154 741.014 452.113 741.018C475.257 741.137 501.01 741.704 520.752 755.5C524.499 759.488 524.499 759.488 524.643 763.513C522.746 769.411 518.27 771.467 513.087 774.295C484.617 787.856 446.644 790.011 416.039 782.838C415.334 782.682 414.63 782.525 413.904 782.363C402.354 779.734 388.59 775.948 380.132 767.166C378.305 763.984 378.305 763.984 378.01 761.097C380.896 754.643 387.008 751.705 393.281 749.048C411.395 742.351 430.147 740.847 449.292 741.006Z" fill="#CC501F"/>
<path d="M357.772 461.01C367.491 466.067 371.302 476.085 374.506 485.856C376.517 493.408 376.707 500.847 376.772 508.628C376.792 510.161 376.792 510.161 376.812 511.726C376.735 524.89 373.326 537.579 364.169 547.386C359.909 551.107 354.779 553.911 349.061 554.35C343.28 553.894 338.116 551.193 333.952 547.242C322.435 533.481 320.37 514.486 321.703 497.198C323.363 483.238 328.214 471.465 339.141 462.439C343.987 458.832 352.165 459.472 357.772 461.01Z" fill="#1C100A"/>
<path d="M558.704 460.293C566.905 464.953 571.952 472.249 574.523 481.172C579.362 499.806 579.939 522.132 570.455 539.443C567.64 543.748 564.656 547.133 560.373 549.99C559.517 550.573 558.661 551.156 557.779 551.757C552.345 553.637 547.183 553.932 541.767 551.813C531.801 546.3 528.502 538.775 525.45 528.308C523.474 520.747 523.384 513.217 523.346 505.447C523.327 504.452 523.307 503.456 523.287 502.431C523.223 489.256 526.854 475.405 536.148 465.588C542.65 459.906 550.259 457.071 558.704 460.293Z" fill="#1C100A"/>
<path d="M648.032 551.473C648.679 551.917 649.326 552.361 649.992 552.817C651.276 553.663 651.276 553.663 652.586 554.526C658.38 560.155 661.986 566.577 662.348 574.673C662.085 580.733 659.747 585.169 655.652 589.583C645.275 598.188 633.058 601.122 619.805 599.953C606.734 598.338 595.248 593.288 586.787 582.984C586.009 582.051 585.231 581.118 584.429 580.156C581.564 574.559 582.224 567.35 583.014 561.302C585.43 554.923 590.42 550.531 596.221 547.161C596.89 546.771 597.558 546.381 598.248 545.979C613.583 538.862 634.352 542.588 648.032 551.473Z" fill="#FA7945"/>
<path d="M309.439 551.875C315.335 558.306 316.555 563.145 316.364 571.823C315.916 576.873 314.444 580 311.326 583.927C310.706 584.775 310.706 584.775 310.073 585.64C304.164 592.586 292.524 598.368 283.523 599.784C273.249 600.514 264.149 600.935 254.725 596.182C253.89 595.772 253.056 595.361 252.197 594.938C245.828 591.482 241.023 587.157 238.688 580.156C237.69 571.594 239.539 565.325 244.823 558.537C260.852 541.207 290.437 536.969 309.439 551.875Z" fill="#FA7945"/>
<path d="M600.937 385.958C614.586 396.152 624.994 410.525 628.295 427.438C628.533 430.349 628.481 432.991 628.295 435.922C627.352 436.865 627.352 436.865 624.794 437.273C620.538 436.713 618.957 434.425 616.385 431.267C605.214 418.444 589.599 407.769 572.191 406.532C557.111 405.782 546.052 407.563 533.416 416.044C529.152 418.816 525.853 419.654 520.752 419.896C518.394 419.071 518.394 419.071 516.978 417.068C515.503 409.77 518.289 402.963 522.207 396.906C540.382 372.427 576.039 369.607 600.937 385.958Z" fill="#1C1009"/>
<path d="M369.549 384.309C376.958 389.988 382.836 397.807 384.348 407.191C384.521 411.531 383.965 414.554 381.135 418.01C377.513 420.423 376.018 420.402 371.701 419.896C368.583 418.494 365.742 416.714 362.857 414.888C349.211 406.365 335.304 403.588 319.345 406.698C302.988 411.073 290.669 420.378 280.965 434.132C278.861 436.33 277.553 436.737 274.535 436.865C272.191 434.522 272.317 433.69 272.236 430.442C272.519 416.012 281.844 402.673 291.903 392.954C312.047 374.952 346.318 369.234 369.549 384.309Z" fill="#1C0F09"/>
<path d="M474.17 551.245C479.549 555.014 483.007 559.697 484.904 566.016C485.745 572.936 484.96 578.094 481.131 583.927C480.625 584.744 480.119 585.56 479.598 586.402C471.381 594.613 462.242 596.33 451.12 596.477C440.62 596.425 431.436 595.21 423.586 587.698C418.598 582.658 415.801 578.309 415.567 571.024C415.72 563.699 418.488 558.831 423.634 553.727C438.391 541.39 457.943 541.686 474.17 551.245Z" fill="#FFCEA3"/>
<path d="M303.779 312.427C304.402 312.427 305.025 312.427 305.666 312.427C306.918 313.856 308.104 315.341 309.263 316.846C339.096 354.04 385.001 373.165 431.133 380.302C432.278 380.486 433.424 380.669 434.604 380.858C440.741 381.581 446.953 381.473 453.125 381.481C454.131 381.483 454.131 381.483 455.157 381.485C465.946 381.487 476.222 380.622 486.791 378.417C488.893 378.039 490.996 377.665 493.1 377.297C494.456 377.044 495.813 376.79 497.168 376.531C497.168 377.154 497.168 377.776 497.168 378.417C481.203 386.149 464.7 390.771 446.886 390.864C446.06 390.869 445.234 390.874 444.382 390.88C442.637 390.889 440.892 390.895 439.147 390.899C436.541 390.908 433.936 390.937 431.33 390.967C419.993 391.034 409.238 390.018 398.115 387.844C397.087 387.646 396.058 387.449 394.998 387.246C392.489 386.736 389.996 386.187 387.502 385.605C386.201 385.303 386.201 385.303 384.873 384.995C356.906 378.34 326.793 363.423 306.609 342.594C306.609 341.972 306.609 341.35 306.609 340.708C305.987 340.708 305.364 340.708 304.723 340.708C303.227 339.191 303.227 339.191 301.539 337.173C299.236 334.464 296.915 331.861 294.346 329.396C295.508 324.75 297.591 321.682 300.536 318.017C301.873 316.224 302.842 314.453 303.779 312.427Z" fill="#E08F49"/>
<path d="M151.438 556.257C156.882 558.479 160.965 561.91 165.105 566.015C165.774 566.64 166.443 567.265 167.132 567.908C177.187 578.027 185.738 594.141 186.917 608.551C186.803 610.323 186.803 610.323 185.388 612.149C183.029 613.151 183.029 613.151 179.728 613.917C175.596 615.318 174.662 616.908 172.652 620.693C170.458 627.271 171.602 633.026 174.344 639.271C176.409 643.192 179.067 646.079 182.381 649.033C183.973 650.859 183.973 650.859 184.267 653.393C183.973 655.573 183.973 655.573 183.029 656.515C177.602 657.281 172.941 657.192 168.23 654.218C159.271 647.398 152.613 638.581 150.955 627.292C150.218 617.827 151.543 609.404 157.559 601.838C160.212 599.482 160.212 599.482 162.275 598.068C160.023 589.066 153.72 583.3 146.238 578.271C142.022 575.766 137.823 575.601 133.031 576.385C130.159 578.468 130.159 578.468 128.314 581.099C126.428 582.984 126.428 582.984 123.598 582.984C122.939 575.296 123.777 569.562 128.314 563.187C135.167 556 141.471 553.686 151.438 556.257Z" fill="#1B0F09"/>
<path d="M766.969 558.474C771.703 562.513 775.373 567.642 777.346 573.557C777.409 575.029 777.426 576.503 777.405 577.976C777.396 578.738 777.388 579.5 777.379 580.285C777.368 580.865 777.357 581.444 777.346 582.042C776.1 582.353 774.855 582.664 773.572 582.984C772.405 581.542 771.238 580.1 770.071 578.657C768.541 576.984 767.44 576.445 765.192 576.161C756.897 575.886 751.299 579.186 745.238 584.667C741.693 588.661 739.255 593.362 736.781 598.068C737.508 598.33 738.236 598.593 738.985 598.863C743.136 600.663 745.246 603.581 747.14 607.546C750.339 616.461 750.541 627.172 747.276 636.071C743.302 644.305 736.8 651.743 728.523 655.827C725.004 656.97 721.561 657.085 717.914 656.516C716.971 655.573 716.971 655.573 716.691 653.389C717.052 650.123 718.086 649.308 720.508 647.147C724.971 642.964 728.831 638.927 729.459 632.554C729.644 625.668 728.658 620.673 724.127 615.357C722.504 613.803 722.504 613.803 719.27 613.21C716.027 612.208 716.027 612.208 714.8 610.658C712.326 602.328 719.555 589.968 723.449 582.73C729.859 571.309 738.757 559.858 751.86 556.043C757.635 554.836 762.005 555.277 766.969 558.474Z" fill="#1C0F0A"/>
<path d="M473.584 309.599C476.896 311.08 479.52 313.082 482.369 315.314C488.255 319.809 494.421 323.64 500.844 327.316C502.192 328.088 503.535 328.868 504.875 329.653C525.829 341.917 548.305 351.19 571.693 357.677C572.581 357.931 573.469 358.186 574.384 358.447C591.908 363.31 609.334 362.895 627.352 362.391C623.041 368.852 612.289 371.101 605.006 372.643C579.19 377.195 551.927 370.956 528.299 360.505C526.949 359.919 525.599 359.334 524.249 358.749C521.651 357.621 519.059 356.483 516.47 355.335C513.385 353.923 513.385 353.923 510.81 353.122C507.365 351.488 504.87 349.032 502.121 346.424C501.535 345.872 500.95 345.32 500.347 344.751C491.618 336.389 484.743 326.744 477.833 316.879C477.422 316.294 477.012 315.708 476.589 315.105C475.441 313.324 474.496 311.51 473.584 309.599Z" fill="#E08F49"/>
<path d="M766.969 575.443C770.116 577.383 771.522 578.968 773.572 582.042C774.818 582.042 776.063 582.042 777.346 582.042C779.013 600.261 771.56 621.267 760.135 635.336C754.85 641.576 749.183 647.128 742.441 651.802C741.663 652.366 740.885 652.93 740.083 653.511C736.613 655.158 732.996 655.82 729.234 656.516C728.923 655.894 728.612 655.272 728.291 654.63C728.827 654.31 729.364 653.989 729.916 653.658C739.185 647.844 745.321 640.912 748.102 630.12C749.083 620.615 749.083 610.189 742.972 602.31C740.909 600.299 739.454 599.057 736.781 598.068C738.928 588.772 745.853 583.091 753.334 577.829C757.699 575.107 761.948 574.79 766.969 575.443Z" fill="#E08F49"/>
<path d="M139.93 574.927C148.28 576.625 155.263 583.063 160.02 589.871C162.549 594.015 162.549 594.015 163.219 596.182C162.281 598.959 161.513 599.825 159.092 601.544C153.765 606.233 152.23 613.12 151.751 619.975C151.384 629.801 154.446 638.322 160.389 646.146C163.077 648.851 165.925 651.279 168.879 653.688C169.813 654.621 169.813 654.621 170.766 655.573C157.806 654.551 148.514 644.198 140.224 635.187C139.068 633.826 137.927 632.452 136.805 631.063C136.304 630.453 135.803 629.843 135.286 629.214C125.713 616.344 123.194 599.478 123.598 583.927C124.532 583.927 125.466 583.927 126.428 583.927C126.642 583.402 126.856 582.877 127.076 582.336C130.348 576.575 133.381 574.577 139.93 574.927Z" fill="#E08F49"/>
</g>
<defs>
<clipPath id="clip0_2056_363">
<rect width="900" height="900" fill="white"/>
</clipPath>
</defs>
</svg>
