<?xml version="1.0" encoding="UTF-8" standalone="no"?>
<!-- Generator: Gravit.io -->
<svg xmlns="http://www.w3.org/2000/svg" xmlns:xlink="http://www.w3.org/1999/xlink" style="isolation:isolate" viewBox="0 -400 1660 190" width="1660pt" height="190pt"><defs><clipPath id="_clipPath_nO7SaAScAs6ft6yu2E71ZDDqOs2JuumB"><rect width="760" height="900"/></clipPath></defs><g clip-path="url(#_clipPath_nO7SaAScAs6ft6yu2E71ZDDqOs2JuumB)"><rect width="760" height="900" style="fill:rgb(209,209,209)"/><g><linearGradient id="_lgradient_0" x1="0.5" y1="4.440892098500626e-16" x2="0.5000000000000001" y2="1.0000000000000004" gradientTransform="matrix(970,0,0,970,970,1080)" gradientUnits="userSpaceOnUse"><stop offset="0%" stop-opacity="1" style="stop-color:rgb(188,8,43)"/><stop offset="100%" stop-opacity="1" style="stop-color:rgb(138,5,5)"/></linearGradient><rect x="970" y="1080" width="970" height="970" transform="matrix(1,0,0,1,0,0)" fill="url(#_lgradient_0)"/></g><g><path d=" M 700.244 704.226 L 439.756 854.619 C 406.776 873.66 353.224 873.66 320.244 854.619 L 59.756 704.226 C 26.776 685.185 0 638.808 0 600.726 L 0 299.94 C 0 261.858 26.776 215.481 59.756 196.44 L 320.244 46.047 C 353.224 27.006 406.776 27.006 439.756 46.047 L 700.244 196.44 C 733.224 215.481 760 261.858 760 299.94 L 760 600.726 C 760 638.808 733.224 685.185 700.244 704.226 Z " fill="rgb(0,0,0)"/><path d=" M 79.837 300.128 L 320.163 438.88 C 342.15 451.574 360 482.492 360 507.88 L 360 785.384 C 360 810.772 342.15 821.078 320.163 808.384 L 295.588 794.196 C 286.985 789.229 280 777.131 280 767.196 L 280 526.068 C 280 516.134 273.015 504.035 264.412 499.068 L 255.588 493.974 C 246.985 489.007 240 493.04 240 502.974 L 240 744.102 C 240 754.037 233.015 758.07 224.412 753.102 L 175.588 724.914 C 166.985 719.947 160 707.849 160 697.914 L 160 456.786 C 160 446.852 153.015 434.753 144.412 429.786 L 135.588 424.692 C 126.985 419.725 120 423.758 120 433.692 L 120 674.82 C 120 684.755 113.015 688.788 104.412 683.82 L 79.837 669.632 C 57.85 656.938 40 626.02 40 600.632 L 40 323.128 C 40 297.74 57.85 287.434 79.837 300.128 Z " fill="rgb(255,255,255)"/><path d=" M 439.837 438.88 L 680.163 300.128 C 702.15 287.434 720 297.74 720 323.128 L 720 600.632 C 720 626.02 702.15 656.938 680.163 669.632 L 439.837 808.384 C 417.85 821.078 400 810.772 400 785.384 L 400 507.88 C 400 482.492 417.85 451.574 439.837 438.88 Z " fill="rgb(255,255,255)"/><path d=" M 480 674.82 L 480 664.632 C 480 654.698 486.985 642.6 495.588 637.632 L 624.412 563.256 C 633.015 558.289 640 562.322 640 572.256 L 640 582.444 C 640 592.379 633.015 604.477 624.412 609.444 L 495.588 683.82 C 486.985 688.788 480 684.755 480 674.82 Z " fill="rgb(0,0,0)"/><path d=" M 480 536.256 L 480 526.068 C 480 516.134 486.985 504.035 495.588 499.068 L 624.412 424.692 C 633.015 419.725 640 423.758 640 433.692 L 640 443.88 C 640 453.815 633.015 465.913 624.412 470.88 L 495.588 545.256 C 486.985 550.224 480 546.191 480 536.256 Z " fill="rgb(0,0,0)"/><path d=" M 99.837 265.487 L 340.163 404.239 C 362.15 416.933 397.85 416.933 419.837 404.239 L 660.163 265.487 C 682.15 252.793 682.15 232.181 660.163 219.487 L 419.837 80.735 C 397.85 68.041 362.15 68.041 340.163 80.735 L 99.837 219.487 C 77.85 232.181 77.85 252.793 99.837 265.487 Z " fill="rgb(255,255,255)"/><path d=" M 219.998 334.862 C 251.962 279.657 311.674 242.487 380 242.487 C 448.326 242.487 508.038 279.657 540.002 334.862 L 419.837 404.239 C 397.85 416.933 362.15 416.933 340.163 404.239 L 219.998 334.862 Z  M 587.174 177.347 L 528.623 241.444 C 521.923 248.779 522.805 259.744 530.59 265.914 C 530.689 265.992 543.474 278.966 543.555 279.071 C 549.609 286.947 561.333 289.019 569.72 283.694 L 569.72 283.694 L 569.72 283.694 L 569.72 283.694 L 569.72 283.694 L 665.386 222.957 C 663.81 221.748 662.069 220.588 660.163 219.487 L 587.174 177.347 Z  M 471.978 110.839 L 444.602 198.139 C 441.629 207.618 446.894 217.458 456.352 220.099 C 456.352 220.099 472.648 226.909 472.648 226.909 C 481.026 231.633 492.172 228.673 497.523 220.303 L 497.523 220.303 L 497.523 220.303 L 497.523 220.303 L 541.748 151.12 L 471.978 110.839 Z  M 172.826 177.347 L 231.377 241.444 C 238.077 248.779 237.195 259.744 229.41 265.914 C 229.311 265.992 216.526 278.966 216.445 279.071 C 210.391 286.947 198.667 289.019 190.28 283.694 L 190.28 283.694 L 190.28 283.694 L 94.614 222.957 C 96.19 221.748 97.931 220.588 99.837 219.487 L 172.826 177.347 Z  M 288.022 110.839 L 315.398 198.139 C 318.371 207.618 313.106 217.458 303.648 220.099 C 303.648 220.099 287.352 226.909 287.352 226.909 C 278.974 231.633 267.828 228.673 262.477 220.303 L 262.477 220.303 L 218.252 151.12 L 288.022 110.839 Z  M 422.857 82.479 L 408.408 190.924 C 407.096 200.771 398.906 207.662 390.13 206.303 C 390.13 206.303 372.505 206.116 371.787 206.218 C 361.953 207.624 352.904 200.771 351.592 190.924 L 337.143 82.479 L 340.163 80.735 C 362.15 68.041 397.85 68.041 419.837 80.735 L 422.857 82.479 Z " fill-rule="evenodd" fill="rgb(188,8,43)"/></g><g><path d=" M 560 -235 L 560 -345 C 560 -347.76 557.76 -350 555 -350 L 475 -350 C 472.24 -350 470 -347.76 470 -345 L 470 -235 C 470 -221.202 458.798 -210 445 -210 L 445 -210 C 431.202 -210 420 -221.202 420 -235 L 420 -365 C 420 -384.317 435.683 -400 455 -400 L 575 -400 C 594.317 -400 610 -384.317 610 -365 L 610 -235 C 610 -221.202 598.798 -210 585 -210 L 585 -210 C 571.202 -210 560 -221.202 560 -235 L 560 -235 L 560 -235 L 560 -235 L 560 -235 L 560 -235 L 560 -235 Z  M 1310 -265 L 1310 -345 C 1310 -347.76 1312.24 -350 1315 -350 L 1395 -350 C 1397.76 -350 1400 -347.76 1400 -345 L 1400 -265 C 1400 -262.24 1397.76 -260 1395 -260 L 1315 -260 C 1312.24 -260 1310 -262.24 1310 -265 L 1310 -265 L 1310 -265 L 1310 -265 L 1310 -265 L 1310 -265 L 1310 -265 L 1310 -265 Z  M 700 -305 L 700 -305 C 700 -318.798 711.202 -330 725 -330 L 795 -330 C 808.798 -330 820 -318.798 820 -305 L 820 -245 C 820 -225.683 804.317 -210 785 -210 L 665 -210 C 645.683 -210 630 -225.683 630 -245 L 630 -365 C 630 -384.317 645.683 -400 665 -400 L 795 -400 C 808.798 -400 820 -388.798 820 -375 L 820 -375 C 820 -361.202 808.798 -350 795 -350 L 685 -350 C 682.24 -350 680 -347.76 680 -345 L 680 -265 C 680 -262.24 682.24 -260 685 -260 L 765 -260 C 767.76 -260 770 -262.24 770 -265 L 770 -275 C 770 -277.76 767.76 -280 765 -280 L 725 -280 C 711.202 -280 700 -291.202 700 -305 L 700 -305 L 700 -305 L 700 -305 L 700 -305 L 700 -305 Z  M 350 -335 L 350 -345 C 350 -347.76 347.76 -350 345 -350 L 265 -350 C 262.24 -350 260 -347.76 260 -345 L 260 -335 C 260 -332.24 262.24 -330 265 -330 L 345 -330 C 347.76 -330 350 -332.24 350 -335 L 350 -335 L 350 -335 L 350 -335 L 350 -335 L 350 -335 Z  M 980 -335 L 980 -345 C 980 -347.76 977.76 -350 975 -350 L 895 -350 C 892.24 -350 890 -347.76 890 -345 L 890 -335 C 890 -332.24 892.24 -330 895 -330 L 975 -330 C 977.76 -330 980 -332.24 980 -335 L 980 -335 L 980 -335 L 980 -335 L 980 -335 Z  M 1100 -275 L 1100 -265 C 1100 -262.24 1102.24 -260 1105 -260 L 1185 -260 C 1187.76 -260 1190 -262.24 1190 -265 L 1190 -275 C 1190 -277.76 1187.76 -280 1185 -280 L 1105 -280 C 1102.24 -280 1100 -277.76 1100 -275 L 1100 -275 L 1100 -275 L 1100 -275 Z  M 1100 -335 L 1100 -345 C 1100 -347.76 1102.24 -350 1105 -350 L 1185 -350 C 1187.76 -350 1190 -347.76 1190 -345 L 1190 -335 C 1190 -332.24 1187.76 -330 1185 -330 L 1105 -330 C 1102.24 -330 1100 -332.24 1100 -335 L 1100 -335 L 1100 -335 L 1100 -335 Z  M 125 -350 L 135 -350 C 137.76 -350 140 -347.76 140 -345 L 140 -235 C 140 -221.202 151.202 -210 165 -210 L 165 -210 C 178.798 -210 190 -221.202 190 -235 L 190 -365 C 190 -384.317 174.317 -400 155 -400 L 35 -400 C 15.683 -400 0 -384.317 0 -365 L 0 -235 C 0 -221.202 11.202 -210 25 -210 L 25 -210 C 38.798 -210 50 -221.202 50 -235 L 50 -345 C 50 -347.76 52.24 -350 55 -350 L 65 -350 C 67.76 -350 70 -347.76 70 -345 L 70 -235 C 70 -221.202 81.202 -210 95 -210 L 95 -210 C 108.798 -210 120 -221.202 120 -235 L 120 -345 C 120 -347.76 122.24 -350 125 -350 L 125 -350 Z  M 1260 -245 L 1260 -365 C 1260 -384.317 1275.683 -400 1295 -400 L 1415 -400 C 1434.317 -400 1450 -384.317 1450 -365 L 1450 -245 C 1450 -225.683 1434.317 -210 1415 -210 L 1295 -210 C 1275.683 -210 1260 -225.683 1260 -245 L 1260 -245 L 1260 -245 L 1260 -245 L 1260 -245 L 1260 -245 L 1260 -245 L 1260 -245 Z  M 350 -275 L 350 -235 C 350 -221.202 361.202 -210 375 -210 L 375 -210 C 388.798 -210 400 -221.202 400 -235 L 400 -365 C 400 -384.317 384.317 -400 365 -400 L 245 -400 C 225.683 -400 210 -384.317 210 -365 L 210 -235 C 210 -221.202 221.202 -210 235 -210 L 235 -210 C 248.798 -210 260 -221.202 260 -235 L 260 -275 C 260 -277.76 262.24 -280 265 -280 L 345 -280 C 347.76 -280 350 -277.76 350 -275 L 350 -275 L 350 -275 L 350 -275 L 350 -275 L 350 -275 Z  M 980 -275 L 980 -235 C 980 -221.202 991.202 -210 1005 -210 L 1005 -210 C 1018.798 -210 1030 -221.202 1030 -235 L 1030 -365 C 1030 -384.317 1014.317 -400 995 -400 L 875 -400 C 855.683 -400 840 -384.317 840 -365 L 840 -235 C 840 -221.202 851.202 -210 865 -210 L 865 -210 C 878.798 -210 890 -221.202 890 -235 L 890 -275 C 890 -277.76 892.24 -280 895 -280 L 975 -280 C 977.76 -280 980 -277.76 980 -275 L 980 -275 L 980 -275 L 980 -275 L 980 -275 Z  M 1085 -400 L 1205 -400 C 1224.317 -400 1240 -384.317 1240 -365 L 1240 -245 C 1240 -225.683 1224.317 -210 1205 -210 L 1085 -210 C 1065.683 -210 1050 -225.683 1050 -245 L 1050 -365 C 1050 -384.317 1065.683 -400 1085 -400 L 1085 -400 L 1085 -400 L 1085 -400 Z  M 1568.536 -266.104 L 1617.32 -217.32 C 1622.01 -212.64 1628.37 -210 1635 -210 C 1641.63 -210 1647.99 -212.64 1652.68 -217.32 C 1657.36 -222.01 1660 -228.37 1660 -235 C 1660 -241.63 1657.36 -247.99 1652.68 -252.68 L 1603.896 -301.464 C 1601.944 -303.416 1601.944 -306.584 1603.896 -308.536 L 1652.68 -357.32 C 1657.36 -362.01 1660 -368.37 1660 -375 C 1660 -381.63 1657.36 -387.99 1652.68 -392.68 C 1647.99 -397.36 1641.63 -400 1635 -400 C 1628.37 -400 1622.01 -397.36 1617.32 -392.68 L 1568.536 -343.896 C 1566.584 -341.944 1563.416 -341.944 1561.464 -343.896 L 1512.68 -392.68 C 1507.99 -397.36 1501.63 -400 1495 -400 C 1488.37 -400 1482.01 -397.36 1477.32 -392.68 C 1472.64 -387.99 1470 -381.63 1470 -375 C 1470 -368.37 1472.64 -362.01 1477.32 -357.32 L 1526.104 -308.536 C 1528.056 -306.584 1528.056 -303.416 1526.104 -301.464 L 1477.32 -252.68 C 1472.64 -247.99 1470 -241.63 1470 -235 C 1470 -228.37 1472.64 -222.01 1477.32 -217.32 C 1482.01 -212.64 1488.37 -210 1495 -210 C 1501.63 -210 1507.99 -212.64 1512.68 -217.32 L 1561.464 -266.104 C 1563.416 -268.056 1566.584 -268.056 1568.536 -266.104 Z " fill-rule="evenodd" fill="rgb(0,0,0)"/></g><g style="isolation:isolate"><rect x="970" y="0" width="970" height="970" transform="matrix(1,0,0,1,0,0)" fill="none"/><g><path d=" M 1775.244 738.893 L 1514.756 889.286 C 1481.776 908.327 1428.224 908.327 1395.244 889.286 L 1134.756 738.893 C 1101.776 719.852 1075 673.475 1075 635.393 L 1075 334.607 C 1075 296.525 1101.776 250.148 1134.756 231.107 L 1395.244 80.714 C 1428.224 61.673 1481.776 61.673 1514.756 80.714 L 1775.244 231.107 C 1808.224 250.148 1835 296.525 1835 334.607 L 1835 635.393 C 1835 673.475 1808.224 719.852 1775.244 738.893 Z " fill="rgb(0,0,0)"/><path d=" M 1154.837 334.795 L 1395.163 473.547 C 1417.15 486.241 1435 517.159 1435 542.547 L 1435 820.051 C 1435 845.439 1417.15 855.745 1395.163 843.051 L 1370.588 828.863 C 1361.985 823.896 1355 811.798 1355 801.863 L 1355 560.735 C 1355 550.801 1348.015 538.702 1339.412 533.735 L 1330.588 528.641 C 1321.985 523.674 1315 527.707 1315 537.641 L 1315 778.769 C 1315 788.704 1308.015 792.736 1299.412 787.769 L 1250.588 759.581 C 1241.985 754.614 1235 742.516 1235 732.581 L 1235 491.453 C 1235 481.519 1228.015 469.42 1219.412 464.453 L 1210.588 459.359 C 1201.985 454.392 1195 458.425 1195 468.359 L 1195 709.487 C 1195 719.422 1188.015 723.454 1179.412 718.487 L 1154.837 704.299 C 1132.85 691.605 1115 660.687 1115 635.299 L 1115 357.795 C 1115 332.407 1132.85 322.101 1154.837 334.795 Z " fill="rgb(255,255,255)"/><path d=" M 1514.837 473.547 L 1755.163 334.795 C 1777.15 322.101 1795 332.407 1795 357.795 L 1795 635.299 C 1795 660.687 1777.15 691.605 1755.163 704.299 L 1514.837 843.051 C 1492.85 855.745 1475 845.439 1475 820.051 L 1475 542.547 C 1475 517.159 1492.85 486.241 1514.837 473.547 Z " fill="rgb(255,255,255)"/><path d=" M 1555 709.487 L 1555 699.299 C 1555 689.365 1561.985 677.266 1570.588 672.299 L 1699.412 597.923 C 1708.015 592.956 1715 596.989 1715 606.923 L 1715 617.111 C 1715 627.046 1708.015 639.144 1699.412 644.111 L 1570.588 718.487 C 1561.985 723.454 1555 719.422 1555 709.487 Z " fill="rgb(0,0,0)"/><path d=" M 1555 570.923 L 1555 560.735 C 1555 550.801 1561.985 538.702 1570.588 533.735 L 1699.412 459.359 C 1708.015 454.392 1715 458.425 1715 468.359 L 1715 478.547 C 1715 488.481 1708.015 500.58 1699.412 505.547 L 1570.588 579.923 C 1561.985 584.89 1555 580.858 1555 570.923 Z " fill="rgb(0,0,0)"/><path d=" M 1174.837 300.154 L 1415.163 438.906 C 1437.15 451.6 1472.85 451.6 1494.837 438.906 L 1735.163 300.154 C 1757.15 287.46 1757.15 266.848 1735.163 254.154 L 1494.837 115.402 C 1472.85 102.708 1437.15 102.708 1415.163 115.402 L 1174.837 254.154 C 1152.85 266.848 1152.85 287.46 1174.837 300.154 Z " fill="rgb(255,255,255)"/><path d=" M 1294.998 369.529 C 1326.962 314.324 1386.674 277.154 1455 277.154 C 1523.326 277.154 1583.038 314.324 1615.002 369.529 L 1494.837 438.906 C 1472.85 451.6 1437.15 451.6 1415.163 438.906 L 1294.998 369.529 Z  M 1662.174 212.014 L 1603.623 276.111 C 1596.923 283.446 1597.805 294.41 1605.59 300.581 C 1605.689 300.659 1618.474 313.633 1618.555 313.738 C 1624.609 321.614 1636.333 323.686 1644.72 318.361 L 1644.72 318.361 L 1644.72 318.361 L 1644.72 318.361 L 1644.72 318.361 L 1740.386 257.624 C 1738.81 256.415 1737.069 255.255 1735.163 254.154 L 1662.174 212.014 Z  M 1546.978 145.505 L 1519.602 232.805 C 1516.629 242.285 1521.894 252.125 1531.352 254.766 C 1531.352 254.766 1547.648 261.576 1547.648 261.576 C 1556.026 266.3 1567.172 263.34 1572.523 254.97 L 1572.523 254.97 L 1572.523 254.97 L 1572.523 254.97 L 1616.748 185.787 L 1546.978 145.505 Z  M 1247.826 212.014 L 1306.377 276.111 C 1313.077 283.446 1312.195 294.41 1304.41 300.581 C 1304.311 300.659 1291.526 313.633 1291.445 313.738 C 1285.391 321.614 1273.667 323.686 1265.28 318.361 L 1265.28 318.361 L 1265.28 318.361 L 1169.614 257.624 C 1171.19 256.415 1172.931 255.255 1174.837 254.154 L 1247.826 212.014 Z  M 1363.022 145.505 L 1390.398 232.805 C 1393.371 242.285 1388.106 252.125 1378.648 254.766 C 1378.648 254.766 1362.352 261.576 1362.352 261.576 C 1353.974 266.3 1342.828 263.34 1337.477 254.97 L 1337.477 254.97 L 1293.252 185.787 L 1363.022 145.505 Z  M 1497.857 117.145 L 1483.408 225.591 C 1482.096 235.438 1473.906 242.329 1465.13 240.97 C 1465.13 240.97 1447.505 240.782 1446.787 240.885 C 1436.953 242.291 1427.904 235.438 1426.591 225.591 L 1412.143 117.145 L 1415.163 115.402 C 1437.15 102.708 1472.85 102.708 1494.837 115.402 L 1497.857 117.145 Z " fill-rule="evenodd" fill="rgb(188,8,43)"/></g></g><g style="isolation:isolate"><g><linearGradient id="_lgradient_1" x1="0.5" y1="4.440892098500626e-16" x2="0.5000000000000001" y2="1.0000000000000004" gradientTransform="matrix(970,0,0,970,970,1080)" gradientUnits="userSpaceOnUse"><stop offset="0%" stop-opacity="1" style="stop-color:rgb(188,8,43)"/><stop offset="100%" stop-opacity="1" style="stop-color:rgb(138,5,5)"/></linearGradient><rect x="970" y="1080" width="970" height="970" transform="matrix(1,0,0,1,0,0)" fill="url(#_lgradient_1)"/></g><g filter="url(#7ZAOi6xVEjaWjN3D8Js9qJSX9crvV34U)"><path d=" M 1775.244 1818.893 L 1514.756 1969.286 C 1481.776 1988.327 1428.224 1988.327 1395.244 1969.286 L 1134.756 1818.893 C 1101.776 1799.852 1075 1753.475 1075 1715.393 L 1075 1414.607 C 1075 1376.525 1101.776 1330.148 1134.756 1311.107 L 1395.244 1160.714 C 1428.224 1141.673 1481.776 1141.673 1514.756 1160.714 L 1775.244 1311.107 C 1808.224 1330.148 1835 1376.525 1835 1414.607 L 1835 1715.393 C 1835 1753.475 1808.224 1799.852 1775.244 1818.893 Z " fill="rgb(0,0,0)"/><path d=" M 1154.837 1414.795 L 1395.163 1553.547 C 1417.15 1566.241 1435 1597.159 1435 1622.547 L 1435 1900.051 C 1435 1925.439 1417.15 1935.745 1395.163 1923.051 L 1370.588 1908.863 C 1361.985 1903.896 1355 1891.798 1355 1881.863 L 1355 1640.735 C 1355 1630.801 1348.015 1618.702 1339.412 1613.735 L 1330.588 1608.641 C 1321.985 1603.674 1315 1607.707 1315 1617.641 L 1315 1858.769 C 1315 1868.704 1308.015 1872.736 1299.412 1867.769 L 1250.588 1839.581 C 1241.985 1834.614 1235 1822.516 1235 1812.581 L 1235 1571.453 C 1235 1561.519 1228.015 1549.42 1219.412 1544.453 L 1210.588 1539.359 C 1201.985 1534.392 1195 1538.425 1195 1548.359 L 1195 1789.487 C 1195 1799.422 1188.015 1803.454 1179.412 1798.487 L 1154.837 1784.299 C 1132.85 1771.605 1115 1740.687 1115 1715.299 L 1115 1437.795 C 1115 1412.407 1132.85 1402.101 1154.837 1414.795 Z " fill="rgb(255,255,255)"/><path d=" M 1514.837 1553.547 L 1755.163 1414.795 C 1777.15 1402.101 1795 1412.407 1795 1437.795 L 1795 1715.299 C 1795 1740.687 1777.15 1771.605 1755.163 1784.299 L 1514.837 1923.051 C 1492.85 1935.745 1475 1925.439 1475 1900.051 L 1475 1622.547 C 1475 1597.159 1492.85 1566.241 1514.837 1553.547 Z " fill="rgb(255,255,255)"/><path d=" M 1555 1789.487 L 1555 1779.299 C 1555 1769.365 1561.985 1757.266 1570.588 1752.299 L 1699.412 1677.923 C 1708.015 1672.956 1715 1676.989 1715 1686.923 L 1715 1697.111 C 1715 1707.046 1708.015 1719.144 1699.412 1724.111 L 1570.588 1798.487 C 1561.985 1803.454 1555 1799.422 1555 1789.487 Z " fill="rgb(0,0,0)"/><path d=" M 1555 1650.923 L 1555 1640.735 C 1555 1630.801 1561.985 1618.702 1570.588 1613.735 L 1699.412 1539.359 C 1708.015 1534.392 1715 1538.425 1715 1548.359 L 1715 1558.547 C 1715 1568.481 1708.015 1580.58 1699.412 1585.547 L 1570.588 1659.923 C 1561.985 1664.89 1555 1660.858 1555 1650.923 Z " fill="rgb(0,0,0)"/><path d=" M 1174.837 1380.154 L 1415.163 1518.906 C 1437.15 1531.6 1472.85 1531.6 1494.837 1518.906 L 1735.163 1380.154 C 1757.15 1367.46 1757.15 1346.848 1735.163 1334.154 L 1494.837 1195.402 C 1472.85 1182.708 1437.15 1182.708 1415.163 1195.402 L 1174.837 1334.154 C 1152.85 1346.848 1152.85 1367.46 1174.837 1380.154 Z " fill="rgb(255,255,255)"/><path d=" M 1294.998 1449.529 C 1326.962 1394.324 1386.674 1357.154 1455 1357.154 C 1523.326 1357.154 1583.038 1394.324 1615.002 1449.529 L 1494.837 1518.906 C 1472.85 1531.6 1437.15 1531.6 1415.163 1518.906 L 1294.998 1449.529 Z  M 1662.174 1292.014 L 1603.623 1356.111 C 1596.923 1363.446 1597.805 1374.41 1605.59 1380.581 C 1605.689 1380.659 1618.474 1393.633 1618.555 1393.738 C 1624.609 1401.614 1636.333 1403.686 1644.72 1398.361 L 1644.72 1398.361 L 1644.72 1398.361 L 1644.72 1398.361 L 1644.72 1398.361 L 1740.386 1337.624 C 1738.81 1336.415 1737.069 1335.255 1735.163 1334.154 L 1662.174 1292.014 Z  M 1546.978 1225.505 L 1519.602 1312.805 C 1516.629 1322.285 1521.894 1332.125 1531.352 1334.766 C 1531.352 1334.766 1547.648 1341.576 1547.648 1341.576 C 1556.026 1346.3 1567.172 1343.34 1572.523 1334.97 L 1572.523 1334.97 L 1572.523 1334.97 L 1572.523 1334.97 L 1616.748 1265.787 L 1546.978 1225.505 Z  M 1247.826 1292.014 L 1306.377 1356.111 C 1313.077 1363.446 1312.195 1374.41 1304.41 1380.581 C 1304.311 1380.659 1291.526 1393.633 1291.445 1393.738 C 1285.391 1401.614 1273.667 1403.686 1265.28 1398.361 L 1265.28 1398.361 L 1265.28 1398.361 L 1169.614 1337.624 C 1171.19 1336.415 1172.931 1335.255 1174.837 1334.154 L 1247.826 1292.014 Z  M 1363.022 1225.505 L 1390.398 1312.805 C 1393.371 1322.285 1388.106 1332.125 1378.648 1334.766 C 1378.648 1334.766 1362.352 1341.576 1362.352 1341.576 C 1353.974 1346.3 1342.828 1343.34 1337.477 1334.97 L 1337.477 1334.97 L 1293.252 1265.787 L 1363.022 1225.505 Z  M 1497.857 1197.145 L 1483.408 1305.591 C 1482.096 1315.438 1473.906 1322.329 1465.13 1320.97 C 1465.13 1320.97 1447.505 1320.782 1446.787 1320.885 C 1436.953 1322.291 1427.904 1315.438 1426.591 1305.591 L 1412.143 1197.145 L 1415.163 1195.402 C 1437.15 1182.708 1472.85 1182.708 1494.837 1195.402 L 1497.857 1197.145 Z " fill-rule="evenodd" fill="rgb(188,8,43)"/></g><defs><filter id="7ZAOi6xVEjaWjN3D8Js9qJSX9crvV34U" x="-200%" y="-200%" width="400%" height="400%" filterUnits="objectBoundingBox" color-interpolation-filters="sRGB"><feGaussianBlur xmlns="http://www.w3.org/2000/svg" in="SourceGraphic" stdDeviation="17.174436251356113"/><feOffset xmlns="http://www.w3.org/2000/svg" dx="0" dy="10" result="pf_100_offsetBlur"/><feFlood xmlns="http://www.w3.org/2000/svg" flood-color="#000000" flood-opacity="0.5"/><feComposite xmlns="http://www.w3.org/2000/svg" in2="pf_100_offsetBlur" operator="in" result="pf_100_dropShadow"/><feBlend xmlns="http://www.w3.org/2000/svg" in="SourceGraphic" in2="pf_100_dropShadow" mode="normal"/></filter></defs></g><g style="isolation:isolate"><path d=" M 3617.925 194 L 7680.709 194 C 7719.934 194 7757.582 209.581 7785.287 237.347 C 7812.993 265.053 7828.634 302.701 7828.634 341.925 L 7828.634 652.325 C 7828.634 691.549 7812.993 729.197 7785.287 756.903 C 7757.582 784.669 7719.934 800.25 7680.709 800.25 L 3617.925 800.25 C 3578.701 800.25 3541.053 784.669 3513.347 756.903 C 3485.581 729.197 3470 691.549 3470 652.325 L 3470 341.925 C 3470 302.701 3485.581 265.053 3513.347 237.347 C 3541.053 209.581 3578.701 194 3617.925 194 Z " fill="rgb(255,255,255)"/><g><rect x="2500" y="0" width="970" height="970" transform="matrix(1,0,0,1,0,0)" fill="none"/><g><path d=" M 3305.244 738.86 L 3044.756 889.253 C 3011.776 908.294 2958.224 908.294 2925.244 889.253 L 2664.756 738.86 C 2631.776 719.819 2605 673.442 2605 635.36 L 2605 334.574 C 2605 296.492 2631.776 250.115 2664.756 231.074 L 2925.244 80.681 C 2958.224 61.64 3011.776 61.64 3044.756 80.681 L 3305.244 231.074 C 3338.224 250.115 3365 296.492 3365 334.574 L 3365 635.36 C 3365 673.442 3338.224 719.819 3305.244 738.86 Z " fill="rgb(0,0,0)"/><path d=" M 2684.837 334.762 L 2925.163 473.514 C 2947.15 486.208 2965 517.126 2965 542.514 L 2965 820.018 C 2965 845.406 2947.15 855.712 2925.163 843.018 L 2900.588 828.83 C 2891.985 823.863 2885 811.765 2885 801.83 L 2885 560.702 C 2885 550.768 2878.015 538.669 2869.412 533.702 L 2860.588 528.608 C 2851.985 523.641 2845 527.674 2845 537.608 L 2845 778.736 C 2845 788.671 2838.015 792.703 2829.412 787.736 L 2780.588 759.548 C 2771.985 754.581 2765 742.483 2765 732.548 L 2765 491.42 C 2765 481.486 2758.015 469.387 2749.412 464.42 L 2740.588 459.326 C 2731.985 454.359 2725 458.392 2725 468.326 L 2725 709.454 C 2725 719.389 2718.015 723.421 2709.412 718.454 L 2684.837 704.266 C 2662.85 691.572 2645 660.654 2645 635.266 L 2645 357.762 C 2645 332.374 2662.85 322.068 2684.837 334.762 Z " fill="rgb(255,255,255)"/><path d=" M 3044.837 473.514 L 3285.163 334.762 C 3307.15 322.068 3325 332.374 3325 357.762 L 3325 635.266 C 3325 660.654 3307.15 691.572 3285.163 704.266 L 3044.837 843.018 C 3022.85 855.712 3005 845.406 3005 820.018 L 3005 542.514 C 3005 517.126 3022.85 486.208 3044.837 473.514 Z " fill="rgb(255,255,255)"/><path d=" M 3085 709.454 L 3085 699.266 C 3085 689.332 3091.985 677.233 3100.588 672.266 L 3229.412 597.89 C 3238.015 592.923 3245 596.956 3245 606.89 L 3245 617.078 C 3245 627.013 3238.015 639.111 3229.412 644.078 L 3100.588 718.454 C 3091.985 723.421 3085 719.389 3085 709.454 Z " fill="rgb(0,0,0)"/><path d=" M 3085 570.89 L 3085 560.702 C 3085 550.768 3091.985 538.669 3100.588 533.702 L 3229.412 459.326 C 3238.015 454.359 3245 458.392 3245 468.326 L 3245 478.514 C 3245 488.448 3238.015 500.547 3229.412 505.514 L 3100.588 579.89 C 3091.985 584.857 3085 580.825 3085 570.89 Z " fill="rgb(0,0,0)"/><path d=" M 2704.837 300.121 L 2945.163 438.873 C 2967.15 451.567 3002.85 451.567 3024.837 438.873 L 3265.163 300.121 C 3287.15 287.427 3287.15 266.815 3265.163 254.121 L 3024.837 115.369 C 3002.85 102.675 2967.15 102.675 2945.163 115.369 L 2704.837 254.121 C 2682.85 266.815 2682.85 287.427 2704.837 300.121 Z " fill="rgb(255,255,255)"/><path d=" M 2824.998 369.496 C 2856.962 314.291 2916.674 277.121 2985 277.121 C 3053.325 277.121 3113.038 314.291 3145.002 369.496 L 3024.837 438.873 C 3002.85 451.567 2967.15 451.567 2945.163 438.873 L 2824.998 369.496 Z  M 3192.174 211.981 L 3133.623 276.078 C 3126.923 283.413 3127.805 294.377 3135.59 300.548 C 3135.689 300.626 3148.474 313.6 3148.555 313.705 C 3154.609 321.581 3166.333 323.653 3174.72 318.328 L 3174.72 318.328 L 3174.72 318.328 L 3174.72 318.328 L 3174.72 318.328 L 3270.386 257.591 C 3268.81 256.382 3267.069 255.222 3265.163 254.121 L 3192.174 211.981 Z  M 3076.978 145.472 L 3049.602 232.772 C 3046.629 242.252 3051.894 252.092 3061.352 254.733 C 3061.352 254.733 3077.648 261.543 3077.648 261.543 C 3086.026 266.267 3097.172 263.307 3102.523 254.937 L 3102.523 254.937 L 3102.523 254.937 L 3102.523 254.937 L 3146.748 185.754 L 3076.978 145.472 Z  M 2777.826 211.981 L 2836.377 276.078 C 2843.077 283.413 2842.195 294.377 2834.41 300.548 C 2834.311 300.626 2821.526 313.6 2821.445 313.705 C 2815.391 321.581 2803.667 323.653 2795.28 318.328 L 2795.28 318.328 L 2795.28 318.328 L 2699.614 257.591 C 2701.19 256.382 2702.931 255.222 2704.837 254.121 L 2777.826 211.981 Z  M 2893.022 145.472 L 2920.398 232.772 C 2923.371 242.252 2918.106 252.092 2908.648 254.733 C 2908.648 254.733 2892.352 261.543 2892.352 261.543 C 2883.974 266.267 2872.828 263.307 2867.477 254.937 L 2867.477 254.937 L 2823.252 185.754 L 2893.022 145.472 Z  M 3027.857 117.112 L 3013.408 225.558 C 3012.096 235.405 3003.906 242.296 2995.13 240.937 C 2995.13 240.937 2977.505 240.749 2976.787 240.852 C 2966.953 242.258 2957.904 235.405 2956.591 225.558 L 2942.143 117.112 L 2945.163 115.369 C 2967.15 102.675 3002.85 102.675 3024.837 115.369 L 3027.857 117.112 Z " fill-rule="evenodd" fill="rgb(188,8,43)"/></g></g><g><path d=" M 4960.074 675.784 L 4960.074 394.995 C 4960.074 387.951 4954.355 382.232 4947.311 382.232 L 4743.1 382.232 C 4736.056 382.232 4730.337 387.951 4730.337 394.995 L 4730.337 675.784 C 4730.337 711.005 4701.742 739.6 4666.521 739.6 L 4666.521 739.6 C 4631.3 739.6 4602.705 711.005 4602.705 675.784 L 4602.705 343.942 C 4602.705 294.633 4642.738 254.6 4692.047 254.6 L 4998.363 254.6 C 5047.672 254.6 5087.705 294.633 5087.705 343.942 L 5087.705 675.784 C 5087.705 711.005 5059.11 739.6 5023.889 739.6 L 5023.889 739.6 C 4988.669 739.6 4960.074 711.005 4960.074 675.784 L 4960.074 675.784 L 4960.074 675.784 L 4960.074 675.784 L 4960.074 675.784 L 4960.074 675.784 L 4960.074 675.784 Z  M 6874.547 599.205 L 6874.547 394.995 C 6874.547 387.951 6880.266 382.232 6887.311 382.232 L 7091.521 382.232 C 7098.565 382.232 7104.284 387.951 7104.284 394.995 L 7104.284 599.205 C 7104.284 606.249 7098.565 611.968 7091.521 611.968 L 6887.311 611.968 C 6880.266 611.968 6874.547 606.249 6874.547 599.205 L 6874.547 599.205 L 6874.547 599.205 L 6874.547 599.205 L 6874.547 599.205 L 6874.547 599.205 L 6874.547 599.205 L 6874.547 599.205 Z  M 5317.442 497.1 L 5317.442 497.1 C 5317.442 461.879 5346.037 433.284 5381.258 433.284 L 5559.942 433.284 C 5595.163 433.284 5623.758 461.879 5623.758 497.1 L 5623.758 650.258 C 5623.758 699.567 5583.725 739.6 5534.416 739.6 L 5228.1 739.6 C 5178.791 739.6 5138.758 699.567 5138.758 650.258 L 5138.758 343.942 C 5138.758 294.633 5178.791 254.6 5228.1 254.6 L 5559.942 254.6 C 5595.163 254.6 5623.758 283.195 5623.758 318.416 L 5623.758 318.416 C 5623.758 353.637 5595.163 382.232 5559.942 382.232 L 5279.153 382.232 C 5272.108 382.232 5266.389 387.951 5266.389 394.995 L 5266.389 599.205 C 5266.389 606.249 5272.108 611.968 5279.153 611.968 L 5483.363 611.968 C 5490.407 611.968 5496.126 606.249 5496.126 599.205 L 5496.126 573.679 C 5496.126 566.635 5490.407 560.916 5483.363 560.916 L 5381.258 560.916 C 5346.037 560.916 5317.442 532.321 5317.442 497.1 L 5317.442 497.1 L 5317.442 497.1 L 5317.442 497.1 L 5317.442 497.1 L 5317.442 497.1 Z  M 4424.021 420.521 L 4424.021 394.995 C 4424.021 387.951 4418.302 382.232 4411.258 382.232 L 4207.047 382.232 C 4200.003 382.232 4194.284 387.951 4194.284 394.995 L 4194.284 420.521 C 4194.284 427.565 4200.003 433.284 4207.047 433.284 L 4411.258 433.284 C 4418.302 433.284 4424.021 427.565 4424.021 420.521 L 4424.021 420.521 L 4424.021 420.521 L 4424.021 420.521 L 4424.021 420.521 L 4424.021 420.521 Z  M 6032.179 420.521 L 6032.179 394.995 C 6032.179 387.951 6026.46 382.232 6019.416 382.232 L 5815.205 382.232 C 5808.161 382.232 5802.442 387.951 5802.442 394.995 L 5802.442 420.521 C 5802.442 427.565 5808.161 433.284 5815.205 433.284 L 6019.416 433.284 C 6026.46 433.284 6032.179 427.565 6032.179 420.521 L 6032.179 420.521 L 6032.179 420.521 L 6032.179 420.521 L 6032.179 420.521 Z  M 6338.495 573.679 L 6338.495 599.205 C 6338.495 606.249 6344.214 611.968 6351.258 611.968 L 6555.468 611.968 C 6562.513 611.968 6568.232 606.249 6568.232 599.205 L 6568.232 573.679 C 6568.232 566.635 6562.513 560.916 6555.468 560.916 L 6351.258 560.916 C 6344.214 560.916 6338.495 566.635 6338.495 573.679 L 6338.495 573.679 L 6338.495 573.679 L 6338.495 573.679 Z  M 6338.495 420.521 L 6338.495 394.995 C 6338.495 387.951 6344.214 382.232 6351.258 382.232 L 6555.468 382.232 C 6562.513 382.232 6568.232 387.951 6568.232 394.995 L 6568.232 420.521 C 6568.232 427.565 6562.513 433.284 6555.468 433.284 L 6351.258 433.284 C 6344.214 433.284 6338.495 427.565 6338.495 420.521 L 6338.495 420.521 L 6338.495 420.521 L 6338.495 420.521 Z  M 3849.679 382.232 L 3875.205 382.232 C 3882.249 382.232 3887.968 387.951 3887.968 394.995 L 3887.968 675.784 C 3887.968 711.005 3916.563 739.6 3951.784 739.6 L 3951.784 739.6 C 3987.005 739.6 4015.6 711.005 4015.6 675.784 L 4015.6 343.942 C 4015.6 294.633 3975.567 254.6 3926.258 254.6 L 3619.942 254.6 C 3570.633 254.6 3530.6 294.633 3530.6 343.942 L 3530.6 675.784 C 3530.6 711.005 3559.195 739.6 3594.416 739.6 L 3594.416 739.6 C 3629.637 739.6 3658.232 711.005 3658.232 675.784 L 3658.232 394.995 C 3658.232 387.951 3663.951 382.232 3670.995 382.232 L 3696.521 382.232 C 3703.565 382.232 3709.284 387.951 3709.284 394.995 L 3709.284 675.784 C 3709.284 711.005 3737.879 739.6 3773.1 739.6 L 3773.1 739.6 C 3808.321 739.6 3836.916 711.005 3836.916 675.784 L 3836.916 394.995 C 3836.916 387.951 3842.635 382.232 3849.679 382.232 L 3849.679 382.232 Z  M 6746.916 650.258 L 6746.916 343.942 C 6746.916 294.633 6786.949 254.6 6836.258 254.6 L 7142.574 254.6 C 7191.883 254.6 7231.916 294.633 7231.916 343.942 L 7231.916 650.258 C 7231.916 699.567 7191.883 739.6 7142.574 739.6 L 6836.258 739.6 C 6786.949 739.6 6746.916 699.567 6746.916 650.258 L 6746.916 650.258 L 6746.916 650.258 L 6746.916 650.258 L 6746.916 650.258 L 6746.916 650.258 L 6746.916 650.258 L 6746.916 650.258 Z  M 4424.021 573.679 L 4424.021 675.784 C 4424.021 711.005 4452.616 739.6 4487.837 739.6 L 4487.837 739.6 C 4523.058 739.6 4551.653 711.005 4551.653 675.784 L 4551.653 343.942 C 4551.653 294.633 4511.62 254.6 4462.311 254.6 L 4155.995 254.6 C 4106.685 254.6 4066.653 294.633 4066.653 343.942 L 4066.653 675.784 C 4066.653 711.005 4095.248 739.6 4130.468 739.6 L 4130.468 739.6 C 4165.689 739.6 4194.284 711.005 4194.284 675.784 L 4194.284 573.679 C 4194.284 566.635 4200.003 560.916 4207.047 560.916 L 4411.258 560.916 C 4418.302 560.916 4424.021 566.635 4424.021 573.679 L 4424.021 573.679 L 4424.021 573.679 L 4424.021 573.679 L 4424.021 573.679 L 4424.021 573.679 Z  M 6032.179 573.679 L 6032.179 675.784 C 6032.179 711.005 6060.774 739.6 6095.995 739.6 L 6095.995 739.6 C 6131.216 739.6 6159.811 711.005 6159.811 675.784 L 6159.811 343.942 C 6159.811 294.633 6119.778 254.6 6070.468 254.6 L 5764.153 254.6 C 5714.843 254.6 5674.811 294.633 5674.811 343.942 L 5674.811 675.784 C 5674.811 711.005 5703.405 739.6 5738.626 739.6 L 5738.626 739.6 C 5773.847 739.6 5802.442 711.005 5802.442 675.784 L 5802.442 573.679 C 5802.442 566.635 5808.161 560.916 5815.205 560.916 L 6019.416 560.916 C 6026.46 560.916 6032.179 566.635 6032.179 573.679 L 6032.179 573.679 L 6032.179 573.679 L 6032.179 573.679 L 6032.179 573.679 Z  M 6300.205 254.6 L 6606.521 254.6 C 6655.83 254.6 6695.863 294.633 6695.863 343.942 L 6695.863 650.258 C 6695.863 699.567 6655.83 739.6 6606.521 739.6 L 6300.205 739.6 C 6250.896 739.6 6210.863 699.567 6210.863 650.258 L 6210.863 343.942 C 6210.863 294.633 6250.896 254.6 6300.205 254.6 L 6300.205 254.6 L 6300.205 254.6 L 6300.205 254.6 Z  M 7534.493 596.386 L 7659.022 720.915 C 7670.994 732.861 7687.229 739.6 7704.153 739.6 C 7721.077 739.6 7737.311 732.861 7749.283 720.915 C 7761.229 708.943 7767.968 692.708 7767.968 675.784 C 7767.968 658.86 7761.229 642.626 7749.283 630.654 L 7624.754 506.125 C 7619.773 501.144 7619.773 493.056 7624.754 488.075 L 7749.283 363.546 C 7761.229 351.574 7767.968 335.34 7767.968 318.416 C 7767.968 301.492 7761.229 285.257 7749.283 273.285 C 7737.311 261.339 7721.077 254.6 7704.153 254.6 C 7687.229 254.6 7670.994 261.339 7659.022 273.285 L 7534.493 397.814 C 7529.512 402.795 7521.424 402.795 7516.444 397.814 L 7391.915 273.285 C 7379.943 261.339 7363.708 254.6 7346.784 254.6 C 7329.86 254.6 7313.626 261.339 7301.654 273.285 C 7289.707 285.257 7282.968 301.492 7282.968 318.416 C 7282.968 335.34 7289.707 351.574 7301.654 363.546 L 7426.182 488.075 C 7431.163 493.056 7431.163 501.144 7426.182 506.125 L 7301.654 630.654 C 7289.707 642.626 7282.968 658.86 7282.968 675.784 C 7282.968 692.708 7289.707 708.943 7301.654 720.915 C 7313.626 732.861 7329.86 739.6 7346.784 739.6 C 7363.708 739.6 7379.943 732.861 7391.915 720.915 L 7516.444 596.386 C 7521.424 591.405 7529.512 591.405 7534.493 596.386 Z " fill-rule="evenodd" fill="rgb(0,0,0)"/></g></g><g style="isolation:isolate"><g filter="url(#yvU53j7Rz7ug8mwqBn9Am7rkv6YWXV9V)"><clipPath id="_clipPath_qmIqLGMKDUZQ73lBwloXvlbPaG1HA73f"><path d=" M 2610 1804 L 2610 1380 C 2610 1265.001 2680 1179.995 2810.026 1180 L 3234 1179.995 C 3364 1180 3434 1265.001 3434 1380 L 3434 1804 C 3434 1919.001 3364 2003.995 3234 2004 L 2810.026 2004 C 2680 2004 2610 1919.001 2610 1804 Z " fill="rgb(255,255,255)"/></clipPath><g clip-path="url(#_clipPath_qmIqLGMKDUZQ73lBwloXvlbPaG1HA73f)"><g><path d=" M 2610 1804 L 2610 1380 C 2610 1265.001 2680 1179.995 2810.026 1180 L 3234 1179.995 C 3364 1180 3434 1265.001 3434 1380 L 3434 1804 C 3434 1919.001 3364 2003.995 3234 2004 L 2810.026 2004 C 2680 2004 2610 1919.001 2610 1804 Z " fill="rgb(255,255,255)"/></g><g><g><linearGradient id="_lgradient_2" x1="0.5" y1="4.440892098500626e-16" x2="0.5000000000000001" y2="1.0000000000000004" gradientTransform="matrix(824,0,0,824,2610,1180)" gradientUnits="userSpaceOnUse"><stop offset="0%" stop-opacity="1" style="stop-color:rgb(188,8,43)"/><stop offset="100%" stop-opacity="1" style="stop-color:rgb(138,5,5)"/></linearGradient><rect x="2610" y="1180" width="824" height="824" transform="matrix(1,0,0,1,0,0)" fill="url(#_lgradient_2)"/></g><g filter="url(#lZ3iOSJUUM9IrQqQNBFmkaIKSjGq3bsz)"><path d=" M 3294.043 1807.678 L 3072.762 1935.435 C 3044.745 1951.61 2999.254 1951.61 2971.238 1935.435 L 2749.957 1807.678 C 2721.941 1791.503 2699.196 1752.107 2699.196 1719.757 L 2699.196 1464.243 C 2699.196 1431.893 2721.941 1392.497 2749.957 1376.322 L 2971.238 1248.565 C 2999.254 1232.39 3044.745 1232.39 3072.762 1248.565 L 3294.043 1376.322 C 3322.059 1392.497 3344.804 1431.893 3344.804 1464.243 L 3344.804 1719.757 C 3344.804 1752.107 3322.059 1791.503 3294.043 1807.678 Z " fill="rgb(0,0,0)"/><path d=" M 2767.016 1464.403 L 2971.169 1582.271 C 2989.847 1593.054 3005.01 1619.319 3005.01 1640.885 L 3005.01 1876.621 C 3005.01 1898.188 2989.847 1906.942 2971.169 1896.159 L 2950.294 1884.106 C 2942.985 1879.887 2937.052 1869.61 2937.052 1861.17 L 2937.052 1656.336 C 2937.052 1647.897 2931.118 1637.619 2923.809 1633.4 L 2916.314 1629.072 C 2909.006 1624.853 2903.072 1628.279 2903.072 1636.718 L 2903.072 1841.552 C 2903.072 1849.992 2897.139 1853.417 2889.83 1849.198 L 2848.356 1825.252 C 2841.047 1821.033 2835.113 1810.755 2835.113 1802.316 L 2835.113 1597.482 C 2835.113 1589.043 2829.18 1578.765 2821.871 1574.546 L 2814.376 1570.218 C 2807.068 1565.999 2801.134 1569.425 2801.134 1577.864 L 2801.134 1782.698 C 2801.134 1791.138 2795.2 1794.563 2787.892 1790.344 L 2767.016 1778.291 C 2748.339 1767.508 2733.175 1741.244 2733.175 1719.677 L 2733.175 1483.941 C 2733.175 1462.374 2748.339 1453.62 2767.016 1464.403 Z " fill="rgb(255,255,255)"/><path d=" M 3072.831 1582.271 L 3276.984 1464.403 C 3295.661 1453.62 3310.825 1462.374 3310.825 1483.941 L 3310.825 1719.677 C 3310.825 1741.244 3295.661 1767.508 3276.984 1778.291 L 3072.831 1896.159 C 3054.153 1906.942 3038.99 1898.188 3038.99 1876.621 L 3038.99 1640.885 C 3038.99 1619.319 3054.153 1593.054 3072.831 1582.271 Z " fill="rgb(255,255,255)"/><path d=" M 3106.948 1782.698 L 3106.948 1774.044 C 3106.948 1765.605 3112.882 1755.327 3120.191 1751.108 L 3229.624 1687.926 C 3236.932 1683.707 3242.866 1687.133 3242.866 1695.572 L 3242.866 1704.226 C 3242.866 1712.665 3236.932 1722.943 3229.624 1727.162 L 3120.191 1790.344 C 3112.882 1794.563 3106.948 1791.138 3106.948 1782.698 Z " fill="rgb(0,0,0)"/><path d=" M 3106.948 1664.99 L 3106.948 1656.336 C 3106.948 1647.897 3112.882 1637.619 3120.191 1633.4 L 3229.624 1570.218 C 3236.932 1565.999 3242.866 1569.425 3242.866 1577.864 L 3242.866 1586.518 C 3242.866 1594.957 3236.932 1605.235 3229.624 1609.454 L 3120.191 1672.636 C 3112.882 1676.855 3106.948 1673.43 3106.948 1664.99 Z " fill="rgb(0,0,0)"/><path d=" M 2784.006 1434.976 L 2988.159 1552.844 C 3006.836 1563.627 3037.164 1563.627 3055.841 1552.844 L 3259.994 1434.976 C 3278.671 1424.193 3278.671 1406.683 3259.994 1395.9 L 3055.841 1278.032 C 3037.164 1267.249 3006.836 1267.249 2988.159 1278.032 L 2784.006 1395.9 C 2765.329 1406.683 2765.329 1424.193 2784.006 1434.976 Z " fill="rgb(255,255,255)"/><path d=" M 2886.081 1493.909 C 2913.234 1447.013 2963.959 1415.438 3022 1415.438 C 3080.041 1415.438 3130.766 1447.013 3157.919 1493.909 L 3055.841 1552.844 C 3037.164 1563.627 3006.836 1563.627 2988.159 1552.844 L 2886.081 1493.909 Z  M 3197.991 1360.103 L 3148.253 1414.552 C 3142.562 1420.783 3143.31 1430.097 3149.924 1435.339 C 3150.008 1435.405 3160.869 1446.426 3160.937 1446.515 C 3166.08 1453.206 3176.04 1454.966 3183.164 1450.443 L 3183.164 1450.443 L 3183.164 1450.443 L 3183.164 1450.443 L 3183.164 1450.443 L 3264.431 1398.848 C 3263.093 1397.82 3261.613 1396.835 3259.994 1395.9 L 3197.991 1360.103 Z  M 3100.134 1303.605 L 3076.878 1377.765 C 3074.353 1385.817 3078.826 1394.176 3086.86 1396.42 C 3086.86 1396.42 3100.703 1402.204 3100.703 1402.204 C 3107.82 1406.218 3117.288 1403.703 3121.834 1396.593 L 3121.834 1396.593 L 3121.834 1396.593 L 3121.834 1396.593 L 3159.403 1337.823 L 3100.134 1303.605 Z  M 2846.009 1360.103 L 2895.747 1414.552 C 2901.438 1420.783 2900.69 1430.097 2894.076 1435.339 C 2893.992 1435.405 2883.131 1446.426 2883.063 1446.515 C 2877.92 1453.206 2867.96 1454.966 2860.836 1450.443 L 2860.836 1450.443 L 2860.836 1450.443 L 2779.569 1398.848 C 2780.907 1397.82 2782.387 1396.835 2784.006 1395.9 L 2846.009 1360.103 Z  M 2943.866 1303.605 L 2967.122 1377.765 C 2969.647 1385.817 2965.174 1394.176 2957.14 1396.42 C 2957.14 1396.42 2943.297 1402.204 2943.297 1402.204 C 2936.18 1406.218 2926.712 1403.703 2922.166 1396.593 L 2922.166 1396.593 L 2884.597 1337.823 L 2943.866 1303.605 Z  M 3058.406 1279.513 L 3046.133 1371.636 C 3045.018 1380.001 3038.06 1385.855 3030.605 1384.7 C 3030.605 1384.7 3015.633 1384.541 3015.024 1384.628 C 3006.669 1385.823 2998.982 1380.001 2997.867 1371.636 L 2985.594 1279.513 L 2988.159 1278.032 C 3006.836 1267.249 3037.164 1267.249 3055.841 1278.032 L 3058.406 1279.513 Z " fill-rule="evenodd" fill="rgb(188,8,43)"/></g><defs><filter id="lZ3iOSJUUM9IrQqQNBFmkaIKSjGq3bsz" x="-200%" y="-200%" width="400%" height="400%" filterUnits="objectBoundingBox" color-interpolation-filters="sRGB"><feGaussianBlur xmlns="http://www.w3.org/2000/svg" in="SourceGraphic" stdDeviation="17.174436251356113"/><feOffset xmlns="http://www.w3.org/2000/svg" dx="0" dy="10" result="pf_100_offsetBlur"/><feFlood xmlns="http://www.w3.org/2000/svg" flood-color="#000000" flood-opacity="0.5"/><feComposite xmlns="http://www.w3.org/2000/svg" in2="pf_100_offsetBlur" operator="in" result="pf_100_dropShadow"/><feBlend xmlns="http://www.w3.org/2000/svg" in="SourceGraphic" in2="pf_100_dropShadow" mode="normal"/></filter></defs></g></g></g><defs><filter id="yvU53j7Rz7ug8mwqBn9Am7rkv6YWXV9V" x="-200%" y="-200%" width="400%" height="400%" filterUnits="objectBoundingBox" color-interpolation-filters="sRGB"><feGaussianBlur xmlns="http://www.w3.org/2000/svg" in="SourceGraphic" stdDeviation="10"/><feOffset xmlns="http://www.w3.org/2000/svg" dx="0" dy="10" result="pf_100_offsetBlur"/><feFlood xmlns="http://www.w3.org/2000/svg" flood-color="#000000" flood-opacity="0.3"/><feComposite xmlns="http://www.w3.org/2000/svg" in2="pf_100_offsetBlur" operator="in" result="pf_100_dropShadow"/><feBlend xmlns="http://www.w3.org/2000/svg" in="SourceGraphic" in2="pf_100_dropShadow" mode="normal"/></filter></defs><g filter="url(#aqwCT4wR2aZUZOXUACyt7nhCJGAUC1E4)"><clipPath id="_clipPath_GWMyykW0t5ovdkByZi0fOXlGp1BW41xB"><path d=" M 3800 1442 L 3800 1230 C 3800 1172.501 3835 1129.998 3900.013 1130 L 4112 1129.998 C 4177 1130 4212 1172.501 4212 1230 L 4212 1442 C 4212 1499.5 4177 1541.997 4112 1542 L 3900.013 1542 C 3835 1542 3800 1499.5 3800 1442 Z " fill="rgb(255,255,255)"/></clipPath><g clip-path="url(#_clipPath_GWMyykW0t5ovdkByZi0fOXlGp1BW41xB)"><g><path d=" M 3800 1442 L 3800 1230 C 3800 1172.501 3835 1129.998 3900.013 1130 L 4112 1129.998 C 4177 1130 4212 1172.501 4212 1230 L 4212 1442 C 4212 1499.5 4177 1541.997 4112 1542 L 3900.013 1542 C 3835 1542 3800 1499.5 3800 1442 Z " fill="rgb(255,255,255)"/></g><g><g><linearGradient id="_lgradient_3" x1="0.5" y1="4.440892098500626e-16" x2="0.5000000000000001" y2="1.0000000000000004" gradientTransform="matrix(412,0,0,412,3800,1130)" gradientUnits="userSpaceOnUse"><stop offset="0%" stop-opacity="1" style="stop-color:rgb(188,8,43)"/><stop offset="100%" stop-opacity="1" style="stop-color:rgb(138,5,5)"/></linearGradient><rect x="3800" y="1130" width="412" height="412" transform="matrix(1,0,0,1,0,0)" fill="url(#_lgradient_3)"/></g><g filter="url(#8bMiJ19bbRgR9zNlARz0A6qLa6zyMw5B)"><path d=" M 4142.021 1443.839 L 4031.381 1507.717 C 4017.373 1515.805 3994.627 1515.805 3980.619 1507.717 L 3869.979 1443.839 C 3855.971 1435.752 3844.598 1416.053 3844.598 1399.878 L 3844.598 1272.122 C 3844.598 1255.947 3855.971 1236.248 3869.979 1228.161 L 3980.619 1164.283 C 3994.627 1156.195 4017.373 1156.195 4031.381 1164.283 L 4142.021 1228.161 C 4156.029 1236.248 4167.402 1255.947 4167.402 1272.122 L 4167.402 1399.878 C 4167.402 1416.053 4156.029 1435.752 4142.021 1443.839 Z " fill="rgb(0,0,0)"/><path d=" M 3878.508 1272.202 L 3980.585 1331.135 C 3989.923 1336.527 3997.505 1349.659 3997.505 1360.443 L 3997.505 1478.31 C 3997.505 1489.094 3989.923 1493.471 3980.585 1488.079 L 3970.147 1482.053 C 3966.493 1479.943 3963.526 1474.805 3963.526 1470.585 L 3963.526 1368.168 C 3963.526 1363.948 3960.559 1358.81 3956.905 1356.7 L 3953.157 1354.536 C 3949.503 1352.426 3946.536 1354.139 3946.536 1358.359 L 3946.536 1460.776 C 3946.536 1464.996 3943.569 1466.709 3939.915 1464.599 L 3919.178 1452.626 C 3915.524 1450.516 3912.557 1445.378 3912.557 1441.158 L 3912.557 1338.741 C 3912.557 1334.521 3909.59 1329.383 3905.936 1327.273 L 3902.188 1325.109 C 3898.534 1322.999 3895.567 1324.712 3895.567 1328.932 L 3895.567 1431.349 C 3895.567 1435.569 3892.6 1437.282 3888.946 1435.172 L 3878.508 1429.146 C 3869.169 1423.754 3861.588 1410.622 3861.588 1399.838 L 3861.588 1281.971 C 3861.588 1271.187 3869.169 1266.81 3878.508 1272.202 Z " fill="rgb(255,255,255)"/><path d=" M 4031.415 1331.135 L 4133.492 1272.202 C 4142.831 1266.81 4150.412 1271.187 4150.412 1281.971 L 4150.412 1399.838 C 4150.412 1410.622 4142.831 1423.754 4133.492 1429.146 L 4031.415 1488.079 C 4022.077 1493.471 4014.495 1489.094 4014.495 1478.31 L 4014.495 1360.443 C 4014.495 1349.659 4022.077 1336.527 4031.415 1331.135 Z " fill="rgb(255,255,255)"/><path d=" M 4048.474 1431.349 L 4048.474 1427.022 C 4048.474 1422.802 4051.441 1417.664 4055.095 1415.554 L 4109.812 1383.963 C 4113.466 1381.853 4116.433 1383.566 4116.433 1387.786 L 4116.433 1392.113 C 4116.433 1396.333 4113.466 1401.471 4109.812 1403.581 L 4055.095 1435.172 C 4051.441 1437.282 4048.474 1435.569 4048.474 1431.349 Z " fill="rgb(0,0,0)"/><path d=" M 4048.474 1372.495 L 4048.474 1368.168 C 4048.474 1363.948 4051.441 1358.81 4055.095 1356.7 L 4109.812 1325.109 C 4113.466 1322.999 4116.433 1324.712 4116.433 1328.932 L 4116.433 1333.259 C 4116.433 1337.479 4113.466 1342.617 4109.812 1344.727 L 4055.095 1376.318 C 4051.441 1378.428 4048.474 1376.715 4048.474 1372.495 Z " fill="rgb(0,0,0)"/><path d=" M 3887.003 1257.488 L 3989.079 1316.422 C 3998.418 1321.814 4013.582 1321.814 4022.921 1316.422 L 4124.997 1257.488 C 4134.336 1252.096 4134.336 1243.342 4124.997 1237.95 L 4022.921 1179.016 C 4013.582 1173.624 3998.418 1173.624 3989.079 1179.016 L 3887.003 1237.95 C 3877.664 1243.342 3877.664 1252.096 3887.003 1257.488 Z " fill="rgb(255,255,255)"/><path d=" M 3938.04 1286.954 C 3951.617 1263.507 3976.979 1247.719 4006 1247.719 C 4035.021 1247.719 4060.383 1263.507 4073.96 1286.954 L 4022.921 1316.422 C 4013.582 1321.814 3998.418 1321.814 3989.079 1316.422 L 3938.04 1286.954 Z  M 4093.996 1220.051 L 4069.127 1247.276 C 4066.281 1250.391 4066.655 1255.048 4069.962 1257.669 C 4070.004 1257.703 4075.434 1263.213 4075.469 1263.258 C 4078.04 1266.603 4083.02 1267.483 4086.582 1265.221 L 4086.582 1265.221 L 4086.582 1265.221 L 4086.582 1265.221 L 4086.582 1265.221 L 4127.216 1239.424 C 4126.546 1238.91 4125.807 1238.417 4124.997 1237.95 L 4093.996 1220.051 Z  M 4045.067 1191.802 L 4033.439 1228.882 C 4032.176 1232.909 4034.413 1237.088 4038.43 1238.21 C 4038.43 1238.21 4045.352 1241.102 4045.352 1241.102 C 4048.91 1243.109 4053.644 1241.852 4055.917 1238.296 L 4055.917 1238.296 L 4055.917 1238.296 L 4055.917 1238.296 L 4074.701 1208.912 L 4045.067 1191.802 Z  M 3918.004 1220.051 L 3942.873 1247.276 C 3945.719 1250.391 3945.345 1255.048 3942.038 1257.669 C 3941.996 1257.703 3936.566 1263.213 3936.531 1263.258 C 3933.96 1266.603 3928.98 1267.483 3925.418 1265.221 L 3925.418 1265.221 L 3925.418 1265.221 L 3884.784 1239.424 C 3885.454 1238.91 3886.193 1238.417 3887.003 1237.95 L 3918.004 1220.051 Z  M 3966.933 1191.802 L 3978.561 1228.882 C 3979.824 1232.909 3977.587 1237.088 3973.57 1238.21 C 3973.57 1238.21 3966.648 1241.102 3966.648 1241.102 C 3963.09 1243.109 3958.356 1241.852 3956.083 1238.296 L 3956.083 1238.296 L 3937.299 1208.912 L 3966.933 1191.802 Z  M 4024.203 1179.757 L 4018.066 1225.818 C 4017.509 1230 4014.03 1232.927 4010.303 1232.35 C 4010.303 1232.35 4002.816 1232.27 4002.512 1232.314 C 3998.335 1232.911 3994.491 1230 3993.934 1225.818 L 3987.797 1179.757 L 3989.079 1179.016 C 3998.418 1173.624 4013.582 1173.624 4022.921 1179.016 L 4024.203 1179.757 Z " fill-rule="evenodd" fill="rgb(188,8,43)"/></g><defs><filter id="8bMiJ19bbRgR9zNlARz0A6qLa6zyMw5B" x="-200%" y="-200%" width="400%" height="400%" filterUnits="objectBoundingBox" color-interpolation-filters="sRGB"><feGaussianBlur xmlns="http://www.w3.org/2000/svg" in="SourceGraphic" stdDeviation="17.174436251356113"/><feOffset xmlns="http://www.w3.org/2000/svg" dx="0" dy="5" result="pf_100_offsetBlur"/><feFlood xmlns="http://www.w3.org/2000/svg" flood-color="#000000" flood-opacity="0.5"/><feComposite xmlns="http://www.w3.org/2000/svg" in2="pf_100_offsetBlur" operator="in" result="pf_100_dropShadow"/><feBlend xmlns="http://www.w3.org/2000/svg" in="SourceGraphic" in2="pf_100_dropShadow" mode="normal"/></filter></defs></g></g></g><defs><filter id="aqwCT4wR2aZUZOXUACyt7nhCJGAUC1E4" x="-200%" y="-200%" width="400%" height="400%" filterUnits="objectBoundingBox" color-interpolation-filters="sRGB"><feGaussianBlur xmlns="http://www.w3.org/2000/svg" in="SourceGraphic" stdDeviation="4.9805865128932725"/><feOffset xmlns="http://www.w3.org/2000/svg" dx="0" dy="5" result="pf_100_offsetBlur"/><feFlood xmlns="http://www.w3.org/2000/svg" flood-color="#000000" flood-opacity="0.3"/><feComposite xmlns="http://www.w3.org/2000/svg" in2="pf_100_offsetBlur" operator="in" result="pf_100_dropShadow"/><feBlend xmlns="http://www.w3.org/2000/svg" in="SourceGraphic" in2="pf_100_dropShadow" mode="normal"/></filter></defs><g filter="url(#DjTEcsXJAhNz6jkYOhTKrPqatN1p4U8p)"><clipPath id="_clipPath_WtBiwu6Cgn74wxbkoU2g0dqqHprDSMf8"><path d=" M 4415 1261 L 4415 1155 C 4415 1126.25 4432.5 1104.999 4465.007 1105 L 4571 1104.999 C 4603.5 1105 4621 1126.25 4621 1155 L 4621 1261 C 4621 1289.75 4603.5 1310.999 4571 1311 L 4465.007 1311 C 4432.5 1311 4415 1289.75 4415 1261 Z " fill="rgb(255,255,255)"/></clipPath><g clip-path="url(#_clipPath_WtBiwu6Cgn74wxbkoU2g0dqqHprDSMf8)"><g><path d=" M 4415 1261 L 4415 1155 C 4415 1126.25 4432.5 1104.999 4465.007 1105 L 4571 1104.999 C 4603.5 1105 4621 1126.25 4621 1155 L 4621 1261 C 4621 1289.75 4603.5 1310.999 4571 1311 L 4465.007 1311 C 4432.5 1311 4415 1289.75 4415 1261 Z " fill="rgb(255,255,255)"/></g><g><g><linearGradient id="_lgradient_4" x1="0.5" y1="4.440892098500626e-16" x2="0.5000000000000001" y2="1.0000000000000004" gradientTransform="matrix(206,0,0,206,4415,1105)" gradientUnits="userSpaceOnUse"><stop offset="0%" stop-opacity="1" style="stop-color:rgb(188,8,43)"/><stop offset="100%" stop-opacity="1" style="stop-color:rgb(138,5,5)"/></linearGradient><rect x="4415" y="1105" width="206" height="206" transform="matrix(1,0,0,1,0,0)" fill="url(#_lgradient_4)"/></g><g filter="url(#cUn7yDSG26CaXkBqKI4cOGKn8syPdjJ4)"><path d=" M 4586.011 1261.92 L 4530.69 1293.859 C 4523.686 1297.902 4512.314 1297.902 4505.31 1293.859 L 4449.989 1261.92 C 4442.985 1257.876 4437.299 1248.027 4437.299 1239.939 L 4437.299 1176.061 C 4437.299 1167.973 4442.985 1158.124 4449.989 1154.08 L 4505.31 1122.141 C 4512.314 1118.098 4523.686 1118.098 4530.69 1122.141 L 4586.011 1154.08 C 4593.015 1158.124 4598.701 1167.973 4598.701 1176.061 L 4598.701 1239.939 C 4598.701 1248.027 4593.015 1257.876 4586.011 1261.92 Z " fill="rgb(0,0,0)"/><path d=" M 4454.254 1176.101 L 4505.292 1205.568 C 4509.962 1208.264 4513.753 1214.83 4513.753 1220.221 L 4513.753 1279.155 C 4513.753 1284.547 4509.962 1286.736 4505.292 1284.04 L 4500.073 1281.027 C 4498.246 1279.972 4496.763 1277.402 4496.763 1275.293 L 4496.763 1224.084 C 4496.763 1221.974 4495.279 1219.405 4493.452 1218.35 L 4491.579 1217.268 C 4489.751 1216.213 4488.268 1217.07 4488.268 1219.179 L 4488.268 1270.388 C 4488.268 1272.498 4486.785 1273.354 4484.958 1272.299 L 4474.589 1266.313 C 4472.762 1265.258 4471.278 1262.689 4471.278 1260.579 L 4471.278 1209.37 C 4471.278 1207.261 4469.795 1204.691 4467.968 1203.636 L 4466.094 1202.555 C 4464.267 1201.5 4462.784 1202.356 4462.784 1204.466 L 4462.784 1255.675 C 4462.784 1257.784 4461.3 1258.641 4459.473 1257.586 L 4454.254 1254.573 C 4449.585 1251.877 4445.794 1245.311 4445.794 1239.919 L 4445.794 1180.985 C 4445.794 1175.594 4449.585 1173.405 4454.254 1176.101 Z " fill="rgb(255,255,255)"/><path d=" M 4530.708 1205.568 L 4581.746 1176.101 C 4586.415 1173.405 4590.206 1175.594 4590.206 1180.985 L 4590.206 1239.919 C 4590.206 1245.311 4586.415 1251.877 4581.746 1254.573 L 4530.708 1284.04 C 4526.038 1286.736 4522.247 1284.547 4522.247 1279.155 L 4522.247 1220.221 C 4522.247 1214.83 4526.038 1208.264 4530.708 1205.568 Z " fill="rgb(255,255,255)"/><path d=" M 4539.237 1255.675 L 4539.237 1253.511 C 4539.237 1251.401 4540.721 1248.832 4542.548 1247.777 L 4569.906 1231.982 C 4571.733 1230.927 4573.216 1231.783 4573.216 1233.893 L 4573.216 1236.057 C 4573.216 1238.166 4571.733 1240.736 4569.906 1241.791 L 4542.548 1257.586 C 4540.721 1258.641 4539.237 1257.784 4539.237 1255.675 Z " fill="rgb(0,0,0)"/><path d=" M 4539.237 1226.248 L 4539.237 1224.084 C 4539.237 1221.974 4540.721 1219.405 4542.548 1218.35 L 4569.906 1202.555 C 4571.733 1201.5 4573.216 1202.356 4573.216 1204.466 L 4573.216 1206.63 C 4573.216 1208.739 4571.733 1211.309 4569.906 1212.364 L 4542.548 1228.159 C 4540.721 1229.214 4539.237 1228.357 4539.237 1226.248 Z " fill="rgb(0,0,0)"/><path d=" M 4458.502 1168.744 L 4509.54 1198.211 C 4514.209 1200.907 4521.791 1200.907 4526.46 1198.211 L 4577.498 1168.744 C 4582.168 1166.048 4582.168 1161.671 4577.498 1158.975 L 4526.46 1129.508 C 4521.791 1126.812 4514.209 1126.812 4509.54 1129.508 L 4458.502 1158.975 C 4453.832 1161.671 4453.832 1166.048 4458.502 1168.744 Z " fill="rgb(255,255,255)"/><path d=" M 4484.02 1183.477 C 4490.808 1171.753 4503.49 1163.859 4518 1163.859 C 4532.51 1163.859 4545.192 1171.753 4551.98 1183.477 L 4526.46 1198.211 C 4521.791 1200.907 4514.209 1200.907 4509.54 1198.211 L 4484.02 1183.477 Z  M 4561.998 1150.026 L 4549.563 1163.638 C 4548.14 1165.196 4548.328 1167.524 4549.981 1168.835 C 4550.002 1168.851 4552.717 1171.607 4552.734 1171.629 C 4554.02 1173.302 4556.51 1173.742 4558.291 1172.611 L 4558.291 1172.611 L 4558.291 1172.611 L 4558.291 1172.611 L 4558.291 1172.611 L 4578.608 1159.712 C 4578.273 1159.455 4577.903 1159.209 4577.498 1158.975 L 4561.998 1150.026 Z  M 4537.533 1135.901 L 4531.72 1154.441 C 4531.088 1156.454 4532.206 1158.544 4534.215 1159.105 C 4534.215 1159.105 4537.676 1160.551 4537.676 1160.551 C 4539.455 1161.554 4541.822 1160.926 4542.958 1159.148 L 4542.958 1159.148 L 4542.958 1159.148 L 4542.958 1159.148 L 4552.351 1144.456 L 4537.533 1135.901 Z  M 4474.002 1150.026 L 4486.437 1163.638 C 4487.86 1165.196 4487.672 1167.524 4486.019 1168.835 C 4485.998 1168.851 4483.283 1171.607 4483.266 1171.629 C 4481.98 1173.302 4479.49 1173.742 4477.709 1172.611 L 4477.709 1172.611 L 4477.709 1172.611 L 4457.392 1159.712 C 4457.727 1159.455 4458.097 1159.209 4458.502 1158.975 L 4474.002 1150.026 Z  M 4498.467 1135.901 L 4504.28 1154.441 C 4504.912 1156.454 4503.794 1158.544 4501.785 1159.105 C 4501.785 1159.105 4498.324 1160.551 4498.324 1160.551 C 4496.545 1161.554 4494.178 1160.926 4493.042 1159.148 L 4493.042 1159.148 L 4483.649 1144.456 L 4498.467 1135.901 Z  M 4527.102 1129.878 L 4524.033 1152.909 C 4523.755 1155 4522.015 1156.464 4520.151 1156.175 C 4520.151 1156.175 4516.408 1156.135 4516.256 1156.157 C 4514.167 1156.456 4512.245 1155 4511.967 1152.909 L 4508.898 1129.878 L 4509.54 1129.508 C 4514.209 1126.812 4521.791 1126.812 4526.46 1129.508 L 4527.102 1129.878 Z " fill-rule="evenodd" fill="rgb(188,8,43)"/></g><defs><filter id="cUn7yDSG26CaXkBqKI4cOGKn8syPdjJ4" x="-200%" y="-200%" width="400%" height="400%" filterUnits="objectBoundingBox" color-interpolation-filters="sRGB"><feGaussianBlur xmlns="http://www.w3.org/2000/svg" in="SourceGraphic" stdDeviation="4.293609062839028"/><feOffset xmlns="http://www.w3.org/2000/svg" dx="0" dy="2.5" result="pf_100_offsetBlur"/><feFlood xmlns="http://www.w3.org/2000/svg" flood-color="#000000" flood-opacity="0.5"/><feComposite xmlns="http://www.w3.org/2000/svg" in2="pf_100_offsetBlur" operator="in" result="pf_100_dropShadow"/><feBlend xmlns="http://www.w3.org/2000/svg" in="SourceGraphic" in2="pf_100_dropShadow" mode="normal"/></filter></defs></g></g></g><defs><filter id="DjTEcsXJAhNz6jkYOhTKrPqatN1p4U8p" x="-200%" y="-200%" width="400%" height="400%" filterUnits="objectBoundingBox" color-interpolation-filters="sRGB"><feGaussianBlur xmlns="http://www.w3.org/2000/svg" in="SourceGraphic" stdDeviation="2.4902932564466362"/><feOffset xmlns="http://www.w3.org/2000/svg" dx="0" dy="2.5" result="pf_100_offsetBlur"/><feFlood xmlns="http://www.w3.org/2000/svg" flood-color="#000000" flood-opacity="0.3"/><feComposite xmlns="http://www.w3.org/2000/svg" in2="pf_100_offsetBlur" operator="in" result="pf_100_dropShadow"/><feBlend xmlns="http://www.w3.org/2000/svg" in="SourceGraphic" in2="pf_100_dropShadow" mode="normal"/></filter></defs><g filter="url(#UfPOL7Id42PrH2UJkQCUzKod4oN8uyE0)"><clipPath id="_clipPath_zzCkBhe4lwyDBH8NaJOWpFwEfU2AxaVD"><path d=" M 4742.5 1170.5 L 4742.5 1117.5 C 4742.5 1103.125 4751.25 1092.499 4767.503 1092.5 L 4820.5 1092.499 C 4836.75 1092.5 4845.5 1103.125 4845.5 1117.5 L 4845.5 1170.5 C 4845.5 1184.875 4836.75 1195.499 4820.5 1195.5 L 4767.503 1195.5 C 4751.25 1195.5 4742.5 1184.875 4742.5 1170.5 Z " fill="rgb(255,255,255)"/></clipPath><g clip-path="url(#_clipPath_zzCkBhe4lwyDBH8NaJOWpFwEfU2AxaVD)"><g><path d=" M 4742.5 1170.5 L 4742.5 1117.5 C 4742.5 1103.125 4751.25 1092.499 4767.503 1092.5 L 4820.5 1092.499 C 4836.75 1092.5 4845.5 1103.125 4845.5 1117.5 L 4845.5 1170.5 C 4845.5 1184.875 4836.75 1195.499 4820.5 1195.5 L 4767.503 1195.5 C 4751.25 1195.5 4742.5 1184.875 4742.5 1170.5 Z " fill="rgb(255,255,255)"/></g><g><g><linearGradient id="_lgradient_5" x1="0.5" y1="4.440892098500626e-16" x2="0.5000000000000001" y2="1.0000000000000004" gradientTransform="matrix(103,0,0,103,4742.5,1092.5)" gradientUnits="userSpaceOnUse"><stop offset="0%" stop-opacity="1" style="stop-color:rgb(188,8,43)"/><stop offset="100%" stop-opacity="1" style="stop-color:rgb(138,5,5)"/></linearGradient><rect x="4742.5" y="1092.5" width="103" height="103" transform="matrix(1,0,0,1,0,0)" fill="url(#_lgradient_5)"/></g><g filter="url(#Qcyo4BhyJEtCgSZKfsakeTnRk8IkpC1m)"><path d=" M 4828.005 1170.96 L 4800.345 1186.929 C 4796.843 1188.951 4791.157 1188.951 4787.655 1186.929 L 4759.995 1170.96 C 4756.493 1168.938 4753.649 1164.013 4753.649 1159.97 L 4753.649 1128.03 C 4753.649 1123.987 4756.493 1119.062 4759.995 1117.04 L 4787.655 1101.071 C 4791.157 1099.049 4796.843 1099.049 4800.345 1101.071 L 4828.005 1117.04 C 4831.507 1119.062 4834.351 1123.987 4834.351 1128.03 L 4834.351 1159.97 C 4834.351 1164.013 4831.507 1168.938 4828.005 1170.96 Z " fill="rgb(0,0,0)"/><path d=" M 4762.127 1128.05 L 4787.646 1142.784 C 4789.981 1144.132 4791.876 1147.415 4791.876 1150.111 L 4791.876 1179.578 C 4791.876 1182.273 4789.981 1183.368 4787.646 1182.02 L 4785.037 1180.513 C 4784.123 1179.986 4783.381 1178.701 4783.381 1177.646 L 4783.381 1152.042 C 4783.381 1150.987 4782.64 1149.702 4781.726 1149.175 L 4780.789 1148.634 C 4779.876 1148.107 4779.134 1148.535 4779.134 1149.59 L 4779.134 1175.194 C 4779.134 1176.249 4778.392 1176.677 4777.479 1176.15 L 4772.294 1173.157 C 4771.381 1172.629 4770.639 1171.344 4770.639 1170.29 L 4770.639 1144.685 C 4770.639 1143.63 4769.897 1142.346 4768.984 1141.818 L 4768.047 1141.277 C 4767.133 1140.75 4766.392 1141.178 4766.392 1142.233 L 4766.392 1167.837 C 4766.392 1168.892 4765.65 1169.32 4764.736 1168.793 L 4762.127 1167.286 C 4759.792 1165.938 4757.897 1162.655 4757.897 1159.96 L 4757.897 1130.493 C 4757.897 1127.797 4759.792 1126.702 4762.127 1128.05 Z " fill="rgb(255,255,255)"/><path d=" M 4800.354 1142.784 L 4825.873 1128.05 C 4828.208 1126.702 4830.103 1127.797 4830.103 1130.493 L 4830.103 1159.96 C 4830.103 1162.655 4828.208 1165.938 4825.873 1167.286 L 4800.354 1182.02 C 4798.019 1183.368 4796.124 1182.273 4796.124 1179.578 L 4796.124 1150.111 C 4796.124 1147.415 4798.019 1144.132 4800.354 1142.784 Z " fill="rgb(255,255,255)"/><path d=" M 4804.619 1167.837 L 4804.619 1166.755 C 4804.619 1165.701 4805.36 1164.416 4806.274 1163.888 L 4819.953 1155.991 C 4820.867 1155.463 4821.608 1155.892 4821.608 1156.946 L 4821.608 1158.028 C 4821.608 1159.083 4820.867 1160.368 4819.953 1160.895 L 4806.274 1168.793 C 4805.36 1169.32 4804.619 1168.892 4804.619 1167.837 Z " fill="rgb(0,0,0)"/><path d=" M 4804.619 1153.124 L 4804.619 1152.042 C 4804.619 1150.987 4805.36 1149.702 4806.274 1149.175 L 4819.953 1141.277 C 4820.867 1140.75 4821.608 1141.178 4821.608 1142.233 L 4821.608 1143.315 C 4821.608 1144.37 4820.867 1145.654 4819.953 1146.182 L 4806.274 1154.079 C 4805.36 1154.607 4804.619 1154.179 4804.619 1153.124 Z " fill="rgb(0,0,0)"/><path d=" M 4764.251 1124.372 L 4789.77 1139.105 C 4792.105 1140.453 4795.895 1140.453 4798.23 1139.105 L 4823.749 1124.372 C 4826.084 1123.024 4826.084 1120.835 4823.749 1119.487 L 4798.23 1104.754 C 4795.895 1103.406 4792.105 1103.406 4789.77 1104.754 L 4764.251 1119.487 C 4761.916 1120.835 4761.916 1123.024 4764.251 1124.372 Z " fill="rgb(255,255,255)"/><path d=" M 4777.01 1131.739 C 4780.404 1125.877 4786.745 1121.93 4794 1121.93 C 4801.255 1121.93 4807.596 1125.877 4810.99 1131.739 L 4798.23 1139.105 C 4795.895 1140.453 4792.105 1140.453 4789.77 1139.105 L 4777.01 1131.739 Z  M 4815.999 1115.013 L 4809.782 1121.819 C 4809.07 1122.598 4809.164 1123.762 4809.991 1124.417 C 4810.001 1124.426 4811.359 1125.803 4811.367 1125.814 C 4812.01 1126.651 4813.255 1126.871 4814.146 1126.305 L 4814.146 1126.305 L 4814.146 1126.305 L 4814.146 1126.305 L 4814.146 1126.305 L 4824.304 1119.856 C 4824.137 1119.728 4823.952 1119.604 4823.749 1119.487 L 4815.999 1115.013 Z  M 4803.767 1107.951 L 4800.86 1117.221 C 4800.544 1118.227 4801.103 1119.272 4802.108 1119.552 C 4802.108 1119.552 4803.838 1120.276 4803.838 1120.276 C 4804.727 1120.777 4805.911 1120.463 4806.479 1119.574 L 4806.479 1119.574 L 4806.479 1119.574 L 4806.479 1119.574 L 4811.175 1112.228 L 4803.767 1107.951 Z  M 4772.001 1115.013 L 4778.218 1121.819 C 4778.93 1122.598 4778.836 1123.762 4778.009 1124.417 C 4777.999 1124.426 4776.641 1125.803 4776.633 1125.814 C 4775.99 1126.651 4774.745 1126.871 4773.854 1126.305 L 4773.854 1126.305 L 4773.854 1126.305 L 4763.696 1119.856 C 4763.863 1119.728 4764.048 1119.604 4764.251 1119.487 L 4772.001 1115.013 Z  M 4784.233 1107.951 L 4787.14 1117.221 C 4787.456 1118.227 4786.897 1119.272 4785.892 1119.552 C 4785.892 1119.552 4784.162 1120.276 4784.162 1120.276 C 4783.272 1120.777 4782.089 1120.463 4781.521 1119.574 L 4781.521 1119.574 L 4776.825 1112.228 L 4784.233 1107.951 Z  M 4798.551 1104.939 L 4797.017 1116.454 C 4796.877 1117.5 4796.008 1118.232 4795.076 1118.088 C 4795.076 1118.088 4793.204 1118.068 4793.128 1118.079 C 4792.084 1118.228 4791.123 1117.5 4790.983 1116.454 L 4789.449 1104.939 L 4789.77 1104.754 C 4792.105 1103.406 4795.895 1103.406 4798.23 1104.754 L 4798.551 1104.939 Z " fill-rule="evenodd" fill="rgb(188,8,43)"/></g><defs><filter id="Qcyo4BhyJEtCgSZKfsakeTnRk8IkpC1m" x="-200%" y="-200%" width="400%" height="400%" filterUnits="objectBoundingBox" color-interpolation-filters="sRGB"><feGaussianBlur xmlns="http://www.w3.org/2000/svg" in="SourceGraphic" stdDeviation="2.146804531419514"/><feOffset xmlns="http://www.w3.org/2000/svg" dx="0" dy="1.25" result="pf_100_offsetBlur"/><feFlood xmlns="http://www.w3.org/2000/svg" flood-color="#000000" flood-opacity="0.5"/><feComposite xmlns="http://www.w3.org/2000/svg" in2="pf_100_offsetBlur" operator="in" result="pf_100_dropShadow"/><feBlend xmlns="http://www.w3.org/2000/svg" in="SourceGraphic" in2="pf_100_dropShadow" mode="normal"/></filter></defs></g></g></g><defs><filter id="UfPOL7Id42PrH2UJkQCUzKod4oN8uyE0" x="-200%" y="-200%" width="400%" height="400%" filterUnits="objectBoundingBox" color-interpolation-filters="sRGB"><feGaussianBlur xmlns="http://www.w3.org/2000/svg" in="SourceGraphic" stdDeviation="1.2451466282233181"/><feOffset xmlns="http://www.w3.org/2000/svg" dx="0" dy="1.25" result="pf_100_offsetBlur"/><feFlood xmlns="http://www.w3.org/2000/svg" flood-color="#000000" flood-opacity="0.3"/><feComposite xmlns="http://www.w3.org/2000/svg" in2="pf_100_offsetBlur" operator="in" result="pf_100_dropShadow"/><feBlend xmlns="http://www.w3.org/2000/svg" in="SourceGraphic" in2="pf_100_dropShadow" mode="normal"/></filter></defs><g filter="url(#Wuh0vvg96ZmIhIRSbu2KThowO2HR0Nit)"><clipPath id="_clipPath_aztuHS2xvA4XUyXrl9muQcGClmQv1rIy"><path d=" M 4916.25 1125.25 L 4916.25 1098.75 C 4916.25 1091.563 4920.625 1086.25 4928.752 1086.25 L 4955.25 1086.25 C 4963.375 1086.25 4967.75 1091.563 4967.75 1098.75 L 4967.75 1125.25 C 4967.75 1132.438 4963.375 1137.75 4955.25 1137.75 L 4928.752 1137.75 C 4920.625 1137.75 4916.25 1132.438 4916.25 1125.25 Z " fill="rgb(255,255,255)"/></clipPath><g clip-path="url(#_clipPath_aztuHS2xvA4XUyXrl9muQcGClmQv1rIy)"><g><path d=" M 4916.25 1125.25 L 4916.25 1098.75 C 4916.25 1091.563 4920.625 1086.25 4928.752 1086.25 L 4955.25 1086.25 C 4963.375 1086.25 4967.75 1091.563 4967.75 1098.75 L 4967.75 1125.25 C 4967.75 1132.438 4963.375 1137.75 4955.25 1137.75 L 4928.752 1137.75 C 4920.625 1137.75 4916.25 1132.438 4916.25 1125.25 Z " fill="rgb(255,255,255)"/></g><g><g><linearGradient id="_lgradient_6" x1="0.5" y1="4.440892098500626e-16" x2="0.5000000000000001" y2="1.0000000000000004" gradientTransform="matrix(51.5,0,0,51.5,4916.3,1086.3)" gradientUnits="userSpaceOnUse"><stop offset="0%" stop-opacity="1" style="stop-color:rgb(188,8,43)"/><stop offset="100%" stop-opacity="1" style="stop-color:rgb(138,5,5)"/></linearGradient><rect x="4916.3" y="1086.3" width="51.5" height="51.5" transform="matrix(1,0,0,1,0,0)" fill="url(#_lgradient_6)"/></g><g filter="url(#2mUb2fMdrcnFKYe2j5wKoGqTzXVRWNr4)"><path d=" M 4959.003 1125.48 L 4945.173 1133.465 C 4943.422 1134.476 4940.578 1134.476 4938.827 1133.465 L 4924.997 1125.48 C 4923.246 1124.469 4921.825 1122.007 4921.825 1119.985 L 4921.825 1104.015 C 4921.825 1101.993 4923.246 1099.531 4924.997 1098.52 L 4938.827 1090.535 C 4940.578 1089.524 4943.422 1089.524 4945.173 1090.535 L 4959.003 1098.52 C 4960.754 1099.531 4962.175 1101.993 4962.175 1104.015 L 4962.175 1119.985 C 4962.175 1122.007 4960.754 1124.469 4959.003 1125.48 Z " fill="rgb(0,0,0)"/><path d=" M 4926.064 1104.025 L 4938.823 1111.392 C 4939.99 1112.066 4940.938 1113.707 4940.938 1115.055 L 4940.938 1129.789 C 4940.938 1131.137 4939.99 1131.684 4938.823 1131.01 L 4937.518 1130.257 C 4937.062 1129.993 4936.691 1129.351 4936.691 1128.823 L 4936.691 1116.021 C 4936.691 1115.494 4936.32 1114.851 4935.863 1114.587 L 4935.395 1114.317 C 4934.938 1114.053 4934.567 1114.267 4934.567 1114.795 L 4934.567 1127.597 C 4934.567 1128.124 4934.196 1128.339 4933.739 1128.075 L 4931.147 1126.578 C 4930.69 1126.315 4930.32 1125.672 4930.32 1125.145 L 4930.32 1112.343 C 4930.32 1111.815 4929.949 1111.173 4929.492 1110.909 L 4929.024 1110.639 C 4928.567 1110.375 4928.196 1110.589 4928.196 1111.116 L 4928.196 1123.919 C 4928.196 1124.446 4927.825 1124.66 4927.368 1124.396 L 4926.064 1123.643 C 4924.896 1122.969 4923.948 1121.328 4923.948 1119.98 L 4923.948 1105.246 C 4923.948 1103.898 4924.896 1103.351 4926.064 1104.025 Z " fill="rgb(255,255,255)"/><path d=" M 4945.177 1111.392 L 4957.936 1104.025 C 4959.104 1103.351 4960.052 1103.898 4960.052 1105.246 L 4960.052 1119.98 C 4960.052 1121.328 4959.104 1122.969 4957.936 1123.643 L 4945.177 1131.01 C 4944.01 1131.684 4943.062 1131.137 4943.062 1129.789 L 4943.062 1115.055 C 4943.062 1113.707 4944.01 1112.066 4945.177 1111.392 Z " fill="rgb(255,255,255)"/><path d=" M 4947.309 1123.919 L 4947.309 1123.378 C 4947.309 1122.85 4947.68 1122.208 4948.137 1121.944 L 4954.976 1117.995 C 4955.433 1117.732 4955.804 1117.946 4955.804 1118.473 L 4955.804 1119.014 C 4955.804 1119.542 4955.433 1120.184 4954.976 1120.448 L 4948.137 1124.396 C 4947.68 1124.66 4947.309 1124.446 4947.309 1123.919 Z " fill="rgb(0,0,0)"/><path d=" M 4947.309 1116.562 L 4947.309 1116.021 C 4947.309 1115.494 4947.68 1114.851 4948.137 1114.587 L 4954.976 1110.639 C 4955.433 1110.375 4955.804 1110.589 4955.804 1111.116 L 4955.804 1111.657 C 4955.804 1112.185 4955.433 1112.827 4954.976 1113.091 L 4948.137 1117.04 C 4947.68 1117.303 4947.309 1117.089 4947.309 1116.562 Z " fill="rgb(0,0,0)"/><path d=" M 4927.125 1102.186 L 4939.885 1109.553 C 4941.052 1110.227 4942.948 1110.227 4944.115 1109.553 L 4956.875 1102.186 C 4958.042 1101.512 4958.042 1100.418 4956.875 1099.744 L 4944.115 1092.377 C 4942.948 1091.703 4941.052 1091.703 4939.885 1092.377 L 4927.125 1099.744 C 4925.958 1100.418 4925.958 1101.512 4927.125 1102.186 Z " fill="rgb(255,255,255)"/><path d=" M 4933.505 1105.869 C 4935.202 1102.938 4938.372 1100.965 4942 1100.965 C 4945.628 1100.965 4948.798 1102.938 4950.495 1105.869 L 4944.115 1109.553 C 4942.948 1110.227 4941.052 1110.227 4939.885 1109.553 L 4933.505 1105.869 Z  M 4952.999 1097.506 L 4949.891 1100.909 C 4949.535 1101.299 4949.582 1101.881 4949.995 1102.209 C 4950.001 1102.213 4950.679 1102.902 4950.684 1102.907 C 4951.005 1103.325 4951.627 1103.435 4952.073 1103.153 L 4952.073 1103.153 L 4952.073 1103.153 L 4952.073 1103.153 L 4952.073 1103.153 L 4957.152 1099.928 C 4957.068 1099.864 4956.976 1099.802 4956.875 1099.744 L 4952.999 1097.506 Z  M 4946.883 1093.975 L 4945.43 1098.61 C 4945.272 1099.114 4945.552 1099.636 4946.054 1099.776 C 4946.054 1099.776 4946.919 1100.138 4946.919 1100.138 C 4947.364 1100.389 4947.956 1100.231 4948.24 1099.787 L 4948.24 1099.787 L 4948.24 1099.787 L 4948.24 1099.787 L 4950.588 1096.114 L 4946.883 1093.975 Z  M 4931.001 1097.506 L 4934.109 1100.909 C 4934.465 1101.299 4934.418 1101.881 4934.005 1102.209 C 4933.999 1102.213 4933.321 1102.902 4933.316 1102.907 C 4932.995 1103.325 4932.373 1103.435 4931.927 1103.153 L 4931.927 1103.153 L 4931.927 1103.153 L 4926.848 1099.928 C 4926.932 1099.864 4927.024 1099.802 4927.125 1099.744 L 4931.001 1097.506 Z  M 4937.117 1093.975 L 4938.57 1098.61 C 4938.728 1099.114 4938.448 1099.636 4937.946 1099.776 C 4937.946 1099.776 4937.081 1100.138 4937.081 1100.138 C 4936.636 1100.389 4936.044 1100.231 4935.76 1099.787 L 4935.76 1099.787 L 4933.412 1096.114 L 4937.117 1093.975 Z  M 4944.275 1092.47 L 4943.508 1098.227 C 4943.439 1098.75 4943.004 1099.116 4942.538 1099.044 C 4942.538 1099.044 4941.602 1099.034 4941.564 1099.039 C 4941.042 1099.114 4940.561 1098.75 4940.492 1098.227 L 4939.725 1092.47 L 4939.885 1092.377 C 4941.052 1091.703 4942.948 1091.703 4944.115 1092.377 L 4944.275 1092.47 Z " fill-rule="evenodd" fill="rgb(188,8,43)"/></g><defs><filter id="2mUb2fMdrcnFKYe2j5wKoGqTzXVRWNr4" x="-200%" y="-200%" width="400%" height="400%" filterUnits="objectBoundingBox" color-interpolation-filters="sRGB"><feGaussianBlur xmlns="http://www.w3.org/2000/svg" in="SourceGraphic" stdDeviation="1.073402265709757"/><feOffset xmlns="http://www.w3.org/2000/svg" dx="0" dy="0.6" result="pf_100_offsetBlur"/><feFlood xmlns="http://www.w3.org/2000/svg" flood-color="#000000" flood-opacity="0.5"/><feComposite xmlns="http://www.w3.org/2000/svg" in2="pf_100_offsetBlur" operator="in" result="pf_100_dropShadow"/><feBlend xmlns="http://www.w3.org/2000/svg" in="SourceGraphic" in2="pf_100_dropShadow" mode="normal"/></filter></defs></g></g></g><defs><filter id="Wuh0vvg96ZmIhIRSbu2KThowO2HR0Nit" x="-200%" y="-200%" width="400%" height="400%" filterUnits="objectBoundingBox" color-interpolation-filters="sRGB"><feGaussianBlur xmlns="http://www.w3.org/2000/svg" in="SourceGraphic" stdDeviation="0.6225733141116591"/><feOffset xmlns="http://www.w3.org/2000/svg" dx="0" dy="0.625" result="pf_100_offsetBlur"/><feFlood xmlns="http://www.w3.org/2000/svg" flood-color="#000000" flood-opacity="0.3"/><feComposite xmlns="http://www.w3.org/2000/svg" in2="pf_100_offsetBlur" operator="in" result="pf_100_dropShadow"/><feBlend xmlns="http://www.w3.org/2000/svg" in="SourceGraphic" in2="pf_100_dropShadow" mode="normal"/></filter></defs><g filter="url(#7JqTNv0xcej7Jh8tRV8yHUhMHkO5aiUn)"><clipPath id="_clipPath_QD3Kab8DK9u74GyaH4d9ok7EQ9V4qZST"><path d=" M 5003.125 1102.625 L 5003.125 1089.375 C 5003.125 1085.781 5005.313 1083.125 5009.376 1083.125 L 5022.625 1083.125 C 5026.688 1083.125 5028.875 1085.781 5028.875 1089.375 L 5028.875 1102.625 C 5028.875 1106.219 5026.688 1108.875 5022.625 1108.875 L 5009.376 1108.875 C 5005.313 1108.875 5003.125 1106.219 5003.125 1102.625 Z " fill="rgb(255,255,255)"/></clipPath><g clip-path="url(#_clipPath_QD3Kab8DK9u74GyaH4d9ok7EQ9V4qZST)"><g><path d=" M 5003.125 1102.625 L 5003.125 1089.375 C 5003.125 1085.781 5005.313 1083.125 5009.376 1083.125 L 5022.625 1083.125 C 5026.688 1083.125 5028.875 1085.781 5028.875 1089.375 L 5028.875 1102.625 C 5028.875 1106.219 5026.688 1108.875 5022.625 1108.875 L 5009.376 1108.875 C 5005.313 1108.875 5003.125 1106.219 5003.125 1102.625 Z " fill="rgb(255,255,255)"/></g><g><g><linearGradient id="_lgradient_7" x1="0.5" y1="4.440892098500626e-16" x2="0.5000000000000001" y2="1.0000000000000004" gradientTransform="matrix(25.8,0,0,25.8,5003.1,1083.1)" gradientUnits="userSpaceOnUse"><stop offset="0%" stop-opacity="1" style="stop-color:rgb(188,8,43)"/><stop offset="100%" stop-opacity="1" style="stop-color:rgb(138,5,5)"/></linearGradient><rect x="5003.1" y="1083.1" width="25.8" height="25.8" transform="matrix(1,0,0,1,0,0)" fill="url(#_lgradient_7)"/></g><g filter="url(#of2ClsLoQif9MAllVcPrZgEMyiJAkuQm)"><path d=" M 5024.501 1102.74 L 5017.586 1106.732 C 5016.711 1107.238 5015.289 1107.238 5014.414 1106.732 L 5007.499 1102.74 C 5006.623 1102.234 5005.912 1101.003 5005.912 1099.992 L 5005.912 1092.008 C 5005.912 1090.997 5006.623 1089.766 5007.499 1089.26 L 5014.414 1085.268 C 5015.289 1084.762 5016.711 1084.762 5017.586 1085.268 L 5024.501 1089.26 C 5025.377 1089.766 5026.088 1090.997 5026.088 1092.008 L 5026.088 1099.992 C 5026.088 1101.003 5025.377 1102.234 5024.501 1102.74 Z " fill="rgb(0,0,0)"/><path d=" M 5008.032 1092.013 L 5014.412 1095.696 C 5014.995 1096.033 5015.469 1096.854 5015.469 1097.528 L 5015.469 1104.894 C 5015.469 1105.568 5014.995 1105.842 5014.412 1105.505 L 5013.759 1105.128 C 5013.531 1104.996 5013.345 1104.675 5013.345 1104.412 L 5013.345 1098.01 C 5013.345 1097.747 5013.16 1097.426 5012.932 1097.294 L 5012.697 1097.159 C 5012.469 1097.027 5012.284 1097.134 5012.284 1097.397 L 5012.284 1103.799 C 5012.284 1104.062 5012.098 1104.169 5011.87 1104.037 L 5010.574 1103.289 C 5010.345 1103.157 5010.16 1102.836 5010.16 1102.572 L 5010.16 1096.171 C 5010.16 1095.908 5009.974 1095.586 5009.746 1095.455 L 5009.512 1095.319 C 5009.283 1095.187 5009.098 1095.295 5009.098 1095.558 L 5009.098 1101.959 C 5009.098 1102.223 5008.913 1102.33 5008.684 1102.198 L 5008.032 1101.822 C 5007.448 1101.485 5006.974 1100.664 5006.974 1099.99 L 5006.974 1092.623 C 5006.974 1091.949 5007.448 1091.676 5008.032 1092.013 Z " fill="rgb(255,255,255)"/><path d=" M 5017.588 1095.696 L 5023.968 1092.013 C 5024.552 1091.676 5025.026 1091.949 5025.026 1092.623 L 5025.026 1099.99 C 5025.026 1100.664 5024.552 1101.485 5023.968 1101.822 L 5017.588 1105.505 C 5017.005 1105.842 5016.531 1105.568 5016.531 1104.894 L 5016.531 1097.528 C 5016.531 1096.854 5017.005 1096.033 5017.588 1095.696 Z " fill="rgb(255,255,255)"/><path d=" M 5018.655 1101.959 L 5018.655 1101.689 C 5018.655 1101.425 5018.84 1101.104 5019.068 1100.972 L 5022.488 1098.998 C 5022.717 1098.866 5022.902 1098.973 5022.902 1099.237 L 5022.902 1099.507 C 5022.902 1099.771 5022.717 1100.092 5022.488 1100.224 L 5019.068 1102.198 C 5018.84 1102.33 5018.655 1102.223 5018.655 1101.959 Z " fill="rgb(0,0,0)"/><path d=" M 5018.655 1098.281 L 5018.655 1098.01 C 5018.655 1097.747 5018.84 1097.426 5019.068 1097.294 L 5022.488 1095.319 C 5022.717 1095.187 5022.902 1095.295 5022.902 1095.558 L 5022.902 1095.829 C 5022.902 1096.092 5022.717 1096.414 5022.488 1096.545 L 5019.068 1098.52 C 5018.84 1098.652 5018.655 1098.545 5018.655 1098.281 Z " fill="rgb(0,0,0)"/><path d=" M 5008.563 1091.093 L 5014.942 1094.776 C 5015.526 1095.113 5016.474 1095.113 5017.058 1094.776 L 5023.437 1091.093 C 5024.021 1090.756 5024.021 1090.209 5023.437 1089.872 L 5017.058 1086.189 C 5016.474 1085.852 5015.526 1085.852 5014.942 1086.189 L 5008.563 1089.872 C 5007.979 1090.209 5007.979 1090.756 5008.563 1091.093 Z " fill="rgb(255,255,255)"/><path d=" M 5011.753 1092.935 C 5012.601 1091.469 5014.186 1090.482 5016 1090.482 C 5017.814 1090.482 5019.399 1091.469 5020.247 1092.935 L 5017.058 1094.776 C 5016.474 1095.113 5015.526 1095.113 5014.942 1094.776 L 5011.753 1092.935 Z  M 5021.5 1088.753 L 5019.945 1090.455 C 5019.768 1090.649 5019.791 1090.941 5019.998 1091.104 C 5020 1091.106 5020.34 1091.451 5020.342 1091.454 C 5020.502 1091.663 5020.814 1091.718 5021.036 1091.576 L 5021.036 1091.576 L 5021.036 1091.576 L 5021.036 1091.576 L 5021.036 1091.576 L 5023.576 1089.964 C 5023.534 1089.932 5023.488 1089.901 5023.437 1089.872 L 5021.5 1088.753 Z  M 5018.442 1086.988 L 5017.715 1089.305 C 5017.636 1089.557 5017.776 1089.818 5018.027 1089.888 C 5018.027 1089.888 5018.459 1090.069 5018.459 1090.069 C 5018.682 1090.194 5018.978 1090.116 5019.12 1089.894 L 5019.12 1089.894 L 5019.12 1089.894 L 5019.12 1089.894 L 5020.294 1088.057 L 5018.442 1086.988 Z  M 5010.5 1088.753 L 5012.055 1090.455 C 5012.232 1090.649 5012.209 1090.941 5012.002 1091.104 C 5012 1091.106 5011.66 1091.451 5011.658 1091.454 C 5011.497 1091.663 5011.186 1091.718 5010.964 1091.576 L 5010.964 1091.576 L 5010.964 1091.576 L 5008.424 1089.964 C 5008.466 1089.932 5008.512 1089.901 5008.563 1089.872 L 5010.5 1088.753 Z  M 5013.558 1086.988 L 5014.285 1089.305 C 5014.364 1089.557 5014.224 1089.818 5013.973 1089.888 C 5013.973 1089.888 5013.541 1090.069 5013.541 1090.069 C 5013.318 1090.194 5013.022 1090.116 5012.88 1089.894 L 5012.88 1089.894 L 5011.706 1088.057 L 5013.558 1086.988 Z  M 5017.138 1086.235 L 5016.754 1089.114 C 5016.719 1089.375 5016.502 1089.558 5016.269 1089.522 C 5016.269 1089.522 5015.801 1089.517 5015.782 1089.52 C 5015.521 1089.557 5015.281 1089.375 5015.246 1089.114 L 5014.862 1086.235 L 5014.942 1086.189 C 5015.526 1085.852 5016.474 1085.852 5017.058 1086.189 L 5017.138 1086.235 Z " fill-rule="evenodd" fill="rgb(188,8,43)"/></g><defs><filter id="of2ClsLoQif9MAllVcPrZgEMyiJAkuQm" x="-200%" y="-200%" width="400%" height="400%" filterUnits="objectBoundingBox" color-interpolation-filters="sRGB"><feGaussianBlur xmlns="http://www.w3.org/2000/svg" in="SourceGraphic" stdDeviation="1.073402265709757"/><feOffset xmlns="http://www.w3.org/2000/svg" dx="0" dy="0.6" result="pf_100_offsetBlur"/><feFlood xmlns="http://www.w3.org/2000/svg" flood-color="#000000" flood-opacity="0.5"/><feComposite xmlns="http://www.w3.org/2000/svg" in2="pf_100_offsetBlur" operator="in" result="pf_100_dropShadow"/><feBlend xmlns="http://www.w3.org/2000/svg" in="SourceGraphic" in2="pf_100_dropShadow" mode="normal"/></filter></defs></g></g></g><defs><filter id="7JqTNv0xcej7Jh8tRV8yHUhMHkO5aiUn" x="-200%" y="-200%" width="400%" height="400%" filterUnits="objectBoundingBox" color-interpolation-filters="sRGB"><feGaussianBlur xmlns="http://www.w3.org/2000/svg" in="SourceGraphic" stdDeviation="0.32202067971292714"/><feOffset xmlns="http://www.w3.org/2000/svg" dx="0" dy="0.3" result="pf_100_offsetBlur"/><feFlood xmlns="http://www.w3.org/2000/svg" flood-color="#000000" flood-opacity="0.3"/><feComposite xmlns="http://www.w3.org/2000/svg" in2="pf_100_offsetBlur" operator="in" result="pf_100_dropShadow"/><feBlend xmlns="http://www.w3.org/2000/svg" in="SourceGraphic" in2="pf_100_dropShadow" mode="normal"/></filter></defs><g filter="url(#L3tY1JSJ6xm2hQ7mnyIHWEyQakuh1HrQ)"><clipPath id="_clipPath_5Wv90AOaCrtPj9XF1te0f1jNED83PTrs"><path d=" M 5051.563 1091.313 L 5051.563 1084.688 C 5051.563 1082.891 5052.656 1081.562 5054.688 1081.563 L 5061.313 1081.562 C 5063.344 1081.563 5064.438 1082.891 5064.438 1084.688 L 5064.438 1091.313 C 5064.438 1093.109 5063.344 1094.437 5061.313 1094.438 L 5054.688 1094.438 C 5052.656 1094.438 5051.563 1093.109 5051.563 1091.313 Z " fill="rgb(255,255,255)"/></clipPath><g clip-path="url(#_clipPath_5Wv90AOaCrtPj9XF1te0f1jNED83PTrs)"><g><path d=" M 5051.563 1091.313 L 5051.563 1084.688 C 5051.563 1082.891 5052.656 1081.562 5054.688 1081.563 L 5061.313 1081.562 C 5063.344 1081.563 5064.438 1082.891 5064.438 1084.688 L 5064.438 1091.313 C 5064.438 1093.109 5063.344 1094.437 5061.313 1094.438 L 5054.688 1094.438 C 5052.656 1094.438 5051.563 1093.109 5051.563 1091.313 Z " fill="rgb(255,255,255)"/></g><g><g><linearGradient id="_lgradient_8" x1="0.5" y1="4.440892098500626e-16" x2="0.5000000000000001" y2="1.0000000000000004" gradientTransform="matrix(12.9,0,0,12.9,5051.6,1081.6)" gradientUnits="userSpaceOnUse"><stop offset="0%" stop-opacity="1" style="stop-color:rgb(188,8,43)"/><stop offset="100%" stop-opacity="1" style="stop-color:rgb(138,5,5)"/></linearGradient><rect x="5051.6" y="1081.6" width="12.9" height="12.9" transform="matrix(1,0,0,1,0,0)" fill="url(#_lgradient_8)"/></g><g filter="url(#H4bcAlZhIYhK20K6yzmv0XrUJqXlq5h1)"><path d=" M 5062.251 1091.37 L 5058.793 1093.366 C 5058.355 1093.619 5057.645 1093.619 5057.207 1093.366 L 5053.749 1091.37 C 5053.312 1091.117 5052.956 1090.502 5052.956 1089.996 L 5052.956 1086.004 C 5052.956 1085.498 5053.312 1084.883 5053.749 1084.63 L 5057.207 1082.634 C 5057.645 1082.381 5058.355 1082.381 5058.793 1082.634 L 5062.251 1084.63 C 5062.688 1084.883 5063.044 1085.498 5063.044 1086.004 L 5063.044 1089.996 C 5063.044 1090.502 5062.688 1091.117 5062.251 1091.37 Z " fill="rgb(0,0,0)"/><path d=" M 5054.016 1086.006 L 5057.206 1087.848 C 5057.498 1088.016 5057.735 1088.427 5057.735 1088.764 L 5057.735 1092.447 C 5057.735 1092.784 5057.498 1092.921 5057.206 1092.752 L 5056.88 1092.564 C 5056.765 1092.498 5056.673 1092.338 5056.673 1092.206 L 5056.673 1089.005 C 5056.673 1088.873 5056.58 1088.713 5056.466 1088.647 L 5056.349 1088.579 C 5056.234 1088.513 5056.142 1088.567 5056.142 1088.699 L 5056.142 1091.899 C 5056.142 1092.031 5056.049 1092.085 5055.935 1092.019 L 5055.287 1091.645 C 5055.173 1091.579 5055.08 1091.418 5055.08 1091.286 L 5055.08 1088.086 C 5055.08 1087.954 5054.987 1087.793 5054.873 1087.727 L 5054.756 1087.66 C 5054.642 1087.594 5054.549 1087.647 5054.549 1087.779 L 5054.549 1090.98 C 5054.549 1091.112 5054.456 1091.165 5054.342 1091.099 L 5054.016 1090.911 C 5053.724 1090.742 5053.487 1090.332 5053.487 1089.995 L 5053.487 1086.312 C 5053.487 1085.975 5053.724 1085.838 5054.016 1086.006 Z " fill="rgb(255,255,255)"/><path d=" M 5058.794 1087.848 L 5061.984 1086.006 C 5062.276 1085.838 5062.513 1085.975 5062.513 1086.312 L 5062.513 1089.995 C 5062.513 1090.332 5062.276 1090.742 5061.984 1090.911 L 5058.794 1092.752 C 5058.502 1092.921 5058.265 1092.784 5058.265 1092.447 L 5058.265 1088.764 C 5058.265 1088.427 5058.502 1088.016 5058.794 1087.848 Z " fill="rgb(255,255,255)"/><path d=" M 5059.327 1090.98 L 5059.327 1090.844 C 5059.327 1090.713 5059.42 1090.552 5059.534 1090.486 L 5061.244 1089.499 C 5061.358 1089.433 5061.451 1089.486 5061.451 1089.618 L 5061.451 1089.754 C 5061.451 1089.885 5061.358 1090.046 5061.244 1090.112 L 5059.534 1091.099 C 5059.42 1091.165 5059.327 1091.112 5059.327 1090.98 Z " fill="rgb(0,0,0)"/><path d=" M 5059.327 1089.14 L 5059.327 1089.005 C 5059.327 1088.873 5059.42 1088.713 5059.534 1088.647 L 5061.244 1087.66 C 5061.358 1087.594 5061.451 1087.647 5061.451 1087.779 L 5061.451 1087.914 C 5061.451 1088.046 5061.358 1088.207 5061.244 1088.273 L 5059.534 1089.26 C 5059.42 1089.326 5059.327 1089.272 5059.327 1089.14 Z " fill="rgb(0,0,0)"/><path d=" M 5054.281 1085.547 L 5057.471 1087.388 C 5057.763 1087.557 5058.237 1087.557 5058.529 1087.388 L 5061.719 1085.547 C 5062.01 1085.378 5062.01 1085.104 5061.719 1084.936 L 5058.529 1083.094 C 5058.237 1082.926 5057.763 1082.926 5057.471 1083.094 L 5054.281 1084.936 C 5053.99 1085.104 5053.99 1085.378 5054.281 1085.547 Z " fill="rgb(255,255,255)"/><path d=" M 5055.876 1086.467 C 5056.301 1085.735 5057.093 1085.241 5058 1085.241 C 5058.907 1085.241 5059.699 1085.735 5060.124 1086.467 L 5058.529 1087.388 C 5058.237 1087.557 5057.763 1087.557 5057.471 1087.388 L 5055.876 1086.467 Z  M 5060.75 1084.377 L 5059.973 1085.227 C 5059.884 1085.325 5059.895 1085.47 5059.999 1085.552 C 5060 1085.553 5060.17 1085.725 5060.171 1085.727 C 5060.251 1085.831 5060.407 1085.859 5060.518 1085.788 L 5060.518 1085.788 L 5060.518 1085.788 L 5060.518 1085.788 L 5060.518 1085.788 L 5061.788 1084.982 C 5061.767 1084.966 5061.744 1084.951 5061.719 1084.936 L 5060.75 1084.377 Z  M 5059.221 1083.494 L 5058.857 1084.653 C 5058.818 1084.778 5058.888 1084.909 5059.013 1084.944 C 5059.013 1084.944 5059.23 1085.034 5059.23 1085.034 C 5059.341 1085.097 5059.489 1085.058 5059.56 1084.947 L 5059.56 1084.947 L 5059.56 1084.947 L 5059.56 1084.947 L 5060.147 1084.028 L 5059.221 1083.494 Z  M 5055.25 1084.377 L 5056.027 1085.227 C 5056.116 1085.325 5056.105 1085.47 5056.001 1085.552 C 5056 1085.553 5055.83 1085.725 5055.829 1085.727 C 5055.749 1085.831 5055.593 1085.859 5055.482 1085.788 L 5055.482 1085.788 L 5055.482 1085.788 L 5054.212 1084.982 C 5054.233 1084.966 5054.256 1084.951 5054.281 1084.936 L 5055.25 1084.377 Z  M 5056.779 1083.494 L 5057.143 1084.653 C 5057.182 1084.778 5057.112 1084.909 5056.987 1084.944 C 5056.987 1084.944 5056.77 1085.034 5056.77 1085.034 C 5056.659 1085.097 5056.511 1085.058 5056.44 1084.947 L 5056.44 1084.947 L 5055.853 1084.028 L 5056.779 1083.494 Z  M 5058.569 1083.117 L 5058.377 1084.557 C 5058.36 1084.688 5058.251 1084.779 5058.134 1084.761 C 5058.134 1084.761 5057.901 1084.758 5057.891 1084.76 C 5057.76 1084.778 5057.64 1084.688 5057.623 1084.557 L 5057.431 1083.117 L 5057.471 1083.094 C 5057.763 1082.926 5058.237 1082.926 5058.529 1083.094 L 5058.569 1083.117 Z " fill-rule="evenodd" fill="rgb(188,8,43)"/></g><defs><filter id="H4bcAlZhIYhK20K6yzmv0XrUJqXlq5h1" x="-200%" y="-200%" width="400%" height="400%" filterUnits="objectBoundingBox" color-interpolation-filters="sRGB"><feGaussianBlur xmlns="http://www.w3.org/2000/svg" in="SourceGraphic" stdDeviation="1.073402265709757"/><feOffset xmlns="http://www.w3.org/2000/svg" dx="0" dy="0.6" result="pf_100_offsetBlur"/><feFlood xmlns="http://www.w3.org/2000/svg" flood-color="#000000" flood-opacity="0.5"/><feComposite xmlns="http://www.w3.org/2000/svg" in2="pf_100_offsetBlur" operator="in" result="pf_100_dropShadow"/><feBlend xmlns="http://www.w3.org/2000/svg" in="SourceGraphic" in2="pf_100_dropShadow" mode="normal"/></filter></defs></g></g></g><defs><filter id="L3tY1JSJ6xm2hQ7mnyIHWEyQakuh1HrQ" x="-200%" y="-200%" width="400%" height="400%" filterUnits="objectBoundingBox" color-interpolation-filters="sRGB"><feGaussianBlur xmlns="http://www.w3.org/2000/svg" in="SourceGraphic" stdDeviation="0.16101033985646357"/><feOffset xmlns="http://www.w3.org/2000/svg" dx="0" dy="0.15" result="pf_100_offsetBlur"/><feFlood xmlns="http://www.w3.org/2000/svg" flood-color="#000000" flood-opacity="0.3"/><feComposite xmlns="http://www.w3.org/2000/svg" in2="pf_100_offsetBlur" operator="in" result="pf_100_dropShadow"/><feBlend xmlns="http://www.w3.org/2000/svg" in="SourceGraphic" in2="pf_100_dropShadow" mode="normal"/></filter></defs></g><g style="isolation:isolate"/></g></svg>