<svg width="900" height="900" viewBox="0 0 900 900" fill="none" xmlns="http://www.w3.org/2000/svg">
<g clip-path="url(#clip0_18_11)">
<path d="M512.974 64.5616C509.285 61.9359 505.541 59.6259 501.594 57.4075L501.724 58.371C501.767 58.6893 501.81 59.0099 501.854 59.3353L501.855 59.3417C509.145 113.302 509.145 113.303 511.482 131.398C511.653 132.72 511.824 134.041 511.997 135.363C512.939 142.605 513.754 149.838 514.279 157.124C511.928 156.014 509.882 154.776 507.801 153.222L506.006 151.895L504.078 150.469C473.056 127.875 438.341 112.046 402.065 99.9242L400.407 99.3697C396.371 98.0261 392.324 96.7198 388.27 95.4349C387.197 95.0949 387.197 95.0951 386.103 94.7483C373.541 90.7898 360.894 87.3571 348.099 84.238L345.239 83.5357C327.131 79.1053 308.913 75.3543 290.611 71.8221C263.734 66.6306 263.733 66.6306 256.34 64.168L257.485 66.2748C265.66 81.3446 273.458 96.4783 280.479 112.125C281.646 114.726 282.827 117.319 284.01 119.912C291.015 135.404 297.16 151.247 303.305 167.093L303.699 168.109L304.332 169.739C310.465 185.561 310.465 185.562 310.465 186.7V186.701C304.329 186.049 298.292 184.898 292.23 183.769C273.274 180.25 254.394 177.577 235.197 175.715C233.874 175.586 233.874 175.586 232.525 175.454C205.691 172.898 178.817 173.085 151.898 173.464C148.953 173.505 146.007 173.539 143.062 173.573L142.401 173.581C122.303 173.816 102.215 174.24 82.125 174.87C83.3474 176.365 84.57 177.86 85.7927 179.354L87.8558 181.876C89.8001 184.243 91.771 186.584 93.7534 188.919C97.69 193.622 101.405 198.475 105.11 203.361C108.482 207.791 111.978 212.075 115.573 216.327C118.217 219.499 120.755 222.746 123.295 226.001C126.314 229.86 129.395 233.664 132.497 237.456C135.77 241.459 138.986 245.49 142.117 249.604C146.748 255.67 151.616 261.534 156.49 267.405L156.893 267.891C158.675 270.043 160.439 272.208 162.203 274.375C164.214 276.841 166.248 279.285 168.321 281.7L169.603 283.197C170.427 284.157 171.254 285.114 172.084 286.068C174.037 288.342 175.57 290.472 176.844 293.177L173.857 294.61C150.323 306.048 128.08 320.057 106.677 335.072C104.77 336.408 102.856 337.733 100.942 339.057C91.7517 345.433 82.7047 351.982 73.7217 358.645C70.2844 361.188 66.8214 363.694 63.3583 366.201L62.6738 366.697C69.5724 369.606 76.6266 372.004 83.7148 374.399C87.122 375.551 90.5263 376.712 93.9305 377.873L94.4075 378.036C95.1403 378.285 95.8733 378.535 96.6283 378.792C115.899 385.368 135.141 391.986 154.01 399.654C154.01 403.312 151.968 405.586 149.993 408.527C149.13 409.837 148.268 411.147 147.406 412.458C146.958 413.137 146.511 413.816 146.049 414.515C137.814 427.039 130.179 439.895 122.719 452.892L121.469 455.068C120.384 456.964 119.303 458.861 118.226 460.761L117.285 462.414C116.069 464.579 115.05 466.585 114.262 468.948C114.831 469.008 115.401 469.067 115.988 469.129C121.929 469.753 127.87 470.386 133.81 471.022C136.025 471.258 138.241 471.492 140.456 471.725C143.645 472.06 146.834 472.401 150.022 472.744L153.013 473.054C157.75 473.57 162.171 474.195 166.695 475.708L167.442 478.966C169.524 487.935 171.798 496.81 174.408 505.641C174.616 506.346 174.823 507.051 175.037 507.777L175.599 509.661L175.6 509.664C175.998 511.201 175.998 511.202 175.998 512.891L174.26 513.732C168.047 516.905 163.168 520.649 158.238 525.566L156.633 527.141C140.546 544.125 137.248 568.393 137.83 590.766C138.595 607.274 144.289 623.653 152.318 637.958L153.214 639.592C156.943 646.352 161.076 652.38 166.237 658.136C168.048 660.158 169.207 661.545 170.078 664.155L171.575 664.901C174.084 666.157 175.523 667.905 177.425 669.965C186.847 679.704 198.406 686.499 210.672 692.042L212.862 693.085C219.652 696.1 227.095 697.37 234.352 698.802L236.902 699.314C240.153 699.743 243.338 699.77 246.614 699.753L248.494 699.763C252.047 699.756 255.377 699.499 258.877 698.802L260.089 701.869C268.571 722.912 280.836 737.101 296.92 752.899C308.803 764.571 398.841 838.658 463.114 838.658C527.388 838.658 616.186 763.449 630.147 747.508L630.449 747.164C643.626 732.118 655.536 718.521 662.277 699.647L664.068 699.688C696.921 700.326 722.686 691.206 746.848 668.38L748.767 666.598C769.95 646.284 782.424 617.299 784.267 588.193C784.688 564.944 779.007 542.23 762.705 524.985C757.144 519.628 750.682 515.615 743.465 512.891C745.171 505.322 747.513 498.173 750.23 490.919C754.262 493.545 758.188 496.244 762.017 499.159C768.388 503.851 775.402 507.475 782.367 511.201C780.395 485.446 775.577 458.729 766.467 434.525C765.711 432.469 765.066 430.521 764.607 428.385L766.794 429.006C791.171 435.535 816.462 437.437 841.566 435.146L839.829 433.934C834.125 429.885 828.878 425.594 823.807 420.78L822.531 419.589C810.267 408.082 801.342 394.957 793.361 380.217L792.478 378.598C788.546 371.299 785.283 363.717 782.02 356.101C774.292 338.074 766.231 320.814 754.459 305.008L753.86 304.199C753.64 303.902 753.418 303.602 753.193 303.298C745.4 292.864 736.911 284.78 726.287 277.297C724.689 276.155 723.12 274.976 721.549 273.796L721.477 273.741C730.872 272.792 740.206 272.786 749.639 272.813C750.699 272.814 751.759 272.815 752.819 272.816L754.541 272.817C758.805 272.82 763.069 272.829 767.333 272.838C771.183 272.846 775.033 272.849 778.883 272.853L780.43 272.855C788.969 272.864 797.508 272.878 806.047 272.896C804.191 271.698 802.334 270.502 800.476 269.306C799.958 268.972 799.441 268.637 798.907 268.293C766.084 247.17 731.158 228.667 691.606 225.77C688.491 225.499 685.386 225.145 682.28 224.791L681.729 224.728L681.749 223.317L681.769 221.934C682.255 196.588 682.254 196.587 679.192 171.493L679.191 171.49L678.599 168.515C673.691 144.488 667.675 119.862 656.357 97.97L655.935 99.5471C649.153 124.688 640.347 148.912 630.986 173.18L630.223 175.16C627.109 183.238 623.981 191.31 620.838 199.376H619.146L618.413 197.82C598.201 155.012 572.021 111.86 534.282 82.0494C532.003 80.1948 529.89 78.2304 527.758 76.21C523.695 72.4724 519.389 69.1945 514.914 65.9637L512.974 64.5616Z" fill="black"/>
<path fill-rule="evenodd" clip-rule="evenodd" d="M565.867 350.641C576.496 360.742 583.166 375.262 590.481 387.855C592.539 391.394 594.647 394.897 596.788 398.386C600.155 403.969 603.342 409.654 606.508 415.353C607.097 416.412 607.687 417.471 608.279 418.528C611.525 424.342 614.612 430.203 617.448 436.229C617.704 436.771 617.962 437.315 618.226 437.874C619.992 441.694 619.992 441.694 619.992 443.597C618.788 444.093 618.787 444.092 617.559 444.599C557.203 466.978 557.203 466.979 508.359 506.976C507.926 507.529 507.493 508.082 507.047 508.652C502.076 515.892 500.373 524.78 498.211 533.172C514.105 525.062 514.106 525.062 529.693 516.388C546.181 506.949 563.479 498.806 580.473 490.327C584.081 488.527 587.689 486.723 591.296 484.919C594.128 483.502 596.96 482.087 599.794 480.673C601.122 480.009 602.451 479.344 603.78 478.68C610.695 475.221 617.631 471.807 624.616 468.49C625.23 468.196 625.845 467.902 626.478 467.599C630.787 465.568 630.787 465.567 632.677 465.567C632.924 466.111 633.17 466.655 633.423 467.215C638.057 477.422 642.735 487.584 647.831 497.569C649.705 501.259 651.548 504.963 653.397 508.665C654.128 510.126 654.859 511.588 655.59 513.049C656.128 514.123 656.665 515.197 657.203 516.271H658.894C659.949 511.266 661.002 506.262 662.053 501.257C662.41 499.558 662.768 497.859 663.126 496.16C663.643 493.704 664.16 491.247 664.675 488.79C664.912 487.67 664.912 487.67 665.153 486.527C666.259 481.247 667.254 475.95 668.197 470.638H669.043C671.226 481.466 673.082 492.305 674.628 503.243C675.223 507.422 675.856 511.554 676.753 515.68C678.233 522.96 677.129 529.292 675.755 536.499C675.367 538.598 674.98 540.698 674.595 542.798C674.491 543.362 674.388 543.926 674.281 544.507C672.848 552.317 671.534 560.149 670.206 567.978C647.29 702.947 647.29 702.948 619.146 731.759C618.31 732.628 617.474 733.498 616.638 734.367C612.351 738.755 607.921 742.794 603.118 746.61C601.237 748.106 599.383 749.618 597.541 751.159C562.468 780.364 503.788 822.422 455.873 820.437C415.816 816.039 375.248 789.676 343.447 766.406C342.837 765.963 342.227 765.52 341.599 765.063C333.755 759.349 326.245 753.334 318.921 746.97C318.319 746.452 317.715 745.935 317.094 745.402C315.434 743.968 313.793 742.515 312.156 741.055C311.365 740.352 310.573 739.65 309.757 738.926C304.905 734.578 300.323 730.131 296.045 725.203C295.074 724.088 294.081 722.991 293.039 721.942C261.849 689.69 257.903 612.585 251.875 570.729C250.948 564.375 249.926 558.042 248.86 551.71C248.583 550.057 248.307 548.403 248.031 546.75C247.617 544.276 247.198 541.802 246.772 539.33C246.372 537.009 245.982 534.686 245.593 532.363C245.47 531.667 245.347 530.97 245.22 530.253C244.283 524.561 244.507 520.474 247.72 515.505C248.209 514.743 248.697 513.98 249.2 513.195C249.724 512.398 250.249 511.6 250.79 510.778C251.325 509.951 251.86 509.124 252.412 508.271C256.054 502.681 259.833 497.209 263.772 491.824C265.532 489.383 267.18 486.897 268.813 484.37C273.519 477.22 278.937 470.583 284.248 463.878C303.845 473.669 323.443 483.461 343.041 493.252C343.568 493.515 344.095 493.779 344.638 494.05C346.141 494.801 347.642 495.555 349.143 496.309C350.923 497.193 352.712 498.06 354.509 498.907C355.279 499.273 356.049 499.638 356.841 500.015C357.506 500.322 358.172 500.63 358.857 500.947C360.361 501.905 360.361 501.905 361.207 504.44C360.753 504.297 360.3 504.152 359.833 504.004C357.479 503.277 355.116 502.588 352.75 501.905C351.708 501.601 350.665 501.297 349.591 500.984C333.935 496.613 319.471 498.138 305.142 505.926C300.704 508.501 297.086 511.729 293.55 515.426C293.016 515.943 292.482 516.461 291.931 516.994C282.337 526.898 278.933 540.258 278.966 553.657C279.246 570.766 286.162 587.547 298.254 599.772C298.935 600.382 299.615 600.993 300.316 601.621C299.979 600.863 299.643 600.104 299.296 599.323C292.096 582.626 288.83 561.908 295.629 544.508C300.726 533.238 308.919 523.435 320.749 518.96C326.099 517.175 330.962 516.751 336.576 516.852C337.356 516.849 338.137 516.847 338.941 516.844C342.655 516.873 345.241 516.926 348.521 518.806C347.786 519.343 347.785 519.344 347.035 519.892C335.901 528.245 329.855 538.889 327.379 552.608C327.032 556.297 326.974 559.944 327.008 563.646C327.019 565.138 327.019 565.139 327.03 566.66C327.349 583.31 331.252 601.18 343.368 613.386C349.234 618.842 354.673 620.722 362.721 620.678C370.051 620.408 376.183 617.452 381.345 612.237C392.664 597.719 394.466 577.981 393.343 560.214C392.729 555.567 391.441 551.129 389.961 546.692H391.652C392.844 547.904 392.845 547.904 394.242 549.598C397.674 553.642 401.395 557.35 405.183 561.059C406.128 550.908 400.921 539.551 394.742 531.73C388.129 523.935 380.658 516.954 372.201 511.2C372.48 510.364 372.759 509.527 373.046 508.665C375.781 509.729 378.426 510.877 381.05 512.187C381.77 512.545 382.49 512.904 383.232 513.273C384.384 513.85 384.385 513.85 385.56 514.438C386.362 514.839 387.164 515.239 387.99 515.651C389.685 516.498 391.38 517.346 393.074 518.194C395.646 519.482 398.222 520.765 400.796 522.049C402.448 522.874 404.1 523.7 405.752 524.526C406.513 524.906 407.274 525.286 408.058 525.677C412.807 528.058 417.475 530.555 422.097 533.172C420.218 516.245 414.822 505.405 401.8 494.3C400.944 493.466 400.092 492.626 399.263 491.765C408.759 483.808 408.76 483.807 413.482 480.092C419.332 475.436 424.951 470.514 430.554 465.567C431.384 464.836 432.213 464.104 433.068 463.35C439.189 457.818 445.058 452.028 450.913 446.218C451.844 445.294 452.776 444.372 453.71 443.451C459.648 437.586 465.101 431.546 470.302 425.005C471.103 424.055 471.91 423.109 472.724 422.17C477.853 416.244 482.618 410.115 487.283 403.819C489.562 400.743 491.896 397.712 494.247 394.689C497.686 390.242 500.963 385.706 504.13 381.062C505.489 383.778 504.202 386.363 503.447 389.17C503.277 389.82 503.107 390.47 502.931 391.14C502.369 393.275 501.797 395.408 501.223 397.541C501.027 398.275 500.831 399.009 500.629 399.765C492.611 429.772 482.571 459.186 471.994 488.384C472.508 487.861 473.022 487.338 473.552 486.8C476.576 483.734 479.603 480.721 482.882 477.927C490.102 471.721 497.425 464.732 502.915 456.929C503.516 456.185 503.517 456.185 504.13 455.427H505.822C506.003 454.988 506.183 454.549 506.37 454.097C507.982 451.205 510.142 448.809 512.27 446.29C522.854 433.488 532.163 419.711 540.167 405.164C541.438 402.858 542.733 400.564 544.027 398.271C552.566 382.985 559.931 367.122 565.867 350.641ZM622.013 507.768C603.608 494.356 578.915 493.895 559.087 504.658C558.23 505.159 557.397 505.644 556.564 506.13C552.474 508.477 548.5 510.904 544.724 513.735C528.641 526.828 517.649 541.875 515.125 562.749C516.816 561.904 516.817 561.904 518.039 560.58C521.653 556.289 525.487 552.3 529.502 548.383C528.912 550.695 528.371 553.016 527.874 555.35C524.311 574.021 527.838 593.565 538.223 609.438C543.492 616.661 550.36 620.614 559.18 622.226C565.919 622.64 572.433 619.715 577.495 615.459C590.532 602.803 595.484 584.47 595.817 566.759C595.824 565.737 595.83 564.744 595.837 563.752C595.871 560.014 595.81 556.332 595.466 552.608C593.05 538.914 587.979 528.185 576.627 519.833C576.131 519.484 575.65 519.144 575.17 518.806C575.744 518.518 576.303 518.24 576.861 517.961C585.257 517.244 594.965 516.666 602.754 520.219C603.771 520.785 603.772 520.785 604.769 521.341C616.066 527.52 622.84 536.271 627.128 548.488C631.57 565.372 628.966 585.741 620.797 601.033C620.523 601.52 620.258 601.993 619.992 602.466C620.567 602.753 621.125 603.033 621.683 603.312C623.113 601.923 624.518 600.51 625.912 599.086C640.083 582.485 645.326 564.114 643.671 542.468C641.559 530.215 635.922 519.131 626.321 511.147C625.607 510.591 624.913 510.051 624.22 509.511C623.106 508.631 623.106 508.63 622.013 507.768Z" fill="#FFCEA3"/>
<path d="M172.246 538.084C178.963 531.58 189.378 526.848 198.389 530.683C208.534 535.975 225.438 545.574 229.277 556.833C230.166 560.617 230.888 564.435 231.62 568.252C231.974 570.095 232.339 571.935 232.705 573.775C232.932 574.944 233.158 576.114 233.383 577.283C233.59 578.345 233.796 579.406 234.008 580.5C234.351 583.029 234.351 583.03 233.505 584.72C233.212 584.329 232.92 583.938 232.618 583.535C226.988 576.049 221.378 568.683 214.9 561.903C214.151 561.09 214.151 561.09 213.387 560.26C212.462 559.285 211.5 558.332 210.501 557.415C210.101 557.048 209.696 556.687 209.285 556.333C204.143 551.902 198.09 548.509 191.22 547.907C190.511 547.945 189.842 548.034 189.206 548.169C186.02 548.846 183.674 550.696 181.309 553.202C181.231 553.286 181.15 553.368 181.072 553.453C177.223 559.088 174.172 564.018 174.254 570.936C174.261 571.775 174.269 572.615 174.277 573.48C174.287 574.122 174.296 574.764 174.306 575.425C174.492 574.986 174.678 574.546 174.869 574.094C176.857 569.724 178.656 567.014 182.763 564.438C187.457 563.553 190.525 565.03 194.471 567.387C197.121 569.243 199.196 571.341 201.369 573.734C200.057 576.649 198.303 578.978 196.348 581.498C190.653 589.327 189.35 596.168 190.375 605.847C192.474 617.259 198.233 627.408 205.597 636.269C205.414 635.711 205.231 635.153 205.043 634.578C203.193 628.006 202.781 621.788 202.744 614.983C202.732 614.131 202.72 613.279 202.709 612.4C202.749 605.461 203.56 598.336 208.134 592.801C208.553 592.279 208.972 591.757 209.403 591.22C210.625 589.843 211.889 588.538 213.209 587.255C216.021 588.192 216.376 588.651 218.012 590.976C218.444 591.582 218.876 592.188 219.321 592.812C219.781 593.471 220.241 594.129 220.714 594.808C221.695 596.19 222.676 597.572 223.658 598.954C224.163 599.67 224.669 600.386 225.189 601.123C227.705 604.672 230.264 608.189 232.819 611.709C233.73 612.966 234.64 614.224 235.55 615.482C236.123 616.273 236.124 616.273 236.708 617.079C239.006 620.308 239.835 622.553 240.536 626.444C242.97 639.257 246.133 651.803 250.072 664.237C251.564 668.968 252.795 673.663 253.802 678.521C240.45 682.739 223.525 677.719 211.517 671.761C210.691 671.33 209.879 670.888 209.076 670.439C208.147 669.954 207.233 669.461 206.337 668.961C201.949 666.317 197.981 663.342 194.084 660.073C193.692 659.747 193.301 659.418 192.912 659.085C192.226 658.523 191.541 657.961 190.835 657.382C186.068 653.331 181.615 648.555 177.61 643.285C177.139 642.665 176.674 642.038 176.215 641.405C165.896 627.158 158.81 609.646 157.392 593.171C156.783 580.988 157.253 568.959 160.869 557.909C161.054 557.343 161.248 556.779 161.45 556.218C163.776 549.761 167.233 543.661 172.246 538.084Z" fill="#FFCEA3"/>
<path d="M699.961 547.393C712.113 536.059 725.495 525.241 741.878 532.855C752.466 538.471 757.954 547.586 761.543 558.745C768.792 582.739 763.394 609.355 751.921 631.198C738.837 654.092 719.339 670.85 693.73 677.878C688.479 679.13 683.563 679.52 678.187 679.524C677.505 679.535 676.823 679.545 676.121 679.556C675.465 679.557 674.809 679.559 674.133 679.561C673.541 679.564 672.948 679.568 672.338 679.571C670.734 679.366 670.734 679.366 668.197 677.676C669.91 670.82 671.63 663.966 673.358 657.114C674.16 653.933 674.96 650.75 675.755 647.566C676.523 644.491 677.297 641.417 678.075 638.345C678.37 637.175 678.663 636.004 678.954 634.833C679.363 633.188 679.78 631.544 680.198 629.9C680.432 628.966 680.668 628.031 680.91 627.068C682.276 622.677 684.438 618.942 687.02 615.162C687.546 614.391 688.072 613.62 688.613 612.825C689.166 612.021 689.72 611.217 690.291 610.389C690.858 609.562 691.426 608.734 692.011 607.882C702.827 592.194 702.828 592.193 708.791 586.41C715.861 593.872 720.13 601.342 720.049 611.868C720.044 612.813 720.044 612.814 720.039 613.778C719.872 622.011 717.873 629.087 713.865 636.269C723.568 630.039 730.648 619.801 733.95 608.805C734.994 598.367 732.871 589.018 726.55 580.495C725.939 579.894 725.327 579.292 724.697 578.673C723.168 577.115 723.168 577.115 723.168 575.425H721.476C722.915 570.851 725.632 568.393 729.298 565.442C732.682 563.982 735.617 563.672 739.236 564.439C743.087 566.66 745.709 569.77 747.693 573.734C747.57 566.475 744.836 560.336 740.496 554.659C739.935 553.976 739.34 553.309 738.708 552.66C737.868 551.922 737.015 551.282 736.117 550.75C733.927 549.526 731.7 548.96 729.072 549.146C728.51 549.24 727.953 549.35 727.4 549.476C720.691 551.522 714.507 555.208 709 559.845C704.339 564.025 700.224 568.869 696.686 573.418C694.243 576.602 692.14 579.8 690.174 583.233L689.339 584.721H687.648C688.315 581.076 688.986 577.431 689.657 573.787C689.938 572.251 689.938 572.25 690.225 570.683C690.596 568.67 690.974 566.659 691.36 564.649C691.672 562.99 691.965 561.326 692.22 559.657C693.057 554.758 694.853 552.148 698.484 548.806C698.971 548.34 699.459 547.873 699.961 547.393Z" fill="#FFCEA3"/>
<path d="M573.479 518.806C580.859 514.577 593.766 516.018 601.545 518.806C613.785 524.53 621.829 533.303 626.781 545.86C632.832 564.412 629.642 584.202 621.684 601.621C621.43 602.346 621.176 603.07 620.914 603.817C616.791 612.898 602.345 617.575 593.776 621.058C577.011 627.239 556.221 629.241 539.651 621.902C532.191 618.444 527.284 614.384 522.736 607.536C522.32 606.918 521.904 606.299 521.475 605.661C515.608 596.087 514.971 584.579 514.86 573.629C514.836 572.815 514.812 572.002 514.786 571.163C514.742 566.164 515.128 563.293 518.508 559.368C519.103 558.676 519.103 558.676 519.71 557.97C521.008 556.489 522.34 555.048 523.688 553.611C524.142 553.117 524.597 552.623 525.066 552.114C528.432 548.495 528.432 548.495 530.348 547.538C530.165 548.318 529.982 549.098 529.793 549.901C526.787 563.585 526.716 577.06 530.348 590.636C530.583 591.529 530.819 592.422 531.062 593.342C534.136 603.669 539.919 612.902 549.359 618.275C555.848 621.602 561.861 621.957 568.722 619.843C578.005 616.156 583.802 608.823 587.856 599.931C595.374 581.082 598.637 558.496 591.238 539.087C587.373 530.182 582.063 523.44 573.479 518.806Z" fill="#FFF8E8"/>
<path d="M336.576 516.852C337.747 516.848 337.747 516.848 338.942 516.844C342.656 516.873 345.241 516.926 348.522 518.806C348.031 519.164 347.541 519.523 347.035 519.892C335.901 528.245 329.856 538.888 327.379 552.608C327.033 556.296 326.975 559.944 327.009 563.647C327.016 564.641 327.023 565.635 327.03 566.659C327.349 583.309 331.252 601.18 343.368 613.386C349.235 618.842 354.674 620.723 362.722 620.678C370.052 620.408 376.183 617.452 381.345 612.237C392.664 597.719 394.466 577.981 393.344 560.213C392.729 555.567 391.441 551.129 389.961 546.693H391.652C392.875 547.934 392.875 547.934 394.295 549.651C397.022 552.874 399.925 555.816 402.984 558.725C404.338 560.213 404.338 560.213 405.184 562.748C405.742 563.027 406.3 563.307 406.875 563.594C407.338 580.92 406.947 598.77 395.035 612.607C386.054 621.913 373.98 625.021 361.439 625.454C352.536 625.595 344.49 625.005 335.836 622.747C334.959 622.541 334.081 622.335 333.177 622.123C327.267 620.556 321.955 618.089 316.543 615.3C315.876 614.96 315.209 614.621 314.523 614.271C309.446 611.561 303.65 608.201 300.95 602.942C300.741 602.227 300.532 601.512 300.317 600.776C299.532 599.39 299.531 599.39 298.731 597.977C291.54 583.903 289.676 562.667 294.449 547.696C298.518 536.093 306.014 527.068 316.514 520.74C323.179 517.725 329.293 516.721 336.576 516.852Z" fill="#FFF8E8"/>
<path d="M386.106 697.297C388.32 697.972 389.65 698.745 391.494 700.122C400.228 706.098 409.621 710.062 419.613 713.432C420.422 713.707 421.23 713.982 422.063 714.265C434.555 718.327 446.274 719.572 459.309 719.506C460.072 719.505 460.835 719.503 461.621 719.502C473.714 719.455 484.915 718.464 496.52 714.858C497.876 714.467 499.233 714.077 500.589 713.686C510.866 710.597 520.824 706.282 529.608 700.07C531.915 698.455 532.868 697.96 535.739 697.482C537.959 697.957 537.959 697.957 539.545 698.855C541.072 701.483 540.85 703.427 540.496 706.408C538.17 710.747 535.347 712.961 531.088 715.228C530.495 715.55 529.902 715.872 529.292 716.204C492.374 735.732 448.847 735.806 409.486 724.142C399.445 720.936 387.655 716.341 380.658 708.098C379.824 705.833 379.579 703.739 379.812 701.337C382.822 697.003 382.822 697.003 386.106 697.297Z" fill="black"/>
<path d="M487.217 652.324C483.677 664.402 473.42 672.519 463.233 679.102C460.698 680.361 458.753 680.896 455.926 681.056C445.665 677.348 436.088 666.972 431.4 657.395C430.91 654.847 431.001 653.226 431.4 650.634C447.074 643.602 471.987 643.998 487.217 652.324Z" fill="black"/>
<path d="M435.629 310.923C436.551 313.687 436.434 314.244 435.626 316.911C435.42 317.615 435.214 318.319 435.002 319.045C434.773 319.816 434.544 320.587 434.308 321.381C429.876 336.966 426.62 352.833 424.616 368.91C423.849 375.029 422.696 380.982 421.252 386.978C430.899 380.571 440.398 374.049 449.511 366.898C451.348 365.465 453.201 364.054 455.055 362.642C463.342 356.316 471.311 349.747 478.951 342.659C480.849 340.912 482.77 339.215 484.732 337.542C489.176 333.703 493.248 329.471 497.365 325.289C497.923 325.568 498.482 325.846 499.057 326.134C498.793 326.564 498.528 326.994 498.256 327.437C497.042 329.414 495.829 331.392 494.616 333.37C494.201 334.046 493.786 334.722 493.358 335.418C491.508 338.438 489.672 341.46 487.934 344.547C486.575 346.906 485.15 349.114 483.569 351.327C483.053 352.054 482.536 352.781 482.004 353.529C481.492 354.249 480.979 354.969 480.451 355.711C479.553 357.014 478.654 358.316 477.756 359.619C467.842 373.739 457.118 387.297 445.543 400.093C444.534 401.209 444.534 401.209 443.505 402.348C442.584 403.359 442.584 403.359 441.645 404.391C440.459 405.733 439.31 407.109 438.202 408.517C435.768 411.507 433.016 414.118 430.251 416.799C426.685 420.28 423.336 423.785 420.248 427.699C416.502 432.396 412.321 436.554 408.043 440.767C404.871 443.894 401.807 447.05 398.927 450.452C397.247 452.429 395.508 454.349 393.767 456.272C390.846 459.5 387.979 462.767 385.151 466.076C384.602 466.661 384.602 466.661 384.041 467.258H383.195C383.011 459.587 383.572 452.116 384.411 444.494C384.525 443.407 384.638 442.319 384.756 441.198C385.609 433.21 385.609 433.21 386.196 430.35C386.639 428.067 386.558 425.888 386.532 423.571C387.114 399.103 394.859 370.323 405.521 348.416C406.512 346.333 407.416 344.276 408.282 342.144C412.32 332.482 417.912 325.701 425.48 318.528C426.261 317.782 427.042 317.036 427.846 316.268C432.541 311.952 432.541 311.951 435.629 310.923Z" fill="#969D95"/>
<path d="M290.396 274.227C294.107 271.955 294.107 271.954 296.934 272.896C293.912 277.275 290.834 281.605 287.657 285.872C280.542 295.453 274.298 305.368 268.391 315.729C267.702 316.933 267.702 316.934 266.999 318.162C264.364 322.837 261.999 327.55 259.864 332.475C258.829 334.688 257.599 336.718 256.34 338.81C255.751 340.661 255.751 340.662 255.494 342.19H258.031L258.877 339.655C260.336 338.671 260.337 338.671 262.224 337.718C266.559 335.428 270.598 332.803 274.681 330.096C281.404 325.687 288.177 321.53 295.242 317.684C295.751 317.406 296.259 317.129 296.783 316.844C303.37 313.263 310.024 309.831 316.745 306.507C318.81 305.483 320.869 304.45 322.923 303.403C331.196 299.198 339.601 295.342 348.087 291.585C350.185 290.654 352.281 289.717 354.375 288.777C360.263 286.14 366.142 283.508 372.165 281.188C373.868 280.511 375.511 279.748 377.17 278.97C379.936 277.92 380.53 277.964 383.195 278.812C379.074 283.016 374.903 287.076 370.431 290.906C368.286 292.803 366.3 294.837 364.296 296.881C362.898 298.247 362.899 298.248 360.309 300.36C358.393 301.99 356.968 303.416 355.393 305.325C353.602 307.493 351.736 309.328 349.585 311.138C346.116 314.134 342.965 317.334 339.853 320.694C339.308 321.279 338.763 321.864 338.202 322.466C331.667 329.523 325.428 336.811 319.397 344.303C315.508 349.095 311.305 353.566 307.085 358.064C303.417 361.976 299.893 365.981 296.511 370.143C296.135 370.602 295.76 371.062 295.373 371.535C294.29 372.864 293.215 374.201 292.141 375.537C290.367 377.467 289.198 378.452 286.785 379.372C286.714 375.263 286.915 371.595 287.631 367.542C287.764 366.152 287.886 364.761 288.001 363.369C288.512 357.407 289.344 351.496 290.168 345.57C289.052 345.849 287.935 346.128 286.785 346.415V348.105C285.365 349.38 285.364 349.379 283.508 350.746C282.9 351.201 282.292 351.657 281.665 352.126C280.02 353.176 280.02 353.176 278.328 353.176V354.866C276.908 356.14 276.907 356.14 275.051 357.507C274.443 357.962 273.835 358.418 273.208 358.887C271.563 359.936 271.562 359.937 269.871 359.937V361.626C268.414 362.847 268.414 362.848 266.436 364.268C263.127 366.757 260.534 369.37 257.9 372.546C256.418 374.214 254.898 375.623 253.195 377.062C249.605 380.158 246.212 383.414 242.861 386.767C241.977 387.651 241.977 387.651 241.074 388.553C237.129 392.539 233.485 396.621 230.014 401.027C228.553 402.88 227.04 404.652 225.472 406.414C220.454 412.091 215.707 417.976 211.175 424.045C208.875 427.124 206.551 430.185 204.224 433.244C203.751 433.87 203.277 434.497 202.79 435.143C202.328 435.749 201.865 436.356 201.389 436.981C200.978 437.522 200.567 438.064 200.145 438.621C198.683 440.398 197.099 441.994 195.449 443.597C195.234 436.324 195.838 429.437 196.982 422.259C197.213 420.766 197.212 420.765 197.447 419.242C200.359 400.61 200.359 400.61 202.248 394.082C202.948 391.602 203.374 389.314 203.694 386.767C205.403 376.133 209.103 365.811 213.886 356.189C214.761 354.317 215.34 352.658 215.746 350.641H217.438C217.529 350.034 217.62 349.427 217.715 348.802C221.093 334.613 235.425 320.371 244.937 309.805C246.243 308.33 247.503 306.821 248.765 305.309C250.912 302.796 253.206 300.716 255.812 298.67C258.584 296.467 261.287 294.248 263.898 291.856C271.261 285.367 280.102 280.492 288.477 275.431C289.11 275.033 289.743 274.636 290.396 274.227Z" fill="#969D95"/>
<path d="M632.678 301.628C636.897 302.095 639.968 304.056 643.514 306.223C644.1 306.567 644.685 306.912 645.289 307.268C646.756 308.153 648.179 309.11 649.592 310.078V311.769C650.201 311.979 650.811 312.189 651.438 312.405C664.354 318.115 677.794 333.608 685.957 344.726C686.549 345.495 687.141 346.263 687.751 347.056C698.644 361.808 707.949 383.084 709.637 401.344C705.523 398.419 701.781 395.301 698.114 391.837C690.346 384.573 681.6 378.826 672.509 373.352C669.986 371.826 667.504 370.248 665.026 368.65C661.098 366.137 657.086 363.827 652.975 361.626C653.341 367.211 654.299 372.496 655.512 377.946C656.932 384.36 657.812 390.539 658.049 397.118C654.862 394.092 652.22 390.898 649.697 387.295C649.331 386.777 648.965 386.26 648.587 385.727C645.906 381.913 643.369 378.023 640.937 374.045C639.299 371.547 637.528 369.184 635.724 366.805C633.496 363.847 631.349 360.831 629.189 357.823C625.096 352.136 620.931 346.51 616.704 340.921C614.386 337.848 612.132 334.746 609.949 331.574C607.936 328.654 605.78 325.974 603.435 323.315C598.004 316.965 598.004 316.964 598.004 314.304C599.678 314.861 601.353 315.419 603.078 315.993V317.684C603.657 317.905 604.236 318.126 604.832 318.354C607.639 319.511 610.354 320.816 613.068 322.173C613.927 322.602 613.927 322.602 614.804 323.039C621.186 326.259 627.45 329.694 633.726 333.115C640.074 336.569 646.469 339.888 652.975 343.035C650.203 331.296 644.141 320.553 637.818 310.389C636.035 307.502 634.347 304.581 632.678 301.628Z" fill="#969D95"/>
<path d="M680.037 294.867C684.504 295.379 688.524 296.379 692.775 297.825C693.426 298.045 694.076 298.265 694.746 298.492C717.192 306.253 736.453 315.327 751.922 333.739C749.385 334.584 749.385 334.584 747.488 333.861C746.754 333.49 746.019 333.119 745.262 332.736C741.748 331.055 738.326 329.753 734.585 328.669C730.136 327.372 726.096 325.677 721.919 323.688C718.997 322.41 716.137 321.71 713.02 321.063C713.227 322.683 713.228 322.683 713.439 324.335C713.917 328.627 713.961 332.859 713.918 337.173C713.914 337.904 713.91 338.636 713.906 339.39C713.896 341.168 713.882 342.947 713.865 344.726C710.502 341.831 708.908 338.569 707.047 334.638C706.475 333.45 705.901 332.263 705.325 331.076C705.055 330.517 704.784 329.956 704.506 329.38C703.814 328.017 703.034 326.699 702.24 325.392C701.18 323.599 701.18 323.599 701.18 321.909H699.488C698.233 320.137 697.081 318.37 695.947 316.521C695.263 315.431 694.576 314.342 693.889 313.254C693.379 312.444 693.379 312.444 692.858 311.617C689.074 305.683 685.03 299.856 680.037 294.867Z" fill="#969D95"/>
<path d="M151.42 194.147C152.125 194.148 152.83 194.149 153.556 194.149C187.303 194.215 220.518 197.254 253.803 202.757C254.692 202.9 255.581 203.043 256.497 203.19C257.386 203.335 258.275 203.479 259.19 203.628C259.989 203.757 260.788 203.887 261.61 204.02C264.873 204.615 268.059 205.438 271.266 206.278C273.901 206.932 276.546 207.483 279.207 208.021C286.283 209.482 293.132 211.442 299.999 213.689C300.851 213.963 301.703 214.237 302.58 214.519C307.693 216.237 311.927 218.306 316.385 221.348C316.106 221.905 315.827 222.463 315.539 223.038C315.074 223.036 314.609 223.034 314.13 223.032C307.869 223.008 301.608 222.995 295.348 222.985C294.307 222.984 293.266 222.981 292.193 222.979C278.213 222.964 264.237 223.054 250.258 223.256C249.544 223.266 248.831 223.277 248.096 223.287C240.991 223.39 233.886 223.499 226.781 223.621C224.12 223.666 221.458 223.709 218.797 223.75C217.549 223.77 216.301 223.792 215.053 223.815C213.343 223.848 211.633 223.875 209.924 223.901C208.961 223.918 207.999 223.935 207.007 223.952C204.752 223.883 204.752 223.883 203.061 223.038C206.915 228.48 211.226 232.847 216.291 237.183C218.105 238.923 219.06 240.166 219.975 242.474C213.375 240.432 207.551 237.022 201.527 233.707C194.614 229.918 187.655 226.231 180.649 222.615C168.822 216.508 157.145 210.14 145.512 203.674C144.21 202.95 142.906 202.229 141.602 201.509C134.427 197.547 134.427 197.547 132.021 195.996V195.151C135.875 194.406 139.539 194.186 143.462 194.164C144.078 194.16 144.694 194.157 145.328 194.153C147.359 194.145 149.389 194.145 151.42 194.147Z" fill="#969D95"/>
<path d="M311.258 98.7627C312.057 98.9168 312.857 99.0707 313.681 99.2295C314.441 99.3793 315.202 99.5293 315.985 99.6836C316.689 99.8208 317.394 99.9573 318.119 100.099C319.768 100.505 319.768 100.506 320.613 101.351C321.77 101.61 322.935 101.831 324.102 102.037C328.435 102.865 332.663 103.97 336.917 105.132C340.189 106.019 343.464 106.814 346.777 107.529C358.893 110.268 370.863 113.994 382.598 118.05C384.423 118.659 386.255 119.251 388.1 119.799C395.282 121.931 402.209 124.52 409.147 127.336C409.703 127.56 410.258 127.783 410.83 128.014C419.748 131.61 428.607 135.308 437.32 139.378C438.102 139.743 438.883 140.107 439.688 140.483C442.267 141.693 444.843 142.91 447.416 144.131C448.207 144.506 448.999 144.88 449.814 145.267C457.88 149.13 465.68 153.235 472.998 158.392C473.862 158.994 473.862 158.994 474.744 159.609C476.369 160.747 477.988 161.891 479.605 163.039C480.387 163.589 481.168 164.139 481.974 164.706C483.476 165.791 484.932 166.941 486.371 168.109V169.8C486.964 169.992 487.557 170.183 488.168 170.381C491.226 171.776 493.211 173.425 495.674 175.715V177.405H497.365C498.864 178.767 500.218 180.147 501.594 181.63C502.234 182.314 502.874 182.998 503.533 183.703C509.093 189.745 509.093 189.745 510.051 192.616C506.406 192.161 503.74 191.323 500.547 189.522C499.721 189.064 498.894 188.605 498.043 188.133C497.174 187.643 496.304 187.152 495.409 186.647C488.145 182.627 480.851 178.851 473.299 175.404C470.83 174.267 468.426 173.07 466.021 171.807C461.845 169.677 457.48 168.102 453.066 166.539C449.817 165.372 447.028 163.977 444.086 162.194C442.101 161.374 440.13 160.602 438.113 159.87C437.245 159.549 437.244 159.549 436.358 159.222C430.788 157.178 425.181 155.239 419.575 153.296C415.423 151.851 411.322 150.333 407.258 148.653C402.674 146.83 397.997 145.237 393.344 143.603C393.819 145.152 394.294 146.702 394.771 148.251C395.08 149.26 395.39 150.268 395.709 151.308C396.541 154.005 397.401 156.693 398.263 159.381C401.779 170.424 404.707 181.602 407.14 192.933C407.285 193.601 407.43 194.269 407.579 194.957C408.248 198.173 408.744 201.141 408.566 204.446C403.013 199.803 397.98 195.098 393.502 189.395C388.055 182.613 381.731 176.646 375.528 170.563C374.209 169.266 372.902 167.955 371.6 166.641C368.779 163.856 365.797 161.261 362.826 158.639C360.953 156.912 359.287 155.079 357.629 153.146C353.316 148.137 348.526 143.6 343.796 138.988C343.098 138.3 342.399 137.612 341.68 136.902C341.044 136.282 340.409 135.66 339.754 135.021C338.373 133.462 338.373 133.462 338.373 131.772C337.536 131.494 336.699 131.214 335.836 130.927C334.376 129.55 332.993 128.15 331.607 126.702C330.57 125.665 329.53 124.63 328.488 123.598C325.325 120.452 322.164 117.304 319.004 114.154C317.639 112.795 316.273 111.435 314.906 110.077C312.934 108.117 310.964 106.153 308.995 104.189C308.379 103.579 307.763 102.967 307.129 102.338C306.567 101.776 306.005 101.215 305.426 100.637C304.928 100.141 304.43 99.6446 303.917 99.1338C302.854 97.9698 302.854 97.9701 302.854 97.125C305.656 97.6655 308.457 98.2136 311.258 98.7627Z" fill="#969D95"/>
<path d="M573.479 517.961C585.457 514.568 598.382 516.649 608.922 522.771C619.586 529.792 625.894 540.549 628.767 552.82C629.43 556.612 629.148 559.821 628.449 563.594C626.397 561.678 624.867 559.65 623.322 557.309C622.894 556.665 622.465 556.021 622.024 555.358C620.838 553.453 620.837 553.452 620.048 551.627C618.885 549.623 617.885 549.277 615.764 548.383C615.03 547.982 614.296 547.581 613.54 547.168C607.788 544.107 602.739 542.499 596.313 541.622C594.41 541.322 594.41 541.322 592.93 540.778L592.084 538.242C591.513 537.674 591.513 537.673 590.931 537.093C589.178 535.337 588.109 533.407 586.852 531.271C583.274 525.545 578.826 521.942 573.479 517.961Z" fill="#EBD6B2"/>
<path d="M336.576 516.852C337.747 516.848 337.747 516.848 338.942 516.844C342.656 516.874 345.241 516.926 348.522 518.806C348.031 519.164 347.541 519.523 347.035 519.892C340.565 524.746 336.369 529.535 332.453 536.552C331.623 537.412 330.782 538.263 329.916 539.087L329.07 541.622C327.965 541.64 327.965 541.64 326.837 541.658C315.939 542.094 307.525 545.16 299.471 552.608C297.529 554.732 297.529 554.733 296.088 556.833C294.96 558.242 293.833 559.65 292.705 561.059C292.515 556.61 293.099 552.808 294.449 548.594C294.638 548.004 294.827 547.414 295.022 546.806C298.85 535.493 306.329 526.879 316.514 520.74C323.179 517.725 329.293 516.721 336.576 516.852Z" fill="#EBD6B2"/>
<path d="M543.033 545.003C545.985 538.763 550.521 535.307 557.41 537.397C560.543 539.331 562.805 541.559 564.176 545.003C564.997 550.565 564.559 555.112 561.206 559.709C559.272 561.783 557.58 562.765 554.873 563.593C550.744 563.509 548.469 562.265 545.57 559.369C542.436 554.941 542.338 550.238 543.033 545.003Z" fill="#FFFBF3"/>
<path d="M356.926 537.027C360.608 536.024 362.948 536.154 366.387 537.873C369.854 540.81 371.831 543.464 372.525 547.93C372.743 552.751 372.046 555.606 368.818 559.369C368.347 560.031 367.877 560.693 367.392 561.376C364.787 563.204 362.865 563.279 359.728 563.125C356.49 562.484 354.911 560.939 352.75 558.523C350.199 554.33 349.855 550.963 350.514 546.217C351.555 542.281 353.675 539.437 356.926 537.027Z" fill="#FFFBF3"/>
<path d="M182.763 564.438C187.458 563.554 190.525 565.03 194.471 567.387C197.121 569.243 199.197 571.341 201.369 573.734C200.057 576.649 198.302 578.977 196.347 581.498C190.652 589.327 189.35 596.168 190.375 605.847C192.475 617.259 198.233 627.408 205.597 636.269C205.414 635.711 205.231 635.153 205.043 634.578C203.193 628.006 202.782 621.788 202.744 614.983C202.733 614.131 202.721 613.279 202.709 612.4C202.75 605.461 203.56 598.336 208.135 592.801L209.403 591.22C210.625 589.843 211.89 588.538 213.209 587.255C216.021 588.191 216.376 588.651 218.013 590.976L219.321 592.812C219.781 593.471 220.241 594.129 220.715 594.808L221.034 595.258C221.908 596.49 222.783 597.722 223.658 598.954L225.189 601.123C227.705 604.672 230.264 608.189 232.819 611.709C233.73 612.966 234.641 614.224 235.551 615.481L236.708 617.079C239.006 620.308 239.835 622.553 240.536 626.444C242.97 639.257 244.789 650.03 248.728 662.465C240.212 662.044 232.551 661.372 224.52 658.206C223.506 657.796 223.505 657.796 222.512 657.395C214.919 654.455 208.192 651.08 201.465 646.534L198.832 644.719C186.021 636.126 176.604 623.942 170.078 610.071C166.66 601.497 166.819 593.668 170.068 585.033C171.656 580.978 172.5 579 174.306 575.425C174.492 574.986 174.677 574.546 174.868 574.094C176.857 569.723 178.656 567.014 182.763 564.438Z" fill="#E08F49"/>
<path d="M729.299 565.442C732.682 563.982 735.617 563.671 739.236 564.438C743.088 566.659 745.709 569.77 747.693 573.734C748.038 576.119 749.361 579.589 750.207 581.852C753.31 589.078 755.056 597.271 752.562 604.905C752.344 605.512 752.133 606.102 751.922 606.691C750.243 611.522 748.739 616.544 745.737 620.74C744.979 621.69 744.221 622.641 743.465 623.593C741.902 625.905 740.331 628.194 738.678 630.442C723.209 649.563 699.608 658.834 675.983 661.999C674.187 662.234 674.187 662.234 672.426 662.465C673.228 659.283 674.961 650.749 675.756 647.565C676.524 644.491 677.297 641.417 678.075 638.345C678.37 637.175 678.663 636.004 678.954 634.833C679.363 633.187 679.781 631.544 680.198 629.9C680.433 628.966 680.668 628.031 680.91 627.068C682.277 622.677 684.438 618.943 687.02 615.162L688.613 612.824L690.291 610.389L692.012 607.882C702.827 592.194 702.828 592.194 708.791 586.41C715.861 593.872 720.13 601.341 720.05 611.867L720.039 613.778C719.873 622.011 717.873 629.087 713.865 636.269C723.569 630.039 730.649 619.8 733.95 608.804C734.994 598.367 732.871 589.018 726.551 580.495L724.697 578.673C723.168 577.115 723.168 577.114 723.168 575.425H721.476C722.915 570.851 725.632 568.393 729.299 565.442Z" fill="#E08F49"/>
<path d="M457.603 606.098C457.588 609.556 457.579 613.015 457.571 616.474C457.567 617.962 457.561 619.45 457.554 620.938C457.516 628.618 457.502 636.205 458.362 643.85C458.395 644.415 458.429 644.981 458.463 645.563C457.072 646.953 455.342 646.781 453.429 647.017C452.573 647.124 451.716 647.232 450.835 647.343C449.483 647.508 449.483 647.508 448.103 647.677C446.337 647.895 444.571 648.116 442.805 648.337C442.017 648.433 441.229 648.53 440.418 648.629C438.235 648.934 436.093 649.335 433.937 649.789C434.354 644.649 436.633 640.612 438.959 636.109C439.58 634.889 439.581 634.889 440.215 633.644C441.497 631.134 442.79 628.63 444.086 626.128C444.679 624.977 444.68 624.977 445.285 623.803C446.395 621.653 447.511 619.505 448.632 617.36C448.963 616.724 449.294 616.087 449.636 615.432C451.819 611.292 454.054 607.13 456.771 603.312H457.617C457.613 604.231 457.608 605.15 457.603 606.098Z" fill="#E08F49"/>
<path d="M669.043 470.638C671.226 481.466 673.083 492.305 674.629 503.243C675.329 508.16 676.118 513.022 677.16 517.879C678.539 525.064 676.497 532.079 674.963 539.087H673.271V543.312H671.58C670.307 541.632 669.167 539.965 668.039 538.189C667.733 537.731 667.427 537.274 667.112 536.802C665.995 535.064 664.986 533.28 663.969 531.481C663.417 530.583 662.864 529.684 662.296 528.758C658.004 521.272 657.611 516.065 659.763 507.771C660.125 506.485 660.488 505.198 660.85 503.912C661.194 502.574 661.533 501.234 661.868 499.894C662.528 497.26 663.205 494.632 663.895 492.006C665.127 487.249 666.061 482.445 666.929 477.609C667.063 476.881 667.197 476.153 667.336 475.402C667.628 473.815 667.913 472.226 668.197 470.638H669.043Z" fill="#E08F49"/>
<path d="M558.256 506.13C557.621 506.469 556.987 506.808 556.333 507.157C549.985 510.68 544.898 514.673 539.65 519.651C538.457 520.678 537.259 521.7 536.056 522.715C533.885 524.584 532.074 526.493 530.295 528.735C527.874 531.668 525.451 532.63 521.89 534.017C517.421 536.655 517.421 536.656 513.433 539.933C509.638 540.397 507.791 539.298 504.765 537.08C504.029 536.551 503.291 536.021 502.532 535.476C500.748 534.017 500.748 534.017 499.902 532.327C500.481 532.03 501.059 531.732 501.655 531.426C515.818 524.142 515.819 524.141 529.714 516.366C537.106 512.134 544.756 508.325 552.336 504.44C552.945 504.117 553.555 503.794 554.182 503.461C555.719 502.75 555.719 502.75 557.41 502.75C557.829 504.423 557.829 504.423 558.256 506.13Z" fill="#E08F49"/>
<path d="M373.047 508.665C375.781 509.729 378.426 510.877 381.051 512.187C381.771 512.545 382.49 512.904 383.232 513.273C384 513.658 384.769 514.042 385.56 514.438C386.362 514.839 387.165 515.239 387.991 515.651C389.686 516.498 391.38 517.346 393.074 518.194C395.647 519.482 398.222 520.765 400.797 522.049C402.449 522.874 404.1 523.7 405.752 524.526C406.513 524.906 407.275 525.286 408.059 525.677C412.808 528.058 417.475 530.555 422.097 533.172C418.471 536.553 414.206 538.713 409.412 539.933C405.664 539.71 403.708 538.156 400.902 535.76C398.094 533.341 398.094 533.341 394.936 531.452C393.018 530.47 392.098 529.356 390.754 527.679C385.381 521.341 379.114 515.805 372.201 511.2L373.047 508.665Z" fill="#E08F49"/>
<path d="M290.908 467.152C291.855 467.615 291.855 467.614 292.821 468.086C293.728 468.535 293.728 468.536 294.654 468.994C295.212 469.269 295.771 469.543 296.346 469.825C297.78 470.638 297.779 470.638 299.471 472.328C299.061 472.616 298.651 472.903 298.228 473.199C292.822 477.105 288.077 481.46 283.93 486.694C283.477 487.252 283.024 487.809 282.556 488.384H280.865C280.646 488.874 280.427 489.364 280.201 489.869C279.094 491.911 277.854 493.344 276.266 495.039C265.787 506.621 253.84 520.327 247.883 534.862H246.191C244.503 528.995 243.24 523.345 246.043 517.65C248.366 513.629 251.081 509.887 253.803 506.13C254.813 504.678 255.821 503.223 256.825 501.767C258.84 498.854 260.876 495.956 262.93 493.071C265.035 490.109 267.054 487.106 269.025 484.053C273.655 477.012 279.016 470.477 284.248 463.878C286.47 464.965 288.69 466.057 290.908 467.152Z" fill="#E08F49"/>
<path d="M504.131 381.062C505.489 383.778 504.202 386.363 503.447 389.17C503.191 390.147 503.191 390.147 502.93 391.145C502.368 393.279 501.796 395.41 501.223 397.541C500.935 398.623 500.936 398.623 500.642 399.728C498.148 409.097 495.554 418.429 492.714 427.699C492.439 428.6 492.163 429.501 491.88 430.429C490.174 435.87 488.998 438.979 483.939 442.012C479.584 444.712 475.527 447.664 471.452 450.766C467.592 453.68 463.625 456.443 459.662 459.215C456.824 461.2 453.998 463.194 451.219 465.261C442.165 471.967 432.449 477.202 422.461 482.383C421.67 482.794 420.879 483.205 420.064 483.628C418.537 484.418 417.006 485.203 415.473 485.982C412.168 487.683 409.071 489.4 406.089 491.626C403.492 493.455 403.492 493.454 401.008 493.296C400.432 493.069 399.856 492.843 399.263 492.609C402.667 489.063 406.334 485.981 410.152 482.892C417.068 477.244 423.868 471.483 430.555 465.567C431.376 464.842 432.199 464.117 433.046 463.369C439.175 457.832 445.051 452.035 450.913 446.218C451.844 445.294 452.776 444.372 453.71 443.451C459.648 437.586 465.101 431.547 470.303 425.005C471.103 424.055 471.91 423.109 472.724 422.17C477.853 416.244 482.618 410.115 487.283 403.819C489.562 400.743 491.897 397.712 494.247 394.689C497.686 390.242 500.963 385.706 504.131 381.062Z" fill="#E08F49"/>
<path d="M565.867 350.641C576.496 360.742 583.166 375.262 590.481 387.855C592.54 391.394 594.647 394.897 596.788 398.386C600.155 403.97 603.342 409.654 606.509 415.353C607.097 416.412 607.688 417.47 608.279 418.528C611.526 424.342 614.613 430.202 617.448 436.229C617.705 436.772 617.962 437.315 618.226 437.874C619.992 441.694 619.992 441.694 619.992 443.597C617.201 444.712 614.41 445.827 611.535 446.977C610.733 445.791 609.93 444.606 609.103 443.385C606.763 440.039 604.293 436.885 601.651 433.772C598.186 429.677 594.887 425.488 591.661 421.202C591.224 420.625 590.788 420.048 590.338 419.454C589.929 418.907 589.519 418.36 589.097 417.796C588.735 417.312 588.372 416.827 587.999 416.328C587.01 414.865 587.01 414.864 586.192 413.044C585.384 411.19 585.383 411.19 582.781 410.64C581.232 408.917 581.232 408.916 579.557 406.731C577.455 404.021 575.334 401.372 573.055 398.809C570.941 396.274 570.941 396.273 570.941 394.583C567.313 395.792 566.336 398.517 564.493 401.661C561.33 406.901 557.991 411.602 554.008 416.258C552.505 418.044 551.165 419.857 549.851 421.783C549.276 422.568 548.7 423.352 548.107 424.16H546.416C545.579 425.833 545.578 425.833 544.724 427.54H543.033C542.859 427.989 542.684 428.438 542.505 428.9C540.852 431.772 538.617 433.887 536.267 436.202C535.805 436.67 535.343 437.139 534.867 437.621C531.408 441.061 531.407 441.062 529.502 441.062V442.751C525.721 446.131 525.721 446.132 523.582 446.132V447.821C522.307 448.983 520.973 450.081 519.618 451.149C516.422 453.7 513.266 456.275 510.165 458.94C505.682 462.791 501.109 466.378 496.285 469.8C492.28 472.728 488.487 475.91 484.68 479.089C484.121 478.81 483.563 478.53 482.988 478.243C483.518 477.72 483.518 477.721 484.058 477.188C494.097 467.61 494.098 467.61 502.902 456.942C503.308 456.442 503.713 455.942 504.131 455.427H505.822C506.003 454.988 506.184 454.549 506.371 454.097C507.983 451.205 510.142 448.809 512.27 446.29C522.854 433.488 532.163 419.711 540.167 405.164C541.439 402.858 542.733 400.565 544.027 398.271C552.566 382.985 559.932 367.122 565.867 350.641Z" fill="#E08F49"/>
<path d="M368.818 374.302C369.896 376.456 369.514 377.011 368.815 379.273C368.609 379.968 368.403 380.662 368.191 381.377C367.962 382.144 367.733 382.912 367.497 383.703C365.168 391.873 363.372 400.082 361.789 408.421C361.68 408.977 361.571 409.533 361.459 410.106C358.703 424.291 358.513 438.497 358.194 452.892C358.158 454.458 358.121 456.026 358.084 457.593C357.995 461.378 357.908 465.163 357.824 468.948C353.895 467.748 350.297 466.139 346.648 464.277C345.78 463.84 345.779 463.84 344.893 463.394C343.657 462.771 342.421 462.146 341.186 461.521C337.961 459.887 334.73 458.264 331.499 456.642C330.858 456.32 330.216 455.998 329.555 455.666C321.844 451.801 314.062 448.087 306.259 444.413C304.549 443.598 302.853 442.758 301.162 441.906C302.237 439.571 303.363 437.789 305.133 435.928C305.592 435.441 306.051 434.954 306.524 434.452C307.022 433.932 307.52 433.411 308.033 432.875C309.109 431.74 310.185 430.603 311.261 429.468C311.823 428.876 312.386 428.285 312.966 427.676C314.689 425.855 316.396 424.02 318.099 422.18C324.103 415.71 330.209 409.486 336.767 403.578C339.009 401.534 341.16 399.437 343.289 397.277C345.955 394.579 348.703 392.057 351.584 389.592C354.882 386.691 358.073 383.675 361.272 380.666C363.698 378.396 366.093 376.216 368.818 374.302Z" fill="#E08F49"/>
<path d="M358.67 416.555C358.949 416.555 359.228 416.555 359.516 416.555C359.439 417.98 359.439 417.98 359.36 419.433C358.522 435.928 358.202 452.438 357.824 468.948C353.653 467.687 349.92 465.949 346.054 463.98C345.429 463.665 344.804 463.351 344.16 463.027C342.176 462.029 340.195 461.026 338.214 460.022C336.224 459.016 334.234 458.011 332.242 457.008C331.006 456.385 329.771 455.761 328.537 455.135C326.198 453.954 323.949 452.876 321.459 452.047C321.921 448.839 323.196 447.56 325.635 445.498C326.235 444.979 326.836 444.461 327.455 443.926C329.07 442.751 329.07 442.751 330.762 442.751C330.762 442.194 330.762 441.636 330.762 441.061C332.089 439.846 333.475 438.695 334.885 437.575C335.736 436.893 336.587 436.212 337.465 435.509C339.065 434.245 340.666 432.982 342.268 431.719C346.775 428.154 351.064 424.444 355.261 420.516C356.979 419.09 356.979 419.09 358.67 419.09C358.67 418.253 358.67 417.417 358.67 416.555Z" fill="#FFCEA3"/>
<path d="M376.43 589.79C375.501 597.327 373.861 602.657 368.29 607.959C364.153 609.796 360.577 610.159 356.133 609.227C351.332 606.513 348.138 602.387 345.984 597.396C345.51 594.862 345.255 592.364 345.139 589.79C346.028 590.295 346.918 590.802 347.834 591.322C348.382 591.629 348.931 591.936 349.496 592.253C351.059 593.171 351.059 593.171 352.962 594.597C357.144 596.591 362.029 597.331 366.52 595.963C368.223 595.131 369.777 594.219 371.355 593.171C371.865 592.847 372.374 592.524 372.898 592.19C374.092 591.415 375.263 590.606 376.43 589.79Z" fill="#969D95"/>
<path d="M576.016 589.79C575.884 596.892 572.639 601.38 567.869 606.477C564.323 609.498 560.788 609.873 556.211 609.623C552.871 609.017 550.908 607.669 548.953 605.001C545.931 600.247 544.109 596.296 544.725 590.636C545.562 591.158 545.562 591.158 546.416 591.691C547.672 592.423 547.672 592.424 548.953 593.171C549.445 593.485 549.937 593.798 550.443 594.121C555.149 596.868 558.916 597.024 564.176 595.706C567.867 594.299 572.358 589.79 576.016 589.79Z" fill="#969D95"/>
<path d="M587.01 632.043C589.116 630.991 589.894 631.387 592.084 632.043C592.829 634.544 593.062 635.9 592.17 638.388C586.117 649.109 578.053 659.561 566.713 665H564.176C566.149 651.989 576.742 639.729 587.01 632.043Z" fill="#C7430D"/>
<path d="M332.354 640.058C335.75 637.897 338.647 637.493 342.602 637.958C344.293 639.648 344.293 639.649 344.346 641.867C341.518 650.842 331.205 657.255 323.752 662.224C321.113 663.474 319.271 663.517 316.385 663.31C317.432 654.262 325.425 645.631 332.354 640.058Z" fill="#C7430D"/>
<path d="M624.221 631.198C625.241 634.258 625.48 636.068 624.28 639.101C619.615 647.095 610.948 658.032 602.232 661.62C599.907 661.726 599.907 661.726 598.004 661.62C598.004 654.6 601.539 650.214 605.615 644.719C606.191 643.933 606.766 643.148 607.359 642.339C611.839 636.472 616.331 631.198 624.221 631.198Z" fill="#C7430D"/>
<path d="M300.389 634.832C304.305 631.951 306.569 630.891 311.311 632.043C310.951 640.655 304.462 646.152 298.522 651.846C294.339 655.572 290.243 658.814 284.565 659.401C283.571 659.245 283.571 659.245 282.557 659.085C283.618 649.145 292.968 640.872 300.389 634.832Z" fill="#C7430D"/>
</g>
<defs>
<clipPath id="clip0_18_11">
<rect width="900" height="900" fill="white"/>
</clipPath>
</defs>
</svg>
