<svg width="900" height="900" viewBox="0 0 900 900" fill="none" xmlns="http://www.w3.org/2000/svg">
<g clip-path="url(#clip0_2039_433)">
<path d="M494.666 41.4997C508.228 34.9235 522.664 34.2203 537.446 34.7348C534.241 35.8226 532.99 37.1558 530.719 39.6273C539.08 40.0736 547.383 40.6953 555.704 41.645C557.893 41.9076 560.081 42.1624 562.276 42.3758C562.982 42.4393 563.667 42.5012 564.352 42.5629C565.997 42.7469 579.5 45.9424 590.747 48.4392C590.592 48.7598 590.442 49.0843 590.296 49.4125C616.398 57.5754 640.739 69.5664 663.299 85.2297C663.962 85.694 664.606 86.1444 665.249 86.595C676.344 94.3177 685.838 103.107 695.113 113C696.269 114.235 697.43 115.466 698.597 116.69C726.214 145.638 746.602 182.257 762.193 219.09C762.734 220.373 762.735 220.373 763.265 221.63C775.478 250.334 785.363 279.659 794.343 309.544C794.662 310.609 794.663 310.61 794.976 311.654C799.133 325.488 803.053 339.372 806.721 353.348C817.225 393.411 827.895 432.765 847.768 469.256C862.241 495.637 874.908 522.358 881.859 551.903C882.05 552.727 882.236 553.527 882.421 554.326C887.615 575.473 887.976 601.711 882.076 622.713C881.867 623.415 881.664 624.098 881.46 624.78C873.53 651.421 857.208 670.432 835.335 686.426C836.297 683.724 837.202 681.012 838.068 678.276C838.446 677.055 838.813 675.869 839.179 674.684C845.426 655.86 845.251 632.092 841.078 612.735C840.605 610.911 840.605 610.91 840.14 609.122C838.131 601.221 835.752 593.481 833.036 585.802C832.776 585.081 832.525 584.382 832.273 583.682C831.165 580.57 830.699 577.407 827.648 575.853C829.25 586.343 829.75 596.759 829.751 607.364C829.751 608.066 829.751 608.748 829.75 609.429C829.763 621.378 829.33 633.191 827.647 645.028C827.525 645.837 827.406 646.622 827.288 647.407C826.388 653.366 825.461 659.251 823.729 665.028C823.24 666.576 822.758 668.127 822.307 669.687C817.993 684.674 811.637 699.029 802.442 711.616C801.864 712.366 801.303 713.095 800.742 713.824C796.205 719.852 791.597 725.472 785.885 730.379C785.056 731.071 784.25 731.743 783.445 732.415C773.22 741.338 760.362 752.019 746.929 754.921C751.762 745.292 756.321 735.652 759.667 725.371C759.971 724.398 760.267 723.453 760.563 722.508C761.974 718.047 763.794 714.463 762.304 709.911C760.515 713.268 758.62 716.515 756.539 719.695C728.972 753.921 692.871 770.442 650.835 778.406L651.796 776.449C652.271 775.651 652.732 774.876 653.193 774.102C653.779 773.112 654.35 772.151 654.919 771.19C660.318 762.166 663.666 752.56 666.188 742.336C666.624 740.508 666.624 740.508 667.051 738.715C668.37 733.438 670.824 727.917 669.093 722.63C663.059 736.031 654.626 750.939 643.159 760.254C642.502 760.77 641.864 761.27 641.226 761.771C624.093 776.055 604.944 782.444 583.57 787.212C587.421 780.815 590.467 774.608 592.534 767.394C592.754 766.585 592.967 765.798 593.179 765.013C594.108 761.607 595.762 758.224 594.14 754.921C589.621 760.711 584.846 766.87 578.695 770.907C578.113 771.265 577.525 771.619 576.936 771.975C576.905 770.547 576.875 769.117 576.843 767.689C576.695 761.203 576.551 757.927 576.413 751.441C576.393 750.497 576.392 750.497 576.373 749.572C575.113 749.572 575.113 749.571 573.085 751.079C562.012 759.895 550.487 768.419 537.937 775.974C536.862 776.611 535.819 777.23 534.776 777.848C511.473 792.044 482.153 806.792 451.975 809.05C411.283 810.059 368.864 783.466 340.101 763.405C335.326 760.01 330.474 756.715 325.527 753.471C324.422 757.719 324.076 758.601 323.964 762.916C323.946 763.798 323.929 764.655 323.912 765.511C323.84 768.317 323.767 771.123 323.702 773.929C323.684 774.714 323.665 775.5 323.647 776.285C320.337 773.73 317.321 770.869 314.931 767.711C314.461 767.022 314.003 766.354 313.546 765.686C311.201 762.31 308.871 758.925 306.587 755.507C306.013 754.643 305.455 753.803 304.898 752.964C303.819 755.162 303.819 755.163 305.317 759.816C305.542 760.48 305.76 761.126 305.979 761.771C308.952 770.632 312.513 778.437 318.22 785.844C318.591 786.309 318.952 786.761 319.312 787.212C316.574 786.549 313.842 785.864 311.114 785.16C276.051 775.872 251.978 755.571 233.739 723.976C233.103 722.853 232.485 721.763 231.867 720.673C230.808 723.906 231.17 725.723 231.893 728.985C232.152 730.069 232.154 730.07 232.408 731.132C236.252 747.315 242.163 766.025 253.728 778.223C254.334 778.809 254.335 778.809 254.929 779.384H251.085C218.992 775.135 186.407 762.795 163.663 738.462C163.002 737.737 162.36 737.034 161.718 736.33C156.28 730.596 151.208 724.954 146.884 718.289C144.636 714.654 142.304 711.267 139.617 707.952C140.084 712.812 140.846 717.244 142.323 721.889C142.685 722.973 142.685 722.974 143.04 724.037C145.394 731.184 148.258 737.98 151.505 744.75C152.819 747.47 154.049 750.084 154.992 752.964C146.388 749.263 138.278 744.956 130.308 739.999C102.991 722.652 85.2708 695.4 77.7799 663.728C77.5678 662.795 77.3616 661.889 77.1557 660.984C71.7013 637.08 72.2775 612.147 74.0357 587.788C74.1763 585.938 74.3128 584.086 74.4413 582.234C74.4874 581.553 74.532 580.89 74.5768 580.229C74.6961 578.545 74.6969 578.544 74.8139 576.893C74.8969 575.72 74.9767 574.58 75.0573 573.441C75.1172 572.598 75.1756 571.779 75.2338 570.96H74.2729C73.3526 573.057 72.4347 575.155 71.5205 577.255C71.1493 578.109 70.7894 578.938 70.4291 579.767C66.9197 587.801 63.7006 595.925 61.177 604.342C53.6463 632.436 55.3189 663.869 68.9169 689.526C69.4311 690.468 69.9301 691.383 70.4291 692.297C63.869 689.049 57.7387 685.477 51.8408 681.1C51.157 680.582 50.4933 680.078 49.8296 679.575C45.3516 676.227 41.5479 672.795 38.0221 668.41C37.6056 667.882 37.2006 667.368 36.7963 666.855C35.1051 664.856 33.4909 662.839 31.9167 660.743C13.1961 633.427 7.80345 599.282 13.0737 566.634C13.4073 564.866 13.4069 564.866 13.7338 563.133C19.4403 531.145 32.1396 502.385 47.149 473.89C67.2763 435.781 78.3954 394.268 88.533 352.488C97.1752 316.87 106.769 280.931 120.276 246.864C121.064 244.881 121.843 242.894 122.619 240.906C127.364 228.726 132.177 216.593 137.815 204.808C138.712 202.954 139.608 201.1 140.487 199.236C148.674 181.839 157.764 164.897 169.184 149.472C170.733 147.402 172.273 145.33 173.773 143.222C181.617 132.113 190.387 122.437 200.094 112.982C200.768 112.328 201.423 111.693 202.078 111.059C232.114 81.6526 268.269 61.9938 307.859 49.3059C308.812 49.0096 309.738 48.7205 310.664 48.4329C310.664 47.5147 310.661 47.028 310.53 46.5595C319.106 44.6379 328.162 42.5798 334.885 41.76C336.875 41.5147 350.763 39.8276 352.757 39.6273C358.631 39.0712 365.346 40.3404 371.204 39.6273V38.6488L363.516 34.7348C369.582 34.5086 375.398 35.1621 381.409 35.9819C383.292 36.2474 383.292 36.2476 385.137 36.5078C391.39 37.3317 397.652 37.9017 403.575 40.2075C406.612 41.5207 409.264 42.1479 412.524 42.5629C412.289 41.7121 412.128 41.135 411.98 40.6362C412.656 41.1273 413.429 41.634 414.323 42.1708C421.985 45.0628 427.947 45.5013 437.33 45.5068C438.953 45.4888 440.528 45.471 442.104 45.4535C456.755 45.3594 474.935 45.9689 488.125 42.3475C487.906 42.7421 487.689 43.1401 487.477 43.5414C490.059 43.1166 492.263 42.5707 494.666 41.4997Z" fill="black"/>
<path d="M446.967 73.336C448.881 74.7379 450.746 75.8069 452.883 76.8105C453.814 76.0991 453.814 76.0991 454.763 75.3733C482.774 55.0831 519.235 53.7983 552.223 59.1667C576.4 63.5226 600.942 70.0866 622.279 82.7113C624.651 84.0749 627.109 85.2343 629.575 86.4122C638.014 90.685 645.886 95.9589 653.719 101.273C654.378 101.719 655.037 102.166 655.717 102.625C672.025 113.857 685.681 128.742 697.922 144.328C698.906 145.534 699.893 146.737 700.884 147.936C707.967 156.632 713.893 165.831 719.679 175.46C720.829 177.343 722.01 179.194 723.225 181.034C755.919 230.761 772.531 292.527 787.546 349.8C791.727 365.724 796.297 381.468 801.283 397.148C802.982 402.494 804.58 407.86 806.121 413.256C811.582 432.334 819.225 450.044 827.924 467.789C829.422 470.85 830.905 473.917 832.382 476.989C836.248 484.992 840.225 492.898 844.492 500.689C862.909 534.337 877.534 572.932 867.933 611.994C867.64 612.984 867.348 613.974 867.047 614.994C866.579 616.646 866.579 616.646 866.101 618.331C863.42 627.141 863.42 627.14 860.32 630.65C859.686 630.65 859.052 630.65 858.398 630.65C858.315 629.558 858.232 628.466 858.147 627.34C855.505 596.133 844.882 569.194 829.751 542.134C825.516 534.506 821.605 526.712 817.679 518.916C817.324 518.213 816.97 517.509 816.604 516.785C815.19 513.977 813.775 511.17 812.362 508.361C797.817 474.606 797.817 474.606 777.68 444.732C780.893 460.436 784.443 475.941 789.091 491.273C789.294 491.945 789.498 492.618 789.708 493.31C790.935 497.349 792.175 501.385 793.419 505.419C800.186 527.401 806.292 549.476 811.312 571.939C811.528 572.905 811.744 573.87 811.967 574.865C817.121 599.26 816.735 629.116 810.352 653.156C810.177 653.854 810.002 654.553 809.822 655.272C804.654 675.566 794.754 692.818 780.562 707.953C780.562 704.853 781.083 702.318 781.756 699.295C782.008 698.157 782.259 697.019 782.518 695.846C782.784 694.654 783.051 693.463 783.325 692.236C784.1 688.749 784.872 685.261 785.63 681.771C786.044 679.889 786.473 678.01 786.934 676.139C788.744 668.323 788.59 660.405 788.55 652.422C788.548 651.661 788.545 650.901 788.543 650.117C788.423 625.356 783.434 602.55 776.719 578.789C776.71 579.871 776.701 580.953 776.692 582.068C776.368 615.389 775.121 649 760.383 679.576C759.833 680.723 759.283 681.869 758.716 683.051C754.305 691.965 749.043 700.039 743.086 707.953C742.339 708.946 741.592 709.938 740.822 710.961C736.54 716.463 732.094 721.149 726.75 725.566C725.983 726.247 725.216 726.929 724.426 727.63C712.999 737.6 699.87 744.388 686.391 751.008C687.51 747.223 688.912 743.862 690.776 740.398C700.04 722.978 705.711 703.049 708.492 683.49C708.657 682.371 708.657 682.371 708.825 681.23C710.509 669.143 710.585 657.023 710.594 644.839C710.596 643.708 710.596 643.708 710.597 642.555C710.597 640.35 710.589 638.145 710.575 635.94C710.572 635.236 710.569 634.532 710.565 633.807C710.504 628.34 709.989 622.988 709.211 617.575C709.453 614.994 709.453 614.994 711.539 612.714C714.282 610.702 717.137 608.957 720.023 607.166C745.733 586.434 760.517 554.516 765.187 522.035C766.684 493.678 763.496 465.881 744.471 443.976C741.634 441.341 738.784 439.718 735.398 437.883C735.515 437.253 735.631 436.623 735.751 435.973C744.536 386.608 738.596 337.371 718.162 291.778C717.703 290.752 717.244 289.725 716.771 288.668C713.143 280.741 708.994 273.198 704.648 265.664C704.919 266.812 705.19 267.959 705.47 269.142C706.497 273.494 707.52 277.848 708.543 282.202C708.982 284.068 709.422 285.934 709.862 287.8C713.999 305.32 717.965 322.775 720.392 340.636C720.687 342.802 720.994 344.967 721.302 347.131C722.95 358.907 724.06 370.689 724.047 382.597C724.047 383.408 724.046 384.219 724.045 385.055C723.653 427.007 712.818 465.097 686.391 497.572C685.561 498.605 684.733 499.638 683.906 500.672C682.457 502.479 681.004 504.283 679.544 506.081C678.374 507.545 677.249 509.048 676.181 510.591C675.527 511.412 675.527 511.412 674.859 512.25C674.225 512.25 673.591 512.25 672.938 512.25C673.054 511.133 673.17 510.016 673.29 508.866C676.649 477.847 676.649 477.847 676.781 446.689C676.749 446.05 676.716 445.41 676.682 444.751C675.507 422.225 672.789 400.245 668.133 378.193C667.89 377.041 667.648 375.889 667.398 374.702C656.18 322.805 635.761 270.06 602.789 228.48C603.239 229.519 603.688 230.557 604.151 231.626C629.287 289.732 647.92 347.783 658.523 410.484C655.042 410.484 654.049 409.63 651.208 407.652C650.332 407.045 649.456 406.438 648.553 405.812C647.622 405.154 646.691 404.496 645.731 403.818C644.777 403.149 643.824 402.479 642.841 401.79C624.52 388.83 607.34 374.004 592.879 356.624C591.731 355.267 590.545 353.942 589.336 352.641C577.885 340.252 569.222 325.675 560.864 311.027C559.654 308.907 558.431 306.796 557.205 304.686C546.186 285.494 538.14 266.087 535.616 243.955C534.859 237.341 533.828 230.846 532.521 224.322C532.356 223.5 532.192 222.679 532.023 221.832C531.395 218.768 530.731 215.797 529.758 212.824C529.749 213.723 529.74 214.622 529.731 215.549C528.937 279.214 512.993 349.244 466.897 395.454C463.309 398.989 459.639 402.381 455.766 405.592C455.131 405.269 454.497 404.946 453.844 404.613C454.193 403.97 454.542 403.327 454.902 402.664C469.736 374.08 472.843 341.509 472.102 309.697C471.939 310.409 471.777 311.12 471.61 311.853C469.895 319.136 467.772 326.147 465.255 333.182C464.876 334.24 464.498 335.298 464.108 336.389C456.54 357.222 447.033 376.217 433.664 393.85C432.785 395.043 432.785 395.043 431.889 396.261C422.781 408.316 410.644 422.1 396.188 427.119C396.795 423.157 398.024 419.549 399.332 415.785C416.612 365.696 415.897 309.749 406.758 257.836C406.441 257.513 406.124 257.19 405.797 256.857C405.573 258.062 405.348 259.267 405.117 260.508C396.587 304.145 383.248 345.505 353.906 379.172C352.633 374.967 353.648 372.96 355.348 368.897C368.974 334.115 372.383 295.083 373.624 257.966C373.664 256.775 373.704 255.584 373.745 254.357C373.94 248.39 374.114 242.423 374.257 236.455C374.564 224.984 375.164 214.187 377.93 203.039C378.259 201.41 378.582 199.78 378.891 198.146C373.236 208.611 367.978 219.115 363.576 230.193C354.355 253.334 343.541 276.18 329.883 296.977C329.296 297.891 328.709 298.806 328.104 299.748C320.601 311.359 312.743 322.553 303.938 333.182C303.098 334.208 302.258 335.235 301.419 336.262C295.413 343.585 289.221 350.701 282.797 357.645C281.645 358.897 281.645 358.897 280.47 360.175C274.62 366.346 268.251 371.539 261.583 376.738C258.25 379.362 254.971 382.052 251.687 384.737C251.051 385.255 250.416 385.774 249.762 386.308C248.281 387.516 246.801 388.726 245.32 389.935C243.875 386.991 244.883 385.034 245.643 381.867C245.791 381.247 245.939 380.627 246.092 379.988C246.586 377.94 247.093 375.895 247.603 373.851C247.777 373.147 247.952 372.442 248.132 371.716C261.872 316.569 285.354 258.011 318.352 211.846C319.444 210.286 320.535 208.725 321.625 207.163C324.661 202.825 327.745 198.525 330.844 194.232C331.33 193.554 331.817 192.876 332.318 192.177C337.823 184.512 343.496 177.097 349.627 169.94C353.152 165.814 356.536 161.595 359.852 157.293C360.304 156.709 360.755 156.125 361.221 155.523C363.541 152.513 363.541 152.513 365.438 149.221C352.408 152.854 341.987 159.916 331.805 168.791C331.038 169.441 330.271 170.09 329.481 170.759C319.141 179.816 310.782 190.733 302.977 202.061C302.091 203.299 301.204 204.536 300.315 205.772C288.204 222.737 278.869 240.752 270.305 259.793C269.889 260.707 269.474 261.621 269.045 262.563C246.229 312.961 229.299 365.352 221.297 420.269C221.156 421.217 221.014 422.164 220.869 423.14C217.49 446.895 217.935 472.947 220.876 496.72C221.278 500.34 221.372 503.725 221.297 507.357C191.014 477.058 174.43 432.286 173.828 389.362C173.803 385.842 173.82 382.324 173.851 378.805C173.855 377.88 173.86 376.956 173.865 376.003C173.94 363.599 174.191 351.415 176.509 339.202C177.11 336.032 177.672 332.857 178.23 329.679C178.94 325.646 179.666 321.616 180.397 317.587C180.536 316.818 180.676 316.049 180.819 315.256C182.677 305.101 184.945 295.191 187.664 285.234C188.214 283.117 188.76 280.998 189.301 278.878C189.548 277.91 189.796 276.942 190.051 275.944C190.416 274.519 190.416 274.519 190.787 273.064C191.045 272.057 191.302 271.05 191.568 270.012C192.189 267.584 192.809 265.156 193.43 262.728C175.622 289.928 166.261 322.884 160.758 354.709C160.617 355.522 160.475 356.335 160.33 357.172C155.902 384.008 159.488 411.462 164.602 437.883C163.724 438.535 163.724 438.535 162.83 439.2C147.91 450.416 139.397 466.38 136.398 484.984C133.93 502.231 133.425 519.746 137.695 536.713C137.886 537.475 138.077 538.236 138.274 539.021C146.646 571.47 163.878 597.47 191.508 615.973C191.45 616.526 191.391 617.08 191.331 617.65C187.889 651.307 187.223 690.09 201.117 721.652C201.822 723.567 202.522 725.483 203.219 727.401C206.237 735.48 209.922 743.227 213.609 751.008C208.357 749.52 204.092 746.991 199.496 744.097C198.729 743.616 197.963 743.135 197.174 742.639C191 738.697 185.371 734.489 179.977 729.48C179.184 728.753 178.391 728.025 177.574 727.275C146.855 697.606 139.43 656.011 136.071 614.905C135.796 612.275 135.368 609.748 134.813 607.166C133.257 610.079 132.345 612.838 131.577 616.057C131.342 617.038 131.108 618.019 130.866 619.03C130.501 620.605 130.501 620.605 130.128 622.211C129.875 623.293 129.622 624.375 129.361 625.49C125.3 643.177 122.387 660.562 121.78 678.72C121.739 679.883 121.698 681.047 121.656 682.245C121.382 690.493 121.237 698.723 121.359 706.975C107.279 695.563 98.9802 678.481 94.4531 660.984C94.235 660.19 94.0168 659.395 93.792 658.576C86.4549 631.015 88.3102 600.879 92.5313 572.918C92.7152 571.624 92.8976 570.331 93.0788 569.037C95.9523 548.604 99.8724 528.498 104.444 508.39C108.121 492.171 111.084 475.845 113.672 459.41C113.323 460.269 112.973 461.128 112.613 462.013C102.742 485.431 90.7287 507.939 78.139 529.932C57.8336 565.422 43.083 599.013 40.6407 640.435C30.6286 631.214 29.0525 614.336 28.1485 601.295C27.3362 583.694 27.5751 567.29 32.9532 550.412C33.2364 549.5 33.5196 548.587 33.8113 547.647C40.4293 526.575 49.7269 507.045 59.6567 487.428C81.5707 444.02 95.3305 399.124 106.906 351.866C115.244 317.939 124.485 283.305 137.695 250.986C138.422 249.184 139.148 247.382 139.875 245.579C152.929 213.24 167.265 181.764 188.625 154.113C189.28 153.257 189.936 152.4 190.611 151.518C196.402 144.122 202.702 137.233 209.113 130.397C210.551 128.859 211.976 127.309 213.399 125.755C219.938 118.807 227.137 113.156 234.785 107.557C236.519 106.279 238.231 104.977 239.938 103.662C249.512 96.3703 259.83 90.4748 270.305 84.6387C270.955 84.2678 271.606 83.897 272.277 83.5149C284.997 76.301 298.808 71.6828 312.586 67.0254C313.801 66.6143 313.801 66.6143 315.041 66.195C353.813 53.4178 411.984 46.5594 446.967 73.336Z" fill="#30465E"/>
<path d="M534.562 302.848C535.197 302.848 535.831 302.848 536.484 302.848C536.725 303.359 536.966 303.869 537.214 304.396C547.134 325.322 558.927 344.178 573.514 362.044C576.466 365.673 579.156 369.329 581.648 373.301C581.059 373.32 580.47 373.34 579.864 373.36C542.709 374.472 542.709 374.472 511.474 393.227C508.889 396.744 507.35 400.559 505.734 404.613C506.802 404.273 506.802 404.273 507.891 403.926C511.155 402.887 514.42 401.854 517.686 400.822C519.365 400.286 519.365 400.286 521.077 399.74C546.115 391.84 586.188 387.422 611.107 398.944C614.909 401.421 617.814 404.499 620.698 408.005C622.866 410.49 625.406 412.417 628.014 414.398C629.528 415.568 629.528 415.568 631.073 416.761C635.126 419.791 639.277 422.672 643.449 425.529C644.161 426.018 644.873 426.508 645.606 427.012C649.034 429.326 652.262 431.253 656.072 432.837C657.972 433.783 657.972 433.783 659.484 434.947C660.48 437.969 660.816 439.81 660.926 442.898C661.006 444.114 661.006 444.114 661.088 445.354C661.244 448.083 661.332 450.807 661.406 453.539C661.44 454.497 661.475 455.455 661.51 456.442C662.358 483.013 661.856 516.227 649.875 540.627C651.138 540.369 652.398 540.102 653.659 539.832C654.361 539.684 655.063 539.537 655.787 539.385C659.651 538.375 663.4 537.052 667.172 535.734C666.796 537.186 666.796 537.186 666.412 538.666C665.442 542.407 664.474 546.148 663.506 549.889C663.066 551.588 662.626 553.287 662.185 554.985C659.948 563.615 657.712 572.244 655.584 580.903C642.293 634.826 642.293 634.826 631.617 657.07C631.163 658.026 631.163 658.026 630.7 659C624.02 672.849 615.594 685.537 605.672 697.189C604.882 698.125 604.091 699.061 603.277 700.026C598.883 705.129 598.883 705.129 597.023 706.975C596.389 706.975 595.755 706.975 595.102 706.975C595.102 707.62 595.102 708.266 595.102 708.932C592.78 711.458 590.023 713.572 587.414 715.781C586.903 716.225 586.392 716.668 585.866 717.125C553.256 745.415 491.948 790.021 446.862 788.497C416.138 785.879 387.651 767.439 361.594 751.986C360.684 751.453 359.775 750.919 358.838 750.369C337.782 738.011 318.123 724.513 300.538 707.357C299.272 706.131 297.982 704.93 296.689 703.733C259.948 668.578 248.397 612.869 237.999 564.781C236.295 556.906 234.464 549.094 232.378 541.315C231.867 538.67 231.867 538.67 232.828 535.734C233.316 536.006 233.804 536.277 234.307 536.556C238.313 538.703 241.708 540.161 246.281 540.627C245.408 538.962 245.408 538.962 244.517 537.263C242.406 532.952 241.075 528.651 239.915 523.992C239.711 523.188 239.507 522.383 239.297 521.554C237.437 513.932 236.435 506.364 235.711 498.551C235.593 497.511 235.593 497.511 235.473 496.451C234.768 490.042 234.595 483.709 234.589 477.264C234.585 476.188 234.582 475.112 234.579 474.003C234.574 471.736 234.572 469.469 234.572 467.202C234.57 463.786 234.552 460.37 234.534 456.954C234.457 428.944 234.457 428.944 236.672 421.248C239.169 418.967 241.243 417.857 244.352 416.592C247.461 415.285 249.587 413.707 252.167 411.524C252.966 410.863 253.765 410.202 254.588 409.521C256.826 407.623 256.826 407.623 258.665 405.699C274.457 390.694 308.775 392.294 328.922 392.871C325.823 403.891 317.782 412.637 309.703 420.27C308.738 421.244 307.775 422.22 306.82 423.205C322.014 419.556 338.075 411.227 349.567 400.409C352.893 398.116 354.738 398.273 358.711 398.742C361.758 399.553 364.7 400.587 367.66 401.678C369.197 402.231 370.734 402.781 372.273 403.329C372.945 403.575 373.616 403.821 374.309 404.074C376.017 404.71 376.017 404.71 377.93 404.613C374.94 397.641 371.459 390.555 364.477 387C366.072 382.852 369.113 380.041 372.104 376.909C382.538 365.71 392.71 352.648 398.109 338.074C398.426 338.074 398.744 338.074 399.07 338.074C399.431 372.117 392.806 415.21 373.125 443.754C394.347 444.571 411.476 438.948 427.358 424.367C428.13 423.634 428.901 422.901 429.696 422.146C431.742 420.27 431.742 420.27 434.625 418.312C432.934 424.105 430.4 429.484 427.898 434.947C456.706 429.614 483.418 405.807 499.769 381.898C516.135 357.263 527.675 331.687 534.562 302.848Z" fill="#FDD4A5"/>
<path d="M360.573 462.774C361.894 463.912 363.196 465.075 364.477 466.26C365.193 466.899 365.909 467.539 366.646 468.198C378.217 479.161 385.692 494.242 386.537 510.377C386.55 510.995 386.564 511.613 386.578 512.25C384.278 509.367 382.067 506.438 379.912 503.443C374.857 496.572 368.68 489.769 360.633 486.809C360.969 487.729 361.304 488.65 361.65 489.599C362.092 490.83 362.534 492.06 362.975 493.291C363.41 494.495 363.845 495.698 364.293 496.938C369.486 513.133 366.816 531.626 359.972 546.865C354.927 556.352 347.996 564.129 337.777 567.636C327.516 569.515 317.401 568.689 308.645 562.739C297.46 553.746 292.499 540.551 289.895 526.737C288.224 509.998 289.002 493.942 294.328 478.002C283.818 484.033 278.261 492.686 274.629 504.3C272.281 514.272 272.849 524.571 273.188 534.756C271.585 533.126 269.983 531.495 268.383 529.863C267.868 529.347 267.352 528.832 266.821 528.3C259.853 520.74 257.392 511.432 256.611 501.303C255.656 497.654 254.027 496.874 251.086 494.637C249.257 492.437 247.653 490.093 246.041 487.726C245.612 487.115 245.184 486.504 244.742 485.874C242.944 483.274 241.509 481.035 240.516 478.002C241.156 478.203 241.796 478.403 242.456 478.61C248.87 480.519 254.988 481.535 261.656 481.916C261.758 481.191 261.859 480.465 261.964 479.718C262.664 476.829 263.571 475.354 265.38 473.048C265.873 472.411 266.366 471.774 266.874 471.118C267.372 470.484 267.87 469.849 268.383 469.195C269.348 467.894 270.31 466.59 271.266 465.281C270.861 464.714 270.456 464.146 270.038 463.561C264.809 455.969 264.809 455.969 264.539 450.604C266.505 451.602 268.467 452.605 270.414 453.642C271.111 453.992 271.808 454.341 272.527 454.701C273.217 455.058 273.907 455.415 274.618 455.783C281.308 457.7 287.02 454.08 292.815 451.066C315.027 441.747 341.922 448.571 360.573 462.774Z" fill="black"/>
<path d="M609.82 456.402C614.009 458.109 616.97 456.959 621.039 455.309C621.954 454.866 622.868 454.423 623.81 453.967C624.739 453.522 625.668 453.077 626.625 452.618C627.321 452.276 628.017 451.934 628.734 451.582C628.056 456.597 625.804 459.797 623.048 463.909C621.739 466.154 621.739 466.154 622.631 468.137C623.274 469.145 623.274 469.145 623.93 470.174C624.534 471.634 624.534 471.634 625.15 473.125C626.724 476.486 628.193 479.153 630.656 481.916C638.279 484.301 645.896 481.535 652.758 478.002C651.587 485.994 645.746 492.912 640.266 498.551C639.592 498.958 638.918 499.366 638.224 499.785C635.53 502.328 635.826 504.609 635.581 508.275C634.455 519.803 629.652 528.172 621.047 535.734C620.413 535.411 619.778 535.089 619.125 534.756C619.442 534.11 619.759 533.464 620.086 532.799C621.15 516.406 619.237 500.554 608.375 487.726C601.882 480.682 595.347 475.578 586.453 472.131C586.453 472.777 586.453 473.423 586.453 474.088C587.087 474.088 587.722 474.088 588.375 474.088C599.073 485.301 599.6 502.311 599.448 516.891C598.992 532.764 595.7 546.614 584.892 558.607C578.205 564.999 571.122 568.174 561.949 568.698C553.236 568.326 545.288 564.023 538.966 557.992C526.591 544.085 522.933 528.221 523.779 509.886C524.435 502.102 526.164 494.421 527.836 486.809C518.895 493.861 511.712 500.46 505.734 510.293C503.637 503.886 507.802 494.713 510.473 488.712C519.675 470.241 534.117 457.168 553.35 450.577C572.635 445.039 592.281 445.939 609.82 456.402Z" fill="black"/>
<path d="M726.75 459.41C734.178 462.247 738.804 466.82 742.125 474.088C751.144 498.629 749.247 524.47 739.242 548.455C733.861 560.448 728.15 572.2 719.062 581.725C718.591 582.236 718.119 582.747 717.632 583.274C705.47 596.435 690.938 607.951 672.937 611.08C671.336 611.096 669.734 611.098 668.133 611.08C670.855 599.703 673.619 588.363 676.901 577.138C679.185 569.322 680.726 561.521 682.088 553.491C683.195 547.327 684.898 542 688.312 536.713C691.112 537.716 692.024 538.421 693.459 541.122C693.836 542.131 694.212 543.139 694.6 544.178C695.017 545.271 695.434 546.364 695.863 547.49C696.496 549.209 696.496 549.209 697.141 550.963C697.994 553.227 698.848 555.491 699.705 557.755C700.264 559.266 700.264 559.266 700.835 560.807C701.56 563.05 701.56 563.05 702.727 564.111C705.471 557.336 706.027 551.335 705.91 544.052C705.913 543.092 705.916 542.132 705.919 541.143C705.854 532.064 705.375 524.732 698.883 518.121C698.249 517.798 697.614 517.475 696.961 517.143C698.57 512.342 701.141 508.32 703.868 504.116C704.307 503.391 704.746 502.667 705.198 501.92C706.506 499.917 707.712 498.22 709.453 496.594C713.159 495.894 715.076 495.981 718.383 497.817C724.719 503.777 727.952 509.326 728.672 518.121C729.306 518.121 729.94 518.121 730.594 518.121C731.342 512.341 731.682 506.581 731.795 500.752C731.82 499.547 731.844 498.341 731.87 497.098C731.451 492.531 730.11 489.377 727.054 485.998C726.498 485.539 725.942 485.08 725.369 484.607C724.815 484.138 724.261 483.668 723.691 483.185C721.899 481.882 720.094 480.904 718.102 479.959C720.247 472.675 723.293 466.143 726.75 459.41Z" fill="#FCD8A8"/>
<path d="M172.289 459.41C173.766 462.604 175.221 465.807 176.673 469.012C177.304 470.375 177.304 470.375 177.948 471.766C178.341 472.639 178.734 473.513 179.139 474.413C179.507 475.217 179.874 476.022 180.253 476.851C180.938 478.98 180.938 478.98 179.977 481.916C178.302 483.135 178.302 483.135 176.253 484.301C171.932 486.949 170.018 488.857 168.393 493.811C167.455 497.695 167.228 501.041 167.244 505.033C167.239 506.277 167.234 507.521 167.229 508.802C167.469 512.041 168.031 514.242 169.406 517.143C169.722 516.219 169.722 516.219 170.044 515.277C172.611 508.223 175.654 502.353 181.418 497.511C184.778 496.228 186.162 496.362 189.586 497.572C192.005 500.286 193.832 503.324 195.712 506.44C196.236 507.276 196.76 508.111 197.3 508.972C198.589 511.034 199.86 513.104 201.117 515.186C200.723 515.671 200.329 516.157 199.924 516.657C193.455 524.961 193.121 532.186 193.189 542.523C193.182 543.64 193.175 544.757 193.167 545.907C193.181 551.995 193.583 557.309 195.352 563.133C197.717 560.724 198.379 558.605 199.563 555.419C199.991 554.278 200.418 553.136 200.858 551.96C201.3 550.763 201.743 549.566 202.198 548.333C202.648 547.128 203.098 545.924 203.561 544.682C204.673 541.702 205.78 538.719 206.883 535.734C209.766 536.713 209.766 536.713 210.78 538.251C213.732 545.058 215.192 552.015 216.672 559.28C219.359 572.089 222.63 584.66 226.251 597.226C226.524 598.183 226.524 598.183 226.802 599.16C227.296 600.884 227.796 602.606 228.297 604.329C228.984 607.166 228.984 607.166 228.984 611.08C210.675 610.626 194.547 598.218 182.236 585.306C161.054 560.905 150.862 530.799 151.941 498.299C152.735 485.622 157.388 470.68 166.824 461.979C169.986 459.41 169.986 459.41 172.289 459.41Z" fill="#FCD7A7"/>
<path d="M534.562 302.848C535.197 302.848 535.831 302.848 536.484 302.848C536.846 303.614 536.846 303.614 537.214 304.396C547.134 325.322 558.927 344.178 573.514 362.044C576.466 365.673 579.156 369.329 581.648 373.301C576.747 374.357 572.018 375.07 567.234 373.301C562.561 369.514 559.489 364.016 556.269 358.972C553.858 355.33 551.122 351.977 548.376 348.593C545.396 344.891 542.635 341.289 540.328 337.096C538.011 340.019 536.472 342.92 534.972 346.346C522.442 374.304 506.624 400.251 480.75 417.334C480.268 417.702 479.786 418.07 479.289 418.449C474.797 421.877 470.1 424.353 465.015 426.752C464.247 427.126 463.479 427.499 462.687 427.884C454.836 431.635 447.07 434.222 438.529 435.742C437.805 435.885 437.081 436.029 436.335 436.176C434.497 436.509 432.639 436.717 430.781 436.904C430.147 436.258 429.513 435.613 428.859 434.947C429.583 434.756 430.306 434.564 431.052 434.366C451.023 428.64 466.95 417.185 481.711 402.656C482.541 401.862 483.371 401.067 484.226 400.248C510.374 374.617 526.129 338.162 534.562 302.848Z" fill="#E08F49"/>
<path d="M712.914 495.94C717.975 496.953 720.546 499.553 723.867 503.443C725.498 505.951 726.662 508.465 727.711 511.271C728.127 512.361 728.543 513.451 728.972 514.574C731.873 530.148 723.306 547.879 715.091 560.381C706.268 572.903 695.419 581.528 680.625 585.639C678.703 585.67 676.781 585.674 674.859 585.639C675.053 584.87 675.247 584.102 675.446 583.31C676.177 580.4 676.904 577.489 677.628 574.578C678.091 572.722 678.558 570.867 679.026 569.012C680.444 563.297 681.735 557.648 682.607 551.819C683.225 547.777 684.05 544.48 686.03 540.872C686.459 540.069 686.887 539.267 687.329 538.441C687.816 537.585 687.816 537.585 688.313 536.713C691.112 537.716 692.024 538.421 693.459 541.122C693.836 542.131 694.212 543.139 694.6 544.178C695.017 545.271 695.434 546.364 695.863 547.49C696.496 549.209 696.496 549.209 697.141 550.963C697.994 553.227 698.848 555.491 699.705 557.755C700.078 558.762 700.451 559.769 700.835 560.807C701.56 563.05 701.56 563.05 702.727 564.111C705.471 557.336 706.027 551.335 705.91 544.052C705.913 543.092 705.916 542.132 705.919 541.143C705.854 532.064 705.375 524.732 698.883 518.121C698.249 517.798 697.614 517.475 696.961 517.143C698.57 512.342 701.141 508.32 703.868 504.116C704.307 503.391 704.746 502.667 705.198 501.92C708.565 496.762 708.565 496.762 712.914 495.94Z" fill="#E08F49"/>
<path d="M189.586 497.572C192.005 500.286 193.833 503.324 195.712 506.44C196.236 507.276 196.76 508.111 197.3 508.972C198.589 511.034 199.86 513.104 201.117 515.186C200.723 515.671 200.329 516.157 199.924 516.657C193.455 524.961 193.121 532.186 193.189 542.523C193.182 543.64 193.175 544.757 193.167 545.908C193.181 551.996 193.583 557.309 195.352 563.133C197.717 560.725 198.379 558.605 199.563 555.419C200.204 553.707 200.204 553.707 200.858 551.96C201.3 550.763 201.743 549.566 202.198 548.333C202.648 547.128 203.098 545.924 203.561 544.683C204.673 541.702 205.78 538.719 206.883 535.734C209.766 536.713 209.766 536.713 210.768 538.208C213.892 545.376 215.441 552.868 217.033 560.503C217.453 562.481 217.877 564.458 218.301 566.435C218.712 568.351 219.121 570.267 219.529 572.183C220.664 577.346 221.92 582.474 223.219 587.596C218.661 586.778 215.069 585.178 210.967 583.07C209.942 582.544 209.942 582.544 208.897 582.008C203.563 579.2 198.852 576.056 194.391 571.94C193.816 571.421 193.241 570.903 192.649 570.369C179.771 558.045 170.196 538.618 169.215 520.445C169.68 512.428 173.745 505.357 179.016 499.529C182.75 496.392 184.997 495.951 189.586 497.572Z" fill="#E08F49"/>
<path d="M352.945 292.084C353.262 292.084 353.58 292.084 353.906 292.084C354.267 301.159 353.354 310.05 352.272 319.041C352.089 320.563 351.915 322.085 351.75 323.609C349.848 340.876 345.115 359.196 338.531 375.258C337.349 375.253 336.167 375.248 334.948 375.242C330.536 375.224 326.123 375.213 321.71 375.204C319.805 375.199 317.9 375.192 315.995 375.184C313.247 375.172 310.499 375.167 307.751 375.162C306.908 375.157 306.065 375.152 305.196 375.147C300.203 375.146 295.426 375.5 290.484 376.236C293.611 372.317 296.761 368.839 300.514 365.534C304.63 361.879 308.112 357.975 311.625 353.73C312.464 352.767 313.302 351.803 314.166 350.81C329.638 332.972 342.272 313.214 352.945 292.084Z" fill="#E08F49"/>
<path d="M586.453 472.131C593.499 473.912 598.347 477.04 603.75 481.916C604.437 482.535 605.125 483.155 605.833 483.793C615.925 493.452 620.78 507.124 621.524 521.084C621.857 532.809 618.726 541.937 611.295 550.963C602.889 559.121 592.628 562.943 581.648 566.068C579.926 566.638 578.205 567.209 576.483 567.781C572.6 568.976 569.352 569.272 565.312 569.004C568.103 567.11 570.465 566.179 573.601 565.029C583.861 560.668 588.783 553.496 593.653 543.578C597.559 533.889 598.519 523.85 598.465 513.473C598.461 512.282 598.457 511.09 598.452 509.862C598.213 496.9 595.96 486.599 588.375 476.045C588.375 475.399 588.375 474.753 588.375 474.088C587.741 474.088 587.107 474.088 586.453 474.088C586.453 473.442 586.453 472.796 586.453 472.131Z" fill="#FFF8E8"/>
<path d="M269.344 166.834C271.206 167.812 271.206 167.812 272.227 169.77C273.42 179.495 268.841 189.233 263.578 197.168C260.495 201.194 257.254 205.054 253.969 208.91C253.37 209.652 252.772 210.393 252.156 211.158C245.856 218.873 239.88 224.1 229.945 225.545C227.647 223.107 227.077 221.888 226.879 218.458C227.658 202.885 235.941 186.338 247.178 175.866C253.407 170.825 261.115 165.466 269.344 166.834Z" fill="#8BA8C3"/>
<path d="M308.922 519.467C311.948 520.151 312.588 520.634 314.508 523.014C315.596 525.338 315.596 525.338 316.55 527.906C316.869 528.754 317.189 529.602 317.518 530.475C318.143 532.218 318.736 533.974 319.312 535.734C322.584 537.991 325.139 537.704 328.862 537.019C335.646 535.574 335.646 535.574 340.626 531.041C341.634 529.048 342.51 527.048 343.336 524.971C343.93 523.518 343.93 523.518 344.537 522.035C344.775 521.389 345.013 520.744 345.258 520.078C346.84 520.543 348.422 521.013 350.002 521.485C350.883 521.746 351.764 522.007 352.671 522.276C354.867 523.014 354.867 523.014 355.828 523.992C356.613 534.318 355.922 542.249 349.282 550.29C343.102 556.893 337.016 558.256 328.24 558.577C320.916 558.689 314.566 558.448 308.742 553.348C303.037 546.105 299.492 538.954 299.666 529.607C300.258 525.902 301.606 523.844 304.204 521.236C305.859 520.078 305.859 520.078 308.922 519.467Z" fill="#D1453B"/>
<path d="M585.492 521.057C589.619 526.399 588.915 532.202 588.375 538.67C587.09 546.254 581.846 552.172 575.965 556.73C570.684 559.862 565.501 559.724 559.547 559.219C558.66 559.172 557.773 559.125 556.859 559.077C549.046 558.234 544.372 554.478 539.367 548.455C535.408 542.569 534.25 535.905 535.523 528.885C538.122 525.255 541.223 523.101 545.133 521.057C545.767 521.057 546.401 521.057 547.055 521.057C547.431 522.247 547.808 523.438 548.196 524.665C550.503 530.89 554.915 534.437 560.508 537.691C563.376 538.899 563.376 538.899 566.273 538.67C571.609 534.374 574.034 529.098 576.127 522.693C577.919 518.603 581.984 520.179 585.492 521.057Z" fill="#A9312F"/>
<path d="M294.328 477.023C295.805 480.031 294.504 481.969 293.487 485.096C288.373 500.902 288.361 520.826 293.367 536.713C293.635 537.574 293.902 538.436 294.178 539.324C297.511 548.76 302.655 557.198 310.664 563.133C311.437 563.738 312.21 564.344 313.006 564.968C313.75 565.512 313.75 565.512 314.508 566.068C310.376 567.294 308.031 566.712 304.058 565.151C299.559 563.505 296.19 562.694 291.445 563.133C292.397 562.164 292.397 562.164 293.367 561.176C292.821 560.772 292.275 560.369 291.712 559.953C281.309 552.03 276.336 544.376 272.227 531.82C270.812 516.049 272.554 500.916 281.836 487.787C282.221 487.217 282.606 486.647 283.003 486.059C286.057 481.913 289.965 479.515 294.328 477.023Z" fill="#FFF8E8"/>
<path d="M244.359 139.436C245.311 140.081 246.262 140.727 247.242 141.393C249.396 154.549 238.476 167.836 231.368 178.003C228.325 182.192 225.069 186.059 221.477 189.768C220.994 190.27 220.512 190.772 220.015 191.289C216.478 194.755 212.529 197.519 207.844 199.125C205.307 198.521 203.908 198.053 202.078 196.189C200.879 182.459 209.547 165.677 217.453 155.092C218.022 154.314 218.59 153.535 219.176 152.733C224.852 145.595 234.849 136.772 244.359 139.436Z" fill="#8BA8C3"/>
<path d="M447.117 200.104C450.086 201.002 451.628 201.673 453.543 204.201C456.35 210.324 457.044 215.907 456.967 222.548C456.957 223.764 456.957 223.764 456.947 225.004C456.675 241.816 453.983 258.472 444.234 272.514C442.102 273.358 442.102 273.358 440.391 273.492C432.586 265.76 431.732 253.945 431.494 243.296C431.611 237.378 432.83 231.766 434.205 226.034C434.549 224.581 434.549 224.581 434.901 223.098C437.207 214.346 441.285 206.956 447.117 200.104Z" fill="#8BA8C3"/>
<path d="M393.887 665.59C397.9 665.943 400.731 667.523 404.175 669.485C424.635 680.544 450.312 683.295 472.819 677.665C480.954 675 488.364 671.618 495.468 666.764C497.966 665.394 500.1 665.467 502.852 665.877C503.327 666.361 503.327 666.361 503.812 666.855C503.779 670.059 503.779 670.059 502.852 673.705C500.74 675.601 499.064 676.851 496.666 678.231C496.05 678.604 495.435 678.977 494.801 679.361C493.568 680.1 492.329 680.828 491.082 681.543C489.697 682.34 488.334 683.176 486.977 684.022C467.439 695.346 441.075 693.923 420.14 688.352C413.231 686.38 406.722 683.748 400.271 680.555C399.63 680.242 398.988 679.929 398.327 679.606C394.422 677.578 391.816 675.531 389.461 671.748C389.725 667.811 389.879 666.049 393.887 665.59Z" fill="black"/>
<path d="M366.398 505.4C381.72 513.396 381.72 513.396 384.656 521.057C383.408 534.461 378.677 548.363 368.861 557.629C359.596 565.394 348.749 569.45 336.609 569.004C338.84 566.489 341.142 565.047 344.057 563.439C355.125 556.738 360.554 545.705 363.816 533.288C366.05 524.138 366.21 514.785 366.398 505.4Z" fill="#FFF8E8"/>
<path d="M523.031 506.379C523.348 506.379 523.665 506.379 523.992 506.379C524.028 507.562 524.064 508.745 524.101 509.964C524.726 527.111 526.644 543.649 538.748 556.788C544.918 562.459 551.687 565.482 559.547 568.025C559.547 568.348 559.547 568.671 559.547 569.004C543.03 568.095 531.823 566.012 520.148 553.348C513.343 544.411 507.562 532.688 508.617 521.057C510.479 518.366 510.479 518.366 513.422 516.164C514.768 514.926 516.109 513.683 517.446 512.433C520.861 509.314 520.861 509.314 523.031 509.314C523.031 508.346 523.031 507.377 523.031 506.379Z" fill="#FFF8E8"/>
<path d="M482.672 229.459C485.279 231.038 486.257 232.373 487.03 235.364C488.002 242.365 486.921 249.004 485.555 255.879C485.272 257.328 485.272 257.328 484.984 258.807C483.574 264.978 481.417 269.99 476.906 274.471C474.695 275.808 473.6 276.46 471.02 276.305C469.219 275.449 469.219 275.449 468.078 273.859C467.051 270.805 466.582 267.886 466.336 264.686C466.273 263.871 466.21 263.056 466.144 262.216C465.903 256.02 466.651 250.284 467.957 244.259C468.1 243.561 468.243 242.863 468.39 242.144C469.577 237.108 471.437 234.158 474.984 230.437C477.714 229.048 479.649 229.151 482.672 229.459Z" fill="#8BA8C3"/>
<path d="M584.531 440.818C585.007 442.271 585.007 442.271 585.492 443.754C579.63 447.485 571.98 446.831 565.312 446.689C565.312 447.335 565.312 447.981 565.312 448.646C563.882 448.951 563.882 448.951 562.422 449.262C553.66 451.24 546.168 454.07 538.239 458.465C536.38 459.466 534.498 460.397 532.599 461.318C525.333 464.854 518.856 468.544 512.498 473.629C510.539 475.066 510.539 475.066 508.617 475.066C509.88 471.268 511.354 469.011 514.203 466.26C514.893 465.585 515.583 464.91 516.293 464.215C516.931 463.598 517.569 462.981 518.227 462.346C519.019 461.518 519.812 460.691 520.629 459.838C521.422 459.051 522.214 458.264 523.031 457.453C523.524 456.944 524.017 456.434 524.525 455.909C540.383 440.524 563.543 435.303 584.531 440.818Z" fill="#F59271"/>
<path d="M592.219 395.807C604.986 395.87 611.429 398.931 620.435 407.973C627.338 414.7 635.542 420.115 643.449 425.529C644.517 426.263 644.517 426.263 645.606 427.012C649.029 429.322 652.338 431.319 656.099 433.006C659.35 434.614 659.35 434.614 660.479 437.416C660.488 438.337 660.496 439.258 660.505 440.207C660.525 441.228 660.545 442.25 660.565 443.303C660.363 449.015 660.022 454.698 659.484 460.389C659.167 460.389 658.85 460.389 658.523 460.389C658.291 459.304 658.058 458.219 657.818 457.101C657.493 455.669 657.168 454.237 656.842 452.805C656.691 452.091 656.54 451.377 656.384 450.642C654.431 442.228 648.792 439.249 642.067 434.58C632.535 427.877 623.385 420.761 614.32 413.42C613.338 412.63 612.356 411.841 611.344 411.027C607.843 408.199 604.424 405.338 601.107 402.289C598.359 399.843 595.804 398.654 592.219 397.764C592.219 397.118 592.219 396.472 592.219 395.807Z" fill="#E08F49"/>
<path d="M355.331 447.625C361.306 451.212 366.354 455.328 371.203 460.389C371.819 460.982 372.434 461.574 373.069 462.185C377.117 466.121 380.461 470.422 383.695 475.066C383.22 476.035 383.22 476.035 382.734 477.023C379.271 474.763 376.033 472.371 372.825 469.746C367.296 465.327 361.431 461.967 354.912 459.288C353.339 458.603 351.793 457.855 350.258 457.086C343.297 453.629 336.622 451.313 329.128 449.487C326.504 448.773 324.579 447.939 322.195 446.689C320.043 445.964 317.88 445.273 315.709 444.61C314.584 444.265 313.459 443.919 312.301 443.563C311.443 443.303 310.586 443.043 309.703 442.775C323.74 433.247 342.093 440.016 355.331 447.625Z" fill="#F59170"/>
<path d="M290.484 396.785C288.577 398.727 287.019 399.675 284.655 400.951C280.037 403.519 275.682 406.384 271.326 409.384C270.571 409.9 269.816 410.417 269.038 410.949C263.65 414.646 258.284 418.366 253.008 422.227C252.218 422.763 251.427 423.299 250.613 423.851C249.838 424.405 249.062 424.959 248.263 425.529C247.581 426.001 246.898 426.473 246.195 426.959C241.626 432.229 240.78 440.461 239.435 447.179C239.272 447.952 239.11 448.725 238.943 449.522C237.873 454.762 237.185 459.955 236.672 465.281C236.355 465.281 236.038 465.281 235.711 465.281C234.414 446.692 234.414 446.692 234.75 437.883C234.757 437.214 234.765 436.546 234.773 435.857C234.86 430.773 235.211 426.131 236.672 421.248C239.106 418.873 241.232 417.861 244.352 416.592C247.461 415.285 249.587 413.707 252.167 411.524C252.966 410.863 253.765 410.202 254.588 409.521C256.826 407.623 256.826 407.623 258.665 405.699C266.022 398.708 280.598 394.285 290.484 396.785Z" fill="#E08F49"/>
<path d="M407.719 683.49C408.265 683.658 408.811 683.825 409.373 683.998C431.652 690.791 450.115 692.346 473.062 688.383C474.202 688.19 475.342 687.997 476.516 687.798C477.279 687.668 478.042 687.538 478.828 687.404C475.932 694.843 467.163 699.006 460.33 702.021C449.025 706.395 439.867 704.569 428.979 699.689C421.454 695.877 413.777 691.44 407.719 685.447C407.719 684.801 407.719 684.156 407.719 683.49Z" fill="#E08F49"/>
<path d="M398.109 338.074C398.426 338.074 398.744 338.074 399.07 338.074C399.203 345.7 398.817 353.174 398.109 360.764C397.972 362.301 397.972 362.301 397.832 363.869C397.608 366.361 397.38 368.853 397.148 371.344C396.397 371.634 395.645 371.924 394.87 372.223C392.124 373.395 390.54 374.717 388.38 376.787C382.637 382.154 376.736 387.484 370.242 391.893C368.34 390.278 366.437 388.663 364.477 387C366.072 382.852 369.113 380.041 372.104 376.909C382.538 365.71 392.71 352.648 398.109 338.074Z" fill="#E08F49"/>
<path d="M535.523 531.82C535.841 531.82 536.158 531.82 536.484 531.82C536.584 532.829 536.683 533.839 536.785 534.878C537.863 538.717 539.873 539.969 543.211 541.911C552.874 546.735 562.666 548.059 572.91 544.507C573.653 544.235 574.396 543.964 575.162 543.685C575.92 543.421 576.678 543.158 577.459 542.886C580.907 541.67 584.171 540.382 587.414 538.67C587.255 544.986 583.683 548.847 579.727 553.348C574.321 558.459 569.605 559.59 562.396 559.383C561.456 559.329 560.516 559.275 559.547 559.219C558.656 559.175 557.766 559.13 556.848 559.085C549.051 558.218 544.356 554.487 539.367 548.455C535.862 542.996 535.064 538.253 535.523 531.82Z" fill="#D6473D"/>
<path d="M345.258 335.139C344.772 342.652 343.324 349.693 341.474 356.972C341.22 358.007 340.965 359.042 340.703 360.108C339.57 364.646 338.392 368.977 336.609 373.301C336.926 372.978 337.244 372.655 337.57 372.322C337.887 373.291 338.205 374.26 338.531 375.258C328.889 375.431 319.321 374.889 309.703 374.279C311.96 371.292 314.16 368.705 317.03 366.329C324.74 359.583 331.137 351.648 337.187 343.373C343.234 335.139 343.234 335.139 345.258 335.139Z" fill="#E08F49"/>
<path d="M586.453 472.131C593.499 473.912 598.347 477.04 603.75 481.916C604.437 482.535 605.125 483.155 605.833 483.793C612.444 490.121 616.526 497.556 619.125 506.379C618.825 509.314 618.825 509.314 618.164 511.271C617.193 510.706 616.222 510.141 615.221 509.559C614.609 509.205 613.997 508.85 613.367 508.485C612.115 507.753 610.868 507.012 609.628 506.26C606.642 504.464 604.269 503.331 600.867 502.465C600.55 507.631 600.233 512.798 599.906 518.121C599.589 518.121 599.272 518.121 598.945 518.121C598.932 516.972 598.918 515.823 598.904 514.639C598.703 506.335 598.118 498.48 595.822 490.478C595.637 489.815 595.453 489.152 595.262 488.47C593.753 483.607 591.349 480.13 588.375 476.045C588.375 475.399 588.375 474.753 588.375 474.088C587.741 474.088 587.107 474.088 586.453 474.088C586.453 473.442 586.453 472.796 586.453 472.131Z" fill="#FFF8E8"/>
<path d="M294.328 477.023C295.805 480.031 294.504 481.969 293.487 485.096C291.245 492.026 290.336 498.53 289.944 505.767C289.902 506.488 289.861 507.208 289.818 507.95C289.717 509.709 289.62 511.469 289.523 513.229C289.206 513.229 288.889 513.229 288.562 513.229C288.245 510.645 287.928 508.062 287.602 505.4C285.939 506.316 284.278 507.234 282.617 508.152C281.691 508.663 280.766 509.174 279.813 509.701C277.248 511.149 274.731 512.654 272.227 514.207C274.195 502.32 277.439 490.225 286.641 481.916C289.122 480.121 291.663 478.518 294.328 477.023Z" fill="#EBD6B2"/>
<path d="M578.766 485.83C582.981 488.129 582.981 488.129 584.531 490.723C585.546 495.573 585.28 499.263 582.73 503.505C579.316 506.674 576.772 506.727 572.291 506.639C570.117 506.379 570.117 506.379 567.234 504.972C564.491 501.392 563.946 498.157 564.352 493.658C567.617 487.126 571.557 484.545 578.766 485.83Z" fill="#FFFBF3"/>
<path d="M344.297 484.852C347.576 486.929 349.822 488.898 351.023 492.68C351.524 496.585 351.187 498.253 349.282 501.731C347.18 504.422 347.18 504.422 344.297 506.379C340.346 506.826 338.277 506.826 334.868 504.667C331.799 501.453 330.992 499.716 330.423 495.248C330.981 490.541 332.395 489.143 335.648 485.83C338.628 484.313 341.009 484.568 344.297 484.852Z" fill="#FFFBF3"/>
<path d="M308.922 519.467C311.949 520.151 312.588 520.634 314.508 523.014C315.596 525.338 315.596 525.338 316.55 527.906C316.869 528.754 317.189 529.602 317.518 530.475C318.143 532.218 318.736 533.974 319.313 535.734C322.878 537.705 325.874 537.881 329.883 537.691C329.883 538.337 329.883 538.983 329.883 539.648C328.297 539.971 326.712 540.294 325.078 540.627C325.078 541.273 325.078 541.919 325.078 542.584C316.721 541.762 309.048 540.72 302.016 535.734C299.726 532.236 299.471 531.052 300.094 526.928C302.362 522.962 304.418 520.366 308.922 519.467Z" fill="#A9322F"/>
<path d="M447.117 597.381C451.274 601.614 450.176 607.974 450.18 613.588C450.192 614.525 450.204 615.463 450.216 616.429C450.219 617.779 450.219 617.779 450.221 619.157C450.225 619.977 450.229 620.798 450.233 621.643C450 623.801 450 623.801 448.078 626.736C444.732 626.452 443.521 626.024 441.171 623.495C437.724 618.29 436.649 614.419 437.508 608.145C439.846 603.382 443.056 600.576 447.117 597.381Z" fill="black"/>
<path d="M303.938 586.617C305.206 587.263 306.474 587.909 307.781 588.574C307.237 592.624 306.336 596.03 304.726 599.77C304.308 600.744 303.891 601.719 303.461 602.723C303.024 603.725 302.586 604.727 302.136 605.759C301.706 606.765 301.276 607.771 300.833 608.808C296.58 618.663 296.58 618.663 294.328 621.844C290.785 622.15 290.785 622.15 287.602 621.844C288.196 617.34 290.016 613.657 292.046 609.673C292.741 608.287 293.435 606.901 294.129 605.515C294.481 604.816 294.834 604.117 295.197 603.397C296.219 601.358 297.223 599.311 298.221 597.259C298.526 596.63 298.832 596.001 299.147 595.353C299.44 594.751 299.732 594.148 300.034 593.528C302.859 587.716 302.859 587.716 303.938 586.617Z" fill="#F78E73"/>
<path d="M358.711 398.742C359.662 399.065 360.614 399.388 361.594 399.721C361.594 400.367 361.594 401.012 361.594 401.678C362.228 402.001 362.862 402.324 363.516 402.656C354.757 408.513 345.751 412.061 335.916 415.558C331.733 417.082 327.627 418.806 323.513 420.514C321.234 421.248 321.234 421.248 319.312 420.27C320.878 417.081 324.245 416.232 327.3 414.765C335.309 410.811 342.87 406.387 349.683 400.489C352.804 398.12 354.908 398.384 358.711 398.742Z" fill="#E08F49"/>
<path d="M577.805 584.66C579.787 585.088 579.787 585.088 581.648 585.639C582.369 587.596 582.369 587.596 582.609 590.531C581.777 592.389 580.926 594.242 579.959 596.032C578.57 598.742 577.476 601.514 576.363 604.353C575.055 607.618 573.788 610.635 571.799 613.526C570.262 615.762 569.559 617.224 569.156 619.887C566.814 619.52 566.814 619.52 564.352 618.908C564.034 618.262 563.717 617.617 563.391 616.951C564.206 614.592 564.206 614.592 565.508 611.65C565.975 610.583 566.442 609.517 566.923 608.418C567.422 607.298 567.921 606.179 568.436 605.026C569.402 602.83 570.368 600.635 571.333 598.44C571.791 597.407 572.249 596.375 572.72 595.312C573.737 592.998 574.724 590.678 575.688 588.341C576.844 585.639 576.844 585.639 577.805 584.66Z" fill="#F78D73"/>
<path d="M600.867 587.596C602.136 588.242 603.404 588.887 604.711 589.553C604.231 595.161 602.666 599.225 600.086 604.169C599.756 604.82 599.426 605.47 599.086 606.14C598.423 607.447 597.755 608.752 597.085 610.055C595.423 613.312 593.823 616.6 592.219 619.887C590.633 619.887 589.048 619.887 587.414 619.887C587.861 613.24 589.769 608.099 592.519 602.09C592.895 601.233 593.271 600.376 593.658 599.493C595.647 595.064 597.626 591.243 600.867 587.596Z" fill="#F78E73"/>
<path d="M345.258 520.078C347.6 520.445 347.6 520.445 350.062 521.057C350.38 521.702 350.697 522.348 351.023 523.014C352.961 524.123 352.961 524.123 354.867 524.971C355.288 528.09 355.288 528.09 354.867 531.82C349.324 537.602 341.141 539.322 333.727 541.605C333.727 539.668 333.727 537.731 333.727 535.734C334.599 535.411 335.471 535.089 336.369 534.756C340.478 532.181 341.572 529.409 343.336 524.971C343.732 524.002 344.129 523.033 344.537 522.035C344.775 521.389 345.013 520.744 345.258 520.078Z" fill="#A6312F"/>
<path d="M280.875 585.639C281.826 585.962 282.778 586.284 283.758 586.617C283.179 591.599 281.672 595.667 279.674 600.194C279.371 600.883 279.068 601.572 278.757 602.281C274.498 611.815 274.498 611.815 271.266 615.973C268.563 616.462 268.563 616.462 266.461 615.973C266.909 609.895 268.307 605.5 271.085 600.133C271.416 599.463 271.746 598.792 272.086 598.101C274.022 594.258 276.049 590.788 278.953 587.596C279.587 587.596 280.222 587.596 280.875 587.596C280.875 586.95 280.875 586.304 280.875 585.639Z" fill="#F78F73"/>
<path d="M323.156 589.553C325.138 589.981 325.138 589.981 327 590.531C326.52 596.801 324.361 601.805 321.775 607.472C321.383 608.358 320.991 609.244 320.587 610.157C317.66 616.677 317.66 616.677 315.469 618.908C312.466 619.031 312.466 619.031 309.703 618.908C311.505 611.839 314.075 605.674 317.511 599.277C317.948 598.442 318.385 597.608 318.836 596.748C322.021 590.709 322.021 590.709 323.156 589.553Z" fill="#F78E73"/>
<path d="M621.047 589.553C623.029 589.981 623.029 589.981 624.891 590.531C624.427 596.145 622.869 600.039 620.146 604.903C619.456 606.171 618.767 607.439 618.078 608.706C617.472 609.813 616.866 610.919 616.242 612.059C615.591 613.358 614.944 614.659 614.32 615.973C612.418 615.65 610.515 615.327 608.555 614.994C609.118 611.345 610.124 608.597 611.888 605.377C612.357 604.514 612.827 603.652 613.311 602.763C613.802 601.875 614.294 600.987 614.801 600.072C615.293 599.169 615.784 598.265 616.291 597.335C619.926 590.695 619.926 590.695 621.047 589.553Z" fill="#F78D73"/>
<path d="M667.172 536.713C665.903 541.557 664.635 546.4 663.328 551.391C658.591 550.185 657.607 548.385 654.68 544.541C654.045 543.895 653.411 543.249 652.758 542.584C652.758 541.938 652.758 541.292 652.758 540.627C654.796 539.782 656.839 538.948 658.884 538.12C660.589 537.421 660.589 537.421 662.33 536.709C665.25 535.734 665.25 535.734 667.172 536.713Z" fill="#F2A87C"/>
<path d="M300.094 563.133C300.411 563.779 300.728 564.424 301.055 565.09C296.102 569.053 296.102 569.053 292.226 568.82C290.352 568.269 288.491 567.675 286.641 567.047C286.641 566.401 286.641 565.755 286.641 565.09C294.911 561.46 294.911 561.46 300.094 563.133Z" fill="#23171B"/>
<path d="M586.453 563.133C592.604 562.632 596.043 563.016 600.867 567.047C598.945 569.004 598.945 569.004 595.822 569.432C591.126 568.874 589.745 567.463 586.453 564.111C586.453 563.788 586.453 563.466 586.453 563.133Z" fill="#201317"/>
<path d="M570.117 569.004C571.703 569.973 573.288 570.941 574.922 571.939C574.288 573.231 573.653 574.523 573 575.854C571.732 575.208 570.463 574.562 569.156 573.896C569.473 572.282 569.79 570.667 570.117 569.004Z" fill="#1E1116"/>
<path d="M317.391 569.004C317.15 571.328 317.15 571.328 316.43 573.896C314.448 575.181 314.448 575.181 312.586 575.854C313.588 569.004 313.588 569.004 317.391 569.004Z" fill="#241519"/>
</g>
<defs>
<clipPath id="clip0_2039_433">
<rect width="900" height="900" fill="white"/>
</clipPath>
</defs>
</svg>
