<svg width="900" height="900" viewBox="0 0 900 900" fill="none" xmlns="http://www.w3.org/2000/svg">
<g clip-path="url(#clip0_2039_433)">
<path d="M301.921 25.976C314.115 21.6917 314.116 21.6925 327.41 22.1956C328.592 22.1993 329.739 22.2026 330.886 22.2062C361.514 22.1127 390.8 31.2467 415.379 49.6847C417.976 51.6902 420.418 53.8609 423.531 54.9896C425.32 55.2268 425.32 55.2263 427.605 53.7413C432.019 50.6163 436.543 48.4235 441.773 47C454.656 45.3948 464.763 47.6258 475.543 54.837C476.182 55.28 476.802 55.7101 477.421 56.14C497.172 40.9241 518.224 29.2426 542.994 24.5233L545.062 24.1481C552.88 22.6476 560.421 22.0828 568.355 22.115C570.344 22.1323 572.333 22.1485 574.323 22.1505C582.745 22.1496 593.317 20.8954 600.47 26.1477C601.953 27.8044 601.952 27.805 602.066 30.3828C602.05 31.4097 602.035 32.4066 602.02 33.4033C601.968 47.8033 596.258 62.4518 588.415 74.3058C586.587 77.026 584.806 79.6559 583.453 82.6485C608.281 90.2737 631.435 101.475 652.894 116.106C653.525 116.54 654.138 116.962 654.749 117.383C665.303 124.597 674.334 132.806 683.157 142.048C684.257 143.201 685.361 144.351 686.471 145.494C712.74 172.536 732.135 206.743 746.965 241.149C747.48 242.348 747.479 242.349 747.984 243.523C759.601 270.336 769.004 297.729 777.546 325.646C777.85 326.641 777.85 326.642 778.148 327.617C782.102 340.539 785.831 353.509 789.32 366.565C799.312 403.989 809.461 440.75 828.365 474.838C842.132 499.481 854.181 524.442 860.793 552.041C860.975 552.811 861.151 553.558 861.328 554.305C866.268 574.059 866.612 598.568 861 618.187C860.801 618.843 860.607 619.48 860.414 620.117C852.87 645.004 837.345 662.763 816.539 677.703C817.453 675.179 818.314 672.646 819.139 670.091C819.498 668.95 819.846 667.842 820.195 666.734C826.136 649.15 825.97 626.948 822.002 608.866C821.551 607.163 821.551 607.162 821.109 605.492C819.198 598.111 816.935 590.881 814.351 583.708C814.105 583.034 813.865 582.38 813.625 581.727C812.571 578.819 812.129 575.865 809.226 574.413C810.75 584.213 811.227 593.943 811.228 603.849C811.227 604.505 811.227 605.142 811.226 605.778C811.238 616.94 810.826 627.975 809.225 639.032C809.109 639.788 808.996 640.521 808.883 641.255C808.028 646.821 807.146 652.318 805.499 657.715C805.034 659.161 804.575 660.609 804.147 662.067C800.043 676.067 793.997 689.475 785.25 701.233C784.7 701.935 784.166 702.615 783.632 703.296C779.317 708.928 774.934 714.177 769.501 718.761C768.712 719.408 767.945 720.036 767.179 720.664C757.453 728.999 745.223 738.976 732.445 741.687C737.042 732.692 741.38 723.687 744.562 714.084C744.851 713.174 745.132 712.291 745.414 711.409C746.755 707.241 748.487 703.893 747.07 699.641C745.368 702.777 743.565 705.811 741.585 708.781C715.364 740.753 681.023 756.185 641.039 763.624C641.349 763.003 641.651 762.4 641.953 761.797C642.404 761.051 642.843 760.328 643.281 759.604C643.84 758.679 644.381 757.782 644.923 756.884C650.058 748.454 653.243 739.481 655.642 729.931C656.057 728.223 656.057 728.223 656.463 726.548C657.718 721.619 660.052 716.462 658.406 711.523C652.666 724.041 644.645 737.967 633.738 746.668C633.112 747.15 632.505 747.618 631.898 748.086C615.6 761.429 597.386 767.396 577.054 771.851C580.718 765.875 583.615 760.077 585.582 753.338C585.791 752.582 585.993 751.848 586.195 751.114C587.078 747.932 588.651 744.772 587.109 741.687C582.81 747.095 578.269 752.848 572.418 756.619C571.863 756.954 571.304 757.286 570.744 757.618C570.715 756.283 570.686 754.949 570.656 753.614C570.515 747.555 570.378 741.495 570.247 735.436C570.228 734.554 570.228 734.554 570.209 733.69C569.01 733.69 569.01 733.689 567.081 735.098C556.548 743.333 545.586 751.296 533.648 758.353C532.625 758.948 531.633 759.526 530.641 760.104C508.474 773.365 480.585 787.141 451.878 789.25C413.172 790.193 372.823 765.352 345.463 746.612C340.921 743.441 336.305 740.363 331.6 737.333C330.548 741.301 330.219 745.124 330.112 749.155C330.096 749.979 330.08 750.779 330.063 751.579C329.994 754.2 329.926 756.822 329.864 759.443C329.847 760.177 329.829 760.91 329.812 761.644C326.662 759.257 323.794 756.585 321.521 753.634C321.073 752.991 320.637 752.367 320.203 751.742C317.972 748.589 315.756 745.427 313.583 742.234C313.037 741.427 312.506 740.643 311.976 739.859C310.95 741.912 310.95 741.912 312.374 746.259C312.589 746.88 312.796 747.483 313.004 748.086C315.833 756.363 319.22 763.654 324.648 770.573C325.001 771.007 325.344 771.429 325.687 771.851C323.083 771.232 320.485 770.592 317.89 769.934C284.537 761.258 261.638 742.294 244.289 712.78C243.684 711.731 243.095 710.713 242.507 709.695C241.501 712.715 241.845 714.411 242.533 717.459C242.78 718.471 242.78 718.472 243.022 719.464C246.679 734.582 252.301 752.059 263.302 763.454C263.879 764.002 263.88 764.002 264.445 764.539H260.789C230.261 760.569 199.266 749.042 177.631 726.312C177.002 725.635 176.391 724.978 175.781 724.32C170.607 718.964 165.783 713.694 161.67 707.467C159.532 704.072 157.314 700.908 154.757 697.812C155.201 702.351 155.927 706.491 157.331 710.83C157.676 711.843 157.676 711.844 158.014 712.837C160.253 719.513 162.977 725.862 166.066 732.186C167.316 734.727 168.485 737.168 169.382 739.859C161.198 736.402 153.484 732.379 145.903 727.748C119.918 711.543 103.063 686.086 95.9376 656.501C95.7357 655.629 95.5391 654.783 95.3432 653.937C90.1549 631.608 90.7029 608.317 92.3754 585.563C92.5091 583.834 92.6392 582.104 92.7614 580.375C92.8053 579.738 92.8484 579.12 92.891 578.502C93.0046 576.928 93.0044 576.928 93.1157 575.385C93.1946 574.289 93.2714 573.225 93.348 572.161C93.4051 571.373 93.4597 570.608 93.5151 569.843H92.601C91.7256 571.802 90.8533 573.762 89.9837 575.723C89.6305 576.521 89.2875 577.296 88.9448 578.07C85.6065 585.575 82.5445 593.163 80.1441 601.026C72.9806 627.27 74.5718 656.632 87.5065 680.599C87.9956 681.479 88.47 682.333 88.9448 683.188C82.7046 680.153 76.8739 676.818 71.2636 672.728C70.6131 672.244 69.9815 671.774 69.3501 671.304C65.0905 668.176 61.4729 664.971 58.1192 660.875C57.7228 660.381 57.3373 659.901 56.9526 659.421C55.3438 657.554 53.8086 655.67 52.3112 653.712C34.5038 628.195 29.374 596.299 34.3872 565.802C34.7045 564.151 34.7041 564.15 35.0151 562.531C40.4432 532.65 52.5236 505.785 66.8009 479.166C85.9463 443.567 96.523 404.79 106.166 365.762C114.387 332.489 123.512 298.917 136.36 267.094C137.109 265.241 137.851 263.386 138.588 261.529C143.103 250.151 147.68 238.817 153.043 227.809C153.897 226.077 154.75 224.344 155.586 222.604C163.374 206.353 172.02 190.527 182.883 176.118C184.357 174.184 185.821 172.248 187.248 170.28C194.709 159.901 203.051 150.864 212.285 142.031C212.926 141.42 213.549 140.827 214.171 140.234C242.743 112.765 277.135 94.4009 314.793 82.5487C315.7 82.2719 316.58 82.0027 317.46 81.7341C317.46 79.9063 317.46 79.9062 316.253 78.0104C311.923 71.739 308.742 65.2766 306.23 58.0983C303.25 49.1452 297.375 35.0692 301.921 25.976Z" fill="#2C1B24"/>
<path d="M447.115 104.997C448.935 106.306 450.71 107.305 452.742 108.242C453.627 107.578 453.627 107.578 454.531 106.9C481.175 87.9459 515.857 86.7458 547.237 91.7605C570.234 95.8295 593.578 101.961 613.874 113.754C616.131 115.028 618.469 116.111 620.815 117.211C628.842 121.203 636.33 126.129 643.781 131.094C644.408 131.51 645.035 131.927 645.681 132.356C661.194 142.849 674.184 156.753 685.828 171.313C686.764 172.439 687.702 173.562 688.645 174.683C695.383 182.806 701.02 191.399 706.524 200.393C707.617 202.153 708.741 203.882 709.897 205.601C740.995 252.052 756.797 309.75 771.08 363.25C775.057 378.125 779.404 392.832 784.147 407.48C785.763 412.474 787.283 417.486 788.749 422.526C793.944 440.348 801.214 456.891 809.488 473.468C810.913 476.327 812.324 479.192 813.729 482.062C817.406 489.537 821.19 496.923 825.248 504.2C842.767 535.633 856.678 571.685 847.545 608.174C847.267 609.099 846.989 610.024 846.703 610.977C846.257 612.519 846.257 612.519 845.803 614.094C843.253 622.323 843.253 622.323 840.304 625.602C839.701 625.602 839.098 625.602 838.476 625.602C838.397 624.581 838.318 623.561 838.237 622.509C835.724 593.358 825.619 568.193 811.226 542.916C807.197 535.79 803.477 528.509 799.743 521.227C799.406 520.57 799.068 519.913 798.721 519.236C797.375 516.614 796.03 513.991 794.685 511.368C780.85 479.835 780.85 479.835 761.695 451.93C764.752 466.599 768.128 481.083 772.549 495.405C772.743 496.033 772.937 496.661 773.136 497.308C774.304 501.081 775.483 504.85 776.666 508.619C783.103 529.153 788.912 549.774 793.687 570.758C793.892 571.66 794.098 572.561 794.31 573.491C799.212 596.279 798.845 624.168 792.773 646.625C792.607 647.277 792.44 647.93 792.269 648.602C787.353 667.558 777.936 683.675 764.437 697.812C764.437 694.916 764.932 692.548 765.572 689.725C765.812 688.662 766.051 687.598 766.297 686.503C766.551 685.39 766.804 684.277 767.065 683.13C767.802 679.873 768.537 676.615 769.258 673.355C769.651 671.597 770.059 669.842 770.498 668.094C772.22 660.792 772.073 653.396 772.035 645.939C772.033 645.229 772.031 644.518 772.028 643.786C771.914 620.655 767.168 599.352 760.781 577.156C760.772 578.167 760.764 579.178 760.755 580.219C760.447 611.346 759.261 642.742 745.242 671.305C744.719 672.376 744.195 673.447 743.656 674.55C739.46 682.877 734.455 690.42 728.789 697.812C728.078 698.74 727.368 699.667 726.636 700.622C722.562 705.762 718.333 710.14 713.25 714.266C712.52 714.902 711.791 715.538 711.039 716.194C700.169 725.507 687.681 731.848 674.859 738.031C675.923 734.496 677.258 731.356 679.03 728.12C687.843 711.848 693.237 693.231 695.882 674.961C696.039 673.916 696.039 673.916 696.199 672.85C697.801 661.558 697.873 650.237 697.882 638.855C697.883 637.799 697.883 637.799 697.885 636.722C697.885 634.662 697.877 632.603 697.864 630.543C697.861 629.886 697.858 629.228 697.854 628.55C697.796 623.444 697.306 618.444 696.566 613.387C696.796 610.977 696.796 610.977 698.781 608.846C701.39 606.967 704.106 605.337 706.851 603.664C731.307 584.298 745.369 554.482 749.812 524.141C751.236 497.651 748.203 471.686 730.106 451.223C727.407 448.761 724.697 447.245 721.476 445.531C721.587 444.943 721.698 444.354 721.812 443.748C730.168 397.634 724.518 351.64 705.08 309.05C704.643 308.092 704.207 307.133 703.757 306.145C700.307 298.74 696.36 291.694 692.226 284.656C692.484 285.728 692.742 286.8 693.007 287.905C693.984 291.971 694.958 296.038 695.931 300.104C696.348 301.848 696.766 303.591 697.186 305.334C701.121 321.7 704.893 338.006 707.201 354.69C707.482 356.713 707.774 358.735 708.067 360.757C709.635 371.757 710.691 382.763 710.679 393.887C710.678 394.644 710.677 395.402 710.677 396.183C710.304 435.372 699.997 470.953 674.859 501.289C674.07 502.254 673.282 503.219 672.495 504.185C671.117 505.873 669.735 507.558 668.346 509.237C667.233 510.605 666.163 512.009 665.147 513.45C664.525 514.217 664.525 514.217 663.89 515C663.287 515 662.684 515 662.062 515C662.173 513.957 662.284 512.913 662.398 511.838C665.592 482.863 665.592 482.863 665.718 453.758C665.687 453.16 665.656 452.562 665.624 451.947C664.507 430.905 661.921 410.373 657.492 389.773C657.261 388.697 657.03 387.621 656.793 386.512C646.122 338.033 626.699 288.763 595.335 249.922C595.763 250.892 596.191 251.861 596.631 252.861C620.54 307.139 638.264 361.367 648.351 419.937C645.04 419.937 644.095 419.14 641.392 417.292C640.559 416.725 639.726 416.158 638.867 415.573C637.981 414.959 637.095 414.344 636.183 413.71C635.276 413.085 634.368 412.46 633.434 411.815C616.006 399.71 599.665 385.86 585.909 369.625C584.816 368.357 583.689 367.12 582.539 365.904C571.646 354.331 563.406 340.714 555.456 327.031C554.305 325.051 553.141 323.079 551.975 321.108C541.494 303.18 533.84 285.052 531.439 264.377C530.719 258.199 529.739 252.131 528.495 246.037C528.338 245.27 528.182 244.502 528.021 243.712C527.424 240.849 526.792 238.074 525.867 235.297C525.858 236.137 525.85 236.977 525.841 237.842C525.086 297.313 509.92 362.731 466.072 405.898C462.66 409.2 459.168 412.368 455.484 415.367C454.881 415.066 454.277 414.764 453.656 414.453C453.988 413.852 454.32 413.251 454.663 412.632C468.773 385.931 471.728 355.505 471.023 325.789C470.869 326.454 470.715 327.118 470.556 327.803C468.924 334.606 466.905 341.156 464.51 347.727C464.15 348.715 463.79 349.704 463.419 350.722C456.221 370.184 447.178 387.927 434.46 404.398C433.624 405.514 433.624 405.514 432.772 406.651C424.108 417.912 412.564 430.788 398.812 435.477C399.39 431.775 400.559 428.405 401.803 424.889C418.241 378.099 417.56 325.837 408.867 277.344C408.565 277.042 408.263 276.74 407.953 276.43C407.739 277.555 407.526 278.68 407.306 279.84C399.192 320.602 386.504 359.238 358.593 390.687C357.383 386.76 358.348 384.884 359.964 381.09C372.926 348.599 376.169 312.137 377.349 277.465C377.387 276.353 377.425 275.24 377.465 274.094C377.65 268.52 377.815 262.946 377.952 257.371C378.243 246.655 378.814 236.57 381.445 226.156C381.758 224.635 382.066 223.112 382.359 221.586C376.981 231.361 371.979 241.173 367.791 251.521C359.02 273.138 348.733 294.48 335.742 313.906C335.183 314.76 334.625 315.615 334.049 316.495C326.913 327.342 319.438 337.798 311.062 347.727C310.263 348.686 309.464 349.645 308.666 350.604C302.954 357.444 297.064 364.092 290.953 370.578C289.857 371.748 289.857 371.748 288.739 372.942C283.174 378.706 277.116 383.557 270.773 388.414C267.603 390.865 264.484 393.378 261.36 395.886C260.756 396.37 260.152 396.854 259.529 397.353C258.121 398.482 256.712 399.612 255.304 400.742C253.929 397.992 254.888 396.163 255.611 393.205C255.752 392.626 255.893 392.046 256.038 391.45C256.508 389.537 256.99 387.627 257.475 385.717C257.641 385.059 257.807 384.401 257.979 383.723C271.049 332.209 293.385 277.507 324.773 234.383C325.812 232.926 326.85 231.468 327.887 230.009C330.775 225.957 333.709 221.939 336.656 217.93C337.119 217.296 337.581 216.662 338.058 216.01C343.295 208.849 348.691 201.923 354.522 195.237C357.876 191.384 361.095 187.442 364.249 183.424C364.679 182.878 365.108 182.332 365.551 181.77C367.758 178.958 367.758 178.958 369.562 175.883C357.168 179.277 347.256 185.873 337.57 194.164C336.84 194.771 336.111 195.378 335.36 196.003C325.524 204.463 317.573 214.661 310.148 225.242C309.306 226.399 308.462 227.555 307.616 228.709C296.096 244.556 287.216 261.385 279.07 279.172C278.675 280.026 278.279 280.88 277.872 281.76C256.169 328.838 240.065 377.778 232.453 429.078C232.318 429.963 232.184 430.848 232.046 431.76C228.832 453.95 229.254 478.286 232.053 500.493C232.435 503.874 232.524 507.036 232.453 510.43C203.647 482.126 187.872 440.303 187.299 400.207C187.276 396.919 187.291 393.632 187.321 390.345C187.325 389.481 187.33 388.617 187.335 387.727C187.406 376.14 187.645 364.759 189.85 353.351C190.421 350.39 190.956 347.424 191.487 344.455C192.162 340.687 192.853 336.923 193.548 333.159C193.68 332.44 193.813 331.722 193.95 330.982C195.716 321.495 197.874 312.238 200.46 302.937C200.983 300.959 201.503 298.98 202.017 297C202.253 296.095 202.489 295.191 202.731 294.259C203.078 292.927 203.078 292.927 203.431 291.569C203.676 290.628 203.921 289.687 204.174 288.718C204.765 286.45 205.355 284.182 205.945 281.914C189.006 307.322 180.101 338.107 174.867 367.836C174.732 368.595 174.598 369.355 174.46 370.137C170.248 395.205 173.659 420.851 178.523 445.531C177.689 446.14 177.689 446.14 176.837 446.761C162.646 457.239 154.548 472.151 151.695 489.53C149.348 505.641 148.867 522.002 152.929 537.852C153.111 538.563 153.292 539.275 153.48 540.008C161.444 570.319 177.835 594.607 204.117 611.891C204.061 612.408 204.006 612.925 203.949 613.458C200.674 644.898 200.041 681.126 213.257 710.609C213.928 712.398 214.594 714.188 215.257 715.979C218.128 723.527 221.632 730.763 225.14 738.031C220.144 736.641 216.087 734.279 211.715 731.576C210.986 731.126 210.257 730.677 209.507 730.214C203.634 726.532 198.279 722.601 193.148 717.922C192.394 717.242 191.64 716.562 190.863 715.862C161.642 688.147 154.579 649.292 151.384 610.893C151.123 608.436 150.716 606.076 150.187 603.664C148.708 606.385 147.84 608.963 147.109 611.969C146.886 612.886 146.663 613.803 146.433 614.747C146.086 616.218 146.086 616.218 145.731 617.718C145.49 618.729 145.25 619.74 145.002 620.781C141.139 637.303 138.368 653.543 137.79 670.505C137.751 671.592 137.712 672.678 137.672 673.798C137.411 681.502 137.274 689.19 137.39 696.898C123.996 686.238 116.103 670.282 111.796 653.937C111.589 653.195 111.381 652.453 111.168 651.688C104.188 625.942 105.953 597.791 109.968 571.672C110.143 570.464 110.317 569.255 110.489 568.046C113.222 548.96 116.951 530.177 121.3 511.394C124.798 496.244 127.616 480.993 130.078 465.641C129.745 466.443 129.413 467.245 129.071 468.072C119.681 489.947 108.254 510.973 96.2781 531.517C76.9632 564.669 62.9322 596.048 60.6089 634.742C51.0852 626.128 49.5861 610.362 48.7261 598.18C47.9534 581.739 48.1807 566.415 53.2964 550.648C53.5658 549.796 53.8352 548.944 54.1128 548.066C60.4079 528.381 69.252 510.137 78.6974 491.813C99.5424 451.264 112.631 409.326 123.642 365.181C131.573 333.488 140.363 301.135 152.929 270.945C153.62 269.262 154.311 267.578 155.002 265.894C167.42 235.685 181.057 206.282 201.375 180.453C201.998 179.653 202.621 178.853 203.263 178.029C208.772 171.12 214.765 164.685 220.863 158.299C222.231 156.862 223.587 155.414 224.94 153.963C231.16 147.472 238.008 142.194 245.283 136.963C246.932 135.77 248.56 134.553 250.184 133.325C259.291 126.514 269.106 121.006 279.07 115.555C279.689 115.208 280.308 114.862 280.946 114.505C293.046 107.766 306.183 103.452 319.289 99.1016C320.445 98.7176 320.445 98.7176 321.624 98.3259C358.505 86.3903 413.838 79.9837 447.115 104.997Z" fill="#30465E"/>
<path d="M530.437 319.391C531.04 319.391 531.644 319.391 532.265 319.391C532.494 319.868 532.723 320.345 532.959 320.837C542.395 340.385 553.614 357.998 567.488 374.688C570.297 378.077 572.856 381.493 575.226 385.203C574.666 385.221 574.106 385.239 573.528 385.258C538.186 386.298 538.186 386.298 508.475 403.816C506.016 407.102 504.552 410.666 503.015 414.453C504.031 414.135 504.031 414.135 505.066 413.811C508.171 412.841 511.277 411.876 514.384 410.911C515.981 410.411 515.981 410.411 517.61 409.901C541.426 402.521 579.544 398.394 603.248 409.157C606.864 411.471 609.628 414.346 612.371 417.621C614.433 419.942 616.849 421.743 619.33 423.594C620.77 424.686 620.77 424.686 622.24 425.8C626.095 428.631 630.043 431.323 634.012 433.991C634.689 434.448 635.366 434.906 636.064 435.377C639.325 437.538 642.395 439.338 646.02 440.818C647.827 441.701 647.827 441.701 649.265 442.789C650.212 445.612 650.532 447.332 650.636 450.216C650.713 451.352 650.713 451.352 650.791 452.51C650.939 455.059 651.023 457.604 651.093 460.156C651.126 461.051 651.158 461.946 651.192 462.868C651.999 487.689 651.521 518.715 640.125 541.508C641.326 541.266 642.525 541.017 643.724 540.765C644.392 540.627 645.06 540.489 645.748 540.347C649.424 539.405 652.99 538.169 656.578 536.938C656.22 538.293 656.22 538.293 655.855 539.676C654.933 543.17 654.011 546.665 653.09 550.159C652.672 551.746 652.253 553.334 651.834 554.921C649.706 562.982 647.58 571.043 645.555 579.131C632.913 629.502 632.913 629.502 622.757 650.281C622.326 651.174 622.326 651.174 621.885 652.084C615.531 665.02 607.516 676.873 598.078 687.758C597.326 688.632 596.574 689.506 595.8 690.407C591.62 695.175 591.62 695.175 589.851 696.898C589.248 696.898 588.645 696.898 588.023 696.898C588.023 697.502 588.023 698.105 588.023 698.727C585.815 701.087 583.192 703.061 580.711 705.125C580.225 705.539 579.739 705.953 579.238 706.38C548.218 732.807 489.901 774.475 447.015 773.051C417.79 770.606 390.692 753.38 365.906 738.945C365.041 738.447 364.176 737.948 363.285 737.435C343.256 725.89 324.556 713.282 307.829 697.255C306.624 696.11 305.397 694.989 304.167 693.871C269.218 661.031 258.231 608.992 248.34 564.071C246.72 556.714 244.978 549.417 242.993 542.151C242.507 539.68 242.507 539.68 243.422 536.938C243.886 537.191 244.35 537.444 244.828 537.705C248.639 539.71 251.869 541.073 256.218 541.508C255.388 539.952 255.388 539.952 254.54 538.366C252.532 534.338 251.266 530.321 250.163 525.969C249.969 525.217 249.774 524.465 249.574 523.691C247.806 516.571 246.852 509.502 246.164 502.203C246.052 501.232 246.052 501.232 245.937 500.241C245.267 494.255 245.103 488.339 245.096 482.319C245.093 481.313 245.09 480.308 245.087 479.273C245.082 477.155 245.08 475.037 245.08 472.919C245.078 469.728 245.062 466.537 245.044 463.347C244.971 437.181 244.971 437.181 247.078 429.992C249.453 427.861 251.426 426.824 254.383 425.643C257.34 424.422 259.363 422.947 261.817 420.909C262.577 420.291 263.337 419.674 264.12 419.038C266.249 417.265 266.249 417.265 267.998 415.467C283.02 401.451 315.664 402.945 334.828 403.484C331.88 413.778 324.232 421.948 316.547 429.078C315.628 429.988 314.713 430.901 313.804 431.82C328.257 428.411 343.535 420.632 354.466 410.526C357.63 408.383 359.384 408.53 363.164 408.969C366.062 409.726 368.86 410.692 371.676 411.711C373.138 412.227 374.601 412.742 376.064 413.253C376.703 413.483 377.342 413.713 378 413.95C379.626 414.544 379.626 414.544 381.445 414.453C378.601 407.94 375.29 401.321 368.648 398C370.166 394.125 373.058 391.499 375.903 388.574C385.829 378.112 395.504 365.911 400.64 352.297C400.942 352.297 401.244 352.297 401.554 352.297C401.898 384.097 395.596 424.352 376.875 451.016C397.061 451.779 413.355 446.527 428.462 432.906C429.196 432.221 429.93 431.537 430.686 430.831C432.632 429.078 432.632 429.078 435.375 427.25C433.766 432.661 431.356 437.685 428.976 442.789C456.378 437.807 481.787 415.569 497.341 393.234C512.909 370.221 523.886 346.331 530.437 319.391Z" fill="#FDD4A5"/>
<path d="M364.935 468.783C366.192 469.846 367.43 470.932 368.648 472.039C369.329 472.636 370.011 473.234 370.712 473.849C381.718 484.091 388.829 498.178 389.633 513.25C389.646 513.828 389.659 514.405 389.672 515C387.484 512.307 385.381 509.571 383.331 506.773C378.523 500.355 372.646 494 364.992 491.234C365.312 492.095 365.631 492.955 365.96 493.841C366.38 494.991 366.8 496.14 367.22 497.29C367.634 498.414 368.047 499.538 368.473 500.696C373.414 515.825 370.874 533.099 364.364 547.335C359.565 556.197 352.972 563.462 343.251 566.737C333.491 568.493 323.869 567.721 315.54 562.164C304.901 553.763 300.182 541.437 297.705 528.532C296.116 512.896 296.856 497.898 301.922 483.008C291.924 488.642 286.639 496.725 283.184 507.573C280.95 516.889 281.49 526.51 281.812 536.023C280.288 534.501 278.765 532.978 277.242 531.453C276.752 530.971 276.262 530.489 275.757 529.993C269.128 522.931 266.787 514.236 266.045 504.774C265.136 501.365 263.586 500.637 260.789 498.547C259.049 496.492 257.524 494.302 255.99 492.091C255.583 491.52 255.175 490.95 254.755 490.361C253.044 487.933 251.679 485.841 250.734 483.008C251.344 483.195 251.953 483.383 252.58 483.576C258.681 485.359 264.501 486.308 270.844 486.664C270.94 485.987 271.037 485.309 271.137 484.611C271.803 481.912 272.665 480.534 274.386 478.38C274.855 477.785 275.324 477.19 275.807 476.577C276.28 475.985 276.754 475.392 277.242 474.781C278.16 473.565 279.075 472.347 279.984 471.125C279.599 470.595 279.214 470.065 278.817 469.518C273.843 462.426 273.843 462.426 273.586 457.414C275.456 458.347 277.322 459.284 279.174 460.253C279.837 460.579 280.501 460.905 281.184 461.242C281.84 461.575 282.497 461.909 283.173 462.252C289.537 464.044 294.97 460.661 300.483 457.846C321.611 449.141 347.194 455.516 364.935 468.783Z" fill="#2A1822"/>
<path d="M602.023 462.831C606.008 464.426 608.825 463.351 612.696 461.809C613.565 461.396 614.435 460.982 615.331 460.556C616.214 460.14 617.098 459.724 618.009 459.296C618.671 458.976 619.333 458.657 620.015 458.328C619.37 463.013 617.228 466.002 614.606 469.843C613.362 471.94 613.362 471.94 614.209 473.792C614.821 474.734 614.821 474.734 615.445 475.695C616.019 477.06 616.019 477.06 616.605 478.452C618.103 481.592 619.5 484.083 621.843 486.664C629.094 488.892 636.34 486.308 642.867 483.008C641.753 490.473 636.197 496.935 630.984 502.203C630.343 502.584 629.702 502.964 629.042 503.356C626.479 505.732 626.761 507.863 626.528 511.287C625.457 522.056 620.888 529.874 612.703 536.938C612.099 536.636 611.496 536.334 610.875 536.023C611.176 535.42 611.478 534.817 611.789 534.195C612.801 518.883 610.981 504.074 600.649 492.091C594.473 485.511 588.256 480.743 579.796 477.523C579.796 478.127 579.796 478.73 579.796 479.352C580.4 479.352 581.003 479.352 581.625 479.352C591.8 489.826 592.302 505.716 592.158 519.336C591.723 534.163 588.592 547.1 578.311 558.304C571.95 564.275 565.213 567.24 556.488 567.73C548.199 567.382 540.64 563.363 534.625 557.729C522.855 544.738 519.375 529.919 520.18 512.792C520.804 505.521 522.448 498.346 524.039 491.234C515.534 497.822 508.701 503.987 503.015 513.172C501.02 507.187 504.982 498.618 507.523 493.013C516.275 475.758 530.014 463.546 548.308 457.389C566.652 452.216 585.34 453.057 602.023 462.831Z" fill="#2A1822"/>
<path d="M713.25 465.641C720.316 468.29 724.716 472.563 727.875 479.352C736.454 502.276 734.649 526.415 725.133 548.82C720.014 560.023 714.582 571.002 705.937 579.898C705.489 580.376 705.04 580.853 704.577 581.345C693.008 593.64 679.185 604.397 662.062 607.32C660.539 607.335 659.016 607.337 657.492 607.32C660.082 596.692 662.711 586.099 665.833 575.614C668.005 568.313 669.471 561.025 670.767 553.525C671.82 547.767 673.439 542.791 676.687 537.852C679.35 538.789 680.218 539.447 681.583 541.97C681.941 542.912 682.299 543.854 682.668 544.825C683.065 545.846 683.461 546.867 683.87 547.919C684.471 549.524 684.471 549.524 685.085 551.163C685.897 553.278 686.709 555.393 687.524 557.507C688.056 558.919 688.056 558.919 688.6 560.359C689.289 562.454 689.289 562.454 690.398 563.445C693.009 557.116 693.538 551.511 693.426 544.707C693.429 543.81 693.432 542.914 693.435 541.99C693.373 533.509 692.918 526.66 686.742 520.484C686.139 520.183 685.536 519.881 684.914 519.57C686.444 515.086 688.891 511.329 691.484 507.402C691.902 506.725 692.319 506.048 692.75 505.351C693.993 503.479 695.141 501.894 696.797 500.375C700.322 499.721 702.146 499.803 705.291 501.518C711.318 507.085 714.393 512.269 715.078 520.484C715.681 520.484 716.285 520.484 716.906 520.484C717.618 515.085 717.941 509.704 718.049 504.26C718.072 503.133 718.096 502.007 718.12 500.846C717.722 496.58 716.446 493.634 713.539 490.477C713.01 490.049 712.481 489.62 711.936 489.178C711.409 488.739 710.883 488.301 710.34 487.849C708.636 486.633 706.919 485.719 705.023 484.836C707.065 478.032 709.962 471.93 713.25 465.641Z" fill="#FCD8A8"/>
<path d="M185.836 465.641C187.241 468.624 188.625 471.616 190.006 474.61C190.606 475.883 190.606 475.883 191.219 477.182C191.593 477.998 191.967 478.814 192.352 479.655C192.702 480.407 193.051 481.158 193.411 481.932C194.063 483.922 194.063 483.922 193.149 486.664C191.556 487.803 191.556 487.803 189.607 488.892C185.497 491.365 183.676 493.148 182.13 497.776C181.238 501.404 181.022 504.529 181.037 508.259C181.033 509.421 181.028 510.582 181.023 511.779C181.251 514.804 181.786 516.861 183.094 519.57C183.394 518.708 183.394 518.708 183.701 517.828C186.142 511.238 189.037 505.755 194.52 501.232C197.716 500.033 199.032 500.159 202.289 501.289C204.591 503.824 206.329 506.662 208.116 509.573C208.615 510.353 209.113 511.134 209.627 511.938C210.853 513.864 212.062 515.798 213.258 517.742C212.883 518.196 212.509 518.649 212.122 519.117C205.97 526.874 205.652 533.623 205.717 543.279C205.71 544.322 205.703 545.366 205.695 546.441C205.709 552.127 206.092 557.091 207.774 562.531C210.023 560.282 210.653 558.302 211.78 555.326C212.186 554.26 212.593 553.193 213.012 552.095C213.432 550.976 213.853 549.858 214.286 548.706C214.714 547.581 215.142 546.456 215.582 545.296C216.64 542.512 217.693 539.725 218.742 536.938C221.484 537.852 221.484 537.852 222.45 539.288C225.257 545.647 226.646 552.146 228.054 558.932C230.61 570.898 233.721 582.64 237.165 594.379C237.425 595.273 237.425 595.273 237.69 596.185C238.159 597.796 238.636 599.405 239.112 601.014C239.766 603.664 239.766 603.664 239.766 607.32C222.35 606.896 207.008 595.306 195.298 583.244C175.149 560.451 165.455 532.327 166.481 501.968C167.236 490.126 171.662 476.168 180.637 468.04C183.645 465.641 183.645 465.641 185.836 465.641Z" fill="#FCD7A7"/>
<path d="M584.367 38.7734C584.76 48.7033 580.99 57.6053 575.741 65.8525C575.413 66.3711 575.085 66.8896 574.747 67.4238C572.243 71.1531 569.821 73.8086 566.086 76.25C563.396 76.5119 561.4 76.5385 558.773 76.25C558.122 76.1924 557.47 76.1348 556.799 76.0755C554.711 75.8762 552.63 75.6384 550.547 75.3931C542.632 74.5059 534.734 73.9247 526.781 73.5078C528.941 71.199 530.131 69.9537 533.18 68.9375C519.119 68.4569 505.387 69.1142 492.486 75.2574C490.201 76.2579 488.104 76.7673 485.648 77.1641C495.651 58.5941 513.685 47.849 533.358 41.812C548.079 37.5929 569.71 33.8877 584.367 38.7734Z" fill="#B82B2B"/>
<path d="M318.375 37.8594C350.04 37.2705 350.04 37.2705 363.164 40.6016C363.776 40.7536 364.388 40.9056 365.019 41.0622C383.051 45.7112 401.556 55.2053 412.523 70.7656C413.655 73.7792 413.655 73.7792 414.352 76.25C411.25 75.8624 408.729 75.2772 405.839 74.0505C400.206 71.8964 394.249 71.3639 388.301 70.5942C386.546 70.3512 386.546 70.3512 384.755 70.1033C379.036 69.3374 373.505 68.7262 367.734 68.9375C370.148 70.1441 372.561 71.3506 375.047 72.5938C375.047 72.8954 375.047 73.197 375.047 73.5078C369.475 74.1739 363.903 74.7624 358.315 75.2819C356.419 75.469 354.524 75.6768 352.632 75.9059C337.382 77.7319 337.382 77.7319 333.18 75.2936C330.071 72.481 328.321 69.0416 326.602 65.2813C326.057 64.2312 325.512 63.1811 324.951 62.0992C320.999 54.3395 318.289 46.5935 318.375 37.8594Z" fill="#B82B2B"/>
<path d="M530.438 319.391C531.041 319.391 531.644 319.391 532.266 319.391C532.609 320.106 532.609 320.106 532.96 320.837C542.396 340.385 553.614 357.998 567.488 374.688C570.297 378.077 572.856 381.493 575.227 385.203C570.564 386.19 566.066 386.856 561.516 385.203C557.07 381.666 554.148 376.53 551.086 371.818C548.791 368.416 546.189 365.283 543.577 362.123C540.742 358.664 538.116 355.3 535.922 351.383C533.718 354.114 532.254 356.823 530.827 360.024C518.908 386.14 503.862 410.378 479.25 426.336C478.792 426.68 478.333 427.023 477.861 427.377C473.587 430.58 469.12 432.893 464.282 435.134C463.552 435.483 462.821 435.831 462.068 436.191C454.6 439.695 447.213 442.112 439.088 443.532C438.4 443.665 437.711 443.799 437.001 443.937C435.253 444.248 433.486 444.443 431.719 444.617C431.115 444.014 430.512 443.411 429.891 442.789C430.579 442.61 431.267 442.431 431.976 442.246C450.973 436.898 466.123 426.196 480.164 412.625C480.954 411.883 481.743 411.14 482.556 410.376C507.429 386.432 522.415 352.378 530.438 319.391Z" fill="#F49E74"/>
<path d="M700.089 499.764C704.903 500.711 707.349 503.139 710.508 506.773C712.059 509.116 713.167 511.464 714.164 514.086C714.56 515.104 714.956 516.122 715.364 517.171C718.123 531.719 709.974 548.282 702.16 559.96C693.767 571.658 683.447 579.715 669.375 583.555C667.547 583.584 665.718 583.587 663.891 583.555C664.075 582.837 664.259 582.119 664.449 581.379C665.144 578.661 665.835 575.942 666.524 573.222C666.964 571.488 667.409 569.756 667.854 568.023C669.202 562.685 670.431 557.407 671.26 551.962C671.848 548.187 672.633 545.107 674.517 541.736C674.924 540.987 675.332 540.238 675.752 539.465C676.215 538.667 676.215 538.667 676.688 537.852C679.35 538.789 680.218 539.447 681.583 541.97C681.941 542.912 682.299 543.854 682.668 544.825C683.065 545.846 683.461 546.867 683.87 547.919C684.471 549.524 684.471 549.524 685.085 551.163C685.897 553.278 686.709 555.393 687.524 557.507C687.879 558.448 688.234 559.389 688.6 560.359C689.289 562.454 689.289 562.454 690.398 563.445C693.009 557.116 693.538 551.511 693.426 544.707C693.429 543.81 693.432 542.914 693.435 541.99C693.373 533.509 692.918 526.66 686.742 520.484C686.139 520.183 685.536 519.881 684.914 519.57C686.444 515.086 688.891 511.328 691.484 507.402C691.902 506.725 692.319 506.048 692.75 505.351C695.952 500.532 695.952 500.532 700.089 499.764Z" fill="#F39D73"/>
<path d="M202.29 501.289C204.591 503.824 206.329 506.662 208.117 509.573C208.615 510.353 209.113 511.134 209.627 511.938C210.853 513.864 212.063 515.798 213.258 517.742C212.884 518.196 212.509 518.65 212.123 519.117C205.97 526.874 205.652 533.623 205.717 543.279C205.71 544.322 205.703 545.366 205.696 546.441C205.709 552.128 206.092 557.091 207.774 562.531C210.024 560.282 210.653 558.302 211.78 555.326C212.39 553.726 212.39 553.726 213.012 552.095C213.433 550.976 213.853 549.858 214.287 548.706C214.714 547.581 215.142 546.456 215.583 545.296C216.64 542.512 217.694 539.725 218.743 536.938C221.485 537.852 221.485 537.852 222.438 539.248C225.41 545.944 226.883 552.943 228.397 560.075C228.798 561.922 229.2 563.769 229.604 565.616C229.994 567.405 230.383 569.195 230.772 570.985C231.851 575.808 233.046 580.598 234.282 585.383C229.946 584.619 226.529 583.124 222.627 581.155C221.653 580.664 221.653 580.664 220.658 580.163C215.585 577.54 211.103 574.604 206.86 570.758C206.313 570.274 205.766 569.789 205.203 569.29C192.953 557.779 183.845 539.631 182.912 522.655C183.354 515.166 187.221 508.561 192.235 503.117C195.787 500.187 197.924 499.774 202.29 501.289Z" fill="#F39C73"/>
<path d="M357.68 309.336C357.981 309.336 358.283 309.336 358.594 309.336C358.937 317.813 358.068 326.118 357.039 334.517C356.865 335.939 356.699 337.361 356.542 338.784C354.734 354.914 350.232 372.027 343.969 387.031C342.844 387.026 341.719 387.022 340.561 387.017C336.363 387 332.166 386.99 327.968 386.981C326.156 386.976 324.344 386.97 322.532 386.962C319.918 386.951 317.304 386.946 314.69 386.942C313.888 386.937 313.086 386.933 312.26 386.928C307.51 386.927 302.966 387.258 298.266 387.945C301.24 384.284 304.236 381.035 307.806 377.948C311.721 374.534 315.034 370.887 318.375 366.922C319.173 366.022 319.97 365.121 320.792 364.194C335.509 347.531 347.527 329.074 357.68 309.336Z" fill="#F39B73"/>
<path d="M579.797 477.523C586.499 479.187 591.111 482.109 596.25 486.664C596.904 487.243 597.558 487.821 598.232 488.417C607.831 497.44 612.449 510.212 613.157 523.252C613.474 534.205 610.496 542.731 603.427 551.163C595.431 558.783 585.671 562.354 575.227 565.273C573.589 565.806 571.951 566.339 570.313 566.873C566.62 567.99 563.53 568.266 559.688 568.016C562.342 566.246 564.589 565.377 567.571 564.302C577.331 560.229 582.013 553.529 586.645 544.264C590.361 535.213 591.275 525.836 591.223 516.143C591.219 515.029 591.215 513.916 591.211 512.77C590.984 500.661 588.84 491.038 581.625 481.18C581.625 480.576 581.625 479.973 581.625 479.352C581.022 479.352 580.418 479.352 579.797 479.352C579.797 478.748 579.797 478.145 579.797 477.523Z" fill="#FCF3D8"/>
<path d="M278.156 192.336C279.927 193.25 279.927 193.25 280.899 195.078C282.034 204.163 277.678 213.26 272.672 220.672C269.739 224.433 266.656 228.038 263.531 231.641C262.962 232.333 262.393 233.026 261.807 233.74C255.815 240.948 250.129 245.83 240.68 247.18C238.493 244.902 237.952 243.763 237.763 240.56C238.504 226.013 246.383 210.555 257.072 200.773C262.997 196.064 270.329 191.058 278.156 192.336Z" fill="#8BA8C3"/>
<path d="M315.804 521.741C318.682 522.381 319.291 522.832 321.117 525.055C322.152 527.226 322.152 527.226 323.059 529.625C323.363 530.417 323.667 531.209 323.981 532.024C324.575 533.653 325.139 535.293 325.687 536.938C328.799 539.046 331.229 538.777 334.771 538.137C341.224 536.788 341.224 536.788 345.961 532.553C346.92 530.691 347.753 528.824 348.539 526.883C349.104 525.525 349.104 525.525 349.681 524.141C349.908 523.537 350.134 522.934 350.367 522.312C351.872 522.747 353.377 523.186 354.88 523.626C355.718 523.87 356.556 524.114 357.419 524.366C359.508 525.055 359.508 525.055 360.422 525.969C361.168 535.614 360.511 543.023 354.195 550.534C348.317 556.702 342.527 557.976 334.18 558.276C327.212 558.38 321.172 558.155 315.633 553.391C310.206 546.625 306.834 539.945 306.999 531.214C307.562 527.753 308.845 525.83 311.316 523.394C312.89 522.312 312.89 522.312 315.804 521.741Z" fill="#D1453B"/>
<path d="M578.883 523.227C582.808 528.217 582.139 533.637 581.625 539.68C580.402 546.764 575.414 552.293 569.821 556.551C564.797 559.476 559.867 559.347 554.203 558.875C553.359 558.831 552.516 558.788 551.647 558.743C544.214 557.956 539.769 554.447 535.008 548.82C531.242 543.322 530.14 537.097 531.352 530.539C533.824 527.149 536.773 525.137 540.492 523.227C541.095 523.227 541.699 523.227 542.32 523.227C542.678 524.339 543.037 525.451 543.406 526.597C545.6 532.412 549.797 535.725 555.117 538.766C557.846 539.894 557.846 539.894 560.602 539.68C565.677 535.666 567.983 530.738 569.974 524.755C571.679 520.934 575.546 522.407 578.883 523.227Z" fill="#A9312F"/>
<path d="M301.921 482.094C303.326 484.904 302.089 486.714 301.122 489.635C296.257 504.399 296.245 523.011 301.007 537.852C301.262 538.656 301.516 539.461 301.779 540.29C304.949 549.105 309.842 556.987 317.461 562.531C318.196 563.097 318.931 563.662 319.689 564.245C320.396 564.754 320.396 564.754 321.117 565.273C317.186 566.418 314.956 565.874 311.176 564.417C306.897 562.879 303.692 562.121 299.179 562.531C300.084 561.626 300.084 561.626 301.007 560.703C300.488 560.326 299.968 559.949 299.433 559.561C289.538 552.16 284.807 545.009 280.898 533.281C279.553 518.549 281.209 504.413 290.039 492.148C290.405 491.616 290.772 491.083 291.149 490.535C294.054 486.661 297.772 484.421 301.921 482.094Z" fill="#FDF5DB"/>
<path d="M254.391 166.742C255.295 167.345 256.2 167.949 257.133 168.57C259.181 180.86 248.794 193.272 242.033 202.769C239.139 206.683 236.041 210.294 232.624 213.759C232.165 214.228 231.706 214.697 231.233 215.181C227.869 218.418 224.113 221 219.656 222.5C217.244 221.935 215.913 221.499 214.172 219.758C213.031 206.932 221.277 191.255 228.797 181.367C229.338 180.64 229.878 179.913 230.436 179.164C235.835 172.496 245.344 164.254 254.391 166.742Z" fill="#8BA8C3"/>
<path d="M447.258 223.414C450.082 224.254 451.549 224.88 453.371 227.242C456.04 232.961 456.701 238.176 456.627 244.38C456.618 245.516 456.618 245.516 456.609 246.675C456.35 262.379 453.789 277.938 444.516 291.055C442.488 291.844 442.488 291.844 440.86 291.969C433.436 284.746 432.623 273.709 432.397 263.761C432.509 258.234 433.667 252.991 434.975 247.637C435.303 246.279 435.303 246.279 435.638 244.894C437.831 236.718 441.711 229.815 447.258 223.414Z" fill="#8BA8C3"/>
<path d="M396.624 658.24C400.442 658.57 403.135 660.045 406.411 661.878C425.872 672.209 450.297 674.778 471.705 669.519C479.444 667.03 486.492 663.87 493.25 659.336C495.627 658.057 497.656 658.125 500.273 658.508C500.726 658.96 500.726 658.96 501.188 659.422C501.155 662.414 501.155 662.414 500.273 665.82C498.265 667.592 496.671 668.759 494.389 670.048C493.804 670.396 493.219 670.745 492.615 671.104C491.443 671.794 490.264 672.474 489.078 673.142C487.761 673.886 486.464 674.667 485.174 675.457C466.588 686.036 441.51 684.706 421.596 679.503C415.025 677.66 408.833 675.202 402.697 672.219C402.087 671.926 401.476 671.634 400.847 671.333C397.134 669.439 394.654 667.526 392.414 663.992C392.665 660.315 392.812 658.669 396.624 658.24Z" fill="#2A1A21"/>
<path d="M370.477 508.602C385.051 516.071 385.051 516.071 387.844 523.227C386.656 535.748 382.156 548.734 372.819 557.39C364.006 564.644 353.688 568.432 342.141 568.016C344.262 565.667 346.452 564.319 349.225 562.817C359.753 556.558 364.917 546.251 368.02 534.652C370.145 526.105 370.297 517.368 370.477 508.602Z" fill="#FDF5DB"/>
<path d="M519.469 509.516C519.77 509.516 520.072 509.516 520.383 509.516C520.417 510.621 520.451 511.726 520.486 512.865C521.081 528.882 522.905 544.331 534.418 556.604C540.288 561.902 546.726 564.726 554.203 567.102C554.203 567.403 554.203 567.705 554.203 568.016C538.491 567.166 527.832 565.221 516.726 553.391C510.253 545.043 504.754 534.091 505.758 523.227C507.529 520.713 507.529 520.713 510.328 518.656C511.609 517.5 512.884 516.338 514.156 515.171C517.405 512.258 517.405 512.258 519.469 512.258C519.469 511.353 519.469 510.448 519.469 509.516Z" fill="#FDF5DB"/>
<path d="M463.711 65.2813C467.111 67.548 469.432 69.7071 471.023 73.5078C470.966 76.8213 470.966 76.8213 470.109 79.9062C464.229 85.4427 454.475 84.6611 446.858 84.7622C446.155 84.7783 445.452 84.7945 444.728 84.8111C440.541 84.806 437.88 84.4018 434.461 81.7344C432.362 79.1287 431.748 77.3255 431.147 74.022C431.856 69.9816 433.107 68.8438 436.314 66.4595C444.735 60.957 454.707 60.7792 463.711 65.2813Z" fill="#B82B2B"/>
<path d="M481.078 250.836C483.559 252.311 484.489 253.558 485.224 256.352C486.149 262.892 485.121 269.094 483.821 275.516C483.552 276.869 483.552 276.869 483.278 278.251C481.937 284.015 479.885 288.697 475.594 292.883C473.491 294.132 472.45 294.741 469.995 294.597C468.282 293.797 468.282 293.797 467.196 292.312C466.22 289.458 465.773 286.732 465.539 283.742C465.479 282.981 465.419 282.22 465.357 281.436C465.127 275.648 465.839 270.289 467.082 264.661C467.218 264.009 467.353 263.357 467.493 262.685C468.622 257.981 470.392 255.225 473.766 251.75C476.363 250.452 478.204 250.548 481.078 250.836Z" fill="#8BA8C3"/>
<path d="M577.969 448.273C578.421 449.631 578.421 449.631 578.883 451.016C573.306 454.501 566.03 453.89 559.688 453.758C559.688 454.361 559.688 454.964 559.688 455.586C558.327 455.871 558.327 455.871 556.938 456.161C548.603 458.009 541.477 460.652 533.934 464.757C532.166 465.693 530.376 466.563 528.57 467.422C521.658 470.726 515.497 474.173 509.45 478.923C507.586 480.266 507.586 480.266 505.758 480.266C506.959 476.718 508.361 474.609 511.071 472.039C511.727 471.409 512.383 470.778 513.06 470.129C513.666 469.553 514.273 468.976 514.898 468.383C515.653 467.61 516.407 466.837 517.184 466.041C517.938 465.305 518.692 464.57 519.469 463.813C519.938 463.336 520.407 462.86 520.89 462.37C535.974 447.998 558.004 443.121 577.969 448.273Z" fill="#F59271"/>
<path d="M585.281 406.227C597.426 406.285 603.555 409.145 612.121 417.592C618.687 423.876 626.491 428.934 634.012 433.991C635.028 434.677 635.028 434.677 636.064 435.377C639.32 437.534 642.468 439.4 646.045 440.975C649.138 442.478 649.138 442.478 650.212 445.096C650.22 445.956 650.228 446.816 650.237 447.702C650.256 448.657 650.275 449.611 650.294 450.594C650.101 455.931 649.777 461.239 649.266 466.555C648.964 466.555 648.662 466.555 648.352 466.555C648.13 465.541 647.909 464.528 647.68 463.484C647.372 462.146 647.062 460.808 646.752 459.471C646.608 458.804 646.464 458.137 646.316 457.45C644.459 449.59 639.094 446.808 632.698 442.446C623.631 436.184 614.927 429.537 606.305 422.68C605.37 421.942 604.436 421.204 603.473 420.445C600.143 417.803 596.891 415.131 593.736 412.282C591.122 409.997 588.691 408.886 585.281 408.055C585.281 407.451 585.281 406.848 585.281 406.227Z" fill="#F3A477"/>
<path d="M359.949 454.632C365.633 457.982 370.434 461.827 375.047 466.555C375.632 467.109 376.218 467.662 376.821 468.233C380.672 471.909 383.853 475.927 386.93 480.266C386.477 481.171 386.477 481.171 386.016 482.094C382.721 479.982 379.641 477.747 376.589 475.295C371.33 471.168 365.751 468.029 359.551 465.526C358.054 464.887 356.584 464.188 355.123 463.47C348.502 460.24 342.152 458.077 335.025 456.371C332.528 455.704 330.697 454.925 328.43 453.758C326.383 453.08 324.325 452.435 322.26 451.815C321.19 451.493 320.12 451.17 319.018 450.837C318.202 450.594 317.387 450.352 316.547 450.102C329.899 441.2 347.356 447.524 359.949 454.632Z" fill="#F59170"/>
<path d="M298.265 407.141C296.451 408.955 294.969 409.84 292.72 411.033C288.327 413.431 284.185 416.107 280.041 418.909C279.323 419.392 278.605 419.875 277.865 420.372C272.74 423.825 267.636 427.3 262.617 430.906C261.865 431.407 261.113 431.908 260.339 432.424C259.601 432.941 258.864 433.458 258.104 433.991C257.455 434.432 256.805 434.873 256.136 435.327C251.791 440.25 250.985 447.94 249.706 454.215C249.552 454.937 249.397 455.659 249.238 456.404C248.221 461.298 247.566 466.15 247.078 471.125C246.776 471.125 246.475 471.125 246.164 471.125C244.93 453.76 244.93 453.76 245.25 445.531C245.257 444.907 245.264 444.283 245.271 443.639C245.354 438.89 245.688 434.553 247.078 429.992C249.394 427.774 251.416 426.829 254.383 425.643C257.34 424.422 259.363 422.947 261.817 420.909C262.577 420.291 263.337 419.674 264.12 419.038C266.249 417.265 266.249 417.265 267.998 415.467C274.996 408.937 288.861 404.805 298.265 407.141Z" fill="#F2A478"/>
<path d="M409.781 674.961C410.301 675.118 410.82 675.274 411.355 675.435C432.547 681.78 450.11 683.234 471.938 679.531C473.022 679.351 474.106 679.171 475.222 678.985C475.948 678.864 476.674 678.742 477.422 678.617C474.667 685.566 466.326 689.455 459.826 692.271C449.072 696.357 440.361 694.651 430.005 690.093C422.846 686.532 415.544 682.387 409.781 676.789C409.781 676.186 409.781 675.582 409.781 674.961Z" fill="#F2A276"/>
<path d="M400.641 352.297C400.942 352.297 401.244 352.297 401.555 352.297C401.681 359.42 401.314 366.402 400.641 373.492C400.51 374.928 400.51 374.928 400.376 376.393C400.164 378.721 399.947 381.048 399.727 383.375C399.011 383.646 398.296 383.917 397.56 384.196C394.947 385.291 393.441 386.526 391.386 388.459C385.923 393.473 380.31 398.452 374.133 402.57C372.323 401.062 370.513 399.554 368.648 398C370.166 394.125 373.058 391.499 375.904 388.574C385.829 378.112 395.505 365.911 400.641 352.297Z" fill="#F39D74"/>
<path d="M531.352 533.281C531.653 533.281 531.955 533.281 532.266 533.281C532.36 534.224 532.454 535.167 532.551 536.138C533.577 539.724 535.489 540.894 538.664 542.708C547.856 547.213 557.171 548.451 566.914 545.132C567.621 544.879 568.328 544.625 569.057 544.364C569.778 544.118 570.499 543.872 571.242 543.618C574.521 542.482 577.626 541.279 580.711 539.68C580.56 545.579 577.162 549.187 573.399 553.391C568.257 558.165 563.771 559.222 556.913 559.029C556.019 558.978 555.125 558.927 554.203 558.875C553.356 558.834 552.509 558.793 551.636 558.75C544.22 557.94 539.753 554.455 535.008 548.82C531.674 543.721 530.915 539.291 531.352 533.281Z" fill="#D6473D"/>
<path d="M350.367 349.555C349.905 356.573 348.528 363.15 346.768 369.95C346.526 370.916 346.284 371.883 346.034 372.879C344.957 377.118 343.836 381.164 342.141 385.203C342.442 384.901 342.744 384.6 343.055 384.289C343.356 385.194 343.658 386.099 343.969 387.031C334.797 387.193 325.696 386.686 316.547 386.117C318.694 383.327 320.786 380.91 323.517 378.69C330.851 372.389 336.936 364.977 342.69 357.247C348.442 349.555 348.442 349.555 350.367 349.555Z" fill="#FDD9A9"/>
<path d="M579.797 477.523C586.499 479.187 591.111 482.109 596.25 486.664C596.904 487.243 597.558 487.821 598.232 488.417C604.52 494.328 608.403 501.274 610.875 509.516C610.589 512.258 610.589 512.258 609.961 514.086C609.037 513.558 608.113 513.03 607.162 512.486C606.58 512.155 605.997 511.824 605.398 511.483C604.207 510.8 603.021 510.107 601.841 509.405C599.001 507.726 596.744 506.668 593.508 505.859C593.206 510.686 592.905 515.512 592.594 520.484C592.292 520.484 591.99 520.484 591.68 520.484C591.667 519.411 591.654 518.338 591.64 517.232C591.449 509.475 590.892 502.137 588.709 494.662C588.533 494.043 588.357 493.424 588.176 492.786C586.741 488.244 584.454 484.996 581.625 481.18C581.625 480.576 581.625 479.973 581.625 479.352C581.022 479.352 580.418 479.352 579.797 479.352C579.797 478.748 579.797 478.145 579.797 477.523Z" fill="#EAC6A2"/>
<path d="M301.922 482.094C303.327 484.904 302.089 486.714 301.122 489.635C298.989 496.108 298.124 502.183 297.751 508.944C297.712 509.617 297.673 510.29 297.632 510.983C297.536 512.627 297.443 514.27 297.352 515.914C297.05 515.914 296.748 515.914 296.438 515.914C296.136 513.501 295.834 511.088 295.523 508.602C293.942 509.457 292.362 510.314 290.782 511.172C289.902 511.65 289.021 512.127 288.115 512.618C285.675 513.971 283.281 515.378 280.898 516.828C282.771 505.724 285.856 494.426 294.609 486.664C296.97 484.988 299.387 483.49 301.922 482.094Z" fill="#EAC7A4"/>
<path d="M572.484 490.32C576.493 492.468 576.493 492.468 577.968 494.891C578.934 499.421 578.68 502.869 576.255 506.831C573.007 509.791 570.588 509.841 566.325 509.758C564.257 509.516 564.257 509.516 561.515 508.202C558.905 504.858 558.387 501.835 558.773 497.633C561.88 491.531 565.627 489.119 572.484 490.32Z" fill="#FBF2D9"/>
<path d="M349.453 489.406C352.572 491.347 354.708 493.186 355.851 496.719C356.327 500.367 356.006 501.925 354.194 505.174C352.195 507.687 352.195 507.687 349.453 509.516C345.695 509.933 343.726 509.934 340.483 507.916C337.565 504.914 336.797 503.291 336.256 499.118C336.787 494.721 338.131 493.415 341.226 490.32C344.06 488.903 346.326 489.141 349.453 489.406Z" fill="#FBF3DA"/>
<path d="M315.804 521.741C318.683 522.381 319.291 522.832 321.117 525.055C322.153 527.226 322.153 527.226 323.059 529.625C323.363 530.417 323.667 531.209 323.981 532.024C324.575 533.653 325.139 535.293 325.687 536.938C329.079 538.779 331.929 538.943 335.742 538.766C335.742 539.369 335.742 539.972 335.742 540.594C334.234 540.895 332.726 541.197 331.172 541.508C331.172 542.111 331.172 542.714 331.172 543.336C323.222 542.568 315.923 541.595 309.234 536.938C307.056 533.67 306.813 532.563 307.406 528.711C309.563 525.006 311.519 522.581 315.804 521.741Z" fill="#A9322F"/>
<path d="M447.258 594.523C451.212 598.478 450.168 604.419 450.171 609.663C450.183 610.539 450.194 611.415 450.205 612.317C450.208 613.578 450.208 613.578 450.211 614.865C450.215 615.631 450.218 616.398 450.222 617.188C450 619.203 450 619.203 448.172 621.945C444.989 621.68 443.837 621.28 441.602 618.917C438.323 614.055 437.3 610.439 438.117 604.578C440.342 600.13 443.395 597.508 447.258 594.523Z" fill="#291920"/>
<path d="M311.062 584.469C312.269 585.072 313.476 585.675 314.719 586.297C314.201 590.08 313.344 593.261 311.812 596.755C311.415 597.665 311.018 598.575 310.609 599.513C310.193 600.449 309.777 601.386 309.349 602.35C308.94 603.29 308.531 604.229 308.11 605.198C304.064 614.404 304.064 614.404 301.922 617.375C298.551 617.661 298.551 617.661 295.523 617.375C296.089 613.168 297.82 609.728 299.751 606.006C300.412 604.712 301.072 603.417 301.733 602.122C302.068 601.469 302.403 600.816 302.748 600.143C303.72 598.238 304.676 596.326 305.625 594.409C305.915 593.822 306.206 593.234 306.506 592.629C306.784 592.066 307.062 591.504 307.349 590.924C310.036 585.495 310.036 585.495 311.062 584.469Z" fill="#F78E73"/>
<path d="M363.164 408.969C364.069 409.27 364.974 409.572 365.906 409.883C365.906 410.486 365.906 411.089 365.906 411.711C366.51 412.013 367.113 412.314 367.734 412.625C359.403 418.096 350.836 421.41 341.481 424.677C337.502 426.101 333.596 427.711 329.683 429.307C327.516 429.992 327.516 429.992 325.688 429.078C327.177 426.099 330.38 425.307 333.286 423.937C340.903 420.242 348.096 416.11 354.577 410.601C357.545 408.388 359.547 408.634 363.164 408.969Z" fill="#F4A277"/>
<path d="M571.57 582.641C573.456 583.041 573.456 583.041 575.227 583.555C575.912 585.383 575.912 585.383 576.141 588.125C575.349 589.861 574.54 591.592 573.62 593.263C572.298 595.795 571.257 598.384 570.199 601.036C568.955 604.086 567.75 606.904 565.857 609.605C564.395 611.694 563.726 613.059 563.344 615.547C561.116 615.204 561.116 615.204 558.773 614.633C558.472 614.03 558.17 613.426 557.859 612.805C558.635 610.601 558.635 610.601 559.873 607.852C560.317 606.856 560.762 605.86 561.219 604.833C561.694 603.788 562.169 602.742 562.658 601.665C563.577 599.614 564.496 597.563 565.415 595.512C565.85 594.548 566.285 593.584 566.734 592.59C567.701 590.429 568.64 588.262 569.557 586.079C570.656 583.555 570.656 583.555 571.57 582.641Z" fill="#F78D73"/>
<path d="M593.508 585.383C594.714 585.986 595.921 586.589 597.164 587.211C596.708 592.45 595.219 596.246 592.765 600.865C592.451 601.472 592.137 602.08 591.814 602.705C591.182 603.926 590.548 605.146 589.91 606.363C588.329 609.405 586.808 612.477 585.281 615.547C583.773 615.547 582.265 615.547 580.711 615.547C581.136 609.338 582.951 604.536 585.567 598.922C585.925 598.122 586.282 597.321 586.651 596.496C588.542 592.359 590.425 588.79 593.508 585.383Z" fill="#F78E73"/>
<path d="M350.367 522.312C352.595 522.655 352.595 522.655 354.938 523.227C355.239 523.83 355.541 524.433 355.852 525.055C357.695 526.091 357.695 526.091 359.508 526.883C359.908 529.796 359.908 529.796 359.508 533.281C354.235 538.682 346.451 540.289 339.398 542.422C339.398 540.612 339.398 538.802 339.398 536.938C340.228 536.636 341.057 536.334 341.912 536.023C345.82 533.618 346.861 531.028 348.539 526.883C348.916 525.978 349.293 525.073 349.682 524.141C349.908 523.537 350.134 522.934 350.367 522.312Z" fill="#A6312F"/>
<path d="M289.125 583.555C290.03 583.856 290.935 584.158 291.867 584.469C291.316 589.123 289.883 592.923 287.982 597.151C287.694 597.795 287.407 598.438 287.11 599.101C283.059 608.007 283.059 608.007 279.984 611.891C277.414 612.348 277.414 612.348 275.414 611.891C275.84 606.213 277.17 602.107 279.813 597.094C280.127 596.468 280.441 595.842 280.765 595.196C282.606 591.607 284.535 588.365 287.297 585.383C287.9 585.383 288.503 585.383 289.125 585.383C289.125 584.78 289.125 584.176 289.125 583.555Z" fill="#F78F73"/>
<path d="M329.344 587.211C331.229 587.611 331.229 587.611 333 588.125C332.543 593.982 330.49 598.656 328.03 603.95C327.657 604.777 327.284 605.605 326.9 606.458C324.116 612.548 324.116 612.548 322.031 614.633C319.175 614.747 319.175 614.747 316.547 614.633C318.261 608.03 320.706 602.27 323.974 596.294C324.39 595.515 324.806 594.736 325.234 593.933C328.264 588.291 328.264 588.291 329.344 587.211Z" fill="#F78E73"/>
<path d="M612.703 587.211C614.588 587.611 614.588 587.611 616.359 588.125C615.918 593.369 614.437 597.007 611.846 601.55C611.19 602.734 610.534 603.919 609.879 605.103C609.303 606.136 608.726 607.17 608.133 608.234C607.513 609.448 606.898 610.664 606.305 611.891C604.495 611.589 602.685 611.287 600.82 610.977C601.356 607.568 602.313 605.001 603.991 601.993C604.438 601.187 604.884 600.381 605.344 599.551C605.812 598.721 606.28 597.892 606.762 597.037C607.229 596.193 607.697 595.35 608.179 594.481C611.637 588.278 611.637 588.278 612.703 587.211Z" fill="#F78D73"/>
<path d="M656.578 537.852C655.372 542.376 654.165 546.901 652.922 551.563C648.416 550.436 647.48 548.755 644.695 545.164C644.092 544.561 643.489 543.958 642.867 543.336C642.867 542.733 642.867 542.129 642.867 541.508C644.806 540.719 646.749 539.94 648.694 539.166C650.317 538.513 650.317 538.513 651.972 537.848C654.75 536.938 654.75 536.938 656.578 537.852Z" fill="#F2A87C"/>
<path d="M307.406 562.531C307.708 563.134 308.01 563.738 308.32 564.359C303.609 568.061 303.609 568.061 299.922 567.844C298.14 567.329 296.369 566.774 294.609 566.187C294.609 565.584 294.609 564.981 294.609 564.359C302.477 560.968 302.477 560.968 307.406 562.531Z" fill="#23171B"/>
<path d="M579.797 562.531C585.648 562.063 588.919 562.423 593.508 566.188C591.68 568.016 591.68 568.016 588.709 568.416C584.242 567.894 582.928 566.577 579.797 563.445C579.797 563.144 579.797 562.842 579.797 562.531Z" fill="#201317"/>
<path d="M564.258 568.016C565.766 568.921 567.274 569.825 568.828 570.758C568.225 571.964 567.622 573.171 567 574.414C565.793 573.811 564.587 573.208 563.344 572.586C563.645 571.078 563.947 569.57 564.258 568.016Z" fill="#1E1116"/>
<path d="M323.859 568.016C323.631 570.187 323.631 570.187 322.945 572.586C321.06 573.786 321.06 573.786 319.289 574.414C320.242 568.016 320.242 568.016 323.859 568.016Z" fill="#241519"/>
</g>
<defs>
<clipPath id="clip0_2039_433">
<rect width="900" height="900" fill="white"/>
</clipPath>
</defs>
</svg>
