<svg width="900" height="900" viewBox="0 0 900 900" fill="none" xmlns="http://www.w3.org/2000/svg">
<g clip-path="url(#clip0_2039_433)">
<path d="M461.599 60.017C496.933 55.7517 532.549 59.301 566.447 70.1157C567.281 70.3854 568.09 70.6478 568.898 70.9096C591.001 78.0508 612.751 86.2048 632.432 98.7016C633.171 99.175 633.888 99.6347 634.605 100.094C645.369 106.918 655.665 114.099 665.503 122.207C666.674 123.177 667.848 124.145 669.023 125.11C694.722 145.121 715.015 170.421 732.515 197.681C735.691 202.7 738.556 207.674 743.074 211.623C745.024 209.361 746.993 207.118 748.992 204.901C764.128 188.485 785.841 174.839 808.643 173.769C824.125 173.453 839.014 175.539 850.732 186.675C860.204 196.973 863.523 208.556 863.433 222.387C863.401 223.777 863.372 225.126 863.342 226.475C863.269 236.27 863.744 245.886 860.136 255.123C858.102 260.3 856.024 265.429 855.715 271.035C857.537 275.148 859.901 277.785 863.142 280.793C866.793 284.136 869.218 287.634 871.77 291.844C877.964 303.546 882.732 315.899 878.848 329.208C874.5 339.175 866.235 344.958 856.623 349.403C855.638 349.83 855.638 349.831 854.672 350.25V352.335C856.114 353.537 857.567 354.729 859.07 355.854C860.32 356.772 861.564 357.698 862.803 358.63C863.439 359.112 864.057 359.579 864.674 360.046C869.716 363.863 874.629 367.757 878.726 372.595C879.746 373.944 879.746 373.944 880.746 375.266C882.747 377.24 884.696 379.218 886.563 381.32C888.676 384.574 888.674 387.13 888.405 390.92C884.729 412.088 864.431 430.146 847.878 442.457C847.204 442.714 846.488 443.086 845.727 443.581C837.024 449.238 830.714 452.152 824.755 451.857C820.562 449.265 817.036 446.208 813.872 442.124C813.178 441.194 813.177 441.193 812.497 440.281C811.498 438.969 810.499 437.656 809.502 436.343C808.567 435.093 807.632 433.842 806.695 432.593C801.268 425.635 796.672 418.416 792.289 410.77C791.786 409.879 791.297 409.014 790.809 408.149C790.33 407.303 789.865 406.481 789.4 405.66C787.708 402.636 785.847 399.912 783.75 397.155C783.751 397.574 783.751 397.994 783.753 398.414L783.505 398.427C781.34 413.084 774.909 450.801 766.515 484.379L766.5 484.439V484.695C763.669 494.995 760.475 504.791 755.655 514.415C755.211 515.268 754.779 516.095 754.348 516.922C753.94 517.72 753.545 518.494 753.149 519.268C752.78 519.964 752.42 520.64 752.061 521.315C751.114 524.2 751.114 524.201 753.821 530.721C756.583 537.167 759.079 543.529 760.675 550.375C766.883 585.684 756.394 621.022 736.585 650.267C719.052 675.212 691.571 685.997 662.708 691.299C661.33 691.543 659.956 691.811 658.594 692.13C657.551 693.172 657.551 693.173 656.815 695.019C649.017 716.926 639.297 738.972 622.326 755.476C620.337 757.32 619.013 758.743 617.707 761.134C617.424 761.771 617.15 762.39 616.875 763.008H614.789C614.288 763.649 613.801 764.271 613.314 764.893C611.773 767.161 611.772 767.161 610.006 768.777C609.064 769.581 609.063 769.582 608.14 770.37C607.379 771.019 606.641 771.649 605.903 772.279C605.024 773.025 604.17 773.75 603.316 774.474C597.106 779.874 590.866 785.22 584.28 790.163C583.261 790.924 583.26 790.926 582.262 791.672C578.887 794.246 575.595 796.731 571.715 798.493C567.683 800.132 562.268 803.631 557.968 806.848C556.258 807.078 554.403 808.505 542.887 817.362C532.412 825.448 521.784 832.682 509.944 838.996C508.96 839.517 508.005 840.023 507.05 840.529C491.783 848.72 467.328 859.042 449.51 857.723C416.196 855.257 406.872 852.202 362.898 822.736C356.974 818.848 350.922 815.147 344.852 811.456C344.844 811.7 344.837 811.945 344.83 812.19C324.611 800.857 303.338 785.232 287.269 768.354C286.569 767.6 285.89 766.867 285.211 766.135C264.293 744.447 251.914 721.202 241.155 693.166C240.886 692.46 240.625 691.774 240.363 691.088C239.327 691.023 238.321 690.96 237.315 690.897C235.958 690.807 234.64 690.72 233.323 690.632C230.06 690.421 226.851 690.266 223.644 689.619C222.607 689.308 222.606 689.308 221.59 689.003C215.526 687.298 209.539 685.434 203.803 682.814C175.34 668.721 154.164 642.996 143.506 613.333C143.104 612.128 142.714 610.958 142.324 609.788C138.528 598.89 137.769 588.353 137.704 576.902C137.701 576.123 137.699 575.365 137.696 574.609C137.582 561.605 138.236 549.042 144.472 537.307C145.961 534.655 147.419 531.993 148.795 529.28C150.683 525.103 151.099 522.357 149.503 518.039C145.108 509.664 141.599 501.148 138.348 492.266C137.934 491.128 137.534 490.022 137.133 488.917C136.741 487.847 136.361 486.807 135.981 485.768C135.159 483.485 134.398 481.66 133.338 479.764C129.402 470.386 125.813 456.759 122.876 443.158C119.845 429.119 117.516 415.149 116.215 405.998C116.222 405.251 116.229 404.501 116.236 403.747C116.241 402.923 116.245 402.123 116.25 401.324H115.207C114.793 401.909 114.392 402.478 113.99 403.046C110.732 408.134 107.288 412.984 103.565 417.741C102.333 419.302 101.102 420.866 99.874 422.431C99.2488 423.228 98.642 424.002 98.0351 424.776C96.8041 426.338 95.5746 427.901 94.3476 429.466C91.0885 433.71 87.862 437.928 84.3095 441.933C83.4674 442.789 82.6494 443.619 81.832 444.45C79.4032 447.062 79.4028 447.062 76.6172 449.27C75.3595 449.678 74.1386 450.075 72.9179 450.471C71.8952 451.018 71.1064 451.44 70.4677 451.849C64.13 452.755 61.1223 451.119 54.6982 446.585C54.7044 446.439 54.7111 446.292 54.7148 446.144C52.1728 443.538 52.1724 443.538 50.3965 442.276C39.2588 434.559 29.5089 423.872 21.2031 413.221C14.6174 404.438 8.35096 394.972 9.86715 383.605C21.0108 369.299 21.0108 369.298 36.0713 358.654C36.8998 358.044 37.7045 357.452 38.5088 356.86C39.6519 356.008 39.653 356.008 40.7734 355.173C42.823 353.667 42.8234 353.667 44.2851 352.335V350.25C37.4166 349.186 32.0577 347.267 26.5547 342.955C19.2863 335.494 18.9216 328.367 19.042 318.484C19.9408 302.906 29.1667 288.891 40.1132 278.265C42.4596 276.144 42.4603 276.144 44.2851 274.162C45.4264 271.564 45.4714 270.451 44.6279 267.736C39.349 255.694 37.9014 243.009 37.7148 229.981C37.7103 228.855 37.7055 227.763 37.7011 226.67C37.6522 217.75 38.3606 209.914 41.584 201.552C47.9603 188.431 56.2867 181.094 70.0869 176.215C87.3799 171.164 107.839 173.768 123.877 181.904C124.83 182.439 125.755 182.96 126.68 183.48C139.624 190.616 150.073 200.172 159.46 211.574C160.017 212.299 160.557 213.003 161.098 213.706C161.871 212.547 161.872 212.546 162.63 211.41L164.748 208.234C166.316 205.891 167.884 203.548 169.441 201.199C175.766 191.418 182.595 182.158 189.767 172.984C190.303 172.3 190.824 171.636 191.344 170.972C199.967 159.927 209.324 148.884 219.96 139.703C221.846 138.136 223.661 136.59 225.395 134.857C229.758 130.333 234.401 126.328 239.3 122.39C240.37 121.543 241.41 120.72 242.449 119.898C276.105 93.2069 315.177 73.7387 357.201 64.2895C358.256 64.0594 359.281 63.8361 360.305 63.6127C381.442 58.9154 402.457 58.9903 424.002 59.1645C425.034 59.175 426.036 59.1846 427.038 59.1948C431.954 59.2359 436.733 59.3479 441.615 59.9692C448.251 61.0506 454.936 60.797 461.599 60.017Z" fill="black"/>
<path d="M414.083 75.925C414.936 75.9238 415.79 75.9226 416.669 75.9213C426.977 75.923 437.232 76.1583 447.516 76.8935C452.359 77.2064 456.651 76.8327 461.473 76.1204C465.332 75.9431 469.189 75.9249 473.051 75.9087C474.729 75.8998 474.729 75.8998 476.44 75.8907C478.809 75.8809 481.177 75.8741 483.546 75.87C487.094 75.86 490.64 75.8277 494.188 75.7947C513.495 75.6994 531.904 77.5116 550.581 82.5698C551.765 82.886 552.949 83.2021 554.168 83.5279C590.528 93.4887 624.647 110.477 653.831 134.39C655.564 135.805 657.308 137.206 659.063 138.593C666.154 144.244 672.644 150.292 679.025 156.721C680.625 158.332 682.237 159.931 683.849 161.529C690.493 168.159 696.589 175.052 702.399 182.437C702.894 183.052 703.39 183.668 703.901 184.302C741.025 230.4 759.998 286.6 766.02 345.038C766.181 346.535 766.181 346.535 766.346 348.062C767.465 360.086 767.317 372.19 767.323 384.256C767.324 386.038 767.324 386.038 767.325 387.856C767.309 405.399 766.906 422.558 763.934 439.889C763.755 440.98 763.576 442.07 763.391 443.193C759.458 466.586 752.946 492.641 739.945 512.852C736.848 511.82 733.75 510.788 730.559 509.725C728.624 494.995 728.624 494.995 728.016 487.995C725.659 456.058 725.659 456.058 710.367 429.344C709.545 428.739 708.722 428.135 707.874 427.512C707.041 426.891 706.207 426.27 705.348 425.631C704.719 425.177 704.09 424.722 703.441 424.255C703.694 425.192 703.947 426.13 704.207 427.097C705.419 431.69 706.534 436.305 707.613 440.932C707.889 442.112 707.889 442.112 708.17 443.317C714.827 472.924 715.204 503.757 715.37 533.959C715.383 535.14 715.396 536.321 715.409 537.537C715.744 574.279 710.286 613.762 684.668 642.099C683.449 643.53 682.232 644.964 681.018 646.399C680.157 647.387 679.297 648.376 678.41 649.395C677.367 647.311 677.367 647.311 677.836 645.366C678.114 644.575 678.393 643.785 678.679 642.97C678.985 642.071 679.292 641.171 679.608 640.244C679.944 639.265 680.28 638.286 680.627 637.278C683.482 628.656 685.825 620.049 687.667 611.155C687.878 610.149 688.089 609.142 688.307 608.105C690.464 597.303 691.091 586.593 691.138 575.594C691.148 573.865 691.148 573.865 691.159 572.1C691.177 568.376 691.184 564.652 691.187 560.928C691.188 559.66 691.19 558.391 691.192 557.083C691.193 540.726 690.877 524.464 689.492 508.161C689.426 507.37 689.36 506.58 689.292 505.765C688.673 498.559 688.037 491.612 685.711 484.709C683.721 482.944 683.721 482.944 681.083 481.908C666.629 474.79 653.404 465.582 640.863 455.524C639.666 454.591 638.467 453.66 637.266 452.731C626.24 444.189 615.563 435.299 605.272 425.883C604.704 425.366 604.136 424.849 603.55 424.316C600.709 421.687 598.286 419.042 596.016 415.916C603.29 417.93 610.161 420.446 617.071 423.473C618.494 424.088 618.494 424.088 619.946 424.715C625.646 427.193 631.281 429.782 636.887 432.463C642.618 435.181 648.263 437.326 654.422 438.847C646.371 430.55 637.527 423.69 628.03 417.14C626.463 416.055 624.909 414.953 623.357 413.848C614.149 407.574 603.842 403.34 592.883 401.344C592.005 401.184 591.127 401.023 590.222 400.858C588.529 400.569 586.83 400.312 585.126 400.093C578.057 398.934 575.131 395.476 570.984 389.858C570.445 389.175 569.905 388.493 569.349 387.789C554.564 368.948 544.498 348.128 535.644 326.002C533.663 321.144 531.516 316.359 529.336 311.587C527.801 308.166 526.703 304.972 526.137 301.261C525.448 301.261 524.76 301.261 524.051 301.261C527.291 334.158 530.74 368.228 545.185 398.468C545.953 400.281 545.953 400.281 545.953 402.366C542.167 404.086 538.381 405.806 534.48 407.577C534.48 408.609 534.48 409.641 534.48 410.704C540.332 411.048 546.183 411.392 552.211 411.747C556.383 420.085 560.555 428.424 564.727 436.762C546.43 431.804 531.268 418.319 517.793 405.493C516.799 404.582 516.799 404.582 515.784 403.653C477.749 367.727 467.704 322.5 465.253 272.595C464.746 262.277 464.195 251.964 463.559 241.654C463.485 240.375 463.411 239.097 463.335 237.78C462.841 229.994 461.872 222.416 460.43 214.749C457.533 217.643 457.609 220.635 457.188 224.537C457.1 225.325 457.012 226.112 456.922 226.923C455.961 236.317 455.956 245.697 455.981 255.13C455.979 257.071 455.977 259.011 455.975 260.951C455.972 264.997 455.976 269.042 455.986 273.087C455.998 278.183 455.991 283.278 455.979 288.374C455.9 327.486 457.299 365.709 468.773 403.408C469.106 404.514 469.106 404.514 469.446 405.642C470.674 409.706 471.952 413.751 473.254 417.792C474.1 420.435 474.927 423.083 475.752 425.733C479.014 436.153 482.362 446.456 486.504 456.566C467.45 450.765 452.266 433.717 442.936 416.787C442.513 416.156 442.091 415.524 441.656 414.874C440.968 414.874 440.28 414.874 439.57 414.874C439.817 426.104 442.768 436.465 445.828 447.186C446.141 448.285 446.141 448.285 446.46 449.406C446.943 451.099 447.428 452.79 447.914 454.482C439.061 451.737 432.844 447.094 426.012 440.932C425.358 440.353 424.705 439.773 424.032 439.177C389.801 406.975 370.074 350.199 368.577 304.281C368.425 297.998 368.392 291.715 368.388 285.431C368.387 284.453 368.386 283.476 368.386 282.468C368.402 268.407 368.864 254.673 371.246 240.783C371.856 237.222 372.408 233.653 372.963 230.082C375.163 216.295 377.812 202.986 382.207 189.733C382.844 187.629 383.475 185.523 384.097 183.414C384.51 182.046 384.922 180.678 385.336 179.31C384.303 179.31 383.271 179.31 382.207 179.31C381.914 180.061 381.621 180.811 381.319 181.585C380.18 184.378 378.933 187.088 377.644 189.815C366.222 214.871 361.51 243.449 360.104 270.813C359.663 277.678 357.684 283.451 355.09 289.796C354.544 291.142 354.544 291.142 353.987 292.516C352.868 295.241 351.731 297.958 350.592 300.675C347.423 308.311 344.474 315.98 341.792 323.801C339.195 331.362 336.462 338.78 333.187 346.081C332.913 346.704 332.638 347.326 332.355 347.968C311.137 395.828 311.137 395.828 290.426 404.451C282.232 408.318 274.469 412.171 267.48 418.001C266.582 418.721 265.684 419.441 264.759 420.183C252.21 430.19 252.21 430.19 241.406 441.974C246.043 440.562 250.114 438.723 254.37 436.412C254.99 436.078 255.609 435.744 256.247 435.4C258.213 434.338 260.174 433.271 262.135 432.202C267.04 429.543 271.951 426.893 276.867 424.255C277.76 423.772 278.653 423.289 279.573 422.792C281.419 421.823 283.31 420.941 285.211 420.085C285.899 420.429 286.588 420.773 287.297 421.128C282.589 425.885 277.874 430.634 273.152 435.378C271.546 436.994 269.941 438.612 268.339 440.231C266.039 442.554 263.734 444.871 261.426 447.186C260.707 447.915 259.988 448.645 259.247 449.396C258.579 450.064 257.911 450.732 257.222 451.42C256.34 452.309 256.34 452.309 255.44 453.216C253.922 454.482 253.922 454.482 251.836 454.482C251.836 455.17 251.836 455.858 251.836 456.566C249.723 458.39 247.602 460.093 245.383 461.778C244.393 462.54 244.393 462.54 243.383 463.318C242.009 464.376 240.633 465.431 239.255 466.483C237.388 467.914 235.535 469.359 233.686 470.813C227.152 475.93 220.484 480.709 213.523 485.234C211.289 486.596 211.289 486.596 210.117 487.836C209.934 489.3 209.817 490.773 209.728 492.246C209.669 493.187 209.61 494.129 209.549 495.099C209.489 496.133 209.429 497.166 209.368 498.231C209.269 499.84 209.269 499.84 209.169 501.482C209.03 503.775 208.893 506.068 208.759 508.361C208.558 511.777 208.351 515.192 208.141 518.607C201.073 587.76 201.073 587.76 224.438 650.348C229.934 657.816 229.934 657.816 229.934 661.903C224.347 661.763 221.471 659.592 217.561 655.922C201.57 639.006 193.922 617.812 187.433 595.911C187.126 594.879 186.819 593.848 186.503 592.785C183.16 581.194 181.603 570.462 181.696 558.388C181.702 557.055 181.707 555.722 181.713 554.348C181.843 537.387 182.831 520.454 183.908 503.53C184.03 501.586 184.147 499.641 184.262 497.696C185.685 474.313 190.097 451.405 194.473 428.424C194.687 427.293 194.687 427.293 194.907 426.139C198.703 406.195 202.715 386.317 207.575 366.601C207.843 365.491 207.843 365.491 208.117 364.357C211.032 352.353 215.038 340.914 219.504 329.404C219.828 328.566 220.152 327.728 220.486 326.865C222.453 321.793 224.445 316.731 226.452 311.674C227.466 309.12 228.476 306.564 229.485 304.007C239.832 277.841 239.832 277.841 245.317 267.711C246.238 265.993 247.159 264.275 248.08 262.557C248.536 261.707 248.993 260.858 249.464 259.983C250.707 257.645 251.918 255.294 253.115 252.932C261.661 236.169 272.208 220.912 284.168 206.41C284.629 205.842 285.09 205.274 285.565 204.688C304.22 181.769 324.644 163.634 350.918 150.125C351.934 149.601 351.934 149.601 352.971 149.066C367.503 141.684 382.928 136.662 398.895 133.448C398.206 131.384 397.518 129.32 396.809 127.194C368.979 123.307 345.756 129.905 322.758 145.956C319.814 148.244 317.109 150.681 314.414 153.252C313.049 154.429 311.68 155.601 310.307 156.77C287.864 176.429 269.735 201.489 255.079 227.32C254.043 229.13 252.972 230.921 251.897 232.708C241.008 250.997 232.208 270.611 224.639 290.478C223.595 293.128 222.464 295.732 221.333 298.346C217.661 307.11 214.667 316.116 211.613 325.109C210.579 328.151 209.535 331.189 208.49 334.226C205.163 343.954 202.061 353.65 199.52 363.612C198.288 368.278 196.726 372.8 195.125 377.35C191.149 389.017 187.961 400.808 185.086 412.789C184.701 414.372 184.701 414.372 184.308 415.987C177.017 446.425 171.596 478.363 171.527 509.725C167.04 511.842 167.04 511.842 164.223 511.714C161.025 510.259 160.61 508.133 159.325 504.924C158.57 503.054 158.57 503.054 157.8 501.145C157.268 499.771 156.738 498.397 156.209 497.021C155.936 496.327 155.664 495.633 155.383 494.917C149.387 479.624 144.607 464.061 140.238 448.228C139.969 447.27 139.699 446.312 139.421 445.325C133.36 423.63 129.082 401.011 128.793 378.453C128.768 376.513 128.708 374.574 128.643 372.635C128.086 346.595 133.74 322.05 140.825 297.157C141.105 296.165 141.385 295.173 141.673 294.15C143.731 287.172 146.516 280.73 149.625 274.161C150.634 271.842 151.635 269.519 152.624 267.19C153.155 265.953 153.686 264.715 154.233 263.44C155.339 260.855 156.425 258.262 157.5 255.664C166.878 233.28 179.655 213.055 194.473 193.902C194.92 193.318 195.368 192.733 195.829 192.131C201.605 184.596 207.543 177.361 214.008 170.401C216.088 168.155 218.099 165.869 220.091 163.545C226.003 156.763 232.427 150.526 239.267 144.685C240.709 143.434 242.124 142.152 243.513 140.842C278.777 107.76 325.327 86.2509 372.82 78.2051C373.614 78.0697 374.407 77.9343 375.225 77.7949C388.08 75.7578 401.103 75.9393 414.083 75.925Z" fill="#E4A351"/>
<path d="M349.875 342.954C351.345 345.702 352.34 348.208 353.012 351.248C353.29 352.453 353.29 352.453 353.573 353.682C353.772 354.549 353.972 355.416 354.177 356.308C361.387 386.038 373.212 415.091 394.552 437.507C396.809 439.889 396.809 439.889 399.351 443.147C414.838 460.512 441.183 475.141 464.406 477.152C466.191 477.238 467.977 477.324 469.816 477.413C468.784 471.221 468.784 471.221 467.73 464.905C468.802 465.395 469.874 465.886 470.978 466.391C483.616 472.102 494.302 475.992 508.406 475.328C507.492 468.934 505.382 463.768 502.409 458.065C491.302 436.631 483.614 411.902 482.332 387.773C485.214 391.321 487.933 394.949 490.611 398.653C500.232 411.441 511.035 422.235 524.051 431.551C524.677 432.002 525.304 432.453 525.949 432.918C544.761 446.323 568.412 458.881 591.844 460.345C593.618 460.462 593.618 460.462 595.429 460.581C596.311 460.632 597.193 460.683 598.102 460.736C596.117 456.408 594.046 453.202 590.736 449.791C580.615 438.84 569.894 424.776 564.727 410.704C571.37 411.135 571.37 411.135 574.244 413.807C574.889 414.718 575.534 415.629 576.199 416.567C584.037 426.859 593.495 436.072 603.378 444.413C605.96 446.62 608.444 448.924 610.943 451.225C625.275 464.24 640.816 476.361 657.094 486.859C658.231 487.592 659.367 488.326 660.537 489.082C663.743 491.037 663.743 491.037 667.178 492.258C670.576 493.602 672.649 494.673 675.281 497.217C675.993 500.047 676.361 502.374 676.561 505.246C676.633 506.064 676.706 506.883 676.78 507.726C677.009 510.476 677.193 513.225 677.367 515.979C677.431 516.945 677.495 517.911 677.561 518.906C677.965 525.269 678.237 531.628 678.428 538C678.503 540.193 678.596 542.386 678.709 544.578C679.617 562.362 676.563 577.237 671.316 594.182C669.288 600.813 667.543 607.523 665.763 614.223C664.717 618.151 663.655 622.074 662.595 625.998C661.303 630.783 660.014 635.569 658.73 640.356C647.022 683.997 647.022 683.997 639.038 702.163C638.595 703.171 638.152 704.179 637.695 705.218C631.055 719.952 622.429 732.269 611.66 744.246C610.829 745.191 609.998 746.135 609.142 747.108C575.003 785.623 505.077 835.143 452.021 841.568C399.02 842.766 331.89 788.159 294.83 754.091C283.293 742.981 274.033 730.16 266.437 716.104C266.053 715.394 265.669 714.685 265.273 713.954C254.143 692.961 248.269 669.704 241.875 646.944C239.773 639.466 237.603 632.008 235.43 624.551C234.366 620.895 233.303 617.239 232.24 613.583C231.535 611.163 230.829 608.745 230.121 606.327C224.83 588.243 219.965 571.584 220.221 552.59C220.23 551.09 220.239 549.589 220.247 548.089C220.366 535.247 221.236 522.492 222.633 509.725C223.163 510.135 223.692 510.546 224.238 510.969C228.427 514.17 232.552 517.04 237.234 519.496C238.224 520.02 239.213 520.544 240.233 521.084C240.964 521.463 241.696 521.842 242.449 522.232C240.987 526.585 238.93 529.449 235.865 532.851C235.074 533.747 234.282 534.643 233.466 535.567C230.95 537.891 229 538.927 225.762 539.952C226.451 543.098 226.451 543.098 228.5 544.186C231.135 545.298 231.135 545.298 234.692 546.01C239.033 547.509 239.34 548.507 241.406 552.46C242.352 554.43 243.286 556.407 244.209 558.388C247.355 564.779 251.339 570.038 256.008 575.391C256.123 572.398 256.123 572.398 255.511 570.073C252.288 552.239 255.906 535.854 265.995 520.897C267.162 519.241 268.363 517.609 269.566 515.979C270.108 515.24 270.65 514.501 271.208 513.739C278.187 505.649 290.666 500.746 300.855 498.259C303.919 498.129 303.919 498.129 306.07 498.259C304.476 501.946 302.272 504.508 299.552 507.445C298.713 508.365 297.874 509.285 297.01 510.234C295.605 511.758 294.195 513.278 292.772 514.786C282.661 525.865 279.398 539.817 279.605 554.479C279.617 555.58 279.629 556.681 279.642 557.815C279.94 572.014 283.411 581.505 291.469 593.11C291.938 593.842 292.407 594.575 292.891 595.329C298.719 603.39 310.323 607.542 319.629 609.787C332.172 611.246 343.223 607.451 353.554 600.439C362.768 592.874 367.738 580.692 369.691 569.137C369.975 564.449 369.981 559.76 370.017 555.065C370.048 553.81 370.078 552.556 370.109 551.263C370.194 539.121 367.732 528.362 360.631 518.389C359.8 517.169 358.971 515.949 358.141 514.729C357.479 513.765 356.816 512.802 356.133 511.809C355.789 511.121 355.444 510.433 355.09 509.725C359.856 511.485 363.861 513.942 368.127 516.667C370.779 518.087 372.987 518.677 375.949 519.105C374.614 508.805 364.827 499.5 357.176 493.048C339.934 479.97 321.266 474.861 299.812 476.37C291.272 477.558 283.576 480.354 275.694 483.781C271.662 485.029 269.2 484.54 265.484 482.653C264.895 482.278 264.306 481.903 263.7 481.517C260.404 479.238 260.404 479.238 257.051 479.497C254.676 482.362 254.676 482.362 255.16 485.23C256.505 489.364 258.698 490.67 262.266 493.048C260.768 494.895 259.269 496.74 257.768 498.585C256.933 499.613 256.098 500.641 255.238 501.7C254.07 503.092 254.07 503.092 252.879 504.513C252.365 505.143 251.852 505.773 251.323 506.423C247.769 509.173 242.505 508.033 238.277 507.64C233.365 506.77 228.521 505.7 223.676 504.513C222.686 499.387 222.686 499.387 223.676 496.174C226.183 493.988 228.839 492.502 231.734 490.865C235.384 488.741 238.665 486.383 241.993 483.797C242.849 483.134 242.849 483.134 243.722 482.457C248.153 478.976 252.378 475.297 256.517 471.472C258.67 469.501 260.854 467.588 263.064 465.683C267.645 461.686 271.984 457.478 276.281 453.179C277.061 452.398 277.841 451.618 278.644 450.814C283.508 445.9 288.041 440.918 292.312 435.48C295.2 431.832 298.215 428.304 301.247 424.776C301.781 424.15 302.316 423.524 302.867 422.88C310.15 414.399 314.984 413.31 326.017 412.138C340.761 411.066 356.044 410.986 370.734 412.789C370.616 410.747 370.616 410.747 369.691 408.62C367.331 407.383 367.331 407.383 364.477 406.535C363.562 406.128 362.648 405.721 361.706 405.301C348.9 399.658 336.609 397.71 322.758 397.154C323.239 396.255 323.72 395.357 324.216 394.43C325.676 391.703 327.131 388.973 328.584 386.243C330.274 383.067 331.976 379.897 333.685 376.731C339.614 365.682 344.942 354.481 349.875 342.954Z" fill="#FFCEA3"/>
<path d="M521.509 118.399C522.413 118.407 523.317 118.414 524.249 118.421C559.414 119.282 590.098 142.167 613.612 166.403C618.973 172.089 623.705 178.245 628.348 184.521C629.027 185.435 629.027 185.435 629.721 186.367C639.098 199.033 647.199 212.32 654.436 226.312C655.105 227.604 655.778 228.893 656.457 230.18C665.997 248.27 673.817 267.303 680.6 286.582C682.357 291.575 684.212 296.515 686.164 301.435C690.406 312.148 694.071 322.991 697.575 333.964C698.135 335.701 698.696 337.438 699.257 339.175C699.791 340.834 700.325 342.492 700.858 344.151C701.104 344.914 701.349 345.677 701.602 346.464C702.663 349.789 703.705 353.1 704.484 356.504C718.354 358.188 718.354 358.188 730.889 352.783C740.076 344.985 746.278 336.449 752.461 326.277C753.644 324.401 754.837 322.533 756.046 320.674C756.754 319.566 756.754 319.566 757.476 318.435C757.886 317.927 758.296 317.419 758.719 316.896C759.407 316.896 760.095 316.896 760.805 316.896C761.149 315.864 761.493 314.832 761.848 313.769C762.428 317.973 763.003 322.179 763.573 326.384C763.767 327.809 763.962 329.233 764.158 330.656C766.63 348.569 767.314 366.185 767.323 384.256C767.324 385.444 767.325 386.632 767.325 387.856C767.309 405.399 766.906 422.558 763.934 439.889C763.665 441.525 763.665 441.525 763.391 443.193C759.458 466.586 752.946 492.641 739.945 512.852C735.299 511.304 735.299 511.304 730.559 509.725C728.624 494.995 728.624 494.995 728.016 487.995C725.44 458.139 725.44 458.139 712.828 431.551C710.578 430.012 710.578 430.012 708.2 428.75C700.658 423.01 699.944 413.228 698.227 404.451C698.006 403.333 697.785 402.215 697.558 401.064C697.078 398.624 696.599 396.184 696.121 393.744C695.869 392.462 695.618 391.179 695.358 389.858C694.97 387.873 694.97 387.873 694.574 385.848C687.434 349.758 676.831 314.268 662.555 280.344C661.311 277.334 660.185 274.282 659.05 271.229C656.45 264.448 653.441 257.894 650.279 251.362C649.535 249.823 648.796 248.281 648.062 246.737C641.689 233.359 634.458 220.837 626.262 208.495C625.838 207.849 625.415 207.203 624.978 206.537C619.088 197.573 612.499 189.409 605.402 181.395C604.921 180.847 604.439 180.3 603.942 179.736C581.949 154.859 554.58 137.961 520.922 134.49C515.907 134.199 510.888 134.032 505.868 133.859C504.37 133.801 504.37 133.801 502.841 133.741C501.932 133.71 501.022 133.678 500.085 133.645C497.977 133.448 497.977 133.448 496.934 132.406C496.542 130.06 496.542 130.06 496.934 127.194C502.793 119.26 512.269 118.286 521.509 118.399Z" fill="#955730"/>
<path d="M620.786 483.015C623.878 484.963 623.878 484.963 626.351 484.396C628.474 483.748 628.474 483.748 630.303 482.038C633.32 479.998 635.202 480.093 638.777 480.54C641.254 482.103 641.254 482.103 642.949 483.667C642.517 488.704 640.379 490.782 636.691 494.09C638.037 495.785 639.385 497.478 640.733 499.171C641.858 500.586 641.858 500.586 643.006 502.029C645.695 505.66 645.695 505.66 649.769 506.875C656.263 506.842 661.739 506.234 667.98 504.513C671.631 504.383 671.631 504.383 674.238 504.513C674.695 506.663 674.695 506.663 674.238 509.725C669.194 516.492 661.871 520.669 654.422 524.317C659.853 530.674 665.184 536.326 672.152 540.994C670.499 544.559 669.633 545.834 665.895 547.248C664.726 547.448 663.558 547.649 662.354 547.855C657.888 549.61 657.242 550.796 655.356 554.972C655.048 555.712 654.739 556.452 654.422 557.215C648.39 570.406 648.39 570.406 642.949 575.391C641.57 575.78 640.179 576.133 638.777 576.433C639.111 575.294 639.444 574.154 639.788 572.98C644.34 554.62 640.651 537.248 631.151 521.32C624.07 511.024 616.585 502.756 604.461 498.626C601.37 498.108 598.365 498.163 595.233 498.194C593.402 498.208 593.402 498.208 591.534 498.223C590.604 498.235 589.673 498.247 588.715 498.259C589.663 498.545 590.611 498.832 591.587 499.126C601.202 502.584 609.471 510.891 613.831 519.987C622.415 540.104 621.089 564.926 613.551 585.032C608.174 597.137 600.366 604.053 588.259 608.92C577.607 612.376 566.36 612.116 556.228 607.361C542.207 599.145 534.477 585.976 529.526 570.928C525.346 554.447 527.149 534.503 535.707 519.855C539.339 514.444 543.42 509.129 548.039 504.513C539.834 509.461 531.824 514.536 524.051 520.148C522.674 519.46 521.297 518.772 519.879 518.063C522.148 512.016 525.211 507.433 529.266 502.428C529.778 501.751 530.29 501.074 530.818 500.376C551.778 474.179 591.786 467.807 620.786 483.015Z" fill="black"/>
<path d="M836.95 196.321C843.516 201.346 846.571 208.232 848.084 216.227C850.238 233.794 846.405 250.617 840.239 266.965C839.758 268.282 839.758 268.282 839.268 269.625C838.971 270.401 838.674 271.177 838.368 271.976C837.872 274.803 838.535 275.953 840.07 278.33C841.441 279.74 842.859 281.104 844.307 282.434C853.131 291.082 863.971 304.369 864.58 317.222C863.76 323.267 861.973 326.731 857.279 330.576C844.511 339.345 830.388 339.165 815.626 336.635C807.294 334.755 799.189 331.921 791.404 328.405C788.902 327.254 788.902 327.254 785.984 326.26C781.066 324.202 778.193 322.645 775.981 317.658C774.889 313.354 774.124 309.098 773.451 304.714C773.17 303.143 772.883 301.572 772.591 300.003C772.02 296.929 771.469 293.852 770.933 290.772C767.429 270.963 761.59 248.92 751.247 231.605C750.375 229.341 750.375 229.341 750.99 227.261C754.182 222.727 758.074 218.797 761.848 214.749C762.418 214.098 762.988 213.448 763.575 212.778C780.41 194.409 814.432 181.523 836.95 196.321Z" fill="#FCA189"/>
<path d="M132.09 206.15C139.512 212.369 146.993 219.786 151.711 228.299C151.278 232.615 149.597 236.299 147.861 240.245C147.583 240.881 147.305 241.517 147.019 242.172C146.154 244.151 145.282 246.127 144.41 248.103C130.755 276.152 130.755 276.152 124.007 306.147C123.506 310.642 123.024 312.227 119.733 315.41C116.652 317.6 113.392 319.363 110.014 321.05C107.936 322.093 105.915 323.207 103.889 324.347C86.9175 333.661 65.7944 340.148 46.4852 334.66C40.7937 332.496 37.6009 330.858 34.8984 325.234C33.2468 314.836 38.8206 305.916 44.6763 297.678C49.4582 291.237 54.6936 285.319 60.4308 279.702C62.3051 277.357 62.3051 277.357 61.8975 274.336C61.0657 271.366 60.1783 268.429 59.1849 265.509C53.5405 248.87 48.3391 226.871 54.613 209.753C59.4733 199.987 66.1251 195.187 76.1609 191.492C96.3192 187.375 116.007 193.932 132.09 206.15Z" fill="#FCA088"/>
<path d="M444.992 694.921C447.941 694.935 450.89 694.929 453.84 694.924C505.719 694.855 505.719 694.855 517.793 704.638C518.836 705.68 518.836 705.68 518.966 707.549C518.287 720.548 510.68 731.741 502.148 741.119C501.249 742.139 500.35 743.159 499.423 744.209C488.551 756.085 474.212 765.308 457.81 766.292C454.792 766.42 451.781 766.487 448.761 766.526C447.795 766.541 446.828 766.555 445.832 766.571C440.187 766.53 435.492 765.811 430.206 763.805C427.988 762.966 425.757 762.331 423.469 761.705C406.279 755.869 393.145 738.561 384.88 723.074C381.752 716.265 380.898 709.998 381.164 702.553C387.437 699.041 392.802 697.429 399.917 696.58C401.456 696.39 401.456 696.39 403.027 696.196C416.97 694.656 430.985 694.831 444.992 694.921Z" fill="#F88F69"/>
<path d="M590.801 325.234C593.97 327.92 595.263 330.919 596.908 334.693C597.182 335.314 597.456 335.935 597.738 336.576C598.322 337.903 598.904 339.232 599.483 340.562C600.993 344.027 602.53 347.48 604.066 350.934C604.366 351.61 604.666 352.285 604.975 352.981C608.345 360.548 611.964 367.943 615.832 375.266C616.372 376.311 616.372 376.311 616.922 377.378C629.325 401.308 645.656 424.762 664.318 444.283C665.895 446.143 665.895 446.143 665.895 448.228C666.583 448.228 667.271 448.228 667.98 448.228C669.157 449.367 670.326 450.515 671.464 451.693C681.824 462.144 694.771 474.472 709.113 478.911C710.952 479.717 710.952 479.717 712.828 480.54C716.741 495.573 715.17 513.385 715.222 528.797C715.234 531.264 715.255 533.731 715.286 536.198C715.75 573.433 710.683 613.323 684.668 642.099C683.449 643.53 682.232 644.963 681.018 646.398C680.157 647.387 679.297 648.376 678.41 649.395C677.367 647.311 677.367 647.311 677.836 645.366C678.114 644.575 678.393 643.785 678.679 642.97C679.139 641.621 679.139 641.621 679.607 640.244C679.944 639.265 680.28 638.286 680.626 637.278C683.482 628.656 685.825 620.049 687.667 611.155C687.878 610.149 688.089 609.142 688.307 608.105C690.464 597.303 691.091 586.593 691.138 575.594C691.145 574.441 691.152 573.288 691.159 572.1C691.177 568.376 691.184 564.652 691.187 560.928C691.188 559.659 691.19 558.391 691.192 557.083C691.193 540.726 690.877 524.464 689.492 508.161C689.393 506.975 689.393 506.975 689.292 505.765C688.673 498.559 688.037 491.612 685.711 484.709C683.721 482.944 683.721 482.944 681.083 481.908C666.629 474.79 653.403 465.581 640.863 455.524C639.666 454.591 638.467 453.66 637.266 452.731C626.24 444.189 615.563 435.299 605.272 425.883C604.704 425.366 604.136 424.849 603.55 424.316C600.709 421.687 598.286 419.042 596.016 415.916C603.29 417.93 610.161 420.446 617.071 423.473C618.02 423.883 618.968 424.293 619.946 424.715C625.646 427.193 631.281 429.782 636.887 432.463C642.618 435.181 648.263 437.326 654.422 438.847C646.867 431.061 638.629 424.578 629.774 418.347C628.891 417.719 628.891 417.719 627.991 417.079C626.059 415.739 626.059 415.739 623.027 414.173C618.608 410.626 616.841 406.352 614.528 401.258C614.039 400.203 613.55 399.148 613.046 398.061C590.175 347.727 590.175 347.727 590.801 325.234Z" fill="#9F5F32"/>
<path d="M605.402 226.214C617.446 227.283 628.059 237.622 635.583 246.474C649.864 264.952 658.104 285.238 657.551 308.557C656.518 309.073 656.518 309.073 655.465 309.6C653.005 308.422 650.708 307.193 648.36 305.821C647.716 305.462 647.073 305.104 646.41 304.734C642.187 302.303 639.075 299.549 635.648 296.049C633.39 294.612 633.39 294.612 631.151 293.639C630.423 293.299 629.696 292.959 628.947 292.609C628.405 292.369 627.863 292.128 627.305 291.88C627.29 292.485 627.275 293.089 627.26 293.712C626.872 300.057 625.845 303.241 621.047 307.515C613.451 310.666 606.215 310.376 598.623 307.649C594.341 305.717 590.393 303.256 586.417 300.764C583.615 299.239 581.424 298.558 578.285 298.134C578.027 299.037 577.769 299.94 577.503 300.87C576.011 304.897 574.057 308.613 570.984 311.684C565.542 311.78 562.537 311.079 558.534 307.32C545.904 293.358 537.505 275.383 536.306 256.507C536.566 253.314 536.566 253.314 538.652 250.188C543.502 251.058 547.673 253.618 551.981 255.892C560.169 260.111 568.677 261.034 577.617 258.624C588.097 254.859 595.324 249.94 600.188 239.764C601.405 236.468 602.501 233.162 603.528 229.801C604.359 227.257 604.359 227.257 605.402 226.214Z" fill="#FEC776"/>
<path d="M138.152 308.557C141.166 311.569 140.966 314.984 141.477 319.046C145.941 349.991 157.043 389.47 183.123 409.253C183.771 409.732 184.419 410.211 185.086 410.704C184.521 413.757 183.956 416.809 183.391 419.861C182.909 422.465 182.428 425.07 181.947 427.675C179.885 438.836 179.885 438.836 178.975 443.366C174.616 465.294 171.911 487.369 171.527 509.725C167.04 511.842 167.04 511.842 164.223 511.714C161.025 510.259 160.61 508.133 159.325 504.924C158.57 503.054 158.57 503.054 157.8 501.145C157.268 499.771 156.738 498.397 156.209 497.021C155.936 496.327 155.664 495.633 155.383 494.917C149.387 479.624 144.607 464.061 140.238 448.228C139.969 447.27 139.699 446.312 139.421 445.325C133.36 423.63 129.082 401.011 128.793 378.453C128.768 376.513 128.708 374.574 128.643 372.635C128.216 352.635 129.069 326.713 138.152 308.557Z" fill="#AE6936"/>
<path d="M160.055 881.832C167.092 884.05 170.354 889.733 174.656 895.382C175.1 895.954 175.545 896.526 176.002 897.115C205.729 935.461 205.729 935.461 204.902 953.752C204.429 953.236 203.956 952.72 203.468 952.188C201.902 950.389 201.902 950.389 199.687 950.625C199.62 951.311 199.553 951.996 199.483 952.703C195.942 987.636 186.1 1017.62 164.227 1045.48C149.487 1064.89 138.509 1087.08 141.281 1112.18C143.294 1120.31 146.717 1127.77 150.855 1135.03C151.711 1137.2 151.711 1137.2 150.668 1141.37C147.226 1141.03 143.784 1140.68 140.238 1140.33C140.238 1139.64 140.238 1138.95 140.238 1138.24C139.206 1137.9 138.173 1137.55 137.109 1137.2C125.327 1123.68 121.614 1105.66 122.21 1088.13C123.688 1067.83 133.066 1052.92 144.199 1036.53C165.811 1004.63 184.326 968.944 177.72 929.127C174.792 914.348 170.237 899.906 161.623 887.459C160.055 884.959 160.055 884.959 160.055 881.832Z" fill="#A46333"/>
<path d="M115.207 335.658C115.058 338.872 114.905 342.085 114.751 345.299C114.71 346.188 114.669 347.078 114.626 347.994C114.536 349.851 114.436 351.708 114.326 353.563C114.216 355.568 114.14 357.574 114.094 359.581C113.744 367.811 111.451 373.663 107.45 380.803C106.888 381.84 106.325 382.877 105.746 383.945C98.852 396.472 91.0603 408.103 81.832 419.043C81.3452 419.622 80.8583 420.201 80.3567 420.798C77.039 424.742 73.7047 428.672 70.3594 432.593C53.8446 429.764 41.1123 414.132 31.1177 401.519C30.6733 400.97 30.2288 400.421 29.7709 399.855C27.0115 396.253 25.6506 393.372 25.5117 388.816C28.2757 382.809 35.3932 378.407 40.4148 374.411C42.7386 372.543 44.9525 370.628 47.1533 368.621C55.9288 360.84 66.233 351.766 77.9209 349.989C90.3051 347.876 101.214 343.065 112.103 336.806C114.164 335.658 114.164 335.658 115.207 335.658Z" fill="#FCA188"/>
<path d="M782.707 341.911C784.494 342.611 784.494 342.611 786.317 343.324C796.664 347.222 806.59 349.869 817.516 351.618C829.26 353.601 836.522 356.94 845.285 364.842C847.195 366.344 849.107 367.842 851.021 369.337C852.943 370.956 854.854 372.585 856.758 374.223C857.394 374.755 858.031 375.286 858.687 375.834C860.761 377.575 862.802 379.347 864.841 381.129C865.502 381.677 866.162 382.226 866.843 382.791C868.613 384.375 870.061 385.784 871.359 387.773C871.563 398.719 862.474 407.618 855.397 415.171C847.998 422.84 839.884 429.3 830.684 434.678C808.037 417.457 796.476 386.164 785.836 360.673C785.494 359.917 785.151 359.161 784.799 358.381C782.436 352.873 782.378 347.854 782.707 341.911Z" fill="#DC7963"/>
<path d="M378.361 124.979C379.639 124.973 379.639 124.973 380.942 124.967C395.646 124.99 395.646 124.99 398.895 128.236C399.025 130.972 399.025 130.972 398.895 133.448C397.932 133.739 396.969 134.031 395.977 134.331C392.219 135.479 388.471 136.662 384.727 137.857C383.072 138.384 381.415 138.906 379.756 139.421C360.225 145.535 341.288 154.521 324.844 166.802C323.987 167.428 323.131 168.054 322.249 168.699C308.07 179.665 294.991 193.189 284.168 207.452C282.93 209.012 282.93 209.012 281.666 210.604C271.043 224.029 262.037 238.257 253.922 253.314C253.486 254.122 253.05 254.929 252.6 255.761C251.23 258.307 249.869 260.858 248.511 263.412C248.103 264.178 247.694 264.944 247.273 265.734C239.678 280.172 233.884 295.133 228.166 310.381C227.149 313.088 226.124 315.792 225.098 318.496C224.791 319.321 224.485 320.146 224.169 320.996C222.674 324.928 221.276 328.28 218.461 331.488C218.461 330.456 218.461 329.424 218.461 328.361C215.008 331.473 213.114 334.443 211.144 338.638C210.593 339.8 210.041 340.962 209.473 342.16C208.631 343.972 208.631 343.972 207.771 345.82C207.192 347.044 206.614 348.268 206.019 349.529C204.596 352.545 203.181 355.565 201.773 358.589C200.63 355.161 200.776 354.533 201.853 351.257C202.125 350.414 202.398 349.57 202.678 348.702C202.983 347.79 203.288 346.878 203.603 345.938C203.913 344.987 204.224 344.037 204.544 343.057C205.207 341.034 205.875 339.013 206.547 336.993C207.554 333.961 208.549 330.924 209.541 327.887C218.727 299.892 218.727 299.892 224.722 286.855C225.964 284.143 227.137 281.405 228.312 278.664C233.904 265.709 239.802 253.066 246.589 240.693C247.487 239.047 248.361 237.388 249.229 235.725C263.717 208.146 282.638 184.113 303.984 161.59C304.748 160.783 305.512 159.975 306.298 159.143C313.331 151.907 321.262 146.174 329.602 140.549C330.242 140.115 330.881 139.681 331.54 139.234C338.912 134.335 346.235 130.931 354.764 128.562C355.528 128.341 356.293 128.12 357.08 127.892C364.344 125.817 370.803 124.944 378.361 124.979Z" fill="#90532E"/>
<path d="M405.152 232.468C413.496 249.145 413.496 249.145 414.515 251.41C416.055 254.159 417.855 254.442 420.797 255.399C421.571 255.786 422.346 256.173 423.144 256.572C429.591 258.622 434.795 258.081 440.874 255.139C444.571 253.119 447.899 250.93 451.043 248.103C452.733 249.792 452.219 251.645 452.221 253.978C452.224 255.008 452.228 256.039 452.231 257.101C452.229 258.225 452.227 259.35 452.224 260.509C452.225 261.663 452.226 262.816 452.228 264.005C452.228 266.458 452.226 268.91 452.222 271.363C452.216 275.089 452.222 278.816 452.229 282.542C452.228 284.926 452.227 287.31 452.224 289.694C452.227 290.8 452.229 291.905 452.231 293.044C452.177 310.46 452.177 310.46 450 314.811C440.073 314.28 434.773 310.374 428.098 303.15C423.926 298.453 423.926 298.453 423.926 296.049C415.823 299.751 413.045 308.106 410.054 315.951C409.813 316.607 409.572 317.263 409.324 317.938C406.521 317.938 406.521 317.938 403.066 316.896C400.79 314.407 399.365 311.554 397.852 308.557C397.411 307.727 396.97 306.897 396.515 306.041C387.756 288.374 384.807 267.031 390.877 248.038C396.321 232.468 396.321 232.468 405.152 232.468Z" fill="#FEC775"/>
<path d="M482.332 387.773C485.214 391.321 487.933 394.949 490.611 398.653C500.232 411.441 511.035 422.235 524.051 431.551C524.677 432.002 525.304 432.453 525.949 432.918C544.761 446.323 568.412 458.881 591.844 460.345C593.027 460.423 594.21 460.501 595.429 460.581C596.752 460.658 596.752 460.658 598.102 460.736C596.117 456.408 594.046 453.202 590.736 449.791C580.615 438.84 569.894 424.776 564.727 410.704C571.37 411.135 571.37 411.135 574.244 413.807C574.889 414.718 575.534 415.629 576.199 416.567C584.037 426.859 593.495 436.072 603.378 444.413C605.96 446.62 608.444 448.924 610.943 451.225C628.657 467.312 648.574 483.905 670.392 494.025C675.001 496.408 675.001 496.408 676.218 499.916C676.493 502.559 676.549 504.996 676.324 507.64C675.636 507.64 674.948 507.64 674.238 507.64C674.238 506.608 674.238 505.576 674.238 504.513C673.329 504.739 672.421 504.964 671.484 505.197C653.325 509.439 653.325 509.439 647.121 507.64C642.201 503.692 637.678 499.131 635.648 493.048C636.659 492.274 637.67 491.5 638.712 490.702C640.888 488.906 641.803 488.108 642.819 485.426C642.862 484.845 642.905 484.265 642.949 483.667C639.159 481.242 635.887 481.412 631.477 481.582C631.132 480.55 630.788 479.518 630.434 478.455C625.275 476.337 619.758 475.191 614.345 473.884C610.641 472.988 606.961 472.064 603.3 471.004C584.166 465.662 564.637 465.717 546.796 474.97C543.487 476.552 541.232 476.629 537.609 476.37C539.004 470.448 543.189 468.007 548.039 464.905C549.861 463.944 551.697 463.01 553.547 462.104C554.473 461.648 555.399 461.193 556.352 460.723C557.051 460.384 557.749 460.044 558.469 459.693C557.815 459.417 557.162 459.141 556.489 458.856C543.596 453.371 530.883 447.649 518.445 441.192C517.4 440.653 516.356 440.113 515.28 439.557C509.119 436.316 503.24 432.803 497.44 428.952C494.886 427.295 494.886 427.295 491.991 426.316C489.633 425.297 489.633 425.297 488.321 422.296C488.022 421.029 487.724 419.762 487.417 418.457C487.252 417.774 487.088 417.092 486.918 416.389C482.332 396.752 482.332 396.752 482.332 387.773Z" fill="#EF945C"/>
<path d="M730.559 527.444C738.755 531.796 741.74 539.474 744.443 548.03C752.44 575.411 745.045 606.104 731.665 630.591C728.384 636.303 724.429 641.303 720.129 646.268C719.123 647.574 719.123 647.574 718.096 648.907C714.481 653.256 710.046 656.454 705.527 659.818C704.691 660.446 703.855 661.073 702.993 661.72C697 665.871 690.747 668.616 683.951 671.154C682.706 671.62 682.706 671.62 681.435 672.096C676.229 673.951 671.401 674.963 665.895 675.453C665.895 674.765 665.895 674.077 665.895 673.368C666.752 672.951 667.61 672.533 668.494 672.102C675.932 668.317 681.851 664.388 687.874 658.487C689.883 656.691 689.883 656.691 691.969 656.691C692.209 656.145 692.45 655.598 692.698 655.034C694.85 651.049 697.674 647.513 700.42 643.921C707.355 634.517 710.898 623.557 714.393 612.523C714.799 611.248 715.205 609.974 715.623 608.66C718.824 598.45 721.578 588.204 723.801 577.739C724.259 575.585 724.744 573.438 725.234 571.291C727.371 561.177 728.161 551.07 728.842 540.767C728.916 539.644 728.991 538.52 729.067 537.362C729.129 536.355 729.192 535.348 729.255 534.31C729.487 531.913 729.898 529.754 730.559 527.444Z" fill="#FAD29F"/>
<path d="M444.992 694.921C447.941 694.935 450.89 694.929 453.84 694.924C505.719 694.855 505.719 694.855 517.793 704.638C518.836 705.68 518.836 705.68 518.966 707.549C518.287 720.548 510.68 731.741 502.148 741.119C501.249 742.139 500.35 743.159 499.423 744.209C491.269 753.105 481.372 760.201 469.816 764.05C468.188 764.12 466.557 764.139 464.927 764.115C464.085 764.106 463.242 764.096 462.373 764.087C461.732 764.075 461.09 764.063 460.43 764.05C461.473 760.923 461.473 760.923 463.946 759.58C465.001 759.12 466.056 758.661 467.144 758.187C474.06 754.854 479.053 750.725 484.418 745.288C484.907 744.801 485.395 744.314 485.899 743.812C493.401 736.277 501.2 728.426 501.562 717.211C501.454 713.726 501.072 712.927 499.02 709.85C474.002 700.558 426.642 699.093 401.999 709.964C400.612 710.612 399.228 711.266 397.852 711.934C396.956 722.623 399.572 728.352 406.358 736.535C408.68 739.165 411.068 741.713 413.496 744.246C414.361 745.209 414.361 745.209 415.244 746.192C419.587 750.867 424.58 754.314 429.906 757.776C431.422 758.776 432.894 759.844 434.355 760.923C434.355 761.611 434.355 762.299 434.355 763.008C422.203 763.175 413.81 758.15 405.137 749.999C394.082 739.141 381.872 724.673 381.042 708.514C381.035 706.527 381.093 704.539 381.164 702.553C387.437 699.041 392.802 697.429 399.917 696.58C401.456 696.39 401.456 696.39 403.027 696.196C416.97 694.656 430.985 694.831 444.992 694.921Z" fill="#351920"/>
<path d="M766.02 384.646C766.364 384.646 766.708 384.646 767.062 384.646C768.086 426.723 763.409 476.375 739.945 512.852C736.848 511.82 733.75 510.788 730.559 509.725C728.624 494.995 728.624 494.995 728.016 487.995C727.021 476.597 725.244 465.65 722.689 454.499C721.75 450.341 720.952 446.156 720.129 441.974C721.334 441.372 722.538 440.77 723.779 440.15C724.539 439.768 725.299 439.387 726.081 438.994C727.615 438.231 729.154 437.481 730.701 436.746C734.944 434.711 738.377 432.474 742.031 429.466C742.72 429.466 743.408 429.466 744.117 429.466C744.117 428.778 744.117 428.09 744.117 427.382C745.281 426.409 746.485 425.484 747.702 424.58C754.145 419.149 757.868 411.752 761.848 404.451C762.439 403.407 763.031 402.363 763.64 401.287C765.171 397.747 765.498 394.871 765.694 391.031C765.762 389.829 765.831 388.628 765.901 387.391C765.94 386.485 765.979 385.58 766.02 384.646Z" fill="#CC7D3F"/>
<path d="M169.441 530.571C169.472 531.291 169.502 532.012 169.534 532.754C170.713 558.137 174.123 582.94 183.232 606.803C184.999 611.467 186.367 616.2 187.719 620.998C193.206 640.296 202.316 654.08 215.332 669.199C214.988 669.887 214.644 670.575 214.289 671.284C205.442 666.85 197.8 662.165 190.301 655.649C189.444 654.944 188.588 654.238 187.706 653.512C167.747 636.544 155.995 611.383 151.711 585.814C150.369 568.757 152.483 548.201 163.897 534.757C167.902 530.571 167.902 530.571 169.441 530.571Z" fill="#FAD4A2"/>
<path d="M382.207 179.31C383.24 179.31 384.272 179.31 385.336 179.31C384.74 184.402 383.631 188.873 381.946 193.707C373.864 218.28 369.552 246.719 369.516 272.63C369.513 273.542 369.509 274.455 369.506 275.395C369.5 277.315 369.498 279.235 369.498 281.155C369.496 284.027 369.477 286.899 369.457 289.771C369.408 304.996 370.277 320.1 373.603 335.006C373.78 335.815 373.957 336.623 374.14 337.456C382.94 376.285 400.727 421.093 433.312 446.143C432.624 446.487 431.936 446.831 431.227 447.186C411.278 438.651 395.59 418.703 385.336 400.281C384.658 399.079 384.658 399.079 383.966 397.853C374.685 381.274 368.078 364.776 364.477 346.081C364.222 344.768 363.968 343.455 363.707 342.103C355.44 297.113 355.695 249.03 370.734 205.368C370.985 204.637 371.235 203.906 371.493 203.153C374.384 194.835 377.501 186.802 382.207 179.31Z" fill="#985830"/>
<path d="M712.828 502.428C715.453 505.052 715.186 505.935 715.217 509.566C715.23 510.622 715.244 511.679 715.257 512.768C715.26 513.923 715.262 515.078 715.264 516.268C715.271 517.47 715.278 518.673 715.285 519.912C715.296 522.481 715.301 525.049 715.301 527.617C715.305 531.442 715.343 535.266 715.383 539.091C715.558 575.37 709.942 614.142 684.668 642.099C683.449 643.53 682.232 644.963 681.018 646.399C680.157 647.387 679.297 648.376 678.41 649.395C677.367 647.311 677.367 647.311 677.836 645.366C678.253 644.18 678.253 644.18 678.679 642.97C678.985 642.07 679.292 641.171 679.607 640.244C679.944 639.265 680.28 638.286 680.626 637.278C683.481 628.656 685.825 620.049 687.666 611.155C687.878 610.149 688.089 609.142 688.307 608.105C690.415 597.549 691.058 587.169 690.962 576.421C690.966 574.254 690.972 572.087 690.981 569.921C690.992 566.57 690.991 563.222 690.951 559.871C690.791 544.86 692.072 533.906 700.312 521.19C700.706 520.57 701.1 519.951 701.506 519.312C703.801 515.702 706.197 512.182 708.656 508.682C710.057 506.604 711.443 504.517 712.828 502.428Z" fill="#E4A451"/>
<path d="M306.07 498.259C304.476 501.946 302.272 504.508 299.552 507.445C298.713 508.365 297.874 509.285 297.01 510.234C295.605 511.758 294.195 513.278 292.772 514.786C282.661 525.865 279.398 539.817 279.605 554.479C279.617 555.58 279.629 556.681 279.642 557.815C279.988 574.28 285.137 586.754 296.28 599.05C298.3 600.943 300.473 602.3 302.941 603.533C301.909 604.049 301.909 604.049 300.855 604.575C299.823 604.06 299.823 604.06 298.77 603.533C298.253 605.081 298.253 605.081 297.727 606.66C284.836 606.66 274.74 598.003 265.794 589.466C255.665 578.829 254.497 568.406 254.511 554.202C254.891 539.443 260.954 527.646 269.566 515.978C270.108 515.24 270.65 514.501 271.208 513.739C278.595 505.175 294.715 497.571 306.07 498.259Z" fill="#FFF8E8"/>
<path d="M587.672 497.217C601.192 496.516 610.864 498.472 621.047 507.64C628.338 514.569 633.252 522.713 637.734 531.613C638.452 533.036 638.452 533.036 639.185 534.488C644.301 546.838 644.31 565.597 639.274 577.98C636.341 582.975 632.487 587.011 628.348 591.025C627.779 591.637 627.21 592.248 626.624 592.878C625.219 594.152 625.219 594.152 623.133 594.152C623.133 594.84 623.133 595.528 623.133 596.237C621.411 597.307 619.67 598.346 617.918 599.364C617.423 599.874 616.929 600.385 616.419 600.91C613.571 603.672 609.939 604.834 606.315 606.334C605.562 606.668 604.809 607.002 604.033 607.346C598.346 609.718 593.823 610.11 587.672 609.787C589.956 607.414 591.82 606.034 594.842 604.706C598.823 602.775 601.435 600.663 604.359 597.279C604.862 596.727 605.365 596.175 605.883 595.606C618.283 580.855 619.221 559.327 617.918 540.994C616.088 526.057 611.71 514.53 600.188 504.513C596.156 501.451 592.538 499.648 587.672 498.259C587.672 497.915 587.672 497.571 587.672 497.217Z" fill="#FFF8E8"/>
<path d="M846.328 367.969C852.006 369.565 855.654 373.463 859.887 377.35C861.776 379.045 863.667 380.739 865.558 382.432C870.156 386.571 870.156 386.571 871.359 387.773C871.359 400.105 860.305 410.291 852.117 418.519C845.602 424.829 838.501 430.108 830.684 434.678C827.401 432.51 825.699 431.332 824.623 427.475C824.532 426.317 824.442 425.159 824.348 423.965C824.233 422.676 824.118 421.387 824 420.059C823.904 418.713 823.808 417.368 823.709 415.981C823.491 413.344 823.269 410.707 823.045 408.07C822.938 406.775 822.831 405.48 822.721 404.146C822.241 399.275 821.49 394.474 820.662 389.652C820.277 386.895 820.179 384.299 820.254 381.52C821.308 381.068 822.362 380.617 823.448 380.151C824.12 379.861 824.792 379.571 825.485 379.272C827.315 378.495 829.161 377.756 831.009 377.025C836.158 374.833 842.35 371.945 846.328 367.969Z" fill="#FCA18A"/>
<path d="M761.848 326.277C765.332 329.759 765.06 334.305 765.262 339.037C765.221 346.742 762.937 353.987 760.805 361.325C760.593 362.065 760.381 362.805 760.163 363.568C750.33 397.703 750.33 397.703 735.741 406.816C730.775 408.973 725.473 409.196 720.129 408.62C718.043 407.577 718.043 407.577 717.219 405.365C716.957 404.398 716.695 403.431 716.426 402.435C716.129 401.358 715.833 400.28 715.527 399.17C715.217 398.011 714.907 396.851 714.588 395.656C713.941 393.277 713.293 390.898 712.645 388.519C712.325 387.336 712.006 386.153 711.677 384.935C710.834 381.856 709.962 378.79 709.068 375.726C708.82 374.87 708.572 374.014 708.317 373.132C707.857 371.547 707.392 369.964 706.919 368.383C705.41 363.108 705.41 363.108 706.57 359.631C707.377 360.082 708.184 360.534 709.015 360.999C717.193 365.369 722.433 367.541 731.536 364.842C746.704 358.371 755.936 340.735 761.848 326.277Z" fill="#E4A251"/>
<path d="M115.207 335.658C115.058 338.872 114.905 342.085 114.751 345.299C114.71 346.188 114.669 347.078 114.626 347.994C114.536 349.851 114.436 351.708 114.326 353.563C114.216 355.568 114.14 357.574 114.094 359.581C113.744 367.811 111.451 373.662 107.45 380.803C106.888 381.839 106.327 382.875 105.748 383.943C99.2083 395.832 91.909 407.813 82.875 418.001C82.5308 418.001 82.1866 418.001 81.832 418.001C81.7062 402.326 81.8954 386.743 82.875 371.096C81.7282 371.069 80.5814 371.043 79.3998 371.015C70.128 370.695 62.2214 369.852 53.6719 365.885C56.1496 359.13 64.1604 354.438 70.3594 351.292C73.7648 350.17 77.1983 349.665 80.7414 349.18C92.0804 347.599 102.243 342.473 112.103 336.806C114.164 335.658 114.164 335.658 115.207 335.658Z" fill="#DB7962"/>
<path d="M331.102 412.789C326.928 418.585 322.468 423.906 317.543 429.075C316.53 430.145 316.53 430.145 315.498 431.237C297.67 449.991 297.67 449.991 288.095 458.073C286.107 459.823 284.304 461.688 282.473 463.602C278.679 467.424 274.653 470.89 270.479 474.286C269.868 474.8 269.257 475.314 268.627 475.844C264.546 479.093 262.175 479.735 257.051 479.497C254.676 482.362 254.676 482.362 255.16 485.23C256.505 489.364 258.698 490.671 262.266 493.048C260.768 494.895 259.269 496.74 257.768 498.585C256.515 500.127 256.515 500.127 255.238 501.7C254.459 502.628 253.681 503.556 252.879 504.513C252.365 505.143 251.852 505.773 251.323 506.423C247.769 509.174 242.505 508.033 238.277 507.64C233.365 506.77 228.521 505.701 223.676 504.513C222.686 499.387 222.686 499.387 223.676 496.175C226.183 493.989 228.839 492.502 231.734 490.865C235.384 488.741 238.665 486.383 241.993 483.797C242.849 483.134 242.849 483.134 243.722 482.457C248.153 478.976 252.378 475.297 256.517 471.472C258.67 469.501 260.854 467.588 263.064 465.683C267.645 461.686 271.984 457.478 276.281 453.179C277.061 452.399 277.841 451.618 278.644 450.814C283.508 445.9 288.041 440.918 292.312 435.48C295.2 431.832 298.215 428.304 301.247 424.776C302.049 423.837 302.049 423.837 302.867 422.88C311.28 413.084 318.352 412.393 331.102 412.789Z" fill="#F3975E"/>
<path d="M459.387 213.706C460.075 214.05 460.763 214.394 461.473 214.749C464.061 224.129 464.134 234.182 464.638 243.852C464.726 245.43 464.814 247.008 464.902 248.586C465.133 252.712 465.355 256.839 465.575 260.966C465.798 265.12 466.028 269.274 466.258 273.428C466.518 278.127 466.777 282.826 467.03 287.526C467.558 297.319 468.146 307.108 468.773 316.896C468.085 316.896 467.397 316.896 466.688 316.896C466.858 317.947 467.029 318.999 467.205 320.082C467.704 323.985 467.834 327.655 467.796 331.586C467.786 333.006 467.777 334.426 467.768 335.846C467.762 336.58 467.755 337.315 467.749 338.072C467.581 358.968 468.007 379.502 471.153 400.2C471.987 405.766 472.49 411.35 472.945 416.958C471.008 414.054 470.181 412.043 469.205 408.75C468.904 407.734 468.602 406.718 468.292 405.67C458.674 372.297 455.054 339.077 455.04 304.392C455.036 302.425 455.033 300.458 455.029 298.492C455.023 294.397 455.021 290.301 455.022 286.206C455.022 281.009 455.007 275.812 454.989 270.614C454.978 266.56 454.976 262.507 454.976 258.453C454.975 256.539 454.971 254.624 454.962 252.71C454.926 243.279 455.088 233.958 456.142 224.577C456.223 223.839 456.304 223.101 456.388 222.34C456.845 218.736 457.331 216.789 459.387 213.706Z" fill="#965730"/>
<path d="M482.332 387.773C485.214 391.321 487.933 394.949 490.611 398.653C500.232 411.441 511.035 422.235 524.051 431.551C524.677 432.002 525.304 432.453 525.949 432.918C540.963 443.617 556.777 450.847 574.171 456.835C576.319 457.654 578.318 458.664 580.371 459.693C581.901 460.112 583.446 460.481 584.999 460.801C585.814 460.971 586.629 461.142 587.468 461.318C588.602 461.546 588.602 461.546 589.758 461.778C590.812 461.993 591.866 462.208 592.952 462.429C593.952 462.623 593.952 462.623 594.973 462.82C595.317 464.54 595.661 466.26 596.016 468.032C595.181 468.005 594.347 467.977 593.487 467.949C569.376 467.245 569.376 467.245 546.821 474.97C543.5 476.545 541.24 476.63 537.609 476.37C539.004 470.448 543.189 468.007 548.039 464.905C549.861 463.944 551.697 463.01 553.547 462.104C554.473 461.648 555.399 461.193 556.352 460.723C557.051 460.384 557.749 460.044 558.469 459.693C557.815 459.417 557.162 459.141 556.489 458.856C543.596 453.371 530.883 447.649 518.445 441.192C517.4 440.653 516.356 440.113 515.28 439.557C509.119 436.316 503.24 432.803 497.44 428.952C494.886 427.295 494.886 427.295 491.991 426.316C489.633 425.297 489.633 425.297 488.321 422.296C488.022 421.029 487.724 419.762 487.417 418.457C487.252 417.774 487.088 417.092 486.918 416.389C482.332 396.752 482.332 396.752 482.332 387.773Z" fill="#F59961"/>
<path d="M349.875 342.954C351.345 345.702 352.34 348.208 353.012 351.248C353.197 352.051 353.382 352.854 353.573 353.682C353.872 354.982 353.872 354.982 354.177 356.308C361.365 385.945 373.138 415.114 394.486 437.422C396.801 439.882 398.904 442.439 400.98 445.101C396.676 445.101 395.717 443.415 392.637 440.476C388.679 436.748 384.651 433.234 380.382 429.857C374.141 424.823 369.236 419.202 364.477 412.789C366.542 412.789 368.607 412.789 370.734 412.789C370.616 410.747 370.616 410.747 369.691 408.62C367.98 407.86 366.235 407.177 364.477 406.535C363.562 406.128 362.648 405.721 361.706 405.301C348.9 399.658 336.609 397.71 322.758 397.154C323.239 396.255 323.72 395.357 324.216 394.43C325.676 391.703 327.131 388.973 328.584 386.243C330.274 383.067 331.976 379.897 333.685 376.731C339.614 365.682 344.942 354.481 349.875 342.954Z" fill="#F49F67"/>
<path d="M307.113 300.219C310.054 309.036 307.212 317.934 304.962 326.602C304.635 327.888 304.308 329.173 303.971 330.497C301.507 339.951 298.538 349.116 295.156 358.275C293.772 362.047 292.706 365.828 291.729 369.728C288.534 381.427 282.996 392.435 277.91 403.408C277.487 404.37 277.064 405.332 276.629 406.323C273.897 412.27 271.16 415.861 265.786 419.564C264.494 420.514 263.205 421.469 261.919 422.426C260.96 423.134 260.96 423.134 259.982 423.855C257.019 426.118 254.257 428.579 251.51 431.095C250.589 431.935 249.668 432.774 248.719 433.639C246.565 435.553 246.565 435.553 245.578 437.805C244.89 437.805 244.201 437.805 243.492 437.805C244.946 433.912 246.724 430.436 248.837 426.86C249.489 425.755 250.142 424.649 250.813 423.509C252.788 420.236 254.817 417.001 256.855 413.766C268.431 394.906 276.961 374.889 285.211 354.419C285.623 353.4 286.034 352.381 286.458 351.332C291.721 338.193 296.222 324.807 300.61 311.356C301.246 309.415 301.246 309.415 301.894 307.434C302.273 306.268 302.651 305.103 303.041 303.902C304.357 300.219 304.357 300.219 307.113 300.219Z" fill="#A05F32"/>
<path d="M285.211 420.085C286.243 420.601 286.243 420.601 287.297 421.128C282.589 425.885 277.874 430.634 273.152 435.378C271.546 436.994 269.941 438.612 268.339 440.231C266.039 442.554 263.734 444.871 261.426 447.186C260.707 447.915 259.988 448.645 259.247 449.396C258.579 450.064 257.911 450.732 257.222 451.42C256.634 452.013 256.046 452.605 255.44 453.216C253.922 454.482 253.922 454.482 251.836 454.482C251.836 455.17 251.836 455.858 251.836 456.566C249.723 458.39 247.602 460.093 245.383 461.778C244.723 462.286 244.063 462.795 243.383 463.318C242.009 464.376 240.633 465.431 239.255 466.483C237.388 467.914 235.535 469.359 233.686 470.813C227.152 475.93 220.484 480.709 213.523 485.234C211.289 486.596 211.289 486.596 210.117 487.836C209.876 490.611 209.696 493.365 209.559 496.146C209.514 496.977 209.469 497.809 209.423 498.665C209.281 501.331 209.145 503.997 209.009 506.663C208.914 508.466 208.818 510.269 208.722 512.072C208.486 516.501 208.257 520.93 208.031 525.359C207.687 525.359 207.343 525.359 206.988 525.359C206.988 524.005 206.988 522.651 206.988 521.255C206.388 515.551 203.589 512.826 199.704 508.825C196.866 505.818 195.13 503.069 193.43 499.301C193.756 495.308 195.68 493.684 198.645 491.158C199.492 490.431 200.339 489.705 201.211 488.956C203.661 486.956 206.154 485.043 208.683 483.146C220.969 473.64 229.974 458.97 237.108 445.345C240.002 442.298 242.941 441.41 246.846 439.983C251.839 438.03 256.424 435.34 261.092 432.723C263.104 431.613 265.117 430.504 267.13 429.397C268.086 428.87 269.043 428.343 270.028 427.8C273.417 425.944 276.82 424.132 280.257 422.365C281.652 421.646 281.652 421.646 283.076 420.912C283.781 420.639 284.485 420.366 285.211 420.085Z" fill="#9E5D32"/>
<path d="M815.039 232.468C815.842 235.31 815.842 235.31 816.082 238.722C814.269 241.092 814.269 241.092 811.584 243.282C810.63 244.075 809.675 244.868 808.692 245.684C807.187 246.882 807.187 246.882 805.652 248.103C804.692 248.901 803.732 249.699 802.743 250.521C795.766 256.261 795.766 256.261 792.094 257.484C791.75 258.516 791.405 259.548 791.051 260.611C789.345 262.129 787.574 263.575 785.771 264.975C781.13 268.655 776.97 272.482 772.962 276.836C771.234 278.33 771.234 278.33 768.105 278.33C767.255 275.486 766.408 272.642 765.563 269.796C765.323 268.995 765.083 268.193 764.836 267.367C761.572 256.353 761.572 256.353 762.695 252.468C769.749 242.195 782.102 236.016 793.943 232.981C800.925 231.917 807.999 232.245 815.039 232.468Z" fill="#D97661"/>
<path d="M762.891 426.339C763.579 426.683 764.267 427.027 764.977 427.382C762.41 455.906 755.728 488.387 739.945 512.852C736.848 511.82 733.75 510.788 730.559 509.725C728.955 499.407 728.191 489.944 729.516 479.497C730.333 479.239 731.15 478.981 731.993 478.716C735.206 477.187 735.518 476.447 736.816 473.244C737.926 471.429 739.058 469.627 740.206 467.837C741.172 466.327 741.172 466.327 742.158 464.787C744.404 461.338 746.712 457.936 749.059 454.555C750.506 452.182 751.495 449.787 752.461 447.186C753.149 447.186 753.838 447.186 754.547 447.186C754.642 446.494 754.738 445.802 754.836 445.089C755.813 441.053 757.503 437.557 759.305 433.831C759.649 433.109 759.992 432.387 760.346 431.642C761.189 429.872 762.039 428.105 762.891 426.339Z" fill="#B36D38"/>
<path d="M590.801 325.234C593.97 327.92 595.263 330.919 596.908 334.693C597.182 335.314 597.456 335.935 597.738 336.576C598.322 337.903 598.904 339.232 599.483 340.562C600.993 344.027 602.53 347.48 604.066 350.934C604.366 351.61 604.666 352.285 604.975 352.981C608.345 360.548 611.964 367.943 615.832 375.266C616.372 376.311 616.372 376.311 616.922 377.378C625.377 393.692 635.746 408.86 647.072 423.318C648.027 424.536 648.027 424.536 649 425.779C650.195 427.288 651.403 428.786 652.627 430.273C654.23 432.28 654.23 432.28 656.508 435.72C656.129 438.02 656.129 438.02 655.465 439.889C652.884 440.405 652.884 440.405 650.25 440.932C651.283 440.244 652.315 439.556 653.379 438.847C651.76 434.301 648.222 431.949 644.514 429.14C643.86 428.636 643.206 428.133 642.532 427.613C633.214 420.406 633.214 420.406 623.182 414.287C618.664 410.676 616.889 406.457 614.528 401.258C614.039 400.203 613.55 399.148 613.046 398.061C590.175 347.727 590.175 347.727 590.801 325.234Z" fill="#A05F32"/>
<path d="M119.77 234.618C126.039 236.445 130.513 239.234 135.023 243.934C135.782 244.678 136.54 245.422 137.321 246.189C139.872 249.454 140.794 251.243 141.281 255.399C139.349 263.114 135.58 270.28 131.895 277.288C130.862 277.288 129.829 277.288 128.766 277.288C127.201 275.647 127.201 275.647 125.637 273.444C125.09 272.682 124.542 271.921 123.979 271.136C122.508 268.949 122.508 268.949 120.878 266.083C119.064 263.245 116.798 261.632 114.164 259.568C114.164 258.88 114.164 258.193 114.164 257.484C113.323 257.075 113.323 257.075 112.465 256.657C96.6169 248.595 96.6169 248.595 92.2617 242.891C91.4143 239.96 91.4143 239.96 91.2188 237.68C99.6669 231.16 109.72 232.558 119.77 234.618Z" fill="#DA7761"/>
<path d="M494.848 241.849C500.938 244.461 503.07 249.536 505.579 255.432C506.918 258.879 508.189 262.346 509.449 265.822C509.827 266.782 510.205 267.741 510.594 268.729C514.325 278.341 518.262 289.828 516.75 300.219C514.393 303.449 512.825 305.034 508.993 306.212C503.65 304.649 501.146 299.995 498.457 295.378C491.73 282.5 484.194 266.233 488.37 251.442C491.044 244.383 491.044 244.383 494.848 241.849Z" fill="#FEC978"/>
<path d="M728.473 546.206C737.09 557.125 738.911 570.156 737.859 583.729C737.212 586.174 736.514 588.607 735.773 591.025C735.449 592.43 735.138 593.837 734.84 595.248C730.711 614.596 722.49 626.864 706.57 638.972C705.882 638.628 705.194 638.284 704.484 637.93C704.806 637.264 705.128 636.598 705.46 635.912C709.051 628.282 711.848 620.557 714.393 612.523C714.799 611.248 715.205 609.974 715.623 608.66C719.065 597.68 721.948 586.651 724.301 575.391C724.464 574.617 724.628 573.844 724.797 573.047C726.655 564.141 727.973 555.298 728.473 546.206Z" fill="#F79861"/>
<path d="M583.5 577.475C586.996 579.754 588.43 580.79 589.758 584.771C590.552 591.69 590.227 597.743 586.421 603.72C581.983 608.204 576.063 608.588 570.031 608.904C563.929 608.71 559.992 607.491 555.658 603.118C552.316 599.019 551.797 595.239 551.946 589.975C552.471 585.857 554.139 582.795 557.112 579.947C560.26 578.072 562.712 578.024 566.356 577.866C581.932 577.124 581.932 577.124 583.5 577.475Z" fill="#EA6C63"/>
<path d="M335.99 577.215C340.023 577.519 342.331 578.381 345.703 580.602C348.784 584.194 349.333 587.368 349.129 592.084C348.29 597.925 344.927 601.971 340.488 605.618C335.309 608.394 329.661 609.92 323.801 608.745C318.348 606.556 312.929 603.693 310.242 598.322C309.485 593.05 309.399 588.541 311.807 583.729C318.914 578.047 327.248 577.807 335.99 577.215Z" fill="#EA6C63"/>
<path d="M169.441 559.756C170.13 559.756 170.818 559.756 171.527 559.756C171.679 560.594 171.83 561.432 171.986 562.295C174.951 578.479 178.327 593.926 184.174 609.351C185.856 613.999 187.26 618.732 188.671 623.468C188.941 624.365 189.212 625.262 189.49 626.186C191.344 632.439 191.344 632.439 191.344 634.803C179.545 629.208 169.915 618.867 165.102 606.738C163.177 601.2 161.517 595.855 161.098 589.983C161.02 589.077 160.942 588.172 160.861 587.239C160.38 577.534 162.781 567.18 169.441 559.756Z" fill="#F89A62"/>
<path d="M230.977 200.156C230.484 204.584 227.964 206.69 224.719 209.537C224.03 209.537 223.342 209.537 222.633 209.537C222.633 210.225 222.633 210.913 222.633 211.622C220.946 213.115 219.195 214.536 217.418 215.921C212.914 219.518 208.799 223.24 204.784 227.366C202.204 229.956 199.467 232.328 196.697 234.712C194.187 236.885 191.722 239.103 189.258 241.328C186.092 244.186 182.906 247.012 179.676 249.797C176.39 252.653 173.323 255.663 170.277 258.77C167.582 261.411 164.715 263.835 161.827 266.262C159.819 267.998 159.819 267.998 157.969 271.034C157.28 271.034 156.592 271.034 155.883 271.034C155.883 271.722 155.883 272.41 155.883 273.118C151.22 277.288 151.22 277.288 148.582 277.288C148.868 276.588 149.155 275.888 149.45 275.166C150.337 272.916 151.175 270.647 151.984 268.367C156.578 255.661 156.578 255.661 161.965 251.893C165.213 249.443 167.915 246.521 170.745 243.608C175.726 238.557 180.857 233.912 186.426 229.504C189.342 227.19 192.164 224.787 194.994 222.371C200.543 217.742 206.268 213.384 212.073 209.081C212.916 208.452 213.76 207.823 214.629 207.175C226.304 198.6 226.304 198.6 230.977 200.156Z" fill="#A05F32"/>
<path d="M306.07 498.259C304.476 501.946 302.272 504.508 299.552 507.445C298.713 508.365 297.874 509.285 297.01 510.234C295.605 511.758 294.195 513.278 292.773 514.786C288.434 519.539 285.815 524.757 283.125 530.571C282.434 531.963 281.741 533.354 281.039 534.74C281.039 534.052 281.039 533.364 281.039 532.656C270.614 537.664 260.871 544.717 256.855 555.912C256.576 556.837 256.296 557.761 256.008 558.714C255.664 558.714 255.32 558.714 254.965 558.714C253.573 542.111 259.982 528.962 269.566 515.978C270.108 515.24 270.65 514.501 271.208 513.739C278.595 505.175 294.715 497.571 306.07 498.259Z" fill="#EBD6B2"/>
<path d="M679.453 215.791C687.397 217.716 693.725 220.828 700.573 225.237C701.525 225.839 702.476 226.44 703.457 227.06C715.079 234.468 726.215 242.413 736.816 251.23C737.615 251.887 738.414 252.544 739.236 253.221C744.785 257.901 746.965 261.697 749.528 268.493C750.098 269.979 750.098 269.979 750.681 271.494C751.418 274.161 751.418 274.161 750.375 277.288C749.515 276.542 748.654 275.796 747.768 275.028C735.354 264.31 722.651 253.979 709.719 243.894C704.67 239.943 699.753 235.851 694.849 231.723C692.199 229.531 689.499 227.439 686.754 225.367C683.443 222.833 680.815 220.281 678.41 216.833C678.754 216.489 679.099 216.145 679.453 215.791Z" fill="#A16133"/>
<path d="M586.629 548.29C595.215 551.585 600.351 555.919 605.052 563.827C607.935 570.499 607.768 576.874 605.353 583.68C601.156 592.117 594.737 600.431 585.586 603.533C586.102 602.566 586.618 601.598 587.15 600.602C589.729 594.576 589.885 587.726 587.476 581.645C585.334 579.282 583.2 577.884 580.371 576.433C581.033 575.453 581.694 574.474 582.376 573.465C585.164 568.589 585.465 563.775 585.847 558.258C585.927 557.296 586.008 556.335 586.091 555.344C586.286 552.994 586.465 550.643 586.629 548.29Z" fill="#9C302D"/>
<path d="M569.941 513.894C573.953 515.745 575.98 518.737 578.22 522.493C580.002 528.778 579.465 533.508 576.46 539.3C573.479 542.776 571.333 544.798 566.698 545.493C562.502 545.711 559.904 545.348 556.057 543.535C552.23 540.066 549.612 536.775 548.719 531.593C548.503 526.671 549.524 523.18 552.211 519.105C557.94 513.939 562.319 512.876 569.941 513.894Z" fill="#FFFBF3"/>
<path d="M311.285 552.46C311.312 553.266 311.339 554.072 311.367 554.903C311.738 561.713 312.205 567.771 316.5 573.306C318.501 574.939 320.523 576.156 322.758 577.475C322.758 578.163 322.758 578.851 322.758 579.56C322.192 579.737 321.626 579.915 321.043 580.097C320.296 580.35 319.55 580.603 318.782 580.863C318.043 581.105 317.305 581.347 316.545 581.596C313.85 582.976 312.781 584.229 311.285 586.856C310.589 590.744 310.676 594.423 311.285 598.322C314.497 602.893 318.943 605.132 323.801 607.702C321.996 608.391 321.996 608.391 319.629 608.745C316.205 607.119 313.267 604.762 310.242 602.491C309.614 602.038 308.986 601.585 308.34 601.119C301.341 595.657 293.901 587.027 292.007 578.265C291.379 572.044 292.519 568.428 296.363 563.644C306.035 552.46 306.035 552.46 311.285 552.46Z" fill="#9E322E"/>
<path d="M323.801 511.809C327.071 513.131 328.562 514.436 330.906 517.021C333.105 522.572 333.346 528.478 331.191 534.101C328.538 538.728 325.878 541.414 320.672 543.079C316.165 543.642 314.001 543.418 309.981 541.255C306.331 538.27 304.431 536.079 302.941 531.613C302.407 525.208 303.008 521.042 307.113 515.979C312.221 511.238 317.141 510.897 323.801 511.809Z" fill="#FFFBF3"/>
<path d="M556.383 551.417C556.497 552.473 556.611 553.529 556.729 554.618C556.896 556.026 557.063 557.435 557.23 558.844C557.304 559.537 557.377 560.23 557.452 560.945C558.199 567.032 559.901 572.414 564.727 576.433C565.759 577.121 566.792 577.809 567.855 578.518C567.139 578.62 566.422 578.722 565.684 578.827C564.744 578.983 563.804 579.139 562.836 579.299C561.905 579.444 560.973 579.59 560.013 579.739C556.843 580.797 555.968 581.927 554.297 584.771C552.549 590.013 552.621 594.507 554.492 599.624C556.701 602.974 558.075 604.68 561.598 606.66C568.314 608.009 574.699 607.8 581.414 606.66C578.044 610.534 575.466 610.685 570.463 611.22C563.209 611.125 555.015 607.819 549.864 602.686C549.262 601.934 548.66 601.181 548.039 600.406C548.727 600.406 549.416 600.406 550.125 600.406C549.634 599.775 549.144 599.143 548.638 598.493C541.64 589.081 538.145 579.956 539.695 568.094C541.661 561.053 546.488 556.731 552.211 552.46C554.297 551.417 554.297 551.417 556.383 551.417Z" fill="#972F2B"/>
<path d="M587.672 497.217C601.192 496.516 610.864 498.472 621.047 507.64C631.08 517.175 639.003 530.503 641.906 544.121C641.39 545.153 641.39 545.153 640.863 546.206C640.394 545.752 639.925 545.297 639.441 544.83C633.248 539.099 626.293 534.338 618.191 531.74C615.832 530.571 615.832 530.571 614.822 528.38C614.547 527.079 614.547 527.079 614.268 525.75C611.602 515.464 605.37 508.424 596.993 502.103C593.937 500.348 591.055 499.225 587.672 498.259C587.672 497.915 587.672 497.571 587.672 497.217Z" fill="#EBD6B2"/>
<path d="M760.805 313.769C761.149 313.769 761.493 313.769 761.848 313.769C764.47 324.58 761.318 331.789 755.84 340.909C749.413 351.073 741.499 362.735 729.512 366.471C722.635 367.977 717.964 366.841 711.663 364.077C709.348 362.522 708.635 361.146 707.613 358.589C710.987 357.465 713.649 357.402 717.196 357.286C723.776 356.784 727.672 355.586 732.645 351.292C733.879 350.228 733.879 350.228 735.138 349.143C742.418 342.358 747.343 334.697 752.461 326.277C753.644 324.401 754.837 322.533 756.046 320.674C756.518 319.935 756.99 319.196 757.476 318.435C757.886 317.927 758.296 317.419 758.719 316.896C759.407 316.896 760.095 316.896 760.805 316.896C760.805 315.864 760.805 314.832 760.805 313.769Z" fill="#A26233"/>
<path d="M345.703 550.375C350.107 551.634 353.081 553.014 356.459 556.108C357.165 556.742 357.87 557.376 358.598 558.03C361.354 560.817 361.513 562.724 361.543 566.531C361.335 582.602 354.653 594.361 344.269 606.212C337.801 611.899 327.657 611.202 319.629 610.829C323.964 608.326 328.318 607.986 333.216 607.348C336.528 606.613 338.693 605.343 341.531 603.533C342.22 603.533 342.908 603.533 343.617 603.533C344.333 602.154 345.023 600.761 345.703 599.364C346.09 598.59 346.478 597.816 346.876 597.019C348.461 592.043 348.554 587.665 346.551 582.817C344.361 580.251 342.563 579.666 339.445 578.518C339.101 577.486 338.757 576.454 338.402 575.391C339.419 573.651 340.441 571.914 341.493 570.195C343.354 566.58 343.818 562.767 344.399 558.779C344.595 557.56 344.595 557.56 344.795 556.317C345.11 554.339 345.409 552.357 345.703 550.375Z" fill="#992F2C"/>
<path d="M136.066 427.381C138.592 429.905 138.703 431.343 139.326 434.808C139.588 436.231 139.588 436.231 139.855 437.682C140.045 438.775 140.045 438.775 140.238 439.889C140.927 439.889 141.615 439.889 142.324 439.889C142.465 440.485 142.607 441.08 142.752 441.693C145.593 452.388 150.967 461.496 157.382 470.442C166.37 483.268 172.141 493.724 170.484 509.725C168.286 511.059 166.857 511.834 164.256 511.714C161.024 510.267 160.621 508.159 159.325 504.924C158.57 503.053 158.57 503.053 157.8 501.144C157.268 499.771 156.738 498.396 156.209 497.021C155.937 496.328 155.664 495.636 155.384 494.922C136.066 445.691 136.066 445.691 136.066 427.381Z" fill="#CF7E40"/>
<path d="M145.453 282.499C149.796 287.354 152.496 292.928 155.492 298.655C160.467 307.974 165.824 316.08 172.57 324.192C173.791 325.84 175.008 327.49 176.221 329.143C181.338 335.728 187.756 341.174 194.473 346.081C194.128 347.113 193.784 348.145 193.43 349.208C187.308 349.989 184.102 348.513 179.154 344.912C164.062 332.658 151.259 315.295 144.41 297.092C144.41 296.06 144.41 295.028 144.41 293.965C143.722 293.621 143.033 293.277 142.324 292.923C143.357 289.483 144.389 286.043 145.453 282.499Z" fill="#A06032"/>
<path d="M524.051 301.261C524.739 301.261 525.427 301.261 526.137 301.261C530.976 310.957 532.842 320.434 534.508 331.044C535.239 335.684 536.024 340.314 536.811 344.945C536.965 345.856 537.12 346.767 537.279 347.706C539.933 363.149 543.663 378.416 548.491 393.327C549.137 396.37 548.869 398.351 548.039 401.324C544.91 400.281 544.91 400.281 543.721 398.286C531.369 368.122 523.366 333.952 524.051 301.261Z" fill="#985830"/>
<path d="M526.137 527.444C526.825 527.444 527.513 527.444 528.223 527.444C530.564 530.955 530.482 531.276 529.917 535.196C527.672 556.143 528.493 576.57 541.891 593.859C551.029 604.548 561.353 609.35 575.156 611.872C575.156 612.216 575.156 612.56 575.156 612.914C569.027 613.254 564.373 612.388 558.575 610.369C556.345 609.518 556.345 609.518 554.297 610.829C541.852 606.058 532.826 596.775 527.367 584.8C525.501 580.013 524.07 575.204 523.008 570.179C522.717 568.831 522.717 568.831 522.421 567.455C521.761 562.346 521.773 557.281 521.769 552.134C521.75 550.579 521.75 550.579 521.731 548.993C521.716 541.385 521.813 533.925 526.137 527.444Z" fill="#FFF8E8"/>
<path d="M355.09 509.725C359.856 511.485 363.861 513.942 368.127 516.667C370.779 518.087 372.987 518.677 375.949 519.105C376.638 517.73 377.326 516.354 378.035 514.936C378.035 516.656 378.035 518.376 378.035 520.148C376.08 521.255 376.08 521.255 373.863 522.232C373.175 521.888 372.487 521.544 371.777 521.19C372.054 521.797 372.331 522.405 372.617 523.03C380.971 542.411 379.968 564.761 372.45 584.271C369.344 590.885 365.452 596.274 360.305 601.449C359.616 601.105 358.928 600.761 358.219 600.406C360.212 593.765 362.818 587.927 366.143 581.84C370 573.077 370.072 564.268 370.083 554.805C370.108 553.569 370.134 552.333 370.16 551.059C370.199 539.021 367.668 528.272 360.631 518.389C359.8 517.169 358.971 515.949 358.141 514.729C357.147 513.283 357.147 513.283 356.133 511.809C355.789 511.121 355.444 510.433 355.09 509.725Z" fill="#FFF8E8"/>
<path d="M323.019 457.218C324.167 457.203 325.315 457.189 326.498 457.174C335.962 457.229 344.276 458.761 352.417 463.797C353.255 464.301 354.092 464.805 354.955 465.324C357.3 467.083 358.783 468.66 360.305 471.159C360.305 472.191 360.305 473.223 360.305 474.286C354.7 473.788 350.017 472.252 344.803 470.153C335.856 467.202 327.183 466.62 317.804 466.664C316.61 466.665 315.417 466.667 314.187 466.668C306.539 466.755 299.62 467.367 292.235 469.433C289.112 470.182 286.325 470.23 283.125 470.117C283.374 468.199 283.374 468.199 284.168 465.947C295.077 457.563 309.918 457.325 323.019 457.218Z" fill="#C7693D"/>
<path d="M596.016 415.916C603.465 417.995 610.596 420.538 617.722 423.538C618.676 423.919 619.63 424.3 620.613 424.692C626.426 427.139 629.897 429.36 633.562 434.678C633.991 435.276 634.42 435.873 634.862 436.489C636.225 438.404 637.54 440.344 638.843 442.3C639.298 442.982 639.754 443.664 640.223 444.366C643.456 449.292 646.036 454.184 648.164 459.693C643.622 458.189 640.625 455.898 637.017 452.788C635.909 451.841 634.799 450.895 633.689 449.95C633.14 449.481 632.591 449.012 632.026 448.529C629.756 446.614 627.424 444.784 625.088 442.951C620.586 439.375 616.309 435.598 612.063 431.722C609.77 429.643 607.433 427.629 605.076 425.623C601.643 422.644 598.811 419.495 596.016 415.916Z" fill="#E6A753"/>
<path d="M791.703 290.642C792.558 290.63 793.413 290.617 794.294 290.604C799.2 290.592 803.124 291.035 807.738 292.923C808.455 295.333 808.455 295.333 808.781 298.134C807.412 300.023 807.412 300.023 805.652 301.261C804.964 301.261 804.276 301.261 803.566 301.261C803.566 301.949 803.566 302.637 803.566 303.346C795.16 306.621 786.144 308.768 777.174 306.733C774.363 305.43 774.363 305.43 773.259 303.586C772.479 299.382 772.01 296.071 773.32 291.88C779.484 290.995 785.479 290.647 791.703 290.642Z" fill="#D97661"/>
<path d="M126.68 288.753C125.897 294.747 125.897 294.747 123.551 297.092C123.228 297.973 122.905 298.855 122.573 299.763C122.024 301.02 122.024 301.02 121.465 302.303C112.224 305.382 100.5 304.239 91.8339 300.088C91.0132 299.637 91.0132 299.637 90.1758 299.176C90.3713 295.724 90.3713 295.724 91.2188 291.88C99.6838 284.416 116.293 287.467 126.68 288.753Z" fill="#D97661"/>
<path d="M450.978 621.383C454.635 622.427 456.038 623.477 458.344 626.464C460.134 630.788 459.999 635.993 458.604 640.405C456.949 642.556 455.722 642.604 453.129 643.141C453.153 643.77 453.177 644.399 453.202 645.047C453.23 646.296 453.23 646.296 453.259 647.571C453.283 648.393 453.308 649.216 453.333 650.063C453.111 652.738 452.385 654.39 451.043 656.691C448.405 656.328 447.084 655.846 445.111 654.02C443.493 651.017 443.238 648.594 443.021 645.226C442.8 643.074 442.8 643.074 441.652 641.081C439.83 637.382 440.034 633.612 440.613 629.591C443.078 624.92 445.257 621.14 450.978 621.383Z" fill="#F18E5F"/>
<path d="M578.285 458.651C580.371 459.693 580.371 459.693 580.371 459.693L578.285 458.651ZM594.973 462.82C595.489 465.4 595.489 465.4 596.016 468.032C595.181 468.005 594.347 467.977 593.487 467.949C569.376 467.245 569.376 467.245 546.821 474.97C543.5 476.545 541.24 476.63 537.609 476.37C538.996 470.481 543.207 467.994 548.039 464.905C562.654 456.436 579.214 459.302 594.973 462.82Z" fill="#CC6D40"/>
<path d="M643.829 487.889C647.048 489.305 649.469 491.525 652.075 493.829C656.797 497.895 661.535 501.398 666.938 504.513C661.844 507.906 656.522 508.418 650.45 508.426C644.03 506.91 640.3 501.399 636.691 496.174C636.347 495.143 636.003 494.111 635.648 493.048C641.264 487.818 641.264 487.818 643.829 487.889Z" fill="#F9D39F"/>
<path d="M252.879 485.751C254.407 487.041 255.934 488.33 257.462 489.619C258.996 490.85 260.629 491.957 262.266 493.048C260.768 494.895 259.269 496.74 257.768 498.585C256.933 499.613 256.098 500.641 255.238 501.7C254.459 502.628 253.681 503.556 252.879 504.513C252.379 505.146 251.879 505.779 251.363 506.431C248.961 508.231 247.036 507.981 244.079 507.901C243.091 507.884 242.103 507.868 241.084 507.852C238.62 507.666 236.469 507.29 234.105 506.598C234.105 505.91 234.105 505.222 234.105 504.513C235.784 502.86 235.784 502.86 238.017 500.995C240.435 498.95 242.712 496.947 244.926 494.676C246.621 493.048 246.621 493.048 248.707 493.048C249.008 492.424 249.309 491.801 249.62 491.158C250.793 488.878 250.793 488.878 252.879 485.751Z" fill="#FBD39F"/>
<path d="M591.844 633.76C592.876 634.104 593.909 634.448 594.973 634.803C593.659 640.713 591.168 645.42 588.214 650.686C584.208 657.961 581.532 665.376 579.328 673.369C577.951 673.369 576.575 673.369 575.156 673.369C574.497 660.803 582.221 647.384 588.715 636.887C590.495 634.949 590.495 634.949 591.844 633.76Z" fill="#FB966F"/>
<path d="M169.441 559.756C170.13 559.756 170.818 559.756 171.527 559.756C172.848 566.577 172.49 570.599 169.551 576.897C166.945 582.916 166.007 588.607 165.661 595.13C165.6 596.199 165.6 596.199 165.538 597.289C165.441 599.023 165.354 600.757 165.27 602.491C160.786 598.01 160.924 589.993 160.641 583.925C160.773 575.477 163.715 566.139 169.441 559.756Z" fill="#D77846"/>
<path d="M568.898 632.718C570.275 633.062 571.652 633.406 573.07 633.76C571.204 644.577 566.549 654.254 561.598 663.988C560.565 663.988 559.533 663.988 558.469 663.988C557.118 657.889 557.832 654.087 560.164 648.353C560.449 647.621 560.734 646.89 561.028 646.136C563.057 641.105 565.364 636.873 568.898 632.718Z" fill="#FC9972"/>
<path d="M616.875 630.633C617.563 630.977 618.252 631.321 618.961 631.676C618.413 636.033 617.5 639.124 615.245 642.881C611.715 649.033 608.943 655.427 606.241 661.975C605.739 663.153 605.739 663.153 605.227 664.354C604.934 665.062 604.64 665.769 604.338 666.498C603.316 668.157 603.316 668.157 600.187 669.199C599.819 662.646 600.812 658.104 603.447 652.131C603.776 651.362 604.105 650.593 604.444 649.8C611.159 634.442 611.159 634.442 616.875 630.633Z" fill="#FA946D"/>
<path d="M728.473 546.206C737.377 557.488 738.215 569.833 737.859 583.729C734.73 584.772 734.73 584.772 732.645 583.729C732.227 581.508 731.921 579.265 731.667 577.019C731.085 572.382 730.378 568.192 728.799 563.795C726.824 557.875 727.604 552.292 728.473 546.206Z" fill="#CB6C3E"/>
<path d="M340.488 635.845C341.521 635.845 342.553 635.845 343.617 635.845C343.021 641.418 341.096 645.737 338.663 650.698C338.289 651.475 337.916 652.252 337.53 653.053C334.752 658.812 331.927 664.549 329.016 670.242C327.983 670.242 326.951 670.242 325.887 670.242C325.502 664.195 326.604 660.168 329.081 654.802C329.407 654.079 329.734 653.355 330.07 652.61C332.834 646.665 335.883 640.584 340.488 635.845Z" fill="#FA966F"/>
<path d="M322.758 635.845C322.16 641.371 320.283 645.648 317.869 650.568C317.31 651.727 317.31 651.727 316.74 652.909C315.984 654.472 315.224 656.033 314.46 657.592C313.463 659.63 312.48 661.673 311.501 663.719C307.385 672.191 307.385 672.191 305.027 673.368C304.339 673.025 303.651 672.681 302.941 672.326C304.265 665.302 306.359 659.339 309.46 652.913C309.846 652.072 310.232 651.231 310.629 650.364C317.54 635.845 317.54 635.845 322.758 635.845Z" fill="#FB9670"/>
<path d="M550.125 501.386C550.813 501.73 551.502 502.074 552.211 502.428C551.082 503.263 551.082 503.263 549.929 504.114C546.77 506.789 544.271 509.703 541.781 512.982C541.328 513.573 540.875 514.163 540.409 514.772C536.702 519.724 533.794 524.881 531.352 530.571C528.223 529.529 528.223 529.529 527.005 527.375C526.654 526.516 526.303 525.658 525.941 524.773C525.582 523.912 525.223 523.051 524.853 522.163C524.589 521.498 524.324 520.833 524.051 520.148C527.817 515.913 532.334 513.169 537.088 510.181C538.664 509.182 540.239 508.182 541.814 507.18C542.508 506.742 543.203 506.305 543.918 505.854C546.055 504.446 548.092 502.94 550.125 501.386Z" fill="#EBD6B2"/>
<path d="M285.211 420.085C285.899 420.429 286.588 420.773 287.297 421.128C277.316 431.103 267.334 441.078 257.051 451.355C256.362 451.011 255.674 450.667 254.965 450.313C255.404 449.602 255.844 448.891 256.297 448.159C257.554 446.019 258.736 443.834 259.858 441.62C264.193 433.158 267.946 428.275 276.867 424.255C278.432 423.408 279.996 422.561 281.561 421.714C282.765 421.177 283.97 420.639 285.211 420.085Z" fill="#E8AA55"/>
<path d="M635.648 632.718C637.8 633.174 637.8 633.174 639.82 633.76C638.026 639.255 636.07 644.684 634.084 650.112C633.763 651.002 633.441 651.892 633.11 652.809C632.64 654.092 632.64 654.092 632.161 655.401C631.879 656.174 631.598 656.948 631.308 657.745C630.434 659.818 630.434 659.818 628.348 662.945C627.659 662.945 626.971 662.945 626.262 662.945C623.973 656.257 627.201 648.874 629.916 642.706C634.107 634.259 634.107 634.259 635.648 632.718Z" fill="#FA9670"/>
<path d="M273.738 631.676C275.459 632.02 277.18 632.364 278.953 632.718C277.33 638.298 274.8 643.143 272.043 648.223C271.605 649.039 271.167 649.856 270.715 650.698C269.641 652.698 268.562 654.695 267.48 656.691C266.448 656.691 265.415 656.691 264.352 656.691C264.973 646.905 268.045 639.6 273.738 631.676Z" fill="#FC9974"/>
<path d="M219.504 645.226C224.629 650.063 229.082 654.673 229.934 661.903C223.358 661.739 219.696 658.071 215.332 653.564C214.988 652.877 214.644 652.189 214.289 651.48C216.01 649.416 217.731 647.352 219.504 645.226Z" fill="#BF7A3B"/>
<path d="M445.828 641.057C449.022 640.796 449.022 640.796 452.086 641.057C453.804 642.774 453.307 644.76 453.324 647.115C453.339 648.025 453.354 648.934 453.369 649.872C453.119 652.636 452.443 654.32 451.043 656.691C448.351 656.32 447.058 655.823 445.046 653.955C443.249 650.542 443.396 647.985 443.742 644.184C444.431 643.152 445.119 642.12 445.828 641.057Z" fill="#32181D"/>
</g>
<defs>
<clipPath id="clip0_2039_433">
<rect width="900" height="900" fill="white"/>
</clipPath>
</defs>
</svg>
