<svg width="900" height="900" viewBox="0 0 900 900" fill="none" xmlns="http://www.w3.org/2000/svg">
<g clip-path="url(#clip0_2031_29)">
<path d="M134 334C134 353 82 337.982 76 401.5C75.872 402.856 75.6488 404.444 75.5225 405.8L75.3037 408.005C73.7602 423.943 73.3212 439.834 73.2988 455.84C73.2926 456.836 73.2858 457.831 73.2793 458.857C73.1767 477.934 74.5219 496.897 78.7061 515.55C78.9302 516.583 79.1549 517.616 79.3858 518.68C80.0464 521.692 80.726 524.7 81.4102 527.708C81.6047 528.589 81.7996 529.471 82 530.379C82.5263 532.753 83.0711 535.122 83.627 537.489L84.0811 539.521C85.589 545.646 87.8223 550.589 93.2344 554.079C96.7319 556.174 100.342 557.856 104.072 559.488C128.116 570.442 128.116 570.442 131.241 578.326C131.965 581.025 132.522 583.712 132.946 586.474C133.95 591.134 137.585 595.325 141.133 598.387C143.236 600.782 143.493 602.322 143.943 605.457L144.419 608.541L144.897 611.843C145.256 614.135 145.632 616.424 146.012 618.713L146.299 620.448C149.961 642.164 157.636 663.316 167.043 683.161C168.533 686.343 169.948 689.559 171.364 692.774L171.395 692.844C182.5 713 201.5 734 213 746.5C257 791.5 268.5 791.5 296.5 802.5C338 816 370 844.9 376 850.5C383.5 857.5 507 857 525 851C539.4 846.2 559 814 602.5 808C635.5 797.5 690 768 733.743 681.982C743.447 660.919 750.952 638.438 754.39 615.48C756.875 598.91 756.875 598.909 762.931 591.847C765.974 587.688 767.507 582.959 769.085 578.089L769.193 577.756C771.2 572.077 773.472 570.106 778.789 567.48C779.814 566.938 780.838 566.394 781.859 565.847C786.102 563.583 790.365 561.36 794.636 559.149C796.479 558.194 798.318 557.231 800.156 556.267C800.992 555.838 800.992 555.838 801.845 555.401C810.161 551.021 814.122 545.786 816.938 536.801C817.877 533.386 818.74 529.963 819.563 526.52L820.017 524.658C822.414 514.786 824.536 504.978 825.512 494.854C825.555 494.41 825.598 493.966 825.641 493.519L825.774 492.141C832.596 422.094 832.595 422.092 813.082 357.602L813.081 357.599C808.865 353.178 804.275 350.796 798.743 348.308C797.867 347.897 796.99 347.486 796.087 347.062C792.156 345.235 788.218 343.482 784.17 341.931C777.2 339.232 772.832 336.673 768.822 330.026C767.599 327.773 767.598 327.772 764.946 326.261L764.945 326.261C764.12 323.788 763.84 321.802 763.61 319.219C756.513 245.073 723.645 173.94 667.282 124.354C664.966 122.452 662.612 120.607 660.252 118.761C659.296 117.97 658.342 117.176 657.39 116.38C645.141 106.219 631.715 97.7812 617.721 90.2334C616.195 89.4032 614.684 88.5453 613.175 87.6865C577.091 67.5649 535.736 57.7958 494.992 53.0518L492.692 52.7744C444.016 47.1543 391.046 50.815 344.441 66.0205L342.044 66.7852C291.718 82.9467 241.957 112.523 208.738 154.451C206.8 156.889 204.785 159.246 202.76 161.611C191.691 174.938 182.635 189.368 173.99 204.355C173.45 205.285 173.45 205.285 172.899 206.234C164.601 220.66 141.554 297.5 134 334Z" fill="black"/>
<path d="M647.274 526.844C646.386 548.182 635.946 561.694 621.857 576.827C607.6 592.22 598.424 608.255 595.753 629.34C595.643 630.204 595.532 631.069 595.418 631.96C594.359 640.605 593.779 649.259 593.311 657.954C593.161 660.744 593.002 663.533 592.84 666.323C592.5 672.227 592.172 678.131 591.844 684.036C591.461 690.929 591.073 697.821 590.675 704.713C590.52 707.446 590.371 710.178 590.224 712.911C590.128 714.594 590.031 716.277 589.935 717.96C589.896 718.706 589.858 719.452 589.819 720.221C589.323 728.547 588.195 735.25 583.246 742.071C582.306 743.422 581.366 744.774 580.427 746.127C579.912 746.862 579.396 747.596 578.865 748.353C576.015 752.465 573.273 756.649 570.513 760.822C563.679 771.136 556.681 781.328 549.502 791.406C549.035 792.064 548.569 792.722 548.088 793.399C519.639 833.443 519.639 833.443 508.397 835.992C501.086 836.894 493.63 836.63 486.273 836.667C484.186 836.682 482.099 836.705 480.012 836.738C476.998 836.785 473.986 836.804 470.972 836.817C469.569 836.847 469.569 836.847 468.137 836.877C465.765 836.87 463.576 836.82 461.248 836.365C459.437 834.487 459.437 834.487 458.652 832.042C458.381 831.248 458.109 830.453 457.829 829.635C457.6 828.78 457.371 827.925 457.135 827.043C456.878 826.102 456.621 825.16 456.356 824.189C455.967 822.727 455.967 822.727 455.57 821.234C455.048 819.297 454.525 817.361 453.998 815.425C453.77 814.57 453.542 813.715 453.307 812.833C452.619 810.505 451.89 808.306 450.865 806.104C450.294 805.819 449.723 805.534 449.135 805.24C446.996 812.205 445.077 819.218 443.219 826.263C443.002 827.071 442.785 827.879 442.561 828.712C442.273 829.797 442.273 829.797 441.98 830.905C441.363 832.858 440.553 834.547 439.617 836.365C433.368 836.431 427.119 836.476 420.87 836.507C418.747 836.52 416.624 836.538 414.501 836.56C411.438 836.592 408.375 836.606 405.312 836.618C403.903 836.638 403.903 836.638 402.465 836.658C393.167 836.66 386.392 835.02 379.642 828.485C360.542 807.954 345.164 783.572 329.724 760.279C328.008 757.697 326.283 755.121 324.555 752.547C324.006 751.729 323.457 750.911 322.892 750.068C321.861 748.532 320.829 746.997 319.796 745.464C318.882 744.1 317.977 742.731 317.082 741.355C316.355 740.244 315.609 739.145 314.831 738.07C311.616 733.287 311.55 728.017 311.13 722.402C311.031 721.21 310.931 720.018 310.831 718.826C309.474 702.068 308.584 685.265 307.622 668.481C307.012 657.884 306.39 647.291 305.499 636.713C305.436 635.942 305.373 635.171 305.309 634.376C303.581 614.909 297.341 597.269 283.676 582.994C280.699 579.877 278.027 576.53 275.328 573.173C273.585 571.05 271.777 569.019 269.923 566.993C260.711 556.708 253.48 544.668 253.43 530.464C253.483 529.555 253.537 528.645 253.592 527.708C258.216 528.996 262.681 530.458 267.151 532.211C276.081 535.673 285.196 538.297 294.42 540.839C295.078 541.021 295.735 541.202 296.413 541.389C300.266 542.45 304.124 543.491 307.988 544.512C309.19 544.83 310.391 545.15 311.592 545.472C320.911 547.965 330.268 549.698 339.791 551.214C341.185 551.44 342.578 551.667 343.972 551.895C346.512 552.309 349.054 552.719 351.595 553.126C353.602 553.449 355.607 553.783 357.609 554.134C377.37 557.226 394.586 550.773 411.605 541.434C430.083 531.336 452.161 528.747 472.496 534.625C477.735 536.37 482.624 538.821 487.584 541.221C488.444 541.636 489.305 542.051 490.191 542.479C491.904 543.309 493.613 544.146 495.318 544.992C517.508 555.827 537.894 554.718 561.615 550.188C562.602 550.002 563.588 549.817 564.604 549.626C591.276 544.555 618.428 537.916 643.632 527.583C645.543 526.844 645.543 526.844 647.274 526.844Z" fill="#FFCEA3"/>
<path d="M565.076 94.5521C565.933 94.8374 566.789 95.1227 567.672 95.4167C567.068 98.938 566.022 102.158 564.823 105.521C542.49 169.125 542.162 240.516 539.984 307.24C539.431 307.404 538.877 307.568 538.307 307.738C535.744 308.501 533.183 309.27 530.622 310.039C529.752 310.298 528.882 310.556 527.985 310.822C513.881 315.072 500.671 321.156 487.451 327.588C481.491 330.481 475.497 333.255 469.414 335.879C468.689 336.195 467.964 336.512 467.217 336.838C456.022 341.604 445.482 342.513 434.037 338.071C427.66 335.423 421.567 332.355 415.499 329.07C400.943 321.241 385.576 314.958 369.695 310.38C367.465 309.736 365.241 309.069 363.017 308.401C362.28 308.18 361.544 307.959 360.785 307.731C360.245 307.569 359.706 307.407 359.15 307.24C359.133 306.219 359.116 305.199 359.098 304.148C358.728 282.764 358.137 261.437 356.691 240.098C356.546 237.94 356.404 235.781 356.264 233.623C353.395 189.837 350.204 144.627 333.309 103.625C332.249 101.037 331.463 99.1081 331.463 96.2812C356.043 87.5197 380.763 81.2626 406.738 78.125C407.564 78.0237 408.389 77.9224 409.24 77.8181C461.871 71.7812 515.024 77.6126 565.076 94.5521Z" fill="#FDF4D5"/>
<path d="M647.274 526.844C646.974 534.032 646.345 545.294 641.535 550.998C641.144 551.301 640.754 551.604 640.352 551.917C639.054 550.728 639.054 550.728 637.756 549.323C637.756 548.752 637.756 548.182 637.756 547.594C633.698 549.296 629.771 551.108 625.95 553.295C590.627 573.338 546.963 581.236 507.106 585.635C507.452 586.025 507.799 586.415 508.156 586.817C510.649 589.665 512.93 592.39 514.73 595.74C515.075 596.368 515.42 596.995 515.775 597.642C518.038 602.516 518.436 607.804 516.765 612.924C514.288 618.373 511.022 621.874 506.24 625.406C505.544 625.959 504.848 626.512 504.131 627.081C500.768 628.475 497.711 628.58 494.127 628C492.238 627.159 492.238 627.159 490.45 626.163C487.857 624.673 487.857 624.673 484.88 624.92C482.435 626.571 480.594 628.459 478.553 630.594C470.142 638.832 461.283 641.616 449.568 642.104C437.756 641.741 427.003 636.414 418.852 628C417.967 626.862 417.096 625.713 416.256 624.542C413.582 624.946 411.622 625.557 409.172 626.757C405.231 628.469 401.442 628.808 397.221 628C391.474 625.134 385.756 619.32 383.377 613.302C382.1 603.779 384.345 596.895 389.755 589.117C391.667 586.695 393.79 584.751 396.356 583.042C395.713 582.542 395.071 582.043 394.409 581.529C392.029 579.583 392.029 579.583 390.471 577.753C387.346 575.079 384.324 575.775 380.372 575.889C377.602 576.103 374.968 576.49 372.237 576.99C358.25 579.322 344.108 577.84 330.175 575.889C325.106 575.186 320.07 574.857 314.959 574.663C312.372 574.39 310.49 573.652 308.102 572.667C304.932 572.656 304.932 572.656 302.045 573.531C300.575 574.881 300.575 574.881 300.315 576.99C300.628 581.708 301.657 584.212 304.641 587.851C307.626 591.657 310.474 595.48 313.131 599.523C313.743 600.442 314.356 601.362 314.986 602.309C318.998 609.103 320.711 616.358 321.384 624.136C321.564 625.933 321.745 627.73 321.925 629.527C322.016 630.473 322.106 631.419 322.2 632.393C324.079 651.784 326.587 671.056 329.455 690.322C329.728 692.166 329.997 694.01 330.266 695.855C332.033 707.98 333.969 720.057 336.614 732.027C336.803 732.917 336.992 733.806 337.187 734.723C339.187 743.321 343.388 750.262 348.326 757.491C350.327 760.439 352.191 763.468 354.067 766.495C354.418 767.053 354.77 767.611 355.131 768.185C357.673 772.222 360.103 776.315 362.503 780.437C365.976 786.397 369.617 792.234 373.329 798.049C376.574 803.148 379.696 808.311 382.782 813.507C386.61 819.939 390.471 826.286 395.217 832.096C396.356 833.771 396.356 833.771 396.356 836.365C384.484 834.955 378.085 827.465 370.926 818.417C368.276 814.986 365.704 811.5 363.143 808.003C361.722 806.072 360.288 804.152 358.85 802.234C351.136 791.916 343.832 781.351 336.654 770.656C336.25 770.054 335.845 769.451 335.428 768.831C332.644 764.688 329.865 760.542 327.089 756.394C326.154 754.997 325.219 753.6 324.283 752.203C322.957 750.224 321.635 748.244 320.313 746.262C319.918 745.673 319.523 745.084 319.115 744.477C312.096 733.931 312.096 733.931 311.644 728.653C311.556 727.679 311.467 726.705 311.377 725.701C311.254 724.068 311.254 724.068 311.13 722.402C311.031 721.21 310.931 720.018 310.831 718.826C309.474 702.068 308.584 685.265 307.622 668.481C307.012 657.884 306.39 647.291 305.499 636.713C305.436 635.942 305.373 635.171 305.309 634.376C303.581 614.909 297.341 597.269 283.676 582.994C280.699 579.877 278.027 576.53 275.328 573.173C273.585 571.05 271.777 569.019 269.923 566.993C260.711 556.708 253.48 544.668 253.43 530.464C253.483 529.555 253.537 528.645 253.592 527.708C258.216 528.996 262.681 530.458 267.151 532.211C276.081 535.673 285.196 538.297 294.42 540.839C295.078 541.021 295.735 541.202 296.413 541.389C300.266 542.45 304.124 543.491 307.988 544.512C309.19 544.83 310.391 545.15 311.592 545.472C320.911 547.965 330.268 549.698 339.791 551.214C341.185 551.44 342.578 551.667 343.972 551.895C346.512 552.309 349.054 552.719 351.595 553.126C353.602 553.449 355.607 553.783 357.609 554.134C377.37 557.226 394.586 550.773 411.605 541.434C430.083 531.336 452.161 528.747 472.496 534.625C477.735 536.37 482.624 538.821 487.584 541.221C488.444 541.636 489.305 542.051 490.191 542.479C491.904 543.309 493.613 544.146 495.318 544.992C517.508 555.827 537.894 554.718 561.615 550.188C562.602 550.002 563.588 549.817 564.604 549.626C591.276 544.555 618.428 537.916 643.632 527.583C645.543 526.844 645.543 526.844 647.274 526.844Z" fill="#E08F49"/>
<path d="M586.707 103.198C621.375 120.104 653.346 142.871 677.557 173.229C678.89 174.833 680.224 176.436 681.559 178.038C685.076 182.352 688.323 186.749 691.401 191.385C691.83 192.02 692.258 192.655 692.7 193.31C694.176 195.504 695.629 197.712 697.079 199.923C697.565 200.644 698.051 201.364 698.552 202.107C699.216 203.136 699.216 203.136 699.894 204.185C700.3 204.8 700.705 205.415 701.123 206.049C701.784 207.813 701.784 207.813 701.124 209.666C699.887 211.52 698.507 213.059 696.971 214.675C689.011 223.49 683.058 233.659 677.557 244.125C677.236 244.733 676.915 245.341 676.584 245.967C666.12 266.066 660.66 287.821 655.926 309.833C655.467 309.677 655.008 309.52 654.534 309.359C649.478 307.653 644.395 306.079 639.27 304.592C638.533 304.371 637.796 304.149 637.036 303.921C625.495 300.578 614.261 300.007 602.336 300.053C601.222 300.053 601.222 300.053 600.087 300.053C589.191 300.067 578.562 300.564 567.841 302.679C565.185 303.012 562.559 302.95 559.885 302.917C559.7 287.498 560.22 272.166 561.021 256.77C561.08 255.609 561.139 254.449 561.198 253.289C567.874 122.017 567.874 122.017 586.707 103.198Z" fill="#FDF4D5"/>
<path d="M313.293 105.792C330.499 140.343 333.533 179.021 336.14 216.914C336.278 218.916 336.418 220.917 336.558 222.918C338.419 249.516 340.244 276.244 340.115 302.917C334.988 302.512 329.928 301.954 324.845 301.167C317.411 300.116 310.016 300.061 302.519 300.098C300.26 300.107 298.002 300.098 295.743 300.087C278.976 300.072 263.874 303.122 248.167 309.009C245.805 309.833 245.805 309.833 244.074 309.833C243.94 309.203 243.805 308.573 243.667 307.924C236.609 275.063 226.523 240.522 203.128 215.141C201.678 213 201.678 213 201.715 210.906C207.947 194.131 221.716 178.752 233.594 165.735C235.226 163.935 236.816 162.106 238.396 160.26C244.125 153.701 250.417 147.733 257.053 142.104C257.839 141.414 258.626 140.724 259.436 140.014C273.401 127.845 288.609 117.917 304.911 109.196C305.548 108.855 306.185 108.513 306.841 108.162C311.35 105.792 311.35 105.792 313.293 105.792Z" fill="#FDF4D5"/>
<path d="M712.166 228.562C717.364 238.978 721.584 249.473 725.145 260.552C725.426 261.419 725.707 262.286 725.997 263.18C743.476 317.68 743.476 317.68 736.23 340.094C714.278 411.826 717.19 497 734.253 569.498C743.279 609.334 718.604 663.162 697.896 696.003C692.42 704.518 686.313 712.357 679.646 719.975C678.775 720.971 677.909 721.972 677.048 722.976C668.066 733.379 658.324 743.19 647.287 751.409C645.402 752.822 643.631 754.246 641.852 755.779C639.486 757.688 639.486 757.688 637.756 757.688C638.251 748.376 639.88 739.296 641.487 730.129C641.746 728.629 642.005 727.13 642.263 725.63C643.312 719.563 644.369 713.497 645.497 707.443C647.213 698.218 648.788 688.979 650.248 679.71C650.383 678.849 650.383 678.849 650.522 677.971C651.266 673.235 652.006 668.499 652.744 663.763C656.631 638.82 656.631 638.82 658.677 627.899C658.81 627.177 658.943 626.456 659.08 625.713C660.72 617.213 664.179 611.869 669.816 605.351C683.232 589.617 686.242 571.891 688.805 551.917C688.989 550.534 688.989 550.534 689.176 549.123C690.288 540.751 691.322 532.41 691.762 523.973C691.821 522.919 691.88 521.866 691.941 520.78C692.046 518.751 692.131 516.721 692.192 514.691C692.524 508.286 693.751 505.312 698.322 500.906C713.654 478.959 714.009 448.142 715.789 422.445C715.862 421.408 715.934 420.37 716.009 419.301C716.699 408.521 716.906 397.877 715.411 387.16C715.295 386.308 715.178 385.456 715.059 384.578C712.501 366.861 705.709 349.475 693.996 335.771C693.176 334.749 693.176 334.749 692.34 333.707C686.834 327.144 680.225 322.458 673.23 317.615C675.294 302.24 690.286 228.562 712.166 228.562Z" fill="#FAF1D0"/>
<path d="M189.564 230.292C193.133 231.887 194.895 234.164 197.081 237.316C197.457 237.854 197.833 238.392 198.22 238.946C212.007 259.027 219.174 281.515 224.552 305.078C224.787 306.095 225.022 307.112 225.264 308.16C225.474 309.113 225.684 310.067 225.901 311.049C226.09 311.899 226.279 312.749 226.474 313.624C226.771 315.895 226.748 317.229 225.904 319.344C223.914 321.019 223.914 321.019 221.308 322.802C201.945 336.667 190.03 357.472 185.613 380.714C184.219 389.259 184.1 397.659 184.157 406.288C184.16 407.024 184.163 407.759 184.166 408.516C183.435 457.46 183.435 457.46 202.943 500.469C207.701 505.69 207.827 511.432 208.172 518.189C208.314 520.944 208.511 523.695 208.706 526.447C208.807 527.881 208.905 529.314 209.002 530.747C211.686 571.444 211.686 571.444 231.096 606.385C232.191 607.671 233.272 608.968 234.34 610.276C234.8 610.82 235.259 611.364 235.733 611.924C239.975 618.625 241.447 626.027 242.712 633.748C242.892 634.798 243.071 635.848 243.257 636.929C243.828 640.291 244.385 643.656 244.939 647.021C245.121 648.11 245.302 649.198 245.489 650.32C246.721 657.725 247.93 665.133 249.132 672.543C250.055 678.224 250.981 683.905 251.912 689.585C252.016 690.221 252.12 690.858 252.228 691.513C253.774 700.933 255.379 710.342 257.029 719.744C257.235 720.921 257.441 722.099 257.647 723.277C258.619 728.82 259.599 734.361 260.592 739.9C260.94 741.874 261.288 743.849 261.636 745.823C261.799 746.718 261.963 747.613 262.131 748.536C262.274 749.354 262.417 750.173 262.564 751.017C262.691 751.726 262.818 752.434 262.949 753.164C263.117 755.183 262.852 756.632 262.244 758.552C255.492 753.535 249.092 748.324 242.952 742.574C241.035 740.789 239.092 739.067 237.098 737.37C229.421 730.685 222.626 723.356 216.387 715.323C215.993 714.823 215.6 714.323 215.194 713.807C208.228 704.928 202.133 695.694 196.486 685.927C196.174 685.394 195.863 684.861 195.541 684.312C179.097 655.967 169.363 622.327 165.338 589.958C165.218 589.07 165.098 588.182 164.974 587.267C164.15 579.791 165.195 573.275 166.798 565.966C167.29 563.602 167.772 561.236 168.255 558.87C168.437 557.989 168.437 557.989 168.623 557.09C169.768 551.516 170.724 545.919 171.611 540.299C171.741 539.488 171.871 538.678 172.005 537.843C172.398 535.332 172.767 532.818 173.125 530.302C173.266 529.322 173.408 528.341 173.554 527.331C174.972 516.847 175.647 506.33 176.261 495.773C176.318 494.807 176.374 493.842 176.432 492.847C179.354 441.644 179.544 385.867 162.671 336.791C160.356 328.208 162.068 318.893 163.607 310.32C163.891 308.713 163.891 308.713 164.18 307.073C169.094 280.447 177.234 254.433 189.564 230.292Z" fill="#DCD2A7"/>
<path d="M367.803 345.281C368.575 345.529 369.348 345.777 370.144 346.033C382.599 350.084 394.224 355.579 405.927 361.391C426.805 371.668 448.141 377.461 471.266 370.51C472.732 370.005 472.732 370.005 474.227 369.49C475.097 369.207 475.967 368.923 476.863 368.632C483.14 366.406 489.06 363.473 495.046 360.574C529.229 344.034 565.511 333.975 603.588 333.739C605.263 333.725 606.938 333.701 608.612 333.668C629.149 333.265 649.223 337.658 664.578 352.198C680.848 368.079 685.181 388.888 685.489 410.887C685.628 431.248 685.628 431.248 682.752 439.354C681.862 442.183 681.512 444.693 681.268 447.643C681.124 449.204 681.124 449.204 680.977 450.796C680.789 452.959 680.606 455.123 680.43 457.287C679.611 465.996 677.489 472.19 672.365 479.292C671.901 479.969 671.437 480.647 670.959 481.345C670.371 482.041 670.371 482.041 669.77 482.75C669.199 482.75 668.628 482.75 668.039 482.75C668.039 483.321 668.039 483.891 668.039 484.479C636.615 512.819 565.252 527.986 523.894 526.156C519.158 525.753 515.546 523.907 511.432 521.656C508.378 520.069 505.31 518.51 502.239 516.955C501.416 516.537 500.592 516.12 499.744 515.689C494.671 513.156 489.612 510.914 484.231 509.12C483.391 508.837 483.391 508.837 482.534 508.548C471.381 505.048 460.536 503.861 448.919 503.932C448.256 503.934 447.593 503.935 446.91 503.937C436.424 503.991 426.984 504.903 417.121 508.688C416.515 508.905 415.908 509.123 415.283 509.347C407.195 512.261 399.708 516.019 392.312 520.39C374.161 530.975 353.796 525.441 334.538 520.859C331.152 520.054 327.761 519.28 324.366 518.514C303.202 513.734 282.268 508.544 262.244 500.042C261.008 499.554 259.769 499.07 258.53 498.589C244.461 493.085 230.909 485.746 224.174 471.51C222.277 466.907 221.123 462.751 220.666 457.778C220.53 456.481 220.394 455.184 220.258 453.887C220.191 453.227 220.124 452.566 220.056 451.886C219.787 449.316 219.473 446.753 219.156 444.189C215.197 412.013 212.814 383.176 232.417 355.521C242.717 342.395 260.718 336.14 276.629 333.826C307.045 330.28 338.953 335.833 367.803 345.281Z" fill="#CA4634"/>
<path d="M608.612 333.668C629.148 333.266 649.222 337.658 664.578 352.198C680.848 368.078 685.181 388.888 685.489 410.887C685.628 431.247 685.628 431.248 682.753 439.354C681.862 442.182 681.512 444.693 681.268 447.643C681.124 449.204 681.124 449.204 680.978 450.796C680.789 452.959 680.606 455.123 680.43 457.287C679.611 465.995 677.489 472.19 672.365 479.291C671.901 479.969 671.438 480.647 670.96 481.345C670.371 482.041 670.37 482.041 669.77 482.75H668.039V484.479C636.615 512.819 565.253 527.986 523.895 526.156C519.158 525.753 515.546 523.908 511.432 521.657C508.378 520.069 505.309 518.51 502.238 516.955C501.415 516.538 500.592 516.119 499.744 515.689C494.671 513.156 489.613 510.914 484.231 509.12C483.391 508.836 483.391 508.836 482.534 508.547C471.381 505.047 460.536 503.86 448.919 503.932C448.256 503.934 447.592 503.935 446.909 503.937C436.423 503.991 426.984 504.904 417.121 508.688C416.515 508.905 415.908 509.123 415.283 509.347C407.196 512.262 399.708 516.019 392.312 520.39C374.161 530.975 353.796 525.441 334.538 520.859C331.153 520.053 327.761 519.28 324.366 518.514C319.434 517.4 314.514 516.261 309.615 515.066C296.552 452.829 295.148 394.274 323.917 334.838C338.921 336.989 353.726 340.672 367.803 345.282C368.575 345.53 369.348 345.777 370.144 346.033C382.598 350.084 394.224 355.579 405.928 361.391C426.805 371.668 448.141 377.461 471.266 370.509C472.731 370.004 472.732 370.005 474.227 369.49C475.097 369.207 475.967 368.924 476.863 368.632C483.14 366.406 489.06 363.473 495.047 360.574C529.229 344.034 565.511 333.974 603.588 333.739C605.263 333.724 606.938 333.702 608.612 333.668Z" fill="#F9705E"/>
<path d="M426.949 663.488C427.923 663.801 428.897 664.114 429.9 664.436C431.824 665.059 433.744 665.696 435.657 666.351C444.658 669.271 453.083 669.787 462.113 666.798C463.352 666.403 464.591 666.009 465.831 665.616C466.479 665.406 467.128 665.195 467.796 664.979C471.718 663.737 475.678 662.627 479.634 661.503C480.407 661.28 481.18 661.056 481.976 660.827C490.932 658.26 500.17 656.212 508.836 660.854C511.99 663.195 514.729 665.846 517.488 668.635C518.236 669.374 518.985 670.113 519.756 670.875C526.418 677.764 531.77 685.441 536.975 693.469C537.782 694.711 538.597 695.948 539.424 697.177C543.56 703.342 546.21 708.633 545.689 716.258C544.51 722.049 541.39 725.871 536.523 729.156C530.812 732.01 521.56 729.987 515.291 729.264C493.832 726.817 472.497 726.13 450.919 726.13C450.207 726.13 449.495 726.13 448.762 726.13C427.674 726.147 406.822 726.941 385.847 729.264C366.294 731.41 366.294 731.41 360.881 727.427C356.169 722.391 354.195 718.057 354.334 711.189C357.387 693.854 376.675 671.625 390.299 661.719C402.146 654.852 414.875 659.567 426.949 663.488Z" fill="#201111"/>
<path d="M313.293 105.792C315.703 110.904 317.989 116.06 320.107 121.3C320.479 122.217 320.852 123.135 321.236 124.08C321.969 126.622 322.194 127.633 321.08 130C319.695 131.449 319.695 131.449 317.944 132.864C310.88 138.811 305.287 145.427 299.703 152.747C298.747 153.996 297.775 155.233 296.8 156.468C275.185 184.681 262.938 221.816 262.893 257.202C262.892 257.809 262.89 258.415 262.889 259.04C262.887 273.366 264.822 287.122 267.436 301.188C266.591 301.48 265.747 301.772 264.877 302.072C263.765 302.462 262.653 302.851 261.541 303.241C260.985 303.433 260.429 303.624 259.857 303.822C257.211 304.753 255.075 305.675 252.727 307.24C251.244 307.748 249.746 308.214 248.238 308.645C247.459 308.87 246.679 309.095 245.876 309.327C245.281 309.494 244.687 309.661 244.074 309.833C243.94 309.203 243.805 308.573 243.667 307.924C236.609 275.063 226.523 240.522 203.128 215.141C201.678 213 201.678 213 201.715 210.906C207.947 194.131 221.716 178.752 233.594 165.735C235.226 163.935 236.816 162.106 238.396 160.26C244.125 153.701 250.417 147.733 257.053 142.104C257.839 141.414 258.626 140.724 259.436 140.014C273.401 127.845 288.609 117.917 304.911 109.196C305.548 108.855 306.185 108.513 306.841 108.162C311.35 105.792 311.35 105.792 313.293 105.792Z" fill="#E0D5A9"/>
<path d="M753.697 354.792C759.127 356.279 764.122 358.018 769.109 360.628C769.694 360.927 770.278 361.226 770.881 361.535C772.656 362.449 774.425 363.374 776.193 364.302C776.743 364.589 777.292 364.875 777.859 365.17C787.331 370.119 787.331 370.119 790.902 372.948C790.572 374.414 790.572 374.414 790.236 375.91C787.531 388.384 785.985 400.878 784.845 413.583C784.754 414.589 784.662 415.595 784.568 416.632C781.34 453.862 781.843 491.161 789.057 527.886C789.199 528.619 789.34 529.351 789.486 530.106C789.613 530.734 789.741 531.362 789.872 532.009C790.063 534.041 789.961 535.33 789.172 537.219C787.746 538.188 787.746 538.188 785.88 538.955C785.185 539.251 784.491 539.547 783.775 539.852C783.022 540.16 782.269 540.468 781.493 540.785C774.328 543.84 767.448 547.213 760.624 550.966C759.979 551.317 759.334 551.667 758.669 552.028C757.821 552.497 757.821 552.497 756.957 552.976C755.427 553.646 755.427 553.646 752.832 553.646C751.878 548.722 750.941 543.795 750.017 538.865C749.703 537.202 749.385 535.54 749.063 533.879C744.241 509.001 742.888 484.472 743.035 459.216C743.047 456.515 743.042 453.814 743.038 451.114C742.998 418.26 745.792 386.792 753.697 354.792Z" fill="#4B4E5D"/>
<path d="M145.438 356.521C165.542 410.037 165.672 498.568 146.174 552.048C145.931 552.576 145.688 553.103 145.438 553.646C133.893 548.188 122.357 542.71 110.828 537.219C111.586 529.36 112.991 521.63 114.372 513.86C117.25 497.13 118.074 480.641 118.02 463.675C118.018 462.129 118.018 462.129 118.016 460.551C117.941 431.549 117.204 402.065 109.963 373.813C118.334 369.012 126.773 364.456 135.487 360.303C136.278 359.925 137.068 359.547 137.883 359.157C143.483 356.521 143.483 356.521 145.438 356.521Z" fill="#484857"/>
<path d="M407.603 580.448C407.066 584.042 405.824 586.83 404.197 590.066C401.765 595.176 400.468 599.917 399.816 605.521C400.85 605.146 401.884 604.772 402.949 604.386C404.338 603.899 405.727 603.413 407.117 602.927C408.133 602.556 408.133 602.556 409.17 602.177C414.333 600.394 419.567 598.995 424.879 600.964C426.53 601.799 428.095 602.708 429.667 603.684C439.512 609.671 451.817 610.876 463.066 608.385C467.549 606.678 471.502 604.085 475.423 601.346C481.376 598.683 487.053 600.84 492.829 602.927C493.541 603.174 494.252 603.422 494.985 603.677C496.721 604.282 498.453 604.9 500.184 605.521C499.758 600.252 498.544 596.229 496.29 591.471C492.903 584.159 492.903 584.159 492.396 581.312C492.682 580.742 492.967 580.171 493.262 579.583C500.11 579.828 503.733 582.313 508.542 587.05C514.169 593.22 517.918 600.101 517.779 608.547C516.881 615.223 513.047 620.119 507.886 624.19C507.071 624.792 507.071 624.792 506.24 625.406C505.544 625.959 504.848 626.512 504.131 627.081C500.768 628.475 497.711 628.58 494.127 628C492.238 627.159 492.238 627.159 490.45 626.163C487.857 624.673 487.857 624.673 484.88 624.92C482.434 626.571 480.594 628.459 478.553 630.594C470.142 638.832 461.283 641.616 449.567 642.103C437.756 641.741 427.003 636.414 418.851 628C417.966 626.862 417.095 625.713 416.256 624.542C413.582 624.946 411.622 625.557 409.172 626.757C405.231 628.469 401.441 628.808 397.221 628C391.474 625.134 385.756 619.32 383.377 613.302C382.044 603.365 384.627 595.798 390.623 587.905C395.86 582.672 399.976 578.924 407.603 580.448Z" fill="#210F12"/>
<path d="M667.174 556.24C667.459 556.24 667.745 556.24 668.039 556.24C667.426 572.405 663.061 584.804 652.559 597.199C650.023 600.353 648.197 603.639 646.408 607.25C646.122 607.818 645.837 608.386 645.542 608.972C643.066 614.181 641.834 619.322 640.784 624.974C640.602 625.921 640.42 626.868 640.233 627.844C637.184 643.969 634.846 660.194 632.622 676.449C631.568 684.146 630.485 691.837 629.364 699.524C628.844 703.097 628.324 706.67 627.806 710.243C627.676 711.132 627.547 712.021 627.414 712.937C625.297 727.572 623.446 742.226 621.833 756.925C621.752 757.647 621.671 758.369 621.587 759.113C621.437 760.447 621.291 761.782 621.152 763.118C620.246 771.098 620.246 771.098 617.215 773.656C616.624 773.99 616.034 774.324 615.425 774.668C614.779 775.041 614.133 775.413 613.467 775.796C612.791 776.169 612.116 776.541 611.42 776.924C610.748 777.31 610.076 777.696 609.384 778.093C606.736 779.597 604.313 780.931 601.416 781.896C601.312 775.661 601.716 769.556 602.278 763.348C602.372 762.292 602.466 761.237 602.562 760.15C602.877 756.663 603.199 753.176 603.525 749.69C603.581 749.091 603.636 748.491 603.694 747.874C605.524 728.241 607.716 708.668 610.256 689.114C610.496 687.261 610.733 685.407 610.97 683.553C612.665 670.336 614.629 657.194 617.071 644.093C617.178 643.516 617.284 642.939 617.394 642.345C621.295 621.38 629.114 606.286 642.934 590.265C651.598 580.21 659.84 569.615 666.19 557.932C666.515 557.373 666.839 556.815 667.174 556.24Z" fill="#5A5E6C"/>
<path d="M231.961 555.375C234.731 557.994 236.545 561.052 238.504 564.291C246.175 576.729 254.874 587.89 264.624 598.766C272.864 608.239 277.62 618.397 280.417 630.573C280.565 631.211 280.712 631.848 280.864 632.505C282.362 639.119 283.508 645.775 284.524 652.479C284.628 653.157 284.732 653.835 284.84 654.534C289.707 686.463 293.111 718.697 296.367 750.825C296.434 751.481 296.501 752.137 296.571 752.812C297.555 762.494 298.136 772.175 298.584 781.896C291.064 778.265 291.064 778.265 288.201 776.708C287.44 776.304 287.44 776.304 286.664 775.891C283.475 773.952 281.816 772.44 280.904 768.759C280.652 767.311 280.428 765.858 280.228 764.402C280.033 763.206 280.033 763.206 279.834 761.987C279.422 759.404 279.05 756.818 278.684 754.229C278.432 752.534 278.179 750.839 277.926 749.145C277.256 744.568 276.627 739.986 276.008 735.402C275.285 730.066 274.543 724.732 273.8 719.399C273.721 718.833 273.642 718.267 273.561 717.683C271.507 702.964 269.311 688.267 267.098 673.571C266.79 671.524 266.484 669.478 266.178 667.431C263.447 649.154 263.447 649.154 260.355 630.935C260.159 629.838 260.159 629.838 259.958 628.719C257.509 615.516 253.268 604.227 244.453 593.849C234.948 582.54 232.656 569.802 231.961 555.375Z" fill="#424355"/>
<path d="M469.924 553.666C474.392 556.9 478.529 560.29 482.318 564.298C483.899 565.908 485.582 567.329 487.313 568.776C489.595 570.726 491.366 572.611 493.045 575.098C494.815 577.604 495.612 578.637 498.453 579.583C496.74 579.583 495.027 579.583 493.262 579.583C493.836 584.701 495.798 588.753 497.997 593.332C499.894 597.45 500.684 600.996 501.049 605.521C500.192 605.949 500.192 605.949 499.318 606.385C496.29 605.374 493.33 604.257 490.362 603.084C485.166 601.133 480.563 599.936 475.24 602.272C474.549 602.738 473.857 603.204 473.145 603.684C466.079 608.338 466.079 608.338 460.383 607.25C458.453 607.317 456.524 607.408 454.596 607.52C447.906 607.52 444.2 605.773 438.752 602.062C437.347 601.133 435.942 600.205 434.537 599.276C431.566 597.29 428.601 595.296 425.658 593.268C425.035 592.839 424.411 592.41 423.769 591.969C422.312 590.823 422.312 590.823 421.447 589.094C421.186 581.666 422.679 574.914 424.8 567.857C425.133 566.747 425.133 566.747 425.473 565.614C427.582 558.912 429.896 554.513 436.156 551.052C447.08 545.997 460.071 547.086 469.924 553.666Z" fill="#FFCEA3"/>
<path d="M753.698 354.792C759.128 356.279 764.122 358.018 769.11 360.628C769.694 360.927 770.279 361.226 770.882 361.535C772.657 362.449 774.426 363.374 776.194 364.302C776.743 364.589 777.293 364.875 777.86 365.17C787.332 370.119 787.332 370.119 790.903 372.948C790.573 374.414 790.573 374.414 790.237 375.91C784.838 400.785 783.85 426.291 782.25 451.625C781.965 451.625 781.679 451.625 781.385 451.625C780.957 448.201 780.957 448.201 780.52 444.708C768.528 444.708 756.536 444.708 744.18 444.708C744.18 454.98 744.18 465.251 744.18 475.833C743.895 475.833 743.609 475.833 743.315 475.833C743.037 434.508 743.721 395.178 753.698 354.792Z" fill="#717882"/>
<path d="M428.937 683.843C444.404 687.973 460.316 686.844 475.687 682.901C497.617 677.346 497.617 677.346 504.537 681.418C508.7 684.903 511.769 688.785 514.027 693.708C514.027 693.994 514.027 694.279 514.027 694.573C513.417 694.616 512.807 694.66 512.179 694.704C509.37 694.907 506.561 695.118 503.753 695.329C502.793 695.397 501.834 695.465 500.846 695.535C495.032 695.98 489.428 696.722 483.744 698.031C484.77 698.138 485.796 698.245 486.854 698.356C496.991 699.585 505.34 702.09 514.027 707.542C514.313 708.112 514.598 708.683 514.893 709.271C514.009 709.222 514.009 709.222 513.108 709.172C477.595 707.221 442.707 705.966 407.165 708.348C406.273 708.407 405.381 708.467 404.463 708.528C402.787 708.642 401.111 708.757 399.436 708.875C394.935 709.183 390.484 709.326 385.973 709.271C395.581 701.304 405.048 699.47 417.121 698.031C410.272 696.58 403.617 695.967 396.626 695.762C395.678 695.728 394.731 695.695 393.755 695.66C391.449 695.58 389.144 695.506 386.838 695.438C386.838 690.441 389.502 688.494 392.895 685.063C403.167 675.412 416.799 680.569 428.937 683.843Z" fill="#FFFAF0"/>
<path d="M497.588 749.042C497.158 752.178 496.718 754.711 495.056 757.421C494.723 757.97 494.391 758.518 494.048 759.084C493.699 759.64 493.35 760.195 492.991 760.768C492.653 761.326 492.314 761.885 491.966 762.461C491.295 763.554 490.609 764.637 489.907 765.71C489.046 767.029 488.239 768.383 487.442 769.741C484.412 772.482 481.572 772.024 477.633 771.845C476.945 771.833 476.256 771.82 475.546 771.808C471.833 771.719 468.163 771.449 464.469 771.075C458.923 770.544 453.405 770.529 447.837 770.548C446.845 770.545 445.854 770.541 444.832 770.538C437.573 770.546 430.479 771.078 423.272 771.909C415.676 772.448 415.676 772.448 412.623 769.988C410.975 767.702 409.731 765.394 408.469 762.875C407.595 761.412 407.595 761.412 406.704 759.92C403.466 754.421 403.466 754.421 402.412 751.635C403.218 749.75 403.218 749.75 404.143 748.177C435.396 747.085 466.373 746.934 497.588 749.042Z" fill="#201012"/>
<path d="M415.445 623.623C417.532 624.767 418.612 626.368 420.062 628.216C426.97 635.759 437.447 640.25 447.529 641.131C460.369 641.501 470.78 637.405 480.283 628.865C481.441 627.427 482.596 625.987 483.744 624.542C485.765 623.736 486.759 623.508 488.814 624.288C489.354 624.604 489.894 624.919 490.45 625.244C493.932 627.135 497.181 628.036 501.049 628.865C495.093 641.139 476.442 649.485 464.398 654.214C450.215 658.884 437.382 657.19 424.053 651.009C416.488 647.107 408.978 642.148 403.277 635.781C402.867 635.344 402.456 634.907 402.034 634.457C400.79 633.079 400.79 633.079 398.951 630.594C399.237 629.738 399.522 628.882 399.816 628C400.381 627.905 400.945 627.811 401.527 627.713C405.114 627.063 408.105 626.453 411.389 624.812C413.66 623.677 413.66 623.677 415.445 623.623Z" fill="#E08F49"/>
<path d="M803.016 391.969C811.619 408.268 810.14 432.316 810.154 450.328C810.155 451.102 810.155 451.876 810.156 452.673C810.141 473.668 807.913 494.123 803.881 514.74C800.971 511.832 801.031 507.778 800.366 503.824C800.216 502.999 800.066 502.175 799.911 501.325C797.7 488.494 797.645 475.522 797.662 462.54C797.662 461.776 797.663 461.011 797.663 460.223C797.706 437.22 798.895 414.644 803.016 391.969Z" fill="#535A66"/>
<path d="M96.9846 391.969C97.2701 391.969 97.5556 391.969 97.8498 391.969C101.493 410.704 102.482 429.11 102.449 448.17C102.445 450.637 102.451 453.103 102.467 455.569C102.596 475.88 102.329 496.564 97.8498 516.469C92.8685 509.002 92.6302 496.781 91.7932 487.938C91.7168 487.152 91.6404 486.367 91.5617 485.559C90.6879 475.237 90.718 464.895 90.7116 454.543C90.7108 453.563 90.7099 452.583 90.709 451.574C90.7212 431.28 91.8409 411.693 96.9846 391.969Z" fill="#434556"/>
<path d="M410.199 79.8542C407.709 81.2004 405.376 82.0174 402.625 82.6742C401.422 82.9698 401.422 82.9698 400.194 83.2713C399.338 83.4811 398.481 83.6908 397.599 83.9069C377.611 88.988 359.142 96.7059 342.059 108.308C339.25 110.115 339.25 110.115 337.52 110.115C337.145 109.285 337.145 109.285 336.762 108.439C335.938 106.525 335.938 106.525 334.059 105.792C333.322 104.285 333.322 104.285 332.653 102.441C332.427 101.837 332.202 101.233 331.97 100.611C331.463 98.875 331.463 98.875 331.463 96.2813C348.85 90.0836 366.126 85.152 384.242 81.5833C385.106 81.4127 385.969 81.242 386.859 81.0662C394.72 79.5563 402.217 78.3664 410.199 79.8542Z" fill="#EADFB7"/>
<path d="M285.606 264.01C289.423 266.589 290.291 268.965 291.27 273.43C291.634 275.42 291.981 277.414 292.311 279.411C292.491 280.406 292.67 281.4 292.855 282.425C293.76 287.512 294.542 292.595 295.123 297.729C293.857 297.901 293.857 297.901 292.565 298.077C291.464 298.23 290.363 298.382 289.229 298.54C288.135 298.69 287.04 298.841 285.913 298.996C283.024 299.375 283.024 299.375 280.414 300.323C279.557 297.047 278.713 293.768 277.873 290.488C277.632 289.571 277.392 288.654 277.144 287.709C273.488 273.36 273.488 273.36 275.439 267.901C278.288 263.835 280.843 263.436 285.606 264.01Z" fill="#E0D3A6"/>
<path d="M620.451 264.01C622.993 265.686 622.993 265.686 624.777 268.333C625.338 275.136 623.8 281.259 622.182 287.84C621.81 289.396 621.81 289.396 621.431 290.983C620.824 293.522 620.206 296.058 619.586 298.594C614.446 298.308 609.307 298.023 604.012 297.729C604.674 294.324 605.342 290.92 606.013 287.516C606.197 286.565 606.382 285.614 606.572 284.634C607.487 280.007 608.449 275.392 609.565 270.809C609.745 270.059 609.924 269.309 610.11 268.537C612.108 263.85 615.737 263.349 620.451 264.01Z" fill="#ECE0B2"/>
<path d="M622.181 741.26C622.467 741.26 622.753 741.26 623.047 741.26C622.856 745.594 622.544 749.908 622.181 754.229C622.125 754.964 622.069 755.699 622.011 756.457C620.906 769.743 620.906 769.743 618.048 773.591C616.016 774.983 614.099 775.829 611.799 776.708C609.901 777.672 608.009 778.645 606.121 779.626C604.555 780.388 602.988 781.146 601.416 781.896C601.32 776.071 601.674 770.397 602.281 764.604C602.567 764.604 602.852 764.604 603.146 764.604C603.146 763.873 603.146 763.142 603.146 762.389C604.249 758.6 605.983 757.4 608.98 754.969C613.17 751.528 616.963 747.613 620.397 743.422C620.986 742.709 621.575 741.995 622.181 741.26Z" fill="#474959"/>
<path d="M475.409 581.495C476.537 581.833 476.537 581.833 477.687 582.177C477.968 584.477 477.968 584.477 477.687 587.365C475.758 589.793 475.758 589.793 473.199 592.066C472.366 592.831 471.533 593.597 470.674 594.386C468.17 596.01 468.17 596.01 465.746 595.879C463.844 595.146 463.844 595.146 462.978 594.281C462.647 592.356 462.647 592.356 462.978 589.958C464.878 587.614 464.878 587.614 467.413 585.311C468.236 584.538 469.059 583.764 469.907 582.967C472.496 581.312 472.496 581.312 475.409 581.495Z" fill="#FBD386"/>
<path d="M347.291 231.05C405 219 498 219 552.485 230.967C545.78 238.718 543.214 246.754 541.772 254.71C496 243 420.5 241.5 357.573 255.097C357.32 253.937 357.03 252.776 356.691 251.616C356.546 251.115 356.404 250.614 356.264 250.113C354.477 243.782 352.564 237.322 347.291 231.05Z" fill="black"/>
<path d="M340 183.051C398.5 168.5 504 168.5 560 182.967C552.81 190.717 550.06 198.754 548.515 206.71C498.5 194.5 409 196 351.024 207.098C350.753 205.937 350.441 204.776 350.078 203.615C349.922 203.114 349.771 202.613 349.62 202.112C347.704 195.781 345.653 189.322 340 183.051Z" fill="black"/>
<path d="M347.291 275.051C402.5 263.5 504 264.5 552.486 274.967C545.78 282.718 543.214 290.754 541.772 298.71C494.5 288 413 287 357.573 299.098C357.32 297.937 357.03 296.776 356.691 295.615C356.546 295.114 356.404 294.613 356.264 294.112C354.477 287.781 352.564 281.322 347.291 275.051Z" fill="black"/>
<path d="M652.001 435.5C626.501 449.5 624.5 425 604.5 398.5C592.479 380 551.501 368.5 574.501 352C597.501 335.5 652.001 359 660.001 377.5C668.001 396 677.501 421.5 652.001 435.5Z" fill="#FFE8E5"/>
</g>
<defs>
<clipPath id="clip0_2031_29">
<rect width="900" height="900" fill="white"/>
</clipPath>
</defs>
</svg>
