<svg width="900" height="900" viewBox="0 0 900 900" fill="none" xmlns="http://www.w3.org/2000/svg">
<g clip-path="url(#clip0_2029_2)">
<path d="M734.921 145.628C703.834 138.887 672.15 143.727 645.333 160.729C603.447 190.092 583.286 240.371 574.317 289.169C573.834 291.958 573.358 294.749 572.906 297.543C565.01 295.054 557.343 292.139 549.697 288.974C544.53 286.862 539.409 285.211 534.028 283.768C536.062 278.623 539.781 275.189 543.669 271.402C544.343 270.736 545.016 270.069 545.711 269.384C549.314 265.852 552.973 262.44 556.838 259.192C560.378 256.603 560.378 256.603 561.619 253.713C557.028 252.833 552.428 252.015 547.823 251.208L543.968 250.484C524.093 247.133 503.677 247.756 483.862 251.208C488.27 238.639 500.935 229.008 510.121 219.744L513.364 216.456L516.426 213.394L519.194 210.615C521.486 208.63 521.487 208.63 523.994 208.63H523.995V206.125C473.533 210.258 431.524 222.858 396.449 261.417C393.583 264.754 393.582 264.755 391.914 267.935L391.913 267.937C385.704 278.479 377.981 280.886 366.6 284.081C364.902 284.593 363.206 285.11 361.512 285.633C359.011 286.404 356.51 287.173 354.003 287.925C345.193 290.573 336.81 293.964 328.348 297.543C328.183 296.787 328.018 296.031 327.85 295.262L327.682 294.492C317.932 250.276 304.718 207.624 271.912 174.818L269.193 172.059C246.344 150.314 216.43 142.518 185.591 143.241C154.665 144.36 130.027 158.171 107.619 178.575L105.096 180.825C78.8886 205.469 62.2467 241.93 53.6908 276.254L52.8531 279.463C41.5781 328.222 48.2239 385.706 73.7571 429.035C91.7616 457.202 119.499 478.7 152.141 487.424L155.472 488.333C165.461 490.608 175.076 490.546 185.298 490.476L190.072 490.459C193.941 490.444 197.81 490.424 201.68 490.398C198.018 508.246 191.491 524.816 182.799 540.812C181.765 542.715 180.765 544.636 179.771 546.561C164.005 574.321 135.192 590.686 106.365 601.853C116.53 620.562 131.806 635.362 150.554 645.488L152.768 646.936V649.44C144.066 654.116 136.212 657.831 126.431 659.459C144.289 694.347 182.306 719.881 214.221 740.858C243.314 759.981 285.457 774.686 317.688 789.698C359.791 809.308 394.281 826.641 455.016 826.641C504.089 826.641 546.977 802.659 589.21 784.063C639.26 762.024 687.377 742.569 729.4 708.978C747.035 694.882 762.261 678.275 774.823 659.459L771.678 659.772C766.006 659.366 762.332 657.262 757.477 654.481L757.422 654.449L754.806 653.001C752.692 651.828 750.588 650.636 748.486 649.44V646.936C750.471 645.576 752.524 644.315 754.6 643.1C762.152 638.435 768.423 633.013 774.823 626.899L777.528 624.482C784.628 617.91 789.101 610.343 793.636 601.853L789.633 600.331C769.813 592.614 753.441 583.205 738.453 568.041L735.734 565.321C716.911 545.362 702.623 517.505 698.321 490.398L699.707 490.417C700.203 490.423 700.703 490.43 701.21 490.437C705.603 490.49 709.996 490.522 714.389 490.554L718.933 490.618C732.419 490.691 744.519 488.785 757.265 484.449L760.218 483.448C768.108 480.688 775.279 477.351 782.348 472.866L786.189 470.503C820.137 448.461 838.479 413.772 847.564 375.186L848.24 372.456C860.795 319.723 848.587 259.714 821.121 213.791C801.159 181.526 772.103 155.568 734.921 145.628Z" fill="black"/>
<path d="M603.789 432.322C626.731 450.03 640.064 476.93 644.108 505.384C645.947 521.832 646.243 543.246 636.182 557.137C631.282 562.884 626.289 568.595 619.309 571.797C617.654 571.797 615.998 571.797 614.293 571.797C614.293 572.624 614.293 573.45 614.293 574.302C615.688 574.237 617.083 574.173 618.521 574.106C624.982 574.118 630.773 575.635 636.946 577.433C638.098 577.768 639.251 578.103 640.438 578.449C656.609 583.387 670.274 590.697 682.017 603.105C682.762 603.886 683.507 604.668 684.275 605.473C692.284 614.918 695.435 627.558 694.872 639.764C694.768 640.891 694.665 642.018 694.558 643.179C694.455 644.331 694.351 645.484 694.245 646.671C690.781 673.404 676.066 695.221 658.188 714.56C657.325 715.511 656.461 716.461 655.572 717.441C644.721 728.847 631.425 737.702 618.055 745.867C616.722 746.721 615.388 747.575 614.014 748.455C607.031 752.883 600.301 756.808 592.532 759.657C588.51 761.156 584.6 762.861 580.666 764.574C575.242 766.908 569.81 769.147 564.284 771.226C556.286 774.247 548.416 777.547 540.534 780.854C481.394 805.528 430.046 810.288 369.509 785.501C364.813 783.515 360.293 781.269 355.778 778.902C343.664 773.092 330.862 768.582 318.315 763.791C317.043 763.3 315.77 762.809 314.459 762.304C312.033 761.372 309.6 760.459 307.16 759.564C269.038 744.888 231.274 712.08 214.378 674.721C207.415 658.5 201.468 637.847 207.95 620.637C216.841 600.984 231.575 588.648 251.375 580.72C262.64 576.751 273.801 574.04 285.707 573.05C284.233 572.378 282.758 571.707 281.239 571.015C270.856 565.748 264.151 558.68 259.37 548.004C250.394 520.441 256.306 490.324 269.149 465.034C273.025 457.728 277.587 451.409 283.199 445.315C284.075 444.34 284.951 443.365 285.854 442.36C298.416 429.059 314.866 419.248 333.487 418.674C359.433 418.048 359.433 418.048 370.989 425.278C372.179 426.006 373.369 426.734 374.595 427.484C392.577 439.512 403.704 459.103 408.02 480.057C412.057 507.841 410.137 533.971 401.088 560.527C402.563 559.778 404.037 559.029 405.556 558.257C432 546.912 468.47 547.962 495.071 558.257C496.777 558.996 498.479 559.746 500.166 560.527C499.757 559.613 499.348 558.699 498.926 557.758C486.893 529.047 485.35 492.754 496.795 463.63C505.845 443.754 517.959 428.899 538.887 421.052C561.025 413.463 584.815 419.292 603.789 432.322Z" fill="#EBBC75"/>
<path d="M465.05 241.19C464.671 241.911 464.293 242.633 463.903 243.377C454.807 260.938 446.527 279.014 443.729 298.796C444.143 299.209 444.557 299.622 444.983 300.048C445.823 299.289 446.662 298.53 447.526 297.749C468.583 279.404 489.478 269.609 517.724 268.74C516.078 271.206 516.078 271.206 514.432 273.671C513.74 274.713 513.048 275.754 512.335 276.826C511.034 278.766 509.718 280.696 508.377 282.609C504.218 288.597 500.637 294.809 497.187 301.222C496.738 302.053 496.289 302.883 495.826 303.739C493.44 307.925 493.44 307.925 492.641 312.571C493.857 311.79 495.072 311.008 496.325 310.203C511.148 301.343 511.148 301.343 520.212 303.256C523.608 304.233 526.92 305.352 530.222 306.608C532.772 307.561 535.333 308.375 537.937 309.166C565.446 317.78 590.47 333.478 611.785 352.645C613.036 353.758 613.036 353.758 614.312 354.895C625.361 365.309 634.091 378.544 641.884 391.466C642.667 392.686 643.449 393.907 644.255 395.164C652.708 408.921 657.926 423.855 663.204 439.053C663.557 440.062 663.909 441.07 664.272 442.11C668.519 454.443 671.825 466.978 675.019 479.617C687.198 527.745 705.118 573.879 748.486 601.853C753.352 604.67 758.392 607.099 763.536 609.367C752.613 624.102 731.686 631.642 714.624 636.917C713.797 636.917 712.969 636.917 712.116 636.917C712.415 645.195 712.415 645.195 715.173 652.884C722.763 659.539 731.438 663.803 740.961 666.972C714.273 701.236 668.193 725.901 629.343 743.363C626.657 744.585 623.975 745.812 621.295 747.047C619.651 747.805 618.004 748.558 616.354 749.303C613.058 750.816 610.611 752.049 608.022 754.634C607.194 753.807 606.367 752.981 605.514 752.129C606.849 751.385 608.185 750.641 609.56 749.874C622.053 742.796 633.439 735.104 644.392 725.831C646.114 724.378 646.114 724.378 647.871 722.896C669.769 703.788 688.611 677.387 692.99 648.031C693.094 646.43 693.197 644.829 693.304 643.179C693.383 642.157 693.462 641.135 693.544 640.082C694.204 625.309 689.868 613.395 680.013 602.391C662.83 585.037 638.246 576.837 614.293 574.302C614.293 573.476 614.293 572.649 614.293 571.797C615.534 571.358 616.776 570.919 618.055 570.467C627.451 566.403 635.412 558.701 639.376 549.256C648.023 520.636 643.064 490.246 629.343 464.099C616.693 440.833 598.946 428.057 574.16 420.269C555.677 416.444 538.464 420.014 522.74 430.287C504.298 443.515 495.789 465.188 491.94 486.822C489.332 509.575 490.388 534.199 499.201 555.557C500.166 558.022 500.166 558.022 500.166 560.527C499.479 560.299 498.792 560.071 498.084 559.837C494.616 558.739 491.128 557.747 487.624 556.77C486.404 556.411 485.183 556.053 483.926 555.684C457.234 549.06 424.93 550.163 399.834 561.779C400.062 561.049 400.29 560.32 400.525 559.568C402.348 553.631 404.066 547.674 405.635 541.664C405.935 540.513 406.236 539.362 406.546 538.176C412.624 508.672 410.046 473.459 393.564 447.82C387.33 438.684 380.573 432.083 370.989 426.53C369.956 425.894 368.923 425.258 367.859 424.603C353.463 417.134 333.3 417.982 317.923 422.304C305.163 427.103 295.373 434.575 285.707 444.063C284.92 444.833 284.133 445.603 283.321 446.396C263.66 467.186 255.955 497.212 256.514 525.12C257.114 538.122 260.329 552.053 269.403 561.779C274.72 566.578 280.418 570.11 286.961 573.05C286.961 573.463 286.961 573.876 286.961 574.302C285.252 574.464 285.252 574.464 283.508 574.63C259.979 577.256 235.929 585.162 219.517 603.027C210.005 615.014 206.067 626.777 206.696 641.926C207.138 645.556 207.843 649.085 208.656 652.649C208.876 653.616 209.096 654.584 209.323 655.58C220.113 699.896 254.456 726.97 290.724 750.877C289.896 751.29 289.068 751.703 288.216 752.129C285.446 751.166 285.446 751.166 282.004 749.59C280.743 749.016 279.483 748.442 278.185 747.85C276.839 747.222 275.493 746.593 274.106 745.946C272.05 744.993 272.05 744.993 269.952 744.021C259.817 739.272 250.131 734.14 240.558 728.335C239.064 727.468 237.568 726.604 236.071 725.743C214.263 713.1 193.948 697.939 174.716 681.687C173.993 681.082 173.271 680.476 172.527 679.853C167.915 675.9 164.07 671.729 160.293 666.972C161.248 666.622 162.204 666.272 163.188 665.911C177.651 660.426 177.651 660.426 187.884 649.44C188.083 647.042 188.083 647.042 188.041 644.431C188.044 643.553 188.047 642.675 188.051 641.77C188.027 639.307 188.027 639.307 186.63 636.917C183.401 635.706 180.19 634.608 176.91 633.552C161.856 628.445 149.13 621.955 137.718 610.619C140.649 607.339 143.584 605.662 147.516 603.731C171.57 590.85 187.27 571.384 200.425 548.004C201.146 546.73 201.868 545.456 202.61 544.144C216.457 518.023 223.629 488.728 230.495 460.18C238.966 425.081 253.5 392.892 276.928 365.168C277.775 364.152 278.622 363.137 279.495 362.091C306.806 330.491 347.701 309.605 388.513 302.191C393.817 301.012 396.915 300.073 400.285 295.738C401.331 294.046 402.33 292.324 403.283 290.577C404.4 288.76 405.523 286.946 406.654 285.138C407.19 284.258 407.727 283.378 408.28 282.472C411.878 276.894 416.547 272.231 421.155 267.488C421.84 266.726 422.526 265.964 423.232 265.179C431.029 256.783 453.361 237.299 465.05 241.19Z" fill="#715C3E"/>
<path d="M178.792 219.353C180.148 219.334 180.148 219.334 181.533 219.314C187.531 219.412 191.498 220.706 196.663 223.657C198.489 224.369 200.318 225.074 202.15 225.771C212.726 230.564 218.287 238.427 223.47 248.469C223.889 249.269 224.308 250.069 224.74 250.894C230.662 263.096 230.938 276.377 231.571 289.698C232.597 310.834 233.949 332.018 239.99 352.42C240.558 355.149 240.558 355.149 239.304 358.906C237.643 357.659 237.643 357.659 235.948 356.387C222.207 346.222 210.188 339.635 192.901 337.617C198.708 361.911 207.667 378.124 229.271 391.671C231.133 392.809 231.133 392.809 233.033 393.971C231.333 399.338 229.323 404.515 227.182 409.717C222.97 419.962 219.073 430.272 215.554 440.775C215.185 441.868 214.816 442.961 214.436 444.087C212.657 449.488 211.188 454.679 210.459 460.343C191.215 468.278 173.976 469.268 154.316 462.201C144.553 457.727 137.235 450.568 129.526 443.286C127.902 441.761 126.252 440.263 124.599 438.77C102.921 418.491 94.8883 390.401 93.6654 361.424C92.6551 320.169 98.5296 277.258 127.999 245.729C130.353 243.319 132.76 241.002 135.21 238.685C136.036 237.881 136.862 237.077 137.714 236.249C142.976 231.419 148.897 228.068 155.276 224.91C156.187 224.414 157.097 223.919 158.035 223.408C164.926 220.078 171.248 219.421 178.792 219.353Z" fill="#493D2C"/>
<path d="M720.532 219.666C739.264 218.896 753.473 227.995 767.298 239.859C780.734 252.221 790.015 267.95 796.143 285.02C796.465 285.883 796.786 286.745 797.117 287.634C812.894 330.487 810.281 377.65 791.127 419.017C784.183 431.822 773.491 442.433 762.282 451.576C761.543 452.232 760.804 452.887 760.043 453.563C752.569 459.805 743.88 462.515 734.69 465.352C733.454 465.734 733.454 465.734 732.192 466.125C718.473 468.737 703.262 466.567 690.795 460.343C689.709 457.644 689.709 457.644 688.62 454.076C688.214 452.77 687.808 451.463 687.389 450.117C686.961 448.713 686.533 447.309 686.092 445.863C682.199 433.388 677.956 421.182 673.237 408.998C671.546 404.413 669.879 399.82 668.221 395.223C669.812 394.063 669.812 394.063 671.435 392.88C690.874 378.498 703.445 361.713 708.353 337.617C688.955 341.351 676.143 349.668 660.696 361.411C659.045 356.465 660.222 354.05 661.637 349.044C666.533 330.568 668.381 312.006 669.056 292.948C669.912 269.348 672.325 248.562 690.482 231.563C699.675 223.893 708.675 220.485 720.532 219.666Z" fill="#493D2C"/>
<path d="M740.962 172.313C742.208 172.844 743.454 173.375 744.739 173.922C776.469 188.487 798.563 217.551 812.448 248.704C813.128 250.205 813.809 251.706 814.51 253.253C818.265 262.041 821.064 270.842 823.421 280.089C823.795 281.551 823.795 281.551 824.177 283.043C827.847 298.255 829.244 313.381 829.222 329.007C829.221 329.85 829.221 330.692 829.22 331.56C829.166 346.186 827.773 359.864 823.735 373.934C823.46 374.906 823.184 375.878 822.9 376.879C813.896 407.773 797.864 436.16 769.003 452.129C764.663 454.14 760.634 455.408 756.011 456.586C759.807 452.726 763.68 449.039 767.739 445.45C791.21 424.566 800.143 397.912 804.923 367.672C805.089 366.649 805.256 365.625 805.427 364.571C810.585 326.898 800.478 283.053 777.488 252.617C765.478 237.408 748.366 223.261 728.513 220.675C724.757 220.484 721.049 220.457 717.29 220.527C715.972 220.542 714.654 220.557 713.297 220.573C696.013 221.013 682.832 225.889 669.946 237.589C655.559 252.787 650.419 273.739 646.822 293.708C646.506 295.401 646.189 297.093 645.871 298.785C643.7 310.399 641.646 322.036 639.743 333.696C638.794 339.392 637.651 344.706 635.613 350.14C628.077 343.867 621.22 337.104 614.354 330.115C613.521 329.274 612.687 328.432 611.829 327.564C611.006 326.732 610.182 325.9 609.334 325.042C606.714 322.538 603.964 320.296 601.144 318.02C596.863 314.314 596.863 314.314 595.809 310.286C595.985 309.103 596.162 307.92 596.343 306.701C596.553 305.283 596.763 303.866 596.98 302.406C597.313 300.801 597.646 299.197 597.989 297.543C598.173 296.65 598.357 295.757 598.546 294.837C603.885 269.749 611.741 244.821 624.326 222.405C624.754 221.614 625.182 220.822 625.623 220.007C639.198 194.968 658.209 176.999 685.779 168.556C702.903 164.555 724.873 164.936 740.962 172.313Z" fill="#715C3E"/>
<path d="M190.118 165.802C213.015 164.911 234.038 174.99 250.65 190.109C251.888 191.27 253.122 192.434 254.353 193.602C255.343 194.522 256.332 195.443 257.352 196.391C283.884 223.361 296.393 265.11 303.265 301.3C303.631 303.128 303.631 303.128 304.005 304.993C304.385 308.388 304.365 310.589 303.265 313.823C300.822 316.82 298.128 319.037 295.098 321.445C288.958 326.374 283.558 332.109 278.025 337.695C275.906 339.823 273.786 341.951 271.667 344.079C270.076 345.681 268.485 347.284 266.895 348.888C266.067 348.474 265.239 348.061 264.387 347.635C263.443 344.513 262.66 341.47 261.957 338.292C261.739 337.339 261.522 336.386 261.298 335.404C258.797 324.177 256.976 312.843 255.163 301.49C251.034 275.789 245.764 248.956 224.367 231.612C217.197 226.981 209.078 223.119 200.425 223.657C201.667 224.897 202.909 226.137 204.188 227.414C198.994 226.838 196.352 226.344 192.9 222.405C180.979 218.437 166.502 220.419 155.266 225.399C126.816 240.679 110.282 268.633 100.692 298.527C89.7369 335.408 90.433 383.615 109.03 417.999C114.223 426.394 120.79 433.302 127.685 440.306C128.64 441.279 129.596 442.253 130.58 443.255C132.941 445.631 135.324 447.982 137.718 450.324C138.974 451.575 140.228 452.827 141.481 454.081C142.722 455.321 142.722 455.321 143.989 456.586C119.338 449.726 102.004 430.688 89.6884 409.091C66.7078 366.617 66.9383 314.143 80.0275 268.74C91.5264 230.814 115.133 195.259 150.546 175.97C155.339 173.484 160.168 171.449 165.309 169.808C166.758 169.318 168.206 168.827 169.699 168.321C176.488 166.748 183.183 166.298 190.118 165.802Z" fill="#715C3E"/>
<path d="M447.021 567.649C448.346 567.656 449.67 567.663 451.035 567.671C467.732 567.928 484.64 569.744 497.535 581.483C499.447 583.593 501.082 585.72 502.674 588.077C503.45 589.214 504.226 590.35 505.026 591.521C508.244 600.804 507.182 609.929 503.154 618.788C495.801 631.937 484.514 642.214 470.066 646.936C464.479 647.555 464.479 647.555 458.779 648.188C458.779 660.999 458.779 673.81 458.779 687.009C490.797 685.857 521.525 676.877 545.153 654.268C547.823 651.945 547.823 651.945 551.586 650.692C552.896 648.389 552.896 648.389 554.094 645.683C555.364 643.883 556.671 642.109 558.013 640.361C558.689 639.476 559.365 638.592 560.061 637.68C560.575 637.015 561.089 636.35 561.619 635.665C558.914 632.964 556.137 631.309 552.84 629.403C553.153 625.803 553.153 625.803 554.094 621.89C560.401 617.591 568.718 618.698 575.919 619.879C585.398 622.457 592.189 628.878 598.067 636.526C599.973 643.249 599.521 650.016 599.243 656.954C598.441 656.127 597.639 655.301 596.813 654.449C593.681 651.331 590.448 648.337 587.172 645.37C586.225 644.511 585.277 643.653 584.301 642.768C581.699 640.438 581.699 640.438 577.923 639.422C577.8 640.326 577.677 641.23 577.55 642.161C573.121 659.853 551.073 676.371 536.291 685.488C510.886 700.5 482.838 706.284 453.486 706.12C450.63 706.107 447.776 706.12 444.92 706.136C404.404 706.176 366.569 692.307 337.617 663.744C322.077 647.186 322.077 647.186 322.077 639.422C314.94 643.058 309.976 647.384 304.519 653.197C303.269 654.454 302.017 655.707 300.757 656.954C299.953 647.336 299.694 639.764 305.798 631.918C314.546 623.062 322.338 619.29 334.697 618.994C335.979 618.947 337.261 618.9 338.582 618.852C343.027 619.517 344.461 620.876 347.16 624.394C347.317 627.525 347.317 627.525 345.906 630.656C342.065 633.552 342.065 633.552 338.381 635.665C359.035 664.172 386.596 679.766 421.155 685.757C428.274 686.616 435.297 686.824 442.475 687.009C442.475 674.198 442.475 661.387 442.475 648.188C438.75 647.775 435.025 647.361 431.188 646.936C417.595 642.226 404.199 632.246 397.326 619.385C393.4 610.891 391.422 601.64 394.622 592.602C399.706 582.501 407.661 576.014 417.936 571.577C427.664 568.458 436.821 567.592 447.021 567.649Z" fill="#052E24"/>
<ellipse cx="345.906" cy="514.192" rx="45.1492" ry="57.6059" fill="#FFEDD2"/>
<ellipse cx="554.094" cy="514.192" rx="45.1492" ry="57.6059" fill="#FFEDD2"/>
<path d="M372.321 485.389C382.941 492.609 388.504 503.019 391.055 515.444C392.1 527.821 390.504 540.738 382.276 550.508C374.103 558.313 369.877 561.014 358.418 560.864C352.24 560.306 349.294 557.801 345.176 553.394C335.059 541.253 334.564 526.814 335.873 511.687C337.435 502.33 342.223 494.159 349.806 488.382C357.534 483.645 363.528 482.522 372.321 485.389Z" fill="#052D24"/>
<path d="M542.807 484.136C551.5 487.98 557.597 494.363 561.619 502.921C563.74 509.905 564.576 516.227 564.519 523.506C564.511 524.902 564.511 524.902 564.503 526.327C564.278 537.288 561.624 546.928 553.487 554.818C547.628 559.9 543.212 560.927 535.703 560.781C528.724 560.175 524.123 557.304 519.37 552.387C511.687 543.077 507.86 529.932 508.945 517.948C511.076 505.887 515.57 494.604 525.641 487.111C531.403 483.738 536.259 482.476 542.807 484.136Z" fill="#042D25"/>
<path d="M359.623 449.776C371.645 456.252 378.74 465.772 384 478.188C384.855 481.943 384.967 485.307 384.784 489.145C384.138 488.319 383.491 487.492 382.825 486.641C381.816 485.401 380.807 484.161 379.768 482.884C379.216 482.112 378.665 481.341 378.097 480.546C371.018 471.347 360.78 465.487 349.389 463.336C338.299 462.822 329.479 466.815 321.215 474.04C312.187 483.845 306.876 497.297 305.773 510.435C305.621 511.907 305.621 511.907 305.465 513.409C304.61 529.13 310.882 546.607 320.431 558.961C325.092 564.104 331.071 567.282 337.127 570.545C329.954 573.205 322.54 569.453 315.806 566.788C303.871 560.261 297.283 549.384 293.232 536.733C287.086 515.464 290.722 495.232 300.286 475.605C312.096 455.558 336.038 440.125 359.623 449.776Z" fill="#0B2D22"/>
<path d="M576.668 452.829C577.91 453.526 579.152 454.223 580.431 454.942C595.716 466.707 605.132 481.561 609.276 500.416C610.987 520.215 609.713 539.221 597.465 555.694C589.31 565.264 579.549 569.866 567.027 571.484C565.656 571.588 564.285 571.691 562.873 571.797C565.381 569.293 565.381 569.293 569.3 567.336C581.541 560.41 587.667 548.27 591.679 535.314C596.146 518.174 595.896 500.693 587.015 484.997C580.154 474.544 572.562 467.747 560.365 464.099C547.588 462.072 539.007 466.052 528.697 473.179C524.236 477.634 521.042 482.563 517.724 487.893C516.896 489.133 516.068 490.373 515.215 491.65C516.423 478.387 520.131 466.194 530.167 456.845C543.912 446.073 561.191 443.411 576.668 452.829Z" fill="#0A2C21"/>
<path d="M362.21 371.429C369.097 376.254 374.958 381.888 377.26 390.214C376.639 392.073 376.639 392.073 376.005 393.971C374.756 393.586 374.756 393.586 373.482 393.193C372.375 392.855 371.268 392.518 370.127 392.17C369.035 391.836 367.944 391.502 366.82 391.158C346.813 385.529 328.446 391.214 310.569 400.638C302.399 405.479 294.804 410.911 288.215 417.764C287.388 417.351 286.56 416.938 285.707 416.512C293.016 395.828 306.158 380.033 325.84 370.177C338.39 364.984 350.376 364.212 362.21 371.429Z" fill="#062D25"/>
<path d="M576.668 371.429C580.678 373.655 584.317 376.156 587.956 378.943C588.884 379.634 589.812 380.325 590.768 381.037C602.264 390.331 610.595 403.487 614.293 417.764C611.157 416.042 611.157 416.042 608.022 414.007C608.022 413.181 608.022 412.354 608.022 411.503C607.346 411.186 606.67 410.87 605.974 410.544C602.379 408.672 599.047 406.493 595.637 404.302C574.319 390.983 554.884 386.189 530.27 391.774C526.476 392.674 526.476 392.674 522.74 393.971C524.001 385.832 527.948 379.396 534.307 374.129C548.428 364.525 561.209 364.032 576.668 371.429Z" fill="#072C24"/>
<path d="M399.834 720.821C401.046 721.244 402.259 721.667 403.508 722.103C405.157 722.668 406.807 723.232 408.456 723.796C409.248 724.073 410.041 724.351 410.857 724.637C436.962 733.5 466.785 732.351 492.641 723.326C494.813 722.604 494.813 722.604 497.03 721.868C498.582 721.35 498.582 721.35 500.165 720.821C495.078 732.049 485.827 739.168 475.083 744.615C474.19 745.133 473.298 745.651 472.378 746.185C460.849 752.002 445.311 751.484 432.976 748.563C420.149 743.624 407.68 734.716 399.834 723.326C399.834 722.499 399.834 721.673 399.834 720.821Z" fill="#BF8134"/>
<path d="M477.591 594.339C477.177 595.579 476.764 596.818 476.337 598.096C461.325 605.502 445.143 606.189 429.15 601.911C425.666 600.378 423.673 598.408 421.155 595.591C422.663 594.589 424.181 593.601 425.701 592.617C426.967 591.789 426.967 591.789 428.258 590.944C444.333 582.086 462.246 586.537 477.591 594.339Z" fill="#FFEDD2"/>
<rect x="438.713" y="648.188" width="20.0663" height="38.8214" fill="#EBBC75"/>
</g>
<defs>
<clipPath id="clip0_2029_2">
<rect width="900" height="900" fill="white"/>
</clipPath>
</defs>
</svg>
