<svg width="900" height="900" viewBox="0 0 900 900" fill="none" xmlns="http://www.w3.org/2000/svg">
<g clip-path="url(#clip0_26_1800)">
<path d="M762.083 47.1953C769.068 50.493 776.046 53.8039 783.007 57.1523C782.956 105.771 782.914 164.94 782.885 188.405C782.88 192.782 782.875 197.16 782.87 201.538C782.869 202.436 782.868 203.309 782.866 204.181C782.849 218.298 782.82 232.415 782.781 246.531C782.741 261.077 782.713 275.623 782.704 290.169C782.698 299.131 782.688 308.092 782.654 317.054C782.63 323.253 782.616 329.452 782.618 335.65C782.621 338.548 782.624 341.447 782.62 344.345C782.527 360.445 782.563 375.729 786.721 391.372C787.138 392.921 787.545 394.474 787.944 396.027C788.161 396.878 788.372 397.705 788.583 398.531C791.995 411.84 792.286 424.823 791.285 438.503C790.693 445.825 790.178 453.15 789.72 460.481C789.591 462.567 789.462 464.653 789.332 466.739C788.81 475.043 788.311 483.348 787.859 491.657C787.538 497.562 787.191 503.465 786.813 509.366C786.571 513.073 786.324 516.778 786.132 520.488C785.946 524.254 785.748 528.017 785.492 531.779C785.39 533.211 785.292 534.644 785.199 536.077C784.762 546.785 782.983 552.483 775.175 560.081C772.59 562.49 772.589 562.49 770.515 564.775C769.969 565.414 769.438 566.034 768.908 566.654C768.358 567.287 767.824 567.901 767.29 568.515C766.748 569.142 766.22 569.752 765.694 570.361C762.531 574.008 759.393 577.668 756.327 581.397C752.408 586.238 748.439 590.964 744.218 595.548C743.024 596.823 743.024 596.823 741.854 598.073C740.899 599.163 739.934 600.244 738.964 601.32C730.243 609.876 727.99 616.6 727.177 628.359C727.066 629.984 726.939 631.608 726.798 633.231C726.572 635.682 726.346 638.134 726.122 640.586C725.535 647.488 724.696 654.264 723.4 661.075C723.054 662.822 722.702 680.899 722.499 698.351C719.061 696.592 715.566 695.012 711.645 694.724C707.797 696.306 704.686 698.415 701.675 701.255C698.973 704.545 698.177 705.517 698.005 711.089L585.876 810.691H562.748L535.222 837.125L535.185 837.188L520.626 862.116H377.777L361.072 837.089L361.002 837.035L332.63 815.521L332.43 815.369L332.186 815.43L319.846 818.51L202.107 713.269C201.932 710.572 201.608 707.923 200.965 705.219C198.33 699.842 193.662 697.017 188.219 694.904C184.867 694.704 184.503 694.682 180.367 696.745C177.651 675.457 172.21 630.452 171.478 621.063C171.236 617.264 171.653 613.123 169.027 610.163L167.335 608.493C166.008 607.166 165.525 606.59 163.594 604.285C162.608 603.11 161.62 601.936 160.632 600.763L159.053 598.894C154.244 593.196 149.385 587.539 144.517 581.891L143.173 580.331C138.726 575.156 134.153 570.114 129.512 565.113C128.483 564.01 127.453 562.906 126.425 561.801C125.372 560.614 124.299 559.444 123.208 558.292C121.86 557.209 120.541 556.088 119.251 554.938C114.176 544.551 114.176 544.551 114.13 532.587C114.051 530.551 113.96 528.514 113.858 526.48C113.621 522.012 113.395 517.544 113.197 513.074C112.844 504.829 112.457 496.587 112.046 488.345C111.7 481.398 111.365 474.451 111.035 467.503L110.926 465.216C110.52 456.666 110.132 448.118 109.824 439.564C109.708 436.246 109.588 432.937 109.354 429.626C108.804 422.613 108.692 415.915 110.374 409.031C119.051 377.965 119.085 347.256 118.842 315.252C118.779 307.22 118.755 299.188 118.744 291.155C118.727 276.816 118.681 262.477 118.602 248.139C118.524 234.215 118.458 220.292 118.422 206.368L118.415 203.746C118.404 199.398 118.393 195.049 118.383 190.701C118.304 157.915 118.52 96.155 118.428 57.2722C124.919 54.2515 131.416 51.2414 137.919 48.2448C137.853 51.0536 137.946 53.744 138.249 56.5397C139.341 64.6675 140.32 72.8056 141.242 80.9543C141.631 84.4083 142.021 87.8624 142.412 91.3162C142.496 92.0639 142.578 92.7903 142.66 93.516C146.082 123.801 149.628 154.071 153.318 184.324C153.662 187.144 154.005 189.964 154.348 192.784C154.571 194.619 154.794 196.454 155.018 198.288C155.129 199.207 155.238 200.1 155.347 200.992C155.871 205.304 156.393 209.618 156.946 213.927C157.156 215.555 157.367 217.183 157.577 218.81C157.68 219.61 157.78 220.387 157.88 221.163C158.405 225.237 158.894 229.304 159.221 233.4C160.197 248.058 163.27 255.768 174.445 265.613C175.817 266.817 177.172 268.042 178.509 269.284C182.436 272.982 186.411 276.613 190.458 280.18C192.559 277.032 192.558 277.031 193.611 274.9C202.077 256.396 211.708 239.752 223.724 223.33C224.203 222.677 224.668 222.043 225.133 221.409C235.03 207.761 247.68 195.82 260.741 185.202L264.012 182.578C294.677 157.332 330.943 141.676 369.624 133.453C370.591 133.255 371.531 133.062 372.47 132.869C373.464 132.643 374.43 132.423 375.395 132.203C379.158 131.763 379.159 131.763 382.751 130.104C384.298 127.583 385.208 125.104 386.16 122.304C386.495 121.218 386.821 120.164 387.146 119.11C387.82 117.093 388.491 115.075 389.16 113.056C394.329 96.9074 394.329 96.9066 399.563 80.7786L501.489 79.7292C501.489 82.8776 501.489 82.878 502.127 85.0893C502.435 85.9655 502.733 86.8164 503.032 87.6667L504.052 90.5956C504.43 91.6665 504.799 92.7057 505.167 93.7452C506.332 97.078 507.499 100.411 508.672 103.741C509.489 106.06 510.305 108.38 511.118 110.701C513.506 117.52 515.9 124.339 518.301 131.154C558.831 136.756 599.803 153.517 631.843 179.02L634.938 181.529C646.454 190.514 656.653 200.532 666.318 211.467L668.563 214.062C683.298 231.06 695.45 250.043 704.29 270.734C705.745 274.264 706.795 277.434 709.544 280.18C714.526 276.745 719.244 273.086 723.794 269.095C742.508 252.092 742.509 252.091 745.513 204.998C746.26 193.082 747.572 181.271 748.98 169.417C749.783 162.708 750.541 155.995 751.284 149.28C752.701 136.463 754.179 123.654 755.709 110.85C755.907 109.191 756.105 107.531 756.303 105.872C757.168 98.6246 758.03 91.376 758.91 84.1301C759.275 81.1235 759.638 78.1159 759.998 75.1086C760.165 73.7014 760.333 72.294 760.502 70.8869C761.316 64.2646 762.175 57.708 762.181 51.0276C762.148 49.7247 762.115 48.4599 762.083 47.1953Z" fill="black"/>
<path d="M633.887 210.914C637.598 212.287 639.476 214.469 641.829 217.596C643.405 219.481 643.405 219.481 645.905 221.335C650.365 224.934 653.524 229.48 657.004 234.003C657.946 235.181 658.889 236.359 659.832 237.536C671.428 252.239 681.284 268.554 688.987 285.624C689.442 286.613 689.442 286.613 689.906 287.622C691.536 291.466 692.169 294.079 690.629 298.021C688.872 299.956 688.872 299.956 686.689 301.694C684.179 303.756 681.833 305.757 679.53 308.056C676.98 310.603 674.323 312.908 671.551 315.206C670.029 316.546 668.575 317.962 667.151 319.404C663.273 323.231 659.057 326.589 654.837 330.03C647.827 335.988 641.523 341.921 638.812 350.888C638.378 352.276 637.943 353.663 637.507 355.049C637.27 355.818 637.034 356.586 636.79 357.377C634.865 363.531 632.816 369.647 630.729 375.747C629.083 380.557 627.489 385.329 626.232 390.256C623.466 400.359 623.466 400.359 619.569 403.137C615.412 405.273 611.04 406.503 606.527 407.657C603.67 408.432 601.008 409.538 598.292 410.709C597.299 411.128 596.306 411.547 595.283 411.98C587.81 415.215 580.369 418.522 572.941 421.859C572.046 422.261 571.151 422.662 570.229 423.076C562.98 426.344 555.804 429.753 548.642 433.207C536.78 438.91 524.891 444.55 512.953 450.093C511.907 450.579 511.907 450.579 510.839 451.074C509.489 451.702 508.139 452.328 506.789 452.955C503.436 454.515 500.115 456.117 496.825 457.804C494.15 459.117 491.659 460.209 488.879 461.215C482.499 463.529 476.639 466.77 470.687 470.004C469.222 470.798 469.222 470.798 467.728 471.607C465.685 472.743 463.662 473.917 461.661 475.125C460.674 475.708 459.686 476.291 458.669 476.891C457.786 477.431 456.903 477.971 455.993 478.527C451.277 480.276 447.76 479.4 443.217 477.389C440.211 475.883 437.256 474.303 434.304 472.694C432.129 471.535 429.954 470.378 427.778 469.221C426.721 468.656 425.665 468.091 424.577 467.508C408.794 459.099 392.477 451.836 376.142 444.575C368.123 441.004 360.159 437.4 352.343 433.404C342.393 428.332 332.103 424.07 321.805 419.76C320.115 419.05 318.425 418.34 316.736 417.629C315.921 417.286 315.105 416.944 314.266 416.591C312.645 415.909 311.025 415.225 309.405 414.54C304.884 412.631 300.35 410.76 295.798 408.925C293.784 408.099 291.77 407.272 289.756 406.445C288.807 406.071 287.858 405.697 286.881 405.312C285.557 404.763 285.557 404.763 284.206 404.203C283.426 403.888 282.645 403.573 281.84 403.249C277.606 400.525 276.202 395.928 274.737 391.314C274.38 390.209 274.024 389.105 273.656 387.967C273.247 386.684 272.839 385.4 272.418 384.078C270.529 378.207 268.612 372.346 266.669 366.493C266.077 364.698 265.494 362.9 264.918 361.099C264.072 358.457 263.197 355.827 262.317 353.196C262.069 352.401 261.821 351.607 261.566 350.788C259.481 344.699 256.216 341.047 251.402 336.852C250.742 336.269 250.081 335.687 249.401 335.087C248.089 333.94 246.773 332.797 245.455 331.657C236.305 323.648 227.557 315.264 219.039 306.589C215.283 302.783 211.44 299.273 207.27 295.922C218.766 269.262 232.888 246.201 251.665 224.033C252.173 223.428 252.681 222.824 253.204 222.202C256.52 218.342 260.02 215.125 264.012 211.964C264.359 212.806 264.707 213.649 265.066 214.517C273.048 233.811 281.274 252.939 290.281 271.784C290.736 272.761 291.191 273.738 291.66 274.745C292.105 275.675 292.549 276.606 293.007 277.564C293.393 278.384 293.78 279.204 294.179 280.049C296.799 284.356 300.858 286.876 304.992 289.625C314.333 295.837 322.545 302.343 330.645 310.092C332.317 311.668 334.02 313.203 335.74 314.726C336.28 315.206 336.82 315.686 337.377 316.18C338.857 317.489 340.34 318.795 341.823 320.101C343.871 322.159 343.871 322.159 343.871 324.258C344.911 324.604 345.952 324.95 347.023 325.307C348.534 326.841 348.534 326.841 350.176 328.849C352.38 331.544 354.518 333.817 357.216 336.031C365.473 343.005 367.475 348.661 368.462 359.282C368.588 360.966 368.71 362.65 368.827 364.335C369.421 378.457 369.421 378.457 376.739 389.95C377.336 390.437 377.932 390.923 378.547 391.424C379.662 392.608 379.662 392.608 380.8 393.815C381.379 394.389 381.957 394.964 382.553 395.557C383.145 396.151 383.737 396.745 384.347 397.357C385.878 398.878 385.878 398.878 388.004 399.82C388.004 400.513 388.004 401.206 388.004 401.919C389.044 402.266 390.084 402.612 391.156 402.969C391.156 403.661 391.156 404.354 391.156 405.068C391.85 405.068 392.543 405.068 393.258 405.068C393.258 405.76 393.258 406.453 393.258 407.167C394.298 407.513 395.338 407.859 396.41 408.216C396.41 408.909 396.41 409.601 396.41 410.315C397.025 410.584 397.64 410.854 398.274 411.131C400.815 412.525 402.433 414.057 404.422 416.153C406.965 418.858 406.965 418.858 410.07 420.81C410.07 421.503 410.07 422.195 410.07 422.909C410.688 423.185 411.306 423.461 411.943 423.745C414.386 425.069 415.981 426.46 417.934 428.425C418.975 429.465 418.975 429.465 420.037 430.526C420.773 431.273 421.51 432.019 422.269 432.789C423.033 433.554 423.797 434.32 424.584 435.109C427.019 437.553 429.446 440.004 431.874 442.455C433.525 444.115 435.176 445.774 436.828 447.432C440.874 451.496 444.914 455.566 448.949 459.641C452.939 457.793 455.355 455.483 458.406 452.294C459.405 451.303 460.406 450.315 461.411 449.33C462.423 448.329 463.436 447.327 464.448 446.325C464.967 445.816 465.486 445.307 466.02 444.782C468.879 441.99 468.879 441.99 471.016 438.651C471.709 438.651 472.403 438.651 473.117 438.651C473.356 438.067 473.594 437.482 473.84 436.88C476.922 431.457 482.405 427.331 486.974 423.106C487.534 422.579 488.095 422.052 488.672 421.509C492.838 417.661 492.838 417.661 495.184 417.661C495.422 417.055 495.66 416.449 495.906 415.825C497.643 412.85 499.838 411.399 502.539 409.266C503.504 408.148 504.445 407.011 505.363 405.855C506.566 404.426 506.566 404.426 507.793 402.969C508.487 402.969 509.18 402.969 509.895 402.969C510.16 402.339 510.426 401.71 510.7 401.061C512.162 398.479 513.516 397.418 515.924 395.713C526.374 387.491 530.826 380.536 532.426 367.537C532.753 364.406 532.972 361.284 533.136 358.14C533.926 346.025 537.617 340.788 546.672 332.654C548.578 330.773 550.446 328.86 552.32 326.947C553.938 325.35 555.558 323.753 557.18 322.159C559.801 319.557 562.402 316.945 564.958 314.28C573.929 305.029 583.563 296.814 594.655 290.194C602.012 285.773 606.118 281.751 609.719 273.883C610.451 272.427 611.188 270.973 611.927 269.521C619.134 255.123 624.549 240.198 628.904 224.713C629.684 222.458 629.684 222.458 631.785 219.31C632.48 217.163 632.48 217.163 632.967 214.915C633.271 213.595 633.574 212.274 633.887 210.914Z" fill="#25382D"/>
<path d="M390.106 560.391C390.799 560.737 391.493 561.083 392.207 561.44C392.087 562.242 391.967 563.045 391.844 563.871C389.042 580.821 389.042 580.821 394.534 596.257C398.606 600.576 403.211 604.096 407.969 607.617C412.254 611.033 416.088 614.274 419.084 618.895C423.757 625.717 428.923 629.494 437.123 631.28C448.092 633.191 461.277 634.066 471.238 628.314C481.096 621.369 488.872 611.93 496.45 602.66C499.387 599.118 502.622 596.186 506.323 593.443C509.537 590.015 508.97 585.046 508.946 580.605C508.943 579.486 508.94 578.366 508.936 577.213C508.927 576.056 508.919 574.898 508.909 573.706C508.902 571.939 508.902 571.939 508.895 570.137C508.883 567.238 508.865 564.339 508.844 561.44C519.435 566.511 529.769 572.018 540.039 577.707C541.21 578.354 542.382 579.001 543.589 579.667C551.765 584.219 559.753 589.016 567.688 593.974C567.614 594.964 567.541 595.954 567.465 596.975C566.02 616.476 564.584 635.979 563.24 655.488C562.797 661.9 562.334 668.308 561.829 674.715C560.945 686.137 560.21 697.409 560.472 708.867C560.695 727.496 559.12 739.075 545.692 752.883C539.346 759.086 532.645 764.821 525.656 770.286C521.758 766.851 519.511 762.908 517.164 758.353C516.569 757.222 516.569 757.222 515.963 756.069C514.699 753.662 513.446 751.25 512.193 748.838C510.953 746.468 509.712 744.099 508.47 741.731C507.658 740.181 506.848 738.632 506.04 737.081C504.155 733.466 502.253 729.863 500.296 726.286C499.951 725.654 499.606 725.022 499.25 724.371C498.322 722.68 497.388 720.992 496.453 719.304C495.184 716.763 495.184 716.763 495.184 714.664C494.49 715.01 493.797 715.357 493.082 715.714C490.326 715.842 487.595 715.908 484.837 715.929C483.986 715.939 483.136 715.95 482.259 715.961C479.439 715.994 476.619 716.02 473.799 716.046C471.846 716.067 469.894 716.089 467.941 716.112C462.797 716.17 457.653 716.222 452.508 716.272C447.261 716.325 442.014 716.383 436.767 716.441C426.467 716.554 416.167 716.661 405.867 716.763C404.03 720.078 402.196 723.395 400.363 726.713C399.849 727.641 399.334 728.569 398.804 729.525C395.716 735.118 392.734 740.746 389.908 746.476C389.562 747.18 389.215 747.883 388.857 748.608C388.55 749.232 388.243 749.855 387.926 750.498C384.615 757.18 381.044 763.728 377.496 770.286C364.177 764.641 347.97 748.036 342.168 734.966C340.168 727.327 339.97 719.562 339.876 711.708C339.771 703.684 339.141 695.735 338.445 687.742C338.326 686.37 338.207 684.998 338.084 683.584C337.9 681.464 337.715 679.345 337.53 677.226C336.851 669.435 336.247 661.64 335.645 653.843C334.91 644.364 334.164 634.885 333.38 625.409C333.265 624.021 333.265 624.021 333.148 622.606C332.869 619.234 332.59 615.862 332.308 612.491C332.126 610.308 331.946 608.124 331.767 605.94C331.668 604.755 331.569 603.57 331.468 602.349C331.283 599.545 331.222 596.783 331.262 593.974C332.368 593.402 333.475 592.829 334.615 592.24C342.032 588.378 349.397 584.474 356.546 580.134C357.153 579.766 357.759 579.399 358.384 579.02C359.352 578.433 359.352 578.433 360.339 577.834C366.318 574.209 372.328 570.636 378.35 567.081C379.474 566.408 380.597 565.736 381.755 565.043C382.805 564.425 383.856 563.807 384.938 563.17C385.883 562.609 386.828 562.048 387.802 561.47C388.562 561.114 389.322 560.758 390.106 560.391Z" fill="#CEA87B"/>
<path d="M262.961 211.964C265.484 214.484 266.256 216.655 267.583 219.966C268.08 221.193 268.578 222.42 269.091 223.685C269.355 224.34 269.618 224.995 269.89 225.671C274.472 237.036 279.273 248.271 284.436 259.387C284.944 260.481 285.452 261.574 285.975 262.701C287.395 265.736 288.836 268.761 290.281 271.784C290.738 272.764 291.195 273.744 291.665 274.754C292.109 275.684 292.553 276.614 293.011 277.572C293.397 278.391 293.783 279.21 294.181 280.054C296.801 284.358 300.86 286.878 304.992 289.625C314.333 295.837 322.545 302.343 330.644 310.092C332.317 311.668 334.02 313.203 335.74 314.726C336.28 315.206 336.82 315.686 337.377 316.18C338.857 317.489 340.34 318.795 341.823 320.101C343.871 322.159 343.871 322.159 343.871 324.258C344.911 324.604 345.952 324.95 347.023 325.307C348.534 326.84 348.534 326.84 350.176 328.849C352.38 331.544 354.518 333.817 357.216 336.031C365.473 343.005 367.475 348.661 368.462 359.282C368.588 360.966 368.71 362.65 368.827 364.335C369.421 378.457 369.421 378.457 376.739 389.95C377.336 390.437 377.932 390.923 378.547 391.424C379.662 392.608 379.662 392.608 380.8 393.814C381.379 394.389 381.957 394.964 382.553 395.557C383.145 396.151 383.737 396.745 384.347 397.356C385.878 398.878 385.878 398.878 388.004 399.82C388.004 400.513 388.004 401.206 388.004 401.919C389.044 402.266 390.084 402.612 391.156 402.969C391.156 403.661 391.156 404.354 391.156 405.068C391.85 405.068 392.543 405.068 393.258 405.068C393.258 405.76 393.258 406.453 393.258 407.167C394.298 407.513 395.338 407.859 396.41 408.216C396.41 408.909 396.41 409.601 396.41 410.315C397.025 410.584 397.64 410.854 398.274 411.131C400.815 412.525 402.433 414.057 404.422 416.153C406.965 418.858 406.965 418.858 410.07 420.81C410.07 421.503 410.07 422.195 410.07 422.909C410.689 423.188 411.307 423.468 411.944 423.756C414.325 425.036 415.967 426.382 417.917 428.242C418.608 428.898 419.298 429.554 420.01 430.23C423.131 433.254 426.249 436.282 429.348 439.329C430.983 440.927 432.629 442.513 434.286 444.088C436.686 446.371 439.05 448.686 441.409 451.011C442.149 451.702 442.889 452.394 443.651 453.106C448.487 457.979 449.818 461.625 450.029 468.483C450.019 469.374 450.01 470.266 450 471.185C450.013 472.039 450.027 472.893 450.041 473.774C450.061 475.709 450.037 477.645 450 479.581C444.004 477.872 438.784 475.029 433.319 472.103C431.329 471.051 429.338 470 427.347 468.951C426.37 468.435 425.394 467.919 424.388 467.388C408.622 459.098 392.415 451.808 376.142 444.575C368.123 441.004 360.159 437.4 352.343 433.404C342.393 428.332 332.103 424.069 321.805 419.76C320.115 419.05 318.425 418.34 316.735 417.629C315.92 417.286 315.105 416.944 314.266 416.591C312.645 415.909 311.025 415.225 309.405 414.54C304.884 412.631 300.35 410.76 295.798 408.925C293.784 408.099 291.77 407.272 289.756 406.445C288.807 406.071 287.858 405.697 286.881 405.312C285.557 404.763 285.557 404.763 284.206 404.203C283.426 403.888 282.645 403.573 281.84 403.249C277.606 400.525 276.202 395.927 274.737 391.314C274.38 390.209 274.024 389.105 273.656 387.967C273.247 386.684 272.839 385.4 272.418 384.078C270.529 378.207 268.612 372.346 266.669 366.493C266.077 364.698 265.494 362.899 264.918 361.099C264.072 358.457 263.197 355.827 262.317 353.196C262.069 352.401 261.821 351.607 261.566 350.788C259.481 344.699 256.216 341.047 251.402 336.852C250.742 336.269 250.081 335.687 249.401 335.087C248.089 333.94 246.773 332.797 245.455 331.657C236.305 323.648 227.557 315.264 219.039 306.589C215.283 302.783 211.44 299.273 207.27 295.922C220.775 264.603 238.368 235.944 262.961 211.964Z" fill="#455043"/>
<path d="M226.184 472.234C226.18 472.811 226.176 473.388 226.172 473.982C226.143 480.047 226.211 486.105 226.331 492.168C226.364 494.424 226.373 496.679 226.357 498.935C225.836 512.645 225.836 512.645 231.256 524.701C234.527 527.958 238.142 530.502 241.945 533.104C243.831 534.76 245.697 536.439 247.528 538.155C251.223 541.465 254.949 544.738 258.692 547.994C261.185 550.181 263.65 552.398 266.113 554.618C274.242 561.937 282.529 569.063 290.844 576.17C291.403 576.661 291.963 577.152 292.54 577.658C294.427 579.291 294.427 579.291 296.388 580.555C299.392 582.689 301.45 584.43 302.654 587.978C303.137 591.048 303.391 594.074 303.589 597.176C303.813 599.741 304.038 602.307 304.263 604.873C304.378 606.318 304.492 607.764 304.605 609.209C305.016 614.334 305.517 619.45 306.026 624.566C306.216 626.481 306.406 628.396 306.596 630.311C306.692 631.285 306.789 632.26 306.889 633.264C307.391 638.362 307.879 643.46 308.366 648.558C308.568 650.67 308.77 652.782 308.973 654.894C309.124 656.481 309.124 656.481 309.279 658.101C310.219 667.912 311.166 677.723 312.114 687.533C312.216 688.594 312.319 689.655 312.424 690.749C314.23 709.416 316.109 728.075 318.131 746.721C319.579 760.156 320.729 773.609 321.805 787.078C320.621 786.07 319.437 785.062 318.254 784.052C317.595 783.491 316.936 782.929 316.257 782.35C314.359 780.703 312.579 778.985 310.837 777.174C308.476 774.765 306.058 772.519 303.478 770.348C296.567 764.348 290.245 757.715 283.814 751.212C282.108 749.489 280.399 747.769 278.69 746.05C278.185 745.537 277.68 745.024 277.16 744.496C274.334 741.653 271.427 738.966 268.387 736.351C263.7 732.294 259.341 727.954 254.982 723.552C254.151 722.718 253.319 721.884 252.463 721.024C248.943 717.492 245.43 713.953 241.916 710.415C239.334 707.817 236.749 705.223 234.163 702.628C233.382 701.839 232.602 701.051 231.797 700.239C227.503 695.93 223.119 691.834 218.453 687.928C215.839 685.506 214.681 683.781 214.352 680.213C214.347 678.998 214.342 677.782 214.337 676.53C214.329 675.514 214.329 675.514 214.32 674.477C214.305 672.2 214.304 669.925 214.303 667.648C214.295 666.017 214.286 664.386 214.277 662.755C214.254 658.312 214.244 653.87 214.239 649.428C214.235 646.641 214.229 643.855 214.221 641.069C214.195 631.313 214.182 621.558 214.178 611.803C214.174 602.772 214.143 593.742 214.099 584.711C214.062 576.922 214.046 569.133 214.045 561.343C214.045 556.708 214.036 552.074 214.005 547.439C213.882 527.303 214.449 508.427 219.235 488.74C220.135 484.741 220.731 480.703 221.309 476.646C222.044 474.114 223.114 472.234 226.184 472.234Z" fill="#6B1D0F"/>
<path d="M673.816 473.284C675.203 473.63 676.59 473.977 678.02 474.333C678.658 477.284 679.292 480.236 679.924 483.188C680.098 483.99 680.272 484.791 680.452 485.617C681.065 488.498 681.645 491.385 682.223 494.273C682.615 496.192 682.615 496.192 683.015 498.15C685.1 508.788 685.855 519.001 685.866 529.823C685.879 531.509 685.893 533.196 685.909 534.882C685.945 539.4 685.961 543.918 685.971 548.437C685.978 551.266 685.989 554.096 686.001 556.925C686.043 566.814 686.066 576.703 686.075 586.592C686.083 595.788 686.135 604.984 686.206 614.179C686.265 622.106 686.292 630.032 686.294 637.959C686.296 642.681 686.311 647.401 686.36 652.123C686.405 656.553 686.41 660.981 686.383 665.411C686.381 667.033 686.392 668.655 686.419 670.276C686.612 682.51 686.612 682.51 683.572 686.735C681.461 688.592 679.331 690.061 676.969 691.576C675.656 692.795 674.367 694.041 673.115 695.322C672.502 695.938 671.889 696.554 671.257 697.188C670.346 698.111 670.346 698.111 669.416 699.053C668.797 699.677 668.177 700.3 667.538 700.943C666.381 702.107 665.226 703.273 664.071 704.44C662.638 705.885 661.2 707.324 659.76 708.761C656.997 711.522 654.251 714.299 651.508 717.079C649.955 718.645 648.401 720.211 646.846 721.776C645.773 722.858 644.703 723.942 643.633 725.028C642.082 726.603 640.524 728.171 638.964 729.738C638.04 730.672 637.116 731.606 636.164 732.568C633.887 734.604 633.887 734.604 631.785 734.604C631.379 735.531 631.379 735.531 630.966 736.476C629.573 739.002 628.118 740.503 625.985 742.434C625.257 743.103 624.529 743.771 623.779 744.459C622.638 745.49 622.638 745.49 621.474 746.542C615.58 751.872 615.58 751.872 610.232 757.734C607.555 760.915 604.708 763.429 601.554 766.118C597.083 770.067 592.955 774.371 588.769 778.617C586.988 780.421 585.206 782.224 583.42 784.024C582.643 784.813 581.866 785.601 581.065 786.414C579.246 788.128 579.246 788.128 578.195 788.128C578.837 777.363 579.962 766.699 581.21 755.992C583.604 735.332 585.66 714.645 587.587 693.937C587.718 692.529 587.849 691.121 587.981 689.713C589.381 674.688 590.752 659.66 592.099 644.63C592.596 639.088 593.097 633.547 593.6 628.005C594.01 623.47 594.414 618.935 594.811 614.399C594.999 612.269 595.191 610.139 595.384 608.009C595.619 605.415 595.848 602.82 596.071 600.225C597.418 585.589 597.418 585.589 602.228 581.261C602.826 580.714 603.423 580.168 604.039 579.604C604.678 579.043 605.317 578.482 605.975 577.904C606.635 577.309 607.294 576.714 607.973 576.101C612.78 571.798 617.733 567.688 622.767 563.654C627.325 559.935 631.646 555.96 635.988 551.995C641.306 547.139 646.648 542.39 652.275 537.892C657.319 533.828 661.867 529.435 666.362 524.778C668.562 522.609 668.562 522.609 671.715 520.51C672.253 518.403 672.253 518.403 672.266 515.937C672.307 514.992 672.349 514.046 672.392 513.072C672.422 512.05 672.452 511.028 672.482 509.975C672.525 508.929 672.567 507.884 672.61 506.807C672.742 503.46 672.853 500.113 672.963 496.766C673.048 494.5 673.135 492.235 673.223 489.969C673.437 484.408 673.633 478.846 673.816 473.284Z" fill="#4A1C12"/>
<path d="M508.844 561.44C519.435 566.511 529.769 572.018 540.039 577.707C541.21 578.354 542.382 579 543.589 579.667C551.765 584.219 559.753 589.016 567.688 593.974C567.614 594.964 567.541 595.954 567.465 596.975C566.019 616.476 564.584 635.979 563.24 655.488C562.797 661.899 562.334 668.308 561.829 674.715C560.945 686.137 560.21 697.409 560.472 708.867C560.695 727.496 559.12 739.075 545.692 752.883C539.345 759.086 532.645 764.821 525.656 770.286C521.781 766.866 519.537 762.959 517.201 758.426C516.807 757.678 516.413 756.929 516.007 756.158C514.75 753.765 513.504 751.367 512.259 748.969C511.031 746.622 509.8 744.277 508.569 741.931C507.758 740.381 506.949 738.829 506.143 737.275C504.16 733.455 502.139 729.667 500.021 725.92C499.624 725.209 499.227 724.497 498.818 723.764C498.069 722.429 497.309 721.099 496.535 719.778C494.957 716.942 494.101 715.102 494.34 711.827C495.549 708.373 497.067 705.094 498.664 701.808C499.33 700.413 499.995 699.018 500.659 697.622C500.981 696.949 501.303 696.276 501.635 695.582C503.413 691.831 505.073 688.03 506.742 684.229C503.927 683.292 502.267 683.037 499.377 683.004C498.522 682.992 497.667 682.98 496.786 682.967C495.851 682.96 494.916 682.952 493.953 682.944C492.965 682.932 491.977 682.92 490.958 682.908C480.549 682.791 470.138 682.742 459.728 682.697C454.81 682.674 449.894 682.63 444.977 682.568C439.011 682.492 433.047 682.455 427.081 682.442C424.827 682.431 422.573 682.408 420.32 682.371C404.799 682.13 391.975 684.336 377.476 689.983C375.395 690.526 375.395 690.526 372.242 689.477C372.991 688.665 373.74 687.853 374.512 687.017C379.593 681.501 384.657 675.982 389.543 670.291C390.075 669.695 390.608 669.1 391.156 668.487C391.772 667.771 392.387 667.055 393.021 666.317C395.821 663.889 397.099 663.728 400.756 663.62C401.829 663.578 402.901 663.536 404.006 663.493C405.732 663.457 405.732 663.457 407.493 663.42C408.676 663.379 409.86 663.339 411.079 663.297C414.858 663.171 418.637 663.074 422.417 662.977C424.98 662.897 427.542 662.815 430.105 662.731C436.386 662.53 442.667 662.351 448.949 662.19C448.943 661.156 448.937 660.123 448.931 659.058C448.898 649.54 449.276 640.201 450 630.706C444.105 630.706 438.21 630.706 432.137 630.706C432.137 630.359 432.137 630.013 432.137 629.656C433.091 629.816 434.046 629.975 435.029 630.139C455.04 633.159 455.04 633.159 473.511 626.788C482.206 619.844 489.393 611.22 496.433 602.66C499.382 599.126 502.624 596.188 506.325 593.443C509.536 590.013 508.97 585.046 508.946 580.605C508.943 579.486 508.94 578.366 508.936 577.213C508.927 576.056 508.918 574.898 508.909 573.706C508.902 571.939 508.902 571.939 508.895 570.137C508.883 567.238 508.865 564.339 508.844 561.44Z" fill="#A3855E"/>
<path d="M376.445 265.487C386.025 273.098 393.999 282.556 401.98 291.781C404.074 294.176 406.219 296.522 408.363 298.874C412.512 303.46 416.423 308.204 420.315 313.009C422.611 315.78 424.982 318.451 427.408 321.109C431.556 325.657 435.457 330.368 439.34 335.142C441.448 337.722 443.569 340.286 445.731 342.82C446.304 343.496 446.877 344.171 447.467 344.866C448.857 346.54 448.857 346.54 451.051 346.297C452.515 344.668 453.902 342.97 455.254 341.246C459.504 335.937 463.953 330.891 468.561 325.885C470.638 323.62 472.677 321.331 474.693 319.01C477.623 315.643 480.615 312.337 483.625 309.04C487.259 305.061 490.843 301.047 494.383 296.984C499.074 291.633 503.857 286.363 508.679 281.131C509.187 280.58 509.695 280.029 510.218 279.461C511.657 277.901 513.099 276.343 514.541 274.785C517.283 271.747 519.903 268.645 522.504 265.487C523.728 269.157 523.396 271.206 522.885 275.027C522.714 276.332 522.543 277.637 522.366 278.982C522.172 280.409 521.977 281.836 521.781 283.263C521.584 284.746 521.387 286.229 521.19 287.713C519.808 298.074 518.351 308.424 516.788 318.759C515.812 325.349 514.984 331.923 514.33 338.552C513.953 342.357 513.546 346.159 513.139 349.961C512.948 351.826 512.772 353.694 512.613 355.562C511.177 372.274 511.177 372.274 505.219 378.22C503.639 379.49 502.045 380.744 500.437 381.979C499.135 383.393 497.859 384.832 496.628 386.308C493.752 389.658 490.716 392.761 487.565 395.852C485.64 397.809 483.842 399.841 482.049 401.919C479.689 404.655 477.272 407.26 474.693 409.79C471.586 412.846 468.722 416.044 465.876 419.342C461.046 424.828 456.027 430.149 451.051 435.503C445.538 430.949 440.605 426.115 435.749 420.876C435.022 420.099 434.296 419.322 433.548 418.522C431.322 416.14 429.101 413.753 426.883 411.365C424.301 408.587 421.718 405.81 419.133 403.034C418.228 402.061 418.228 402.061 417.304 401.069C412.959 396.418 408.491 391.92 403.958 387.452C401.156 384.613 398.537 381.651 395.958 378.609C394.31 376.652 394.31 376.652 392.178 374.867C389.719 372.099 389.391 370.549 388.923 366.913C388.769 365.779 388.614 364.644 388.455 363.475C388.306 362.244 388.157 361.012 388.004 359.743C387.834 358.458 387.664 357.172 387.489 355.847C386.937 351.617 386.414 347.384 385.902 343.148C385.768 342.047 385.768 342.047 385.632 340.923C384.814 334.186 384.003 327.447 383.206 320.707C382.214 312.382 381.073 304.115 379.608 295.861C378.674 290.563 377.935 285.259 377.299 279.917C377.211 279.191 377.122 278.464 377.032 277.716C376.563 273.619 376.362 269.61 376.445 265.487Z" fill="#F89603"/>
<path d="M415.324 737.752C424.294 737.607 433.263 737.495 442.233 737.426C446.399 737.393 450.563 737.349 454.728 737.277C458.748 737.209 462.767 737.171 466.788 737.155C468.321 737.143 469.855 737.121 471.388 737.087C473.537 737.041 475.683 737.035 477.832 737.038C479.666 737.017 479.666 737.017 481.537 736.995C484.676 737.752 484.676 737.752 487.112 740.772C490.329 746.739 490.329 746.739 491.768 749.69C492.304 750.777 492.839 751.863 493.39 752.982C494.278 754.794 494.278 754.794 495.184 756.643C496.601 759.51 498.025 762.374 499.452 765.236C499.809 765.953 500.165 766.67 500.533 767.409C502.863 772.067 505.315 776.624 507.99 781.097C508.844 782.88 508.844 782.88 508.844 786.028C509.537 786.028 510.231 786.028 510.945 786.028C511.161 786.622 511.376 787.216 511.598 787.828C511.881 788.598 512.164 789.368 512.456 790.161C512.736 790.928 513.017 791.695 513.305 792.485C513.944 794.407 513.944 794.407 515.148 795.474C516.083 804.773 514.097 813.657 512.127 822.695C511.84 824.073 511.555 825.451 511.27 826.829C508.773 838.583 508.773 838.583 506.742 841.651C504.616 842.286 504.616 842.286 502.028 842.431C500.61 842.518 500.61 842.518 499.162 842.606C494.602 842.753 490.055 842.838 485.492 842.82C484.476 842.82 483.46 842.82 482.413 842.82C479.092 842.819 475.772 842.811 472.452 842.803C470.135 842.801 467.818 842.799 465.5 842.798C459.43 842.794 453.36 842.784 447.29 842.772C441.084 842.762 434.878 842.757 428.672 842.752C416.517 842.74 404.362 842.722 392.207 842.7C391.326 837.773 390.447 832.845 389.571 827.916C389.273 826.243 388.975 824.57 388.675 822.897C388.243 820.479 387.813 818.061 387.384 815.643C387.252 814.906 387.119 814.169 386.983 813.41C384.32 798.347 384.32 798.347 388.07 791.604C388.851 790.152 389.627 788.698 390.401 787.242C390.847 786.411 391.292 785.581 391.751 784.725C393.517 781.333 395.185 777.899 396.837 774.451C397.152 773.795 397.466 773.138 397.791 772.461C399.064 769.8 400.335 767.138 401.605 764.475C402.509 762.58 403.419 760.688 404.328 758.795C404.852 757.699 405.376 756.602 405.917 755.472C408.869 749.473 412.131 743.626 415.324 737.752Z" fill="#083F3D"/>
<path d="M382.75 208.815C427.482 208.815 472.214 208.815 518.301 208.815C519.341 221.802 519.341 221.802 520.403 235.052C520.749 237.476 521.096 239.901 521.453 242.398C520.803 242.658 520.153 242.918 519.483 243.186C517.141 244.286 517.141 244.286 516.335 246.367C514.86 249.262 512.956 251.297 510.748 253.68C509.899 254.607 509.05 255.534 508.175 256.489C507.355 257.38 506.536 258.272 505.692 259.19C501.64 263.703 497.741 268.308 493.936 273.03C489.752 278.174 485.344 283.052 480.813 287.888C477.182 291.766 473.679 295.723 470.285 299.812C468.914 301.169 468.914 301.169 466.813 301.169C466.707 301.793 466.601 302.417 466.493 303.059C465.628 305.791 464.587 306.8 462.478 308.712C458.157 312.823 454.613 317.39 451.051 322.159C445.948 318.017 441.572 313.647 437.28 308.671C435.973 307.192 434.617 305.754 433.212 304.367C430.851 301.981 428.784 299.459 426.686 296.84C422.724 291.96 418.616 287.259 414.384 282.611C411.142 279.047 407.974 275.423 404.817 271.784C404.318 271.214 403.82 270.645 403.306 270.058C401.594 268.101 399.888 266.138 398.184 264.175C397.351 263.226 397.351 263.226 396.501 262.258C393.928 259.282 391.612 256.578 390.106 252.893C389.412 252.893 388.719 252.893 388.004 252.893C386.227 251.094 386.227 251.094 384.261 248.761C383.609 247.994 382.958 247.227 382.286 246.436C381.746 245.797 381.205 245.157 380.649 244.497C380.302 244.151 379.955 243.805 379.598 243.448C378.896 235.931 379.847 228.301 380.583 220.819C380.674 219.881 380.765 218.944 380.859 217.978C380.997 216.655 380.997 216.655 381.137 215.305C381.22 214.51 381.302 213.715 381.387 212.896C381.699 210.914 381.699 210.914 382.75 208.815Z" fill="#25382D"/>
<path d="M746.32 273.883C746.591 289.163 746.794 304.444 746.919 319.726C746.979 326.823 747.06 333.919 747.192 341.015C747.32 347.867 747.387 354.718 747.417 361.572C747.438 364.182 747.48 366.792 747.542 369.402C748.037 390.922 748.037 390.922 743.744 396.473C741.074 399.217 738.198 401.25 734.762 402.969C734.068 402.969 733.375 402.969 732.66 402.969C732.66 403.661 732.66 404.354 732.66 405.068C731.375 406.326 731.375 406.326 729.442 407.888C724.834 411.785 720.613 415.999 716.373 420.285C711.583 425.118 706.791 429.863 701.576 434.244C699.938 435.592 699.938 435.592 697.984 437.602C694.818 437.194 693.364 436.274 690.629 434.453C690.629 433.76 690.629 433.068 690.629 432.354C689.524 431.965 689.524 431.965 688.396 431.567C684.96 430.075 682.074 428.29 679.07 426.057C679.07 425.365 679.07 424.672 679.07 423.958C678.465 423.678 677.859 423.398 677.236 423.11C674.786 421.816 672.771 420.361 670.598 418.645C669.779 418 668.959 417.355 668.115 416.69C664.229 413.563 660.389 410.381 656.561 407.183C654.002 405.185 651.418 403.52 648.598 401.919C649.246 399.007 650.129 396.491 651.442 393.814C651.797 393.082 652.151 392.35 652.516 391.595C653.08 390.439 653.08 390.439 653.655 389.26C656.537 383.258 659.115 377.294 661.293 370.997C663.061 366.122 665.294 361.475 667.512 356.792C667.963 355.762 668.414 354.733 668.879 353.672C672.189 346.455 676.201 341.135 681.705 335.425C684.095 332.896 686.175 330.314 688.265 327.537C691.804 323.046 695.706 319.152 699.889 315.272C700.461 314.741 701.033 314.21 701.622 313.663C705.258 310.353 709.018 307.255 712.868 304.195C719.805 298.565 725.97 292.269 732.2 285.886C734.429 283.605 736.664 281.331 738.903 279.061C739.408 278.539 739.912 278.018 740.432 277.481C743.982 273.883 743.982 273.883 746.32 273.883Z" fill="#25382D"/>
<path d="M413.223 101.768C437.842 101.768 462.462 101.768 487.828 101.768C490.385 109.279 492.943 116.79 495.578 124.529C501.768 142.719 501.768 142.719 508.023 160.888C508.268 161.596 508.514 162.305 508.766 163.035C509.868 166.211 510.972 169.387 512.08 172.562C512.461 173.659 512.843 174.757 513.236 175.888C513.558 176.81 513.88 177.733 514.212 178.684C515.32 182.051 516.275 185.467 517.25 188.875C473.559 188.875 429.867 188.875 384.852 188.875C385.715 183.699 386.92 179.019 388.55 174.072C388.818 173.247 389.085 172.423 389.361 171.574C390.239 168.878 391.124 166.184 392.01 163.491C392.621 161.622 393.233 159.753 393.844 157.884C398.023 145.138 402.3 132.427 406.655 119.741C406.928 118.945 407.201 118.149 407.483 117.329C411.967 104.276 411.967 104.276 413.223 101.768Z" fill="#455043"/>
<path d="M154.731 273.883C155.901 274.877 157.069 275.872 158.238 276.867C158.889 277.421 159.54 277.975 160.211 278.546C162.697 280.712 165.02 283.011 167.336 285.357C168.27 286.298 169.204 287.239 170.166 288.209C172.087 290.154 174.008 292.1 175.929 294.046C181.297 299.455 186.759 304.624 192.559 309.565C195.238 311.965 197.905 314.378 200.571 316.793C202.61 318.605 204.684 320.322 206.81 322.028C210.891 325.493 214.111 329.604 217.424 333.789C219.033 335.795 220.69 337.763 222.399 339.684C227.627 345.625 230.719 350.98 233.301 358.444C234.898 362.897 236.889 367.104 238.919 371.374C241.703 377.24 244.399 383.144 247.068 389.063C247.481 389.976 247.895 390.89 248.321 391.831C248.707 392.687 249.092 393.543 249.49 394.425C249.834 395.188 250.178 395.951 250.532 396.736C251.402 398.771 251.402 398.771 252.453 401.919C236.344 414.032 236.344 414.032 229.664 418.842C218.358 426.984 218.358 426.984 207.656 435.88C205.168 437.602 205.168 437.602 203.017 437.61C200.305 436.212 198.592 434.441 196.499 432.223C193.509 429.128 190.514 426.161 187.239 423.368C183.529 420.193 180.11 416.799 176.69 413.316C174.871 411.536 173.006 409.933 171.018 408.347C170.151 407.611 169.284 406.875 168.391 406.117C168.391 405.425 168.391 404.732 168.391 404.018C167.004 403.326 165.617 402.633 164.188 401.919C164.188 401.227 164.188 400.534 164.188 399.82C163.602 399.582 163.017 399.344 162.414 399.099C159.027 397.179 157.14 395.596 154.731 392.474C153.965 388.648 154.067 384.881 154.134 380.992C154.133 379.835 154.133 378.677 154.132 377.485C154.136 373.662 154.176 369.842 154.218 366.02C154.227 363.368 154.235 360.717 154.24 358.066C154.258 351.803 154.299 345.54 154.352 339.278C154.411 332.146 154.44 325.014 154.466 317.882C154.521 303.215 154.613 288.549 154.731 273.883Z" fill="#455043"/>
<path d="M758.93 405.068C760.33 406.63 761.654 408.261 762.936 409.922C765.247 412.895 767.485 415.716 770.114 418.42C772.335 421.09 772.585 421.801 772.914 425.47C772.761 426.775 772.608 428.079 772.45 429.423C772.339 430.491 772.339 430.491 772.224 431.581C771.979 433.876 771.694 436.164 771.408 438.454C771.232 440.03 771.06 441.605 770.891 443.181C770.641 445.509 770.388 447.837 770.125 450.163C769.354 456.983 768.962 463.77 768.711 470.623C768.455 473.555 768.03 476.133 767.4 478.988C766.115 485.297 765.504 491.613 764.931 498.02C764.817 499.24 764.703 500.46 764.586 501.717C764.228 505.576 763.877 509.435 763.527 513.295C763.284 515.927 763.04 518.559 762.796 521.191C762.202 527.61 761.614 534.03 761.031 540.451C759.991 540.797 758.951 541.143 757.879 541.5C757.554 542.171 757.229 542.842 756.894 543.533C755.507 546.223 754.221 546.475 751.574 547.797C751.282 548.419 750.989 549.041 750.688 549.683C749.155 552.6 747.219 554.288 744.744 556.455C743.91 557.196 743.075 557.938 742.216 558.702C740.016 560.391 740.016 560.391 737.914 560.391C737.643 561.013 737.372 561.635 737.093 562.276C735.71 564.774 734.314 566.173 732.135 567.999C731.176 568.819 731.176 568.819 730.198 569.656C728.457 570.885 728.457 570.885 726.356 570.885C725.315 572.963 725.315 572.963 724.254 575.083C723.561 575.083 722.867 575.083 722.152 575.083C721.871 575.711 721.589 576.339 721.299 576.985C720.067 579.252 718.797 580.706 716.899 582.43C715.493 581.74 714.093 581.038 712.695 580.331C711.696 579.84 711.696 579.84 710.676 579.339C708.26 577.781 706.954 576.432 705.34 574.034C704.937 570.923 704.937 570.923 705.003 567.089C705.015 566.369 705.027 565.648 705.04 564.906C705.327 553.236 706.383 541.588 707.31 529.956C707.495 527.566 707.68 525.176 707.864 522.786C708.587 513.466 709.322 504.147 710.122 494.834C711.307 481.064 711.307 481.064 712.125 467.27C712.189 465.954 712.254 464.639 712.32 463.283C712.442 460.646 712.548 458.009 712.64 455.371C713.149 445.767 713.149 445.767 716.045 441.795C717.02 441.104 717.995 440.413 719 439.701C720.057 438.736 721.101 437.757 722.132 436.765C723.254 435.731 724.377 434.698 725.502 433.666C726.103 433.113 726.703 432.561 727.322 431.991C731.654 428.013 736.02 424.073 740.41 420.158C742.554 418.217 744.673 416.259 746.78 414.279C747.401 413.699 748.021 413.119 748.66 412.521C749.885 411.373 751.105 410.221 752.321 409.065C756.594 405.068 756.594 405.068 758.93 405.068Z" fill="#083F3D"/>
<path d="M142.121 405.068C147.18 409.328 152.079 413.723 156.898 418.252C158.278 419.543 159.658 420.835 161.039 422.126C161.734 422.777 162.429 423.428 163.145 424.098C166.465 427.205 169.79 430.307 173.119 433.404C173.697 433.944 174.276 434.485 174.872 435.042C175.711 435.822 175.711 435.822 176.567 436.618C177.081 437.102 177.595 437.586 178.125 438.085C179.909 439.723 179.909 439.723 181.85 441.053C184.62 443.087 186.874 444.746 188.016 448.065C188.321 450.484 188.405 452.819 188.409 455.258C188.439 456.151 188.47 457.043 188.501 457.962C188.594 460.861 188.638 463.759 188.684 466.659C188.742 468.675 188.804 470.69 188.87 472.706C188.969 475.72 189.065 478.733 189.148 481.747C189.359 489.425 189.815 497.047 190.457 504.703C191.487 517.448 192.208 530.204 192.877 542.973C192.958 544.479 193.039 545.984 193.121 547.489C193.19 548.815 193.259 550.14 193.33 551.506C193.589 554.877 194.054 558.117 194.66 561.44C195.391 566.663 195.899 571.045 192.969 575.633C190.802 577.952 189.023 579.816 186.254 581.38C183.344 581.069 183.344 581.069 181 580.331C181 579.638 181 578.945 181 578.232C180.383 577.954 179.766 577.676 179.131 577.39C176.718 576.091 175.053 574.704 173.078 572.816C172.386 572.161 171.695 571.505 170.983 570.83C170.257 570.134 169.532 569.438 168.784 568.721C167.272 567.287 165.759 565.853 164.245 564.42C163.513 563.726 162.781 563.032 162.027 562.317C155.769 556.417 149.307 550.741 142.745 545.181C139.068 541.707 138.521 538.696 137.885 533.854C137.712 532.535 137.538 531.216 137.36 529.857C136.589 523.447 135.906 517.033 135.291 510.606C135.224 509.914 135.157 509.221 135.088 508.508C133.949 496.694 133.131 484.874 132.426 473.026C131.709 461.305 130.645 449.63 129.475 437.946C129.343 436.619 129.212 435.292 129.076 433.924C128.958 432.757 128.839 431.59 128.717 430.388C128.033 421.628 128.033 421.628 129.488 418.843C129.959 418.304 130.43 417.765 130.915 417.21C131.427 416.615 131.939 416.02 132.467 415.407C133.009 414.809 133.55 414.211 134.109 413.595C134.642 412.972 135.176 412.35 135.726 411.709C137.099 410.142 138.554 408.648 140.019 407.167C140.713 407.167 141.406 407.167 142.121 407.167C142.121 406.474 142.121 405.781 142.121 405.068Z" fill="#083F3D"/>
<path d="M637.039 553.044C636.538 565.656 635.721 578.142 634.166 590.669C633.889 592.909 633.622 595.151 633.357 597.393C632.627 603.468 631.829 609.492 630.759 615.517C629.608 622.338 628.978 629.165 628.417 636.057C628.103 639.916 627.77 643.775 627.438 647.633C627.368 648.451 627.298 649.269 627.226 650.111C626.313 660.661 625.271 671.199 624.233 681.737C624.138 682.704 624.042 683.671 623.944 684.667C623.408 690.119 622.869 695.57 622.328 701.021C621.635 701.021 620.941 701.021 620.227 701.021C620.237 701.717 620.248 702.412 620.259 703.129C620.348 713.447 619.419 723.597 618.398 733.857C618.161 736.328 617.962 738.798 617.776 741.274C617.203 747.144 616.779 751.346 612.543 755.659C611.26 756.698 609.968 757.725 608.668 758.742C606.906 760.48 605.156 762.231 603.414 763.99C602.491 764.917 601.567 765.845 600.616 766.801C599.896 767.525 599.896 767.525 599.161 768.264C597.026 770.411 594.888 772.555 592.75 774.698C591.62 775.832 590.491 776.967 589.362 778.103C587.728 779.748 586.09 781.391 584.451 783.032C583.477 784.01 582.504 784.988 581.501 785.995C579.246 788.128 579.246 788.128 578.195 788.128C578.837 777.363 579.962 766.699 581.21 755.992C583.604 735.332 585.66 714.645 587.587 693.937C587.718 692.529 587.849 691.121 587.981 689.713C589.381 674.688 590.752 659.66 592.099 644.63C592.596 639.088 593.097 633.547 593.6 628.005C594.01 623.47 594.414 618.935 594.811 614.399C594.999 612.269 595.191 610.139 595.384 608.009C595.619 605.415 595.848 602.82 596.071 600.225C597.418 585.589 597.418 585.589 602.228 581.261C602.826 580.714 603.423 580.167 604.039 579.604C604.678 579.043 605.317 578.482 605.975 577.904C606.963 577.013 606.963 577.013 607.971 576.103C612.79 571.789 617.748 567.656 622.804 563.621C626.351 560.731 629.715 557.658 633.07 554.549C634.938 553.044 634.938 553.044 637.039 553.044Z" fill="#761E0E"/>
<path d="M262.961 553.044C267.183 554.997 270.203 557.796 273.534 560.981C278.658 565.798 283.895 570.367 289.411 574.739C290.392 575.545 291.372 576.352 292.383 577.182C293.139 577.731 293.896 578.28 294.676 578.845C299.227 582.398 302.321 585.09 303.291 590.929C303.477 593.052 303.616 595.179 303.72 597.307C303.925 599.854 304.13 602.4 304.336 604.947C304.438 606.379 304.539 607.811 304.639 609.243C305.01 614.357 305.508 619.456 306.017 624.558C306.111 625.497 306.205 626.436 306.301 627.403C306.496 629.356 306.691 631.309 306.887 633.262C307.392 638.36 307.879 643.459 308.366 648.558C308.568 650.67 308.77 652.782 308.972 654.894C309.074 655.952 309.175 657.011 309.279 658.101C310.219 667.912 311.166 677.723 312.114 687.533C312.216 688.594 312.319 689.655 312.424 690.749C314.23 709.416 316.109 728.075 318.131 746.721C319.579 760.156 320.729 773.609 321.805 787.078C320.62 786.07 319.437 785.062 318.254 784.052C317.265 783.21 317.265 783.21 316.257 782.35C314.359 780.703 312.579 778.985 310.837 777.174C308.451 774.748 306.017 772.48 303.416 770.286C302.431 769.381 302.431 769.381 301.427 768.457C299.297 766.616 297.234 765.078 294.933 763.485C286.673 757.219 282.318 751.052 280.693 740.672C279.655 732.913 279.153 725.102 278.685 717.292C278.417 713.084 278.065 708.882 277.72 704.679C277.184 698.057 276.688 691.433 276.223 684.806C275.499 674.524 274.527 664.272 273.471 654.018C273.125 650.639 272.797 647.259 272.469 643.879C270.963 628.414 269.207 612.979 267.409 597.547C267.026 594.258 266.645 590.969 266.264 587.679C265.992 585.334 265.715 582.99 265.438 580.645C264.364 571.453 263.532 562.283 262.961 553.044Z" fill="#B12911"/>
<path d="M258.758 434.453C265.267 434.89 270.597 436.135 276.621 438.651C276.636 439.521 276.636 439.521 276.651 440.408C277.122 462.685 280.704 488.316 297.349 504.94C302.347 508.971 307.812 512.123 313.398 515.263C314.585 515.942 315.771 516.621 316.994 517.321C318.809 518.359 320.625 519.397 322.452 520.414C325.793 522.281 329.025 524.237 332.21 526.36C332.896 526.806 333.582 527.252 334.289 527.711C335.603 528.57 336.903 529.451 338.184 530.357C341.669 532.602 344.188 533.418 348.189 532.666C354.8 530.767 361.123 527.974 367.448 525.299C375.606 521.863 383.648 518.614 392.207 516.312C392.451 520.75 392.6 525.186 392.732 529.628C392.803 530.885 392.873 532.143 392.946 533.438C393.148 542.499 393.148 542.499 390.594 545.484C388.389 546.881 386.219 547.87 383.801 548.846C382.414 549.593 381.034 550.354 379.663 551.13C378.242 551.881 376.819 552.628 375.394 553.372C374.237 553.98 374.237 553.98 373.057 554.6C366.573 557.991 360.045 561.286 353.48 564.515C350.296 566.087 347.152 567.722 344.015 569.385C342.731 570.055 342.731 570.055 341.422 570.738C339.758 571.607 338.1 572.49 336.45 573.386C335.697 573.776 334.944 574.165 334.168 574.567C333.173 575.097 333.173 575.097 332.157 575.637C330.211 576.133 330.211 576.133 328.056 575.35C324.856 573.294 322.187 570.675 319.44 568.065C318.218 566.919 316.995 565.774 315.771 564.63C315.182 564.078 314.593 563.526 313.986 562.958C311.948 561.07 309.859 559.248 307.75 557.439C305.198 555.24 302.805 552.97 300.461 550.552C297.539 547.581 294.451 544.96 291.201 542.353C284.809 537.216 278.856 531.672 272.86 526.089C270.985 524.355 269.084 522.653 267.164 520.97C266.535 520.415 265.907 519.86 265.259 519.289C263.344 517.683 261.401 516.162 259.414 514.648C258.787 514.155 258.16 513.662 257.514 513.154C256.269 512.177 255.008 511.219 253.73 510.286C250.464 507.688 249.359 506.245 248.788 502.079C248.912 500.522 249.089 498.969 249.301 497.422C249.422 496.44 249.543 495.459 249.669 494.447C250.13 491.035 250.658 487.638 251.205 484.238C251.396 483.02 251.587 481.803 251.783 480.548C252.784 474.264 253.882 468.028 255.211 461.805C257.126 452.776 257.917 443.632 258.758 434.453Z" fill="#B12911"/>
<path d="M641.242 434.453C641.344 435.425 641.344 435.425 641.448 436.416C642.825 449.188 644.625 461.593 647.78 474.054C649.641 481.44 651.087 488.768 651.75 496.372C651.88 497.601 652.01 498.829 652.144 500.095C651.636 504.767 649.642 506.535 646.168 509.36C645.596 509.853 645.024 510.346 644.435 510.854C642.69 512.349 640.921 513.81 639.14 515.263C638.161 516.067 637.182 516.87 636.173 517.698C634.292 519.229 632.406 520.754 630.517 522.273C626.162 525.886 622.033 529.729 617.883 533.572C615.541 535.729 613.178 537.844 610.769 539.926C607.302 542.931 603.906 546.008 600.524 549.109C599.995 549.593 599.467 550.077 598.922 550.576C596.074 553.187 593.239 555.811 590.419 558.452C589.845 558.985 589.272 559.518 588.681 560.068C587.575 561.097 586.473 562.131 585.375 563.169C581.584 566.688 581.584 566.688 579.246 566.688C579.246 567.38 579.246 568.073 579.246 568.786C577.629 570.672 577.629 570.672 575.437 572.722C574.376 573.753 574.376 573.753 573.294 574.805C570.84 576.133 570.84 576.133 567.847 575.534C564.267 573.912 560.809 572.139 557.377 570.229C551.704 567.137 545.974 564.27 540.104 561.571C533.304 558.434 526.635 555.09 520.008 551.601C519.152 551.151 518.295 550.701 517.413 550.237C514.096 548.478 510.922 546.732 507.793 544.648C507.435 541.809 507.435 541.809 507.485 538.245C507.495 536.973 507.505 535.702 507.516 534.391C507.542 533.058 507.569 531.724 507.596 530.349C507.61 529.007 507.624 527.665 507.639 526.283C507.676 522.959 507.728 519.636 507.793 516.312C515.595 517.81 522.818 520.667 529.991 524.052C535.073 526.4 540.234 528.429 545.49 530.349C546.634 530.782 546.634 530.782 547.801 531.224C552.009 532.726 555.012 533.616 559.281 532.055C561.029 530.832 562.773 529.602 564.478 528.32C566.866 526.647 569.316 525.291 571.89 523.921C592.882 513.595 592.882 513.595 608.668 497.422C609.361 497.422 610.055 497.422 610.769 497.422C611.159 495.863 611.159 495.863 611.557 494.273C612.387 491.32 613.311 489.284 614.841 486.534C620.913 474.995 622.33 459.977 622.919 447.178C622.987 445.794 622.987 445.794 623.057 444.382C623.167 442.122 623.273 439.862 623.379 437.602C625.566 437.071 627.756 436.548 629.946 436.027C631.165 435.735 632.384 435.443 633.64 435.142C637.039 434.453 637.039 434.453 641.242 434.453Z" fill="#631A0E"/>
<path d="M484.676 499.521C485.369 499.521 486.063 499.521 486.777 499.521C487.839 507.952 488.899 516.383 489.957 524.814C490.448 528.732 490.94 532.649 491.434 536.566C491.912 540.363 492.388 544.16 492.864 547.957C493.13 550.074 493.397 552.19 493.664 554.307C494.968 564.723 496.124 575.142 497.285 585.578C466.424 585.578 435.562 585.578 403.766 585.578C404.44 575.476 405.218 565.563 406.491 555.545C406.65 554.262 406.81 552.979 406.974 551.657C407.476 547.615 407.985 543.573 408.494 539.532C409.002 535.468 409.508 531.404 410.015 527.34C410.328 524.827 410.642 522.315 410.958 519.802C411.762 513.396 412.527 506.989 413.223 500.57C417.347 502.526 419.815 504.962 422.91 508.277C426.066 511.209 428.925 512.371 433.216 512.44C434.449 512.464 434.449 512.464 435.706 512.488C439.476 512.499 443.245 512.498 447.015 512.459C448.99 512.448 450.965 512.461 452.939 512.5C466.438 512.944 466.438 512.944 477.979 506.839C479.551 505.274 481.033 503.67 482.488 501.998C483.21 501.18 483.932 500.363 484.676 499.521Z" fill="#CCA679"/>
<path d="M373.293 155.292C372.67 158.916 371.736 162.01 370.219 165.356C369.814 166.267 369.41 167.178 368.993 168.117C368.154 169.983 367.311 171.847 366.465 173.709C360.118 188.059 357.251 203.053 354.445 218.392C354.173 219.855 354.173 219.855 353.897 221.348C350.784 238.195 348.202 255.082 345.981 272.067C345.804 273.418 345.627 274.769 345.444 276.161C345.178 278.207 344.913 280.253 344.657 282.301C344.4 284.354 344.132 286.405 343.863 288.457C343.712 289.643 343.562 290.829 343.407 292.051C342.82 294.872 342.82 294.872 340.719 296.971C339.742 296.06 338.766 295.148 337.759 294.208C336.447 292.987 335.135 291.765 333.823 290.543C333.183 289.945 332.543 289.347 331.884 288.731C331.244 288.136 330.604 287.541 329.944 286.928C329.295 286.322 328.646 285.716 327.978 285.092C326.697 283.945 325.379 282.838 324.023 281.781C319.023 277.873 316.81 274.103 314.515 268.242C313.804 266.535 313.09 264.83 312.372 263.126C312.018 262.279 311.665 261.432 311.3 260.559C309.784 257.079 308.014 253.755 306.24 250.401C300.411 239.137 296.106 227.184 291.588 215.354C290.444 212.385 289.268 209.433 288.069 206.487C287.471 204.989 286.873 203.491 286.275 201.993C285.517 200.127 285.517 200.127 284.744 198.222C283.977 195.172 283.977 195.172 284.535 192.909C301.136 172.095 347.007 153.02 373.293 155.292Z" fill="#455043"/>
<path d="M526.707 154.242C535.808 154.67 544.271 156.982 552.977 159.49C554.129 159.803 555.282 160.117 556.47 160.441C574.722 165.643 593.743 175.092 608.668 186.776C608.668 187.469 608.668 188.161 608.668 188.875C609.318 189.178 609.968 189.481 610.638 189.793C612.871 190.974 612.871 190.974 614.973 193.073C614.673 197.364 613.385 200.845 611.618 204.739C610.752 206.757 610.073 208.772 609.411 210.865C607.36 217.092 604.89 223.14 602.429 229.214C601.977 230.335 601.525 231.456 601.06 232.611C600.167 234.828 599.271 237.044 598.374 239.259C597.57 241.254 596.774 243.253 595.988 245.255C593.8 250.825 591.407 256.213 588.703 261.551C588.356 262.252 588.01 262.953 587.652 263.675C584.479 269.99 580.789 275.915 576.094 281.229C575.4 281.229 574.707 281.229 573.992 281.229C573.71 281.9 573.429 282.571 573.138 283.263C571.891 285.427 571.891 285.427 568.738 286.477C568.738 287.169 568.738 287.862 568.738 288.576C567.203 290.158 567.203 290.158 565.192 291.855C564.534 292.421 563.875 292.986 563.197 293.569C561.383 294.872 561.383 294.872 559.281 294.872C559.281 295.911 559.281 296.95 559.281 298.021C558.588 298.021 557.894 298.021 557.18 298.021C557.074 297.055 556.969 296.09 556.861 295.095C554.918 277.475 552.921 259.985 549.258 242.623C548.478 238.884 547.77 235.133 547.066 231.379C546.813 230.031 546.559 228.684 546.298 227.296C545.683 223.852 545.142 220.41 544.636 216.949C542.445 202.525 539.932 188.67 534.062 175.232C533.12 172.936 532.179 170.641 531.239 168.345C530.112 165.643 529.014 163.012 527.606 160.445C526.707 158.44 526.707 158.44 526.707 154.242Z" fill="#25382D"/>
<path d="M522.504 265.487C523.729 269.157 523.396 271.206 522.886 275.027C522.714 276.332 522.543 277.637 522.367 278.982C522.172 280.409 521.977 281.836 521.781 283.263C521.584 284.746 521.387 286.229 521.19 287.713C519.808 298.074 518.351 308.424 516.788 318.759C515.812 325.349 514.984 331.923 514.33 338.552C513.953 342.357 513.546 346.159 513.139 349.961C512.948 351.826 512.773 353.694 512.613 355.562C511.177 372.274 511.177 372.274 505.219 378.22C503.639 379.49 502.045 380.744 500.437 381.979C499.135 383.393 497.859 384.832 496.628 386.308C493.752 389.658 490.716 392.761 487.565 395.852C485.64 397.809 483.842 399.841 482.049 401.919C479.689 404.655 477.272 407.26 474.693 409.79C471.517 412.913 468.577 416.181 465.667 419.551C461.908 423.874 458.047 428.106 454.203 432.354C452.816 432.008 451.429 431.662 450 431.305C448.747 417.475 448.586 403.672 448.621 389.798C448.63 385.78 448.615 381.765 448.542 377.747C448.004 346.701 448.004 346.701 456.001 338.258C457.598 336.772 459.227 335.396 460.947 334.056C463.976 331.501 466.355 328.37 468.848 325.307C474.326 318.878 480.053 312.7 485.829 306.54C488.789 303.378 491.66 300.148 494.494 296.873C499.13 291.544 503.892 286.324 508.68 281.131C509.187 280.58 509.695 280.029 510.218 279.461C511.657 277.901 513.099 276.343 514.541 274.785C517.283 271.747 519.903 268.645 522.504 265.487Z" fill="#DB7C07"/>
<path d="M262.961 211.964C265.191 214.19 266.482 216.132 267.3 219.195C267.043 223.395 263.835 226.071 261.167 229.12C248.497 243.757 243.249 262.885 239.253 281.426C239.026 282.472 238.798 283.518 238.564 284.595C236.805 292.882 235.483 301.141 234.59 309.565C235.172 309.823 235.755 310.082 236.355 310.348C239.261 311.917 241.628 313.833 244.178 315.928C247.604 318.805 247.604 318.805 251.402 321.109C251.402 321.802 251.402 322.495 251.402 323.208C252.02 323.487 252.638 323.766 253.274 324.053C255.674 325.344 257.338 326.688 259.283 328.587C259.879 329.152 260.475 329.718 261.089 330.3C263.227 332.989 264.591 335.726 266.071 338.812C267.119 340.958 268.245 343.03 269.422 345.108C274.969 355.021 279.046 364.868 282.31 375.741C282.853 377.54 283.429 379.33 284.009 381.118C285.402 385.459 286.223 388.929 286.078 393.523C286.992 393.678 286.992 393.678 287.925 393.835C288.746 393.992 289.567 394.149 290.413 394.311C291.217 394.457 292.022 394.603 292.851 394.753C296.309 395.873 298.849 397.768 301.84 399.82C303.988 400.951 306.157 402.042 308.342 403.1C314.348 406.044 320.289 409.096 326.205 412.217C327.461 412.88 327.461 412.88 328.743 413.555C331.334 414.923 333.925 416.292 336.516 417.661C339.995 419.5 343.476 421.337 346.958 423.171C347.796 423.613 348.634 424.055 349.498 424.51C354.008 426.881 358.538 429.193 363.114 431.436C373.769 436.712 383.915 442.898 394.08 449.046C398.615 451.772 403.18 454.247 407.969 456.492C407.622 457.185 407.275 457.877 406.918 458.591C406.264 458.291 405.61 457.991 404.936 457.681C401.832 456.256 398.727 454.833 395.622 453.409C394.48 452.885 393.337 452.361 392.16 451.822C385.875 448.944 379.579 446.093 373.263 443.283C366.204 440.142 359.223 436.921 352.343 433.404C342.393 428.332 332.103 424.069 321.805 419.76C320.115 419.05 318.425 418.34 316.735 417.629C315.92 417.286 315.105 416.944 314.266 416.591C312.645 415.909 311.025 415.225 309.405 414.54C304.884 412.631 300.35 410.76 295.798 408.925C293.784 408.099 291.77 407.272 289.756 406.445C288.807 406.071 287.858 405.697 286.881 405.312C285.557 404.763 285.557 404.763 284.206 404.203C283.426 403.888 282.645 403.573 281.84 403.249C277.606 400.525 276.202 395.927 274.737 391.314C274.38 390.209 274.024 389.105 273.656 387.967C273.247 386.684 272.839 385.4 272.418 384.078C270.529 378.207 268.612 372.346 266.669 366.493C266.077 364.698 265.494 362.899 264.918 361.099C264.072 358.457 263.197 355.827 262.317 353.196C262.069 352.401 261.821 351.607 261.566 350.788C259.481 344.699 256.216 341.047 251.402 336.852C250.742 336.269 250.081 335.687 249.401 335.087C248.089 333.94 246.773 332.797 245.455 331.657C236.305 323.648 227.557 315.264 219.039 306.589C215.283 302.783 211.44 299.273 207.27 295.922C220.775 264.603 238.368 235.944 262.961 211.964Z" fill="#89785D"/>
<path d="M598.16 445.997C595.965 481.198 595.965 481.198 585.633 491.338C584.912 491.961 584.192 492.583 583.449 493.224C582.555 494.019 581.661 494.815 580.74 495.635C577.862 498.092 574.919 500.4 571.891 502.669C570.775 503.542 570.775 503.542 569.637 504.432C562.46 509.284 553.932 508.975 545.621 507.917C530.904 504.729 520.32 498.491 512.029 485.894C510.945 483.779 510.945 483.779 510.945 480.63C582.844 445.997 582.844 445.997 598.16 445.997Z" fill="#E54F04"/>
<path d="M301.84 445.997C328.568 454.406 354.138 464.87 379.613 476.539C382.74 477.952 385.895 479.294 389.055 480.63C386.601 489.178 380.799 496.736 373.277 501.595C362.569 507.111 350.595 509.569 338.617 507.917C326.252 503.121 313.907 493.586 307.553 481.877C302.312 469.909 301.659 458.865 301.84 445.997Z" fill="#E75004"/>
<path d="M154.731 273.883C155.901 274.877 157.069 275.872 158.238 276.867C158.889 277.421 159.54 277.975 160.211 278.546C162.697 280.712 165.02 283.011 167.336 285.357C168.27 286.298 169.204 287.239 170.166 288.209C172.087 290.154 174.008 292.1 175.929 294.046C181.297 299.455 186.759 304.624 192.559 309.565C195.238 311.965 197.905 314.378 200.571 316.793C202.61 318.605 204.684 320.322 206.81 322.028C210.944 325.525 214.176 329.727 217.544 333.945C220.656 337.818 223.927 341.54 227.235 345.247C226.888 345.94 226.541 346.633 226.184 347.346C224.279 346.078 222.375 344.81 220.47 343.542C218.747 342.395 218.747 342.395 216.989 341.226C214.93 339.854 212.872 338.48 210.816 337.102C210.014 336.565 209.212 336.027 208.386 335.474C207.683 335.002 206.98 334.53 206.256 334.043C204.78 333.084 203.27 332.175 201.737 331.309C197.796 328.835 194.256 325.95 190.654 323.012C189.53 322.097 189.53 322.097 188.383 321.164C183.814 317.412 179.495 313.549 175.41 309.27C172.553 306.35 169.423 303.788 166.289 301.169C165.942 300.823 165.596 300.477 165.238 300.12C165.212 306.09 165.193 312.06 165.181 318.03C165.175 320.053 165.168 322.076 165.159 324.099C165.11 335.257 165.251 346.322 166.048 357.453C166.351 361.896 166.449 366.311 166.421 370.763C166.419 371.572 166.416 372.382 166.414 373.216C166.347 382.448 165.817 391.657 165.238 400.87C160.973 398.557 157.702 396.336 154.731 392.474C153.967 388.648 154.067 384.882 154.134 380.992C154.133 379.834 154.133 378.677 154.132 377.485C154.135 373.662 154.176 369.842 154.218 366.02C154.227 363.368 154.235 360.717 154.24 358.066C154.258 351.803 154.299 345.54 154.352 339.278C154.411 332.146 154.44 325.014 154.466 317.882C154.521 303.215 154.613 288.549 154.731 273.883Z" fill="#89785D"/>
<path d="M258.758 434.453C265.268 434.89 270.597 436.135 276.621 438.651C276.636 439.521 276.636 439.521 276.651 440.408C277.126 462.859 280.78 488.179 297.431 504.977C301.76 508.524 306.443 511.442 311.297 514.214C308.042 515.135 306.141 515.257 302.891 514.214C302.891 513.521 302.891 512.828 302.891 512.115C302.286 512.005 301.681 511.895 301.058 511.782C293.628 510.373 286.392 508.465 279.117 506.408C277.982 506.094 276.847 505.779 275.677 505.455C270.907 504.116 266.186 502.763 261.557 500.993C257.839 499.571 254.188 498.46 250.352 497.422C250.555 486.25 252.463 475.693 254.681 464.762C256.689 454.696 257.931 444.677 258.758 434.453Z" fill="#731E0F"/>
<path d="M415.324 737.753C424.348 737.728 433.372 737.71 442.397 737.698C446.587 737.693 450.776 737.685 454.966 737.673C459.006 737.662 463.047 737.656 467.087 737.653C468.632 737.651 470.176 737.647 471.721 737.642C473.877 737.634 476.034 737.633 478.19 737.633C479.42 737.631 480.65 737.629 481.917 737.626C484.676 737.753 484.676 737.753 485.726 738.802C486.029 741.047 486.258 743.301 486.449 745.558C486.618 747.407 486.618 747.407 486.79 749.293C486.777 752.445 486.777 752.445 484.676 754.544C484.676 753.852 484.676 753.159 484.676 752.445C480.394 751.266 476.217 751.159 471.8 751.064C470.515 751.031 470.515 751.031 469.205 750.998C467.384 750.952 465.564 750.909 463.743 750.868C461.032 750.807 458.32 750.738 455.609 750.668C443.58 750.371 431.56 750.293 419.527 750.346C419.183 751.195 419.183 751.195 418.833 752.062C414.485 762.779 409.835 773.155 404.294 783.316C397.994 793.864 397.994 793.864 396.41 805.641C396.603 807.353 396.603 807.353 396.8 809.101C397.755 815.54 398.964 821.946 400.221 828.332C401.166 833.196 401.922 837.717 401.664 842.7C398.543 842.7 395.422 842.7 392.207 842.7C391.326 837.773 390.447 832.845 389.571 827.917C389.273 826.243 388.975 824.57 388.675 822.897C388.243 820.479 387.813 818.062 387.384 815.644C387.252 814.906 387.119 814.169 386.983 813.41C384.32 798.347 384.32 798.347 388.07 791.604C388.851 790.152 389.627 788.698 390.401 787.242C390.847 786.411 391.292 785.581 391.751 784.725C393.517 781.333 395.185 777.899 396.837 774.452C397.152 773.795 397.466 773.138 397.791 772.462C399.064 769.8 400.335 767.138 401.605 764.475C402.509 762.58 403.419 760.688 404.328 758.795C404.852 757.699 405.376 756.602 405.917 755.472C408.869 749.473 412.131 743.626 415.324 737.753Z" fill="#8E7D61"/>
<path d="M392.207 516.312C392.451 520.75 392.601 525.186 392.732 529.628C392.838 531.514 392.838 531.514 392.946 533.438C393.148 542.499 393.148 542.499 390.594 545.484C388.389 546.881 386.22 547.87 383.801 548.846C382.414 549.593 381.034 550.354 379.663 551.13C378.242 551.881 376.819 552.628 375.395 553.372C374.623 553.777 373.852 554.183 373.057 554.6C366.573 557.991 360.045 561.286 353.48 564.515C350.296 566.087 347.152 567.722 344.015 569.385C342.732 570.055 342.732 570.055 341.422 570.738C339.758 571.607 338.1 572.49 336.45 573.386C335.697 573.776 334.944 574.165 334.168 574.567C333.504 574.92 332.841 575.273 332.158 575.637C330.211 576.133 330.211 576.133 327.993 575.378C326.008 574.034 326.008 574.034 323.906 570.885C324.6 569.5 325.293 568.115 326.008 566.688C326.701 566.688 327.395 566.688 328.109 566.688C328.532 565.787 328.532 565.787 328.963 564.867C330.254 562.407 331.709 560.26 333.363 558.029C333.905 557.288 334.447 556.547 335.005 555.783C335.504 555.225 336.002 554.668 336.516 554.094C337.209 554.094 337.903 554.094 338.617 554.094C338.942 553.444 339.267 552.795 339.602 552.126C340.325 550.683 341.047 549.24 341.77 547.797C342.463 547.797 343.157 547.797 343.871 547.797C344.112 547.223 344.353 546.65 344.602 546.059C346.372 542.882 348.624 540.493 351.095 537.827C352.003 536.842 352.91 535.857 353.845 534.842C354.715 533.922 355.585 533.002 356.48 532.055C357.089 531.365 357.697 530.675 358.323 529.965C361.194 527.401 363.867 526.306 367.456 524.922C368.098 524.671 368.74 524.421 369.402 524.163C370.751 523.639 372.102 523.121 373.456 522.608C375.531 521.82 377.599 521.017 379.667 520.211C389.758 516.312 389.758 516.312 392.207 516.312Z" fill="#7B1F0F"/>
<path d="M484.676 499.521C485.369 499.521 486.063 499.521 486.777 499.521C487.839 507.952 488.899 516.383 489.957 524.814C490.448 528.732 490.94 532.649 491.434 536.566C493.489 552.892 495.531 569.216 497.285 585.578C490.003 585.578 482.721 585.578 475.219 585.578C475.239 584.033 475.259 582.488 475.28 580.896C475.279 573.541 474.842 566.222 474.379 558.885C474.233 556.583 474.095 554.281 473.957 551.978C473.449 543.297 473.449 543.297 472.522 534.654C471.83 527.522 472.066 520.329 472.066 513.164C457.849 513.164 443.632 513.164 428.984 513.164C428.984 512.818 428.984 512.471 428.984 512.115C430.843 512.158 430.843 512.158 432.739 512.201C437.393 512.293 442.044 512.308 446.698 512.3C448.702 512.308 450.706 512.335 452.709 512.384C466.329 512.932 466.329 512.932 477.998 506.848C479.568 505.283 481.046 503.678 482.497 502.002C483.216 501.183 483.935 500.365 484.676 499.521Z" fill="#826C49"/>
<path d="M413.223 500.57C416.505 502.128 418.662 503.698 421.169 506.342C424.902 510.452 424.902 510.452 429.948 512.407C430.707 512.421 431.465 512.435 432.246 512.449C433.109 512.47 433.971 512.491 434.859 512.512C435.785 512.525 436.711 512.537 437.666 512.549C438.617 512.569 439.569 512.59 440.55 512.611C443.59 512.673 446.631 512.722 449.672 512.771C451.733 512.811 453.794 512.852 455.855 512.893C460.909 512.994 465.962 513.082 471.016 513.164C471.016 513.51 471.016 513.857 471.016 514.214C457.145 514.214 443.275 514.214 428.984 514.214C428.573 522.599 428.161 530.984 427.752 539.37C427.562 543.275 427.371 547.18 427.179 551.085C426.994 554.848 426.81 558.611 426.627 562.374C426.557 563.808 426.487 565.242 426.416 566.676C426.317 568.688 426.219 570.7 426.121 572.713C426.065 573.857 426.009 575.001 425.952 576.18C425.844 578.961 425.832 581.745 425.832 584.529C414.909 585.048 414.909 585.048 403.766 585.578C404.529 570.135 406.563 554.866 408.494 539.532C409.002 535.468 409.508 531.404 410.015 527.34C410.328 524.827 410.642 522.315 410.958 519.803C411.762 513.396 412.527 506.989 413.223 500.57Z" fill="#F0C585"/>
<path d="M411.121 108.065C412.31 111.638 412.019 114.121 411.236 117.777C411.01 118.848 410.784 119.918 410.551 121.022C410.305 122.136 410.06 123.25 409.808 124.398C409.579 125.483 409.35 126.569 409.114 127.687C407.762 133.994 406.196 140.204 404.46 146.414C403.559 149.762 402.887 153.13 402.255 156.538C400.625 164.953 398.56 173.233 396.41 181.529C397.47 181.417 397.47 181.417 398.551 181.303C410.413 180.213 422.259 180.347 434.16 180.377C436.473 180.379 438.786 180.38 441.099 180.381C447.143 180.385 453.187 180.395 459.231 180.407C465.416 180.418 471.601 180.423 477.786 180.428C489.89 180.439 501.994 180.457 514.098 180.479C517.25 186.514 517.25 186.514 517.25 188.875C473.559 188.875 429.867 188.875 384.852 188.875C386.034 181.79 386.034 181.79 387.109 178.493C387.349 177.75 387.589 177.007 387.836 176.242C388.226 175.058 388.226 175.058 388.624 173.85C388.897 173.009 389.171 172.167 389.453 171.3C390.344 168.564 391.242 165.831 392.141 163.097C392.758 161.212 393.375 159.327 393.992 157.441C408.394 113.512 408.394 113.512 411.121 108.065Z" fill="#89785D"/>
<path d="M337.316 464.958C338.697 465.465 340.072 465.989 341.441 466.528C342.168 466.808 342.895 467.089 343.644 467.378C352.506 470.913 361.386 474.734 366.988 482.729C368.118 486.34 368.331 488.211 367.054 491.781C362.896 496.563 358.932 498.228 352.758 498.84C343.657 499.041 336.117 498.409 328.372 493.486C323.228 488.348 319.569 483.442 319.506 475.973C319.491 475.173 319.476 474.374 319.461 473.55C319.828 469.966 321.096 467.721 323.578 465.15C328.119 462.699 332.499 463.594 337.316 464.958Z" fill="#F89002"/>
<path d="M339.668 757.693C347.384 762.246 353.36 767.914 359.062 774.8C360.774 776.828 360.774 776.828 363.836 778.682C363.836 779.375 363.836 780.068 363.836 780.781C364.876 781.128 365.916 781.474 366.988 781.831C370.694 787.355 371.102 793.362 371.848 799.803C372.101 801.861 372.355 803.919 372.612 805.977C372.718 806.882 372.825 807.787 372.934 808.72C373.264 811.012 373.775 813.173 374.344 815.414C374.413 817.074 374.434 818.737 374.409 820.399C374.4 821.238 374.39 822.077 374.381 822.941C374.368 823.574 374.356 824.207 374.344 824.859C367.731 820.613 361.98 815.793 356.48 810.167C355.214 808.874 353.944 807.584 352.671 806.297C352.073 805.687 351.474 805.076 350.857 804.448C348.995 802.608 348.995 802.608 345.973 800.721C345.973 800.029 345.973 799.336 345.973 798.622C345.301 798.319 344.629 798.016 343.937 797.704C341.769 796.523 341.769 796.523 340.719 794.425C339.404 786.396 339.541 778.263 339.602 770.155C339.607 768.951 339.612 767.747 339.617 766.507C339.629 763.569 339.646 760.631 339.668 757.693Z" fill="#0B4543"/>
<path d="M567.688 462.789C571.466 463.003 574.289 463.414 577.604 465.282C580.332 469.858 580.079 474.412 579.246 479.581C577.916 482.765 576.139 485.289 573.992 487.977C573.576 488.56 573.161 489.143 572.732 489.743C569.692 493.789 566.184 496.826 561.383 498.471C553.192 499.59 543.046 498.757 536.033 494.273C533.987 492.094 533.071 491.004 532.88 488.026C533.132 483.401 533.623 480.401 537.149 477.219C545.174 471.33 554.342 468.079 563.686 464.904C566.5 464.124 566.5 464.124 567.688 462.789Z" fill="#F68C02"/>
<path d="M142.121 405.068C147.18 409.328 152.08 413.723 156.898 418.252C158.273 419.539 159.648 420.826 161.023 422.114C161.717 422.764 162.412 423.414 163.127 424.084C167.151 427.844 171.196 431.581 175.241 435.318C177.908 437.786 180.542 440.271 183.102 442.849C181.887 443.722 181.887 443.722 180.647 444.612C179.593 445.372 178.539 446.132 177.454 446.916C176.405 447.671 175.357 448.425 174.277 449.203C171.549 451.139 171.549 451.139 169.441 453.344C164.616 453.102 161.747 450.79 158.014 447.9C157.462 447.475 156.91 447.05 156.342 446.612C151.583 442.922 146.793 439.19 142.585 434.871C141.104 433.288 141.104 433.288 138.969 432.354C138.969 431.661 138.969 430.969 138.969 430.255C138.319 429.931 137.668 429.606 136.999 429.271C135.554 428.55 134.109 427.828 132.664 427.107C132.664 426.414 132.664 425.721 132.664 425.008C131.277 424.315 129.89 423.622 128.461 422.909C129.947 418.432 132.12 415.556 135.291 412.086C136.125 411.159 136.96 410.233 137.819 409.278C140.02 407.167 140.02 407.167 142.121 407.167C142.121 406.474 142.121 405.781 142.121 405.068Z" fill="#16514E"/>
<path d="M561.383 757.693C561.287 759.05 561.287 759.05 561.19 760.435C561.102 761.716 561.014 762.998 560.923 764.318C560.873 765.009 560.822 765.701 560.77 766.414C560.482 770.523 560.291 774.617 560.213 778.736C560.189 779.621 560.164 780.506 560.139 781.417C560.093 783.151 560.067 784.886 560.063 786.62C559.933 790.791 559.769 792.77 557.085 796.097C556.076 796.93 555.067 797.764 554.027 798.622C552.794 799.843 551.573 801.077 550.362 802.32C533.548 819.255 533.548 819.255 526.707 823.81C527.083 815.178 527.997 807.057 530.118 798.676C531.057 794.88 531.73 791.064 532.355 787.205C533.147 784.521 534.288 782.847 536.164 780.781C536.858 780.781 537.551 780.781 538.266 780.781C538.532 780.159 538.799 779.537 539.074 778.896C540.51 776.327 541.962 775.016 544.242 773.173C548.052 769.962 551.3 766.532 554.508 762.727C558.836 757.693 558.836 757.693 561.383 757.693Z" fill="#083D3A"/>
<path d="M758.93 405.068C763.649 410.23 767.803 415.952 771.539 421.859C752.865 436.851 752.865 436.851 743.685 443.148C741.924 444.359 740.178 445.592 738.448 446.846C737.621 447.432 736.795 448.018 735.944 448.621C735.21 449.151 734.476 449.682 733.719 450.228C731.609 451.245 731.609 451.245 729.385 450.921C728.732 450.681 728.079 450.442 727.406 450.195C726.236 449.903 726.236 449.903 725.042 449.605C724.435 449.453 723.828 449.302 723.203 449.146C723.203 448.453 723.203 447.76 723.203 447.047C721.123 446.354 719.042 445.662 716.898 444.948C716.898 441.799 716.898 441.799 718.308 440.114C719.285 439.219 719.285 439.219 720.281 438.307C721.001 437.64 721.722 436.973 722.464 436.286C723.228 435.594 723.992 434.903 724.779 434.191C725.511 433.516 726.242 432.841 726.996 432.145C730.614 428.819 734.277 425.552 737.988 422.331C742.73 418.209 747.284 413.899 751.825 409.559C756.598 405.068 756.598 405.068 758.93 405.068Z" fill="#114C4A"/>
<path d="M746.32 273.883C746.463 276.552 746.567 279.214 746.649 281.885C746.693 282.633 746.737 283.381 746.782 284.152C746.877 288.295 746.596 290.879 743.923 294.147C741.678 296.367 739.473 298.545 737.06 300.579C736.334 301.196 735.608 301.813 734.86 302.448C734.134 303.065 733.408 303.682 732.66 304.318C731.999 304.913 731.338 305.508 730.657 306.121C725.924 310.384 720.939 314.1 715.749 317.789C712.584 320.143 709.633 322.658 706.653 325.242C697.97 332.578 688.226 338.17 678.02 343.148C676.979 343.668 676.979 343.668 675.918 344.198C682.827 329.417 697.369 316.513 709.997 306.487C717.986 300.134 725.086 293.175 732.2 285.886C734.429 283.605 736.664 281.331 738.903 279.061C739.408 278.539 739.912 278.018 740.432 277.481C743.982 273.883 743.982 273.883 746.32 273.883Z" fill="#475245"/>
<path d="M418.477 737.753C427.09 737.728 435.703 737.71 444.316 737.698C448.315 737.693 452.314 737.685 456.313 737.673C460.169 737.662 464.026 737.656 467.882 737.653C469.356 737.651 470.831 737.647 472.305 737.642C474.363 737.634 476.421 737.634 478.48 737.633C479.653 737.631 480.827 737.629 482.036 737.626C484.676 737.753 484.676 737.753 485.727 738.802C486.029 741.047 486.258 743.301 486.449 745.558C486.618 747.407 486.618 747.407 486.79 749.293C486.777 752.445 486.777 752.445 484.676 754.544C484.676 753.852 484.676 753.159 484.676 752.445C480.394 751.266 476.217 751.159 471.8 751.064C470.515 751.031 470.515 751.031 469.205 750.998C467.384 750.952 465.564 750.909 463.744 750.868C461.032 750.807 458.321 750.738 455.609 750.668C445.612 750.422 435.627 750.293 425.626 750.415C423.593 750.43 421.56 750.394 419.527 750.346C418.477 749.297 418.477 749.297 418.374 746.669C418.386 745.61 418.398 744.55 418.411 743.459C418.42 742.397 418.43 741.335 418.44 740.241C418.452 739.42 418.464 738.599 418.477 737.753Z" fill="#4A5E52"/>
<path d="M422.134 600.018C423.23 600.023 424.327 600.028 425.457 600.033C427.319 600.033 427.319 600.033 429.218 600.033C430.563 600.044 431.908 600.055 433.294 600.066C435.354 600.07 435.354 600.07 437.455 600.075C441.107 600.083 444.759 600.104 448.411 600.127C452.137 600.148 455.862 600.158 459.588 600.168C466.9 600.191 474.212 600.227 481.523 600.271C481.166 602.288 481.166 602.288 480.473 604.469C477.78 605.781 477.78 605.781 475.219 606.568C475.219 607.26 475.219 607.953 475.219 608.667C473.261 610.442 473.261 610.442 470.687 612.406C469.426 613.382 469.426 613.382 468.138 614.377C459.915 620.037 444.754 618.411 435.289 617.063C430.515 615.218 427.816 611.601 424.781 607.617C422.411 605.707 419.953 604.071 417.426 602.37C419.527 600.271 419.527 600.271 422.134 600.018Z" fill="#083F3C"/>
<path d="M382.75 208.815C385.177 208.815 387.605 208.815 390.106 208.815C389.759 221.629 389.412 234.443 389.055 247.646C389.748 247.646 390.442 247.646 391.156 247.646C395.203 252.779 399.083 258.409 401.664 264.437C401.317 265.13 400.971 265.823 400.613 266.536C398.856 264.662 397.106 262.781 395.36 260.895C394.608 260.096 394.608 260.096 393.841 259.28C390.106 255.23 390.106 255.23 390.106 252.893C389.412 252.893 388.719 252.893 388.004 252.893C386.227 251.094 386.227 251.094 384.261 248.761C383.609 247.994 382.958 247.227 382.286 246.436C381.746 245.797 381.205 245.157 380.649 244.497C380.302 244.151 379.955 243.805 379.598 243.448C378.896 235.931 379.847 228.301 380.583 220.819C380.674 219.881 380.765 218.944 380.859 217.978C380.997 216.655 380.997 216.655 381.137 215.305C381.22 214.51 381.302 213.715 381.387 212.896C381.699 210.914 381.699 210.914 382.75 208.815Z" fill="#585D4D"/>
<path d="M394.309 801.771C394.655 801.771 395.002 801.771 395.359 801.771C396.264 806.587 397.162 811.403 398.053 816.222C398.357 817.859 398.663 819.496 398.97 821.132C399.414 823.491 399.85 825.852 400.285 828.213C400.423 828.938 400.561 829.663 400.703 830.41C401.459 834.561 401.802 838.483 401.664 842.701C398.543 842.701 395.422 842.701 392.207 842.701C390.126 830.233 388.046 817.765 385.902 804.919C388.979 803.895 391.11 803.783 394.309 803.87C394.309 803.177 394.309 802.485 394.309 801.771Z" fill="#546556"/>
<g style="mix-blend-mode:color-dodge">
<path d="M762.083 47.1953C769.068 50.493 776.046 53.8039 783.007 57.1523C782.956 105.771 782.914 164.94 782.885 188.405C782.88 192.782 782.875 197.16 782.87 201.538C782.869 202.436 782.868 203.309 782.866 204.181C782.849 218.298 782.82 232.415 782.781 246.531C782.741 261.077 782.713 275.623 782.704 290.169C782.698 299.131 782.688 308.092 782.654 317.054C782.63 323.253 782.616 329.452 782.618 335.65C782.621 338.548 782.624 341.447 782.62 344.345C782.527 360.445 782.563 375.729 786.721 391.372C787.138 392.921 787.545 394.474 787.944 396.027C788.161 396.878 788.372 397.705 788.583 398.531C791.995 411.84 792.286 424.823 791.285 438.503C790.693 445.825 790.178 453.15 789.72 460.481C789.591 462.567 789.462 464.653 789.332 466.739C788.81 475.043 788.311 483.348 787.859 491.657C787.538 497.562 787.191 503.465 786.813 509.366C786.571 513.073 786.324 516.778 786.132 520.488C785.946 524.254 785.748 528.017 785.492 531.779C785.39 533.211 785.292 534.644 785.199 536.077C784.762 546.785 782.983 552.483 775.175 560.081C772.59 562.49 772.589 562.49 770.515 564.775C769.969 565.414 769.438 566.034 768.908 566.654C768.358 567.287 767.824 567.901 767.29 568.515C766.748 569.142 766.22 569.752 765.694 570.361C762.531 574.008 759.393 577.668 756.327 581.397C752.408 586.238 748.439 590.964 744.218 595.548C743.024 596.823 743.024 596.823 741.854 598.073C740.899 599.163 739.934 600.244 738.964 601.32C730.243 609.876 727.99 616.6 727.177 628.359C727.066 629.984 726.939 631.608 726.798 633.231C726.572 635.682 726.346 638.134 726.122 640.586C725.535 647.488 724.696 654.264 723.4 661.075C723.054 662.822 722.702 680.899 722.499 698.351C719.061 696.592 715.566 695.012 711.645 694.724C707.797 696.306 704.686 698.415 701.675 701.255C698.973 704.545 698.177 705.517 698.005 711.089L585.876 810.691H562.748L535.222 837.125L535.185 837.188L520.626 862.116H377.777L361.072 837.089L361.002 837.035L332.63 815.521L332.43 815.369L332.186 815.43L319.846 818.51L202.107 713.269C201.932 710.572 201.608 707.923 200.965 705.219C198.33 699.842 193.662 697.017 188.219 694.904C184.867 694.704 184.503 694.682 180.367 696.745C177.651 675.457 172.21 630.452 171.478 621.063C171.236 617.264 171.653 613.123 169.027 610.163L167.335 608.493C166.008 607.166 165.525 606.59 163.594 604.285C162.608 603.11 161.62 601.936 160.632 600.763L159.053 598.894C154.244 593.196 149.385 587.539 144.517 581.891L143.173 580.331C138.726 575.156 134.153 570.114 129.512 565.113C128.483 564.01 127.453 562.906 126.425 561.801C125.372 560.614 124.299 559.444 123.208 558.292C121.86 557.209 120.541 556.088 119.251 554.938C114.176 544.551 114.176 544.551 114.13 532.587C114.051 530.551 113.96 528.514 113.858 526.48C113.621 522.012 113.395 517.544 113.197 513.074C112.844 504.829 112.457 496.587 112.046 488.345C111.7 481.398 111.365 474.451 111.035 467.503L110.926 465.216C110.52 456.666 110.132 448.118 109.824 439.564C109.708 436.246 109.588 432.937 109.354 429.626C108.804 422.613 108.692 415.915 110.374 409.031C119.051 377.965 119.085 347.256 118.842 315.252C118.779 307.22 118.755 299.188 118.744 291.155C118.727 276.816 118.681 262.477 118.602 248.139C118.524 234.215 118.458 220.292 118.422 206.368L118.415 203.746C118.404 199.398 118.393 195.049 118.383 190.701C118.304 157.915 118.52 96.155 118.428 57.2722C124.919 54.2515 131.416 51.2414 137.919 48.2448C137.853 51.0536 137.946 53.744 138.249 56.5397C139.341 64.6675 140.32 72.8056 141.242 80.9543C141.631 84.4083 142.021 87.8624 142.412 91.3162C142.496 92.0639 142.578 92.7903 142.66 93.516C146.082 123.801 149.628 154.071 153.318 184.324C153.662 187.144 154.005 189.964 154.348 192.784C154.571 194.619 154.794 196.454 155.018 198.288C155.129 199.207 155.238 200.1 155.347 200.992C155.871 205.304 156.393 209.618 156.946 213.927C157.156 215.555 157.367 217.183 157.577 218.81C157.68 219.61 157.78 220.387 157.88 221.163C158.405 225.237 158.894 229.304 159.221 233.4C160.197 248.058 163.27 255.768 174.445 265.613C175.817 266.817 177.172 268.042 178.509 269.284C182.436 272.982 186.411 276.613 190.458 280.18C192.559 277.032 192.558 277.031 193.611 274.9C202.077 256.396 211.708 239.752 223.724 223.33C224.203 222.677 224.668 222.043 225.133 221.409C235.03 207.761 247.68 195.82 260.741 185.202L264.012 182.578C294.677 157.332 330.943 141.676 369.624 133.453C370.591 133.255 371.531 133.062 372.47 132.869C373.464 132.643 374.43 132.423 375.395 132.203C379.158 131.763 379.159 131.763 382.751 130.104C384.298 127.583 385.208 125.104 386.16 122.304C386.495 121.218 386.821 120.164 387.146 119.11C387.82 117.093 388.491 115.075 389.16 113.056C394.329 96.9074 394.329 96.9066 399.563 80.7786L501.489 79.7292C501.489 82.8776 501.489 82.878 502.127 85.0893C502.435 85.9655 502.733 86.8164 503.032 87.6667L504.052 90.5956C504.43 91.6665 504.799 92.7057 505.167 93.7452C506.332 97.078 507.499 100.411 508.672 103.741C509.489 106.06 510.305 108.38 511.118 110.701C513.506 117.52 515.9 124.339 518.301 131.154C558.831 136.756 599.803 153.517 631.843 179.02L634.938 181.529C646.454 190.514 656.653 200.532 666.318 211.467L668.563 214.062C683.298 231.06 695.45 250.043 704.29 270.734C705.745 274.264 706.795 277.434 709.544 280.18C714.526 276.745 719.244 273.086 723.794 269.095C742.508 252.092 742.509 252.091 745.513 204.998C746.26 193.082 747.572 181.271 748.98 169.417C749.783 162.708 750.541 155.995 751.284 149.28C752.701 136.463 754.179 123.654 755.709 110.85C755.907 109.191 756.105 107.531 756.303 105.872C757.168 98.6246 758.03 91.376 758.91 84.1301C759.275 81.1235 759.638 78.1159 759.998 75.1086C760.165 73.7014 760.333 72.294 760.502 70.8869C761.316 64.2646 762.175 57.708 762.181 51.0276C762.148 49.7247 762.115 48.4599 762.083 47.1953Z" fill="#494A62"/>
</g>
<path d="M405.815 663.663C406.876 663.647 407.938 663.631 409.031 663.615C412.545 663.569 416.058 663.556 419.572 663.547C422.018 663.531 424.463 663.514 426.908 663.497C432.037 663.467 437.166 663.455 442.296 663.453C448.857 663.448 455.416 663.38 461.976 663.296C467.029 663.241 472.081 663.229 477.134 663.229C479.552 663.223 481.97 663.2 484.387 663.162C503.267 662.889 503.267 662.889 509.196 666.312C511.592 668.668 513.341 670.915 515.148 673.734C516.42 675.195 517.709 676.641 519.023 678.063C520.187 679.416 521.347 680.771 522.504 682.13C523.708 683.529 524.912 684.929 526.116 686.328C527.005 687.367 527.893 688.406 528.809 689.477C525.413 690.613 523.711 690.478 520.45 689.056C506.484 683.353 494.354 682.086 479.364 682.204C477.094 682.199 474.823 682.192 472.553 682.183C467.828 682.172 463.105 682.187 458.38 682.222C452.394 682.264 446.409 682.24 440.423 682.196C435.744 682.169 431.065 682.178 426.386 682.197C424.182 682.201 421.978 682.196 419.774 682.178C404.495 682.084 391.766 684.478 377.486 689.986C375.395 690.526 375.395 690.526 372.242 689.477C372.991 688.665 373.74 687.853 374.512 687.017C379.593 681.501 384.657 675.982 389.543 670.291C390.075 669.695 390.608 669.1 391.156 668.487C391.667 667.77 392.179 667.053 392.705 666.314C396.807 663.184 400.782 663.661 405.815 663.663Z" fill="black"/>
</g>
<defs>
<clipPath id="clip0_26_1800">
<rect width="900" height="900" fill="white"/>
</clipPath>
</defs>
</svg>
