<?xml version="1.0" encoding="UTF-8"?>
<svg width="1024px" height="1024px" viewBox="0 0 1024 1024" version="1.1" xmlns="http://www.w3.org/2000/svg" xmlns:xlink="http://www.w3.org/1999/xlink">
    <title>out</title>
    <defs>
        <linearGradient x1="50%" y1="4.68811702e-14%" x2="50%" y2="100%" id="linearGradient-1">
            <stop stop-color="#BC082B" offset="0%"></stop>
            <stop stop-color="#8A0505" offset="100%"></stop>
        </linearGradient>
        <path d="M739.226656,709.895654 L464.237262,868.661047 C429.421262,888.762062 372.888016,888.762062 338.072016,868.661047 L63.0826227,709.895654 C28.2666227,689.794639 0,640.835827 0,600.633798 L0,283.10301 C0,242.900981 28.2666227,193.942169 63.0826227,173.841155 L338.072016,15.0757608 C372.888016,-5.02525361 429.421262,-5.02525361 464.237262,15.0757608 L739.226656,173.841155 C774.042656,193.942169 802.309278,242.900981 802.309278,283.10301 L802.309278,600.633798 C802.309278,640.835827 774.042656,689.794639 739.226656,709.895654 Z" id="path-2"></path>
        <filter x="-8.1%" y="-6.2%" width="116.2%" height="114.7%" filterUnits="objectBoundingBox" id="filter-3">
            <feOffset dx="0" dy="10" in="SourceAlpha" result="shadowOffsetOuter1"></feOffset>
            <feGaussianBlur stdDeviation="20" in="shadowOffsetOuter1" result="shadowBlurOuter1"></feGaussianBlur>
            <feColorMatrix values="0 0 0 0 0   0 0 0 0 0   0 0 0 0 0  0 0 0 0.5 0" type="matrix" in="shadowBlurOuter1"></feColorMatrix>
        </filter>
    </defs>
    <g id="Page-1" stroke="none" stroke-width="1" fill="none" fill-rule="evenodd">
        <g id="mangabox-logo-new-red">
            <rect id="Rectangle" fill="url(#linearGradient-1)" fill-rule="nonzero" x="0" y="0" width="1024" height="1024"></rect>
            <g id="Group" transform="translate(110.8454, 70.1316)">
                <g id="Path" fill-rule="nonzero">
                    <use fill="black" fill-opacity="1" filter="url(#filter-3)" xlink:href="#path-2"></use>
                    <use fill="#000000" xlink:href="#path-2"></use>
                </g>
                <path d="M84.281534,283.301476 L337.986507,429.777814 C361.197526,443.178491 380.041237,475.817699 380.041237,502.619052 L380.041237,795.571728 C380.041237,822.37308 361.197526,833.252816 337.986507,819.85214 L312.043414,804.874293 C302.961485,799.630779 295.587629,786.859282 295.587629,776.3712 L295.587629,521.819579 C295.587629,511.332553 288.213773,498.56 279.131843,493.316487 L269.81661,487.938903 C260.73468,482.69539 253.360825,486.952907 253.360825,497.439934 L253.360825,751.991555 C253.360825,762.479637 245.986969,766.736099 236.905039,761.492586 L185.363002,731.735357 C176.281072,726.491843 168.907216,713.720346 168.907216,703.232264 L168.907216,448.680643 C168.907216,438.193616 161.533361,425.421064 152.451431,420.177551 L143.136198,414.799967 C134.054268,409.556454 126.680412,413.813971 126.680412,424.300998 L126.680412,678.852619 C126.680412,689.340701 119.306557,693.597163 110.224627,688.353649 L84.281534,673.375802 C61.0705155,659.975126 42.2268041,627.335918 42.2268041,600.534565 L42.2268041,307.581889 C42.2268041,280.780536 61.0705155,269.9008 84.281534,283.301476 Z" id="Path" fill="#FFFFFF" fill-rule="nonzero"></path>
                <path d="M464.322771,429.777814 L718.027744,283.301476 C741.238763,269.9008 760.082474,280.780536 760.082474,307.581889 L760.082474,600.534565 C760.082474,627.335918 741.238763,659.975126 718.027744,673.375802 L464.322771,819.85214 C441.111753,833.252816 422.268041,822.37308 422.268041,795.571728 L422.268041,502.619052 C422.268041,475.817699 441.111753,443.178491 464.322771,429.777814 Z" id="Path" fill="#FFFFFF" fill-rule="nonzero"></path>
                <path d="M506.721649,678.852619 L506.721649,668.097452 C506.721649,657.610425 514.095505,644.837872 523.177435,639.594359 L659.17308,561.077839 C668.25501,555.834326 675.628866,560.091843 675.628866,570.57887 L675.628866,581.334037 C675.628866,591.82212 668.25501,604.593616 659.17308,609.83713 L523.177435,688.353649 C514.095505,693.597163 506.721649,689.340701 506.721649,678.852619 Z" id="Path" fill="#000000" fill-rule="nonzero"></path>
                <path d="M506.721649,532.574746 L506.721649,521.819579 C506.721649,511.332553 514.095505,498.56 523.177435,493.316487 L659.17308,414.799967 C668.25501,409.556454 675.628866,413.813971 675.628866,424.300998 L675.628866,435.056165 C675.628866,445.543192 668.25501,458.315744 659.17308,463.559258 L523.177435,542.075777 C514.095505,547.319291 506.721649,543.062829 506.721649,532.574746 Z" id="Path" fill="#000000" fill-rule="nonzero"></path>
                <path d="M105.394936,246.732008 L359.099909,393.208346 C382.310928,406.609023 419.998351,406.609023 443.209369,393.208346 L696.914342,246.732008 C720.125361,233.331332 720.125361,211.57186 696.914342,198.171184 L443.209369,51.6948454 C419.998351,38.2941691 382.310928,38.2941691 359.099909,51.6948454 L105.394936,198.171184 C82.1839175,211.57186 82.1839175,233.331332 105.394936,246.732008 Z" id="Path" fill="#FFFFFF" fill-rule="nonzero"></path>
                <path d="M232.245311,319.969122 C265.988751,261.690854 329.024924,222.451596 401.154639,222.451596 C473.284355,222.451596 536.320528,261.690854 570.063967,319.969122 L443.209369,393.208346 C419.998351,406.609023 382.310928,406.609023 359.099909,393.208346 L232.245311,319.969122 Z M619.862037,153.685245 L558.051497,221.350532 C550.978507,229.093872 551.909608,240.668239 560.128,247.182779 C560.232511,247.265122 573.729254,260.961386 573.814763,261.072231 C580.20579,269.386689 592.582466,271.574037 601.436371,265.952594 L601.436371,265.952594 L601.436371,265.952594 L601.436371,265.952594 L601.436371,265.952594 L702.428107,201.834359 C700.764371,200.558054 698.926449,199.333476 696.914342,198.171184 L619.862037,153.685245 Z M498.253064,83.4736825 L469.353039,175.633682 C466.214532,185.641435 471.772635,196.029229 481.757163,198.817254 C481.757163,198.817254 498.960363,206.006367 498.960363,206.006367 C507.804767,210.993353 519.571266,207.868569 525.220157,199.03261 L525.220157,199.03261 L525.220157,199.03261 L525.220157,199.03261 L571.907167,125.998186 L498.253064,83.4736825 Z M182.447241,153.685245 L244.257781,221.350532 C251.330771,229.093872 250.39967,240.668239 242.181278,247.182779 C242.076767,247.265122 228.580025,260.961386 228.494515,261.072231 C222.103489,269.386689 209.726812,271.574037 200.872907,265.952594 L200.872907,265.952594 L200.872907,265.952594 L99.8811711,201.834359 C101.544907,200.558054 103.382829,199.333476 105.394936,198.171184 L182.447241,153.685245 Z M304.056214,83.4736825 L332.956239,175.633682 C336.094746,185.641435 330.536643,196.029229 320.552115,198.817254 C320.552115,198.817254 303.348915,206.006367 303.348915,206.006367 C294.504511,210.993353 282.738012,207.868569 277.089122,199.03261 L277.089122,199.03261 L230.402111,125.998186 L304.056214,83.4736825 Z M446.397493,53.5348784 L431.144115,168.018078 C429.759076,178.413262 421.113138,185.687885 411.848577,184.253229 C411.848577,184.253229 393.242392,184.054763 392.484421,184.163497 C382.102961,185.647769 372.550202,178.413262 371.164107,168.018078 L355.911786,53.5348784 L359.099909,51.6948454 C382.310928,38.2941691 419.998351,38.2941691 443.209369,51.6948454 L446.397493,53.5348784 Z" id="Shape" fill="#BC082B"></path>
            </g>
        </g>
    </g>
</svg>