<?xml version="1.0" encoding="UTF-8"?>
<svg width="1660px" height="190px" viewBox="0 0 1660 190" version="1.1" xmlns="http://www.w3.org/2000/svg" xmlns:xlink="http://www.w3.org/1999/xlink">
    <title>Shape</title>
    <g id="Page-1" stroke="none" stroke-width="1" fill="none" fill-rule="evenodd">
        <g id="mangabox-logoname" fill="#FFFFFF">
            <path d="M560,165 L560,55 C560,52.24 557.76,50 555,50 L475,50 C472.24,50 470,52.24 470,55 L470,165 C470,178.798 458.798,190 445,190 L445,190 C431.202,190 420,178.798 420,165 L420,35 C420,15.683 435.683,0 455,0 L575,0 C594.317,0 610,15.683 610,35 L610,165 C610,178.798 598.798,190 585,190 L585,190 C571.202,190 560,178.798 560,165 L560,165 L560,165 L560,165 L560,165 L560,165 L560,165 Z M1310,135 L1310,55 C1310,52.24 1312.24,50 1315,50 L1395,50 C1397.76,50 1400,52.24 1400,55 L1400,135 C1400,137.76 1397.76,140 1395,140 L1315,140 C1312.24,140 1310,137.76 1310,135 L1310,135 L1310,135 L1310,135 L1310,135 L1310,135 L1310,135 L1310,135 Z M700,95 L700,95 C700,81.202 711.202,70 725,70 L795,70 C808.798,70 820,81.202 820,95 L820,155 C820,174.317 804.317,190 785,190 L665,190 C645.683,190 630,174.317 630,155 L630,35 C630,15.683 645.683,0 665,0 L795,0 C808.798,0 820,11.202 820,25 L820,25 C820,38.798 808.798,50 795,50 L685,50 C682.24,50 680,52.24 680,55 L680,135 C680,137.76 682.24,140 685,140 L765,140 C767.76,140 770,137.76 770,135 L770,125 C770,122.24 767.76,120 765,120 L725,120 C711.202,120 700,108.798 700,95 L700,95 L700,95 L700,95 L700,95 L700,95 Z M350,65 L350,55 C350,52.24 347.76,50 345,50 L265,50 C262.24,50 260,52.24 260,55 L260,65 C260,67.76 262.24,70 265,70 L345,70 C347.76,70 350,67.76 350,65 L350,65 L350,65 L350,65 L350,65 L350,65 Z M980,65 L980,55 C980,52.24 977.76,50 975,50 L895,50 C892.24,50 890,52.24 890,55 L890,65 C890,67.76 892.24,70 895,70 L975,70 C977.76,70 980,67.76 980,65 L980,65 L980,65 L980,65 L980,65 Z M1100,125 L1100,135 C1100,137.76 1102.24,140 1105,140 L1185,140 C1187.76,140 1190,137.76 1190,135 L1190,125 C1190,122.24 1187.76,120 1185,120 L1105,120 C1102.24,120 1100,122.24 1100,125 L1100,125 L1100,125 L1100,125 Z M1100,65 L1100,55 C1100,52.24 1102.24,50 1105,50 L1185,50 C1187.76,50 1190,52.24 1190,55 L1190,65 C1190,67.76 1187.76,70 1185,70 L1105,70 C1102.24,70 1100,67.76 1100,65 L1100,65 L1100,65 L1100,65 Z M125,50 L135,50 C137.76,50 140,52.24 140,55 L140,165 C140,178.798 151.202,190 165,190 L165,190 C178.798,190 190,178.798 190,165 L190,35 C190,15.683 174.317,0 155,0 L35,0 C15.683,0 0,15.683 0,35 L0,165 C0,178.798 11.202,190 25,190 L25,190 C38.798,190 50,178.798 50,165 L50,55 C50,52.24 52.24,50 55,50 L65,50 C67.76,50 70,52.24 70,55 L70,165 C70,178.798 81.202,190 95,190 L95,190 C108.798,190 120,178.798 120,165 L120,55 C120,52.24 122.24,50 125,50 L125,50 Z M1260,155 L1260,35 C1260,15.683 1275.683,0 1295,0 L1415,0 C1434.317,0 1450,15.683 1450,35 L1450,155 C1450,174.317 1434.317,190 1415,190 L1295,190 C1275.683,190 1260,174.317 1260,155 L1260,155 L1260,155 L1260,155 L1260,155 L1260,155 L1260,155 L1260,155 Z M350,125 L350,165 C350,178.798 361.202,190 375,190 L375,190 C388.798,190 400,178.798 400,165 L400,35 C400,15.683 384.317,0 365,0 L245,0 C225.683,0 210,15.683 210,35 L210,165 C210,178.798 221.202,190 235,190 L235,190 C248.798,190 260,178.798 260,165 L260,125 C260,122.24 262.24,120 265,120 L345,120 C347.76,120 350,122.24 350,125 L350,125 L350,125 L350,125 L350,125 L350,125 Z M980,125 L980,165 C980,178.798 991.202,190 1005,190 L1005,190 C1018.798,190 1030,178.798 1030,165 L1030,35 C1030,15.683 1014.317,0 995,0 L875,0 C855.683,0 840,15.683 840,35 L840,165 C840,178.798 851.202,190 865,190 L865,190 C878.798,190 890,178.798 890,165 L890,125 C890,122.24 892.24,120 895,120 L975,120 C977.76,120 980,122.24 980,125 L980,125 L980,125 L980,125 L980,125 Z M1085,0 L1205,0 C1224.317,0 1240,15.683 1240,35 L1240,155 C1240,174.317 1224.317,190 1205,190 L1085,190 C1065.683,190 1050,174.317 1050,155 L1050,35 C1050,15.683 1065.683,0 1085,0 L1085,0 L1085,0 L1085,0 Z M1568.536,133.896 L1617.32,182.68 C1622.01,187.36 1628.37,190 1635,190 C1641.63,190 1647.99,187.36 1652.68,182.68 C1657.36,177.99 1660,171.63 1660,165 C1660,158.37 1657.36,152.01 1652.68,147.32 L1603.896,98.536 C1601.944,96.584 1601.944,93.416 1603.896,91.464 L1652.68,42.68 C1657.36,37.99 1660,31.63 1660,25 C1660,18.37 1657.36,12.01 1652.68,7.32 C1647.99,2.64 1641.63,0 1635,0 C1628.37,0 1622.01,2.64 1617.32,7.32 L1568.536,56.104 C1566.584,58.056 1563.416,58.056 1561.464,56.104 L1512.68,7.32 C1507.99,2.64 1501.63,0 1495,0 C1488.37,0 1482.01,2.64 1477.32,7.32 C1472.64,12.01 1470,18.37 1470,25 C1470,31.63 1472.64,37.99 1477.32,42.68 L1526.104,91.464 C1528.056,93.416 1528.056,96.584 1526.104,98.536 L1477.32,147.32 C1472.64,152.01 1470,158.37 1470,165 C1470,171.63 1472.64,177.99 1477.32,182.68 C1482.01,187.36 1488.37,190 1495,190 C1501.63,190 1507.99,187.36 1512.68,182.68 L1561.464,133.896 C1563.416,131.944 1566.584,131.944 1568.536,133.896 Z" id="Shape"></path>
        </g>
    </g>
</svg>