<?xml version="1.0" encoding="UTF-8" standalone="no"?><!-- Generator: Gravit.io --><svg xmlns="http://www.w3.org/2000/svg" xmlns:xlink="http://www.w3.org/1999/xlink" style="isolation:isolate" viewBox="0 0 850 850" width="850pt" height="850pt"><defs><clipPath id="_clipPath_pxOBr6MUUgFqmS7ERIethFHnZKPD0tCl"><rect width="850" height="850"/></clipPath></defs><g clip-path="url(#_clipPath_pxOBr6MUUgFqmS7ERIethFHnZKPD0tCl)"><mask id="_mask_vGve2cHt1CWku15S5HH5or6mC3QrHwTg" x="-200%" y="-200%" width="400%" height="400%"><rect x="-200%" y="-200%" width="400%" height="400%" style="fill:white;"/><path d=" M 105 603.331 L 425 788.083 L 745 603.331 L 745 372.391 L 425 187.639 L 105 372.391 L 105 603.331 Z " fill="black" stroke="none"/></mask><path d=" M 105 603.331 L 425 788.083 L 745 603.331 L 745 372.391 L 425 187.639 L 105 372.391 L 105 603.331 Z " fill="rgb(176,157,108)"/><path d=" M 105 603.331 L 425 788.083 L 745 603.331 L 745 372.391 L 425 187.639 L 105 372.391 L 105 603.331 Z " fill="rgb(176,157,108)" mask="url(#_mask_vGve2cHt1CWku15S5HH5or6mC3QrHwTg)" vector-effect="non-scaling-stroke" stroke-width="20" stroke="rgb(0,0,0)" stroke-linejoin="round" stroke-linecap="round" stroke-miterlimit="3"/><path d=" M 745 372.391 L 425 187.639 L 105 372.391 L 115 378.164 L 425 199.186 L 735 378.164 L 745 372.391 Z " fill="rgb(244,232,199)"/><g><mask id="_mask_JuAhiZOBHkqI5qmTyKau70NiRPDSxqYT" x="-200%" y="-200%" width="400%" height="400%"><rect x="-200%" y="-200%" width="400%" height="400%" style="fill:white;"/><path d=" M 140 542.709 L 185 568.69 L 470 404.145 L 470 75.056 L 460 69.282 L 445 77.942 L 435 72.169 L 435 54.848 L 425 49.075 L 140 213.62 L 140 542.709 Z " fill="black" stroke="none"/></mask><path d=" M 140 542.709 L 185 568.69 L 470 404.145 L 470 75.056 L 460 69.282 L 445 77.942 L 435 72.169 L 435 54.848 L 425 49.075 L 140 213.62 L 140 542.709 Z " fill="rgb(219,65,65)"/><path d=" M 140 542.709 L 185 568.69 L 470 404.145 L 470 75.056 L 460 69.282 L 445 77.942 L 435 72.169 L 435 54.848 L 425 49.075 L 140 213.62 L 140 542.709 Z " fill="rgb(219,65,65)" mask="url(#_mask_JuAhiZOBHkqI5qmTyKau70NiRPDSxqYT)" vector-effect="non-scaling-stroke" stroke-width="20" stroke="rgb(0,0,0)" stroke-linejoin="round" stroke-linecap="round" stroke-miterlimit="3"/><path d=" M 185 239.6 L 470 75.056 L 470 404.145 L 185 568.69 L 185 239.6 Z " fill="rgb(0,0,0)" fill-opacity="0.15"/><path d=" M 160 213.62 L 435 54.848 L 435 72.169 L 430 69.282 L 170 219.393 L 160 213.62 Z " fill="rgb(0,0,0)" fill-opacity="0.15"/><path d=" M 140 213.62 L 185 239.6 L 185 568.69 L 140 542.709 L 140 213.62 Z " fill="rgb(151,151,151)" fill-opacity="0.17"/><path d=" M 445 77.942 L 430 69.282 L 170 219.393 L 185 228.053 L 445 77.942 Z " fill="rgb(232,232,232)"/><path d=" M 185 228.053 L 460 69.282 L 470 75.056 L 185 239.6 L 140 213.62 L 425 49.075 L 435 54.848 L 160 213.62 L 185 228.053 Z " fill="rgb(255,255,255)" fill-opacity="0.59"/></g><g><mask id="_mask_B6z76Xeiv7fTzE6Jo7Cf7XRawBwFAYCR" x="-200%" y="-200%" width="400%" height="400%"><rect x="-200%" y="-200%" width="400%" height="400%" style="fill:white;"/><path d=" M 200 571.577 L 245 597.558 L 530 433.013 L 530 103.923 L 520 98.15 L 505 106.81 L 495 101.036 L 495 83.716 L 485 77.942 L 200 242.487 L 200 571.577 Z " fill="black" stroke="none"/></mask><path d=" M 200 571.577 L 245 597.558 L 530 433.013 L 530 103.923 L 520 98.15 L 505 106.81 L 495 101.036 L 495 83.716 L 485 77.942 L 200 242.487 L 200 571.577 Z " fill="rgb(255,177,61)"/><path d=" M 200 571.577 L 245 597.558 L 530 433.013 L 530 103.923 L 520 98.15 L 505 106.81 L 495 101.036 L 495 83.716 L 485 77.942 L 200 242.487 L 200 571.577 Z " fill="rgb(255,177,61)" mask="url(#_mask_B6z76Xeiv7fTzE6Jo7Cf7XRawBwFAYCR)" vector-effect="non-scaling-stroke" stroke-width="20" stroke="rgb(0,0,0)" stroke-linejoin="round" stroke-linecap="round" stroke-miterlimit="3"/><path d=" M 245 268.468 L 530 103.923 L 530 433.013 L 245 597.558 L 245 268.468 Z " fill="rgb(0,0,0)" fill-opacity="0.15"/><path d=" M 220 242.487 L 495 83.716 L 495 101.036 L 490 98.15 L 230 248.261 L 220 242.487 Z " fill="rgb(0,0,0)" fill-opacity="0.15"/><path d=" M 200 242.487 L 245 268.468 L 245 597.558 L 200 571.577 L 200 242.487 Z " fill="rgb(151,151,151)" fill-opacity="0.17"/><path d=" M 505 106.81 L 490 98.15 L 230 248.261 L 245 256.921 L 505 106.81 Z " fill="rgb(232,232,232)"/><path d=" M 245 256.921 L 520 98.15 L 530 103.923 L 245 268.468 L 200 242.487 L 485 77.942 L 495 83.716 L 220 242.487 L 245 256.921 Z " fill="rgb(255,255,255)" fill-opacity="0.59"/></g><g><mask id="_mask_EFFDsmoYjd1zmhG2ShK0On6FDNKbJi13" x="-200%" y="-200%" width="400%" height="400%"><rect x="-200%" y="-200%" width="400%" height="400%" style="fill:white;"/><path d=" M 260 606.218 L 305 632.199 L 590 467.654 L 590 138.564 L 580 132.791 L 565 141.451 L 555 135.677 L 555 118.357 L 545 112.583 L 260 277.128 L 260 606.218 Z " fill="black" stroke="none"/></mask><path d=" M 260 606.218 L 305 632.199 L 590 467.654 L 590 138.564 L 580 132.791 L 565 141.451 L 555 135.677 L 555 118.357 L 545 112.583 L 260 277.128 L 260 606.218 Z " fill="rgb(53,127,195)"/><path d=" M 260 606.218 L 305 632.199 L 590 467.654 L 590 138.564 L 580 132.791 L 565 141.451 L 555 135.677 L 555 118.357 L 545 112.583 L 260 277.128 L 260 606.218 Z " fill="rgb(53,127,195)" mask="url(#_mask_EFFDsmoYjd1zmhG2ShK0On6FDNKbJi13)" vector-effect="non-scaling-stroke" stroke-width="20" stroke="rgb(0,0,0)" stroke-linejoin="round" stroke-linecap="round" stroke-miterlimit="3"/><path d=" M 305 303.109 L 590 138.564 L 590 467.654 L 305 632.199 L 305 303.109 Z " fill="rgb(0,0,0)" fill-opacity="0.15"/><path d=" M 280 277.128 L 555 118.357 L 555 135.677 L 550 132.791 L 290 282.902 L 280 277.128 Z " fill="rgb(0,0,0)" fill-opacity="0.15"/><path d=" M 260 277.128 L 305 303.109 L 305 632.199 L 260 606.218 L 260 277.128 Z " fill="rgb(151,151,151)" fill-opacity="0.17"/><path d=" M 565 141.451 L 550 132.791 L 290 282.902 L 305 291.562 L 565 141.451 Z " fill="rgb(232,232,232)"/><path d=" M 305 291.562 L 580 132.791 L 590 138.564 L 305 303.109 L 260 277.128 L 545 112.583 L 555 118.357 L 280 277.128 L 305 291.562 Z " fill="rgb(255,255,255)" fill-opacity="0.59"/></g><g><mask id="_mask_4mXzus0FKQf0w9Fxfhzr6kRtzwXLZfgQ" x="-200%" y="-200%" width="400%" height="400%"><rect x="-200%" y="-200%" width="400%" height="400%" style="fill:white;"/><path d=" M 320 640.859 L 365 666.84 L 650 502.295 L 650 173.205 L 640 167.432 L 625 176.092 L 615 170.318 L 615 152.998 L 605 147.224 L 320 311.769 L 320 640.859 Z " fill="black" stroke="none"/></mask><path d=" M 320 640.859 L 365 666.84 L 650 502.295 L 650 173.205 L 640 167.432 L 625 176.092 L 615 170.318 L 615 152.998 L 605 147.224 L 320 311.769 L 320 640.859 Z " fill="rgb(85,202,85)"/><path d=" M 320 640.859 L 365 666.84 L 650 502.295 L 650 173.205 L 640 167.432 L 625 176.092 L 615 170.318 L 615 152.998 L 605 147.224 L 320 311.769 L 320 640.859 Z " fill="rgb(85,202,85)" mask="url(#_mask_4mXzus0FKQf0w9Fxfhzr6kRtzwXLZfgQ)" vector-effect="non-scaling-stroke" stroke-width="20" stroke="rgb(0,0,0)" stroke-linejoin="round" stroke-linecap="round" stroke-miterlimit="3"/><path d=" M 365 337.75 L 650 173.205 L 650 502.295 L 365 666.84 L 365 337.75 Z " fill="rgb(0,0,0)" fill-opacity="0.15"/><path d=" M 340 311.769 L 615 152.998 L 615 170.318 L 610 167.432 L 350 317.543 L 340 311.769 Z " fill="rgb(0,0,0)" fill-opacity="0.15"/><path d=" M 320 311.769 L 365 337.75 L 365 666.84 L 320 640.859 L 320 311.769 Z " fill="rgb(151,151,151)" fill-opacity="0.17"/><path d=" M 625 176.092 L 610 167.432 L 350 317.543 L 365 326.203 L 625 176.092 Z " fill="rgb(232,232,232)"/><path d=" M 365 326.203 L 640 167.432 L 650 173.205 L 365 337.75 L 320 311.769 L 605 147.224 L 615 152.998 L 340 311.769 L 365 326.203 Z " fill="rgb(255,255,255)" fill-opacity="0.59"/></g><g><mask id="_mask_fvJTwakN5WUkvKiKq9YelzmdiWyplb2D" x="-200%" y="-200%" width="400%" height="400%"><rect x="-200%" y="-200%" width="400%" height="400%" style="fill:white;"/><path d=" M 380 675.5 L 425 701.481 L 710 536.936 L 710 207.846 L 700 202.073 L 685 210.733 L 675 204.959 L 675 187.639 L 665 181.865 L 380 346.41 L 380 675.5 Z " fill="black" stroke="none"/></mask><path d=" M 380 675.5 L 425 701.481 L 710 536.936 L 710 207.846 L 700 202.073 L 685 210.733 L 675 204.959 L 675 187.639 L 665 181.865 L 380 346.41 L 380 675.5 Z " fill="rgb(174,116,174)"/><path d=" M 380 675.5 L 425 701.481 L 710 536.936 L 710 207.846 L 700 202.073 L 685 210.733 L 675 204.959 L 675 187.639 L 665 181.865 L 380 346.41 L 380 675.5 Z " fill="rgb(174,116,174)" mask="url(#_mask_fvJTwakN5WUkvKiKq9YelzmdiWyplb2D)" vector-effect="non-scaling-stroke" stroke-width="20" stroke="rgb(0,0,0)" stroke-linejoin="round" stroke-linecap="round" stroke-miterlimit="3"/><path d=" M 425 372.391 L 710 207.846 L 710 536.936 L 425 701.481 L 425 372.391 Z " fill="rgb(0,0,0)" fill-opacity="0.15"/><path d=" M 400 346.41 L 675 187.639 L 675 204.959 L 670 202.073 L 410 352.184 L 400 346.41 Z " fill="rgb(0,0,0)" fill-opacity="0.15"/><path d=" M 380 346.41 L 425 372.391 L 425 701.481 L 380 675.5 L 380 346.41 Z " fill="rgb(151,151,151)" fill-opacity="0.17"/><path d=" M 685 210.733 L 670 202.073 L 410 352.184 L 425 360.844 L 685 210.733 Z " fill="rgb(232,232,232)"/><path d=" M 425 360.844 L 700 202.073 L 710 207.846 L 425 372.391 L 380 346.41 L 665 181.865 L 675 187.639 L 400 346.41 L 425 360.844 Z " fill="rgb(255,255,255)" fill-opacity="0.59"/></g><path d=" M 324.691 597.092 C 323.425 603.1 318.224 605.147 312.01 601.559 L 217.99 547.277 C 210.821 543.138 205 533.056 205 524.777 L 205 508.589 C 205 501.373 209.422 497.894 215.309 499.874 C 215.103 500.787 215 501.803 215 502.906 L 215 519.094 C 215 527.373 220.821 537.455 227.99 541.594 L 322.01 595.876 C 322.93 596.408 323.828 596.816 324.691 597.092 Z " fill-rule="evenodd" fill="rgb(244,232,199)"/><path d=" M 105 372.391 L 105 603.331 L 425 788.083 L 425 557.143 L 105 372.391 Z  M 205 508.634 L 205 524.822 C 205 533.101 210.821 543.183 217.99 547.322 L 312.01 601.605 C 319.179 605.744 325 602.383 325 594.105 L 325 577.917 C 325 569.638 319.179 559.556 312.01 555.417 L 217.99 501.134 C 210.821 496.995 205 500.356 205 508.634 Z " fill-rule="evenodd" fill="rgb(227,212,174)"/><path d=" M 745 372.391 L 745 603.331 L 425 788.083 L 425 557.143 L 745 372.391 Z " fill="rgb(210,186,125)"/><path d=" M 105 372.391 L 425 557.143 L 745 372.391 L 735 366.617 L 425 545.596 L 115 366.617 L 105 372.391 Z " fill="rgb(244,232,199)"/><mask id="_mask_0ZpkrQGbxsjQc1XZ5t4lcvygsDpcpmGu" x="-200%" y="-200%" width="400%" height="400%"><rect x="-200%" y="-200%" width="400%" height="400%" style="fill:white;"/><path d=" M 105 372.391 L 140 352.184 L 140 213.62 L 425 49.075 L 435 54.848 L 435 72.169 L 445 77.942 L 460 69.282 L 470 75.056 L 470 86.603 L 485 77.942 L 495 83.716 L 495 101.036 L 505 106.81 L 520 98.15 L 530 103.923 L 530 121.244 L 545 112.583 L 555 118.357 L 555 135.677 L 565 141.451 L 580 132.791 L 590 138.564 L 590 150.111 L 590 155.885 L 605 147.224 L 615 152.998 L 615 170.318 L 625 176.092 L 640 167.432 L 650 173.205 L 650 190.526 L 665 181.865 L 675 187.639 L 675 204.959 L 685 210.733 L 700 202.073 L 710 207.846 L 710 352.184 L 745 372.391 L 745 603.331 L 425 788.083 L 105 603.331 L 105 372.391 Z " fill="black" stroke="none"/></mask><path d=" M 105 372.391 L 140 352.184 L 140 213.62 L 425 49.075 L 435 54.848 L 435 72.169 L 445 77.942 L 460 69.282 L 470 75.056 L 470 86.603 L 485 77.942 L 495 83.716 L 495 101.036 L 505 106.81 L 520 98.15 L 530 103.923 L 530 121.244 L 545 112.583 L 555 118.357 L 555 135.677 L 565 141.451 L 580 132.791 L 590 138.564 L 590 150.111 L 590 155.885 L 605 147.224 L 615 152.998 L 615 170.318 L 625 176.092 L 640 167.432 L 650 173.205 L 650 190.526 L 665 181.865 L 675 187.639 L 675 204.959 L 685 210.733 L 700 202.073 L 710 207.846 L 710 352.184 L 745 372.391 L 745 603.331 L 425 788.083 L 105 603.331 L 105 372.391 Z " fill="none"/><path d=" M 105 372.391 L 140 352.184 L 140 213.62 L 425 49.075 L 435 54.848 L 435 72.169 L 445 77.942 L 460 69.282 L 470 75.056 L 470 86.603 L 485 77.942 L 495 83.716 L 495 101.036 L 505 106.81 L 520 98.15 L 530 103.923 L 530 121.244 L 545 112.583 L 555 118.357 L 555 135.677 L 565 141.451 L 580 132.791 L 590 138.564 L 590 150.111 L 590 155.885 L 605 147.224 L 615 152.998 L 615 170.318 L 625 176.092 L 640 167.432 L 650 173.205 L 650 190.526 L 665 181.865 L 675 187.639 L 675 204.959 L 685 210.733 L 700 202.073 L 710 207.846 L 710 352.184 L 745 372.391 L 745 603.331 L 425 788.083 L 105 603.331 L 105 372.391 Z " fill="none" mask="url(#_mask_0ZpkrQGbxsjQc1XZ5t4lcvygsDpcpmGu)" vector-effect="non-scaling-stroke" stroke-width="30" stroke="rgb(0,0,0)" stroke-linejoin="round" stroke-linecap="round" stroke-miterlimit="3"/></g></svg>