<?xml version="1.0" encoding="UTF-8" standalone="no"?><!-- Generator: Gravit.io --><svg xmlns="http://www.w3.org/2000/svg" xmlns:xlink="http://www.w3.org/1999/xlink" style="isolation:isolate" viewBox="0 0 850 850" width="850pt" height="850pt"><defs><clipPath id="_clipPath_Gza8X9CDbOxKRCLUwvQkXhL9fk6GMIGs"><rect width="850" height="850"/></clipPath></defs><g clip-path="url(#_clipPath_Gza8X9CDbOxKRCLUwvQkXhL9fk6GMIGs)"><g><mask id="_mask_EI4nFYCpImgTqVQDagoqTESDCFtNqeGj" x="-200%" y="-200%" width="400%" height="400%"><rect x="-200%" y="-200%" width="400%" height="400%" style="fill:white;"/><path d=" M 710 623.538 L 710 571.577 L 425 407.032 L 140 571.577 L 140 583.124 L 155 591.784 L 155 603.331 L 140 611.991 L 140 623.538 L 425 788.083 L 710 623.538 Z " fill="black" stroke="none"/></mask><path d=" M 710 623.538 L 710 571.577 L 425 407.032 L 140 571.577 L 140 583.124 L 155 591.784 L 155 603.331 L 140 611.991 L 140 623.538 L 425 788.083 L 710 623.538 Z " fill="rgb(174,116,174)"/><path d=" M 710 623.538 L 710 571.577 L 425 407.032 L 140 571.577 L 140 583.124 L 155 591.784 L 155 603.331 L 140 611.991 L 140 623.538 L 425 788.083 L 710 623.538 Z " fill="rgb(174,116,174)" mask="url(#_mask_EI4nFYCpImgTqVQDagoqTESDCFtNqeGj)" vector-effect="non-scaling-stroke" stroke-width="20" stroke="rgb(0,0,0)" stroke-linejoin="round" stroke-linecap="round" stroke-miterlimit="3"/><path d=" M 425 736.122 L 140 571.577 L 425 407.032 L 710 571.577 L 425 736.122 Z " fill="rgb(0,0,0)" fill-opacity="0.15"/><path d=" M 415 770.763 L 140 611.991 L 155 603.331 L 155 609.105 L 415 759.216 L 415 770.763 Z " fill="rgb(0,0,0)" fill-opacity="0.15"/><path d=" M 425 788.083 L 425 736.122 L 710 571.577 L 710 623.538 L 425 788.083 Z " fill="rgb(151,151,151)" fill-opacity="0.17"/><path d=" M 155 591.784 L 155 609.105 L 415 759.216 L 415 741.895 L 155 591.784 Z " fill="rgb(232,232,232)"/><path d=" M 415 741.895 L 140 583.124 L 140 571.577 L 425 736.122 L 425 788.083 L 140 623.538 L 140 611.991 L 415 770.763 L 415 741.895 Z " fill="rgb(255,255,255)" fill-opacity="0.59"/></g><g><mask id="_mask_nNTcZutgV5eHjBUn3XQjtMmbPWtto2aj" x="-200%" y="-200%" width="400%" height="400%"><rect x="-200%" y="-200%" width="400%" height="400%" style="fill:white;"/><path d=" M 105 528.389 L 105 476.427 L 390 311.882 L 675 476.427 L 675 487.974 L 660 496.634 L 660 508.181 L 675 516.842 L 675 528.389 L 390 692.934 L 105 528.389 Z " fill="black" stroke="none"/></mask><path d=" M 105 528.389 L 105 476.427 L 390 311.882 L 675 476.427 L 675 487.974 L 660 496.634 L 660 508.181 L 675 516.842 L 675 528.389 L 390 692.934 L 105 528.389 Z " fill="rgb(255,177,61)"/><path d=" M 105 528.389 L 105 476.427 L 390 311.882 L 675 476.427 L 675 487.974 L 660 496.634 L 660 508.181 L 675 516.842 L 675 528.389 L 390 692.934 L 105 528.389 Z " fill="rgb(255,177,61)" mask="url(#_mask_nNTcZutgV5eHjBUn3XQjtMmbPWtto2aj)" vector-effect="non-scaling-stroke" stroke-width="20" stroke="rgb(0,0,0)" stroke-linejoin="round" stroke-linecap="round" stroke-miterlimit="3"/><path d=" M 390 640.972 L 675 476.427 L 390 311.882 L 105 476.427 L 390 640.972 Z " fill="rgb(0,0,0)" fill-opacity="0.15"/><path d=" M 400 675.5 L 675 516.842 L 660 508.181 L 660 513.955 L 400 663.953 L 400 675.5 Z " fill="rgb(0,0,0)" fill-opacity="0.15"/><path d=" M 390 692.934 L 390 640.972 L 105 476.427 L 105 528.389 L 390 692.934 Z " fill="rgb(151,151,151)" fill-opacity="0.17"/><path d=" M 660 496.634 L 660 513.955 L 400 664.066 L 400 646.746 L 660 496.634 Z " fill="rgb(232,232,232)"/><path d=" M 400 646.746 L 675 487.974 L 675 476.427 L 390 640.972 L 390 692.934 L 675 528.389 L 675 516.842 L 400 675.613 L 400 646.746 Z " fill="rgb(255,255,255)" fill-opacity="0.59"/></g><g><mask id="_mask_HtFxOtFeVnlXc4u8I06KkJTfQPENmDYr" x="-200%" y="-200%" width="400%" height="400%"><rect x="-200%" y="-200%" width="400%" height="400%" style="fill:white;"/><path d=" M 745 453.107 L 745 401.145 L 460 236.6 L 175 401.145 L 175 412.692 L 190 421.352 L 190 432.899 L 175 441.56 L 175 453.107 L 460 617.652 L 745 453.107 Z " fill="black" stroke="none"/></mask><path d=" M 745 453.107 L 745 401.145 L 460 236.6 L 175 401.145 L 175 412.692 L 190 421.352 L 190 432.899 L 175 441.56 L 175 453.107 L 460 617.652 L 745 453.107 Z " fill="rgb(53,127,195)"/><path d=" M 745 453.107 L 745 401.145 L 460 236.6 L 175 401.145 L 175 412.692 L 190 421.352 L 190 432.899 L 175 441.56 L 175 453.107 L 460 617.652 L 745 453.107 Z " fill="rgb(53,127,195)" mask="url(#_mask_HtFxOtFeVnlXc4u8I06KkJTfQPENmDYr)" vector-effect="non-scaling-stroke" stroke-width="20" stroke="rgb(0,0,0)" stroke-linejoin="round" stroke-linecap="round" stroke-miterlimit="3"/><path d=" M 460 565.69 L 175 401.145 L 460 236.6 L 745 401.145 L 460 565.69 Z " fill="rgb(0,0,0)" fill-opacity="0.15"/><path d=" M 450 600.444 L 175 441.56 L 190 432.899 L 190 438.673 L 450 588.897 L 450 600.444 Z " fill="rgb(0,0,0)" fill-opacity="0.15"/><path d=" M 460 617.652 L 460 565.69 L 745 401.145 L 745 453.107 L 460 617.652 Z " fill="rgb(151,151,151)" fill-opacity="0.17"/><path d=" M 190 421.352 L 190 438.673 L 450 588.784 L 450 571.464 L 190 421.352 Z " fill="rgb(232,232,232)"/><path d=" M 450 571.464 L 175 412.692 L 175 401.145 L 460 565.69 L 460 617.652 L 175 453.107 L 175 441.56 L 450 600.331 L 450 571.464 Z " fill="rgb(255,255,255)" fill-opacity="0.59"/></g><g><mask id="_mask_gKbzZNwItdeTKJqTvERUe0bx1Byf9Grz" x="-200%" y="-200%" width="400%" height="400%"><rect x="-200%" y="-200%" width="400%" height="400%" style="fill:white;"/><path d=" M 675 332.09 L 675 280.128 L 390 115.583 L 105 280.128 L 105 291.675 L 120 300.335 L 120 311.882 L 105 320.543 L 105 332.09 L 390 496.634 L 675 332.09 Z " fill="black" stroke="none"/></mask><path d=" M 675 332.09 L 675 280.128 L 390 115.583 L 105 280.128 L 105 291.675 L 120 300.335 L 120 311.882 L 105 320.543 L 105 332.09 L 390 496.634 L 675 332.09 Z " fill="rgb(85,202,85)"/><path d=" M 675 332.09 L 675 280.128 L 390 115.583 L 105 280.128 L 105 291.675 L 120 300.335 L 120 311.882 L 105 320.543 L 105 332.09 L 390 496.634 L 675 332.09 Z " fill="rgb(85,202,85)" mask="url(#_mask_gKbzZNwItdeTKJqTvERUe0bx1Byf9Grz)" vector-effect="non-scaling-stroke" stroke-width="20" stroke="rgb(0,0,0)" stroke-linejoin="round" stroke-linecap="round" stroke-miterlimit="3"/><path d=" M 390 444.673 L 105 280.128 L 390 115.583 L 675 280.128 L 390 444.673 Z " fill="rgb(0,0,0)" fill-opacity="0.15"/><path d=" M 380 479.201 L 105 320.543 L 120 311.882 L 120 317.656 L 380 467.654 L 380 479.201 Z " fill="rgb(0,0,0)" fill-opacity="0.15"/><path d=" M 390 496.634 L 390 444.673 L 675 280.128 L 675 332.09 L 390 496.634 Z " fill="rgb(151,151,151)" fill-opacity="0.17"/><path d=" M 120 300.335 L 120 317.656 L 380 467.767 L 380 450.446 L 120 300.335 Z " fill="rgb(232,232,232)"/><path d=" M 380 450.446 L 105 291.675 L 105 280.128 L 390 444.673 L 390 496.634 L 105 332.09 L 105 320.543 L 380 479.314 L 380 450.446 Z " fill="rgb(255,255,255)" fill-opacity="0.59"/></g><g><mask id="_mask_EbJ8n1NIr380VPFWVPsdR4Uj6qD7fIkq" x="-200%" y="-200%" width="400%" height="400%"><rect x="-200%" y="-200%" width="400%" height="400%" style="fill:white;"/><path d=" M 140 265.581 L 140 213.62 L 425 49.075 L 710 213.62 L 710 225.167 L 695 233.827 L 695 245.374 L 710 254.034 L 710 265.581 L 425 430.126 L 140 265.581 Z " fill="black" stroke="none"/></mask><path d=" M 140 265.581 L 140 213.62 L 425 49.075 L 710 213.62 L 710 225.167 L 695 233.827 L 695 245.374 L 710 254.034 L 710 265.581 L 425 430.126 L 140 265.581 Z " fill="rgb(219,65,65)"/><path d=" M 140 265.581 L 140 213.62 L 425 49.075 L 710 213.62 L 710 225.167 L 695 233.827 L 695 245.374 L 710 254.034 L 710 265.581 L 425 430.126 L 140 265.581 Z " fill="rgb(219,65,65)" mask="url(#_mask_EbJ8n1NIr380VPFWVPsdR4Uj6qD7fIkq)" vector-effect="non-scaling-stroke" stroke-width="20" stroke="rgb(0,0,0)" stroke-linejoin="round" stroke-linecap="round" stroke-miterlimit="3"/><path d=" M 425 378.164 L 710 213.62 L 425 49.075 L 140 213.62 L 425 378.164 Z " fill="rgb(0,0,0)" fill-opacity="0.15"/><path d=" M 435 412.805 L 710 254.034 L 695 245.374 L 695 251.147 L 435 401.258 L 435 412.805 Z " fill="rgb(0,0,0)" fill-opacity="0.15"/><path d=" M 425 430.126 L 425 378.164 L 140 213.62 L 140 265.581 L 425 430.126 Z " fill="rgb(151,151,151)" fill-opacity="0.17"/><path d=" M 695 233.827 L 695 251.147 L 435 401.258 L 435 383.938 L 695 233.827 Z " fill="rgb(232,232,232)"/><path d=" M 435 383.938 L 710 225.167 L 710 213.62 L 425 378.164 L 425 430.126 L 710 265.581 L 710 254.034 L 435 412.805 L 435 383.938 Z " fill="rgb(255,255,255)" fill-opacity="0.59"/></g><path d=" M 655 256.921 L 660.26 384.27 L 627.14 377.89 L 590.6 427.12 L 585 297.335 L 655 256.921 Z " fill="rgb(0,0,0)"/><path d=" M 590 294.449 L 595 412.805 L 625 372.391 L 655 378.164 L 650 259.808 L 590 294.449 Z " fill="rgb(255,95,95)"/><path d=" M 280 473.427 L 280 589.59 L 242.86 539.55 L 210 545.88 L 210 433.013" fill="rgb(0,0,0)"/><path d=" M 275 470.54 L 275 574.464 L 245 534.049 L 215 539.822 L 215 435.899" fill="rgb(255,95,95)"/><mask id="_mask_E5Q1YvsRFpmNVWi03nGn2HUoQsZq2d1r" x="-200%" y="-200%" width="400%" height="400%"><rect x="-200%" y="-200%" width="400%" height="400%" style="fill:white;"/><path d=" M 425 788.083 L 140 623.538 L 140 611.991 L 155 603.331 L 155 591.784 L 140 583.124 L 140 571.577 L 160 560.03 L 105 528.275 L 105 476.314 L 190 427.239 L 190 421.466 L 175 412.805 L 175 401.258 L 200 386.825 L 105 331.976 L 105 320.429 L 120 311.769 L 120 300.222 L 105 291.562 L 105 280.015 L 140 259.808 L 140 213.62 L 425 49.075 L 710 213.62 L 710 225.167 L 695 233.827 L 695 245.374 L 710 254.034 L 710 265.581 L 675 285.788 L 675 331.976 L 660 340.637 L 660 352.184 L 745 401.258 L 745 453.22 Q 661.313 501.902 660 502.295 Q 658.688 502.688 660 508.068 L 675 516.728 L 675 528.275 L 655 539.823 L 710 571.577 L 710 623.538 L 425 788.083 Z " fill="black" stroke="none"/></mask><path d=" M 425 788.083 L 140 623.538 L 140 611.991 L 155 603.331 L 155 591.784 L 140 583.124 L 140 571.577 L 160 560.03 L 105 528.275 L 105 476.314 L 190 427.239 L 190 421.466 L 175 412.805 L 175 401.258 L 200 386.825 L 105 331.976 L 105 320.429 L 120 311.769 L 120 300.222 L 105 291.562 L 105 280.015 L 140 259.808 L 140 213.62 L 425 49.075 L 710 213.62 L 710 225.167 L 695 233.827 L 695 245.374 L 710 254.034 L 710 265.581 L 675 285.788 L 675 331.976 L 660 340.637 L 660 352.184 L 745 401.258 L 745 453.22 Q 661.313 501.902 660 502.295 Q 658.688 502.688 660 508.068 L 675 516.728 L 675 528.275 L 655 539.823 L 710 571.577 L 710 623.538 L 425 788.083 Z " fill="none"/><path d=" M 425 788.083 L 140 623.538 L 140 611.991 L 155 603.331 L 155 591.784 L 140 583.124 L 140 571.577 L 160 560.03 L 105 528.275 L 105 476.314 L 190 427.239 L 190 421.466 L 175 412.805 L 175 401.258 L 200 386.825 L 105 331.976 L 105 320.429 L 120 311.769 L 120 300.222 L 105 291.562 L 105 280.015 L 140 259.808 L 140 213.62 L 425 49.075 L 710 213.62 L 710 225.167 L 695 233.827 L 695 245.374 L 710 254.034 L 710 265.581 L 675 285.788 L 675 331.976 L 660 340.637 L 660 352.184 L 745 401.258 L 745 453.22 Q 661.313 501.902 660 502.295 Q 658.688 502.688 660 508.068 L 675 516.728 L 675 528.275 L 655 539.823 L 710 571.577 L 710 623.538 L 425 788.083 Z " fill="none" mask="url(#_mask_E5Q1YvsRFpmNVWi03nGn2HUoQsZq2d1r)" vector-effect="non-scaling-stroke" stroke-width="30" stroke="rgb(0,0,0)" stroke-linejoin="round" stroke-linecap="round" stroke-miterlimit="3"/></g></svg>